G75*
%MOIN*%
%OFA0B0*%
%FSLAX25Y25*%
%IPPOS*%
%LPD*%
%AMOC8*
5,1,8,0,0,1.08239X$1,22.5*
%
%ADD10C,0.01000*%
%ADD11R,0.70000X0.15000*%
%ADD12C,0.03200*%
%ADD13C,0.08800*%
%ADD14OC8,0.06000*%
%ADD15C,0.08200*%
D10*
X0001500Y0101500D02*
X0001530Y0103954D01*
X0001620Y0106407D01*
X0001771Y0108856D01*
X0001982Y0111302D01*
X0002252Y0113741D01*
X0002582Y0116173D01*
X0002972Y0118596D01*
X0003421Y0121009D01*
X0003930Y0123410D01*
X0004497Y0125798D01*
X0005122Y0128171D01*
X0005806Y0130528D01*
X0006547Y0132868D01*
X0007346Y0135189D01*
X0008201Y0137490D01*
X0009112Y0139768D01*
X0010079Y0142024D01*
X0011101Y0144256D01*
X0012178Y0146461D01*
X0013308Y0148640D01*
X0014491Y0150790D01*
X0015727Y0152910D01*
X0017015Y0155000D01*
X0018353Y0157057D01*
X0019742Y0159081D01*
X0021179Y0161070D01*
X0022665Y0163023D01*
X0024199Y0164939D01*
X0025779Y0166817D01*
X0027405Y0168656D01*
X0029075Y0170454D01*
X0030789Y0172211D01*
X0032546Y0173925D01*
X0034344Y0175595D01*
X0036183Y0177221D01*
X0038061Y0178801D01*
X0039977Y0180335D01*
X0041930Y0181821D01*
X0043919Y0183258D01*
X0045943Y0184647D01*
X0048000Y0185985D01*
X0050090Y0187273D01*
X0052210Y0188509D01*
X0054360Y0189692D01*
X0056539Y0190822D01*
X0058744Y0191899D01*
X0060976Y0192921D01*
X0063232Y0193888D01*
X0065510Y0194799D01*
X0067811Y0195654D01*
X0070132Y0196453D01*
X0072472Y0197194D01*
X0074829Y0197878D01*
X0077202Y0198503D01*
X0079590Y0199070D01*
X0081991Y0199579D01*
X0084404Y0200028D01*
X0086827Y0200418D01*
X0089259Y0200748D01*
X0091698Y0201018D01*
X0094144Y0201229D01*
X0096593Y0201380D01*
X0099046Y0201470D01*
X0101500Y0201500D01*
X0103954Y0201470D01*
X0106407Y0201380D01*
X0108856Y0201229D01*
X0111302Y0201018D01*
X0113741Y0200748D01*
X0116173Y0200418D01*
X0118596Y0200028D01*
X0121009Y0199579D01*
X0123410Y0199070D01*
X0125798Y0198503D01*
X0128171Y0197878D01*
X0130528Y0197194D01*
X0132868Y0196453D01*
X0135189Y0195654D01*
X0137490Y0194799D01*
X0139768Y0193888D01*
X0142024Y0192921D01*
X0144256Y0191899D01*
X0146461Y0190822D01*
X0148640Y0189692D01*
X0150790Y0188509D01*
X0152910Y0187273D01*
X0155000Y0185985D01*
X0157057Y0184647D01*
X0159081Y0183258D01*
X0161070Y0181821D01*
X0163023Y0180335D01*
X0164939Y0178801D01*
X0166817Y0177221D01*
X0168656Y0175595D01*
X0170454Y0173925D01*
X0172211Y0172211D01*
X0173925Y0170454D01*
X0175595Y0168656D01*
X0177221Y0166817D01*
X0178801Y0164939D01*
X0180335Y0163023D01*
X0181821Y0161070D01*
X0183258Y0159081D01*
X0184647Y0157057D01*
X0185985Y0155000D01*
X0187273Y0152910D01*
X0188509Y0150790D01*
X0189692Y0148640D01*
X0190822Y0146461D01*
X0191899Y0144256D01*
X0192921Y0142024D01*
X0193888Y0139768D01*
X0194799Y0137490D01*
X0195654Y0135189D01*
X0196453Y0132868D01*
X0197194Y0130528D01*
X0197878Y0128171D01*
X0198503Y0125798D01*
X0199070Y0123410D01*
X0199579Y0121009D01*
X0200028Y0118596D01*
X0200418Y0116173D01*
X0200748Y0113741D01*
X0201018Y0111302D01*
X0201229Y0108856D01*
X0201380Y0106407D01*
X0201470Y0103954D01*
X0201500Y0101500D01*
X0201470Y0099046D01*
X0201380Y0096593D01*
X0201229Y0094144D01*
X0201018Y0091698D01*
X0200748Y0089259D01*
X0200418Y0086827D01*
X0200028Y0084404D01*
X0199579Y0081991D01*
X0199070Y0079590D01*
X0198503Y0077202D01*
X0197878Y0074829D01*
X0197194Y0072472D01*
X0196453Y0070132D01*
X0195654Y0067811D01*
X0194799Y0065510D01*
X0193888Y0063232D01*
X0192921Y0060976D01*
X0191899Y0058744D01*
X0190822Y0056539D01*
X0189692Y0054360D01*
X0188509Y0052210D01*
X0187273Y0050090D01*
X0185985Y0048000D01*
X0184647Y0045943D01*
X0183258Y0043919D01*
X0181821Y0041930D01*
X0180335Y0039977D01*
X0178801Y0038061D01*
X0177221Y0036183D01*
X0175595Y0034344D01*
X0173925Y0032546D01*
X0172211Y0030789D01*
X0170454Y0029075D01*
X0168656Y0027405D01*
X0166817Y0025779D01*
X0164939Y0024199D01*
X0163023Y0022665D01*
X0161070Y0021179D01*
X0159081Y0019742D01*
X0157057Y0018353D01*
X0155000Y0017015D01*
X0152910Y0015727D01*
X0150790Y0014491D01*
X0148640Y0013308D01*
X0146461Y0012178D01*
X0144256Y0011101D01*
X0142024Y0010079D01*
X0139768Y0009112D01*
X0137490Y0008201D01*
X0135189Y0007346D01*
X0132868Y0006547D01*
X0130528Y0005806D01*
X0128171Y0005122D01*
X0125798Y0004497D01*
X0123410Y0003930D01*
X0121009Y0003421D01*
X0118596Y0002972D01*
X0116173Y0002582D01*
X0113741Y0002252D01*
X0111302Y0001982D01*
X0108856Y0001771D01*
X0106407Y0001620D01*
X0103954Y0001530D01*
X0101500Y0001500D01*
X0099046Y0001530D01*
X0096593Y0001620D01*
X0094144Y0001771D01*
X0091698Y0001982D01*
X0089259Y0002252D01*
X0086827Y0002582D01*
X0084404Y0002972D01*
X0081991Y0003421D01*
X0079590Y0003930D01*
X0077202Y0004497D01*
X0074829Y0005122D01*
X0072472Y0005806D01*
X0070132Y0006547D01*
X0067811Y0007346D01*
X0065510Y0008201D01*
X0063232Y0009112D01*
X0060976Y0010079D01*
X0058744Y0011101D01*
X0056539Y0012178D01*
X0054360Y0013308D01*
X0052210Y0014491D01*
X0050090Y0015727D01*
X0048000Y0017015D01*
X0045943Y0018353D01*
X0043919Y0019742D01*
X0041930Y0021179D01*
X0039977Y0022665D01*
X0038061Y0024199D01*
X0036183Y0025779D01*
X0034344Y0027405D01*
X0032546Y0029075D01*
X0030789Y0030789D01*
X0029075Y0032546D01*
X0027405Y0034344D01*
X0025779Y0036183D01*
X0024199Y0038061D01*
X0022665Y0039977D01*
X0021179Y0041930D01*
X0019742Y0043919D01*
X0018353Y0045943D01*
X0017015Y0048000D01*
X0015727Y0050090D01*
X0014491Y0052210D01*
X0013308Y0054360D01*
X0012178Y0056539D01*
X0011101Y0058744D01*
X0010079Y0060976D01*
X0009112Y0063232D01*
X0008201Y0065510D01*
X0007346Y0067811D01*
X0006547Y0070132D01*
X0005806Y0072472D01*
X0005122Y0074829D01*
X0004497Y0077202D01*
X0003930Y0079590D01*
X0003421Y0081991D01*
X0002972Y0084404D01*
X0002582Y0086827D01*
X0002252Y0089259D01*
X0001982Y0091698D01*
X0001771Y0094144D01*
X0001620Y0096593D01*
X0001530Y0099046D01*
X0001500Y0101500D01*
D11*
X0101500Y0184000D03*
D12*
X0136500Y0154000D02*
X0136502Y0154099D01*
X0136508Y0154199D01*
X0136518Y0154298D01*
X0136532Y0154396D01*
X0136549Y0154494D01*
X0136571Y0154591D01*
X0136596Y0154687D01*
X0136625Y0154782D01*
X0136658Y0154876D01*
X0136695Y0154968D01*
X0136735Y0155059D01*
X0136779Y0155148D01*
X0136827Y0155236D01*
X0136878Y0155321D01*
X0136932Y0155404D01*
X0136989Y0155486D01*
X0137050Y0155564D01*
X0137114Y0155641D01*
X0137180Y0155714D01*
X0137250Y0155785D01*
X0137322Y0155853D01*
X0137397Y0155919D01*
X0137475Y0155981D01*
X0137555Y0156040D01*
X0137637Y0156096D01*
X0137721Y0156148D01*
X0137808Y0156197D01*
X0137896Y0156243D01*
X0137986Y0156285D01*
X0138078Y0156324D01*
X0138171Y0156359D01*
X0138265Y0156390D01*
X0138361Y0156417D01*
X0138458Y0156440D01*
X0138555Y0156460D01*
X0138653Y0156476D01*
X0138752Y0156488D01*
X0138851Y0156496D01*
X0138950Y0156500D01*
X0139050Y0156500D01*
X0139149Y0156496D01*
X0139248Y0156488D01*
X0139347Y0156476D01*
X0139445Y0156460D01*
X0139542Y0156440D01*
X0139639Y0156417D01*
X0139735Y0156390D01*
X0139829Y0156359D01*
X0139922Y0156324D01*
X0140014Y0156285D01*
X0140104Y0156243D01*
X0140192Y0156197D01*
X0140279Y0156148D01*
X0140363Y0156096D01*
X0140445Y0156040D01*
X0140525Y0155981D01*
X0140603Y0155919D01*
X0140678Y0155853D01*
X0140750Y0155785D01*
X0140820Y0155714D01*
X0140886Y0155641D01*
X0140950Y0155564D01*
X0141011Y0155486D01*
X0141068Y0155404D01*
X0141122Y0155321D01*
X0141173Y0155236D01*
X0141221Y0155148D01*
X0141265Y0155059D01*
X0141305Y0154968D01*
X0141342Y0154876D01*
X0141375Y0154782D01*
X0141404Y0154687D01*
X0141429Y0154591D01*
X0141451Y0154494D01*
X0141468Y0154396D01*
X0141482Y0154298D01*
X0141492Y0154199D01*
X0141498Y0154099D01*
X0141500Y0154000D01*
X0141498Y0153901D01*
X0141492Y0153801D01*
X0141482Y0153702D01*
X0141468Y0153604D01*
X0141451Y0153506D01*
X0141429Y0153409D01*
X0141404Y0153313D01*
X0141375Y0153218D01*
X0141342Y0153124D01*
X0141305Y0153032D01*
X0141265Y0152941D01*
X0141221Y0152852D01*
X0141173Y0152764D01*
X0141122Y0152679D01*
X0141068Y0152596D01*
X0141011Y0152514D01*
X0140950Y0152436D01*
X0140886Y0152359D01*
X0140820Y0152286D01*
X0140750Y0152215D01*
X0140678Y0152147D01*
X0140603Y0152081D01*
X0140525Y0152019D01*
X0140445Y0151960D01*
X0140363Y0151904D01*
X0140279Y0151852D01*
X0140192Y0151803D01*
X0140104Y0151757D01*
X0140014Y0151715D01*
X0139922Y0151676D01*
X0139829Y0151641D01*
X0139735Y0151610D01*
X0139639Y0151583D01*
X0139542Y0151560D01*
X0139445Y0151540D01*
X0139347Y0151524D01*
X0139248Y0151512D01*
X0139149Y0151504D01*
X0139050Y0151500D01*
X0138950Y0151500D01*
X0138851Y0151504D01*
X0138752Y0151512D01*
X0138653Y0151524D01*
X0138555Y0151540D01*
X0138458Y0151560D01*
X0138361Y0151583D01*
X0138265Y0151610D01*
X0138171Y0151641D01*
X0138078Y0151676D01*
X0137986Y0151715D01*
X0137896Y0151757D01*
X0137808Y0151803D01*
X0137721Y0151852D01*
X0137637Y0151904D01*
X0137555Y0151960D01*
X0137475Y0152019D01*
X0137397Y0152081D01*
X0137322Y0152147D01*
X0137250Y0152215D01*
X0137180Y0152286D01*
X0137114Y0152359D01*
X0137050Y0152436D01*
X0136989Y0152514D01*
X0136932Y0152596D01*
X0136878Y0152679D01*
X0136827Y0152764D01*
X0136779Y0152852D01*
X0136735Y0152941D01*
X0136695Y0153032D01*
X0136658Y0153124D01*
X0136625Y0153218D01*
X0136596Y0153313D01*
X0136571Y0153409D01*
X0136549Y0153506D01*
X0136532Y0153604D01*
X0136518Y0153702D01*
X0136508Y0153801D01*
X0136502Y0153901D01*
X0136500Y0154000D01*
X0136500Y0144000D02*
X0136502Y0144099D01*
X0136508Y0144199D01*
X0136518Y0144298D01*
X0136532Y0144396D01*
X0136549Y0144494D01*
X0136571Y0144591D01*
X0136596Y0144687D01*
X0136625Y0144782D01*
X0136658Y0144876D01*
X0136695Y0144968D01*
X0136735Y0145059D01*
X0136779Y0145148D01*
X0136827Y0145236D01*
X0136878Y0145321D01*
X0136932Y0145404D01*
X0136989Y0145486D01*
X0137050Y0145564D01*
X0137114Y0145641D01*
X0137180Y0145714D01*
X0137250Y0145785D01*
X0137322Y0145853D01*
X0137397Y0145919D01*
X0137475Y0145981D01*
X0137555Y0146040D01*
X0137637Y0146096D01*
X0137721Y0146148D01*
X0137808Y0146197D01*
X0137896Y0146243D01*
X0137986Y0146285D01*
X0138078Y0146324D01*
X0138171Y0146359D01*
X0138265Y0146390D01*
X0138361Y0146417D01*
X0138458Y0146440D01*
X0138555Y0146460D01*
X0138653Y0146476D01*
X0138752Y0146488D01*
X0138851Y0146496D01*
X0138950Y0146500D01*
X0139050Y0146500D01*
X0139149Y0146496D01*
X0139248Y0146488D01*
X0139347Y0146476D01*
X0139445Y0146460D01*
X0139542Y0146440D01*
X0139639Y0146417D01*
X0139735Y0146390D01*
X0139829Y0146359D01*
X0139922Y0146324D01*
X0140014Y0146285D01*
X0140104Y0146243D01*
X0140192Y0146197D01*
X0140279Y0146148D01*
X0140363Y0146096D01*
X0140445Y0146040D01*
X0140525Y0145981D01*
X0140603Y0145919D01*
X0140678Y0145853D01*
X0140750Y0145785D01*
X0140820Y0145714D01*
X0140886Y0145641D01*
X0140950Y0145564D01*
X0141011Y0145486D01*
X0141068Y0145404D01*
X0141122Y0145321D01*
X0141173Y0145236D01*
X0141221Y0145148D01*
X0141265Y0145059D01*
X0141305Y0144968D01*
X0141342Y0144876D01*
X0141375Y0144782D01*
X0141404Y0144687D01*
X0141429Y0144591D01*
X0141451Y0144494D01*
X0141468Y0144396D01*
X0141482Y0144298D01*
X0141492Y0144199D01*
X0141498Y0144099D01*
X0141500Y0144000D01*
X0141498Y0143901D01*
X0141492Y0143801D01*
X0141482Y0143702D01*
X0141468Y0143604D01*
X0141451Y0143506D01*
X0141429Y0143409D01*
X0141404Y0143313D01*
X0141375Y0143218D01*
X0141342Y0143124D01*
X0141305Y0143032D01*
X0141265Y0142941D01*
X0141221Y0142852D01*
X0141173Y0142764D01*
X0141122Y0142679D01*
X0141068Y0142596D01*
X0141011Y0142514D01*
X0140950Y0142436D01*
X0140886Y0142359D01*
X0140820Y0142286D01*
X0140750Y0142215D01*
X0140678Y0142147D01*
X0140603Y0142081D01*
X0140525Y0142019D01*
X0140445Y0141960D01*
X0140363Y0141904D01*
X0140279Y0141852D01*
X0140192Y0141803D01*
X0140104Y0141757D01*
X0140014Y0141715D01*
X0139922Y0141676D01*
X0139829Y0141641D01*
X0139735Y0141610D01*
X0139639Y0141583D01*
X0139542Y0141560D01*
X0139445Y0141540D01*
X0139347Y0141524D01*
X0139248Y0141512D01*
X0139149Y0141504D01*
X0139050Y0141500D01*
X0138950Y0141500D01*
X0138851Y0141504D01*
X0138752Y0141512D01*
X0138653Y0141524D01*
X0138555Y0141540D01*
X0138458Y0141560D01*
X0138361Y0141583D01*
X0138265Y0141610D01*
X0138171Y0141641D01*
X0138078Y0141676D01*
X0137986Y0141715D01*
X0137896Y0141757D01*
X0137808Y0141803D01*
X0137721Y0141852D01*
X0137637Y0141904D01*
X0137555Y0141960D01*
X0137475Y0142019D01*
X0137397Y0142081D01*
X0137322Y0142147D01*
X0137250Y0142215D01*
X0137180Y0142286D01*
X0137114Y0142359D01*
X0137050Y0142436D01*
X0136989Y0142514D01*
X0136932Y0142596D01*
X0136878Y0142679D01*
X0136827Y0142764D01*
X0136779Y0142852D01*
X0136735Y0142941D01*
X0136695Y0143032D01*
X0136658Y0143124D01*
X0136625Y0143218D01*
X0136596Y0143313D01*
X0136571Y0143409D01*
X0136549Y0143506D01*
X0136532Y0143604D01*
X0136518Y0143702D01*
X0136508Y0143801D01*
X0136502Y0143901D01*
X0136500Y0144000D01*
X0099000Y0116500D02*
X0099002Y0116599D01*
X0099008Y0116699D01*
X0099018Y0116798D01*
X0099032Y0116896D01*
X0099049Y0116994D01*
X0099071Y0117091D01*
X0099096Y0117187D01*
X0099125Y0117282D01*
X0099158Y0117376D01*
X0099195Y0117468D01*
X0099235Y0117559D01*
X0099279Y0117648D01*
X0099327Y0117736D01*
X0099378Y0117821D01*
X0099432Y0117904D01*
X0099489Y0117986D01*
X0099550Y0118064D01*
X0099614Y0118141D01*
X0099680Y0118214D01*
X0099750Y0118285D01*
X0099822Y0118353D01*
X0099897Y0118419D01*
X0099975Y0118481D01*
X0100055Y0118540D01*
X0100137Y0118596D01*
X0100221Y0118648D01*
X0100308Y0118697D01*
X0100396Y0118743D01*
X0100486Y0118785D01*
X0100578Y0118824D01*
X0100671Y0118859D01*
X0100765Y0118890D01*
X0100861Y0118917D01*
X0100958Y0118940D01*
X0101055Y0118960D01*
X0101153Y0118976D01*
X0101252Y0118988D01*
X0101351Y0118996D01*
X0101450Y0119000D01*
X0101550Y0119000D01*
X0101649Y0118996D01*
X0101748Y0118988D01*
X0101847Y0118976D01*
X0101945Y0118960D01*
X0102042Y0118940D01*
X0102139Y0118917D01*
X0102235Y0118890D01*
X0102329Y0118859D01*
X0102422Y0118824D01*
X0102514Y0118785D01*
X0102604Y0118743D01*
X0102692Y0118697D01*
X0102779Y0118648D01*
X0102863Y0118596D01*
X0102945Y0118540D01*
X0103025Y0118481D01*
X0103103Y0118419D01*
X0103178Y0118353D01*
X0103250Y0118285D01*
X0103320Y0118214D01*
X0103386Y0118141D01*
X0103450Y0118064D01*
X0103511Y0117986D01*
X0103568Y0117904D01*
X0103622Y0117821D01*
X0103673Y0117736D01*
X0103721Y0117648D01*
X0103765Y0117559D01*
X0103805Y0117468D01*
X0103842Y0117376D01*
X0103875Y0117282D01*
X0103904Y0117187D01*
X0103929Y0117091D01*
X0103951Y0116994D01*
X0103968Y0116896D01*
X0103982Y0116798D01*
X0103992Y0116699D01*
X0103998Y0116599D01*
X0104000Y0116500D01*
X0103998Y0116401D01*
X0103992Y0116301D01*
X0103982Y0116202D01*
X0103968Y0116104D01*
X0103951Y0116006D01*
X0103929Y0115909D01*
X0103904Y0115813D01*
X0103875Y0115718D01*
X0103842Y0115624D01*
X0103805Y0115532D01*
X0103765Y0115441D01*
X0103721Y0115352D01*
X0103673Y0115264D01*
X0103622Y0115179D01*
X0103568Y0115096D01*
X0103511Y0115014D01*
X0103450Y0114936D01*
X0103386Y0114859D01*
X0103320Y0114786D01*
X0103250Y0114715D01*
X0103178Y0114647D01*
X0103103Y0114581D01*
X0103025Y0114519D01*
X0102945Y0114460D01*
X0102863Y0114404D01*
X0102779Y0114352D01*
X0102692Y0114303D01*
X0102604Y0114257D01*
X0102514Y0114215D01*
X0102422Y0114176D01*
X0102329Y0114141D01*
X0102235Y0114110D01*
X0102139Y0114083D01*
X0102042Y0114060D01*
X0101945Y0114040D01*
X0101847Y0114024D01*
X0101748Y0114012D01*
X0101649Y0114004D01*
X0101550Y0114000D01*
X0101450Y0114000D01*
X0101351Y0114004D01*
X0101252Y0114012D01*
X0101153Y0114024D01*
X0101055Y0114040D01*
X0100958Y0114060D01*
X0100861Y0114083D01*
X0100765Y0114110D01*
X0100671Y0114141D01*
X0100578Y0114176D01*
X0100486Y0114215D01*
X0100396Y0114257D01*
X0100308Y0114303D01*
X0100221Y0114352D01*
X0100137Y0114404D01*
X0100055Y0114460D01*
X0099975Y0114519D01*
X0099897Y0114581D01*
X0099822Y0114647D01*
X0099750Y0114715D01*
X0099680Y0114786D01*
X0099614Y0114859D01*
X0099550Y0114936D01*
X0099489Y0115014D01*
X0099432Y0115096D01*
X0099378Y0115179D01*
X0099327Y0115264D01*
X0099279Y0115352D01*
X0099235Y0115441D01*
X0099195Y0115532D01*
X0099158Y0115624D01*
X0099125Y0115718D01*
X0099096Y0115813D01*
X0099071Y0115909D01*
X0099049Y0116006D01*
X0099032Y0116104D01*
X0099018Y0116202D01*
X0099008Y0116301D01*
X0099002Y0116401D01*
X0099000Y0116500D01*
X0099000Y0106500D02*
X0099002Y0106599D01*
X0099008Y0106699D01*
X0099018Y0106798D01*
X0099032Y0106896D01*
X0099049Y0106994D01*
X0099071Y0107091D01*
X0099096Y0107187D01*
X0099125Y0107282D01*
X0099158Y0107376D01*
X0099195Y0107468D01*
X0099235Y0107559D01*
X0099279Y0107648D01*
X0099327Y0107736D01*
X0099378Y0107821D01*
X0099432Y0107904D01*
X0099489Y0107986D01*
X0099550Y0108064D01*
X0099614Y0108141D01*
X0099680Y0108214D01*
X0099750Y0108285D01*
X0099822Y0108353D01*
X0099897Y0108419D01*
X0099975Y0108481D01*
X0100055Y0108540D01*
X0100137Y0108596D01*
X0100221Y0108648D01*
X0100308Y0108697D01*
X0100396Y0108743D01*
X0100486Y0108785D01*
X0100578Y0108824D01*
X0100671Y0108859D01*
X0100765Y0108890D01*
X0100861Y0108917D01*
X0100958Y0108940D01*
X0101055Y0108960D01*
X0101153Y0108976D01*
X0101252Y0108988D01*
X0101351Y0108996D01*
X0101450Y0109000D01*
X0101550Y0109000D01*
X0101649Y0108996D01*
X0101748Y0108988D01*
X0101847Y0108976D01*
X0101945Y0108960D01*
X0102042Y0108940D01*
X0102139Y0108917D01*
X0102235Y0108890D01*
X0102329Y0108859D01*
X0102422Y0108824D01*
X0102514Y0108785D01*
X0102604Y0108743D01*
X0102692Y0108697D01*
X0102779Y0108648D01*
X0102863Y0108596D01*
X0102945Y0108540D01*
X0103025Y0108481D01*
X0103103Y0108419D01*
X0103178Y0108353D01*
X0103250Y0108285D01*
X0103320Y0108214D01*
X0103386Y0108141D01*
X0103450Y0108064D01*
X0103511Y0107986D01*
X0103568Y0107904D01*
X0103622Y0107821D01*
X0103673Y0107736D01*
X0103721Y0107648D01*
X0103765Y0107559D01*
X0103805Y0107468D01*
X0103842Y0107376D01*
X0103875Y0107282D01*
X0103904Y0107187D01*
X0103929Y0107091D01*
X0103951Y0106994D01*
X0103968Y0106896D01*
X0103982Y0106798D01*
X0103992Y0106699D01*
X0103998Y0106599D01*
X0104000Y0106500D01*
X0103998Y0106401D01*
X0103992Y0106301D01*
X0103982Y0106202D01*
X0103968Y0106104D01*
X0103951Y0106006D01*
X0103929Y0105909D01*
X0103904Y0105813D01*
X0103875Y0105718D01*
X0103842Y0105624D01*
X0103805Y0105532D01*
X0103765Y0105441D01*
X0103721Y0105352D01*
X0103673Y0105264D01*
X0103622Y0105179D01*
X0103568Y0105096D01*
X0103511Y0105014D01*
X0103450Y0104936D01*
X0103386Y0104859D01*
X0103320Y0104786D01*
X0103250Y0104715D01*
X0103178Y0104647D01*
X0103103Y0104581D01*
X0103025Y0104519D01*
X0102945Y0104460D01*
X0102863Y0104404D01*
X0102779Y0104352D01*
X0102692Y0104303D01*
X0102604Y0104257D01*
X0102514Y0104215D01*
X0102422Y0104176D01*
X0102329Y0104141D01*
X0102235Y0104110D01*
X0102139Y0104083D01*
X0102042Y0104060D01*
X0101945Y0104040D01*
X0101847Y0104024D01*
X0101748Y0104012D01*
X0101649Y0104004D01*
X0101550Y0104000D01*
X0101450Y0104000D01*
X0101351Y0104004D01*
X0101252Y0104012D01*
X0101153Y0104024D01*
X0101055Y0104040D01*
X0100958Y0104060D01*
X0100861Y0104083D01*
X0100765Y0104110D01*
X0100671Y0104141D01*
X0100578Y0104176D01*
X0100486Y0104215D01*
X0100396Y0104257D01*
X0100308Y0104303D01*
X0100221Y0104352D01*
X0100137Y0104404D01*
X0100055Y0104460D01*
X0099975Y0104519D01*
X0099897Y0104581D01*
X0099822Y0104647D01*
X0099750Y0104715D01*
X0099680Y0104786D01*
X0099614Y0104859D01*
X0099550Y0104936D01*
X0099489Y0105014D01*
X0099432Y0105096D01*
X0099378Y0105179D01*
X0099327Y0105264D01*
X0099279Y0105352D01*
X0099235Y0105441D01*
X0099195Y0105532D01*
X0099158Y0105624D01*
X0099125Y0105718D01*
X0099096Y0105813D01*
X0099071Y0105909D01*
X0099049Y0106006D01*
X0099032Y0106104D01*
X0099018Y0106202D01*
X0099008Y0106301D01*
X0099002Y0106401D01*
X0099000Y0106500D01*
X0099000Y0096500D02*
X0099002Y0096599D01*
X0099008Y0096699D01*
X0099018Y0096798D01*
X0099032Y0096896D01*
X0099049Y0096994D01*
X0099071Y0097091D01*
X0099096Y0097187D01*
X0099125Y0097282D01*
X0099158Y0097376D01*
X0099195Y0097468D01*
X0099235Y0097559D01*
X0099279Y0097648D01*
X0099327Y0097736D01*
X0099378Y0097821D01*
X0099432Y0097904D01*
X0099489Y0097986D01*
X0099550Y0098064D01*
X0099614Y0098141D01*
X0099680Y0098214D01*
X0099750Y0098285D01*
X0099822Y0098353D01*
X0099897Y0098419D01*
X0099975Y0098481D01*
X0100055Y0098540D01*
X0100137Y0098596D01*
X0100221Y0098648D01*
X0100308Y0098697D01*
X0100396Y0098743D01*
X0100486Y0098785D01*
X0100578Y0098824D01*
X0100671Y0098859D01*
X0100765Y0098890D01*
X0100861Y0098917D01*
X0100958Y0098940D01*
X0101055Y0098960D01*
X0101153Y0098976D01*
X0101252Y0098988D01*
X0101351Y0098996D01*
X0101450Y0099000D01*
X0101550Y0099000D01*
X0101649Y0098996D01*
X0101748Y0098988D01*
X0101847Y0098976D01*
X0101945Y0098960D01*
X0102042Y0098940D01*
X0102139Y0098917D01*
X0102235Y0098890D01*
X0102329Y0098859D01*
X0102422Y0098824D01*
X0102514Y0098785D01*
X0102604Y0098743D01*
X0102692Y0098697D01*
X0102779Y0098648D01*
X0102863Y0098596D01*
X0102945Y0098540D01*
X0103025Y0098481D01*
X0103103Y0098419D01*
X0103178Y0098353D01*
X0103250Y0098285D01*
X0103320Y0098214D01*
X0103386Y0098141D01*
X0103450Y0098064D01*
X0103511Y0097986D01*
X0103568Y0097904D01*
X0103622Y0097821D01*
X0103673Y0097736D01*
X0103721Y0097648D01*
X0103765Y0097559D01*
X0103805Y0097468D01*
X0103842Y0097376D01*
X0103875Y0097282D01*
X0103904Y0097187D01*
X0103929Y0097091D01*
X0103951Y0096994D01*
X0103968Y0096896D01*
X0103982Y0096798D01*
X0103992Y0096699D01*
X0103998Y0096599D01*
X0104000Y0096500D01*
X0103998Y0096401D01*
X0103992Y0096301D01*
X0103982Y0096202D01*
X0103968Y0096104D01*
X0103951Y0096006D01*
X0103929Y0095909D01*
X0103904Y0095813D01*
X0103875Y0095718D01*
X0103842Y0095624D01*
X0103805Y0095532D01*
X0103765Y0095441D01*
X0103721Y0095352D01*
X0103673Y0095264D01*
X0103622Y0095179D01*
X0103568Y0095096D01*
X0103511Y0095014D01*
X0103450Y0094936D01*
X0103386Y0094859D01*
X0103320Y0094786D01*
X0103250Y0094715D01*
X0103178Y0094647D01*
X0103103Y0094581D01*
X0103025Y0094519D01*
X0102945Y0094460D01*
X0102863Y0094404D01*
X0102779Y0094352D01*
X0102692Y0094303D01*
X0102604Y0094257D01*
X0102514Y0094215D01*
X0102422Y0094176D01*
X0102329Y0094141D01*
X0102235Y0094110D01*
X0102139Y0094083D01*
X0102042Y0094060D01*
X0101945Y0094040D01*
X0101847Y0094024D01*
X0101748Y0094012D01*
X0101649Y0094004D01*
X0101550Y0094000D01*
X0101450Y0094000D01*
X0101351Y0094004D01*
X0101252Y0094012D01*
X0101153Y0094024D01*
X0101055Y0094040D01*
X0100958Y0094060D01*
X0100861Y0094083D01*
X0100765Y0094110D01*
X0100671Y0094141D01*
X0100578Y0094176D01*
X0100486Y0094215D01*
X0100396Y0094257D01*
X0100308Y0094303D01*
X0100221Y0094352D01*
X0100137Y0094404D01*
X0100055Y0094460D01*
X0099975Y0094519D01*
X0099897Y0094581D01*
X0099822Y0094647D01*
X0099750Y0094715D01*
X0099680Y0094786D01*
X0099614Y0094859D01*
X0099550Y0094936D01*
X0099489Y0095014D01*
X0099432Y0095096D01*
X0099378Y0095179D01*
X0099327Y0095264D01*
X0099279Y0095352D01*
X0099235Y0095441D01*
X0099195Y0095532D01*
X0099158Y0095624D01*
X0099125Y0095718D01*
X0099096Y0095813D01*
X0099071Y0095909D01*
X0099049Y0096006D01*
X0099032Y0096104D01*
X0099018Y0096202D01*
X0099008Y0096301D01*
X0099002Y0096401D01*
X0099000Y0096500D01*
X0061500Y0144000D02*
X0061502Y0144099D01*
X0061508Y0144199D01*
X0061518Y0144298D01*
X0061532Y0144396D01*
X0061549Y0144494D01*
X0061571Y0144591D01*
X0061596Y0144687D01*
X0061625Y0144782D01*
X0061658Y0144876D01*
X0061695Y0144968D01*
X0061735Y0145059D01*
X0061779Y0145148D01*
X0061827Y0145236D01*
X0061878Y0145321D01*
X0061932Y0145404D01*
X0061989Y0145486D01*
X0062050Y0145564D01*
X0062114Y0145641D01*
X0062180Y0145714D01*
X0062250Y0145785D01*
X0062322Y0145853D01*
X0062397Y0145919D01*
X0062475Y0145981D01*
X0062555Y0146040D01*
X0062637Y0146096D01*
X0062721Y0146148D01*
X0062808Y0146197D01*
X0062896Y0146243D01*
X0062986Y0146285D01*
X0063078Y0146324D01*
X0063171Y0146359D01*
X0063265Y0146390D01*
X0063361Y0146417D01*
X0063458Y0146440D01*
X0063555Y0146460D01*
X0063653Y0146476D01*
X0063752Y0146488D01*
X0063851Y0146496D01*
X0063950Y0146500D01*
X0064050Y0146500D01*
X0064149Y0146496D01*
X0064248Y0146488D01*
X0064347Y0146476D01*
X0064445Y0146460D01*
X0064542Y0146440D01*
X0064639Y0146417D01*
X0064735Y0146390D01*
X0064829Y0146359D01*
X0064922Y0146324D01*
X0065014Y0146285D01*
X0065104Y0146243D01*
X0065192Y0146197D01*
X0065279Y0146148D01*
X0065363Y0146096D01*
X0065445Y0146040D01*
X0065525Y0145981D01*
X0065603Y0145919D01*
X0065678Y0145853D01*
X0065750Y0145785D01*
X0065820Y0145714D01*
X0065886Y0145641D01*
X0065950Y0145564D01*
X0066011Y0145486D01*
X0066068Y0145404D01*
X0066122Y0145321D01*
X0066173Y0145236D01*
X0066221Y0145148D01*
X0066265Y0145059D01*
X0066305Y0144968D01*
X0066342Y0144876D01*
X0066375Y0144782D01*
X0066404Y0144687D01*
X0066429Y0144591D01*
X0066451Y0144494D01*
X0066468Y0144396D01*
X0066482Y0144298D01*
X0066492Y0144199D01*
X0066498Y0144099D01*
X0066500Y0144000D01*
X0066498Y0143901D01*
X0066492Y0143801D01*
X0066482Y0143702D01*
X0066468Y0143604D01*
X0066451Y0143506D01*
X0066429Y0143409D01*
X0066404Y0143313D01*
X0066375Y0143218D01*
X0066342Y0143124D01*
X0066305Y0143032D01*
X0066265Y0142941D01*
X0066221Y0142852D01*
X0066173Y0142764D01*
X0066122Y0142679D01*
X0066068Y0142596D01*
X0066011Y0142514D01*
X0065950Y0142436D01*
X0065886Y0142359D01*
X0065820Y0142286D01*
X0065750Y0142215D01*
X0065678Y0142147D01*
X0065603Y0142081D01*
X0065525Y0142019D01*
X0065445Y0141960D01*
X0065363Y0141904D01*
X0065279Y0141852D01*
X0065192Y0141803D01*
X0065104Y0141757D01*
X0065014Y0141715D01*
X0064922Y0141676D01*
X0064829Y0141641D01*
X0064735Y0141610D01*
X0064639Y0141583D01*
X0064542Y0141560D01*
X0064445Y0141540D01*
X0064347Y0141524D01*
X0064248Y0141512D01*
X0064149Y0141504D01*
X0064050Y0141500D01*
X0063950Y0141500D01*
X0063851Y0141504D01*
X0063752Y0141512D01*
X0063653Y0141524D01*
X0063555Y0141540D01*
X0063458Y0141560D01*
X0063361Y0141583D01*
X0063265Y0141610D01*
X0063171Y0141641D01*
X0063078Y0141676D01*
X0062986Y0141715D01*
X0062896Y0141757D01*
X0062808Y0141803D01*
X0062721Y0141852D01*
X0062637Y0141904D01*
X0062555Y0141960D01*
X0062475Y0142019D01*
X0062397Y0142081D01*
X0062322Y0142147D01*
X0062250Y0142215D01*
X0062180Y0142286D01*
X0062114Y0142359D01*
X0062050Y0142436D01*
X0061989Y0142514D01*
X0061932Y0142596D01*
X0061878Y0142679D01*
X0061827Y0142764D01*
X0061779Y0142852D01*
X0061735Y0142941D01*
X0061695Y0143032D01*
X0061658Y0143124D01*
X0061625Y0143218D01*
X0061596Y0143313D01*
X0061571Y0143409D01*
X0061549Y0143506D01*
X0061532Y0143604D01*
X0061518Y0143702D01*
X0061508Y0143801D01*
X0061502Y0143901D01*
X0061500Y0144000D01*
X0061500Y0154000D02*
X0061502Y0154099D01*
X0061508Y0154199D01*
X0061518Y0154298D01*
X0061532Y0154396D01*
X0061549Y0154494D01*
X0061571Y0154591D01*
X0061596Y0154687D01*
X0061625Y0154782D01*
X0061658Y0154876D01*
X0061695Y0154968D01*
X0061735Y0155059D01*
X0061779Y0155148D01*
X0061827Y0155236D01*
X0061878Y0155321D01*
X0061932Y0155404D01*
X0061989Y0155486D01*
X0062050Y0155564D01*
X0062114Y0155641D01*
X0062180Y0155714D01*
X0062250Y0155785D01*
X0062322Y0155853D01*
X0062397Y0155919D01*
X0062475Y0155981D01*
X0062555Y0156040D01*
X0062637Y0156096D01*
X0062721Y0156148D01*
X0062808Y0156197D01*
X0062896Y0156243D01*
X0062986Y0156285D01*
X0063078Y0156324D01*
X0063171Y0156359D01*
X0063265Y0156390D01*
X0063361Y0156417D01*
X0063458Y0156440D01*
X0063555Y0156460D01*
X0063653Y0156476D01*
X0063752Y0156488D01*
X0063851Y0156496D01*
X0063950Y0156500D01*
X0064050Y0156500D01*
X0064149Y0156496D01*
X0064248Y0156488D01*
X0064347Y0156476D01*
X0064445Y0156460D01*
X0064542Y0156440D01*
X0064639Y0156417D01*
X0064735Y0156390D01*
X0064829Y0156359D01*
X0064922Y0156324D01*
X0065014Y0156285D01*
X0065104Y0156243D01*
X0065192Y0156197D01*
X0065279Y0156148D01*
X0065363Y0156096D01*
X0065445Y0156040D01*
X0065525Y0155981D01*
X0065603Y0155919D01*
X0065678Y0155853D01*
X0065750Y0155785D01*
X0065820Y0155714D01*
X0065886Y0155641D01*
X0065950Y0155564D01*
X0066011Y0155486D01*
X0066068Y0155404D01*
X0066122Y0155321D01*
X0066173Y0155236D01*
X0066221Y0155148D01*
X0066265Y0155059D01*
X0066305Y0154968D01*
X0066342Y0154876D01*
X0066375Y0154782D01*
X0066404Y0154687D01*
X0066429Y0154591D01*
X0066451Y0154494D01*
X0066468Y0154396D01*
X0066482Y0154298D01*
X0066492Y0154199D01*
X0066498Y0154099D01*
X0066500Y0154000D01*
X0066498Y0153901D01*
X0066492Y0153801D01*
X0066482Y0153702D01*
X0066468Y0153604D01*
X0066451Y0153506D01*
X0066429Y0153409D01*
X0066404Y0153313D01*
X0066375Y0153218D01*
X0066342Y0153124D01*
X0066305Y0153032D01*
X0066265Y0152941D01*
X0066221Y0152852D01*
X0066173Y0152764D01*
X0066122Y0152679D01*
X0066068Y0152596D01*
X0066011Y0152514D01*
X0065950Y0152436D01*
X0065886Y0152359D01*
X0065820Y0152286D01*
X0065750Y0152215D01*
X0065678Y0152147D01*
X0065603Y0152081D01*
X0065525Y0152019D01*
X0065445Y0151960D01*
X0065363Y0151904D01*
X0065279Y0151852D01*
X0065192Y0151803D01*
X0065104Y0151757D01*
X0065014Y0151715D01*
X0064922Y0151676D01*
X0064829Y0151641D01*
X0064735Y0151610D01*
X0064639Y0151583D01*
X0064542Y0151560D01*
X0064445Y0151540D01*
X0064347Y0151524D01*
X0064248Y0151512D01*
X0064149Y0151504D01*
X0064050Y0151500D01*
X0063950Y0151500D01*
X0063851Y0151504D01*
X0063752Y0151512D01*
X0063653Y0151524D01*
X0063555Y0151540D01*
X0063458Y0151560D01*
X0063361Y0151583D01*
X0063265Y0151610D01*
X0063171Y0151641D01*
X0063078Y0151676D01*
X0062986Y0151715D01*
X0062896Y0151757D01*
X0062808Y0151803D01*
X0062721Y0151852D01*
X0062637Y0151904D01*
X0062555Y0151960D01*
X0062475Y0152019D01*
X0062397Y0152081D01*
X0062322Y0152147D01*
X0062250Y0152215D01*
X0062180Y0152286D01*
X0062114Y0152359D01*
X0062050Y0152436D01*
X0061989Y0152514D01*
X0061932Y0152596D01*
X0061878Y0152679D01*
X0061827Y0152764D01*
X0061779Y0152852D01*
X0061735Y0152941D01*
X0061695Y0153032D01*
X0061658Y0153124D01*
X0061625Y0153218D01*
X0061596Y0153313D01*
X0061571Y0153409D01*
X0061549Y0153506D01*
X0061532Y0153604D01*
X0061518Y0153702D01*
X0061508Y0153801D01*
X0061502Y0153901D01*
X0061500Y0154000D01*
D13*
X0061500Y0046500D03*
X0141500Y0046500D03*
D14*
X0139000Y0144000D03*
X0139000Y0154000D03*
X0064000Y0154000D03*
X0064000Y0144000D03*
D15*
X0101000Y0106500D03*
X0102000Y0096500D03*
X0102000Y0116500D03*
M02*
