G75*
%MOIN*%
%OFA0B0*%
%FSLAX25Y25*%
%IPPOS*%
%LPD*%
%AMOC8*
5,1,8,0,0,1.08239X$1,22.5*
%
%ADD10C,0.01000*%
%ADD11C,0.05000*%
%ADD12C,0.00800*%
%ADD13C,0.00600*%
D10*
X0001500Y0101500D02*
X0001530Y0103954D01*
X0001620Y0106407D01*
X0001771Y0108856D01*
X0001982Y0111302D01*
X0002252Y0113741D01*
X0002582Y0116173D01*
X0002972Y0118596D01*
X0003421Y0121009D01*
X0003930Y0123410D01*
X0004497Y0125798D01*
X0005122Y0128171D01*
X0005806Y0130528D01*
X0006547Y0132868D01*
X0007346Y0135189D01*
X0008201Y0137490D01*
X0009112Y0139768D01*
X0010079Y0142024D01*
X0011101Y0144256D01*
X0012178Y0146461D01*
X0013308Y0148640D01*
X0014491Y0150790D01*
X0015727Y0152910D01*
X0017015Y0155000D01*
X0018353Y0157057D01*
X0019742Y0159081D01*
X0021179Y0161070D01*
X0022665Y0163023D01*
X0024199Y0164939D01*
X0025779Y0166817D01*
X0027405Y0168656D01*
X0029075Y0170454D01*
X0030789Y0172211D01*
X0032546Y0173925D01*
X0034344Y0175595D01*
X0036183Y0177221D01*
X0038061Y0178801D01*
X0039977Y0180335D01*
X0041930Y0181821D01*
X0043919Y0183258D01*
X0045943Y0184647D01*
X0048000Y0185985D01*
X0050090Y0187273D01*
X0052210Y0188509D01*
X0054360Y0189692D01*
X0056539Y0190822D01*
X0058744Y0191899D01*
X0060976Y0192921D01*
X0063232Y0193888D01*
X0065510Y0194799D01*
X0067811Y0195654D01*
X0070132Y0196453D01*
X0072472Y0197194D01*
X0074829Y0197878D01*
X0077202Y0198503D01*
X0079590Y0199070D01*
X0081991Y0199579D01*
X0084404Y0200028D01*
X0086827Y0200418D01*
X0089259Y0200748D01*
X0091698Y0201018D01*
X0094144Y0201229D01*
X0096593Y0201380D01*
X0099046Y0201470D01*
X0101500Y0201500D01*
X0103954Y0201470D01*
X0106407Y0201380D01*
X0108856Y0201229D01*
X0111302Y0201018D01*
X0113741Y0200748D01*
X0116173Y0200418D01*
X0118596Y0200028D01*
X0121009Y0199579D01*
X0123410Y0199070D01*
X0125798Y0198503D01*
X0128171Y0197878D01*
X0130528Y0197194D01*
X0132868Y0196453D01*
X0135189Y0195654D01*
X0137490Y0194799D01*
X0139768Y0193888D01*
X0142024Y0192921D01*
X0144256Y0191899D01*
X0146461Y0190822D01*
X0148640Y0189692D01*
X0150790Y0188509D01*
X0152910Y0187273D01*
X0155000Y0185985D01*
X0157057Y0184647D01*
X0159081Y0183258D01*
X0161070Y0181821D01*
X0163023Y0180335D01*
X0164939Y0178801D01*
X0166817Y0177221D01*
X0168656Y0175595D01*
X0170454Y0173925D01*
X0172211Y0172211D01*
X0173925Y0170454D01*
X0175595Y0168656D01*
X0177221Y0166817D01*
X0178801Y0164939D01*
X0180335Y0163023D01*
X0181821Y0161070D01*
X0183258Y0159081D01*
X0184647Y0157057D01*
X0185985Y0155000D01*
X0187273Y0152910D01*
X0188509Y0150790D01*
X0189692Y0148640D01*
X0190822Y0146461D01*
X0191899Y0144256D01*
X0192921Y0142024D01*
X0193888Y0139768D01*
X0194799Y0137490D01*
X0195654Y0135189D01*
X0196453Y0132868D01*
X0197194Y0130528D01*
X0197878Y0128171D01*
X0198503Y0125798D01*
X0199070Y0123410D01*
X0199579Y0121009D01*
X0200028Y0118596D01*
X0200418Y0116173D01*
X0200748Y0113741D01*
X0201018Y0111302D01*
X0201229Y0108856D01*
X0201380Y0106407D01*
X0201470Y0103954D01*
X0201500Y0101500D01*
X0201470Y0099046D01*
X0201380Y0096593D01*
X0201229Y0094144D01*
X0201018Y0091698D01*
X0200748Y0089259D01*
X0200418Y0086827D01*
X0200028Y0084404D01*
X0199579Y0081991D01*
X0199070Y0079590D01*
X0198503Y0077202D01*
X0197878Y0074829D01*
X0197194Y0072472D01*
X0196453Y0070132D01*
X0195654Y0067811D01*
X0194799Y0065510D01*
X0193888Y0063232D01*
X0192921Y0060976D01*
X0191899Y0058744D01*
X0190822Y0056539D01*
X0189692Y0054360D01*
X0188509Y0052210D01*
X0187273Y0050090D01*
X0185985Y0048000D01*
X0184647Y0045943D01*
X0183258Y0043919D01*
X0181821Y0041930D01*
X0180335Y0039977D01*
X0178801Y0038061D01*
X0177221Y0036183D01*
X0175595Y0034344D01*
X0173925Y0032546D01*
X0172211Y0030789D01*
X0170454Y0029075D01*
X0168656Y0027405D01*
X0166817Y0025779D01*
X0164939Y0024199D01*
X0163023Y0022665D01*
X0161070Y0021179D01*
X0159081Y0019742D01*
X0157057Y0018353D01*
X0155000Y0017015D01*
X0152910Y0015727D01*
X0150790Y0014491D01*
X0148640Y0013308D01*
X0146461Y0012178D01*
X0144256Y0011101D01*
X0142024Y0010079D01*
X0139768Y0009112D01*
X0137490Y0008201D01*
X0135189Y0007346D01*
X0132868Y0006547D01*
X0130528Y0005806D01*
X0128171Y0005122D01*
X0125798Y0004497D01*
X0123410Y0003930D01*
X0121009Y0003421D01*
X0118596Y0002972D01*
X0116173Y0002582D01*
X0113741Y0002252D01*
X0111302Y0001982D01*
X0108856Y0001771D01*
X0106407Y0001620D01*
X0103954Y0001530D01*
X0101500Y0001500D01*
X0099046Y0001530D01*
X0096593Y0001620D01*
X0094144Y0001771D01*
X0091698Y0001982D01*
X0089259Y0002252D01*
X0086827Y0002582D01*
X0084404Y0002972D01*
X0081991Y0003421D01*
X0079590Y0003930D01*
X0077202Y0004497D01*
X0074829Y0005122D01*
X0072472Y0005806D01*
X0070132Y0006547D01*
X0067811Y0007346D01*
X0065510Y0008201D01*
X0063232Y0009112D01*
X0060976Y0010079D01*
X0058744Y0011101D01*
X0056539Y0012178D01*
X0054360Y0013308D01*
X0052210Y0014491D01*
X0050090Y0015727D01*
X0048000Y0017015D01*
X0045943Y0018353D01*
X0043919Y0019742D01*
X0041930Y0021179D01*
X0039977Y0022665D01*
X0038061Y0024199D01*
X0036183Y0025779D01*
X0034344Y0027405D01*
X0032546Y0029075D01*
X0030789Y0030789D01*
X0029075Y0032546D01*
X0027405Y0034344D01*
X0025779Y0036183D01*
X0024199Y0038061D01*
X0022665Y0039977D01*
X0021179Y0041930D01*
X0019742Y0043919D01*
X0018353Y0045943D01*
X0017015Y0048000D01*
X0015727Y0050090D01*
X0014491Y0052210D01*
X0013308Y0054360D01*
X0012178Y0056539D01*
X0011101Y0058744D01*
X0010079Y0060976D01*
X0009112Y0063232D01*
X0008201Y0065510D01*
X0007346Y0067811D01*
X0006547Y0070132D01*
X0005806Y0072472D01*
X0005122Y0074829D01*
X0004497Y0077202D01*
X0003930Y0079590D01*
X0003421Y0081991D01*
X0002972Y0084404D01*
X0002582Y0086827D01*
X0002252Y0089259D01*
X0001982Y0091698D01*
X0001771Y0094144D01*
X0001620Y0096593D01*
X0001530Y0099046D01*
X0001500Y0101500D01*
X0064000Y0151500D02*
X0063757Y0151687D01*
X0063519Y0151879D01*
X0063286Y0152078D01*
X0063058Y0152282D01*
X0062835Y0152491D01*
X0062617Y0152706D01*
X0062404Y0152926D01*
X0062197Y0153151D01*
X0061995Y0153382D01*
X0061799Y0153617D01*
X0061609Y0153857D01*
X0061425Y0154101D01*
X0061247Y0154350D01*
X0061075Y0154604D01*
X0060909Y0154861D01*
X0060749Y0155122D01*
X0060596Y0155387D01*
X0060450Y0155656D01*
X0060310Y0155929D01*
X0060177Y0156204D01*
X0060051Y0156483D01*
X0059931Y0156765D01*
X0059819Y0157050D01*
X0059714Y0157337D01*
X0059615Y0157627D01*
X0059524Y0157919D01*
X0059440Y0158214D01*
X0059363Y0158510D01*
X0059293Y0158808D01*
X0059231Y0159108D01*
X0059176Y0159409D01*
X0059129Y0159711D01*
X0059089Y0160015D01*
X0059056Y0160319D01*
X0059031Y0160624D01*
X0059013Y0160930D01*
X0059003Y0161236D01*
X0059000Y0161542D01*
X0059005Y0161848D01*
X0059017Y0162154D01*
X0059037Y0162460D01*
X0059064Y0162764D01*
X0059099Y0163069D01*
X0059141Y0163372D01*
X0059190Y0163674D01*
X0059247Y0163975D01*
X0059312Y0164274D01*
X0059383Y0164572D01*
X0059462Y0164867D01*
X0059548Y0165161D01*
X0059641Y0165453D01*
X0059742Y0165742D01*
X0059849Y0166029D01*
X0059964Y0166313D01*
X0060085Y0166594D01*
X0060213Y0166872D01*
X0060348Y0167147D01*
X0060490Y0167418D01*
X0060638Y0167686D01*
X0060793Y0167950D01*
X0060954Y0168210D01*
X0061121Y0168466D01*
X0061295Y0168719D01*
X0061475Y0168966D01*
X0061661Y0169210D01*
X0061852Y0169448D01*
X0062050Y0169682D01*
X0062253Y0169911D01*
X0062462Y0170135D01*
X0062676Y0170354D01*
X0062896Y0170567D01*
X0063120Y0170775D01*
X0063350Y0170978D01*
X0063584Y0171174D01*
X0063824Y0171365D01*
X0064067Y0171550D01*
X0064316Y0171729D01*
X0064568Y0171902D01*
X0064825Y0172069D01*
X0065086Y0172229D01*
X0065351Y0172383D01*
X0065619Y0172530D01*
X0065891Y0172671D01*
X0066166Y0172805D01*
X0066445Y0172932D01*
X0066726Y0173053D01*
X0067011Y0173166D01*
X0067298Y0173272D01*
X0067587Y0173372D01*
X0067879Y0173464D01*
X0068173Y0173549D01*
X0068469Y0173627D01*
X0068767Y0173698D01*
X0069067Y0173761D01*
X0069368Y0173817D01*
X0069670Y0173865D01*
X0069973Y0173906D01*
X0070277Y0173940D01*
X0070582Y0173966D01*
X0070888Y0173985D01*
X0071194Y0173996D01*
X0071500Y0174000D01*
X0071806Y0173996D01*
X0072112Y0173985D01*
X0072418Y0173966D01*
X0072723Y0173940D01*
X0073027Y0173906D01*
X0073330Y0173865D01*
X0073632Y0173817D01*
X0073933Y0173761D01*
X0074233Y0173698D01*
X0074531Y0173627D01*
X0074827Y0173549D01*
X0075121Y0173464D01*
X0075413Y0173372D01*
X0075702Y0173272D01*
X0075989Y0173166D01*
X0076274Y0173053D01*
X0076555Y0172932D01*
X0076834Y0172805D01*
X0077109Y0172671D01*
X0077381Y0172530D01*
X0077649Y0172383D01*
X0077914Y0172229D01*
X0078175Y0172069D01*
X0078432Y0171902D01*
X0078684Y0171729D01*
X0078933Y0171550D01*
X0079176Y0171365D01*
X0079416Y0171174D01*
X0079650Y0170978D01*
X0079880Y0170775D01*
X0080104Y0170567D01*
X0080324Y0170354D01*
X0080538Y0170135D01*
X0080747Y0169911D01*
X0080950Y0169682D01*
X0081148Y0169448D01*
X0081339Y0169210D01*
X0081525Y0168966D01*
X0081705Y0168719D01*
X0081879Y0168466D01*
X0082046Y0168210D01*
X0082207Y0167950D01*
X0082362Y0167686D01*
X0082510Y0167418D01*
X0082652Y0167147D01*
X0082787Y0166872D01*
X0082915Y0166594D01*
X0083036Y0166313D01*
X0083151Y0166029D01*
X0083258Y0165742D01*
X0083359Y0165453D01*
X0083452Y0165161D01*
X0083538Y0164867D01*
X0083617Y0164572D01*
X0083688Y0164274D01*
X0083753Y0163975D01*
X0083810Y0163674D01*
X0083859Y0163372D01*
X0083901Y0163069D01*
X0083936Y0162764D01*
X0083963Y0162460D01*
X0083983Y0162154D01*
X0083995Y0161848D01*
X0084000Y0161542D01*
X0083997Y0161236D01*
X0083987Y0160930D01*
X0083969Y0160624D01*
X0083944Y0160319D01*
X0083911Y0160015D01*
X0083871Y0159711D01*
X0083824Y0159409D01*
X0083769Y0159108D01*
X0083707Y0158808D01*
X0083637Y0158510D01*
X0083560Y0158214D01*
X0083476Y0157919D01*
X0083385Y0157627D01*
X0083286Y0157337D01*
X0083181Y0157050D01*
X0083069Y0156765D01*
X0082949Y0156483D01*
X0082823Y0156204D01*
X0082690Y0155929D01*
X0082550Y0155656D01*
X0082404Y0155387D01*
X0082251Y0155122D01*
X0082091Y0154861D01*
X0081925Y0154604D01*
X0081753Y0154350D01*
X0081575Y0154101D01*
X0081391Y0153857D01*
X0081201Y0153617D01*
X0081005Y0153382D01*
X0080803Y0153151D01*
X0080596Y0152926D01*
X0080383Y0152706D01*
X0080165Y0152491D01*
X0079942Y0152282D01*
X0079714Y0152078D01*
X0079481Y0151879D01*
X0079243Y0151687D01*
X0079000Y0151500D01*
X0124000Y0151500D02*
X0123757Y0151687D01*
X0123519Y0151879D01*
X0123286Y0152078D01*
X0123058Y0152282D01*
X0122835Y0152491D01*
X0122617Y0152706D01*
X0122404Y0152926D01*
X0122197Y0153151D01*
X0121995Y0153382D01*
X0121799Y0153617D01*
X0121609Y0153857D01*
X0121425Y0154101D01*
X0121247Y0154350D01*
X0121075Y0154604D01*
X0120909Y0154861D01*
X0120749Y0155122D01*
X0120596Y0155387D01*
X0120450Y0155656D01*
X0120310Y0155929D01*
X0120177Y0156204D01*
X0120051Y0156483D01*
X0119931Y0156765D01*
X0119819Y0157050D01*
X0119714Y0157337D01*
X0119615Y0157627D01*
X0119524Y0157919D01*
X0119440Y0158214D01*
X0119363Y0158510D01*
X0119293Y0158808D01*
X0119231Y0159108D01*
X0119176Y0159409D01*
X0119129Y0159711D01*
X0119089Y0160015D01*
X0119056Y0160319D01*
X0119031Y0160624D01*
X0119013Y0160930D01*
X0119003Y0161236D01*
X0119000Y0161542D01*
X0119005Y0161848D01*
X0119017Y0162154D01*
X0119037Y0162460D01*
X0119064Y0162764D01*
X0119099Y0163069D01*
X0119141Y0163372D01*
X0119190Y0163674D01*
X0119247Y0163975D01*
X0119312Y0164274D01*
X0119383Y0164572D01*
X0119462Y0164867D01*
X0119548Y0165161D01*
X0119641Y0165453D01*
X0119742Y0165742D01*
X0119849Y0166029D01*
X0119964Y0166313D01*
X0120085Y0166594D01*
X0120213Y0166872D01*
X0120348Y0167147D01*
X0120490Y0167418D01*
X0120638Y0167686D01*
X0120793Y0167950D01*
X0120954Y0168210D01*
X0121121Y0168466D01*
X0121295Y0168719D01*
X0121475Y0168966D01*
X0121661Y0169210D01*
X0121852Y0169448D01*
X0122050Y0169682D01*
X0122253Y0169911D01*
X0122462Y0170135D01*
X0122676Y0170354D01*
X0122896Y0170567D01*
X0123120Y0170775D01*
X0123350Y0170978D01*
X0123584Y0171174D01*
X0123824Y0171365D01*
X0124067Y0171550D01*
X0124316Y0171729D01*
X0124568Y0171902D01*
X0124825Y0172069D01*
X0125086Y0172229D01*
X0125351Y0172383D01*
X0125619Y0172530D01*
X0125891Y0172671D01*
X0126166Y0172805D01*
X0126445Y0172932D01*
X0126726Y0173053D01*
X0127011Y0173166D01*
X0127298Y0173272D01*
X0127587Y0173372D01*
X0127879Y0173464D01*
X0128173Y0173549D01*
X0128469Y0173627D01*
X0128767Y0173698D01*
X0129067Y0173761D01*
X0129368Y0173817D01*
X0129670Y0173865D01*
X0129973Y0173906D01*
X0130277Y0173940D01*
X0130582Y0173966D01*
X0130888Y0173985D01*
X0131194Y0173996D01*
X0131500Y0174000D01*
X0131806Y0173996D01*
X0132112Y0173985D01*
X0132418Y0173966D01*
X0132723Y0173940D01*
X0133027Y0173906D01*
X0133330Y0173865D01*
X0133632Y0173817D01*
X0133933Y0173761D01*
X0134233Y0173698D01*
X0134531Y0173627D01*
X0134827Y0173549D01*
X0135121Y0173464D01*
X0135413Y0173372D01*
X0135702Y0173272D01*
X0135989Y0173166D01*
X0136274Y0173053D01*
X0136555Y0172932D01*
X0136834Y0172805D01*
X0137109Y0172671D01*
X0137381Y0172530D01*
X0137649Y0172383D01*
X0137914Y0172229D01*
X0138175Y0172069D01*
X0138432Y0171902D01*
X0138684Y0171729D01*
X0138933Y0171550D01*
X0139176Y0171365D01*
X0139416Y0171174D01*
X0139650Y0170978D01*
X0139880Y0170775D01*
X0140104Y0170567D01*
X0140324Y0170354D01*
X0140538Y0170135D01*
X0140747Y0169911D01*
X0140950Y0169682D01*
X0141148Y0169448D01*
X0141339Y0169210D01*
X0141525Y0168966D01*
X0141705Y0168719D01*
X0141879Y0168466D01*
X0142046Y0168210D01*
X0142207Y0167950D01*
X0142362Y0167686D01*
X0142510Y0167418D01*
X0142652Y0167147D01*
X0142787Y0166872D01*
X0142915Y0166594D01*
X0143036Y0166313D01*
X0143151Y0166029D01*
X0143258Y0165742D01*
X0143359Y0165453D01*
X0143452Y0165161D01*
X0143538Y0164867D01*
X0143617Y0164572D01*
X0143688Y0164274D01*
X0143753Y0163975D01*
X0143810Y0163674D01*
X0143859Y0163372D01*
X0143901Y0163069D01*
X0143936Y0162764D01*
X0143963Y0162460D01*
X0143983Y0162154D01*
X0143995Y0161848D01*
X0144000Y0161542D01*
X0143997Y0161236D01*
X0143987Y0160930D01*
X0143969Y0160624D01*
X0143944Y0160319D01*
X0143911Y0160015D01*
X0143871Y0159711D01*
X0143824Y0159409D01*
X0143769Y0159108D01*
X0143707Y0158808D01*
X0143637Y0158510D01*
X0143560Y0158214D01*
X0143476Y0157919D01*
X0143385Y0157627D01*
X0143286Y0157337D01*
X0143181Y0157050D01*
X0143069Y0156765D01*
X0142949Y0156483D01*
X0142823Y0156204D01*
X0142690Y0155929D01*
X0142550Y0155656D01*
X0142404Y0155387D01*
X0142251Y0155122D01*
X0142091Y0154861D01*
X0141925Y0154604D01*
X0141753Y0154350D01*
X0141575Y0154101D01*
X0141391Y0153857D01*
X0141201Y0153617D01*
X0141005Y0153382D01*
X0140803Y0153151D01*
X0140596Y0152926D01*
X0140383Y0152706D01*
X0140165Y0152491D01*
X0139942Y0152282D01*
X0139714Y0152078D01*
X0139481Y0151879D01*
X0139243Y0151687D01*
X0139000Y0151500D01*
D11*
X0156500Y0061500D02*
X0155505Y0060167D01*
X0154477Y0058858D01*
X0153418Y0057574D01*
X0152328Y0056317D01*
X0151207Y0055087D01*
X0150057Y0053885D01*
X0148878Y0052711D01*
X0147670Y0051567D01*
X0146434Y0050452D01*
X0145172Y0049368D01*
X0143884Y0048316D01*
X0142570Y0047295D01*
X0141231Y0046306D01*
X0139869Y0045350D01*
X0138484Y0044429D01*
X0137077Y0043541D01*
X0135648Y0042688D01*
X0134199Y0041870D01*
X0132730Y0041088D01*
X0131243Y0040342D01*
X0129738Y0039633D01*
X0128216Y0038960D01*
X0126678Y0038325D01*
X0125124Y0037728D01*
X0123557Y0037169D01*
X0121977Y0036649D01*
X0120384Y0036167D01*
X0118780Y0035725D01*
X0117166Y0035322D01*
X0115542Y0034958D01*
X0113910Y0034635D01*
X0112270Y0034351D01*
X0110624Y0034108D01*
X0108973Y0033905D01*
X0107317Y0033742D01*
X0105657Y0033620D01*
X0103995Y0033539D01*
X0102332Y0033498D01*
X0100668Y0033498D01*
X0099005Y0033539D01*
X0097343Y0033620D01*
X0095683Y0033742D01*
X0094027Y0033905D01*
X0092376Y0034108D01*
X0090730Y0034351D01*
X0089090Y0034635D01*
X0087458Y0034958D01*
X0085834Y0035322D01*
X0084220Y0035725D01*
X0082616Y0036167D01*
X0081023Y0036649D01*
X0079443Y0037169D01*
X0077876Y0037728D01*
X0076322Y0038325D01*
X0074784Y0038960D01*
X0073262Y0039633D01*
X0071757Y0040342D01*
X0070270Y0041088D01*
X0068801Y0041870D01*
X0067352Y0042688D01*
X0065923Y0043541D01*
X0064516Y0044429D01*
X0063131Y0045350D01*
X0061769Y0046306D01*
X0060430Y0047295D01*
X0059116Y0048316D01*
X0057828Y0049368D01*
X0056566Y0050452D01*
X0055330Y0051567D01*
X0054122Y0052711D01*
X0052943Y0053885D01*
X0051793Y0055087D01*
X0050672Y0056317D01*
X0049582Y0057574D01*
X0048523Y0058858D01*
X0047495Y0060167D01*
X0046500Y0061500D01*
D12*
X0064000Y0151500D02*
X0079000Y0151500D01*
X0124000Y0151500D02*
X0139000Y0151500D01*
D13*
X0096500Y0104000D02*
X0096500Y0099000D01*
X0099000Y0096500D01*
X0104000Y0096500D01*
X0106500Y0099000D01*
X0106500Y0104000D01*
X0104000Y0106500D01*
X0099000Y0106500D01*
X0096500Y0104000D01*
X0099000Y0106500D02*
X0096500Y0109000D01*
X0096500Y0114000D01*
X0099000Y0116500D01*
X0096500Y0119000D01*
X0096500Y0124000D01*
X0099000Y0126500D01*
X0104000Y0126500D01*
X0106500Y0124000D01*
X0106500Y0119000D01*
X0104000Y0116500D01*
X0106500Y0114000D01*
X0106500Y0109000D01*
X0104000Y0106500D01*
X0104000Y0116500D02*
X0099000Y0116500D01*
X0061500Y0161500D02*
X0061503Y0161745D01*
X0061512Y0161991D01*
X0061527Y0162236D01*
X0061548Y0162480D01*
X0061575Y0162724D01*
X0061608Y0162967D01*
X0061647Y0163210D01*
X0061692Y0163451D01*
X0061743Y0163691D01*
X0061800Y0163930D01*
X0061862Y0164167D01*
X0061931Y0164403D01*
X0062005Y0164637D01*
X0062085Y0164869D01*
X0062170Y0165099D01*
X0062261Y0165327D01*
X0062358Y0165552D01*
X0062460Y0165776D01*
X0062568Y0165996D01*
X0062681Y0166214D01*
X0062799Y0166429D01*
X0062923Y0166641D01*
X0063051Y0166850D01*
X0063185Y0167056D01*
X0063324Y0167258D01*
X0063468Y0167457D01*
X0063617Y0167652D01*
X0063770Y0167844D01*
X0063928Y0168032D01*
X0064090Y0168216D01*
X0064258Y0168395D01*
X0064429Y0168571D01*
X0064605Y0168742D01*
X0064784Y0168910D01*
X0064968Y0169072D01*
X0065156Y0169230D01*
X0065348Y0169383D01*
X0065543Y0169532D01*
X0065742Y0169676D01*
X0065944Y0169815D01*
X0066150Y0169949D01*
X0066359Y0170077D01*
X0066571Y0170201D01*
X0066786Y0170319D01*
X0067004Y0170432D01*
X0067224Y0170540D01*
X0067448Y0170642D01*
X0067673Y0170739D01*
X0067901Y0170830D01*
X0068131Y0170915D01*
X0068363Y0170995D01*
X0068597Y0171069D01*
X0068833Y0171138D01*
X0069070Y0171200D01*
X0069309Y0171257D01*
X0069549Y0171308D01*
X0069790Y0171353D01*
X0070033Y0171392D01*
X0070276Y0171425D01*
X0070520Y0171452D01*
X0070764Y0171473D01*
X0071009Y0171488D01*
X0071255Y0171497D01*
X0071500Y0171500D01*
X0071745Y0171497D01*
X0071991Y0171488D01*
X0072236Y0171473D01*
X0072480Y0171452D01*
X0072724Y0171425D01*
X0072967Y0171392D01*
X0073210Y0171353D01*
X0073451Y0171308D01*
X0073691Y0171257D01*
X0073930Y0171200D01*
X0074167Y0171138D01*
X0074403Y0171069D01*
X0074637Y0170995D01*
X0074869Y0170915D01*
X0075099Y0170830D01*
X0075327Y0170739D01*
X0075552Y0170642D01*
X0075776Y0170540D01*
X0075996Y0170432D01*
X0076214Y0170319D01*
X0076429Y0170201D01*
X0076641Y0170077D01*
X0076850Y0169949D01*
X0077056Y0169815D01*
X0077258Y0169676D01*
X0077457Y0169532D01*
X0077652Y0169383D01*
X0077844Y0169230D01*
X0078032Y0169072D01*
X0078216Y0168910D01*
X0078395Y0168742D01*
X0078571Y0168571D01*
X0078742Y0168395D01*
X0078910Y0168216D01*
X0079072Y0168032D01*
X0079230Y0167844D01*
X0079383Y0167652D01*
X0079532Y0167457D01*
X0079676Y0167258D01*
X0079815Y0167056D01*
X0079949Y0166850D01*
X0080077Y0166641D01*
X0080201Y0166429D01*
X0080319Y0166214D01*
X0080432Y0165996D01*
X0080540Y0165776D01*
X0080642Y0165552D01*
X0080739Y0165327D01*
X0080830Y0165099D01*
X0080915Y0164869D01*
X0080995Y0164637D01*
X0081069Y0164403D01*
X0081138Y0164167D01*
X0081200Y0163930D01*
X0081257Y0163691D01*
X0081308Y0163451D01*
X0081353Y0163210D01*
X0081392Y0162967D01*
X0081425Y0162724D01*
X0081452Y0162480D01*
X0081473Y0162236D01*
X0081488Y0161991D01*
X0081497Y0161745D01*
X0081500Y0161500D01*
X0081497Y0161255D01*
X0081488Y0161009D01*
X0081473Y0160764D01*
X0081452Y0160520D01*
X0081425Y0160276D01*
X0081392Y0160033D01*
X0081353Y0159790D01*
X0081308Y0159549D01*
X0081257Y0159309D01*
X0081200Y0159070D01*
X0081138Y0158833D01*
X0081069Y0158597D01*
X0080995Y0158363D01*
X0080915Y0158131D01*
X0080830Y0157901D01*
X0080739Y0157673D01*
X0080642Y0157448D01*
X0080540Y0157224D01*
X0080432Y0157004D01*
X0080319Y0156786D01*
X0080201Y0156571D01*
X0080077Y0156359D01*
X0079949Y0156150D01*
X0079815Y0155944D01*
X0079676Y0155742D01*
X0079532Y0155543D01*
X0079383Y0155348D01*
X0079230Y0155156D01*
X0079072Y0154968D01*
X0078910Y0154784D01*
X0078742Y0154605D01*
X0078571Y0154429D01*
X0078395Y0154258D01*
X0078216Y0154090D01*
X0078032Y0153928D01*
X0077844Y0153770D01*
X0077652Y0153617D01*
X0077457Y0153468D01*
X0077258Y0153324D01*
X0077056Y0153185D01*
X0076850Y0153051D01*
X0076641Y0152923D01*
X0076429Y0152799D01*
X0076214Y0152681D01*
X0075996Y0152568D01*
X0075776Y0152460D01*
X0075552Y0152358D01*
X0075327Y0152261D01*
X0075099Y0152170D01*
X0074869Y0152085D01*
X0074637Y0152005D01*
X0074403Y0151931D01*
X0074167Y0151862D01*
X0073930Y0151800D01*
X0073691Y0151743D01*
X0073451Y0151692D01*
X0073210Y0151647D01*
X0072967Y0151608D01*
X0072724Y0151575D01*
X0072480Y0151548D01*
X0072236Y0151527D01*
X0071991Y0151512D01*
X0071745Y0151503D01*
X0071500Y0151500D01*
X0071255Y0151503D01*
X0071009Y0151512D01*
X0070764Y0151527D01*
X0070520Y0151548D01*
X0070276Y0151575D01*
X0070033Y0151608D01*
X0069790Y0151647D01*
X0069549Y0151692D01*
X0069309Y0151743D01*
X0069070Y0151800D01*
X0068833Y0151862D01*
X0068597Y0151931D01*
X0068363Y0152005D01*
X0068131Y0152085D01*
X0067901Y0152170D01*
X0067673Y0152261D01*
X0067448Y0152358D01*
X0067224Y0152460D01*
X0067004Y0152568D01*
X0066786Y0152681D01*
X0066571Y0152799D01*
X0066359Y0152923D01*
X0066150Y0153051D01*
X0065944Y0153185D01*
X0065742Y0153324D01*
X0065543Y0153468D01*
X0065348Y0153617D01*
X0065156Y0153770D01*
X0064968Y0153928D01*
X0064784Y0154090D01*
X0064605Y0154258D01*
X0064429Y0154429D01*
X0064258Y0154605D01*
X0064090Y0154784D01*
X0063928Y0154968D01*
X0063770Y0155156D01*
X0063617Y0155348D01*
X0063468Y0155543D01*
X0063324Y0155742D01*
X0063185Y0155944D01*
X0063051Y0156150D01*
X0062923Y0156359D01*
X0062799Y0156571D01*
X0062681Y0156786D01*
X0062568Y0157004D01*
X0062460Y0157224D01*
X0062358Y0157448D01*
X0062261Y0157673D01*
X0062170Y0157901D01*
X0062085Y0158131D01*
X0062005Y0158363D01*
X0061931Y0158597D01*
X0061862Y0158833D01*
X0061800Y0159070D01*
X0061743Y0159309D01*
X0061692Y0159549D01*
X0061647Y0159790D01*
X0061608Y0160033D01*
X0061575Y0160276D01*
X0061548Y0160520D01*
X0061527Y0160764D01*
X0061512Y0161009D01*
X0061503Y0161255D01*
X0061500Y0161500D01*
X0121500Y0161500D02*
X0121503Y0161745D01*
X0121512Y0161991D01*
X0121527Y0162236D01*
X0121548Y0162480D01*
X0121575Y0162724D01*
X0121608Y0162967D01*
X0121647Y0163210D01*
X0121692Y0163451D01*
X0121743Y0163691D01*
X0121800Y0163930D01*
X0121862Y0164167D01*
X0121931Y0164403D01*
X0122005Y0164637D01*
X0122085Y0164869D01*
X0122170Y0165099D01*
X0122261Y0165327D01*
X0122358Y0165552D01*
X0122460Y0165776D01*
X0122568Y0165996D01*
X0122681Y0166214D01*
X0122799Y0166429D01*
X0122923Y0166641D01*
X0123051Y0166850D01*
X0123185Y0167056D01*
X0123324Y0167258D01*
X0123468Y0167457D01*
X0123617Y0167652D01*
X0123770Y0167844D01*
X0123928Y0168032D01*
X0124090Y0168216D01*
X0124258Y0168395D01*
X0124429Y0168571D01*
X0124605Y0168742D01*
X0124784Y0168910D01*
X0124968Y0169072D01*
X0125156Y0169230D01*
X0125348Y0169383D01*
X0125543Y0169532D01*
X0125742Y0169676D01*
X0125944Y0169815D01*
X0126150Y0169949D01*
X0126359Y0170077D01*
X0126571Y0170201D01*
X0126786Y0170319D01*
X0127004Y0170432D01*
X0127224Y0170540D01*
X0127448Y0170642D01*
X0127673Y0170739D01*
X0127901Y0170830D01*
X0128131Y0170915D01*
X0128363Y0170995D01*
X0128597Y0171069D01*
X0128833Y0171138D01*
X0129070Y0171200D01*
X0129309Y0171257D01*
X0129549Y0171308D01*
X0129790Y0171353D01*
X0130033Y0171392D01*
X0130276Y0171425D01*
X0130520Y0171452D01*
X0130764Y0171473D01*
X0131009Y0171488D01*
X0131255Y0171497D01*
X0131500Y0171500D01*
X0131745Y0171497D01*
X0131991Y0171488D01*
X0132236Y0171473D01*
X0132480Y0171452D01*
X0132724Y0171425D01*
X0132967Y0171392D01*
X0133210Y0171353D01*
X0133451Y0171308D01*
X0133691Y0171257D01*
X0133930Y0171200D01*
X0134167Y0171138D01*
X0134403Y0171069D01*
X0134637Y0170995D01*
X0134869Y0170915D01*
X0135099Y0170830D01*
X0135327Y0170739D01*
X0135552Y0170642D01*
X0135776Y0170540D01*
X0135996Y0170432D01*
X0136214Y0170319D01*
X0136429Y0170201D01*
X0136641Y0170077D01*
X0136850Y0169949D01*
X0137056Y0169815D01*
X0137258Y0169676D01*
X0137457Y0169532D01*
X0137652Y0169383D01*
X0137844Y0169230D01*
X0138032Y0169072D01*
X0138216Y0168910D01*
X0138395Y0168742D01*
X0138571Y0168571D01*
X0138742Y0168395D01*
X0138910Y0168216D01*
X0139072Y0168032D01*
X0139230Y0167844D01*
X0139383Y0167652D01*
X0139532Y0167457D01*
X0139676Y0167258D01*
X0139815Y0167056D01*
X0139949Y0166850D01*
X0140077Y0166641D01*
X0140201Y0166429D01*
X0140319Y0166214D01*
X0140432Y0165996D01*
X0140540Y0165776D01*
X0140642Y0165552D01*
X0140739Y0165327D01*
X0140830Y0165099D01*
X0140915Y0164869D01*
X0140995Y0164637D01*
X0141069Y0164403D01*
X0141138Y0164167D01*
X0141200Y0163930D01*
X0141257Y0163691D01*
X0141308Y0163451D01*
X0141353Y0163210D01*
X0141392Y0162967D01*
X0141425Y0162724D01*
X0141452Y0162480D01*
X0141473Y0162236D01*
X0141488Y0161991D01*
X0141497Y0161745D01*
X0141500Y0161500D01*
X0141497Y0161255D01*
X0141488Y0161009D01*
X0141473Y0160764D01*
X0141452Y0160520D01*
X0141425Y0160276D01*
X0141392Y0160033D01*
X0141353Y0159790D01*
X0141308Y0159549D01*
X0141257Y0159309D01*
X0141200Y0159070D01*
X0141138Y0158833D01*
X0141069Y0158597D01*
X0140995Y0158363D01*
X0140915Y0158131D01*
X0140830Y0157901D01*
X0140739Y0157673D01*
X0140642Y0157448D01*
X0140540Y0157224D01*
X0140432Y0157004D01*
X0140319Y0156786D01*
X0140201Y0156571D01*
X0140077Y0156359D01*
X0139949Y0156150D01*
X0139815Y0155944D01*
X0139676Y0155742D01*
X0139532Y0155543D01*
X0139383Y0155348D01*
X0139230Y0155156D01*
X0139072Y0154968D01*
X0138910Y0154784D01*
X0138742Y0154605D01*
X0138571Y0154429D01*
X0138395Y0154258D01*
X0138216Y0154090D01*
X0138032Y0153928D01*
X0137844Y0153770D01*
X0137652Y0153617D01*
X0137457Y0153468D01*
X0137258Y0153324D01*
X0137056Y0153185D01*
X0136850Y0153051D01*
X0136641Y0152923D01*
X0136429Y0152799D01*
X0136214Y0152681D01*
X0135996Y0152568D01*
X0135776Y0152460D01*
X0135552Y0152358D01*
X0135327Y0152261D01*
X0135099Y0152170D01*
X0134869Y0152085D01*
X0134637Y0152005D01*
X0134403Y0151931D01*
X0134167Y0151862D01*
X0133930Y0151800D01*
X0133691Y0151743D01*
X0133451Y0151692D01*
X0133210Y0151647D01*
X0132967Y0151608D01*
X0132724Y0151575D01*
X0132480Y0151548D01*
X0132236Y0151527D01*
X0131991Y0151512D01*
X0131745Y0151503D01*
X0131500Y0151500D01*
X0131255Y0151503D01*
X0131009Y0151512D01*
X0130764Y0151527D01*
X0130520Y0151548D01*
X0130276Y0151575D01*
X0130033Y0151608D01*
X0129790Y0151647D01*
X0129549Y0151692D01*
X0129309Y0151743D01*
X0129070Y0151800D01*
X0128833Y0151862D01*
X0128597Y0151931D01*
X0128363Y0152005D01*
X0128131Y0152085D01*
X0127901Y0152170D01*
X0127673Y0152261D01*
X0127448Y0152358D01*
X0127224Y0152460D01*
X0127004Y0152568D01*
X0126786Y0152681D01*
X0126571Y0152799D01*
X0126359Y0152923D01*
X0126150Y0153051D01*
X0125944Y0153185D01*
X0125742Y0153324D01*
X0125543Y0153468D01*
X0125348Y0153617D01*
X0125156Y0153770D01*
X0124968Y0153928D01*
X0124784Y0154090D01*
X0124605Y0154258D01*
X0124429Y0154429D01*
X0124258Y0154605D01*
X0124090Y0154784D01*
X0123928Y0154968D01*
X0123770Y0155156D01*
X0123617Y0155348D01*
X0123468Y0155543D01*
X0123324Y0155742D01*
X0123185Y0155944D01*
X0123051Y0156150D01*
X0122923Y0156359D01*
X0122799Y0156571D01*
X0122681Y0156786D01*
X0122568Y0157004D01*
X0122460Y0157224D01*
X0122358Y0157448D01*
X0122261Y0157673D01*
X0122170Y0157901D01*
X0122085Y0158131D01*
X0122005Y0158363D01*
X0121931Y0158597D01*
X0121862Y0158833D01*
X0121800Y0159070D01*
X0121743Y0159309D01*
X0121692Y0159549D01*
X0121647Y0159790D01*
X0121608Y0160033D01*
X0121575Y0160276D01*
X0121548Y0160520D01*
X0121527Y0160764D01*
X0121512Y0161009D01*
X0121503Y0161255D01*
X0121500Y0161500D01*
M02*
