G75*
%MOIN*%
%OFA0B0*%
%FSLAX25Y25*%
%IPPOS*%
%LPD*%
%AMOC8*
5,1,8,0,0,1.08239X$1,22.5*
%
%ADD10C,0.01000*%
%ADD11R,0.00180X0.00180*%
%ADD12R,0.01080X0.00180*%
%ADD13R,0.01440X0.00180*%
%ADD14R,0.01800X0.00180*%
%ADD15R,0.01980X0.00180*%
%ADD16R,0.02340X0.00180*%
%ADD17R,0.02160X0.00180*%
%ADD18R,0.03060X0.00180*%
%ADD19R,0.03600X0.00180*%
%ADD20R,0.03780X0.00180*%
%ADD21R,0.04320X0.00180*%
%ADD22R,0.04320X0.00180*%
%ADD23R,0.04860X0.00180*%
%ADD24R,0.05400X0.00180*%
%ADD25R,0.05220X0.00180*%
%ADD26R,0.05760X0.00180*%
%ADD27R,0.06120X0.00180*%
%ADD28R,0.05580X0.00180*%
%ADD29R,0.06480X0.00180*%
%ADD30R,0.02700X0.00180*%
%ADD31R,0.02520X0.00180*%
%ADD32R,0.02340X0.00180*%
%ADD33R,0.00540X0.00180*%
%ADD34R,0.00720X0.00180*%
%ADD35R,0.00360X0.00180*%
%ADD36R,0.00900X0.00180*%
%ADD37R,0.01260X0.00180*%
%ADD38R,0.01620X0.00180*%
%ADD39R,0.01620X0.00180*%
%ADD40R,0.00540X0.00180*%
%ADD41R,0.00720X0.00180*%
%ADD42R,0.03420X0.00180*%
%ADD43R,0.02520X0.00180*%
%ADD44R,0.02880X0.00180*%
%ADD45R,0.06300X0.00180*%
%ADD46R,0.03240X0.00180*%
%ADD47R,0.05940X0.00180*%
%ADD48R,0.03960X0.00180*%
%ADD49R,0.03240X0.00180*%
%ADD50R,0.05220X0.00180*%
%ADD51R,0.04500X0.00180*%
%ADD52R,0.04680X0.00180*%
%ADD53R,0.01440X0.00180*%
%ADD54R,0.04140X0.00180*%
%ADD55R,0.03420X0.00180*%
%ADD56R,0.06120X0.00180*%
%ADD57R,0.06660X0.00180*%
%ADD58R,0.07020X0.00180*%
%ADD59R,0.05940X0.00180*%
%ADD60R,0.07200X0.00180*%
%ADD61R,0.07380X0.00180*%
%ADD62R,0.07560X0.00180*%
%ADD63R,0.07740X0.00180*%
%ADD64R,0.07920X0.00180*%
%ADD65R,0.08100X0.00180*%
%ADD66R,0.05040X0.00180*%
%ADD67R,0.08280X0.00180*%
%ADD68R,0.08460X0.00180*%
%ADD69R,0.08640X0.00180*%
%ADD70R,0.08820X0.00180*%
%ADD71R,0.09000X0.00180*%
%ADD72R,0.08820X0.00180*%
%ADD73R,0.08640X0.00180*%
%ADD74R,0.07740X0.00180*%
%ADD75R,0.06840X0.00180*%
%ADD76R,0.07020X0.00180*%
%ADD77R,0.07920X0.00180*%
%ADD78R,0.09360X0.00180*%
%ADD79R,0.09540X0.00180*%
%ADD80R,0.12780X0.00180*%
%ADD81R,0.12960X0.00180*%
%ADD82R,0.12600X0.00180*%
%ADD83R,0.12420X0.00180*%
%ADD84R,0.12240X0.00180*%
%ADD85R,0.12060X0.00180*%
%ADD86R,0.11880X0.00180*%
%ADD87R,0.11700X0.00180*%
%ADD88R,0.11520X0.00180*%
%ADD89R,0.11340X0.00180*%
%ADD90R,0.10980X0.00180*%
%ADD91R,0.10800X0.00180*%
%ADD92R,0.10620X0.00180*%
%ADD93R,0.09180X0.00180*%
%ADD94R,0.09540X0.00180*%
%ADD95R,0.09900X0.00180*%
%ADD96R,0.10260X0.00180*%
%ADD97R,0.11340X0.00180*%
%ADD98R,0.11160X0.00180*%
%ADD99R,0.04140X0.00180*%
%ADD100R,0.16560X0.00180*%
%ADD101R,0.16200X0.00180*%
%ADD102R,0.15840X0.00180*%
%ADD103R,0.15480X0.00180*%
%ADD104R,0.14940X0.00180*%
%ADD105R,0.14400X0.00180*%
%ADD106R,0.13860X0.00180*%
%ADD107C,0.00400*%
%ADD108C,0.01600*%
%ADD109R,0.00138X0.00276*%
%ADD110R,0.00138X0.00827*%
%ADD111R,0.00138X0.01378*%
%ADD112R,0.00138X0.01929*%
%ADD113R,0.00138X0.02480*%
%ADD114R,0.00138X0.03031*%
%ADD115R,0.00138X0.03583*%
%ADD116R,0.00138X0.04134*%
%ADD117R,0.00138X0.04685*%
%ADD118R,0.00138X0.05236*%
%ADD119R,0.00138X0.05787*%
%ADD120R,0.00138X0.06339*%
%ADD121R,0.00138X0.06890*%
%ADD122R,0.00138X0.07441*%
%ADD123R,0.00138X0.07992*%
%ADD124R,0.00138X0.08543*%
%ADD125R,0.00138X0.09094*%
%ADD126R,0.00138X0.09646*%
%ADD127R,0.00138X0.10197*%
%ADD128R,0.00138X0.10886*%
%ADD129R,0.00138X0.11437*%
%ADD130R,0.00138X0.11988*%
%ADD131R,0.00138X0.12539*%
%ADD132R,0.00138X0.13091*%
%ADD133R,0.00138X0.13642*%
%ADD134R,0.00138X0.14193*%
%ADD135R,0.00138X0.14744*%
%ADD136R,0.00138X0.15295*%
%ADD137R,0.00138X0.15846*%
%ADD138R,0.00138X0.16398*%
%ADD139R,0.00138X0.16949*%
%ADD140R,0.00138X0.17500*%
%ADD141R,0.00138X0.18051*%
%ADD142R,0.00138X0.18602*%
%ADD143R,0.00138X0.19154*%
%ADD144R,0.00138X0.19705*%
%ADD145R,0.00138X0.20256*%
%ADD146R,0.00138X0.20807*%
%ADD147R,0.00138X0.21358*%
%ADD148R,0.00138X0.21909*%
%ADD149R,0.00138X0.22461*%
%ADD150R,0.00138X0.23012*%
%ADD151R,0.00138X0.23563*%
%ADD152R,0.00138X0.24114*%
%ADD153R,0.00138X0.24665*%
%ADD154R,0.00138X0.25217*%
%ADD155R,0.00138X0.25768*%
%ADD156R,0.00138X0.26319*%
%ADD157R,0.00138X0.26870*%
%ADD158R,0.00138X0.27421*%
%ADD159R,0.00138X0.27972*%
%ADD160R,0.00138X0.28524*%
%ADD161R,0.00138X0.05098*%
%ADD162R,0.00138X0.01516*%
%ADD163R,0.00138X0.03720*%
%ADD164R,0.00138X0.06063*%
%ADD165R,0.00138X0.04823*%
%ADD166R,0.00138X0.03445*%
%ADD167R,0.00138X0.03307*%
%ADD168R,0.00138X0.06614*%
%ADD169R,0.00138X0.01654*%
%ADD170R,0.00138X0.07165*%
%ADD171R,0.00138X0.02894*%
%ADD172R,0.00138X0.07717*%
%ADD173R,0.00138X0.04961*%
%ADD174R,0.00138X0.01791*%
%ADD175R,0.00138X0.02756*%
%ADD176R,0.00138X0.08268*%
%ADD177R,0.00138X0.03996*%
%ADD178R,0.00138X0.02618*%
%ADD179R,0.00138X0.05374*%
%ADD180R,0.00138X0.04409*%
%ADD181R,0.00138X0.00138*%
%ADD182R,0.00138X0.08819*%
%ADD183R,0.00138X0.05512*%
%ADD184R,0.00138X0.05650*%
%ADD185R,0.00138X0.02343*%
%ADD186R,0.00138X0.00413*%
%ADD187R,0.00138X0.09370*%
%ADD188R,0.00138X0.00551*%
%ADD189R,0.00138X0.00689*%
%ADD190R,0.00138X0.01240*%
%ADD191R,0.00138X0.00965*%
%ADD192R,0.00138X0.01102*%
%ADD193R,0.00138X0.05925*%
%ADD194R,0.00138X0.02067*%
%ADD195R,0.00138X0.02205*%
%ADD196R,0.00138X0.09921*%
%ADD197R,0.00138X0.06201*%
%ADD198R,0.00138X0.09783*%
%ADD199R,0.00138X0.06476*%
%ADD200R,0.00138X0.06752*%
%ADD201R,0.00138X0.09508*%
%ADD202R,0.00138X0.07579*%
%ADD203R,0.00138X0.07854*%
%ADD204R,0.00138X0.09232*%
%ADD205R,0.00138X0.07028*%
%ADD206R,0.00138X0.08957*%
%ADD207R,0.00138X0.07303*%
%ADD208R,0.00138X0.03858*%
%ADD209R,0.00138X0.10059*%
%ADD210R,0.00138X0.10335*%
%ADD211R,0.00138X0.03169*%
%ADD212R,0.00138X0.10610*%
%ADD213R,0.00138X0.04547*%
%ADD214R,0.00138X0.04272*%
%ADD215R,0.00138X0.18878*%
%ADD216R,0.00138X0.18740*%
%ADD217R,0.00138X0.18465*%
%ADD218R,0.00138X0.18327*%
%ADD219R,0.00138X0.18189*%
%ADD220R,0.00138X0.17913*%
%ADD221R,0.00138X0.17638*%
%ADD222R,0.00138X0.17224*%
%ADD223R,0.00138X0.16673*%
%ADD224R,0.00138X0.08681*%
%ADD225R,0.00138X0.16122*%
%ADD226R,0.00138X0.08406*%
%ADD227R,0.00138X0.28248*%
%ADD228R,0.00138X0.27697*%
%ADD229R,0.00138X0.27146*%
%ADD230R,0.00138X0.26594*%
%ADD231R,0.00138X0.26043*%
%ADD232R,0.00138X0.25492*%
%ADD233R,0.00138X0.24941*%
%ADD234R,0.00138X0.24390*%
%ADD235R,0.00138X0.23839*%
%ADD236R,0.00138X0.23287*%
%ADD237R,0.00138X0.22736*%
%ADD238R,0.00138X0.22185*%
%ADD239R,0.00138X0.21634*%
%ADD240R,0.00138X0.21083*%
%ADD241R,0.00138X0.20531*%
%ADD242R,0.00138X0.19980*%
%ADD243R,0.00138X0.19429*%
%ADD244R,0.00138X0.17776*%
%ADD245R,0.00138X0.15571*%
%ADD246R,0.00138X0.15020*%
%ADD247R,0.00138X0.14606*%
%ADD248R,0.00138X0.14055*%
%ADD249R,0.00138X0.13504*%
%ADD250R,0.00138X0.12953*%
%ADD251R,0.00138X0.12402*%
%ADD252R,0.00138X0.11850*%
%ADD253R,0.00138X0.11299*%
%ADD254R,0.00138X0.10748*%
%ADD255R,0.00118X0.00039*%
%ADD256R,0.00276X0.00039*%
%ADD257R,0.00394X0.00039*%
%ADD258R,0.00354X0.00039*%
%ADD259R,0.00472X0.00039*%
%ADD260R,0.00551X0.00039*%
%ADD261R,0.00669X0.00039*%
%ADD262R,0.00748X0.00039*%
%ADD263R,0.00866X0.00039*%
%ADD264R,0.00945X0.00039*%
%ADD265R,0.01063X0.00039*%
%ADD266R,0.01142X0.00039*%
%ADD267R,0.01260X0.00039*%
%ADD268R,0.01220X0.00039*%
%ADD269R,0.01339X0.00039*%
%ADD270R,0.01457X0.00039*%
%ADD271R,0.01417X0.00039*%
%ADD272R,0.01535X0.00039*%
%ADD273R,0.01654X0.00039*%
%ADD274R,0.01614X0.00039*%
%ADD275R,0.01732X0.00039*%
%ADD276R,0.01811X0.00039*%
%ADD277R,0.01929X0.00039*%
%ADD278R,0.02008X0.00039*%
%ADD279R,0.02126X0.00039*%
%ADD280R,0.02205X0.00039*%
%ADD281R,0.02323X0.00039*%
%ADD282R,0.02283X0.00039*%
%ADD283R,0.02402X0.00039*%
%ADD284R,0.02520X0.00039*%
%ADD285R,0.02480X0.00039*%
%ADD286R,0.02598X0.00039*%
%ADD287R,0.02717X0.00039*%
%ADD288R,0.02677X0.00039*%
%ADD289R,0.02795X0.00039*%
%ADD290R,0.00197X0.00039*%
%ADD291R,0.02874X0.00039*%
%ADD292R,0.00315X0.00039*%
%ADD293R,0.02992X0.00039*%
%ADD294R,0.03071X0.00039*%
%ADD295R,0.00512X0.00039*%
%ADD296R,0.03189X0.00039*%
%ADD297R,0.03268X0.00039*%
%ADD298R,0.00630X0.00039*%
%ADD299R,0.03386X0.00039*%
%ADD300R,0.03346X0.00039*%
%ADD301R,0.03465X0.00039*%
%ADD302R,0.00827X0.00039*%
%ADD303R,0.03583X0.00039*%
%ADD304R,0.03543X0.00039*%
%ADD305R,0.03661X0.00039*%
%ADD306R,0.01024X0.00039*%
%ADD307R,0.03780X0.00039*%
%ADD308R,0.01102X0.00039*%
%ADD309R,0.03740X0.00039*%
%ADD310R,0.03858X0.00039*%
%ADD311R,0.01181X0.00039*%
%ADD312R,0.03937X0.00039*%
%ADD313R,0.01299X0.00039*%
%ADD314R,0.04055X0.00039*%
%ADD315R,0.01378X0.00039*%
%ADD316R,0.05669X0.00039*%
%ADD317R,0.05748X0.00039*%
%ADD318R,0.05787X0.00039*%
%ADD319R,0.05866X0.00039*%
%ADD320R,0.05827X0.00039*%
%ADD321R,0.05906X0.00039*%
%ADD322R,0.05945X0.00039*%
%ADD323R,0.06024X0.00039*%
%ADD324R,0.06063X0.00039*%
%ADD325R,0.06142X0.00039*%
%ADD326R,0.06102X0.00039*%
%ADD327R,0.06181X0.00039*%
%ADD328R,0.06260X0.00039*%
%ADD329R,0.06220X0.00039*%
%ADD330R,0.06299X0.00039*%
%ADD331R,0.06339X0.00039*%
%ADD332R,0.06417X0.00039*%
%ADD333R,0.06457X0.00039*%
%ADD334R,0.06496X0.00039*%
%ADD335R,0.06535X0.00039*%
%ADD336R,0.06378X0.00039*%
%ADD337R,0.05984X0.00039*%
%ADD338R,0.06575X0.00039*%
%ADD339R,0.06614X0.00039*%
%ADD340R,0.06654X0.00039*%
%ADD341R,0.06693X0.00039*%
%ADD342R,0.06732X0.00039*%
%ADD343R,0.06772X0.00039*%
%ADD344R,0.06811X0.00039*%
%ADD345R,0.06850X0.00039*%
%ADD346R,0.06890X0.00039*%
%ADD347R,0.06929X0.00039*%
%ADD348R,0.06969X0.00039*%
%ADD349R,0.07008X0.00039*%
%ADD350R,0.07047X0.00039*%
%ADD351R,0.07205X0.00039*%
%ADD352R,0.07402X0.00039*%
%ADD353R,0.07362X0.00039*%
%ADD354R,0.07559X0.00039*%
%ADD355R,0.07598X0.00039*%
%ADD356R,0.07756X0.00039*%
%ADD357R,0.07953X0.00039*%
%ADD358R,0.07913X0.00039*%
%ADD359R,0.08150X0.00039*%
%ADD360R,0.08307X0.00039*%
%ADD361R,0.08504X0.00039*%
%ADD362R,0.08701X0.00039*%
%ADD363R,0.08780X0.00039*%
%ADD364R,0.08819X0.00039*%
%ADD365R,0.08740X0.00039*%
%ADD366R,0.08661X0.00039*%
%ADD367R,0.08622X0.00039*%
%ADD368R,0.08583X0.00039*%
%ADD369R,0.08543X0.00039*%
%ADD370R,0.08465X0.00039*%
%ADD371R,0.08425X0.00039*%
%ADD372R,0.08858X0.00039*%
%ADD373R,0.08386X0.00039*%
%ADD374R,0.08346X0.00039*%
%ADD375R,0.08189X0.00039*%
%ADD376R,0.07992X0.00039*%
%ADD377R,0.08031X0.00039*%
%ADD378R,0.07835X0.00039*%
%ADD379R,0.07795X0.00039*%
%ADD380R,0.07638X0.00039*%
%ADD381R,0.07441X0.00039*%
%ADD382R,0.07480X0.00039*%
%ADD383R,0.07283X0.00039*%
%ADD384R,0.07126X0.00039*%
%ADD385R,0.07087X0.00039*%
%ADD386R,0.07244X0.00039*%
%ADD387R,0.07323X0.00039*%
%ADD388R,0.07677X0.00039*%
%ADD389R,0.16260X0.00039*%
%ADD390R,0.16220X0.00039*%
%ADD391R,0.16181X0.00039*%
%ADD392R,0.16142X0.00039*%
%ADD393R,0.16102X0.00039*%
%ADD394R,0.16024X0.00039*%
%ADD395R,0.15984X0.00039*%
%ADD396R,0.15945X0.00039*%
%ADD397R,0.15906X0.00039*%
%ADD398R,0.15866X0.00039*%
%ADD399R,0.15787X0.00039*%
%ADD400R,0.15748X0.00039*%
%ADD401R,0.15709X0.00039*%
%ADD402R,0.15669X0.00039*%
%ADD403R,0.15630X0.00039*%
%ADD404R,0.15551X0.00039*%
%ADD405R,0.15512X0.00039*%
%ADD406R,0.15472X0.00039*%
%ADD407R,0.15433X0.00039*%
%ADD408R,0.15394X0.00039*%
%ADD409R,0.15315X0.00039*%
%ADD410R,0.15276X0.00039*%
%ADD411R,0.15236X0.00039*%
%ADD412R,0.15591X0.00039*%
%ADD413R,0.16063X0.00039*%
%ADD414R,0.16339X0.00039*%
%ADD415R,0.16417X0.00039*%
%ADD416R,0.16457X0.00039*%
%ADD417R,0.16496X0.00039*%
%ADD418R,0.16575X0.00039*%
%ADD419R,0.16614X0.00039*%
%ADD420R,0.16654X0.00039*%
%ADD421R,0.16732X0.00039*%
%ADD422R,0.16772X0.00039*%
%ADD423R,0.16811X0.00039*%
%ADD424R,0.16890X0.00039*%
%ADD425R,0.16929X0.00039*%
%ADD426R,0.16969X0.00039*%
%ADD427R,0.17047X0.00039*%
%ADD428R,0.17126X0.00039*%
%ADD429R,0.17205X0.00039*%
%ADD430R,0.17283X0.00039*%
%ADD431R,0.17323X0.00039*%
%ADD432R,0.17362X0.00039*%
%ADD433R,0.17441X0.00039*%
%ADD434R,0.17480X0.00039*%
%ADD435R,0.17520X0.00039*%
%ADD436R,0.17598X0.00039*%
%ADD437R,0.17638X0.00039*%
%ADD438R,0.17677X0.00039*%
%ADD439R,0.17756X0.00039*%
%ADD440R,0.17795X0.00039*%
%ADD441R,0.17835X0.00039*%
%ADD442R,0.17913X0.00039*%
%ADD443R,0.17992X0.00039*%
%ADD444R,0.18071X0.00039*%
%ADD445R,0.18150X0.00039*%
%ADD446R,0.18189X0.00039*%
%ADD447R,0.18228X0.00039*%
%ADD448R,0.18307X0.00039*%
%ADD449R,0.18346X0.00039*%
%ADD450R,0.18386X0.00039*%
%ADD451R,0.18465X0.00039*%
%ADD452R,0.18504X0.00039*%
%ADD453R,0.18543X0.00039*%
%ADD454R,0.18622X0.00039*%
%ADD455R,0.18661X0.00039*%
%ADD456R,0.18701X0.00039*%
%ADD457R,0.04488X0.00039*%
%ADD458R,0.04449X0.00039*%
%ADD459R,0.04370X0.00039*%
%ADD460R,0.04331X0.00039*%
%ADD461R,0.04252X0.00039*%
%ADD462R,0.04173X0.00039*%
%ADD463R,0.04134X0.00039*%
%ADD464R,0.03976X0.00039*%
%ADD465R,0.07520X0.00039*%
%ADD466R,0.07165X0.00039*%
%ADD467R,0.03504X0.00039*%
%ADD468R,0.03307X0.00039*%
%ADD469R,0.03110X0.00039*%
%ADD470R,0.02913X0.00039*%
%ADD471R,0.05630X0.00039*%
%ADD472R,0.05433X0.00039*%
%ADD473R,0.05236X0.00039*%
%ADD474R,0.05039X0.00039*%
%ADD475R,0.04843X0.00039*%
%ADD476R,0.02441X0.00039*%
%ADD477R,0.04685X0.00039*%
%ADD478R,0.04528X0.00039*%
%ADD479R,0.02244X0.00039*%
%ADD480R,0.02047X0.00039*%
%ADD481R,0.01850X0.00039*%
%ADD482R,0.04291X0.00039*%
%ADD483R,0.00984X0.00039*%
%ADD484R,0.04213X0.00039*%
%ADD485R,0.00787X0.00039*%
%ADD486R,0.00591X0.00039*%
%ADD487R,0.04094X0.00039*%
%ADD488R,0.04016X0.00039*%
%ADD489R,0.03898X0.00039*%
%ADD490R,0.03819X0.00039*%
%ADD491R,0.03701X0.00039*%
%ADD492R,0.03622X0.00039*%
%ADD493R,0.03425X0.00039*%
%ADD494R,0.03228X0.00039*%
%ADD495C,0.00500*%
D10*
X0001500Y0101500D02*
X0001530Y0103954D01*
X0001620Y0106407D01*
X0001771Y0108856D01*
X0001982Y0111302D01*
X0002252Y0113741D01*
X0002582Y0116173D01*
X0002972Y0118596D01*
X0003421Y0121009D01*
X0003930Y0123410D01*
X0004497Y0125798D01*
X0005122Y0128171D01*
X0005806Y0130528D01*
X0006547Y0132868D01*
X0007346Y0135189D01*
X0008201Y0137490D01*
X0009112Y0139768D01*
X0010079Y0142024D01*
X0011101Y0144256D01*
X0012178Y0146461D01*
X0013308Y0148640D01*
X0014491Y0150790D01*
X0015727Y0152910D01*
X0017015Y0155000D01*
X0018353Y0157057D01*
X0019742Y0159081D01*
X0021179Y0161070D01*
X0022665Y0163023D01*
X0024199Y0164939D01*
X0025779Y0166817D01*
X0027405Y0168656D01*
X0029075Y0170454D01*
X0030789Y0172211D01*
X0032546Y0173925D01*
X0034344Y0175595D01*
X0036183Y0177221D01*
X0038061Y0178801D01*
X0039977Y0180335D01*
X0041930Y0181821D01*
X0043919Y0183258D01*
X0045943Y0184647D01*
X0048000Y0185985D01*
X0050090Y0187273D01*
X0052210Y0188509D01*
X0054360Y0189692D01*
X0056539Y0190822D01*
X0058744Y0191899D01*
X0060976Y0192921D01*
X0063232Y0193888D01*
X0065510Y0194799D01*
X0067811Y0195654D01*
X0070132Y0196453D01*
X0072472Y0197194D01*
X0074829Y0197878D01*
X0077202Y0198503D01*
X0079590Y0199070D01*
X0081991Y0199579D01*
X0084404Y0200028D01*
X0086827Y0200418D01*
X0089259Y0200748D01*
X0091698Y0201018D01*
X0094144Y0201229D01*
X0096593Y0201380D01*
X0099046Y0201470D01*
X0101500Y0201500D01*
X0103954Y0201470D01*
X0106407Y0201380D01*
X0108856Y0201229D01*
X0111302Y0201018D01*
X0113741Y0200748D01*
X0116173Y0200418D01*
X0118596Y0200028D01*
X0121009Y0199579D01*
X0123410Y0199070D01*
X0125798Y0198503D01*
X0128171Y0197878D01*
X0130528Y0197194D01*
X0132868Y0196453D01*
X0135189Y0195654D01*
X0137490Y0194799D01*
X0139768Y0193888D01*
X0142024Y0192921D01*
X0144256Y0191899D01*
X0146461Y0190822D01*
X0148640Y0189692D01*
X0150790Y0188509D01*
X0152910Y0187273D01*
X0155000Y0185985D01*
X0157057Y0184647D01*
X0159081Y0183258D01*
X0161070Y0181821D01*
X0163023Y0180335D01*
X0164939Y0178801D01*
X0166817Y0177221D01*
X0168656Y0175595D01*
X0170454Y0173925D01*
X0172211Y0172211D01*
X0173925Y0170454D01*
X0175595Y0168656D01*
X0177221Y0166817D01*
X0178801Y0164939D01*
X0180335Y0163023D01*
X0181821Y0161070D01*
X0183258Y0159081D01*
X0184647Y0157057D01*
X0185985Y0155000D01*
X0187273Y0152910D01*
X0188509Y0150790D01*
X0189692Y0148640D01*
X0190822Y0146461D01*
X0191899Y0144256D01*
X0192921Y0142024D01*
X0193888Y0139768D01*
X0194799Y0137490D01*
X0195654Y0135189D01*
X0196453Y0132868D01*
X0197194Y0130528D01*
X0197878Y0128171D01*
X0198503Y0125798D01*
X0199070Y0123410D01*
X0199579Y0121009D01*
X0200028Y0118596D01*
X0200418Y0116173D01*
X0200748Y0113741D01*
X0201018Y0111302D01*
X0201229Y0108856D01*
X0201380Y0106407D01*
X0201470Y0103954D01*
X0201500Y0101500D01*
X0201470Y0099046D01*
X0201380Y0096593D01*
X0201229Y0094144D01*
X0201018Y0091698D01*
X0200748Y0089259D01*
X0200418Y0086827D01*
X0200028Y0084404D01*
X0199579Y0081991D01*
X0199070Y0079590D01*
X0198503Y0077202D01*
X0197878Y0074829D01*
X0197194Y0072472D01*
X0196453Y0070132D01*
X0195654Y0067811D01*
X0194799Y0065510D01*
X0193888Y0063232D01*
X0192921Y0060976D01*
X0191899Y0058744D01*
X0190822Y0056539D01*
X0189692Y0054360D01*
X0188509Y0052210D01*
X0187273Y0050090D01*
X0185985Y0048000D01*
X0184647Y0045943D01*
X0183258Y0043919D01*
X0181821Y0041930D01*
X0180335Y0039977D01*
X0178801Y0038061D01*
X0177221Y0036183D01*
X0175595Y0034344D01*
X0173925Y0032546D01*
X0172211Y0030789D01*
X0170454Y0029075D01*
X0168656Y0027405D01*
X0166817Y0025779D01*
X0164939Y0024199D01*
X0163023Y0022665D01*
X0161070Y0021179D01*
X0159081Y0019742D01*
X0157057Y0018353D01*
X0155000Y0017015D01*
X0152910Y0015727D01*
X0150790Y0014491D01*
X0148640Y0013308D01*
X0146461Y0012178D01*
X0144256Y0011101D01*
X0142024Y0010079D01*
X0139768Y0009112D01*
X0137490Y0008201D01*
X0135189Y0007346D01*
X0132868Y0006547D01*
X0130528Y0005806D01*
X0128171Y0005122D01*
X0125798Y0004497D01*
X0123410Y0003930D01*
X0121009Y0003421D01*
X0118596Y0002972D01*
X0116173Y0002582D01*
X0113741Y0002252D01*
X0111302Y0001982D01*
X0108856Y0001771D01*
X0106407Y0001620D01*
X0103954Y0001530D01*
X0101500Y0001500D01*
X0099046Y0001530D01*
X0096593Y0001620D01*
X0094144Y0001771D01*
X0091698Y0001982D01*
X0089259Y0002252D01*
X0086827Y0002582D01*
X0084404Y0002972D01*
X0081991Y0003421D01*
X0079590Y0003930D01*
X0077202Y0004497D01*
X0074829Y0005122D01*
X0072472Y0005806D01*
X0070132Y0006547D01*
X0067811Y0007346D01*
X0065510Y0008201D01*
X0063232Y0009112D01*
X0060976Y0010079D01*
X0058744Y0011101D01*
X0056539Y0012178D01*
X0054360Y0013308D01*
X0052210Y0014491D01*
X0050090Y0015727D01*
X0048000Y0017015D01*
X0045943Y0018353D01*
X0043919Y0019742D01*
X0041930Y0021179D01*
X0039977Y0022665D01*
X0038061Y0024199D01*
X0036183Y0025779D01*
X0034344Y0027405D01*
X0032546Y0029075D01*
X0030789Y0030789D01*
X0029075Y0032546D01*
X0027405Y0034344D01*
X0025779Y0036183D01*
X0024199Y0038061D01*
X0022665Y0039977D01*
X0021179Y0041930D01*
X0019742Y0043919D01*
X0018353Y0045943D01*
X0017015Y0048000D01*
X0015727Y0050090D01*
X0014491Y0052210D01*
X0013308Y0054360D01*
X0012178Y0056539D01*
X0011101Y0058744D01*
X0010079Y0060976D01*
X0009112Y0063232D01*
X0008201Y0065510D01*
X0007346Y0067811D01*
X0006547Y0070132D01*
X0005806Y0072472D01*
X0005122Y0074829D01*
X0004497Y0077202D01*
X0003930Y0079590D01*
X0003421Y0081991D01*
X0002972Y0084404D01*
X0002582Y0086827D01*
X0002252Y0089259D01*
X0001982Y0091698D01*
X0001771Y0094144D01*
X0001620Y0096593D01*
X0001530Y0099046D01*
X0001500Y0101500D01*
D11*
X0035260Y0068800D03*
X0024640Y0080860D03*
X0021940Y0082840D03*
X0021580Y0103360D03*
X0028060Y0112720D03*
X0020860Y0117760D03*
X0045700Y0103360D03*
X0047500Y0103360D03*
X0046960Y0108040D03*
D12*
X0046510Y0108580D03*
X0050290Y0109660D03*
X0052810Y0112000D03*
X0047410Y0116860D03*
X0042010Y0111820D03*
X0049570Y0104440D03*
X0041290Y0097420D03*
X0049930Y0088420D03*
X0047410Y0084460D03*
X0044350Y0081760D03*
X0035710Y0068980D03*
X0015370Y0079780D03*
X0010690Y0086620D03*
X0015190Y0106060D03*
D13*
X0015190Y0105880D03*
X0015730Y0107860D03*
X0015910Y0108040D03*
X0012670Y0108940D03*
X0012490Y0108580D03*
X0012490Y0108400D03*
X0020230Y0115600D03*
X0020230Y0115780D03*
X0020410Y0115060D03*
X0020410Y0114880D03*
X0020590Y0114160D03*
X0020770Y0117400D03*
X0021490Y0109480D03*
X0021490Y0103720D03*
X0033730Y0107140D03*
X0046510Y0108760D03*
X0049570Y0104620D03*
X0047590Y0113800D03*
X0047770Y0114340D03*
X0047770Y0114520D03*
X0047410Y0116680D03*
X0050110Y0088240D03*
X0047410Y0084280D03*
X0043990Y0079960D03*
X0043990Y0079780D03*
X0044170Y0079240D03*
X0049930Y0076900D03*
X0036070Y0069160D03*
X0032470Y0078160D03*
X0027790Y0079060D03*
X0024910Y0080320D03*
X0015370Y0079600D03*
X0013030Y0082120D03*
X0013390Y0085180D03*
X0013210Y0085540D03*
X0013030Y0085900D03*
X0012670Y0086620D03*
D14*
X0013030Y0082300D03*
X0020230Y0088960D03*
X0020230Y0089140D03*
X0020590Y0088420D03*
X0025090Y0080140D03*
X0027790Y0078700D03*
X0027790Y0078520D03*
X0027790Y0078340D03*
X0027790Y0078160D03*
X0027610Y0077620D03*
X0027610Y0077440D03*
X0027610Y0077260D03*
X0027430Y0076720D03*
X0027430Y0076540D03*
X0027430Y0076360D03*
X0027250Y0075820D03*
X0027250Y0075640D03*
X0027250Y0075460D03*
X0027250Y0075280D03*
X0027070Y0074920D03*
X0027070Y0074740D03*
X0027070Y0074560D03*
X0027070Y0074380D03*
X0027070Y0074200D03*
X0027070Y0074020D03*
X0027070Y0073840D03*
X0027070Y0073660D03*
X0027070Y0073480D03*
X0027070Y0073300D03*
X0027250Y0072940D03*
X0031930Y0073660D03*
X0031930Y0073840D03*
X0031930Y0074020D03*
X0032110Y0074560D03*
X0032110Y0074740D03*
X0032110Y0074920D03*
X0032290Y0075460D03*
X0032290Y0075640D03*
X0032290Y0075820D03*
X0032290Y0076000D03*
X0032470Y0076360D03*
X0032470Y0076540D03*
X0032470Y0076720D03*
X0032470Y0076900D03*
X0032650Y0077260D03*
X0032650Y0077440D03*
X0032650Y0077620D03*
X0032650Y0077800D03*
X0032290Y0080140D03*
X0034990Y0080140D03*
X0035350Y0076360D03*
X0035170Y0076000D03*
X0035170Y0075820D03*
X0035170Y0075640D03*
X0035170Y0075460D03*
X0035170Y0075280D03*
X0035170Y0074740D03*
X0035170Y0074560D03*
X0035170Y0074380D03*
X0037150Y0070780D03*
X0036970Y0070420D03*
X0036790Y0070240D03*
X0036790Y0070060D03*
X0036610Y0069880D03*
X0036430Y0069520D03*
X0036250Y0069340D03*
X0041110Y0073480D03*
X0041290Y0073660D03*
X0041290Y0073840D03*
X0041290Y0074020D03*
X0041470Y0074380D03*
X0041470Y0074560D03*
X0041470Y0074740D03*
X0041470Y0074920D03*
X0041470Y0075100D03*
X0041290Y0075820D03*
X0044710Y0077260D03*
X0045250Y0075460D03*
X0045250Y0075280D03*
X0045430Y0074920D03*
X0045430Y0074740D03*
X0045430Y0074560D03*
X0045610Y0074380D03*
X0045610Y0074200D03*
X0049930Y0077080D03*
X0048310Y0083020D03*
X0047410Y0084100D03*
X0046690Y0088420D03*
X0047050Y0088960D03*
X0047050Y0089140D03*
X0054790Y0083380D03*
X0054610Y0083020D03*
X0054430Y0082660D03*
X0047050Y0102460D03*
X0049750Y0104800D03*
X0051010Y0108220D03*
X0050650Y0108760D03*
X0050290Y0109300D03*
X0046690Y0110200D03*
X0046690Y0110380D03*
X0046690Y0110560D03*
X0046510Y0109840D03*
X0046510Y0109660D03*
X0046510Y0109480D03*
X0047230Y0112360D03*
X0052810Y0111640D03*
X0053170Y0111100D03*
X0053530Y0110560D03*
X0053890Y0110020D03*
X0054250Y0109480D03*
X0038770Y0112900D03*
X0039130Y0114340D03*
X0039130Y0114520D03*
X0039130Y0114700D03*
X0039130Y0114880D03*
X0039310Y0115240D03*
X0039310Y0115420D03*
X0039310Y0115600D03*
X0039310Y0115780D03*
X0039670Y0117580D03*
X0039670Y0117760D03*
X0039850Y0118120D03*
X0039850Y0118300D03*
X0039850Y0118480D03*
X0039850Y0118660D03*
X0040030Y0119200D03*
X0035890Y0119200D03*
X0035890Y0119020D03*
X0035890Y0118840D03*
X0034990Y0115780D03*
X0034990Y0115600D03*
X0034990Y0115420D03*
X0034990Y0115240D03*
X0035170Y0114880D03*
X0033730Y0111640D03*
X0031570Y0114700D03*
X0031390Y0115240D03*
X0031390Y0115420D03*
X0031390Y0115600D03*
X0031390Y0115780D03*
X0031210Y0116140D03*
X0031210Y0116320D03*
X0031210Y0116500D03*
X0031210Y0116680D03*
X0031030Y0117220D03*
X0031030Y0117400D03*
X0031030Y0117580D03*
X0031030Y0117760D03*
X0030850Y0118300D03*
X0030850Y0118480D03*
X0030850Y0118660D03*
X0030850Y0118840D03*
X0030670Y0119200D03*
X0030670Y0119380D03*
X0030670Y0119560D03*
X0030670Y0119740D03*
X0030490Y0120280D03*
X0030490Y0120460D03*
X0030490Y0120640D03*
X0030490Y0120820D03*
X0020770Y0117220D03*
X0021310Y0111460D03*
X0021310Y0111100D03*
X0021310Y0110920D03*
X0021310Y0110740D03*
X0021490Y0110200D03*
X0021490Y0110020D03*
X0021490Y0109840D03*
X0019150Y0107140D03*
X0018970Y0106780D03*
X0018250Y0105700D03*
X0018070Y0105520D03*
X0020230Y0102460D03*
X0012490Y0107860D03*
X0014290Y0111460D03*
D15*
X0014380Y0111280D03*
X0012580Y0107680D03*
X0015460Y0105520D03*
X0020140Y0102280D03*
X0020140Y0102100D03*
X0025900Y0097420D03*
X0020140Y0089500D03*
X0020140Y0089320D03*
X0017440Y0087160D03*
X0017260Y0086980D03*
X0017080Y0086800D03*
X0016900Y0086620D03*
X0016720Y0086440D03*
X0016540Y0086260D03*
X0016360Y0086080D03*
X0016180Y0085900D03*
X0016000Y0085720D03*
X0013120Y0082480D03*
X0015460Y0079240D03*
X0015640Y0079060D03*
X0015820Y0078880D03*
X0016000Y0078700D03*
X0016180Y0078520D03*
X0017800Y0076900D03*
X0022120Y0074560D03*
X0022300Y0074920D03*
X0022660Y0075460D03*
X0022840Y0075820D03*
X0023020Y0076180D03*
X0023200Y0076540D03*
X0023380Y0076900D03*
X0023560Y0077260D03*
X0023920Y0077800D03*
X0024100Y0078160D03*
X0024280Y0078520D03*
X0024460Y0078880D03*
X0024640Y0079240D03*
X0024820Y0079600D03*
X0027880Y0078880D03*
X0027700Y0077980D03*
X0027700Y0077800D03*
X0027520Y0077080D03*
X0027520Y0076900D03*
X0027340Y0076180D03*
X0027340Y0076000D03*
X0027160Y0075100D03*
X0027160Y0073120D03*
X0027340Y0072760D03*
X0031660Y0072940D03*
X0031660Y0073120D03*
X0031840Y0073300D03*
X0031840Y0073480D03*
X0032020Y0074200D03*
X0032020Y0074380D03*
X0032200Y0075100D03*
X0032200Y0075280D03*
X0032380Y0076180D03*
X0032560Y0077080D03*
X0032740Y0077980D03*
X0035440Y0076720D03*
X0035440Y0076540D03*
X0035260Y0076180D03*
X0035620Y0076900D03*
X0035080Y0075100D03*
X0035080Y0074920D03*
X0035260Y0074200D03*
X0035260Y0074020D03*
X0035260Y0073840D03*
X0035440Y0073660D03*
X0035440Y0073480D03*
X0035620Y0073300D03*
X0037060Y0070600D03*
X0036520Y0069700D03*
X0041020Y0073300D03*
X0041380Y0074200D03*
X0041380Y0075280D03*
X0041380Y0075460D03*
X0041380Y0075640D03*
X0041200Y0076000D03*
X0041200Y0076180D03*
X0041020Y0076540D03*
X0045160Y0075820D03*
X0046780Y0077080D03*
X0050200Y0088060D03*
X0047140Y0089320D03*
X0047140Y0089500D03*
X0047140Y0089680D03*
X0047140Y0102100D03*
X0047140Y0102280D03*
X0045700Y0103900D03*
X0046780Y0110920D03*
X0054520Y0108940D03*
X0039220Y0115060D03*
X0039400Y0115960D03*
X0039400Y0116140D03*
X0039760Y0117940D03*
X0039940Y0118840D03*
X0039940Y0119020D03*
X0035980Y0119380D03*
X0035260Y0116320D03*
X0035080Y0116140D03*
X0035080Y0115960D03*
X0035080Y0115060D03*
X0031480Y0115060D03*
X0031480Y0114880D03*
X0031300Y0115960D03*
X0031120Y0116860D03*
X0031120Y0117040D03*
X0030940Y0117940D03*
X0030940Y0118120D03*
X0030760Y0119020D03*
X0030580Y0119920D03*
X0030580Y0120100D03*
X0021940Y0081940D03*
X0021940Y0074200D03*
D16*
X0027520Y0072580D03*
X0035980Y0072760D03*
X0037420Y0070960D03*
X0040660Y0077080D03*
X0040480Y0077260D03*
X0035980Y0077260D03*
X0045340Y0076180D03*
X0047320Y0090220D03*
X0047320Y0090400D03*
X0047320Y0090580D03*
X0047320Y0101020D03*
X0047320Y0101200D03*
X0047320Y0101380D03*
X0054340Y0108760D03*
X0035620Y0114520D03*
X0019060Y0107500D03*
X0016360Y0104080D03*
X0019960Y0101380D03*
X0019960Y0101200D03*
X0019960Y0090580D03*
X0019960Y0090400D03*
X0019960Y0090220D03*
X0014380Y0084100D03*
X0014020Y0083560D03*
X0013840Y0083380D03*
X0013660Y0083200D03*
X0013480Y0083020D03*
X0020680Y0080320D03*
X0021940Y0081760D03*
D17*
X0024910Y0079780D03*
X0025090Y0079960D03*
X0024730Y0079420D03*
X0024550Y0079060D03*
X0024370Y0078700D03*
X0024190Y0078340D03*
X0024010Y0077980D03*
X0023830Y0077620D03*
X0023650Y0077440D03*
X0023470Y0077080D03*
X0023290Y0076720D03*
X0023110Y0076360D03*
X0022930Y0076000D03*
X0022750Y0075640D03*
X0022570Y0075280D03*
X0022390Y0075100D03*
X0022210Y0074740D03*
X0022030Y0074380D03*
X0021850Y0074020D03*
X0017710Y0077080D03*
X0013210Y0082660D03*
X0014110Y0083740D03*
X0014290Y0083920D03*
X0015550Y0085180D03*
X0015730Y0085360D03*
X0015910Y0085540D03*
X0020050Y0089680D03*
X0020050Y0089860D03*
X0020050Y0090040D03*
X0020770Y0088240D03*
X0020950Y0088060D03*
X0020050Y0101560D03*
X0020050Y0101740D03*
X0020050Y0101920D03*
X0021490Y0103900D03*
X0019150Y0107320D03*
X0021310Y0111640D03*
X0026170Y0112540D03*
X0029050Y0113080D03*
X0035350Y0114700D03*
X0036790Y0117580D03*
X0039850Y0119380D03*
X0037330Y0120820D03*
X0042010Y0112180D03*
X0044890Y0112360D03*
X0045070Y0112180D03*
X0046690Y0111100D03*
X0047410Y0116500D03*
X0049750Y0104980D03*
X0047230Y0101920D03*
X0047230Y0101740D03*
X0047230Y0101560D03*
X0047230Y0090040D03*
X0047230Y0089860D03*
X0046510Y0088240D03*
X0046330Y0088060D03*
X0047410Y0083920D03*
X0047590Y0083740D03*
X0047770Y0083560D03*
X0047950Y0083380D03*
X0048130Y0083200D03*
X0044530Y0081400D03*
X0047230Y0077440D03*
X0047050Y0077260D03*
X0045250Y0076000D03*
X0041110Y0076360D03*
X0040930Y0076720D03*
X0040750Y0076900D03*
X0040930Y0073120D03*
X0040750Y0072940D03*
X0040570Y0072760D03*
X0035710Y0073120D03*
X0035890Y0077080D03*
X0038410Y0078880D03*
X0031570Y0072760D03*
X0031390Y0072580D03*
X0029590Y0070960D03*
X0055150Y0084460D03*
X0012670Y0107500D03*
D18*
X0018880Y0107860D03*
X0021940Y0104440D03*
X0019600Y0099040D03*
X0019600Y0098860D03*
X0019600Y0098680D03*
X0019600Y0098500D03*
X0019600Y0098320D03*
X0019600Y0098140D03*
X0019600Y0093280D03*
X0019600Y0093100D03*
X0019600Y0092920D03*
X0019600Y0092740D03*
X0019600Y0092560D03*
X0021760Y0087340D03*
X0014560Y0084640D03*
X0029500Y0071140D03*
X0037960Y0071140D03*
X0045520Y0076540D03*
X0048220Y0078700D03*
X0048760Y0078340D03*
X0054880Y0084820D03*
X0047680Y0092740D03*
X0047680Y0092920D03*
X0047680Y0093100D03*
X0047680Y0093280D03*
X0047680Y0093460D03*
X0047680Y0093640D03*
X0047680Y0098140D03*
X0047680Y0098320D03*
X0047680Y0098500D03*
X0047680Y0098680D03*
X0047680Y0098860D03*
X0045340Y0104440D03*
X0047320Y0116140D03*
X0033820Y0099760D03*
X0045520Y0087340D03*
X0021760Y0112180D03*
X0020860Y0116680D03*
D19*
X0021130Y0116320D03*
X0021310Y0116140D03*
X0014650Y0110560D03*
X0013930Y0106420D03*
X0016450Y0104620D03*
X0022570Y0104980D03*
X0019690Y0097780D03*
X0025990Y0097060D03*
X0022390Y0086800D03*
X0015910Y0088600D03*
X0014650Y0085000D03*
X0017710Y0077800D03*
X0031390Y0080500D03*
X0035890Y0080500D03*
X0038230Y0071320D03*
X0045790Y0076900D03*
X0044710Y0104980D03*
X0044530Y0105160D03*
X0046150Y0112000D03*
X0043090Y0113080D03*
X0047050Y0115780D03*
X0038050Y0113260D03*
X0030670Y0114340D03*
X0052630Y0107320D03*
D20*
X0046960Y0115600D03*
X0037600Y0120640D03*
X0024820Y0113440D03*
X0021940Y0112540D03*
X0022840Y0105160D03*
X0016540Y0104800D03*
X0013840Y0106600D03*
X0033820Y0106960D03*
X0050740Y0087340D03*
X0051280Y0086980D03*
X0051640Y0086800D03*
X0052000Y0086620D03*
X0054340Y0085360D03*
X0054700Y0085180D03*
X0044800Y0086800D03*
X0044620Y0086620D03*
X0044800Y0080680D03*
X0044980Y0080500D03*
X0029500Y0071320D03*
X0022660Y0086620D03*
D21*
X0031030Y0080680D03*
X0038230Y0071500D03*
X0016630Y0105160D03*
X0016630Y0105340D03*
X0017530Y0108400D03*
X0014830Y0110200D03*
X0023470Y0105700D03*
D22*
X0024910Y0113260D03*
X0029950Y0113440D03*
X0020050Y0097420D03*
X0023290Y0086080D03*
X0017710Y0078160D03*
X0029590Y0071500D03*
X0045250Y0080140D03*
X0048850Y0077800D03*
X0041110Y0096700D03*
D23*
X0041020Y0096520D03*
X0039760Y0087340D03*
X0039760Y0087160D03*
X0039760Y0086980D03*
X0039760Y0086800D03*
X0039760Y0086620D03*
X0028420Y0088060D03*
X0020320Y0097060D03*
X0024100Y0106240D03*
X0024820Y0113080D03*
X0030220Y0113620D03*
X0030220Y0113800D03*
X0030220Y0113980D03*
X0037420Y0113800D03*
X0038140Y0117400D03*
X0037960Y0120460D03*
X0014920Y0110020D03*
X0048940Y0077620D03*
X0038140Y0071680D03*
X0029500Y0071680D03*
D24*
X0029410Y0072040D03*
X0038230Y0071860D03*
X0024910Y0084820D03*
X0012490Y0087160D03*
X0025090Y0106960D03*
X0037330Y0114160D03*
X0040930Y0096160D03*
X0039490Y0087700D03*
D25*
X0036700Y0081040D03*
X0029500Y0071860D03*
X0024640Y0085000D03*
X0024460Y0085180D03*
X0028240Y0088240D03*
X0020500Y0096880D03*
X0024640Y0106600D03*
X0033640Y0111460D03*
D26*
X0037690Y0117040D03*
X0038230Y0120280D03*
X0025810Y0107500D03*
X0040930Y0095980D03*
X0039310Y0088060D03*
X0039310Y0087880D03*
X0036970Y0081220D03*
X0030310Y0081220D03*
X0025630Y0084280D03*
X0025450Y0084460D03*
X0015010Y0088420D03*
X0038230Y0072040D03*
D27*
X0038230Y0072220D03*
X0030130Y0081400D03*
X0026170Y0083920D03*
X0039130Y0088420D03*
X0039130Y0088600D03*
X0037330Y0116500D03*
D28*
X0037780Y0117220D03*
X0025540Y0107320D03*
X0025360Y0107140D03*
X0033820Y0100120D03*
X0028240Y0088420D03*
X0025180Y0084640D03*
X0020680Y0096700D03*
X0038320Y0077980D03*
X0029500Y0072220D03*
D29*
X0038230Y0072400D03*
X0037690Y0081760D03*
X0038590Y0082300D03*
X0038950Y0082480D03*
X0039130Y0082660D03*
X0039490Y0082840D03*
X0040030Y0083200D03*
X0040570Y0083740D03*
X0038950Y0089140D03*
X0040750Y0095440D03*
X0033910Y0100300D03*
X0038950Y0109120D03*
X0038770Y0109300D03*
X0038410Y0109480D03*
X0038050Y0109660D03*
X0037690Y0109840D03*
X0039310Y0108940D03*
X0040750Y0107860D03*
X0029770Y0110020D03*
X0029590Y0109840D03*
X0029230Y0109660D03*
X0028870Y0109480D03*
X0028510Y0109300D03*
X0028330Y0109120D03*
X0027970Y0108940D03*
X0027790Y0082840D03*
X0028330Y0082480D03*
X0028690Y0082300D03*
X0029230Y0081940D03*
X0029590Y0081760D03*
X0029950Y0081580D03*
D30*
X0028600Y0087340D03*
X0021580Y0087520D03*
X0021400Y0087700D03*
X0019780Y0091300D03*
X0019780Y0091480D03*
X0019780Y0091660D03*
X0025900Y0097240D03*
X0019780Y0099940D03*
X0019780Y0100120D03*
X0019780Y0100300D03*
X0019780Y0100480D03*
X0021580Y0104080D03*
X0021580Y0112000D03*
X0023740Y0114700D03*
X0023560Y0114880D03*
X0024280Y0114340D03*
X0024460Y0114160D03*
X0024640Y0113980D03*
X0026080Y0112900D03*
X0044260Y0114160D03*
X0044800Y0114520D03*
X0045340Y0114880D03*
X0045520Y0115060D03*
X0046420Y0111460D03*
X0049840Y0105160D03*
X0047500Y0100300D03*
X0047500Y0100120D03*
X0047500Y0099940D03*
X0047500Y0091660D03*
X0047500Y0091480D03*
X0047500Y0091300D03*
X0045880Y0087700D03*
X0044440Y0081220D03*
X0046420Y0079960D03*
X0046600Y0079780D03*
X0047140Y0079420D03*
X0047680Y0079060D03*
X0045520Y0076360D03*
X0040120Y0077440D03*
X0040300Y0072580D03*
X0031120Y0072400D03*
X0027880Y0072400D03*
X0054340Y0108580D03*
D31*
X0046510Y0111280D03*
X0045790Y0115240D03*
X0047410Y0116320D03*
X0042010Y0112360D03*
X0045610Y0104080D03*
X0047410Y0100840D03*
X0047410Y0100660D03*
X0047410Y0100480D03*
X0047410Y0091120D03*
X0047410Y0090940D03*
X0047410Y0090760D03*
X0046150Y0087880D03*
X0050290Y0087880D03*
X0036250Y0072580D03*
X0021850Y0081580D03*
X0021490Y0081220D03*
X0021310Y0081040D03*
X0020950Y0080680D03*
X0020590Y0080140D03*
X0020410Y0079960D03*
X0020050Y0079600D03*
X0019690Y0079240D03*
X0019510Y0079060D03*
X0019150Y0078700D03*
X0017710Y0077260D03*
X0021490Y0111820D03*
X0024010Y0114520D03*
X0023290Y0115060D03*
X0023110Y0115240D03*
X0022390Y0115780D03*
X0031210Y0114520D03*
D32*
X0023200Y0112900D03*
X0041200Y0097240D03*
X0035800Y0072940D03*
X0013300Y0082840D03*
D33*
X0012940Y0081400D03*
X0021940Y0082660D03*
X0027340Y0079240D03*
X0044440Y0081940D03*
X0047320Y0084640D03*
X0049840Y0088600D03*
X0047320Y0103180D03*
X0046780Y0108220D03*
X0041920Y0111640D03*
X0030940Y0121180D03*
X0026080Y0112000D03*
X0014020Y0112000D03*
X0045160Y0073120D03*
D34*
X0045250Y0073300D03*
X0022210Y0073480D03*
X0021490Y0103540D03*
X0013390Y0105880D03*
X0039310Y0112720D03*
X0046690Y0108400D03*
X0049390Y0104260D03*
X0045610Y0103540D03*
D35*
X0049390Y0104080D03*
X0050470Y0110020D03*
X0052990Y0112360D03*
X0049750Y0088780D03*
X0047230Y0084820D03*
X0054250Y0081220D03*
X0032110Y0078340D03*
X0022390Y0073300D03*
X0015370Y0080140D03*
X0012850Y0081220D03*
X0019870Y0103180D03*
X0020950Y0108760D03*
D36*
X0021220Y0109120D03*
X0026080Y0112180D03*
X0020860Y0117580D03*
X0014200Y0111820D03*
X0019960Y0103000D03*
X0021940Y0082480D03*
X0024820Y0080500D03*
X0017800Y0076360D03*
X0012940Y0081580D03*
X0012940Y0081760D03*
X0045340Y0073480D03*
X0054160Y0081400D03*
X0047320Y0103000D03*
X0050380Y0109840D03*
X0052900Y0112180D03*
D37*
X0045700Y0103720D03*
X0047140Y0102820D03*
X0028600Y0112900D03*
X0021400Y0109300D03*
X0020140Y0102820D03*
X0014200Y0111640D03*
X0012760Y0086440D03*
X0012940Y0086080D03*
X0013120Y0085720D03*
X0013300Y0085360D03*
X0012940Y0081940D03*
X0017800Y0076540D03*
X0022120Y0073660D03*
X0021940Y0082300D03*
X0045520Y0073660D03*
X0048580Y0082660D03*
X0053980Y0081580D03*
D38*
X0053980Y0081760D03*
X0053980Y0081940D03*
X0054520Y0082840D03*
X0054880Y0083560D03*
X0045520Y0074020D03*
X0045520Y0073840D03*
X0044620Y0077440D03*
X0044620Y0077620D03*
X0044620Y0077800D03*
X0044080Y0079420D03*
X0044080Y0079600D03*
X0020320Y0088600D03*
X0020320Y0088780D03*
X0018520Y0106060D03*
X0018880Y0106600D03*
X0015280Y0105700D03*
X0013480Y0106060D03*
X0012580Y0108760D03*
X0013120Y0109660D03*
X0021220Y0111280D03*
X0021580Y0109660D03*
X0020680Y0113440D03*
X0020680Y0113620D03*
X0020680Y0113800D03*
X0020680Y0113980D03*
X0020320Y0115240D03*
X0020320Y0115420D03*
X0026080Y0112360D03*
X0030580Y0121000D03*
X0035980Y0118120D03*
X0041920Y0112000D03*
X0046420Y0109300D03*
X0046420Y0109120D03*
X0046420Y0108940D03*
X0046780Y0110740D03*
X0047320Y0112540D03*
X0047320Y0112720D03*
X0047320Y0112900D03*
X0047320Y0113080D03*
X0047680Y0113980D03*
X0047680Y0114160D03*
X0052720Y0111820D03*
X0053080Y0111280D03*
X0053620Y0110380D03*
X0053980Y0109840D03*
X0054520Y0109120D03*
X0050920Y0108400D03*
X0050380Y0109120D03*
D39*
X0050560Y0108940D03*
X0050740Y0108580D03*
X0051100Y0108040D03*
X0050200Y0109480D03*
X0052900Y0111460D03*
X0053260Y0110920D03*
X0053440Y0110740D03*
X0053800Y0110200D03*
X0054160Y0109660D03*
X0054340Y0109300D03*
X0047140Y0112180D03*
X0047500Y0113260D03*
X0047500Y0113440D03*
X0047500Y0113620D03*
X0047860Y0114700D03*
X0047860Y0114880D03*
X0046600Y0110020D03*
X0047140Y0102640D03*
X0046960Y0088780D03*
X0046960Y0088600D03*
X0048400Y0082840D03*
X0044440Y0081580D03*
X0044260Y0079060D03*
X0044260Y0078880D03*
X0044260Y0078700D03*
X0044440Y0078340D03*
X0044440Y0078160D03*
X0044440Y0077980D03*
X0044800Y0077080D03*
X0045160Y0075640D03*
X0045340Y0075100D03*
X0054160Y0082120D03*
X0054160Y0082300D03*
X0054340Y0082480D03*
X0054700Y0083200D03*
X0055060Y0083740D03*
X0055060Y0083920D03*
X0055240Y0084100D03*
X0055240Y0084280D03*
X0028600Y0087160D03*
X0021940Y0082120D03*
X0017800Y0076720D03*
X0015460Y0079420D03*
X0021940Y0073840D03*
X0016900Y0088780D03*
X0020140Y0102640D03*
X0016360Y0103900D03*
X0018340Y0105880D03*
X0018700Y0106240D03*
X0018700Y0106420D03*
X0019060Y0106960D03*
X0015640Y0107680D03*
X0015460Y0107500D03*
X0012940Y0109300D03*
X0012940Y0109480D03*
X0012760Y0109120D03*
X0013300Y0109840D03*
X0012400Y0108220D03*
X0012400Y0108040D03*
X0021400Y0110380D03*
X0021400Y0110560D03*
X0020860Y0112900D03*
X0020860Y0113080D03*
X0020860Y0113260D03*
X0020500Y0114340D03*
X0020500Y0114520D03*
X0020500Y0114700D03*
X0035800Y0118300D03*
X0035800Y0118480D03*
X0035800Y0118660D03*
X0036160Y0117940D03*
X0036340Y0117760D03*
D40*
X0047500Y0117040D03*
X0017800Y0076180D03*
D41*
X0015370Y0079960D03*
X0024730Y0080680D03*
X0048670Y0082480D03*
X0049930Y0076720D03*
X0021130Y0108940D03*
D42*
X0018700Y0108040D03*
X0017440Y0108760D03*
X0017260Y0108940D03*
X0021940Y0112360D03*
X0021040Y0116500D03*
X0022300Y0104800D03*
X0036160Y0114340D03*
X0046240Y0111820D03*
X0050560Y0105880D03*
X0051100Y0106240D03*
X0051640Y0106600D03*
X0050560Y0087520D03*
X0045700Y0076720D03*
X0022300Y0086980D03*
X0014560Y0084820D03*
D43*
X0014470Y0084280D03*
X0019870Y0079420D03*
X0020230Y0079780D03*
X0020770Y0080500D03*
X0021130Y0080860D03*
X0021670Y0081400D03*
X0019330Y0078880D03*
X0018970Y0078520D03*
X0021130Y0087880D03*
X0019870Y0090760D03*
X0019870Y0090940D03*
X0019870Y0091120D03*
X0019870Y0100660D03*
X0019870Y0100840D03*
X0019870Y0101020D03*
X0014470Y0111100D03*
X0020770Y0117040D03*
X0022570Y0115600D03*
X0022930Y0115420D03*
X0026170Y0112720D03*
X0039130Y0116320D03*
X0054970Y0084640D03*
X0049930Y0077260D03*
D44*
X0049930Y0077440D03*
X0048490Y0078520D03*
X0047950Y0078880D03*
X0047410Y0079240D03*
X0046870Y0079600D03*
X0045610Y0087520D03*
X0047590Y0091840D03*
X0047590Y0092020D03*
X0047590Y0092200D03*
X0047590Y0092380D03*
X0047590Y0092560D03*
X0050470Y0087700D03*
X0047590Y0099040D03*
X0047590Y0099220D03*
X0047590Y0099400D03*
X0047590Y0099580D03*
X0047590Y0099760D03*
X0045610Y0104260D03*
X0049930Y0105340D03*
X0043270Y0113440D03*
X0043450Y0113620D03*
X0043810Y0113800D03*
X0043990Y0113980D03*
X0044530Y0114340D03*
X0045070Y0114700D03*
X0038410Y0113080D03*
X0024910Y0113800D03*
X0020770Y0116860D03*
X0014470Y0110920D03*
X0018970Y0107680D03*
X0016450Y0104260D03*
X0021670Y0104260D03*
X0019690Y0099760D03*
X0019690Y0099580D03*
X0019690Y0099400D03*
X0019690Y0099220D03*
X0019690Y0092380D03*
X0019690Y0092200D03*
X0019690Y0092020D03*
X0019690Y0091840D03*
X0014470Y0084460D03*
X0017710Y0077440D03*
X0031750Y0080320D03*
X0035530Y0080320D03*
X0036430Y0077440D03*
D45*
X0038320Y0077620D03*
X0037420Y0081580D03*
X0039760Y0083020D03*
X0040300Y0083380D03*
X0040480Y0083560D03*
X0039040Y0088780D03*
X0039040Y0088960D03*
X0028060Y0088960D03*
X0026980Y0083380D03*
X0027160Y0083200D03*
X0027520Y0083020D03*
X0027160Y0108400D03*
X0027340Y0108580D03*
X0027700Y0108760D03*
X0030220Y0110200D03*
X0037060Y0110200D03*
X0037420Y0110020D03*
X0039580Y0108760D03*
X0039940Y0108580D03*
X0040120Y0108400D03*
D46*
X0043090Y0113260D03*
X0046330Y0111640D03*
X0050290Y0105700D03*
X0050830Y0106060D03*
X0051370Y0106420D03*
X0051910Y0106780D03*
X0054070Y0108220D03*
X0047230Y0115960D03*
X0029590Y0113260D03*
X0024910Y0113620D03*
X0016990Y0109120D03*
X0015910Y0109840D03*
X0019510Y0097960D03*
X0022030Y0087160D03*
X0017710Y0077620D03*
X0011590Y0086800D03*
X0038410Y0078700D03*
X0044530Y0081040D03*
X0054790Y0085000D03*
X0047770Y0093820D03*
X0047770Y0094000D03*
X0047770Y0094180D03*
X0047770Y0094360D03*
X0047770Y0094540D03*
X0047770Y0094720D03*
X0047770Y0094900D03*
X0047770Y0095080D03*
X0047770Y0095260D03*
X0047770Y0095440D03*
X0047770Y0095620D03*
X0047770Y0095800D03*
X0047770Y0095980D03*
X0047770Y0096160D03*
X0047770Y0096340D03*
X0047770Y0096520D03*
X0047770Y0096700D03*
X0047770Y0096880D03*
X0047770Y0097060D03*
X0047770Y0097240D03*
X0047770Y0097420D03*
X0047770Y0097600D03*
X0047770Y0097780D03*
X0047770Y0097960D03*
X0041110Y0097060D03*
D47*
X0040840Y0095800D03*
X0039220Y0088240D03*
X0038320Y0077800D03*
X0026440Y0083740D03*
X0028240Y0088600D03*
X0026080Y0107680D03*
X0026620Y0108040D03*
X0037420Y0116680D03*
X0037960Y0119560D03*
X0038140Y0119920D03*
X0038140Y0120100D03*
X0040660Y0108040D03*
D48*
X0044350Y0105340D03*
X0052630Y0107500D03*
X0041110Y0096880D03*
X0051010Y0087160D03*
X0052270Y0086440D03*
X0052630Y0086260D03*
X0052990Y0086080D03*
X0053350Y0085900D03*
X0053710Y0085720D03*
X0054070Y0085540D03*
X0048850Y0077980D03*
X0028510Y0087700D03*
X0022930Y0086440D03*
X0017710Y0077980D03*
X0025990Y0096880D03*
X0019870Y0097600D03*
X0017530Y0108580D03*
X0014830Y0110380D03*
X0021490Y0115960D03*
D49*
X0014650Y0110740D03*
X0016450Y0109480D03*
X0016450Y0104440D03*
X0045250Y0104620D03*
X0052450Y0107140D03*
X0054250Y0108400D03*
X0045250Y0087160D03*
X0048850Y0078160D03*
D50*
X0039580Y0087520D03*
X0030580Y0081040D03*
X0038320Y0078160D03*
X0024820Y0106780D03*
X0037420Y0113980D03*
D51*
X0037600Y0113620D03*
X0030220Y0114160D03*
X0023740Y0105880D03*
X0026080Y0096700D03*
X0033820Y0099940D03*
X0028420Y0087880D03*
X0023560Y0085900D03*
X0038320Y0078340D03*
X0013840Y0107140D03*
X0013840Y0107320D03*
X0052720Y0107680D03*
D52*
X0052810Y0107860D03*
X0043090Y0112720D03*
X0023830Y0106060D03*
X0017710Y0108220D03*
X0020230Y0097240D03*
X0023830Y0085720D03*
X0024010Y0085540D03*
X0030850Y0080860D03*
X0036430Y0080860D03*
X0017710Y0078340D03*
D53*
X0012850Y0086260D03*
X0044350Y0078520D03*
X0047950Y0115060D03*
X0047950Y0115240D03*
D54*
X0046780Y0115420D03*
X0037780Y0113440D03*
X0044080Y0105520D03*
X0023020Y0105340D03*
X0016540Y0104980D03*
X0013840Y0106780D03*
X0013840Y0106960D03*
X0022120Y0112720D03*
X0023020Y0086260D03*
X0011860Y0086980D03*
X0036160Y0080680D03*
X0038320Y0078520D03*
X0045160Y0080320D03*
D55*
X0044620Y0080860D03*
X0044980Y0086980D03*
X0028420Y0087520D03*
X0022120Y0104620D03*
X0016720Y0109300D03*
X0016180Y0109660D03*
X0014020Y0106240D03*
X0044980Y0104800D03*
X0050020Y0105520D03*
X0052180Y0106960D03*
D56*
X0040750Y0095620D03*
X0040390Y0108220D03*
X0037510Y0116860D03*
X0038050Y0119740D03*
X0026890Y0108220D03*
X0026350Y0107860D03*
X0028150Y0088780D03*
X0026710Y0083560D03*
X0037150Y0081400D03*
D57*
X0037960Y0081940D03*
X0038320Y0082120D03*
X0040660Y0083920D03*
X0039040Y0089320D03*
X0040660Y0095260D03*
X0028960Y0082120D03*
X0028060Y0082660D03*
X0028060Y0089140D03*
X0028060Y0089320D03*
D58*
X0040840Y0084100D03*
X0040660Y0107680D03*
X0033640Y0111280D03*
D59*
X0025900Y0084100D03*
D60*
X0027790Y0089860D03*
X0033910Y0100480D03*
X0040570Y0094900D03*
X0040570Y0094720D03*
X0039130Y0089860D03*
X0040930Y0084280D03*
D61*
X0041020Y0084460D03*
X0039220Y0090040D03*
X0040480Y0094540D03*
X0040660Y0107500D03*
X0027880Y0090040D03*
D62*
X0027790Y0090220D03*
X0027790Y0090400D03*
X0039310Y0090400D03*
X0039310Y0090220D03*
X0040390Y0094180D03*
X0040390Y0094360D03*
X0041110Y0084640D03*
D63*
X0041200Y0084820D03*
X0039400Y0090580D03*
X0039400Y0090760D03*
X0040300Y0093820D03*
X0040300Y0094000D03*
X0034000Y0100660D03*
X0027700Y0090760D03*
X0027700Y0090580D03*
D64*
X0027610Y0090940D03*
X0027610Y0091120D03*
X0027250Y0092200D03*
X0039490Y0091120D03*
X0039490Y0090940D03*
X0040210Y0093460D03*
X0040210Y0093640D03*
X0041290Y0085000D03*
D65*
X0041380Y0085180D03*
X0041380Y0085360D03*
X0039580Y0091300D03*
X0039580Y0091480D03*
X0039760Y0091660D03*
X0039760Y0091840D03*
X0039760Y0092020D03*
X0039940Y0092380D03*
X0039940Y0092560D03*
X0039940Y0092740D03*
X0040120Y0093100D03*
X0040120Y0093280D03*
X0027340Y0092020D03*
D66*
X0024190Y0085360D03*
X0040930Y0096340D03*
X0043090Y0112540D03*
X0024370Y0106420D03*
D67*
X0033910Y0100840D03*
X0040570Y0107140D03*
X0039850Y0092200D03*
X0041470Y0085540D03*
X0027070Y0092380D03*
D68*
X0041560Y0085720D03*
X0033640Y0111100D03*
D69*
X0013750Y0087880D03*
X0041650Y0085900D03*
D70*
X0041740Y0086080D03*
X0026800Y0092740D03*
X0034000Y0101020D03*
X0013660Y0088060D03*
X0013840Y0087700D03*
D71*
X0026530Y0092920D03*
X0041830Y0086440D03*
X0041830Y0086260D03*
D72*
X0040480Y0106960D03*
X0014020Y0087340D03*
D73*
X0013930Y0087520D03*
X0026890Y0092560D03*
D74*
X0027520Y0091300D03*
X0014020Y0088240D03*
D75*
X0027970Y0089500D03*
X0039130Y0089500D03*
X0040570Y0095080D03*
D76*
X0039220Y0089680D03*
X0027880Y0089680D03*
D77*
X0027430Y0091480D03*
X0027430Y0091660D03*
X0027430Y0091840D03*
X0040030Y0092920D03*
X0040570Y0107320D03*
D78*
X0026350Y0093100D03*
D79*
X0026080Y0093280D03*
X0033640Y0110920D03*
D80*
X0024280Y0094000D03*
X0024280Y0093820D03*
X0024460Y0093460D03*
D81*
X0024370Y0093640D03*
D82*
X0024190Y0094180D03*
D83*
X0024100Y0094360D03*
X0024100Y0094540D03*
X0035260Y0105340D03*
X0035440Y0105520D03*
X0033640Y0110380D03*
D84*
X0024010Y0094900D03*
X0024010Y0094720D03*
D85*
X0023920Y0095080D03*
X0035080Y0105160D03*
D86*
X0034810Y0104980D03*
X0034630Y0104800D03*
X0023830Y0095260D03*
D87*
X0023740Y0095440D03*
X0033640Y0110560D03*
D88*
X0034450Y0104620D03*
X0023650Y0095800D03*
X0023650Y0095620D03*
D89*
X0023560Y0095980D03*
D90*
X0023380Y0096160D03*
X0034000Y0102460D03*
X0034000Y0102640D03*
X0034000Y0102820D03*
X0034000Y0103000D03*
X0034000Y0103900D03*
X0034000Y0104080D03*
D91*
X0023290Y0096340D03*
D92*
X0023200Y0096520D03*
X0034000Y0102100D03*
X0034000Y0102280D03*
X0033640Y0110740D03*
D93*
X0034000Y0101200D03*
D94*
X0034000Y0101380D03*
D95*
X0034000Y0101560D03*
D96*
X0034000Y0101740D03*
X0034000Y0101920D03*
D97*
X0034000Y0103180D03*
X0034000Y0103360D03*
X0034000Y0103540D03*
D98*
X0034090Y0103720D03*
X0034090Y0104260D03*
X0034270Y0104440D03*
D99*
X0023200Y0105520D03*
X0043000Y0112900D03*
D100*
X0037690Y0105700D03*
D101*
X0037690Y0105880D03*
D102*
X0037870Y0106060D03*
D103*
X0037870Y0106240D03*
D104*
X0037960Y0106420D03*
D105*
X0038050Y0106600D03*
D106*
X0038140Y0106780D03*
D107*
X0055261Y0124200D02*
X0055261Y0124967D01*
X0055261Y0126502D02*
X0055261Y0129571D01*
X0057563Y0127269D02*
X0056796Y0126502D01*
X0056796Y0124200D01*
X0059097Y0124200D01*
X0059865Y0124967D01*
X0059097Y0125735D01*
X0056796Y0125735D01*
X0057563Y0127269D02*
X0059097Y0127269D01*
X0061399Y0126502D02*
X0061399Y0124200D01*
X0062934Y0124200D02*
X0062934Y0126502D01*
X0062167Y0127269D01*
X0061399Y0126502D01*
X0062934Y0126502D02*
X0063701Y0127269D01*
X0064469Y0127269D01*
X0064469Y0124200D01*
X0066003Y0124967D02*
X0066003Y0126502D01*
X0066771Y0127269D01*
X0068305Y0127269D01*
X0069073Y0126502D01*
X0069073Y0124967D01*
X0068305Y0124200D01*
X0066771Y0124200D01*
X0066003Y0124967D01*
X0070607Y0124200D02*
X0072909Y0124200D01*
X0073677Y0124967D01*
X0073677Y0126502D01*
X0072909Y0127269D01*
X0070607Y0127269D01*
X0070607Y0123433D01*
X0071375Y0122665D01*
X0072142Y0122665D01*
X0075211Y0124200D02*
X0075211Y0126502D01*
X0075979Y0127269D01*
X0077513Y0127269D01*
X0077513Y0125735D02*
X0075211Y0125735D01*
X0075211Y0124200D02*
X0077513Y0124200D01*
X0078280Y0124967D01*
X0077513Y0125735D01*
X0079815Y0124967D02*
X0080582Y0125735D01*
X0082117Y0125735D01*
X0082884Y0126502D01*
X0082117Y0127269D01*
X0079815Y0127269D01*
X0079815Y0124967D02*
X0080582Y0124200D01*
X0082884Y0124200D01*
X0089023Y0124200D02*
X0091325Y0124200D01*
X0092092Y0124967D01*
X0091325Y0125735D01*
X0089023Y0125735D01*
X0089023Y0126502D02*
X0089023Y0124200D01*
X0089023Y0126502D02*
X0089790Y0127269D01*
X0091325Y0127269D01*
X0090174Y0130165D02*
X0090174Y0134769D01*
X0087872Y0134769D01*
X0087105Y0134002D01*
X0087105Y0132467D01*
X0087872Y0131700D01*
X0090174Y0131700D01*
X0091709Y0132467D02*
X0092476Y0131700D01*
X0094778Y0131700D01*
X0094778Y0130165D02*
X0094778Y0134769D01*
X0092476Y0134769D01*
X0091709Y0134002D01*
X0091709Y0132467D01*
X0094394Y0128804D02*
X0094394Y0124200D01*
X0093627Y0124200D02*
X0095162Y0124200D01*
X0096696Y0124200D02*
X0098231Y0124200D01*
X0097464Y0124200D02*
X0097464Y0128804D01*
X0098231Y0128804D01*
X0100533Y0127269D02*
X0099765Y0126502D01*
X0099765Y0124200D01*
X0102067Y0124200D01*
X0102835Y0124967D01*
X0102067Y0125735D01*
X0099765Y0125735D01*
X0100533Y0127269D02*
X0102067Y0127269D01*
X0098614Y0131700D02*
X0099382Y0132467D01*
X0099382Y0134002D01*
X0098614Y0134769D01*
X0097080Y0134769D01*
X0096313Y0134002D01*
X0096313Y0132467D01*
X0097080Y0131700D01*
X0098614Y0131700D01*
X0095162Y0128804D02*
X0094394Y0128804D01*
X0085570Y0132467D02*
X0084803Y0131700D01*
X0083268Y0131700D01*
X0082501Y0132467D01*
X0082501Y0134002D01*
X0083268Y0134769D01*
X0084803Y0134769D01*
X0085570Y0134002D01*
X0085570Y0132467D01*
X0080966Y0131700D02*
X0078664Y0131700D01*
X0077897Y0132467D01*
X0078664Y0133235D01*
X0080199Y0133235D01*
X0080966Y0134002D01*
X0080199Y0134769D01*
X0077897Y0134769D01*
X0076362Y0134769D02*
X0074828Y0134769D01*
X0075595Y0135537D02*
X0075595Y0132467D01*
X0074828Y0131700D01*
X0073293Y0132467D02*
X0072526Y0131700D01*
X0070991Y0131700D01*
X0070224Y0132467D01*
X0070224Y0134002D01*
X0070991Y0134769D01*
X0072526Y0134769D01*
X0073293Y0134002D01*
X0073293Y0132467D01*
X0068689Y0132467D02*
X0068689Y0131700D01*
X0067922Y0131700D01*
X0067922Y0132467D01*
X0068689Y0132467D01*
X0092476Y0139967D02*
X0092476Y0143037D01*
X0093243Y0143804D01*
X0095545Y0143804D01*
X0095545Y0139200D01*
X0093243Y0139200D01*
X0092476Y0139967D01*
X0097080Y0139200D02*
X0100149Y0139200D01*
X0100149Y0143804D01*
X0097080Y0143804D01*
X0098614Y0141502D02*
X0100149Y0141502D01*
X0101684Y0139200D02*
X0104753Y0139200D01*
X0104753Y0143804D01*
X0108590Y0143037D02*
X0109357Y0143804D01*
X0110892Y0143804D01*
X0111659Y0143037D01*
X0108590Y0143037D02*
X0108590Y0142269D01*
X0111659Y0139200D01*
X0108590Y0139200D01*
X0107055Y0139200D02*
X0106288Y0139200D01*
X0106288Y0139967D01*
X0107055Y0139967D01*
X0107055Y0139200D01*
X0106288Y0134769D02*
X0105520Y0134002D01*
X0105520Y0132467D01*
X0106288Y0131700D01*
X0107822Y0131700D01*
X0108590Y0132467D01*
X0108590Y0134002D01*
X0107822Y0134769D01*
X0106288Y0134769D01*
X0110124Y0134769D02*
X0111659Y0134769D01*
X0110892Y0135537D02*
X0110892Y0132467D01*
X0110124Y0131700D01*
X0113194Y0131700D02*
X0115496Y0131700D01*
X0116263Y0132467D01*
X0115496Y0133235D01*
X0113194Y0133235D01*
X0113194Y0134002D02*
X0113194Y0131700D01*
X0113194Y0134002D02*
X0113961Y0134769D01*
X0115496Y0134769D01*
X0118565Y0136304D02*
X0118565Y0131700D01*
X0119332Y0131700D02*
X0117797Y0131700D01*
X0116647Y0127269D02*
X0114345Y0127269D01*
X0113577Y0126502D01*
X0113577Y0124200D01*
X0112043Y0124967D02*
X0112043Y0126502D01*
X0111275Y0127269D01*
X0109741Y0127269D01*
X0108973Y0126502D01*
X0108973Y0125735D01*
X0112043Y0125735D01*
X0112043Y0124967D02*
X0111275Y0124200D01*
X0109741Y0124200D01*
X0116647Y0124200D02*
X0116647Y0127269D01*
X0118181Y0126502D02*
X0118181Y0124967D01*
X0118948Y0124200D01*
X0120483Y0124200D01*
X0121250Y0124967D01*
X0121250Y0126502D01*
X0120483Y0127269D01*
X0118948Y0127269D01*
X0118181Y0126502D01*
X0122785Y0124200D02*
X0124320Y0124200D01*
X0123552Y0124200D02*
X0123552Y0127269D01*
X0124320Y0127269D01*
X0125854Y0127269D02*
X0128924Y0124200D01*
X0125854Y0124200D01*
X0125854Y0127269D02*
X0128924Y0127269D01*
X0130458Y0126502D02*
X0130458Y0124200D01*
X0130458Y0126502D02*
X0131226Y0127269D01*
X0133528Y0127269D01*
X0133528Y0124200D01*
X0135062Y0125735D02*
X0135062Y0126502D01*
X0135830Y0127269D01*
X0137364Y0127269D01*
X0138132Y0126502D01*
X0138132Y0124967D01*
X0137364Y0124200D01*
X0135830Y0124200D01*
X0135062Y0125735D02*
X0138132Y0125735D01*
X0139666Y0127269D02*
X0141201Y0127269D01*
X0140433Y0128037D02*
X0140433Y0124967D01*
X0139666Y0124200D01*
X0142735Y0124200D02*
X0143503Y0124967D01*
X0143503Y0128037D01*
X0144270Y0127269D02*
X0142735Y0127269D01*
X0145805Y0127269D02*
X0145805Y0124200D01*
X0145805Y0126502D02*
X0148874Y0126502D01*
X0148874Y0127269D02*
X0147339Y0128804D01*
X0145805Y0127269D01*
X0148874Y0127269D02*
X0148874Y0124200D01*
X0154716Y0113804D02*
X0156250Y0113804D01*
X0155483Y0113804D02*
X0155483Y0109200D01*
X0156250Y0109200D02*
X0154716Y0109200D01*
X0153181Y0109200D02*
X0153181Y0112269D01*
X0150879Y0112269D01*
X0150112Y0111502D01*
X0150112Y0109200D01*
X0147810Y0109967D02*
X0147043Y0109200D01*
X0147810Y0109967D02*
X0147810Y0113037D01*
X0148577Y0112269D02*
X0147043Y0112269D01*
X0145508Y0111502D02*
X0144741Y0112269D01*
X0143206Y0112269D01*
X0142439Y0111502D01*
X0142439Y0110735D01*
X0145508Y0110735D01*
X0145508Y0111502D02*
X0145508Y0109967D01*
X0144741Y0109200D01*
X0143206Y0109200D01*
X0140904Y0109200D02*
X0140904Y0112269D01*
X0140904Y0110735D02*
X0139369Y0112269D01*
X0138602Y0112269D01*
X0137067Y0112269D02*
X0137067Y0109200D01*
X0137067Y0110735D02*
X0135533Y0112269D01*
X0134765Y0112269D01*
X0133231Y0112269D02*
X0133231Y0109967D01*
X0132463Y0109200D01*
X0130162Y0109200D01*
X0130162Y0112269D01*
X0128627Y0112269D02*
X0127092Y0112269D01*
X0127860Y0113037D02*
X0127860Y0109967D01*
X0127092Y0109200D01*
X0124790Y0109967D02*
X0124023Y0109200D01*
X0124790Y0109967D02*
X0124790Y0113037D01*
X0124023Y0112269D02*
X0125558Y0112269D01*
X0122488Y0111502D02*
X0122488Y0109967D01*
X0121721Y0109200D01*
X0120186Y0109200D01*
X0119419Y0109967D01*
X0119419Y0111502D01*
X0120186Y0112269D01*
X0121721Y0112269D01*
X0122488Y0111502D01*
X0117884Y0112269D02*
X0117884Y0109200D01*
X0117884Y0110735D02*
X0116350Y0112269D01*
X0115582Y0112269D01*
X0114048Y0111502D02*
X0113280Y0112269D01*
X0111746Y0112269D01*
X0110979Y0111502D01*
X0110979Y0110735D01*
X0114048Y0110735D01*
X0114048Y0111502D02*
X0114048Y0109967D01*
X0113280Y0109200D01*
X0111746Y0109200D01*
X0121721Y0104002D02*
X0121721Y0102467D01*
X0122488Y0101700D01*
X0124023Y0101700D01*
X0124790Y0102467D01*
X0124790Y0104002D01*
X0124023Y0104769D01*
X0122488Y0104769D01*
X0121721Y0104002D01*
X0126325Y0104769D02*
X0127860Y0104769D01*
X0127092Y0105537D02*
X0127092Y0102467D01*
X0126325Y0101700D01*
X0129394Y0101700D02*
X0129394Y0104002D01*
X0130161Y0104769D01*
X0131696Y0104769D01*
X0131696Y0103235D02*
X0129394Y0103235D01*
X0129394Y0101700D02*
X0131696Y0101700D01*
X0132463Y0102467D01*
X0131696Y0103235D01*
X0133998Y0101700D02*
X0135533Y0101700D01*
X0134765Y0101700D02*
X0134765Y0106304D01*
X0135533Y0106304D01*
X0141671Y0101700D02*
X0143206Y0101700D01*
X0142439Y0101700D02*
X0142439Y0106304D01*
X0143206Y0106304D01*
X0145508Y0104769D02*
X0144741Y0104002D01*
X0144741Y0101700D01*
X0147043Y0101700D01*
X0147810Y0102467D01*
X0147043Y0103235D01*
X0144741Y0103235D01*
X0145508Y0104769D02*
X0147043Y0104769D01*
X0149344Y0105537D02*
X0149344Y0102467D01*
X0150112Y0101700D01*
X0152414Y0101700D01*
X0152414Y0106304D01*
X0150112Y0106304D01*
X0149344Y0105537D01*
X0148194Y0097269D02*
X0145892Y0097269D01*
X0145124Y0096502D01*
X0145124Y0094967D01*
X0145892Y0094200D01*
X0148194Y0094200D01*
X0148194Y0092665D02*
X0148194Y0097269D01*
X0149728Y0096502D02*
X0150495Y0097269D01*
X0152030Y0097269D01*
X0152797Y0096502D01*
X0152797Y0094967D01*
X0152030Y0094200D01*
X0150495Y0094200D01*
X0149728Y0094967D01*
X0149728Y0096502D01*
X0143590Y0097269D02*
X0143590Y0092665D01*
X0143590Y0094200D02*
X0141288Y0094200D01*
X0140520Y0094967D01*
X0140520Y0096502D01*
X0141288Y0097269D01*
X0143590Y0097269D01*
X0138986Y0096502D02*
X0138986Y0094967D01*
X0138218Y0094200D01*
X0136684Y0094200D01*
X0135916Y0094967D01*
X0135916Y0096502D01*
X0136684Y0097269D01*
X0138218Y0097269D01*
X0138986Y0096502D01*
X0134382Y0096502D02*
X0133614Y0097269D01*
X0131312Y0097269D01*
X0129778Y0097269D02*
X0128243Y0097269D01*
X0129010Y0098037D02*
X0129010Y0094967D01*
X0128243Y0094200D01*
X0126709Y0094967D02*
X0126709Y0096502D01*
X0125941Y0097269D01*
X0124407Y0097269D01*
X0123639Y0096502D01*
X0123639Y0094967D01*
X0124407Y0094200D01*
X0125941Y0094200D01*
X0126709Y0094967D01*
X0131312Y0094967D02*
X0132080Y0095735D01*
X0133614Y0095735D01*
X0134382Y0096502D01*
X0134382Y0094200D02*
X0132080Y0094200D01*
X0131312Y0094967D01*
X0122105Y0094967D02*
X0121337Y0094967D01*
X0121337Y0094200D01*
X0122105Y0094200D01*
X0122105Y0094967D01*
X0123552Y0128804D02*
X0123552Y0129571D01*
X0125471Y0131700D02*
X0127005Y0131700D01*
X0126238Y0131700D02*
X0126238Y0136304D01*
X0127005Y0136304D01*
X0128540Y0134002D02*
X0128540Y0131700D01*
X0130842Y0131700D01*
X0131609Y0132467D01*
X0130842Y0133235D01*
X0128540Y0133235D01*
X0128540Y0134002D02*
X0129307Y0134769D01*
X0130842Y0134769D01*
X0133144Y0135537D02*
X0133144Y0132467D01*
X0133911Y0131700D01*
X0136213Y0131700D01*
X0136213Y0136304D01*
X0133911Y0136304D01*
X0133144Y0135537D01*
X0119332Y0136304D02*
X0118565Y0136304D01*
X0104753Y0160165D02*
X0104753Y0164769D01*
X0102451Y0164769D01*
X0101684Y0164002D01*
X0101684Y0162467D01*
X0102451Y0161700D01*
X0104753Y0161700D01*
X0106288Y0162467D02*
X0107055Y0161700D01*
X0108590Y0161700D01*
X0109357Y0162467D01*
X0110892Y0162467D02*
X0110892Y0161700D01*
X0111659Y0161700D01*
X0111659Y0162467D01*
X0110892Y0162467D01*
X0113194Y0161700D02*
X0116263Y0161700D01*
X0114728Y0161700D02*
X0114728Y0166304D01*
X0116263Y0164769D01*
X0109357Y0164769D02*
X0108590Y0164002D01*
X0107055Y0164002D01*
X0106288Y0163235D01*
X0106288Y0162467D01*
X0106288Y0165537D02*
X0107055Y0166304D01*
X0108590Y0166304D01*
X0109357Y0165537D01*
X0109357Y0164769D01*
X0100149Y0164769D02*
X0099382Y0164769D01*
X0099382Y0161700D01*
X0100149Y0161700D02*
X0098614Y0161700D01*
X0097080Y0161700D02*
X0095545Y0161700D01*
X0096312Y0161700D02*
X0096312Y0166304D01*
X0097080Y0166304D01*
X0099382Y0166304D02*
X0099382Y0167071D01*
X0094010Y0166304D02*
X0093243Y0166304D01*
X0093243Y0161700D01*
X0094010Y0161700D02*
X0092476Y0161700D01*
X0090941Y0162467D02*
X0090174Y0163235D01*
X0087872Y0163235D01*
X0087872Y0164002D02*
X0087872Y0161700D01*
X0090174Y0161700D01*
X0090941Y0162467D01*
X0090174Y0164769D02*
X0088639Y0164769D01*
X0087872Y0164002D01*
X0157785Y0109967D02*
X0157785Y0109200D01*
X0158552Y0109200D01*
X0158552Y0109967D01*
X0157785Y0109967D01*
X0160087Y0109967D02*
X0160854Y0109200D01*
X0162389Y0109200D01*
X0163156Y0109967D01*
X0161622Y0111502D02*
X0160854Y0111502D01*
X0160087Y0110735D01*
X0160087Y0109967D01*
X0160854Y0111502D02*
X0160087Y0112269D01*
X0160087Y0113037D01*
X0160854Y0113804D01*
X0162389Y0113804D01*
X0163156Y0113037D01*
X0128342Y0060054D02*
X0130644Y0057752D01*
X0127575Y0057752D01*
X0126040Y0056217D02*
X0125273Y0056217D01*
X0125273Y0055450D01*
X0126040Y0055450D01*
X0126040Y0056217D01*
X0128342Y0055450D02*
X0128342Y0060054D01*
X0123738Y0060054D02*
X0123738Y0055450D01*
X0123738Y0056985D02*
X0121436Y0056985D01*
X0120669Y0057752D01*
X0120669Y0059287D01*
X0121436Y0060054D01*
X0123738Y0060054D01*
X0119134Y0057752D02*
X0119134Y0056217D01*
X0118367Y0055450D01*
X0116832Y0055450D01*
X0116065Y0056217D01*
X0116065Y0057752D01*
X0116832Y0058519D01*
X0118367Y0058519D01*
X0119134Y0057752D01*
X0114530Y0058519D02*
X0114530Y0055450D01*
X0114530Y0056985D02*
X0112996Y0058519D01*
X0112228Y0058519D01*
X0110694Y0058519D02*
X0109159Y0058519D01*
X0109926Y0059287D02*
X0109926Y0056217D01*
X0109159Y0055450D01*
X0107624Y0056217D02*
X0106857Y0056985D01*
X0104555Y0056985D01*
X0104555Y0057752D02*
X0104555Y0055450D01*
X0106857Y0055450D01*
X0107624Y0056217D01*
X0106857Y0058519D02*
X0105322Y0058519D01*
X0104555Y0057752D01*
X0103020Y0057752D02*
X0099951Y0057752D01*
X0098416Y0058519D02*
X0096114Y0058519D01*
X0095347Y0057752D01*
X0095347Y0056217D01*
X0096114Y0055450D01*
X0098416Y0055450D01*
X0098416Y0060054D01*
X0093812Y0056217D02*
X0093045Y0056985D01*
X0090743Y0056985D01*
X0090743Y0057752D02*
X0090743Y0055450D01*
X0093045Y0055450D01*
X0093812Y0056217D01*
X0093045Y0058519D02*
X0091511Y0058519D01*
X0090743Y0057752D01*
X0089209Y0058519D02*
X0087674Y0058519D01*
X0088441Y0059287D02*
X0088441Y0056217D01*
X0087674Y0055450D01*
X0085372Y0056217D02*
X0084605Y0055450D01*
X0085372Y0056217D02*
X0085372Y0059287D01*
X0086139Y0058519D02*
X0084605Y0058519D01*
X0083070Y0057752D02*
X0083070Y0056217D01*
X0082303Y0055450D01*
X0080768Y0055450D01*
X0080001Y0056985D02*
X0083070Y0056985D01*
X0083070Y0057752D02*
X0082303Y0058519D01*
X0080768Y0058519D01*
X0080001Y0057752D01*
X0080001Y0056985D01*
X0078466Y0056985D02*
X0076931Y0058519D01*
X0076164Y0058519D01*
X0074629Y0058519D02*
X0073862Y0058519D01*
X0073862Y0055450D01*
X0074629Y0055450D02*
X0073095Y0055450D01*
X0071560Y0056217D02*
X0070793Y0056985D01*
X0068491Y0056985D01*
X0068491Y0057752D02*
X0068491Y0055450D01*
X0070793Y0055450D01*
X0071560Y0056217D01*
X0070793Y0058519D02*
X0069258Y0058519D01*
X0068491Y0057752D01*
X0073862Y0060054D02*
X0073862Y0060821D01*
X0078466Y0058519D02*
X0078466Y0055450D01*
X0076931Y0051787D02*
X0076931Y0048717D01*
X0076164Y0047950D01*
X0074629Y0048717D02*
X0074629Y0050252D01*
X0073862Y0051019D01*
X0072328Y0051019D01*
X0071560Y0050252D01*
X0071560Y0048717D01*
X0072328Y0047950D01*
X0073862Y0047950D01*
X0074629Y0048717D01*
X0075013Y0045054D02*
X0075013Y0040450D01*
X0075780Y0040450D02*
X0074246Y0040450D01*
X0072711Y0041217D02*
X0071944Y0041985D01*
X0069642Y0041985D01*
X0069642Y0042752D02*
X0069642Y0040450D01*
X0071944Y0040450D01*
X0072711Y0041217D01*
X0071944Y0043519D02*
X0070409Y0043519D01*
X0069642Y0042752D01*
X0069258Y0047950D02*
X0070026Y0047950D01*
X0070026Y0048717D01*
X0069258Y0048717D01*
X0069258Y0047950D01*
X0075013Y0045054D02*
X0075780Y0045054D01*
X0078082Y0045054D02*
X0078082Y0040450D01*
X0077315Y0040450D02*
X0078850Y0040450D01*
X0080384Y0040450D02*
X0082686Y0040450D01*
X0083454Y0041217D01*
X0082686Y0041985D01*
X0080384Y0041985D01*
X0080384Y0042752D02*
X0080384Y0040450D01*
X0080384Y0042752D02*
X0081152Y0043519D01*
X0082686Y0043519D01*
X0078850Y0045054D02*
X0078082Y0045054D01*
X0079233Y0047950D02*
X0081535Y0047950D01*
X0082303Y0048717D01*
X0081535Y0049485D01*
X0079233Y0049485D01*
X0079233Y0050252D02*
X0079233Y0047950D01*
X0079233Y0050252D02*
X0080001Y0051019D01*
X0081535Y0051019D01*
X0084605Y0052554D02*
X0084605Y0047950D01*
X0085372Y0047950D02*
X0083837Y0047950D01*
X0084605Y0052554D02*
X0085372Y0052554D01*
X0091511Y0050252D02*
X0091511Y0048717D01*
X0092278Y0047950D01*
X0093812Y0047950D01*
X0094580Y0048717D01*
X0094580Y0050252D01*
X0093812Y0051019D01*
X0092278Y0051019D01*
X0091511Y0050252D01*
X0096114Y0051019D02*
X0097649Y0051019D01*
X0096882Y0051787D02*
X0096882Y0048717D01*
X0096114Y0047950D01*
X0099184Y0048717D02*
X0099951Y0049485D01*
X0101486Y0049485D01*
X0102253Y0050252D01*
X0101486Y0051019D01*
X0099184Y0051019D01*
X0099184Y0048717D02*
X0099951Y0047950D01*
X0102253Y0047950D01*
X0103788Y0049485D02*
X0106857Y0049485D01*
X0106857Y0050252D02*
X0106090Y0051019D01*
X0104555Y0051019D01*
X0103788Y0050252D01*
X0103788Y0049485D01*
X0104555Y0047950D02*
X0106090Y0047950D01*
X0106857Y0048717D01*
X0106857Y0050252D01*
X0108392Y0051019D02*
X0108392Y0047950D01*
X0110694Y0047950D01*
X0111461Y0048717D01*
X0111461Y0051019D01*
X0112995Y0051019D02*
X0115297Y0051019D01*
X0116065Y0050252D01*
X0116065Y0048717D01*
X0115297Y0047950D01*
X0112995Y0047950D01*
X0112995Y0046415D02*
X0112995Y0051019D01*
X0111845Y0043519D02*
X0111077Y0042752D01*
X0111077Y0040450D01*
X0109543Y0040450D02*
X0106473Y0040450D01*
X0104939Y0040450D02*
X0103404Y0040450D01*
X0104171Y0040450D02*
X0104171Y0043519D01*
X0104939Y0043519D01*
X0106473Y0043519D02*
X0109543Y0040450D01*
X0109543Y0043519D02*
X0106473Y0043519D01*
X0104171Y0045054D02*
X0104171Y0045821D01*
X0101102Y0043519D02*
X0101869Y0042752D01*
X0101869Y0041217D01*
X0101102Y0040450D01*
X0099567Y0040450D01*
X0098800Y0041217D01*
X0098800Y0042752D01*
X0099567Y0043519D01*
X0101102Y0043519D01*
X0097265Y0043519D02*
X0097265Y0040450D01*
X0094196Y0040450D02*
X0094196Y0042752D01*
X0094963Y0043519D01*
X0097265Y0043519D01*
X0092662Y0042752D02*
X0092662Y0041217D01*
X0091894Y0040450D01*
X0090360Y0040450D01*
X0089592Y0041985D02*
X0092662Y0041985D01*
X0092662Y0042752D02*
X0091894Y0043519D01*
X0090360Y0043519D01*
X0089592Y0042752D01*
X0089592Y0041985D01*
X0085756Y0038321D02*
X0085756Y0035252D01*
X0087290Y0035252D02*
X0087290Y0032950D01*
X0089592Y0032950D01*
X0090359Y0033717D01*
X0089592Y0034485D01*
X0087290Y0034485D01*
X0087290Y0035252D02*
X0088058Y0036019D01*
X0089592Y0036019D01*
X0091894Y0035252D02*
X0091894Y0032950D01*
X0093429Y0032950D02*
X0093429Y0035252D01*
X0092661Y0036019D01*
X0091894Y0035252D01*
X0093429Y0035252D02*
X0094196Y0036019D01*
X0094963Y0036019D01*
X0094963Y0032950D01*
X0096498Y0033717D02*
X0096498Y0035252D01*
X0097265Y0036019D01*
X0098800Y0036019D01*
X0099567Y0035252D01*
X0099567Y0033717D01*
X0098800Y0032950D01*
X0097265Y0032950D01*
X0096498Y0033717D01*
X0101102Y0032950D02*
X0103404Y0032950D01*
X0104171Y0033717D01*
X0104171Y0035252D01*
X0103404Y0036019D01*
X0101102Y0036019D01*
X0101102Y0032183D01*
X0101869Y0031415D01*
X0102637Y0031415D01*
X0105706Y0032950D02*
X0105706Y0035252D01*
X0106473Y0036019D01*
X0108008Y0036019D01*
X0108008Y0034485D02*
X0105706Y0034485D01*
X0105706Y0032950D02*
X0108008Y0032950D01*
X0108775Y0033717D01*
X0108008Y0034485D01*
X0110310Y0033717D02*
X0111077Y0034485D01*
X0112612Y0034485D01*
X0113379Y0035252D01*
X0112612Y0036019D01*
X0110310Y0036019D01*
X0110310Y0033717D02*
X0111077Y0032950D01*
X0113379Y0032950D01*
X0114146Y0040450D02*
X0114146Y0043519D01*
X0111845Y0043519D01*
X0115681Y0042752D02*
X0115681Y0041985D01*
X0118750Y0041985D01*
X0118750Y0042752D02*
X0118750Y0041217D01*
X0117983Y0040450D01*
X0116448Y0040450D01*
X0115681Y0042752D02*
X0116448Y0043519D01*
X0117983Y0043519D01*
X0118750Y0042752D01*
X0120285Y0043519D02*
X0121820Y0043519D01*
X0121052Y0044287D02*
X0121052Y0041217D01*
X0120285Y0040450D01*
X0123354Y0040450D02*
X0124122Y0041217D01*
X0124122Y0044287D01*
X0124889Y0043519D02*
X0123354Y0043519D01*
X0126424Y0043519D02*
X0126424Y0040450D01*
X0129493Y0040450D02*
X0129493Y0043519D01*
X0127958Y0045054D01*
X0126424Y0043519D01*
X0126424Y0042752D02*
X0129493Y0042752D01*
X0129877Y0047950D02*
X0127575Y0047950D01*
X0126807Y0048717D01*
X0126807Y0051787D01*
X0127575Y0052554D01*
X0129877Y0052554D01*
X0129877Y0047950D01*
X0125273Y0048717D02*
X0124505Y0049485D01*
X0122203Y0049485D01*
X0122203Y0050252D02*
X0122203Y0047950D01*
X0124505Y0047950D01*
X0125273Y0048717D01*
X0122971Y0051019D02*
X0122203Y0050252D01*
X0122971Y0051019D02*
X0124505Y0051019D01*
X0085756Y0033717D02*
X0085756Y0032950D01*
X0077699Y0051019D02*
X0076164Y0051019D01*
D108*
X0111500Y0099000D02*
X0109000Y0101500D01*
X0111500Y0104000D01*
X0109000Y0101500D02*
X0119000Y0101500D01*
X0119000Y0141500D02*
X0114000Y0141500D01*
X0119000Y0141500D02*
X0126500Y0149000D01*
X0134000Y0149000D01*
X0131500Y0146500D01*
X0134000Y0149000D02*
X0131500Y0151500D01*
X0104000Y0171500D02*
X0101500Y0174000D01*
X0099000Y0171500D01*
X0101500Y0174000D02*
X0101500Y0169000D01*
X0076500Y0149000D02*
X0069000Y0149000D01*
X0071500Y0151500D01*
X0069000Y0149000D02*
X0071500Y0146500D01*
X0076500Y0149000D02*
X0084000Y0141500D01*
X0089000Y0141500D01*
D109*
X0165398Y0076943D03*
X0177386Y0073774D03*
X0177386Y0080250D03*
X0189650Y0076943D03*
X0177937Y0110978D03*
X0177937Y0123793D03*
X0177937Y0137435D03*
X0177937Y0146943D03*
D110*
X0174630Y0148872D03*
X0177661Y0142533D03*
X0174768Y0137159D03*
X0174630Y0137159D03*
X0177524Y0135368D03*
X0177661Y0135368D03*
X0177524Y0121589D03*
X0177524Y0119797D03*
X0176283Y0117317D03*
X0177937Y0116766D03*
X0174630Y0113045D03*
X0174492Y0110841D03*
X0174354Y0110841D03*
X0177524Y0108911D03*
X0177661Y0108911D03*
X0178764Y0103951D03*
X0178488Y0103813D03*
X0178350Y0103813D03*
X0178213Y0103675D03*
X0178075Y0103675D03*
X0177937Y0103675D03*
X0177110Y0103675D03*
X0176972Y0103675D03*
X0176835Y0103675D03*
X0176697Y0103675D03*
X0176421Y0103813D03*
X0176283Y0103813D03*
X0176008Y0103951D03*
X0175319Y0096510D03*
X0176421Y0080112D03*
X0176559Y0080112D03*
X0176559Y0073911D03*
X0165535Y0076943D03*
X0189512Y0076943D03*
D111*
X0189374Y0076943D03*
X0175870Y0074049D03*
X0175732Y0074049D03*
X0175732Y0079974D03*
X0175594Y0079974D03*
X0165673Y0076943D03*
X0179453Y0096648D03*
X0177661Y0113596D03*
X0174492Y0113596D03*
X0176008Y0116904D03*
X0177799Y0116766D03*
X0177799Y0139640D03*
X0177661Y0149423D03*
D112*
X0176008Y0152593D03*
X0177661Y0131234D03*
X0176008Y0126549D03*
X0177799Y0120762D03*
X0180417Y0106293D03*
X0174354Y0106293D03*
X0175732Y0096785D03*
X0175043Y0083144D03*
X0174906Y0083144D03*
X0174768Y0083144D03*
X0174630Y0083144D03*
X0174492Y0083144D03*
X0174768Y0079837D03*
X0174906Y0079837D03*
X0174906Y0074187D03*
X0174768Y0074187D03*
X0165811Y0076943D03*
X0189236Y0076943D03*
D113*
X0189098Y0076943D03*
X0177799Y0082868D03*
X0177661Y0082868D03*
X0177524Y0082868D03*
X0177386Y0082868D03*
X0177248Y0082868D03*
X0174079Y0079699D03*
X0173941Y0079699D03*
X0176421Y0077081D03*
X0174079Y0074325D03*
X0173941Y0074325D03*
X0165949Y0076943D03*
X0174630Y0106018D03*
X0180142Y0106018D03*
D114*
X0178764Y0097199D03*
X0178764Y0082593D03*
X0176972Y0077081D03*
X0173252Y0079561D03*
X0173114Y0079561D03*
X0173114Y0074463D03*
X0173252Y0074463D03*
X0166087Y0076943D03*
X0188961Y0076943D03*
D115*
X0188823Y0076943D03*
X0176421Y0097337D03*
X0166224Y0076943D03*
D116*
X0166362Y0076943D03*
X0188685Y0076943D03*
X0176697Y0097612D03*
D117*
X0166500Y0076943D03*
X0172839Y0064128D03*
X0172976Y0063852D03*
X0173114Y0063577D03*
X0188547Y0076943D03*
D118*
X0188409Y0076943D03*
X0182484Y0065093D03*
X0181244Y0062612D03*
X0166638Y0076943D03*
X0177799Y0098026D03*
D119*
X0177524Y0098301D03*
X0188272Y0076943D03*
X0174630Y0068951D03*
X0174354Y0061648D03*
X0180693Y0061785D03*
X0166776Y0076943D03*
D120*
X0166913Y0076943D03*
X0175181Y0068813D03*
X0174768Y0061096D03*
X0180280Y0061234D03*
X0188134Y0076943D03*
X0172701Y0088518D03*
D121*
X0172976Y0088793D03*
X0167051Y0076943D03*
X0175732Y0068675D03*
X0175870Y0068675D03*
X0176008Y0068675D03*
X0175181Y0060545D03*
X0179866Y0060683D03*
X0187996Y0076943D03*
D122*
X0187858Y0076943D03*
X0177661Y0068675D03*
X0177524Y0068675D03*
X0177386Y0068675D03*
X0177248Y0068675D03*
X0177110Y0068675D03*
X0175457Y0060270D03*
X0167189Y0076943D03*
X0173252Y0089069D03*
D123*
X0173528Y0089344D03*
X0167327Y0076943D03*
X0175870Y0059719D03*
X0179039Y0059719D03*
X0179177Y0059856D03*
X0187720Y0076943D03*
D124*
X0187583Y0076943D03*
X0173803Y0089620D03*
X0167465Y0076943D03*
X0176146Y0059443D03*
X0178764Y0059443D03*
D125*
X0187445Y0076943D03*
X0178488Y0089896D03*
X0178350Y0089896D03*
X0178213Y0089896D03*
X0178075Y0089896D03*
X0177937Y0089896D03*
X0177799Y0089896D03*
X0177661Y0089896D03*
X0177248Y0089896D03*
X0177110Y0089896D03*
X0176972Y0089896D03*
X0176835Y0089896D03*
X0176697Y0089896D03*
X0176559Y0089896D03*
X0176421Y0089896D03*
X0176283Y0089896D03*
X0174079Y0089896D03*
X0167602Y0076943D03*
D126*
X0167740Y0076943D03*
X0174354Y0090171D03*
X0174906Y0090171D03*
X0179866Y0090171D03*
X0187307Y0076943D03*
D127*
X0187169Y0076943D03*
X0167878Y0076943D03*
D128*
X0168016Y0076874D03*
X0177386Y0058134D03*
X0177524Y0058134D03*
D129*
X0168154Y0076874D03*
D130*
X0168291Y0076874D03*
D131*
X0168429Y0076874D03*
D132*
X0168567Y0076874D03*
D133*
X0168705Y0076874D03*
D134*
X0168843Y0076874D03*
D135*
X0168980Y0076874D03*
D136*
X0169118Y0076874D03*
D137*
X0169256Y0076874D03*
D138*
X0169394Y0076874D03*
D139*
X0169531Y0076874D03*
X0180969Y0075634D03*
D140*
X0180693Y0075358D03*
X0169669Y0076874D03*
D141*
X0169807Y0076874D03*
X0180280Y0075083D03*
D142*
X0179591Y0074807D03*
X0169945Y0076874D03*
D143*
X0170083Y0076874D03*
D144*
X0170220Y0076874D03*
D145*
X0170358Y0076874D03*
D146*
X0170496Y0076874D03*
D147*
X0170634Y0076874D03*
D148*
X0170772Y0076874D03*
D149*
X0170909Y0076874D03*
D150*
X0171047Y0076874D03*
D151*
X0171185Y0076874D03*
D152*
X0171323Y0076874D03*
D153*
X0171461Y0076874D03*
D154*
X0171598Y0076874D03*
D155*
X0171736Y0076874D03*
D156*
X0171874Y0076874D03*
D157*
X0172012Y0076874D03*
D158*
X0172150Y0076874D03*
D159*
X0172287Y0076874D03*
D160*
X0172425Y0076874D03*
D161*
X0178764Y0077012D03*
X0172563Y0064886D03*
X0173665Y0062681D03*
X0173803Y0062406D03*
X0181382Y0062819D03*
X0177110Y0097957D03*
D162*
X0179728Y0104984D03*
X0180555Y0106500D03*
X0174217Y0106500D03*
X0177799Y0126205D03*
X0174492Y0149354D03*
X0177799Y0152248D03*
X0172976Y0083350D03*
X0172839Y0083350D03*
X0172701Y0083350D03*
X0172563Y0083350D03*
X0175319Y0079906D03*
X0175457Y0079906D03*
X0175457Y0077012D03*
X0175319Y0077012D03*
X0175457Y0074118D03*
X0175594Y0074118D03*
X0172839Y0070673D03*
X0172701Y0070673D03*
X0172563Y0070673D03*
D163*
X0172563Y0074669D03*
X0177661Y0077012D03*
X0177799Y0077012D03*
X0172563Y0079354D03*
X0181657Y0091067D03*
X0178488Y0097406D03*
D164*
X0172563Y0088380D03*
X0174906Y0068813D03*
D165*
X0174079Y0069295D03*
X0172701Y0064472D03*
X0173252Y0063370D03*
X0173390Y0063094D03*
X0181795Y0063508D03*
X0181933Y0063783D03*
X0182071Y0064059D03*
X0182209Y0064335D03*
X0178626Y0077012D03*
X0176972Y0097819D03*
X0177937Y0097957D03*
D166*
X0181795Y0090929D03*
X0172701Y0079492D03*
X0177386Y0077012D03*
X0177524Y0077012D03*
X0172701Y0074531D03*
D167*
X0172839Y0074463D03*
X0172976Y0074463D03*
X0172976Y0079561D03*
X0172839Y0079561D03*
X0176283Y0097199D03*
X0178626Y0097337D03*
D168*
X0172839Y0088656D03*
X0175594Y0068675D03*
D169*
X0173528Y0070742D03*
X0173390Y0070742D03*
X0173252Y0070742D03*
X0173114Y0070742D03*
X0172976Y0070742D03*
X0175319Y0074187D03*
X0173665Y0083281D03*
X0173528Y0083281D03*
X0173390Y0083281D03*
X0173252Y0083281D03*
X0173114Y0083281D03*
X0175594Y0096648D03*
X0179315Y0096785D03*
X0174906Y0105191D03*
X0177661Y0116766D03*
X0177799Y0131096D03*
D170*
X0173114Y0088931D03*
X0176421Y0068675D03*
X0175319Y0060407D03*
X0179728Y0060545D03*
D171*
X0173528Y0074394D03*
X0173390Y0074394D03*
X0176835Y0077012D03*
X0173528Y0079630D03*
X0173390Y0079630D03*
X0178626Y0082661D03*
X0182071Y0090654D03*
X0176146Y0097130D03*
D172*
X0173390Y0089207D03*
X0178626Y0068951D03*
X0178350Y0068813D03*
X0179315Y0059994D03*
D173*
X0181520Y0063026D03*
X0181657Y0063301D03*
X0182346Y0064679D03*
X0173528Y0062888D03*
X0174217Y0069226D03*
D174*
X0173665Y0070811D03*
X0175043Y0074118D03*
X0175181Y0074118D03*
X0175594Y0077012D03*
X0175732Y0077012D03*
X0175181Y0079906D03*
X0175043Y0079906D03*
X0174354Y0083213D03*
X0174217Y0083213D03*
X0174079Y0083213D03*
X0173941Y0083213D03*
X0173803Y0083213D03*
X0179866Y0105260D03*
X0174354Y0120693D03*
X0176008Y0121657D03*
X0176146Y0121657D03*
X0177661Y0126205D03*
X0176283Y0126618D03*
X0176146Y0126618D03*
X0177661Y0139709D03*
X0176283Y0139984D03*
X0176146Y0139984D03*
X0176008Y0139984D03*
X0177661Y0152248D03*
X0176283Y0152661D03*
X0176146Y0152661D03*
D175*
X0174768Y0105880D03*
X0180004Y0105880D03*
X0178902Y0097061D03*
X0178488Y0082730D03*
X0173803Y0079699D03*
X0173665Y0079699D03*
X0176697Y0077081D03*
X0173665Y0074325D03*
D176*
X0176008Y0059581D03*
X0178902Y0059581D03*
X0173665Y0089482D03*
D177*
X0181520Y0091205D03*
X0178350Y0097543D03*
X0177799Y0105260D03*
X0177661Y0105260D03*
X0177524Y0105260D03*
X0177386Y0105260D03*
X0177248Y0105260D03*
X0177937Y0077012D03*
X0178075Y0077012D03*
X0173803Y0069709D03*
D178*
X0173803Y0074394D03*
X0176559Y0077012D03*
X0177937Y0082799D03*
X0178075Y0082799D03*
X0178213Y0082799D03*
X0178350Y0082799D03*
X0182209Y0090516D03*
X0176008Y0096992D03*
D179*
X0177248Y0098094D03*
X0174354Y0069157D03*
X0173941Y0062268D03*
X0181106Y0062406D03*
D180*
X0173941Y0069502D03*
X0176835Y0097750D03*
D181*
X0175043Y0096303D03*
X0179866Y0096441D03*
X0177110Y0107189D03*
X0177110Y0121933D03*
X0177524Y0080181D03*
X0174079Y0077012D03*
X0173941Y0077012D03*
X0177524Y0073843D03*
D182*
X0178626Y0059305D03*
X0176283Y0059305D03*
X0173941Y0089758D03*
D183*
X0177661Y0098163D03*
X0174492Y0069089D03*
X0174079Y0062061D03*
X0180969Y0062199D03*
D184*
X0180831Y0061992D03*
X0174217Y0061854D03*
X0177386Y0098232D03*
D185*
X0175870Y0096854D03*
X0179039Y0096992D03*
X0182346Y0090378D03*
X0177110Y0082937D03*
X0176972Y0082937D03*
X0176835Y0082937D03*
X0176697Y0082937D03*
X0176559Y0082937D03*
X0174354Y0079768D03*
X0174217Y0079768D03*
X0176146Y0077012D03*
X0176283Y0077012D03*
X0174354Y0074256D03*
X0174217Y0074256D03*
X0174492Y0106087D03*
X0174492Y0120693D03*
X0177661Y0120693D03*
D186*
X0177248Y0121933D03*
X0175870Y0122346D03*
X0175732Y0122346D03*
X0175594Y0122346D03*
X0175457Y0122346D03*
X0175181Y0122209D03*
X0175181Y0123724D03*
X0175043Y0123724D03*
X0174906Y0123724D03*
X0174768Y0123724D03*
X0174630Y0123724D03*
X0174492Y0123724D03*
X0174354Y0123724D03*
X0174217Y0123724D03*
X0175319Y0123724D03*
X0175457Y0123724D03*
X0175594Y0123724D03*
X0175732Y0123724D03*
X0175870Y0123724D03*
X0176008Y0123724D03*
X0176146Y0123724D03*
X0176283Y0123724D03*
X0176421Y0123724D03*
X0176559Y0123724D03*
X0176697Y0123724D03*
X0176835Y0123724D03*
X0176972Y0123724D03*
X0177110Y0123724D03*
X0177248Y0123724D03*
X0177386Y0123724D03*
X0177524Y0123724D03*
X0177661Y0123724D03*
X0177799Y0123724D03*
X0177110Y0125240D03*
X0176972Y0125240D03*
X0176697Y0125102D03*
X0176559Y0125102D03*
X0176421Y0125102D03*
X0176283Y0125102D03*
X0176146Y0125102D03*
X0176008Y0125102D03*
X0175870Y0125102D03*
X0175732Y0125102D03*
X0175594Y0125102D03*
X0175457Y0125102D03*
X0175319Y0125102D03*
X0175181Y0125102D03*
X0175043Y0125102D03*
X0174906Y0125102D03*
X0174768Y0125102D03*
X0174630Y0125102D03*
X0174492Y0125102D03*
X0174354Y0125102D03*
X0174217Y0125102D03*
X0174217Y0127307D03*
X0174354Y0127307D03*
X0174492Y0127307D03*
X0174630Y0127307D03*
X0174768Y0127307D03*
X0174906Y0127307D03*
X0175043Y0127307D03*
X0175181Y0127307D03*
X0175319Y0127307D03*
X0175457Y0127307D03*
X0175594Y0127307D03*
X0175732Y0127307D03*
X0175870Y0127307D03*
X0176421Y0127307D03*
X0176559Y0127307D03*
X0176697Y0127307D03*
X0176835Y0127307D03*
X0177110Y0127169D03*
X0177248Y0127169D03*
X0177386Y0127031D03*
X0177386Y0125378D03*
X0177386Y0130476D03*
X0177524Y0130476D03*
X0177248Y0130476D03*
X0177110Y0130476D03*
X0176972Y0130476D03*
X0176835Y0130476D03*
X0176697Y0130476D03*
X0176559Y0130476D03*
X0176421Y0130476D03*
X0176283Y0130476D03*
X0176146Y0130476D03*
X0176008Y0130476D03*
X0175870Y0130476D03*
X0175732Y0130476D03*
X0175594Y0130476D03*
X0175457Y0130476D03*
X0175319Y0130476D03*
X0175181Y0130476D03*
X0175043Y0130476D03*
X0174906Y0130476D03*
X0174768Y0130476D03*
X0174630Y0130476D03*
X0174492Y0130476D03*
X0174354Y0130476D03*
X0174217Y0130476D03*
X0175181Y0132543D03*
X0175319Y0132681D03*
X0175457Y0132681D03*
X0175732Y0132819D03*
X0175870Y0132819D03*
X0176008Y0132819D03*
X0176146Y0132819D03*
X0176283Y0132819D03*
X0176697Y0132681D03*
X0176972Y0132543D03*
X0176972Y0133921D03*
X0176835Y0133921D03*
X0176697Y0133921D03*
X0176559Y0133921D03*
X0176421Y0133921D03*
X0176283Y0133921D03*
X0176146Y0133921D03*
X0176008Y0133921D03*
X0175870Y0133921D03*
X0175732Y0133921D03*
X0175594Y0133921D03*
X0175457Y0133921D03*
X0175319Y0133921D03*
X0175181Y0133921D03*
X0175043Y0133921D03*
X0174906Y0133921D03*
X0174768Y0133921D03*
X0174630Y0133921D03*
X0174492Y0133921D03*
X0174354Y0133921D03*
X0174217Y0133921D03*
X0174217Y0135161D03*
X0174354Y0135161D03*
X0174492Y0135161D03*
X0174630Y0135161D03*
X0174768Y0135161D03*
X0174906Y0135161D03*
X0175043Y0135161D03*
X0175181Y0135161D03*
X0175319Y0135161D03*
X0175457Y0135161D03*
X0175594Y0135161D03*
X0175732Y0135161D03*
X0175870Y0135161D03*
X0176008Y0135161D03*
X0176146Y0135161D03*
X0176283Y0135161D03*
X0176421Y0135161D03*
X0176559Y0135161D03*
X0176697Y0135161D03*
X0176835Y0135161D03*
X0176972Y0135161D03*
X0177110Y0135161D03*
X0177248Y0135161D03*
X0177248Y0135713D03*
X0176972Y0135850D03*
X0176697Y0135988D03*
X0176421Y0136126D03*
X0176146Y0136264D03*
X0175870Y0136402D03*
X0175594Y0136539D03*
X0175319Y0136677D03*
X0175043Y0136815D03*
X0175043Y0137366D03*
X0175181Y0137366D03*
X0175319Y0137366D03*
X0175457Y0137366D03*
X0175594Y0137366D03*
X0175732Y0137366D03*
X0175870Y0137366D03*
X0176008Y0137366D03*
X0176146Y0137366D03*
X0176283Y0137366D03*
X0176421Y0137366D03*
X0176559Y0137366D03*
X0176697Y0137366D03*
X0176835Y0137366D03*
X0176972Y0137366D03*
X0177110Y0137366D03*
X0177248Y0137366D03*
X0177386Y0137366D03*
X0177524Y0137366D03*
X0177661Y0137366D03*
X0177799Y0137366D03*
X0177248Y0138744D03*
X0176972Y0138606D03*
X0176835Y0138606D03*
X0176697Y0138606D03*
X0176559Y0138606D03*
X0176421Y0138606D03*
X0176283Y0138606D03*
X0176146Y0138606D03*
X0176008Y0138606D03*
X0175870Y0138606D03*
X0175732Y0138606D03*
X0175594Y0138606D03*
X0175457Y0138606D03*
X0175319Y0138606D03*
X0175181Y0138606D03*
X0175043Y0138606D03*
X0174906Y0138606D03*
X0174768Y0138606D03*
X0174630Y0138606D03*
X0174492Y0138606D03*
X0174354Y0138606D03*
X0174217Y0138606D03*
X0174217Y0140673D03*
X0174354Y0140673D03*
X0174492Y0140673D03*
X0174630Y0140673D03*
X0174768Y0140673D03*
X0174906Y0140673D03*
X0175043Y0140673D03*
X0175181Y0140673D03*
X0175319Y0140673D03*
X0175457Y0140673D03*
X0175594Y0140673D03*
X0175732Y0140673D03*
X0175870Y0140673D03*
X0176421Y0140673D03*
X0176559Y0140673D03*
X0176697Y0140673D03*
X0176835Y0140673D03*
X0176972Y0140673D03*
X0177110Y0140673D03*
X0177110Y0142327D03*
X0176972Y0142327D03*
X0176835Y0142327D03*
X0176697Y0142327D03*
X0176421Y0142189D03*
X0176283Y0142189D03*
X0176146Y0142189D03*
X0176008Y0142189D03*
X0175870Y0142189D03*
X0175732Y0142189D03*
X0175594Y0142189D03*
X0175319Y0142051D03*
X0175181Y0142051D03*
X0175043Y0142051D03*
X0174906Y0142051D03*
X0174768Y0142051D03*
X0174630Y0142051D03*
X0174492Y0142051D03*
X0175319Y0143429D03*
X0175457Y0143429D03*
X0175594Y0143429D03*
X0175870Y0143291D03*
X0176008Y0143291D03*
X0176283Y0143154D03*
X0176421Y0143154D03*
X0176697Y0143016D03*
X0176835Y0143016D03*
X0176972Y0143016D03*
X0177248Y0142878D03*
X0177248Y0142327D03*
X0177937Y0142602D03*
X0176972Y0144669D03*
X0176835Y0144669D03*
X0176697Y0144669D03*
X0176559Y0144531D03*
X0176421Y0144531D03*
X0176283Y0144531D03*
X0176008Y0144394D03*
X0175870Y0144394D03*
X0175594Y0144256D03*
X0175457Y0144256D03*
X0175319Y0144256D03*
X0175181Y0144118D03*
X0175043Y0144118D03*
X0175043Y0143567D03*
X0175181Y0143567D03*
X0174354Y0143843D03*
X0174217Y0143843D03*
X0174492Y0145634D03*
X0174630Y0145634D03*
X0174768Y0145634D03*
X0174906Y0145634D03*
X0175043Y0145634D03*
X0175181Y0145634D03*
X0175594Y0145496D03*
X0175732Y0145496D03*
X0175870Y0145496D03*
X0176008Y0145496D03*
X0176146Y0145496D03*
X0176283Y0145496D03*
X0176421Y0145496D03*
X0176697Y0145358D03*
X0176835Y0145358D03*
X0176972Y0145358D03*
X0177110Y0145358D03*
X0177248Y0145358D03*
X0177248Y0144807D03*
X0177937Y0145083D03*
X0177799Y0146874D03*
X0177661Y0146874D03*
X0177524Y0146874D03*
X0177386Y0146874D03*
X0177248Y0146874D03*
X0177110Y0146874D03*
X0176972Y0146874D03*
X0176835Y0146874D03*
X0176697Y0146874D03*
X0176559Y0146874D03*
X0176421Y0146874D03*
X0176283Y0146874D03*
X0176146Y0146874D03*
X0176008Y0146874D03*
X0175870Y0146874D03*
X0175732Y0146874D03*
X0175594Y0146874D03*
X0175457Y0146874D03*
X0175319Y0146874D03*
X0175181Y0146874D03*
X0175043Y0146874D03*
X0174906Y0146874D03*
X0174768Y0146874D03*
X0174630Y0146874D03*
X0174492Y0146874D03*
X0174354Y0146874D03*
X0174217Y0146874D03*
X0175181Y0148252D03*
X0175457Y0148114D03*
X0175594Y0148114D03*
X0175870Y0147976D03*
X0176008Y0147976D03*
X0176146Y0147976D03*
X0176559Y0148114D03*
X0176697Y0148114D03*
X0177110Y0148390D03*
X0176697Y0151146D03*
X0176559Y0151146D03*
X0176421Y0151146D03*
X0176283Y0151146D03*
X0176146Y0151146D03*
X0176008Y0151146D03*
X0175870Y0151146D03*
X0175732Y0151146D03*
X0175594Y0151146D03*
X0175457Y0151146D03*
X0175319Y0151146D03*
X0175181Y0151146D03*
X0175043Y0151146D03*
X0174906Y0151146D03*
X0174768Y0151146D03*
X0174630Y0151146D03*
X0174492Y0151146D03*
X0174354Y0151146D03*
X0174217Y0151146D03*
X0174217Y0153350D03*
X0174354Y0153350D03*
X0174492Y0153350D03*
X0174630Y0153350D03*
X0174768Y0153350D03*
X0174906Y0153350D03*
X0175043Y0153350D03*
X0175181Y0153350D03*
X0175319Y0153350D03*
X0175457Y0153350D03*
X0175594Y0153350D03*
X0175732Y0153350D03*
X0175870Y0153350D03*
X0176421Y0153350D03*
X0176559Y0153350D03*
X0176697Y0153350D03*
X0176835Y0153350D03*
X0177110Y0153213D03*
X0177386Y0153075D03*
X0177386Y0151421D03*
X0177110Y0151283D03*
X0176972Y0151283D03*
X0177937Y0135299D03*
X0177937Y0133921D03*
X0177799Y0133921D03*
X0177661Y0133921D03*
X0177524Y0133921D03*
X0177386Y0133921D03*
X0177248Y0133921D03*
X0177110Y0133921D03*
X0177110Y0119315D03*
X0176972Y0119177D03*
X0176697Y0119039D03*
X0176559Y0119039D03*
X0176146Y0118902D03*
X0176008Y0118902D03*
X0175594Y0119039D03*
X0175457Y0119039D03*
X0175181Y0119177D03*
X0175181Y0117799D03*
X0175043Y0117799D03*
X0174906Y0117799D03*
X0174768Y0117799D03*
X0174630Y0117799D03*
X0174492Y0117799D03*
X0174354Y0117799D03*
X0174217Y0117799D03*
X0175319Y0117799D03*
X0176697Y0117661D03*
X0176835Y0117661D03*
X0176972Y0117661D03*
X0177110Y0117661D03*
X0177248Y0117661D03*
X0177248Y0115870D03*
X0176972Y0115732D03*
X0176835Y0115732D03*
X0176697Y0115732D03*
X0176559Y0115732D03*
X0176421Y0115732D03*
X0176283Y0115732D03*
X0176146Y0115732D03*
X0176008Y0115732D03*
X0175870Y0115732D03*
X0175732Y0115732D03*
X0175594Y0115732D03*
X0175457Y0115732D03*
X0175319Y0115732D03*
X0175181Y0115732D03*
X0175043Y0115732D03*
X0174906Y0115732D03*
X0174768Y0115732D03*
X0174630Y0115732D03*
X0174492Y0115732D03*
X0174354Y0115732D03*
X0174217Y0115732D03*
X0175043Y0112563D03*
X0175319Y0112425D03*
X0175594Y0112287D03*
X0175732Y0112287D03*
X0175870Y0112287D03*
X0176421Y0112287D03*
X0176559Y0112287D03*
X0176835Y0112425D03*
X0176835Y0111047D03*
X0176972Y0111047D03*
X0177110Y0111047D03*
X0177248Y0111047D03*
X0177386Y0111047D03*
X0177524Y0111047D03*
X0177661Y0111047D03*
X0177799Y0111047D03*
X0176697Y0111047D03*
X0176559Y0111047D03*
X0176421Y0111047D03*
X0176283Y0111047D03*
X0176146Y0111047D03*
X0176008Y0111047D03*
X0175870Y0111047D03*
X0175732Y0111047D03*
X0175594Y0111047D03*
X0175457Y0111047D03*
X0175319Y0111047D03*
X0175181Y0111047D03*
X0175043Y0111047D03*
X0174906Y0111047D03*
X0175043Y0110358D03*
X0175319Y0110220D03*
X0175594Y0110083D03*
X0175870Y0109945D03*
X0176146Y0109807D03*
X0176421Y0109669D03*
X0176697Y0109531D03*
X0176972Y0109394D03*
X0177248Y0109256D03*
X0177248Y0108705D03*
X0177110Y0108705D03*
X0176972Y0108705D03*
X0176835Y0108705D03*
X0176697Y0108705D03*
X0176559Y0108705D03*
X0176421Y0108705D03*
X0176283Y0108705D03*
X0176146Y0108705D03*
X0176008Y0108705D03*
X0175870Y0108705D03*
X0175732Y0108705D03*
X0175594Y0108705D03*
X0175457Y0108705D03*
X0175319Y0108705D03*
X0175181Y0108705D03*
X0175043Y0108705D03*
X0174906Y0108705D03*
X0174768Y0108705D03*
X0174630Y0108705D03*
X0174492Y0108705D03*
X0174354Y0108705D03*
X0174217Y0108705D03*
X0177937Y0108843D03*
X0177248Y0080181D03*
X0177110Y0080181D03*
X0174354Y0077012D03*
X0174217Y0077012D03*
X0177110Y0073843D03*
X0177248Y0073843D03*
D187*
X0175594Y0090033D03*
X0175457Y0090033D03*
X0175319Y0090033D03*
X0174217Y0090033D03*
X0179177Y0090033D03*
X0179315Y0090033D03*
D188*
X0179728Y0096510D03*
X0175181Y0096372D03*
X0177110Y0109325D03*
X0176835Y0109463D03*
X0176559Y0109600D03*
X0176283Y0109738D03*
X0176008Y0109876D03*
X0175732Y0110014D03*
X0175457Y0110152D03*
X0175181Y0110289D03*
X0174906Y0110427D03*
X0174217Y0110841D03*
X0175181Y0112494D03*
X0174906Y0112632D03*
X0175457Y0112356D03*
X0176697Y0112356D03*
X0176972Y0112494D03*
X0177110Y0112632D03*
X0177248Y0112770D03*
X0177937Y0114010D03*
X0177110Y0115801D03*
X0177386Y0115939D03*
X0177524Y0116077D03*
X0177524Y0117455D03*
X0177386Y0117593D03*
X0176559Y0117593D03*
X0176421Y0117455D03*
X0175732Y0117593D03*
X0175594Y0117730D03*
X0175457Y0117730D03*
X0175732Y0118970D03*
X0175870Y0118970D03*
X0176283Y0118970D03*
X0176421Y0118970D03*
X0176835Y0119108D03*
X0177248Y0119384D03*
X0175319Y0119108D03*
X0175043Y0119246D03*
X0174906Y0119384D03*
X0174768Y0119522D03*
X0174768Y0121864D03*
X0174906Y0122002D03*
X0175043Y0122140D03*
X0175319Y0122278D03*
X0177386Y0121864D03*
X0176835Y0125171D03*
X0177248Y0125309D03*
X0177524Y0126963D03*
X0176972Y0127238D03*
X0177248Y0132337D03*
X0177110Y0132474D03*
X0176835Y0132612D03*
X0176559Y0132750D03*
X0176421Y0132750D03*
X0175594Y0132750D03*
X0175043Y0132474D03*
X0174906Y0132337D03*
X0174768Y0132199D03*
X0176835Y0135919D03*
X0177110Y0135781D03*
X0176559Y0136057D03*
X0176283Y0136195D03*
X0176008Y0136333D03*
X0175732Y0136470D03*
X0175457Y0136608D03*
X0175181Y0136746D03*
X0174217Y0137297D03*
X0177110Y0138675D03*
X0177386Y0138813D03*
X0177524Y0138951D03*
X0177524Y0140329D03*
X0177386Y0140467D03*
X0177248Y0140604D03*
X0176559Y0142258D03*
X0176559Y0143085D03*
X0176146Y0143222D03*
X0175732Y0143360D03*
X0175732Y0144325D03*
X0176146Y0144463D03*
X0177110Y0144738D03*
X0176559Y0145427D03*
X0175457Y0145565D03*
X0175319Y0145565D03*
X0174354Y0145703D03*
X0174217Y0145703D03*
X0175319Y0148183D03*
X0175043Y0148321D03*
X0174906Y0148459D03*
X0174768Y0148596D03*
X0175732Y0148045D03*
X0176283Y0148045D03*
X0176421Y0148045D03*
X0176835Y0148183D03*
X0176972Y0148321D03*
X0177937Y0149837D03*
X0177248Y0151352D03*
X0176835Y0151215D03*
X0177524Y0153006D03*
X0177248Y0153144D03*
X0176972Y0153281D03*
X0177110Y0142947D03*
X0175457Y0142120D03*
X0174354Y0141982D03*
X0174217Y0141982D03*
X0176835Y0080112D03*
X0176972Y0080112D03*
X0176972Y0073911D03*
X0176835Y0073911D03*
D189*
X0176697Y0073980D03*
X0174630Y0077012D03*
X0174492Y0077012D03*
X0176697Y0080181D03*
X0177799Y0108843D03*
X0177386Y0112976D03*
X0174768Y0112839D03*
X0174217Y0113941D03*
X0174630Y0119728D03*
X0174630Y0121657D03*
X0177386Y0119591D03*
X0177524Y0125516D03*
X0174217Y0131303D03*
X0174630Y0131992D03*
X0177386Y0132130D03*
X0177799Y0135299D03*
X0174492Y0137228D03*
X0174354Y0137228D03*
X0177799Y0142602D03*
X0177799Y0145083D03*
X0177661Y0145083D03*
X0174630Y0143843D03*
X0174492Y0143843D03*
X0177248Y0148528D03*
X0177386Y0148665D03*
X0177524Y0151559D03*
D190*
X0174354Y0149492D03*
X0174492Y0131579D03*
X0174217Y0120693D03*
X0177937Y0120693D03*
X0176146Y0116835D03*
X0175043Y0104846D03*
X0179591Y0104709D03*
X0175457Y0096579D03*
X0175870Y0080043D03*
X0176008Y0080043D03*
X0175181Y0077012D03*
X0175043Y0077012D03*
X0181382Y0070535D03*
X0181520Y0070535D03*
X0181657Y0070535D03*
X0181795Y0070535D03*
X0181933Y0070535D03*
X0182071Y0070535D03*
X0182209Y0070535D03*
X0182346Y0070535D03*
X0182484Y0070535D03*
D191*
X0176421Y0073980D03*
X0176283Y0073980D03*
X0174906Y0077012D03*
X0174768Y0077012D03*
X0176146Y0080043D03*
X0176283Y0080043D03*
X0179591Y0096579D03*
X0178626Y0103882D03*
X0178902Y0104020D03*
X0179039Y0104157D03*
X0179177Y0104295D03*
X0176559Y0103744D03*
X0176146Y0103882D03*
X0175870Y0104020D03*
X0175732Y0104157D03*
X0177386Y0108980D03*
X0174768Y0110772D03*
X0174630Y0110772D03*
X0177524Y0113252D03*
X0175870Y0117248D03*
X0177937Y0126205D03*
X0177524Y0131854D03*
X0174354Y0131441D03*
X0177386Y0135437D03*
X0174906Y0137091D03*
X0177937Y0139709D03*
X0177524Y0142602D03*
X0177386Y0142602D03*
X0177386Y0145083D03*
X0177524Y0145083D03*
X0174906Y0143843D03*
X0174768Y0143843D03*
X0177524Y0148941D03*
X0177937Y0152248D03*
X0174217Y0149630D03*
D192*
X0177799Y0149561D03*
X0177937Y0130821D03*
X0177799Y0113734D03*
X0174354Y0113734D03*
X0175181Y0104640D03*
X0175319Y0104502D03*
X0175457Y0104364D03*
X0175594Y0104226D03*
X0179315Y0104364D03*
X0179453Y0104502D03*
X0176146Y0074049D03*
X0176008Y0074049D03*
D193*
X0174768Y0068882D03*
X0174492Y0061441D03*
X0180555Y0061579D03*
D194*
X0174630Y0074256D03*
X0174492Y0074256D03*
X0175870Y0077012D03*
X0176008Y0077012D03*
X0174630Y0079768D03*
X0175181Y0083075D03*
X0175319Y0083075D03*
X0175457Y0083075D03*
X0175594Y0083075D03*
X0182484Y0090240D03*
X0179177Y0096854D03*
D195*
X0180280Y0106156D03*
X0176283Y0113183D03*
X0176146Y0113183D03*
X0176008Y0113183D03*
X0176008Y0083006D03*
X0176146Y0083006D03*
X0176283Y0083006D03*
X0176421Y0083006D03*
X0175870Y0083006D03*
X0175732Y0083006D03*
X0174492Y0079837D03*
D196*
X0174492Y0090309D03*
X0180280Y0090309D03*
X0180417Y0090309D03*
D197*
X0175043Y0068882D03*
X0174630Y0061303D03*
X0180417Y0061441D03*
D198*
X0178075Y0058685D03*
X0176835Y0058685D03*
X0174768Y0090240D03*
X0174630Y0090240D03*
X0180004Y0090240D03*
X0180142Y0090240D03*
X0180555Y0090240D03*
D199*
X0175457Y0068744D03*
X0175319Y0068744D03*
X0180142Y0061028D03*
X0174906Y0060890D03*
D200*
X0175043Y0060752D03*
X0180004Y0060890D03*
D201*
X0178213Y0058823D03*
X0176697Y0058823D03*
X0175181Y0090102D03*
X0175043Y0090102D03*
X0179453Y0090102D03*
X0179591Y0090102D03*
X0179728Y0090102D03*
X0180693Y0090102D03*
D202*
X0178488Y0068882D03*
X0178213Y0068744D03*
X0178075Y0068744D03*
X0177937Y0068744D03*
X0177799Y0068744D03*
X0179453Y0060201D03*
X0175594Y0060063D03*
D203*
X0175732Y0059925D03*
X0178764Y0069020D03*
D204*
X0178350Y0058961D03*
X0176559Y0058961D03*
X0176146Y0089965D03*
X0176008Y0089965D03*
X0175870Y0089965D03*
X0175732Y0089965D03*
X0178626Y0089965D03*
X0178764Y0089965D03*
X0178902Y0089965D03*
X0179039Y0089965D03*
X0180831Y0089965D03*
D205*
X0176283Y0068606D03*
X0176146Y0068606D03*
D206*
X0176421Y0059098D03*
X0178488Y0059098D03*
X0177524Y0089827D03*
X0177386Y0089827D03*
X0180969Y0089827D03*
D207*
X0176972Y0068606D03*
X0176835Y0068606D03*
X0176697Y0068606D03*
X0176559Y0068606D03*
X0179591Y0060339D03*
D208*
X0176559Y0097474D03*
D209*
X0176972Y0058547D03*
X0177937Y0058547D03*
D210*
X0177799Y0058409D03*
X0177110Y0058409D03*
D211*
X0177110Y0077012D03*
X0177248Y0077012D03*
X0181933Y0090791D03*
D212*
X0177661Y0058272D03*
X0177248Y0058272D03*
D213*
X0178488Y0077012D03*
X0178075Y0097819D03*
D214*
X0178213Y0097681D03*
X0181382Y0091343D03*
X0178350Y0077012D03*
X0178213Y0077012D03*
D215*
X0178902Y0074669D03*
X0179039Y0074669D03*
X0179177Y0074669D03*
X0184965Y0076874D03*
D216*
X0179453Y0074738D03*
X0179315Y0074738D03*
D217*
X0179728Y0074876D03*
X0179866Y0074876D03*
D218*
X0180004Y0074945D03*
X0185102Y0076874D03*
D219*
X0180142Y0075014D03*
D220*
X0180417Y0075152D03*
D221*
X0180555Y0075289D03*
D222*
X0180831Y0075496D03*
X0185378Y0076874D03*
D223*
X0185516Y0076874D03*
X0181106Y0075772D03*
D224*
X0181106Y0089689D03*
D225*
X0185654Y0076874D03*
X0181244Y0076047D03*
D226*
X0181244Y0089551D03*
D227*
X0182622Y0076874D03*
D228*
X0182760Y0076874D03*
D229*
X0182898Y0076874D03*
D230*
X0183035Y0076874D03*
D231*
X0183173Y0076874D03*
D232*
X0183311Y0076874D03*
D233*
X0183449Y0076874D03*
D234*
X0183587Y0076874D03*
D235*
X0183724Y0076874D03*
D236*
X0183862Y0076874D03*
D237*
X0184000Y0076874D03*
D238*
X0184138Y0076874D03*
D239*
X0184276Y0076874D03*
D240*
X0184413Y0076874D03*
D241*
X0184551Y0076874D03*
D242*
X0184689Y0076874D03*
D243*
X0184827Y0076874D03*
D244*
X0185240Y0076874D03*
D245*
X0185791Y0076874D03*
D246*
X0185929Y0076874D03*
D247*
X0186067Y0076943D03*
D248*
X0186205Y0076943D03*
D249*
X0186343Y0076943D03*
D250*
X0186480Y0076943D03*
D251*
X0186618Y0076943D03*
D252*
X0186756Y0076943D03*
D253*
X0186894Y0076943D03*
D254*
X0187031Y0076943D03*
D255*
X0082228Y0095535D03*
X0068055Y0095535D03*
D256*
X0068055Y0095575D03*
X0082228Y0095575D03*
X0082228Y0114157D03*
X0068055Y0114157D03*
D257*
X0068075Y0114118D03*
X0082209Y0114118D03*
X0078665Y0096677D03*
X0068075Y0095614D03*
D258*
X0071638Y0096677D03*
X0082228Y0095614D03*
D259*
X0082209Y0095654D03*
X0071618Y0096717D03*
X0068075Y0095654D03*
X0068075Y0114079D03*
X0082209Y0114079D03*
D260*
X0078705Y0096756D03*
X0082209Y0095693D03*
X0071579Y0096756D03*
X0068075Y0095693D03*
D261*
X0068094Y0095732D03*
X0071559Y0096795D03*
X0082189Y0095732D03*
X0082189Y0114000D03*
X0068094Y0114000D03*
D262*
X0082189Y0113961D03*
X0078764Y0096835D03*
X0082189Y0095772D03*
X0071520Y0096835D03*
X0068094Y0095772D03*
D263*
X0068114Y0095811D03*
X0071500Y0096874D03*
X0082169Y0095811D03*
X0082169Y0113921D03*
X0068114Y0113921D03*
D264*
X0082169Y0113882D03*
X0078823Y0096913D03*
X0082169Y0095850D03*
X0071461Y0096913D03*
X0068114Y0095850D03*
D265*
X0068134Y0095890D03*
X0082150Y0095890D03*
X0082150Y0113843D03*
X0068134Y0113843D03*
D266*
X0082150Y0113803D03*
X0078882Y0096992D03*
X0082150Y0095929D03*
X0068134Y0095929D03*
D267*
X0068154Y0095969D03*
X0078941Y0097071D03*
X0082130Y0113764D03*
X0068154Y0113764D03*
D268*
X0078921Y0097031D03*
X0082150Y0095969D03*
D269*
X0082130Y0096008D03*
X0068154Y0096008D03*
X0068154Y0113724D03*
X0082130Y0113724D03*
D270*
X0082110Y0113685D03*
X0068173Y0113685D03*
X0068173Y0096047D03*
D271*
X0082130Y0096047D03*
D272*
X0082110Y0096087D03*
X0068173Y0096087D03*
X0068173Y0113646D03*
X0082110Y0113646D03*
D273*
X0082091Y0113606D03*
X0068193Y0113606D03*
X0068193Y0096126D03*
D274*
X0082110Y0096126D03*
D275*
X0082091Y0096165D03*
X0068193Y0096165D03*
X0068193Y0113567D03*
X0082091Y0113567D03*
D276*
X0082091Y0096205D03*
X0068193Y0096205D03*
D277*
X0068213Y0096244D03*
X0082071Y0096244D03*
X0082071Y0113488D03*
X0068213Y0113488D03*
D278*
X0082071Y0113449D03*
X0082071Y0096283D03*
X0068213Y0096283D03*
D279*
X0068232Y0096323D03*
X0082051Y0096323D03*
X0082051Y0113409D03*
X0068232Y0113409D03*
D280*
X0082051Y0113370D03*
X0082051Y0096362D03*
X0068232Y0096362D03*
D281*
X0068252Y0096402D03*
X0068252Y0113331D03*
X0082031Y0113331D03*
D282*
X0082051Y0096402D03*
D283*
X0082031Y0096441D03*
X0068252Y0096441D03*
X0082031Y0113291D03*
D284*
X0082012Y0113252D03*
X0068272Y0113252D03*
X0068272Y0096480D03*
D285*
X0082031Y0096480D03*
D286*
X0082012Y0096520D03*
X0068272Y0096520D03*
X0068272Y0113213D03*
X0082012Y0113213D03*
D287*
X0081992Y0113173D03*
X0068291Y0113173D03*
X0068291Y0096559D03*
D288*
X0082012Y0096559D03*
D289*
X0081992Y0096598D03*
X0068291Y0096598D03*
X0068291Y0113134D03*
X0081992Y0113134D03*
D290*
X0082228Y0114197D03*
X0068055Y0114197D03*
X0071677Y0096598D03*
X0078606Y0096598D03*
D291*
X0081992Y0096638D03*
X0068291Y0096638D03*
D292*
X0071657Y0096638D03*
X0078626Y0096638D03*
D293*
X0081972Y0096677D03*
X0068311Y0096677D03*
X0068311Y0113055D03*
X0081972Y0113055D03*
D294*
X0081972Y0113016D03*
X0081972Y0096717D03*
X0068311Y0096717D03*
D295*
X0078685Y0096717D03*
D296*
X0081953Y0096756D03*
X0068331Y0096756D03*
X0068331Y0112976D03*
X0081953Y0112976D03*
D297*
X0081953Y0112937D03*
X0075142Y0116402D03*
X0075142Y0116441D03*
X0081953Y0096795D03*
X0068331Y0096795D03*
D298*
X0078744Y0096795D03*
D299*
X0068350Y0096835D03*
X0068350Y0112898D03*
X0075161Y0116165D03*
X0081933Y0112898D03*
D300*
X0075142Y0116205D03*
X0075142Y0116244D03*
X0075142Y0116283D03*
X0075142Y0116323D03*
X0081953Y0096835D03*
D301*
X0081933Y0096874D03*
X0068350Y0096874D03*
X0081933Y0112858D03*
X0075161Y0115929D03*
D302*
X0078803Y0096874D03*
D303*
X0068370Y0096913D03*
X0068370Y0112819D03*
X0075142Y0115575D03*
X0075142Y0115614D03*
X0075142Y0115654D03*
X0075142Y0115693D03*
X0081913Y0112819D03*
D304*
X0075161Y0115732D03*
X0081933Y0096913D03*
D305*
X0081913Y0096953D03*
X0068370Y0096953D03*
X0068370Y0112780D03*
X0075142Y0115339D03*
X0075142Y0115378D03*
X0075142Y0115417D03*
X0075142Y0115457D03*
X0081913Y0112780D03*
D306*
X0078862Y0096953D03*
X0071421Y0096953D03*
D307*
X0068390Y0096992D03*
X0068390Y0112740D03*
X0075161Y0115102D03*
X0081894Y0112740D03*
D308*
X0071421Y0096992D03*
D309*
X0081913Y0096992D03*
X0075142Y0115142D03*
X0075142Y0115181D03*
X0075142Y0115220D03*
X0075142Y0115260D03*
D310*
X0075161Y0114906D03*
X0075161Y0114866D03*
X0081894Y0112701D03*
X0068390Y0112701D03*
X0068390Y0097031D03*
X0081894Y0097031D03*
D311*
X0071382Y0097031D03*
X0068154Y0113803D03*
D312*
X0075161Y0114669D03*
X0081894Y0097071D03*
X0068390Y0097071D03*
D313*
X0071362Y0097071D03*
D314*
X0068409Y0097110D03*
X0081874Y0097110D03*
X0081874Y0112622D03*
X0075142Y0114276D03*
X0075142Y0114315D03*
X0075142Y0114354D03*
X0075142Y0114394D03*
X0075142Y0114433D03*
X0068409Y0112622D03*
D315*
X0071323Y0097110D03*
X0078961Y0097110D03*
D316*
X0081106Y0097150D03*
X0069177Y0097150D03*
D317*
X0069177Y0097189D03*
X0081106Y0097189D03*
D318*
X0081126Y0097228D03*
X0069157Y0097228D03*
X0075142Y0113055D03*
D319*
X0079906Y0100299D03*
X0079906Y0100260D03*
X0079945Y0100220D03*
X0079945Y0100181D03*
X0070378Y0100220D03*
X0070378Y0100260D03*
X0070339Y0100181D03*
X0070299Y0100102D03*
X0069157Y0097268D03*
D320*
X0081146Y0097268D03*
D321*
X0081146Y0097307D03*
X0080043Y0100024D03*
X0080004Y0100063D03*
X0080004Y0100102D03*
X0079965Y0100142D03*
X0079886Y0100339D03*
X0070398Y0100339D03*
X0070398Y0100378D03*
X0070398Y0100299D03*
X0070319Y0100142D03*
X0070280Y0100063D03*
X0069138Y0097307D03*
D322*
X0069118Y0097346D03*
X0070181Y0099906D03*
X0070220Y0099945D03*
X0070220Y0099984D03*
X0070260Y0100024D03*
X0079906Y0100378D03*
X0080063Y0099984D03*
X0080063Y0099945D03*
X0080102Y0099906D03*
X0081165Y0097346D03*
D323*
X0081165Y0097386D03*
X0080299Y0099551D03*
X0080260Y0099630D03*
X0080220Y0099669D03*
X0080220Y0099709D03*
X0079906Y0100496D03*
X0070417Y0100496D03*
X0070102Y0099748D03*
X0070063Y0099669D03*
X0070024Y0099630D03*
X0070024Y0099591D03*
X0069118Y0097386D03*
X0075142Y0113016D03*
D324*
X0070398Y0100575D03*
X0070398Y0100535D03*
X0070004Y0099551D03*
X0069965Y0099512D03*
X0069965Y0099472D03*
X0069925Y0099433D03*
X0069098Y0097425D03*
X0079886Y0100535D03*
X0080280Y0099591D03*
X0080319Y0099512D03*
X0080358Y0099433D03*
X0081185Y0097425D03*
D325*
X0080516Y0099157D03*
X0080476Y0099236D03*
X0080437Y0099276D03*
X0079886Y0100614D03*
X0079886Y0100654D03*
X0070398Y0100654D03*
X0070398Y0100614D03*
X0069886Y0099354D03*
X0069846Y0099276D03*
X0069807Y0099236D03*
X0069807Y0099197D03*
X0069098Y0097465D03*
D326*
X0069866Y0099315D03*
X0069906Y0099394D03*
X0079906Y0100575D03*
X0080339Y0099472D03*
X0080378Y0099394D03*
X0080417Y0099354D03*
X0080417Y0099315D03*
X0081205Y0097465D03*
D327*
X0081205Y0097504D03*
X0080575Y0099039D03*
X0080575Y0099079D03*
X0080535Y0099118D03*
X0080496Y0099197D03*
X0079906Y0100693D03*
X0070417Y0100693D03*
X0069787Y0099157D03*
X0069748Y0099118D03*
X0069748Y0099079D03*
X0069709Y0099039D03*
X0069669Y0098961D03*
X0069079Y0097504D03*
X0075142Y0112976D03*
D328*
X0080535Y0107150D03*
X0080575Y0107110D03*
X0079906Y0100772D03*
X0080693Y0098843D03*
X0080693Y0098803D03*
X0080732Y0098764D03*
X0080772Y0098685D03*
X0069630Y0098882D03*
X0069591Y0098803D03*
X0069551Y0098764D03*
X0069551Y0098724D03*
X0069079Y0097543D03*
X0069669Y0102622D03*
X0069630Y0102661D03*
X0069669Y0107071D03*
X0069709Y0107110D03*
X0069748Y0107150D03*
D329*
X0070398Y0100772D03*
X0070398Y0100732D03*
X0069689Y0099000D03*
X0069650Y0098921D03*
X0069610Y0098843D03*
X0079886Y0100732D03*
X0080594Y0099000D03*
X0080634Y0098961D03*
X0080634Y0098921D03*
X0080673Y0098882D03*
X0081224Y0097543D03*
D330*
X0081224Y0097583D03*
X0080831Y0098567D03*
X0080831Y0098606D03*
X0080791Y0098646D03*
X0080752Y0098724D03*
X0079886Y0100811D03*
X0079886Y0100850D03*
X0080594Y0102583D03*
X0080634Y0102622D03*
X0080673Y0102661D03*
X0080713Y0102701D03*
X0080634Y0107071D03*
X0080516Y0107189D03*
X0080476Y0107228D03*
X0069807Y0107228D03*
X0069768Y0107189D03*
X0069689Y0102583D03*
X0069728Y0102543D03*
X0070398Y0100850D03*
X0070398Y0100811D03*
X0069531Y0098685D03*
X0069492Y0098646D03*
X0069453Y0098567D03*
X0069059Y0097583D03*
D331*
X0069039Y0097622D03*
X0069394Y0098449D03*
X0069394Y0098488D03*
X0069433Y0098528D03*
X0069472Y0098606D03*
X0070417Y0100890D03*
X0069748Y0102504D03*
X0069591Y0102701D03*
X0069827Y0107268D03*
X0069866Y0107307D03*
X0080457Y0107268D03*
X0080575Y0102543D03*
X0080535Y0102504D03*
X0079906Y0100890D03*
X0080850Y0098528D03*
X0080890Y0098488D03*
X0080929Y0098409D03*
X0081244Y0097622D03*
D332*
X0081244Y0097661D03*
X0081047Y0098173D03*
X0081047Y0098213D03*
X0081008Y0098252D03*
X0080969Y0098331D03*
X0079906Y0100969D03*
X0080378Y0107386D03*
X0075142Y0112937D03*
X0069945Y0107386D03*
X0069906Y0107346D03*
X0069827Y0102425D03*
X0070417Y0100969D03*
X0069276Y0098252D03*
X0069276Y0098213D03*
X0069236Y0098173D03*
X0069197Y0098094D03*
X0069039Y0097701D03*
X0069039Y0097661D03*
D333*
X0069177Y0098055D03*
X0069217Y0098134D03*
X0070398Y0101008D03*
X0070398Y0101047D03*
X0069886Y0102346D03*
X0069846Y0102386D03*
X0069965Y0107425D03*
X0080319Y0107425D03*
X0080831Y0102740D03*
X0080437Y0102386D03*
X0079886Y0101047D03*
X0079886Y0101008D03*
X0081067Y0098134D03*
X0081106Y0098094D03*
X0081106Y0098055D03*
X0081146Y0098016D03*
X0081185Y0097937D03*
X0081264Y0097740D03*
X0081264Y0097701D03*
D334*
X0081244Y0097780D03*
X0081244Y0097819D03*
X0081205Y0097898D03*
X0081165Y0097976D03*
X0080378Y0102307D03*
X0080417Y0102346D03*
X0080299Y0107465D03*
X0069984Y0107465D03*
X0069472Y0102740D03*
X0069906Y0102307D03*
X0070417Y0101087D03*
X0069157Y0098016D03*
X0069118Y0097976D03*
X0069118Y0097937D03*
X0069079Y0097898D03*
X0069079Y0097858D03*
X0069039Y0097819D03*
X0069039Y0097780D03*
X0069039Y0097740D03*
D335*
X0070398Y0101126D03*
X0069965Y0102268D03*
X0069453Y0106992D03*
X0070043Y0107504D03*
X0080240Y0107504D03*
X0080358Y0102268D03*
X0079886Y0101126D03*
X0079886Y0101087D03*
X0081224Y0097858D03*
D336*
X0080988Y0098291D03*
X0080949Y0098370D03*
X0080909Y0098449D03*
X0079886Y0100929D03*
X0080476Y0102425D03*
X0080516Y0102465D03*
X0080713Y0107031D03*
X0080437Y0107307D03*
X0080398Y0107346D03*
X0069571Y0107031D03*
X0069807Y0102465D03*
X0070398Y0100929D03*
X0069374Y0098409D03*
X0069335Y0098370D03*
X0069335Y0098331D03*
X0069295Y0098291D03*
D337*
X0070083Y0099709D03*
X0070122Y0099787D03*
X0070161Y0099827D03*
X0070161Y0099866D03*
X0070398Y0100417D03*
X0070398Y0100457D03*
X0079886Y0100457D03*
X0079886Y0100417D03*
X0080122Y0099866D03*
X0080161Y0099827D03*
X0080161Y0099787D03*
X0080201Y0099748D03*
D338*
X0079906Y0101165D03*
X0080299Y0102228D03*
X0080850Y0106992D03*
X0080220Y0107543D03*
X0075142Y0112898D03*
X0070063Y0107543D03*
X0069984Y0102228D03*
X0070417Y0101165D03*
D339*
X0070398Y0101205D03*
X0070398Y0101244D03*
X0070004Y0102189D03*
X0070122Y0107583D03*
X0080280Y0102189D03*
X0079886Y0101244D03*
X0079886Y0101205D03*
D340*
X0080181Y0107583D03*
X0080142Y0107622D03*
X0070142Y0107622D03*
X0070063Y0102150D03*
X0070417Y0101283D03*
D341*
X0070398Y0101323D03*
X0070122Y0102071D03*
X0070083Y0102110D03*
X0069335Y0102780D03*
X0070201Y0107661D03*
X0080201Y0102110D03*
X0080240Y0102150D03*
X0079886Y0101323D03*
X0079886Y0101283D03*
X0080949Y0102780D03*
D342*
X0080181Y0102071D03*
X0079906Y0101362D03*
X0080969Y0106953D03*
X0080102Y0107661D03*
X0069315Y0106953D03*
X0070417Y0101362D03*
D343*
X0070398Y0101402D03*
X0070161Y0102031D03*
X0070240Y0107701D03*
X0075161Y0112858D03*
X0080043Y0107701D03*
X0080122Y0102031D03*
X0079886Y0101441D03*
X0079886Y0101402D03*
D344*
X0080102Y0101992D03*
X0070417Y0101480D03*
X0070417Y0101441D03*
X0070181Y0101992D03*
D345*
X0070240Y0101953D03*
X0070398Y0101520D03*
X0069217Y0102819D03*
X0070280Y0107740D03*
X0080004Y0107740D03*
X0081067Y0102819D03*
X0079886Y0101520D03*
X0079886Y0101480D03*
D346*
X0080024Y0101913D03*
X0080063Y0101953D03*
X0081087Y0106913D03*
X0079945Y0107780D03*
X0070339Y0107780D03*
X0069197Y0106913D03*
X0070417Y0101559D03*
D347*
X0070398Y0101598D03*
X0070319Y0101874D03*
X0070280Y0101913D03*
X0079886Y0101638D03*
X0079886Y0101598D03*
X0079886Y0101559D03*
D348*
X0079945Y0101835D03*
X0079984Y0101874D03*
X0079906Y0107819D03*
X0075142Y0112819D03*
X0070378Y0107819D03*
X0070417Y0101677D03*
X0070417Y0101638D03*
D349*
X0070398Y0101717D03*
X0070398Y0101756D03*
X0070358Y0101795D03*
X0070358Y0101835D03*
X0069098Y0102858D03*
X0070437Y0107858D03*
X0079925Y0101795D03*
X0079925Y0101756D03*
X0079886Y0101717D03*
X0079886Y0101677D03*
D350*
X0081205Y0102858D03*
X0079866Y0107858D03*
D351*
X0081323Y0102898D03*
X0070575Y0107937D03*
X0068961Y0102898D03*
D352*
X0068862Y0102937D03*
D353*
X0075142Y0112740D03*
X0081441Y0102937D03*
D354*
X0068744Y0102976D03*
D355*
X0081559Y0102976D03*
D356*
X0081677Y0103016D03*
X0075142Y0112661D03*
X0068606Y0103016D03*
D357*
X0068508Y0103055D03*
D358*
X0075142Y0112622D03*
X0081795Y0103055D03*
D359*
X0081913Y0103094D03*
X0075142Y0112583D03*
X0068370Y0103094D03*
D360*
X0068252Y0103134D03*
X0075142Y0112543D03*
X0082031Y0103134D03*
D361*
X0082169Y0103173D03*
X0082563Y0104118D03*
X0082563Y0104157D03*
X0082563Y0104197D03*
X0082563Y0104236D03*
X0082563Y0104276D03*
X0082563Y0105417D03*
X0082563Y0105457D03*
X0082563Y0105496D03*
X0082563Y0105535D03*
X0082563Y0105575D03*
X0075161Y0112504D03*
X0067720Y0105535D03*
X0067720Y0105496D03*
X0067720Y0105457D03*
X0067720Y0105417D03*
X0067720Y0105378D03*
X0067720Y0104315D03*
X0067720Y0104276D03*
X0067720Y0104236D03*
X0067720Y0104197D03*
X0067720Y0104157D03*
X0068154Y0103173D03*
D362*
X0068016Y0103213D03*
X0067819Y0103567D03*
X0067819Y0103606D03*
X0067819Y0103646D03*
X0067819Y0106087D03*
X0067819Y0106126D03*
X0075142Y0112465D03*
X0082465Y0106165D03*
X0082465Y0106126D03*
X0082465Y0106087D03*
X0082465Y0103606D03*
X0082465Y0103567D03*
X0082268Y0103213D03*
D363*
X0082346Y0103252D03*
X0082425Y0103409D03*
X0082425Y0103449D03*
X0082425Y0106283D03*
X0082425Y0106323D03*
X0067858Y0106283D03*
X0067858Y0106244D03*
X0067858Y0103449D03*
X0067858Y0103409D03*
X0067937Y0103252D03*
D364*
X0067917Y0103291D03*
X0067878Y0103331D03*
X0067878Y0103370D03*
X0067878Y0106323D03*
X0067878Y0106362D03*
X0067917Y0106441D03*
X0067957Y0106480D03*
X0082366Y0106441D03*
X0082406Y0106402D03*
X0082406Y0106362D03*
X0082406Y0103370D03*
X0082406Y0103331D03*
X0082366Y0103291D03*
D365*
X0082445Y0103488D03*
X0082445Y0103528D03*
X0082445Y0106205D03*
X0082445Y0106244D03*
X0082287Y0106520D03*
X0067996Y0106520D03*
X0067839Y0106205D03*
X0067839Y0106165D03*
X0067839Y0103528D03*
X0067839Y0103488D03*
D366*
X0067799Y0103685D03*
X0067799Y0103724D03*
X0067799Y0105969D03*
X0067799Y0106008D03*
X0067799Y0106047D03*
X0082484Y0106047D03*
X0082484Y0106008D03*
X0082484Y0103685D03*
X0082484Y0103646D03*
D367*
X0082504Y0103724D03*
X0082504Y0103764D03*
X0082504Y0103803D03*
X0082504Y0105890D03*
X0082504Y0105929D03*
X0082504Y0105969D03*
X0067780Y0105929D03*
X0067780Y0105890D03*
X0067780Y0105850D03*
X0067780Y0103843D03*
X0067780Y0103803D03*
X0067780Y0103764D03*
D368*
X0067760Y0103882D03*
X0067760Y0103921D03*
X0067760Y0103961D03*
X0067760Y0105732D03*
X0067760Y0105772D03*
X0067760Y0105811D03*
X0068114Y0106559D03*
X0082169Y0106559D03*
X0082524Y0105850D03*
X0082524Y0105811D03*
X0082524Y0105772D03*
X0082524Y0103921D03*
X0082524Y0103882D03*
X0082524Y0103843D03*
D369*
X0082543Y0103961D03*
X0082543Y0104000D03*
X0082543Y0104039D03*
X0082543Y0104079D03*
X0082543Y0105614D03*
X0082543Y0105654D03*
X0082543Y0105693D03*
X0082543Y0105732D03*
X0067740Y0105693D03*
X0067740Y0105654D03*
X0067740Y0105614D03*
X0067740Y0105575D03*
X0067740Y0104118D03*
X0067740Y0104079D03*
X0067740Y0104039D03*
X0067740Y0104000D03*
D370*
X0067701Y0104354D03*
X0067701Y0104394D03*
X0067701Y0104433D03*
X0067701Y0104472D03*
X0067701Y0104512D03*
X0067701Y0104551D03*
X0067701Y0104591D03*
X0067701Y0104630D03*
X0067701Y0104669D03*
X0067701Y0104709D03*
X0067701Y0104984D03*
X0067701Y0105024D03*
X0067701Y0105063D03*
X0067701Y0105102D03*
X0067701Y0105142D03*
X0067701Y0105181D03*
X0067701Y0105220D03*
X0067701Y0105260D03*
X0067701Y0105299D03*
X0067701Y0105339D03*
X0082583Y0105339D03*
X0082583Y0105378D03*
X0082583Y0105299D03*
X0082583Y0105260D03*
X0082583Y0105220D03*
X0082583Y0105181D03*
X0082583Y0105142D03*
X0082583Y0104551D03*
X0082583Y0104512D03*
X0082583Y0104472D03*
X0082583Y0104433D03*
X0082583Y0104394D03*
X0082583Y0104354D03*
X0082583Y0104315D03*
D371*
X0082602Y0104591D03*
X0082602Y0104630D03*
X0082602Y0104669D03*
X0082602Y0104709D03*
X0082602Y0104748D03*
X0082602Y0104787D03*
X0082602Y0104827D03*
X0082602Y0104866D03*
X0082602Y0104906D03*
X0082602Y0104945D03*
X0082602Y0104984D03*
X0082602Y0105024D03*
X0082602Y0105063D03*
X0082602Y0105102D03*
X0067681Y0104945D03*
X0067681Y0104906D03*
X0067681Y0104866D03*
X0067681Y0104827D03*
X0067681Y0104787D03*
X0067681Y0104748D03*
D372*
X0067898Y0106402D03*
X0082346Y0106480D03*
D373*
X0068252Y0106598D03*
D374*
X0082051Y0106598D03*
D375*
X0081933Y0106638D03*
X0068350Y0106638D03*
D376*
X0068488Y0106677D03*
D377*
X0081815Y0106677D03*
D378*
X0068606Y0106717D03*
D379*
X0081697Y0106717D03*
D380*
X0081579Y0106756D03*
X0068705Y0106756D03*
D381*
X0068843Y0106795D03*
D382*
X0070713Y0108016D03*
X0079571Y0108016D03*
X0081461Y0106795D03*
D383*
X0081323Y0106835D03*
X0068961Y0106835D03*
D384*
X0069079Y0106874D03*
X0070496Y0107898D03*
X0079787Y0107898D03*
D385*
X0081224Y0106874D03*
D386*
X0079728Y0107937D03*
D387*
X0079650Y0107976D03*
X0070634Y0107976D03*
D388*
X0070850Y0108055D03*
X0079433Y0108055D03*
D389*
X0075142Y0108094D03*
X0075142Y0110102D03*
X0075142Y0110142D03*
D390*
X0075161Y0108134D03*
D391*
X0075142Y0108173D03*
X0075142Y0110063D03*
D392*
X0075161Y0108213D03*
D393*
X0075142Y0108252D03*
X0075142Y0108291D03*
X0075142Y0110024D03*
D394*
X0075142Y0109945D03*
X0075142Y0108370D03*
X0075142Y0108331D03*
D395*
X0075161Y0108409D03*
D396*
X0075142Y0108449D03*
X0075142Y0109906D03*
D397*
X0075161Y0109866D03*
X0075161Y0108488D03*
D398*
X0075142Y0108528D03*
X0075142Y0108567D03*
X0075142Y0109827D03*
D399*
X0075142Y0109787D03*
X0075142Y0108646D03*
X0075142Y0108606D03*
D400*
X0075161Y0108685D03*
X0075161Y0109748D03*
D401*
X0075142Y0109709D03*
X0075142Y0108724D03*
D402*
X0075161Y0108764D03*
D403*
X0075142Y0108803D03*
X0075142Y0108843D03*
X0075142Y0109669D03*
D404*
X0075142Y0109591D03*
X0075142Y0108921D03*
X0075142Y0108882D03*
D405*
X0075161Y0108961D03*
D406*
X0075142Y0109000D03*
X0075142Y0109551D03*
D407*
X0075161Y0109512D03*
X0075161Y0109039D03*
D408*
X0075142Y0109079D03*
X0075142Y0109118D03*
X0075142Y0109472D03*
D409*
X0075142Y0109433D03*
X0075142Y0109197D03*
X0075142Y0109157D03*
D410*
X0075161Y0109236D03*
X0075161Y0109394D03*
D411*
X0075142Y0109354D03*
X0075142Y0109315D03*
X0075142Y0109276D03*
D412*
X0075161Y0109630D03*
D413*
X0075161Y0109984D03*
D414*
X0075142Y0110181D03*
D415*
X0075142Y0110220D03*
D416*
X0075161Y0110260D03*
D417*
X0075142Y0110299D03*
D418*
X0075142Y0110339D03*
D419*
X0075161Y0110378D03*
D420*
X0075142Y0110417D03*
D421*
X0075142Y0110457D03*
D422*
X0075161Y0110496D03*
D423*
X0075142Y0110535D03*
D424*
X0075142Y0110575D03*
D425*
X0075161Y0110614D03*
D426*
X0075142Y0110654D03*
D427*
X0075142Y0110693D03*
D428*
X0075142Y0110732D03*
X0075142Y0110772D03*
D429*
X0075142Y0110811D03*
D430*
X0075142Y0110850D03*
D431*
X0075161Y0110890D03*
D432*
X0075142Y0110929D03*
D433*
X0075142Y0110969D03*
D434*
X0075161Y0111008D03*
D435*
X0075142Y0111047D03*
D436*
X0075142Y0111087D03*
D437*
X0075161Y0111126D03*
D438*
X0075142Y0111165D03*
D439*
X0075142Y0111205D03*
D440*
X0075161Y0111244D03*
D441*
X0075142Y0111283D03*
D442*
X0075142Y0111323D03*
X0075142Y0112425D03*
D443*
X0075142Y0112386D03*
X0075142Y0111402D03*
X0075142Y0111362D03*
D444*
X0075142Y0111441D03*
X0075142Y0112346D03*
D445*
X0075142Y0112307D03*
X0075142Y0111480D03*
D446*
X0075161Y0111520D03*
D447*
X0075142Y0111559D03*
X0075142Y0112268D03*
D448*
X0075142Y0112228D03*
X0075142Y0111598D03*
D449*
X0075161Y0111638D03*
D450*
X0075142Y0111677D03*
X0075142Y0112189D03*
D451*
X0075142Y0112150D03*
X0075142Y0111717D03*
D452*
X0075161Y0111756D03*
D453*
X0075142Y0111795D03*
X0075142Y0112110D03*
D454*
X0075142Y0112071D03*
X0075142Y0111835D03*
D455*
X0075161Y0111874D03*
X0075161Y0112031D03*
D456*
X0075142Y0111992D03*
X0075142Y0111953D03*
X0075142Y0111913D03*
D457*
X0068469Y0112465D03*
D458*
X0075142Y0113370D03*
X0075142Y0113409D03*
X0081835Y0112465D03*
D459*
X0075142Y0113449D03*
X0075142Y0113488D03*
X0075142Y0113528D03*
X0075142Y0113567D03*
X0068449Y0112504D03*
D460*
X0075161Y0113606D03*
X0081854Y0112504D03*
D461*
X0081854Y0112543D03*
X0075161Y0113803D03*
X0075161Y0113843D03*
X0068429Y0112543D03*
D462*
X0068429Y0112583D03*
X0075161Y0114039D03*
D463*
X0075142Y0114079D03*
X0075142Y0114118D03*
X0075142Y0114157D03*
X0075142Y0114197D03*
X0081874Y0112583D03*
D464*
X0081874Y0112661D03*
X0075142Y0114512D03*
X0075142Y0114551D03*
X0075142Y0114591D03*
X0075142Y0114630D03*
X0068409Y0112661D03*
D465*
X0075142Y0112701D03*
D466*
X0075161Y0112780D03*
D467*
X0075142Y0115772D03*
X0075142Y0115811D03*
X0075142Y0115850D03*
X0075142Y0115890D03*
X0068370Y0112858D03*
D468*
X0068350Y0112937D03*
X0075161Y0116362D03*
D469*
X0075142Y0116520D03*
X0068331Y0113016D03*
D470*
X0068311Y0113094D03*
X0081972Y0113094D03*
D471*
X0075142Y0113094D03*
D472*
X0075161Y0113134D03*
D473*
X0075142Y0113173D03*
D474*
X0075161Y0113213D03*
D475*
X0075142Y0113252D03*
D476*
X0068272Y0113291D03*
D477*
X0075142Y0113291D03*
D478*
X0075142Y0113331D03*
D479*
X0068252Y0113370D03*
D480*
X0068232Y0113449D03*
D481*
X0068213Y0113528D03*
X0082071Y0113528D03*
D482*
X0075142Y0113646D03*
X0075142Y0113685D03*
X0075142Y0113724D03*
X0075142Y0113764D03*
D483*
X0068134Y0113882D03*
D484*
X0075142Y0113882D03*
X0075142Y0113921D03*
X0075142Y0113961D03*
X0075142Y0114000D03*
D485*
X0068114Y0113961D03*
D486*
X0068094Y0114039D03*
X0082189Y0114039D03*
D487*
X0075161Y0114236D03*
D488*
X0075161Y0114472D03*
D489*
X0075142Y0114709D03*
X0075142Y0114748D03*
X0075142Y0114787D03*
X0075142Y0114827D03*
D490*
X0075142Y0114945D03*
X0075142Y0114984D03*
X0075142Y0115024D03*
X0075142Y0115063D03*
D491*
X0075161Y0115299D03*
D492*
X0075161Y0115496D03*
X0075161Y0115535D03*
D493*
X0075142Y0115969D03*
X0075142Y0116008D03*
X0075142Y0116047D03*
X0075142Y0116087D03*
X0075142Y0116126D03*
D494*
X0075161Y0116480D03*
D495*
X0134000Y0059000D02*
X0149000Y0059000D01*
X0149000Y0034000D01*
X0134000Y0034000D01*
X0050000Y0046500D02*
X0050013Y0047555D01*
X0050052Y0048610D01*
X0050117Y0049663D01*
X0050207Y0050715D01*
X0050323Y0051764D01*
X0050465Y0052809D01*
X0050633Y0053851D01*
X0050826Y0054889D01*
X0051045Y0055921D01*
X0051289Y0056948D01*
X0051558Y0057969D01*
X0051852Y0058982D01*
X0052170Y0059988D01*
X0052514Y0060986D01*
X0052881Y0061975D01*
X0053273Y0062955D01*
X0053689Y0063925D01*
X0054128Y0064885D01*
X0054591Y0065833D01*
X0055077Y0066770D01*
X0055586Y0067695D01*
X0056118Y0068606D01*
X0056671Y0069505D01*
X0057247Y0070390D01*
X0057844Y0071260D01*
X0058462Y0072115D01*
X0059101Y0072955D01*
X0059761Y0073779D01*
X0060440Y0074586D01*
X0061139Y0075377D01*
X0061857Y0076150D01*
X0062594Y0076906D01*
X0063350Y0077643D01*
X0064123Y0078361D01*
X0064914Y0079060D01*
X0065721Y0079739D01*
X0066545Y0080399D01*
X0067385Y0081038D01*
X0068240Y0081656D01*
X0069110Y0082253D01*
X0069995Y0082829D01*
X0070894Y0083382D01*
X0071805Y0083914D01*
X0072730Y0084423D01*
X0073667Y0084909D01*
X0074615Y0085372D01*
X0075575Y0085811D01*
X0076545Y0086227D01*
X0077525Y0086619D01*
X0078514Y0086986D01*
X0079512Y0087330D01*
X0080518Y0087648D01*
X0081531Y0087942D01*
X0082552Y0088211D01*
X0083579Y0088455D01*
X0084611Y0088674D01*
X0085649Y0088867D01*
X0086691Y0089035D01*
X0087736Y0089177D01*
X0088785Y0089293D01*
X0089837Y0089383D01*
X0090890Y0089448D01*
X0091945Y0089487D01*
X0093000Y0089500D01*
X0094055Y0089487D01*
X0095110Y0089448D01*
X0096163Y0089383D01*
X0097215Y0089293D01*
X0098264Y0089177D01*
X0099309Y0089035D01*
X0100351Y0088867D01*
X0101389Y0088674D01*
X0102421Y0088455D01*
X0103448Y0088211D01*
X0104469Y0087942D01*
X0105482Y0087648D01*
X0106488Y0087330D01*
X0107486Y0086986D01*
X0108475Y0086619D01*
X0109455Y0086227D01*
X0110425Y0085811D01*
X0111385Y0085372D01*
X0112333Y0084909D01*
X0113270Y0084423D01*
X0114195Y0083914D01*
X0115106Y0083382D01*
X0116005Y0082829D01*
X0116890Y0082253D01*
X0117760Y0081656D01*
X0118615Y0081038D01*
X0119455Y0080399D01*
X0120279Y0079739D01*
X0121086Y0079060D01*
X0121877Y0078361D01*
X0122650Y0077643D01*
X0123406Y0076906D01*
X0124143Y0076150D01*
X0124861Y0075377D01*
X0125560Y0074586D01*
X0126239Y0073779D01*
X0126899Y0072955D01*
X0127538Y0072115D01*
X0128156Y0071260D01*
X0128753Y0070390D01*
X0129329Y0069505D01*
X0129882Y0068606D01*
X0130414Y0067695D01*
X0130923Y0066770D01*
X0131409Y0065833D01*
X0131872Y0064885D01*
X0132311Y0063925D01*
X0132727Y0062955D01*
X0133119Y0061975D01*
X0133486Y0060986D01*
X0133830Y0059988D01*
X0134148Y0058982D01*
X0134442Y0057969D01*
X0134711Y0056948D01*
X0134955Y0055921D01*
X0135174Y0054889D01*
X0135367Y0053851D01*
X0135535Y0052809D01*
X0135677Y0051764D01*
X0135793Y0050715D01*
X0135883Y0049663D01*
X0135948Y0048610D01*
X0135987Y0047555D01*
X0136000Y0046500D01*
X0135987Y0045445D01*
X0135948Y0044390D01*
X0135883Y0043337D01*
X0135793Y0042285D01*
X0135677Y0041236D01*
X0135535Y0040191D01*
X0135367Y0039149D01*
X0135174Y0038111D01*
X0134955Y0037079D01*
X0134711Y0036052D01*
X0134442Y0035031D01*
X0134148Y0034018D01*
X0133830Y0033012D01*
X0133486Y0032014D01*
X0133119Y0031025D01*
X0132727Y0030045D01*
X0132311Y0029075D01*
X0131872Y0028115D01*
X0131409Y0027167D01*
X0130923Y0026230D01*
X0130414Y0025305D01*
X0129882Y0024394D01*
X0129329Y0023495D01*
X0128753Y0022610D01*
X0128156Y0021740D01*
X0127538Y0020885D01*
X0126899Y0020045D01*
X0126239Y0019221D01*
X0125560Y0018414D01*
X0124861Y0017623D01*
X0124143Y0016850D01*
X0123406Y0016094D01*
X0122650Y0015357D01*
X0121877Y0014639D01*
X0121086Y0013940D01*
X0120279Y0013261D01*
X0119455Y0012601D01*
X0118615Y0011962D01*
X0117760Y0011344D01*
X0116890Y0010747D01*
X0116005Y0010171D01*
X0115106Y0009618D01*
X0114195Y0009086D01*
X0113270Y0008577D01*
X0112333Y0008091D01*
X0111385Y0007628D01*
X0110425Y0007189D01*
X0109455Y0006773D01*
X0108475Y0006381D01*
X0107486Y0006014D01*
X0106488Y0005670D01*
X0105482Y0005352D01*
X0104469Y0005058D01*
X0103448Y0004789D01*
X0102421Y0004545D01*
X0101389Y0004326D01*
X0100351Y0004133D01*
X0099309Y0003965D01*
X0098264Y0003823D01*
X0097215Y0003707D01*
X0096163Y0003617D01*
X0095110Y0003552D01*
X0094055Y0003513D01*
X0093000Y0003500D01*
X0091945Y0003513D01*
X0090890Y0003552D01*
X0089837Y0003617D01*
X0088785Y0003707D01*
X0087736Y0003823D01*
X0086691Y0003965D01*
X0085649Y0004133D01*
X0084611Y0004326D01*
X0083579Y0004545D01*
X0082552Y0004789D01*
X0081531Y0005058D01*
X0080518Y0005352D01*
X0079512Y0005670D01*
X0078514Y0006014D01*
X0077525Y0006381D01*
X0076545Y0006773D01*
X0075575Y0007189D01*
X0074615Y0007628D01*
X0073667Y0008091D01*
X0072730Y0008577D01*
X0071805Y0009086D01*
X0070894Y0009618D01*
X0069995Y0010171D01*
X0069110Y0010747D01*
X0068240Y0011344D01*
X0067385Y0011962D01*
X0066545Y0012601D01*
X0065721Y0013261D01*
X0064914Y0013940D01*
X0064123Y0014639D01*
X0063350Y0015357D01*
X0062594Y0016094D01*
X0061857Y0016850D01*
X0061139Y0017623D01*
X0060440Y0018414D01*
X0059761Y0019221D01*
X0059101Y0020045D01*
X0058462Y0020885D01*
X0057844Y0021740D01*
X0057247Y0022610D01*
X0056671Y0023495D01*
X0056118Y0024394D01*
X0055586Y0025305D01*
X0055077Y0026230D01*
X0054591Y0027167D01*
X0054128Y0028115D01*
X0053689Y0029075D01*
X0053273Y0030045D01*
X0052881Y0031025D01*
X0052514Y0032014D01*
X0052170Y0033012D01*
X0051852Y0034018D01*
X0051558Y0035031D01*
X0051289Y0036052D01*
X0051045Y0037079D01*
X0050826Y0038111D01*
X0050633Y0039149D01*
X0050465Y0040191D01*
X0050323Y0041236D01*
X0050207Y0042285D01*
X0050117Y0043337D01*
X0050052Y0044390D01*
X0050013Y0045445D01*
X0050000Y0046500D01*
M02*
