G75*
%MOIN*%
%OFA0B0*%
%FSLAX25Y25*%
%IPPOS*%
%LPD*%
%AMOC8*
5,1,8,0,0,1.08239X$1,22.5*
%
%ADD10C,0.01000*%
%ADD11C,0.00500*%
D10*
X0001500Y0101500D02*
X0001530Y0103954D01*
X0001620Y0106407D01*
X0001771Y0108856D01*
X0001982Y0111302D01*
X0002252Y0113741D01*
X0002582Y0116173D01*
X0002972Y0118596D01*
X0003421Y0121009D01*
X0003930Y0123410D01*
X0004497Y0125798D01*
X0005122Y0128171D01*
X0005806Y0130528D01*
X0006547Y0132868D01*
X0007346Y0135189D01*
X0008201Y0137490D01*
X0009112Y0139768D01*
X0010079Y0142024D01*
X0011101Y0144256D01*
X0012178Y0146461D01*
X0013308Y0148640D01*
X0014491Y0150790D01*
X0015727Y0152910D01*
X0017015Y0155000D01*
X0018353Y0157057D01*
X0019742Y0159081D01*
X0021179Y0161070D01*
X0022665Y0163023D01*
X0024199Y0164939D01*
X0025779Y0166817D01*
X0027405Y0168656D01*
X0029075Y0170454D01*
X0030789Y0172211D01*
X0032546Y0173925D01*
X0034344Y0175595D01*
X0036183Y0177221D01*
X0038061Y0178801D01*
X0039977Y0180335D01*
X0041930Y0181821D01*
X0043919Y0183258D01*
X0045943Y0184647D01*
X0048000Y0185985D01*
X0050090Y0187273D01*
X0052210Y0188509D01*
X0054360Y0189692D01*
X0056539Y0190822D01*
X0058744Y0191899D01*
X0060976Y0192921D01*
X0063232Y0193888D01*
X0065510Y0194799D01*
X0067811Y0195654D01*
X0070132Y0196453D01*
X0072472Y0197194D01*
X0074829Y0197878D01*
X0077202Y0198503D01*
X0079590Y0199070D01*
X0081991Y0199579D01*
X0084404Y0200028D01*
X0086827Y0200418D01*
X0089259Y0200748D01*
X0091698Y0201018D01*
X0094144Y0201229D01*
X0096593Y0201380D01*
X0099046Y0201470D01*
X0101500Y0201500D01*
X0103954Y0201470D01*
X0106407Y0201380D01*
X0108856Y0201229D01*
X0111302Y0201018D01*
X0113741Y0200748D01*
X0116173Y0200418D01*
X0118596Y0200028D01*
X0121009Y0199579D01*
X0123410Y0199070D01*
X0125798Y0198503D01*
X0128171Y0197878D01*
X0130528Y0197194D01*
X0132868Y0196453D01*
X0135189Y0195654D01*
X0137490Y0194799D01*
X0139768Y0193888D01*
X0142024Y0192921D01*
X0144256Y0191899D01*
X0146461Y0190822D01*
X0148640Y0189692D01*
X0150790Y0188509D01*
X0152910Y0187273D01*
X0155000Y0185985D01*
X0157057Y0184647D01*
X0159081Y0183258D01*
X0161070Y0181821D01*
X0163023Y0180335D01*
X0164939Y0178801D01*
X0166817Y0177221D01*
X0168656Y0175595D01*
X0170454Y0173925D01*
X0172211Y0172211D01*
X0173925Y0170454D01*
X0175595Y0168656D01*
X0177221Y0166817D01*
X0178801Y0164939D01*
X0180335Y0163023D01*
X0181821Y0161070D01*
X0183258Y0159081D01*
X0184647Y0157057D01*
X0185985Y0155000D01*
X0187273Y0152910D01*
X0188509Y0150790D01*
X0189692Y0148640D01*
X0190822Y0146461D01*
X0191899Y0144256D01*
X0192921Y0142024D01*
X0193888Y0139768D01*
X0194799Y0137490D01*
X0195654Y0135189D01*
X0196453Y0132868D01*
X0197194Y0130528D01*
X0197878Y0128171D01*
X0198503Y0125798D01*
X0199070Y0123410D01*
X0199579Y0121009D01*
X0200028Y0118596D01*
X0200418Y0116173D01*
X0200748Y0113741D01*
X0201018Y0111302D01*
X0201229Y0108856D01*
X0201380Y0106407D01*
X0201470Y0103954D01*
X0201500Y0101500D01*
X0201470Y0099046D01*
X0201380Y0096593D01*
X0201229Y0094144D01*
X0201018Y0091698D01*
X0200748Y0089259D01*
X0200418Y0086827D01*
X0200028Y0084404D01*
X0199579Y0081991D01*
X0199070Y0079590D01*
X0198503Y0077202D01*
X0197878Y0074829D01*
X0197194Y0072472D01*
X0196453Y0070132D01*
X0195654Y0067811D01*
X0194799Y0065510D01*
X0193888Y0063232D01*
X0192921Y0060976D01*
X0191899Y0058744D01*
X0190822Y0056539D01*
X0189692Y0054360D01*
X0188509Y0052210D01*
X0187273Y0050090D01*
X0185985Y0048000D01*
X0184647Y0045943D01*
X0183258Y0043919D01*
X0181821Y0041930D01*
X0180335Y0039977D01*
X0178801Y0038061D01*
X0177221Y0036183D01*
X0175595Y0034344D01*
X0173925Y0032546D01*
X0172211Y0030789D01*
X0170454Y0029075D01*
X0168656Y0027405D01*
X0166817Y0025779D01*
X0164939Y0024199D01*
X0163023Y0022665D01*
X0161070Y0021179D01*
X0159081Y0019742D01*
X0157057Y0018353D01*
X0155000Y0017015D01*
X0152910Y0015727D01*
X0150790Y0014491D01*
X0148640Y0013308D01*
X0146461Y0012178D01*
X0144256Y0011101D01*
X0142024Y0010079D01*
X0139768Y0009112D01*
X0137490Y0008201D01*
X0135189Y0007346D01*
X0132868Y0006547D01*
X0130528Y0005806D01*
X0128171Y0005122D01*
X0125798Y0004497D01*
X0123410Y0003930D01*
X0121009Y0003421D01*
X0118596Y0002972D01*
X0116173Y0002582D01*
X0113741Y0002252D01*
X0111302Y0001982D01*
X0108856Y0001771D01*
X0106407Y0001620D01*
X0103954Y0001530D01*
X0101500Y0001500D01*
X0099046Y0001530D01*
X0096593Y0001620D01*
X0094144Y0001771D01*
X0091698Y0001982D01*
X0089259Y0002252D01*
X0086827Y0002582D01*
X0084404Y0002972D01*
X0081991Y0003421D01*
X0079590Y0003930D01*
X0077202Y0004497D01*
X0074829Y0005122D01*
X0072472Y0005806D01*
X0070132Y0006547D01*
X0067811Y0007346D01*
X0065510Y0008201D01*
X0063232Y0009112D01*
X0060976Y0010079D01*
X0058744Y0011101D01*
X0056539Y0012178D01*
X0054360Y0013308D01*
X0052210Y0014491D01*
X0050090Y0015727D01*
X0048000Y0017015D01*
X0045943Y0018353D01*
X0043919Y0019742D01*
X0041930Y0021179D01*
X0039977Y0022665D01*
X0038061Y0024199D01*
X0036183Y0025779D01*
X0034344Y0027405D01*
X0032546Y0029075D01*
X0030789Y0030789D01*
X0029075Y0032546D01*
X0027405Y0034344D01*
X0025779Y0036183D01*
X0024199Y0038061D01*
X0022665Y0039977D01*
X0021179Y0041930D01*
X0019742Y0043919D01*
X0018353Y0045943D01*
X0017015Y0048000D01*
X0015727Y0050090D01*
X0014491Y0052210D01*
X0013308Y0054360D01*
X0012178Y0056539D01*
X0011101Y0058744D01*
X0010079Y0060976D01*
X0009112Y0063232D01*
X0008201Y0065510D01*
X0007346Y0067811D01*
X0006547Y0070132D01*
X0005806Y0072472D01*
X0005122Y0074829D01*
X0004497Y0077202D01*
X0003930Y0079590D01*
X0003421Y0081991D01*
X0002972Y0084404D01*
X0002582Y0086827D01*
X0002252Y0089259D01*
X0001982Y0091698D01*
X0001771Y0094144D01*
X0001620Y0096593D01*
X0001530Y0099046D01*
X0001500Y0101500D01*
D11*
X0050000Y0046500D02*
X0050013Y0047555D01*
X0050052Y0048610D01*
X0050117Y0049663D01*
X0050207Y0050715D01*
X0050323Y0051764D01*
X0050465Y0052809D01*
X0050633Y0053851D01*
X0050826Y0054889D01*
X0051045Y0055921D01*
X0051289Y0056948D01*
X0051558Y0057969D01*
X0051852Y0058982D01*
X0052170Y0059988D01*
X0052514Y0060986D01*
X0052881Y0061975D01*
X0053273Y0062955D01*
X0053689Y0063925D01*
X0054128Y0064885D01*
X0054591Y0065833D01*
X0055077Y0066770D01*
X0055586Y0067695D01*
X0056118Y0068606D01*
X0056671Y0069505D01*
X0057247Y0070390D01*
X0057844Y0071260D01*
X0058462Y0072115D01*
X0059101Y0072955D01*
X0059761Y0073779D01*
X0060440Y0074586D01*
X0061139Y0075377D01*
X0061857Y0076150D01*
X0062594Y0076906D01*
X0063350Y0077643D01*
X0064123Y0078361D01*
X0064914Y0079060D01*
X0065721Y0079739D01*
X0066545Y0080399D01*
X0067385Y0081038D01*
X0068240Y0081656D01*
X0069110Y0082253D01*
X0069995Y0082829D01*
X0070894Y0083382D01*
X0071805Y0083914D01*
X0072730Y0084423D01*
X0073667Y0084909D01*
X0074615Y0085372D01*
X0075575Y0085811D01*
X0076545Y0086227D01*
X0077525Y0086619D01*
X0078514Y0086986D01*
X0079512Y0087330D01*
X0080518Y0087648D01*
X0081531Y0087942D01*
X0082552Y0088211D01*
X0083579Y0088455D01*
X0084611Y0088674D01*
X0085649Y0088867D01*
X0086691Y0089035D01*
X0087736Y0089177D01*
X0088785Y0089293D01*
X0089837Y0089383D01*
X0090890Y0089448D01*
X0091945Y0089487D01*
X0093000Y0089500D01*
X0094055Y0089487D01*
X0095110Y0089448D01*
X0096163Y0089383D01*
X0097215Y0089293D01*
X0098264Y0089177D01*
X0099309Y0089035D01*
X0100351Y0088867D01*
X0101389Y0088674D01*
X0102421Y0088455D01*
X0103448Y0088211D01*
X0104469Y0087942D01*
X0105482Y0087648D01*
X0106488Y0087330D01*
X0107486Y0086986D01*
X0108475Y0086619D01*
X0109455Y0086227D01*
X0110425Y0085811D01*
X0111385Y0085372D01*
X0112333Y0084909D01*
X0113270Y0084423D01*
X0114195Y0083914D01*
X0115106Y0083382D01*
X0116005Y0082829D01*
X0116890Y0082253D01*
X0117760Y0081656D01*
X0118615Y0081038D01*
X0119455Y0080399D01*
X0120279Y0079739D01*
X0121086Y0079060D01*
X0121877Y0078361D01*
X0122650Y0077643D01*
X0123406Y0076906D01*
X0124143Y0076150D01*
X0124861Y0075377D01*
X0125560Y0074586D01*
X0126239Y0073779D01*
X0126899Y0072955D01*
X0127538Y0072115D01*
X0128156Y0071260D01*
X0128753Y0070390D01*
X0129329Y0069505D01*
X0129882Y0068606D01*
X0130414Y0067695D01*
X0130923Y0066770D01*
X0131409Y0065833D01*
X0131872Y0064885D01*
X0132311Y0063925D01*
X0132727Y0062955D01*
X0133119Y0061975D01*
X0133486Y0060986D01*
X0133830Y0059988D01*
X0134148Y0058982D01*
X0134442Y0057969D01*
X0134711Y0056948D01*
X0134955Y0055921D01*
X0135174Y0054889D01*
X0135367Y0053851D01*
X0135535Y0052809D01*
X0135677Y0051764D01*
X0135793Y0050715D01*
X0135883Y0049663D01*
X0135948Y0048610D01*
X0135987Y0047555D01*
X0136000Y0046500D01*
X0135987Y0045445D01*
X0135948Y0044390D01*
X0135883Y0043337D01*
X0135793Y0042285D01*
X0135677Y0041236D01*
X0135535Y0040191D01*
X0135367Y0039149D01*
X0135174Y0038111D01*
X0134955Y0037079D01*
X0134711Y0036052D01*
X0134442Y0035031D01*
X0134148Y0034018D01*
X0133830Y0033012D01*
X0133486Y0032014D01*
X0133119Y0031025D01*
X0132727Y0030045D01*
X0132311Y0029075D01*
X0131872Y0028115D01*
X0131409Y0027167D01*
X0130923Y0026230D01*
X0130414Y0025305D01*
X0129882Y0024394D01*
X0129329Y0023495D01*
X0128753Y0022610D01*
X0128156Y0021740D01*
X0127538Y0020885D01*
X0126899Y0020045D01*
X0126239Y0019221D01*
X0125560Y0018414D01*
X0124861Y0017623D01*
X0124143Y0016850D01*
X0123406Y0016094D01*
X0122650Y0015357D01*
X0121877Y0014639D01*
X0121086Y0013940D01*
X0120279Y0013261D01*
X0119455Y0012601D01*
X0118615Y0011962D01*
X0117760Y0011344D01*
X0116890Y0010747D01*
X0116005Y0010171D01*
X0115106Y0009618D01*
X0114195Y0009086D01*
X0113270Y0008577D01*
X0112333Y0008091D01*
X0111385Y0007628D01*
X0110425Y0007189D01*
X0109455Y0006773D01*
X0108475Y0006381D01*
X0107486Y0006014D01*
X0106488Y0005670D01*
X0105482Y0005352D01*
X0104469Y0005058D01*
X0103448Y0004789D01*
X0102421Y0004545D01*
X0101389Y0004326D01*
X0100351Y0004133D01*
X0099309Y0003965D01*
X0098264Y0003823D01*
X0097215Y0003707D01*
X0096163Y0003617D01*
X0095110Y0003552D01*
X0094055Y0003513D01*
X0093000Y0003500D01*
X0091945Y0003513D01*
X0090890Y0003552D01*
X0089837Y0003617D01*
X0088785Y0003707D01*
X0087736Y0003823D01*
X0086691Y0003965D01*
X0085649Y0004133D01*
X0084611Y0004326D01*
X0083579Y0004545D01*
X0082552Y0004789D01*
X0081531Y0005058D01*
X0080518Y0005352D01*
X0079512Y0005670D01*
X0078514Y0006014D01*
X0077525Y0006381D01*
X0076545Y0006773D01*
X0075575Y0007189D01*
X0074615Y0007628D01*
X0073667Y0008091D01*
X0072730Y0008577D01*
X0071805Y0009086D01*
X0070894Y0009618D01*
X0069995Y0010171D01*
X0069110Y0010747D01*
X0068240Y0011344D01*
X0067385Y0011962D01*
X0066545Y0012601D01*
X0065721Y0013261D01*
X0064914Y0013940D01*
X0064123Y0014639D01*
X0063350Y0015357D01*
X0062594Y0016094D01*
X0061857Y0016850D01*
X0061139Y0017623D01*
X0060440Y0018414D01*
X0059761Y0019221D01*
X0059101Y0020045D01*
X0058462Y0020885D01*
X0057844Y0021740D01*
X0057247Y0022610D01*
X0056671Y0023495D01*
X0056118Y0024394D01*
X0055586Y0025305D01*
X0055077Y0026230D01*
X0054591Y0027167D01*
X0054128Y0028115D01*
X0053689Y0029075D01*
X0053273Y0030045D01*
X0052881Y0031025D01*
X0052514Y0032014D01*
X0052170Y0033012D01*
X0051852Y0034018D01*
X0051558Y0035031D01*
X0051289Y0036052D01*
X0051045Y0037079D01*
X0050826Y0038111D01*
X0050633Y0039149D01*
X0050465Y0040191D01*
X0050323Y0041236D01*
X0050207Y0042285D01*
X0050117Y0043337D01*
X0050052Y0044390D01*
X0050013Y0045445D01*
X0050000Y0046500D01*
X0134000Y0034000D02*
X0149000Y0034000D01*
X0149000Y0059000D01*
X0134000Y0059000D01*
M02*
