%
M48
M72
T01C0.02756
T02C0.03200
T03C0.04000
T04C0.05000
%
T01
X141500Y152270
T02
X67964Y33305
X75036Y26234
X87964Y33305
X95036Y26234
X107964Y33305
X115036Y26234
X127964Y33305
X135036Y26234
X135036Y46234
X127964Y53305
X135036Y66234
X127964Y73305
X135036Y86234
X127964Y93305
X135036Y106234
X127964Y113305
X115036Y106234
X107964Y113305
X26500Y127270
X39000Y127270
X51500Y127270
X64000Y127270
X67964Y113305
X75036Y106234
X67964Y93305
X75036Y86234
X67964Y73305
X75036Y66234
X67964Y53305
X75036Y46234
X87964Y53305
X95036Y46234
X107964Y53305
X115036Y46234
X115036Y66234
X107964Y73305
X115036Y86234
X107964Y93305
X95036Y86234
X87964Y93305
X95036Y106234
X87964Y113305
X87964Y73305
X95036Y66234
X161500Y112270
X191500Y112270
X64000Y157270
X51500Y157270
X39000Y157270
X26500Y157270
T03
X41500Y177270
X51500Y177270
X61500Y177270
X166500Y127270
X176500Y127270
X176500Y137270
X166500Y137270
X186500Y137270
X186500Y127270
T04
X166500Y167270
X86500Y167270
M30
