G75*
%MOIN*%
%OFA0B0*%
%FSLAX25Y25*%
%IPPOS*%
%LPD*%
%AMOC8*
5,1,8,0,0,1.08239X$1,22.5*
%
%ADD10C,0.01000*%
%ADD11R,0.05512X0.01969*%
D10*
X0001500Y0114770D02*
X0001530Y0117224D01*
X0001620Y0119677D01*
X0001771Y0122126D01*
X0001982Y0124572D01*
X0002252Y0127011D01*
X0002582Y0129443D01*
X0002972Y0131866D01*
X0003421Y0134279D01*
X0003930Y0136680D01*
X0004497Y0139068D01*
X0005122Y0141441D01*
X0005806Y0143798D01*
X0006547Y0146138D01*
X0007346Y0148459D01*
X0008201Y0150760D01*
X0009112Y0153038D01*
X0010079Y0155294D01*
X0011101Y0157526D01*
X0012178Y0159731D01*
X0013308Y0161910D01*
X0014491Y0164060D01*
X0015727Y0166180D01*
X0017015Y0168270D01*
X0018353Y0170327D01*
X0019742Y0172351D01*
X0021179Y0174340D01*
X0022665Y0176293D01*
X0024199Y0178209D01*
X0025779Y0180087D01*
X0027405Y0181926D01*
X0029075Y0183724D01*
X0030789Y0185481D01*
X0032546Y0187195D01*
X0034344Y0188865D01*
X0036183Y0190491D01*
X0038061Y0192071D01*
X0039977Y0193605D01*
X0041930Y0195091D01*
X0043919Y0196528D01*
X0045943Y0197917D01*
X0048000Y0199255D01*
X0050090Y0200543D01*
X0052210Y0201779D01*
X0054360Y0202962D01*
X0056539Y0204092D01*
X0058744Y0205169D01*
X0060976Y0206191D01*
X0063232Y0207158D01*
X0065510Y0208069D01*
X0067811Y0208924D01*
X0070132Y0209723D01*
X0072472Y0210464D01*
X0074829Y0211148D01*
X0077202Y0211773D01*
X0079590Y0212340D01*
X0081991Y0212849D01*
X0084404Y0213298D01*
X0086827Y0213688D01*
X0089259Y0214018D01*
X0091698Y0214288D01*
X0094144Y0214499D01*
X0096593Y0214650D01*
X0099046Y0214740D01*
X0101500Y0214770D01*
X0103954Y0214740D01*
X0106407Y0214650D01*
X0108856Y0214499D01*
X0111302Y0214288D01*
X0113741Y0214018D01*
X0116173Y0213688D01*
X0118596Y0213298D01*
X0121009Y0212849D01*
X0123410Y0212340D01*
X0125798Y0211773D01*
X0128171Y0211148D01*
X0130528Y0210464D01*
X0132868Y0209723D01*
X0135189Y0208924D01*
X0137490Y0208069D01*
X0139768Y0207158D01*
X0142024Y0206191D01*
X0144256Y0205169D01*
X0146461Y0204092D01*
X0148640Y0202962D01*
X0150790Y0201779D01*
X0152910Y0200543D01*
X0155000Y0199255D01*
X0157057Y0197917D01*
X0159081Y0196528D01*
X0161070Y0195091D01*
X0163023Y0193605D01*
X0164939Y0192071D01*
X0166817Y0190491D01*
X0168656Y0188865D01*
X0170454Y0187195D01*
X0172211Y0185481D01*
X0173925Y0183724D01*
X0175595Y0181926D01*
X0177221Y0180087D01*
X0178801Y0178209D01*
X0180335Y0176293D01*
X0181821Y0174340D01*
X0183258Y0172351D01*
X0184647Y0170327D01*
X0185985Y0168270D01*
X0187273Y0166180D01*
X0188509Y0164060D01*
X0189692Y0161910D01*
X0190822Y0159731D01*
X0191899Y0157526D01*
X0192921Y0155294D01*
X0193888Y0153038D01*
X0194799Y0150760D01*
X0195654Y0148459D01*
X0196453Y0146138D01*
X0197194Y0143798D01*
X0197878Y0141441D01*
X0198503Y0139068D01*
X0199070Y0136680D01*
X0199579Y0134279D01*
X0200028Y0131866D01*
X0200418Y0129443D01*
X0200748Y0127011D01*
X0201018Y0124572D01*
X0201229Y0122126D01*
X0201380Y0119677D01*
X0201470Y0117224D01*
X0201500Y0114770D01*
X0201470Y0112316D01*
X0201380Y0109863D01*
X0201229Y0107414D01*
X0201018Y0104968D01*
X0200748Y0102529D01*
X0200418Y0100097D01*
X0200028Y0097674D01*
X0199579Y0095261D01*
X0199070Y0092860D01*
X0198503Y0090472D01*
X0197878Y0088099D01*
X0197194Y0085742D01*
X0196453Y0083402D01*
X0195654Y0081081D01*
X0194799Y0078780D01*
X0193888Y0076502D01*
X0192921Y0074246D01*
X0191899Y0072014D01*
X0190822Y0069809D01*
X0189692Y0067630D01*
X0188509Y0065480D01*
X0187273Y0063360D01*
X0185985Y0061270D01*
X0184647Y0059213D01*
X0183258Y0057189D01*
X0181821Y0055200D01*
X0180335Y0053247D01*
X0178801Y0051331D01*
X0177221Y0049453D01*
X0175595Y0047614D01*
X0173925Y0045816D01*
X0172211Y0044059D01*
X0170454Y0042345D01*
X0168656Y0040675D01*
X0166817Y0039049D01*
X0164939Y0037469D01*
X0163023Y0035935D01*
X0161070Y0034449D01*
X0159081Y0033012D01*
X0157057Y0031623D01*
X0155000Y0030285D01*
X0152910Y0028997D01*
X0150790Y0027761D01*
X0148640Y0026578D01*
X0146461Y0025448D01*
X0144256Y0024371D01*
X0142024Y0023349D01*
X0139768Y0022382D01*
X0137490Y0021471D01*
X0135189Y0020616D01*
X0132868Y0019817D01*
X0130528Y0019076D01*
X0128171Y0018392D01*
X0125798Y0017767D01*
X0123410Y0017200D01*
X0121009Y0016691D01*
X0118596Y0016242D01*
X0116173Y0015852D01*
X0113741Y0015522D01*
X0111302Y0015252D01*
X0108856Y0015041D01*
X0106407Y0014890D01*
X0103954Y0014800D01*
X0101500Y0014770D01*
X0099046Y0014800D01*
X0096593Y0014890D01*
X0094144Y0015041D01*
X0091698Y0015252D01*
X0089259Y0015522D01*
X0086827Y0015852D01*
X0084404Y0016242D01*
X0081991Y0016691D01*
X0079590Y0017200D01*
X0077202Y0017767D01*
X0074829Y0018392D01*
X0072472Y0019076D01*
X0070132Y0019817D01*
X0067811Y0020616D01*
X0065510Y0021471D01*
X0063232Y0022382D01*
X0060976Y0023349D01*
X0058744Y0024371D01*
X0056539Y0025448D01*
X0054360Y0026578D01*
X0052210Y0027761D01*
X0050090Y0028997D01*
X0048000Y0030285D01*
X0045943Y0031623D01*
X0043919Y0033012D01*
X0041930Y0034449D01*
X0039977Y0035935D01*
X0038061Y0037469D01*
X0036183Y0039049D01*
X0034344Y0040675D01*
X0032546Y0042345D01*
X0030789Y0044059D01*
X0029075Y0045816D01*
X0027405Y0047614D01*
X0025779Y0049453D01*
X0024199Y0051331D01*
X0022665Y0053247D01*
X0021179Y0055200D01*
X0019742Y0057189D01*
X0018353Y0059213D01*
X0017015Y0061270D01*
X0015727Y0063360D01*
X0014491Y0065480D01*
X0013308Y0067630D01*
X0012178Y0069809D01*
X0011101Y0072014D01*
X0010079Y0074246D01*
X0009112Y0076502D01*
X0008201Y0078780D01*
X0007346Y0081081D01*
X0006547Y0083402D01*
X0005806Y0085742D01*
X0005122Y0088099D01*
X0004497Y0090472D01*
X0003930Y0092860D01*
X0003421Y0095261D01*
X0002972Y0097674D01*
X0002582Y0100097D01*
X0002252Y0102529D01*
X0001982Y0104968D01*
X0001771Y0107414D01*
X0001620Y0109863D01*
X0001530Y0112316D01*
X0001500Y0114770D01*
D11*
X0088098Y0134770D03*
X0088098Y0139730D03*
X0088098Y0144730D03*
X0088098Y0149730D03*
X0114902Y0149770D03*
X0114902Y0144770D03*
X0114902Y0139770D03*
X0114902Y0134770D03*
M02*
