G75*
%MOIN*%
%OFA0B0*%
%FSLAX25Y25*%
%IPPOS*%
%LPD*%
%AMOC8*
5,1,8,0,0,1.08239X$1,22.5*
%
%ADD10C,0.01000*%
%ADD11C,0.08800*%
%ADD12OC8,0.06800*%
%ADD13C,0.01200*%
%ADD14OC8,0.06000*%
%ADD15C,0.06800*%
%ADD16C,0.05156*%
D10*
X0001500Y0114770D02*
X0001530Y0117224D01*
X0001620Y0119677D01*
X0001771Y0122126D01*
X0001982Y0124572D01*
X0002252Y0127011D01*
X0002582Y0129443D01*
X0002972Y0131866D01*
X0003421Y0134279D01*
X0003930Y0136680D01*
X0004497Y0139068D01*
X0005122Y0141441D01*
X0005806Y0143798D01*
X0006547Y0146138D01*
X0007346Y0148459D01*
X0008201Y0150760D01*
X0009112Y0153038D01*
X0010079Y0155294D01*
X0011101Y0157526D01*
X0012178Y0159731D01*
X0013308Y0161910D01*
X0014491Y0164060D01*
X0015727Y0166180D01*
X0017015Y0168270D01*
X0018353Y0170327D01*
X0019742Y0172351D01*
X0021179Y0174340D01*
X0022665Y0176293D01*
X0024199Y0178209D01*
X0025779Y0180087D01*
X0027405Y0181926D01*
X0029075Y0183724D01*
X0030789Y0185481D01*
X0032546Y0187195D01*
X0034344Y0188865D01*
X0036183Y0190491D01*
X0038061Y0192071D01*
X0039977Y0193605D01*
X0041930Y0195091D01*
X0043919Y0196528D01*
X0045943Y0197917D01*
X0048000Y0199255D01*
X0050090Y0200543D01*
X0052210Y0201779D01*
X0054360Y0202962D01*
X0056539Y0204092D01*
X0058744Y0205169D01*
X0060976Y0206191D01*
X0063232Y0207158D01*
X0065510Y0208069D01*
X0067811Y0208924D01*
X0070132Y0209723D01*
X0072472Y0210464D01*
X0074829Y0211148D01*
X0077202Y0211773D01*
X0079590Y0212340D01*
X0081991Y0212849D01*
X0084404Y0213298D01*
X0086827Y0213688D01*
X0089259Y0214018D01*
X0091698Y0214288D01*
X0094144Y0214499D01*
X0096593Y0214650D01*
X0099046Y0214740D01*
X0101500Y0214770D01*
X0103954Y0214740D01*
X0106407Y0214650D01*
X0108856Y0214499D01*
X0111302Y0214288D01*
X0113741Y0214018D01*
X0116173Y0213688D01*
X0118596Y0213298D01*
X0121009Y0212849D01*
X0123410Y0212340D01*
X0125798Y0211773D01*
X0128171Y0211148D01*
X0130528Y0210464D01*
X0132868Y0209723D01*
X0135189Y0208924D01*
X0137490Y0208069D01*
X0139768Y0207158D01*
X0142024Y0206191D01*
X0144256Y0205169D01*
X0146461Y0204092D01*
X0148640Y0202962D01*
X0150790Y0201779D01*
X0152910Y0200543D01*
X0155000Y0199255D01*
X0157057Y0197917D01*
X0159081Y0196528D01*
X0161070Y0195091D01*
X0163023Y0193605D01*
X0164939Y0192071D01*
X0166817Y0190491D01*
X0168656Y0188865D01*
X0170454Y0187195D01*
X0172211Y0185481D01*
X0173925Y0183724D01*
X0175595Y0181926D01*
X0177221Y0180087D01*
X0178801Y0178209D01*
X0180335Y0176293D01*
X0181821Y0174340D01*
X0183258Y0172351D01*
X0184647Y0170327D01*
X0185985Y0168270D01*
X0187273Y0166180D01*
X0188509Y0164060D01*
X0189692Y0161910D01*
X0190822Y0159731D01*
X0191899Y0157526D01*
X0192921Y0155294D01*
X0193888Y0153038D01*
X0194799Y0150760D01*
X0195654Y0148459D01*
X0196453Y0146138D01*
X0197194Y0143798D01*
X0197878Y0141441D01*
X0198503Y0139068D01*
X0199070Y0136680D01*
X0199579Y0134279D01*
X0200028Y0131866D01*
X0200418Y0129443D01*
X0200748Y0127011D01*
X0201018Y0124572D01*
X0201229Y0122126D01*
X0201380Y0119677D01*
X0201470Y0117224D01*
X0201500Y0114770D01*
X0201470Y0112316D01*
X0201380Y0109863D01*
X0201229Y0107414D01*
X0201018Y0104968D01*
X0200748Y0102529D01*
X0200418Y0100097D01*
X0200028Y0097674D01*
X0199579Y0095261D01*
X0199070Y0092860D01*
X0198503Y0090472D01*
X0197878Y0088099D01*
X0197194Y0085742D01*
X0196453Y0083402D01*
X0195654Y0081081D01*
X0194799Y0078780D01*
X0193888Y0076502D01*
X0192921Y0074246D01*
X0191899Y0072014D01*
X0190822Y0069809D01*
X0189692Y0067630D01*
X0188509Y0065480D01*
X0187273Y0063360D01*
X0185985Y0061270D01*
X0184647Y0059213D01*
X0183258Y0057189D01*
X0181821Y0055200D01*
X0180335Y0053247D01*
X0178801Y0051331D01*
X0177221Y0049453D01*
X0175595Y0047614D01*
X0173925Y0045816D01*
X0172211Y0044059D01*
X0170454Y0042345D01*
X0168656Y0040675D01*
X0166817Y0039049D01*
X0164939Y0037469D01*
X0163023Y0035935D01*
X0161070Y0034449D01*
X0159081Y0033012D01*
X0157057Y0031623D01*
X0155000Y0030285D01*
X0152910Y0028997D01*
X0150790Y0027761D01*
X0148640Y0026578D01*
X0146461Y0025448D01*
X0144256Y0024371D01*
X0142024Y0023349D01*
X0139768Y0022382D01*
X0137490Y0021471D01*
X0135189Y0020616D01*
X0132868Y0019817D01*
X0130528Y0019076D01*
X0128171Y0018392D01*
X0125798Y0017767D01*
X0123410Y0017200D01*
X0121009Y0016691D01*
X0118596Y0016242D01*
X0116173Y0015852D01*
X0113741Y0015522D01*
X0111302Y0015252D01*
X0108856Y0015041D01*
X0106407Y0014890D01*
X0103954Y0014800D01*
X0101500Y0014770D01*
X0099046Y0014800D01*
X0096593Y0014890D01*
X0094144Y0015041D01*
X0091698Y0015252D01*
X0089259Y0015522D01*
X0086827Y0015852D01*
X0084404Y0016242D01*
X0081991Y0016691D01*
X0079590Y0017200D01*
X0077202Y0017767D01*
X0074829Y0018392D01*
X0072472Y0019076D01*
X0070132Y0019817D01*
X0067811Y0020616D01*
X0065510Y0021471D01*
X0063232Y0022382D01*
X0060976Y0023349D01*
X0058744Y0024371D01*
X0056539Y0025448D01*
X0054360Y0026578D01*
X0052210Y0027761D01*
X0050090Y0028997D01*
X0048000Y0030285D01*
X0045943Y0031623D01*
X0043919Y0033012D01*
X0041930Y0034449D01*
X0039977Y0035935D01*
X0038061Y0037469D01*
X0036183Y0039049D01*
X0034344Y0040675D01*
X0032546Y0042345D01*
X0030789Y0044059D01*
X0029075Y0045816D01*
X0027405Y0047614D01*
X0025779Y0049453D01*
X0024199Y0051331D01*
X0022665Y0053247D01*
X0021179Y0055200D01*
X0019742Y0057189D01*
X0018353Y0059213D01*
X0017015Y0061270D01*
X0015727Y0063360D01*
X0014491Y0065480D01*
X0013308Y0067630D01*
X0012178Y0069809D01*
X0011101Y0072014D01*
X0010079Y0074246D01*
X0009112Y0076502D01*
X0008201Y0078780D01*
X0007346Y0081081D01*
X0006547Y0083402D01*
X0005806Y0085742D01*
X0005122Y0088099D01*
X0004497Y0090472D01*
X0003930Y0092860D01*
X0003421Y0095261D01*
X0002972Y0097674D01*
X0002582Y0100097D01*
X0002252Y0102529D01*
X0001982Y0104968D01*
X0001771Y0107414D01*
X0001620Y0109863D01*
X0001530Y0112316D01*
X0001500Y0114770D01*
D11*
X0086500Y0167270D03*
X0166500Y0167270D03*
D12*
X0166500Y0137270D03*
X0176500Y0137270D03*
X0186500Y0137270D03*
X0186500Y0127270D03*
X0176500Y0127270D03*
X0166500Y0127270D03*
D13*
X0068358Y0031506D02*
X0068958Y0030906D01*
X0066970Y0030906D01*
X0065565Y0032311D01*
X0065565Y0034299D01*
X0066970Y0035704D01*
X0068958Y0035704D01*
X0070363Y0034299D01*
X0070363Y0032311D01*
X0068958Y0030906D01*
X0068585Y0031806D01*
X0067343Y0031806D01*
X0066465Y0032684D01*
X0066465Y0033926D01*
X0067343Y0034804D01*
X0068585Y0034804D01*
X0069463Y0033926D01*
X0069463Y0032684D01*
X0068585Y0031806D01*
X0068212Y0032706D01*
X0067716Y0032706D01*
X0067365Y0033057D01*
X0067365Y0033553D01*
X0067716Y0033904D01*
X0068212Y0033904D01*
X0068563Y0033553D01*
X0068563Y0033057D01*
X0068212Y0032706D01*
X0075430Y0024435D02*
X0076030Y0023835D01*
X0074042Y0023835D01*
X0072637Y0025240D01*
X0072637Y0027228D01*
X0074042Y0028633D01*
X0076030Y0028633D01*
X0077435Y0027228D01*
X0077435Y0025240D01*
X0076030Y0023835D01*
X0075657Y0024735D01*
X0074415Y0024735D01*
X0073537Y0025613D01*
X0073537Y0026855D01*
X0074415Y0027733D01*
X0075657Y0027733D01*
X0076535Y0026855D01*
X0076535Y0025613D01*
X0075657Y0024735D01*
X0075284Y0025635D01*
X0074788Y0025635D01*
X0074437Y0025986D01*
X0074437Y0026482D01*
X0074788Y0026833D01*
X0075284Y0026833D01*
X0075635Y0026482D01*
X0075635Y0025986D01*
X0075284Y0025635D01*
X0088358Y0031506D02*
X0088958Y0030906D01*
X0086970Y0030906D01*
X0085565Y0032311D01*
X0085565Y0034299D01*
X0086970Y0035704D01*
X0088958Y0035704D01*
X0090363Y0034299D01*
X0090363Y0032311D01*
X0088958Y0030906D01*
X0088585Y0031806D01*
X0087343Y0031806D01*
X0086465Y0032684D01*
X0086465Y0033926D01*
X0087343Y0034804D01*
X0088585Y0034804D01*
X0089463Y0033926D01*
X0089463Y0032684D01*
X0088585Y0031806D01*
X0088212Y0032706D01*
X0087716Y0032706D01*
X0087365Y0033057D01*
X0087365Y0033553D01*
X0087716Y0033904D01*
X0088212Y0033904D01*
X0088563Y0033553D01*
X0088563Y0033057D01*
X0088212Y0032706D01*
X0095430Y0024435D02*
X0096030Y0023835D01*
X0094042Y0023835D01*
X0092637Y0025240D01*
X0092637Y0027228D01*
X0094042Y0028633D01*
X0096030Y0028633D01*
X0097435Y0027228D01*
X0097435Y0025240D01*
X0096030Y0023835D01*
X0095657Y0024735D01*
X0094415Y0024735D01*
X0093537Y0025613D01*
X0093537Y0026855D01*
X0094415Y0027733D01*
X0095657Y0027733D01*
X0096535Y0026855D01*
X0096535Y0025613D01*
X0095657Y0024735D01*
X0095284Y0025635D01*
X0094788Y0025635D01*
X0094437Y0025986D01*
X0094437Y0026482D01*
X0094788Y0026833D01*
X0095284Y0026833D01*
X0095635Y0026482D01*
X0095635Y0025986D01*
X0095284Y0025635D01*
X0108358Y0031506D02*
X0108958Y0030906D01*
X0106970Y0030906D01*
X0105565Y0032311D01*
X0105565Y0034299D01*
X0106970Y0035704D01*
X0108958Y0035704D01*
X0110363Y0034299D01*
X0110363Y0032311D01*
X0108958Y0030906D01*
X0108585Y0031806D01*
X0107343Y0031806D01*
X0106465Y0032684D01*
X0106465Y0033926D01*
X0107343Y0034804D01*
X0108585Y0034804D01*
X0109463Y0033926D01*
X0109463Y0032684D01*
X0108585Y0031806D01*
X0108212Y0032706D01*
X0107716Y0032706D01*
X0107365Y0033057D01*
X0107365Y0033553D01*
X0107716Y0033904D01*
X0108212Y0033904D01*
X0108563Y0033553D01*
X0108563Y0033057D01*
X0108212Y0032706D01*
X0115430Y0024435D02*
X0116030Y0023835D01*
X0114042Y0023835D01*
X0112637Y0025240D01*
X0112637Y0027228D01*
X0114042Y0028633D01*
X0116030Y0028633D01*
X0117435Y0027228D01*
X0117435Y0025240D01*
X0116030Y0023835D01*
X0115657Y0024735D01*
X0114415Y0024735D01*
X0113537Y0025613D01*
X0113537Y0026855D01*
X0114415Y0027733D01*
X0115657Y0027733D01*
X0116535Y0026855D01*
X0116535Y0025613D01*
X0115657Y0024735D01*
X0115284Y0025635D01*
X0114788Y0025635D01*
X0114437Y0025986D01*
X0114437Y0026482D01*
X0114788Y0026833D01*
X0115284Y0026833D01*
X0115635Y0026482D01*
X0115635Y0025986D01*
X0115284Y0025635D01*
X0128358Y0031506D02*
X0128958Y0030906D01*
X0126970Y0030906D01*
X0125565Y0032311D01*
X0125565Y0034299D01*
X0126970Y0035704D01*
X0128958Y0035704D01*
X0130363Y0034299D01*
X0130363Y0032311D01*
X0128958Y0030906D01*
X0128585Y0031806D01*
X0127343Y0031806D01*
X0126465Y0032684D01*
X0126465Y0033926D01*
X0127343Y0034804D01*
X0128585Y0034804D01*
X0129463Y0033926D01*
X0129463Y0032684D01*
X0128585Y0031806D01*
X0128212Y0032706D01*
X0127716Y0032706D01*
X0127365Y0033057D01*
X0127365Y0033553D01*
X0127716Y0033904D01*
X0128212Y0033904D01*
X0128563Y0033553D01*
X0128563Y0033057D01*
X0128212Y0032706D01*
X0135430Y0024435D02*
X0136030Y0023835D01*
X0134042Y0023835D01*
X0132637Y0025240D01*
X0132637Y0027228D01*
X0134042Y0028633D01*
X0136030Y0028633D01*
X0137435Y0027228D01*
X0137435Y0025240D01*
X0136030Y0023835D01*
X0135657Y0024735D01*
X0134415Y0024735D01*
X0133537Y0025613D01*
X0133537Y0026855D01*
X0134415Y0027733D01*
X0135657Y0027733D01*
X0136535Y0026855D01*
X0136535Y0025613D01*
X0135657Y0024735D01*
X0135284Y0025635D01*
X0134788Y0025635D01*
X0134437Y0025986D01*
X0134437Y0026482D01*
X0134788Y0026833D01*
X0135284Y0026833D01*
X0135635Y0026482D01*
X0135635Y0025986D01*
X0135284Y0025635D01*
X0135430Y0044435D02*
X0136030Y0043835D01*
X0134042Y0043835D01*
X0132637Y0045240D01*
X0132637Y0047228D01*
X0134042Y0048633D01*
X0136030Y0048633D01*
X0137435Y0047228D01*
X0137435Y0045240D01*
X0136030Y0043835D01*
X0135657Y0044735D01*
X0134415Y0044735D01*
X0133537Y0045613D01*
X0133537Y0046855D01*
X0134415Y0047733D01*
X0135657Y0047733D01*
X0136535Y0046855D01*
X0136535Y0045613D01*
X0135657Y0044735D01*
X0135284Y0045635D01*
X0134788Y0045635D01*
X0134437Y0045986D01*
X0134437Y0046482D01*
X0134788Y0046833D01*
X0135284Y0046833D01*
X0135635Y0046482D01*
X0135635Y0045986D01*
X0135284Y0045635D01*
X0128358Y0051506D02*
X0128958Y0050906D01*
X0126970Y0050906D01*
X0125565Y0052311D01*
X0125565Y0054299D01*
X0126970Y0055704D01*
X0128958Y0055704D01*
X0130363Y0054299D01*
X0130363Y0052311D01*
X0128958Y0050906D01*
X0128585Y0051806D01*
X0127343Y0051806D01*
X0126465Y0052684D01*
X0126465Y0053926D01*
X0127343Y0054804D01*
X0128585Y0054804D01*
X0129463Y0053926D01*
X0129463Y0052684D01*
X0128585Y0051806D01*
X0128212Y0052706D01*
X0127716Y0052706D01*
X0127365Y0053057D01*
X0127365Y0053553D01*
X0127716Y0053904D01*
X0128212Y0053904D01*
X0128563Y0053553D01*
X0128563Y0053057D01*
X0128212Y0052706D01*
X0135430Y0064435D02*
X0136030Y0063835D01*
X0134042Y0063835D01*
X0132637Y0065240D01*
X0132637Y0067228D01*
X0134042Y0068633D01*
X0136030Y0068633D01*
X0137435Y0067228D01*
X0137435Y0065240D01*
X0136030Y0063835D01*
X0135657Y0064735D01*
X0134415Y0064735D01*
X0133537Y0065613D01*
X0133537Y0066855D01*
X0134415Y0067733D01*
X0135657Y0067733D01*
X0136535Y0066855D01*
X0136535Y0065613D01*
X0135657Y0064735D01*
X0135284Y0065635D01*
X0134788Y0065635D01*
X0134437Y0065986D01*
X0134437Y0066482D01*
X0134788Y0066833D01*
X0135284Y0066833D01*
X0135635Y0066482D01*
X0135635Y0065986D01*
X0135284Y0065635D01*
X0128358Y0071506D02*
X0128958Y0070906D01*
X0126970Y0070906D01*
X0125565Y0072311D01*
X0125565Y0074299D01*
X0126970Y0075704D01*
X0128958Y0075704D01*
X0130363Y0074299D01*
X0130363Y0072311D01*
X0128958Y0070906D01*
X0128585Y0071806D01*
X0127343Y0071806D01*
X0126465Y0072684D01*
X0126465Y0073926D01*
X0127343Y0074804D01*
X0128585Y0074804D01*
X0129463Y0073926D01*
X0129463Y0072684D01*
X0128585Y0071806D01*
X0128212Y0072706D01*
X0127716Y0072706D01*
X0127365Y0073057D01*
X0127365Y0073553D01*
X0127716Y0073904D01*
X0128212Y0073904D01*
X0128563Y0073553D01*
X0128563Y0073057D01*
X0128212Y0072706D01*
X0135430Y0084435D02*
X0136030Y0083835D01*
X0134042Y0083835D01*
X0132637Y0085240D01*
X0132637Y0087228D01*
X0134042Y0088633D01*
X0136030Y0088633D01*
X0137435Y0087228D01*
X0137435Y0085240D01*
X0136030Y0083835D01*
X0135657Y0084735D01*
X0134415Y0084735D01*
X0133537Y0085613D01*
X0133537Y0086855D01*
X0134415Y0087733D01*
X0135657Y0087733D01*
X0136535Y0086855D01*
X0136535Y0085613D01*
X0135657Y0084735D01*
X0135284Y0085635D01*
X0134788Y0085635D01*
X0134437Y0085986D01*
X0134437Y0086482D01*
X0134788Y0086833D01*
X0135284Y0086833D01*
X0135635Y0086482D01*
X0135635Y0085986D01*
X0135284Y0085635D01*
X0128358Y0091506D02*
X0128958Y0090906D01*
X0126970Y0090906D01*
X0125565Y0092311D01*
X0125565Y0094299D01*
X0126970Y0095704D01*
X0128958Y0095704D01*
X0130363Y0094299D01*
X0130363Y0092311D01*
X0128958Y0090906D01*
X0128585Y0091806D01*
X0127343Y0091806D01*
X0126465Y0092684D01*
X0126465Y0093926D01*
X0127343Y0094804D01*
X0128585Y0094804D01*
X0129463Y0093926D01*
X0129463Y0092684D01*
X0128585Y0091806D01*
X0128212Y0092706D01*
X0127716Y0092706D01*
X0127365Y0093057D01*
X0127365Y0093553D01*
X0127716Y0093904D01*
X0128212Y0093904D01*
X0128563Y0093553D01*
X0128563Y0093057D01*
X0128212Y0092706D01*
X0115430Y0084435D02*
X0116030Y0083835D01*
X0114042Y0083835D01*
X0112637Y0085240D01*
X0112637Y0087228D01*
X0114042Y0088633D01*
X0116030Y0088633D01*
X0117435Y0087228D01*
X0117435Y0085240D01*
X0116030Y0083835D01*
X0115657Y0084735D01*
X0114415Y0084735D01*
X0113537Y0085613D01*
X0113537Y0086855D01*
X0114415Y0087733D01*
X0115657Y0087733D01*
X0116535Y0086855D01*
X0116535Y0085613D01*
X0115657Y0084735D01*
X0115284Y0085635D01*
X0114788Y0085635D01*
X0114437Y0085986D01*
X0114437Y0086482D01*
X0114788Y0086833D01*
X0115284Y0086833D01*
X0115635Y0086482D01*
X0115635Y0085986D01*
X0115284Y0085635D01*
X0108358Y0091506D02*
X0108958Y0090906D01*
X0106970Y0090906D01*
X0105565Y0092311D01*
X0105565Y0094299D01*
X0106970Y0095704D01*
X0108958Y0095704D01*
X0110363Y0094299D01*
X0110363Y0092311D01*
X0108958Y0090906D01*
X0108585Y0091806D01*
X0107343Y0091806D01*
X0106465Y0092684D01*
X0106465Y0093926D01*
X0107343Y0094804D01*
X0108585Y0094804D01*
X0109463Y0093926D01*
X0109463Y0092684D01*
X0108585Y0091806D01*
X0108212Y0092706D01*
X0107716Y0092706D01*
X0107365Y0093057D01*
X0107365Y0093553D01*
X0107716Y0093904D01*
X0108212Y0093904D01*
X0108563Y0093553D01*
X0108563Y0093057D01*
X0108212Y0092706D01*
X0095430Y0084435D02*
X0096030Y0083835D01*
X0094042Y0083835D01*
X0092637Y0085240D01*
X0092637Y0087228D01*
X0094042Y0088633D01*
X0096030Y0088633D01*
X0097435Y0087228D01*
X0097435Y0085240D01*
X0096030Y0083835D01*
X0095657Y0084735D01*
X0094415Y0084735D01*
X0093537Y0085613D01*
X0093537Y0086855D01*
X0094415Y0087733D01*
X0095657Y0087733D01*
X0096535Y0086855D01*
X0096535Y0085613D01*
X0095657Y0084735D01*
X0095284Y0085635D01*
X0094788Y0085635D01*
X0094437Y0085986D01*
X0094437Y0086482D01*
X0094788Y0086833D01*
X0095284Y0086833D01*
X0095635Y0086482D01*
X0095635Y0085986D01*
X0095284Y0085635D01*
X0088358Y0091506D02*
X0088958Y0090906D01*
X0086970Y0090906D01*
X0085565Y0092311D01*
X0085565Y0094299D01*
X0086970Y0095704D01*
X0088958Y0095704D01*
X0090363Y0094299D01*
X0090363Y0092311D01*
X0088958Y0090906D01*
X0088585Y0091806D01*
X0087343Y0091806D01*
X0086465Y0092684D01*
X0086465Y0093926D01*
X0087343Y0094804D01*
X0088585Y0094804D01*
X0089463Y0093926D01*
X0089463Y0092684D01*
X0088585Y0091806D01*
X0088212Y0092706D01*
X0087716Y0092706D01*
X0087365Y0093057D01*
X0087365Y0093553D01*
X0087716Y0093904D01*
X0088212Y0093904D01*
X0088563Y0093553D01*
X0088563Y0093057D01*
X0088212Y0092706D01*
X0075430Y0084435D02*
X0076030Y0083835D01*
X0074042Y0083835D01*
X0072637Y0085240D01*
X0072637Y0087228D01*
X0074042Y0088633D01*
X0076030Y0088633D01*
X0077435Y0087228D01*
X0077435Y0085240D01*
X0076030Y0083835D01*
X0075657Y0084735D01*
X0074415Y0084735D01*
X0073537Y0085613D01*
X0073537Y0086855D01*
X0074415Y0087733D01*
X0075657Y0087733D01*
X0076535Y0086855D01*
X0076535Y0085613D01*
X0075657Y0084735D01*
X0075284Y0085635D01*
X0074788Y0085635D01*
X0074437Y0085986D01*
X0074437Y0086482D01*
X0074788Y0086833D01*
X0075284Y0086833D01*
X0075635Y0086482D01*
X0075635Y0085986D01*
X0075284Y0085635D01*
X0068358Y0091506D02*
X0068958Y0090906D01*
X0066970Y0090906D01*
X0065565Y0092311D01*
X0065565Y0094299D01*
X0066970Y0095704D01*
X0068958Y0095704D01*
X0070363Y0094299D01*
X0070363Y0092311D01*
X0068958Y0090906D01*
X0068585Y0091806D01*
X0067343Y0091806D01*
X0066465Y0092684D01*
X0066465Y0093926D01*
X0067343Y0094804D01*
X0068585Y0094804D01*
X0069463Y0093926D01*
X0069463Y0092684D01*
X0068585Y0091806D01*
X0068212Y0092706D01*
X0067716Y0092706D01*
X0067365Y0093057D01*
X0067365Y0093553D01*
X0067716Y0093904D01*
X0068212Y0093904D01*
X0068563Y0093553D01*
X0068563Y0093057D01*
X0068212Y0092706D01*
X0075430Y0104435D02*
X0076030Y0103835D01*
X0074042Y0103835D01*
X0072637Y0105240D01*
X0072637Y0107228D01*
X0074042Y0108633D01*
X0076030Y0108633D01*
X0077435Y0107228D01*
X0077435Y0105240D01*
X0076030Y0103835D01*
X0075657Y0104735D01*
X0074415Y0104735D01*
X0073537Y0105613D01*
X0073537Y0106855D01*
X0074415Y0107733D01*
X0075657Y0107733D01*
X0076535Y0106855D01*
X0076535Y0105613D01*
X0075657Y0104735D01*
X0075284Y0105635D01*
X0074788Y0105635D01*
X0074437Y0105986D01*
X0074437Y0106482D01*
X0074788Y0106833D01*
X0075284Y0106833D01*
X0075635Y0106482D01*
X0075635Y0105986D01*
X0075284Y0105635D01*
X0068358Y0111506D02*
X0068958Y0110906D01*
X0066970Y0110906D01*
X0065565Y0112311D01*
X0065565Y0114299D01*
X0066970Y0115704D01*
X0068958Y0115704D01*
X0070363Y0114299D01*
X0070363Y0112311D01*
X0068958Y0110906D01*
X0068585Y0111806D01*
X0067343Y0111806D01*
X0066465Y0112684D01*
X0066465Y0113926D01*
X0067343Y0114804D01*
X0068585Y0114804D01*
X0069463Y0113926D01*
X0069463Y0112684D01*
X0068585Y0111806D01*
X0068212Y0112706D01*
X0067716Y0112706D01*
X0067365Y0113057D01*
X0067365Y0113553D01*
X0067716Y0113904D01*
X0068212Y0113904D01*
X0068563Y0113553D01*
X0068563Y0113057D01*
X0068212Y0112706D01*
X0088358Y0111506D02*
X0088958Y0110906D01*
X0086970Y0110906D01*
X0085565Y0112311D01*
X0085565Y0114299D01*
X0086970Y0115704D01*
X0088958Y0115704D01*
X0090363Y0114299D01*
X0090363Y0112311D01*
X0088958Y0110906D01*
X0088585Y0111806D01*
X0087343Y0111806D01*
X0086465Y0112684D01*
X0086465Y0113926D01*
X0087343Y0114804D01*
X0088585Y0114804D01*
X0089463Y0113926D01*
X0089463Y0112684D01*
X0088585Y0111806D01*
X0088212Y0112706D01*
X0087716Y0112706D01*
X0087365Y0113057D01*
X0087365Y0113553D01*
X0087716Y0113904D01*
X0088212Y0113904D01*
X0088563Y0113553D01*
X0088563Y0113057D01*
X0088212Y0112706D01*
X0095430Y0104435D02*
X0096030Y0103835D01*
X0094042Y0103835D01*
X0092637Y0105240D01*
X0092637Y0107228D01*
X0094042Y0108633D01*
X0096030Y0108633D01*
X0097435Y0107228D01*
X0097435Y0105240D01*
X0096030Y0103835D01*
X0095657Y0104735D01*
X0094415Y0104735D01*
X0093537Y0105613D01*
X0093537Y0106855D01*
X0094415Y0107733D01*
X0095657Y0107733D01*
X0096535Y0106855D01*
X0096535Y0105613D01*
X0095657Y0104735D01*
X0095284Y0105635D01*
X0094788Y0105635D01*
X0094437Y0105986D01*
X0094437Y0106482D01*
X0094788Y0106833D01*
X0095284Y0106833D01*
X0095635Y0106482D01*
X0095635Y0105986D01*
X0095284Y0105635D01*
X0108358Y0111506D02*
X0108958Y0110906D01*
X0106970Y0110906D01*
X0105565Y0112311D01*
X0105565Y0114299D01*
X0106970Y0115704D01*
X0108958Y0115704D01*
X0110363Y0114299D01*
X0110363Y0112311D01*
X0108958Y0110906D01*
X0108585Y0111806D01*
X0107343Y0111806D01*
X0106465Y0112684D01*
X0106465Y0113926D01*
X0107343Y0114804D01*
X0108585Y0114804D01*
X0109463Y0113926D01*
X0109463Y0112684D01*
X0108585Y0111806D01*
X0108212Y0112706D01*
X0107716Y0112706D01*
X0107365Y0113057D01*
X0107365Y0113553D01*
X0107716Y0113904D01*
X0108212Y0113904D01*
X0108563Y0113553D01*
X0108563Y0113057D01*
X0108212Y0112706D01*
X0115430Y0104435D02*
X0116030Y0103835D01*
X0114042Y0103835D01*
X0112637Y0105240D01*
X0112637Y0107228D01*
X0114042Y0108633D01*
X0116030Y0108633D01*
X0117435Y0107228D01*
X0117435Y0105240D01*
X0116030Y0103835D01*
X0115657Y0104735D01*
X0114415Y0104735D01*
X0113537Y0105613D01*
X0113537Y0106855D01*
X0114415Y0107733D01*
X0115657Y0107733D01*
X0116535Y0106855D01*
X0116535Y0105613D01*
X0115657Y0104735D01*
X0115284Y0105635D01*
X0114788Y0105635D01*
X0114437Y0105986D01*
X0114437Y0106482D01*
X0114788Y0106833D01*
X0115284Y0106833D01*
X0115635Y0106482D01*
X0115635Y0105986D01*
X0115284Y0105635D01*
X0128358Y0111506D02*
X0128958Y0110906D01*
X0126970Y0110906D01*
X0125565Y0112311D01*
X0125565Y0114299D01*
X0126970Y0115704D01*
X0128958Y0115704D01*
X0130363Y0114299D01*
X0130363Y0112311D01*
X0128958Y0110906D01*
X0128585Y0111806D01*
X0127343Y0111806D01*
X0126465Y0112684D01*
X0126465Y0113926D01*
X0127343Y0114804D01*
X0128585Y0114804D01*
X0129463Y0113926D01*
X0129463Y0112684D01*
X0128585Y0111806D01*
X0128212Y0112706D01*
X0127716Y0112706D01*
X0127365Y0113057D01*
X0127365Y0113553D01*
X0127716Y0113904D01*
X0128212Y0113904D01*
X0128563Y0113553D01*
X0128563Y0113057D01*
X0128212Y0112706D01*
X0135430Y0104435D02*
X0136030Y0103835D01*
X0134042Y0103835D01*
X0132637Y0105240D01*
X0132637Y0107228D01*
X0134042Y0108633D01*
X0136030Y0108633D01*
X0137435Y0107228D01*
X0137435Y0105240D01*
X0136030Y0103835D01*
X0135657Y0104735D01*
X0134415Y0104735D01*
X0133537Y0105613D01*
X0133537Y0106855D01*
X0134415Y0107733D01*
X0135657Y0107733D01*
X0136535Y0106855D01*
X0136535Y0105613D01*
X0135657Y0104735D01*
X0135284Y0105635D01*
X0134788Y0105635D01*
X0134437Y0105986D01*
X0134437Y0106482D01*
X0134788Y0106833D01*
X0135284Y0106833D01*
X0135635Y0106482D01*
X0135635Y0105986D01*
X0135284Y0105635D01*
X0108358Y0071506D02*
X0108958Y0070906D01*
X0106970Y0070906D01*
X0105565Y0072311D01*
X0105565Y0074299D01*
X0106970Y0075704D01*
X0108958Y0075704D01*
X0110363Y0074299D01*
X0110363Y0072311D01*
X0108958Y0070906D01*
X0108585Y0071806D01*
X0107343Y0071806D01*
X0106465Y0072684D01*
X0106465Y0073926D01*
X0107343Y0074804D01*
X0108585Y0074804D01*
X0109463Y0073926D01*
X0109463Y0072684D01*
X0108585Y0071806D01*
X0108212Y0072706D01*
X0107716Y0072706D01*
X0107365Y0073057D01*
X0107365Y0073553D01*
X0107716Y0073904D01*
X0108212Y0073904D01*
X0108563Y0073553D01*
X0108563Y0073057D01*
X0108212Y0072706D01*
X0115430Y0064435D02*
X0116030Y0063835D01*
X0114042Y0063835D01*
X0112637Y0065240D01*
X0112637Y0067228D01*
X0114042Y0068633D01*
X0116030Y0068633D01*
X0117435Y0067228D01*
X0117435Y0065240D01*
X0116030Y0063835D01*
X0115657Y0064735D01*
X0114415Y0064735D01*
X0113537Y0065613D01*
X0113537Y0066855D01*
X0114415Y0067733D01*
X0115657Y0067733D01*
X0116535Y0066855D01*
X0116535Y0065613D01*
X0115657Y0064735D01*
X0115284Y0065635D01*
X0114788Y0065635D01*
X0114437Y0065986D01*
X0114437Y0066482D01*
X0114788Y0066833D01*
X0115284Y0066833D01*
X0115635Y0066482D01*
X0115635Y0065986D01*
X0115284Y0065635D01*
X0108358Y0051506D02*
X0108958Y0050906D01*
X0106970Y0050906D01*
X0105565Y0052311D01*
X0105565Y0054299D01*
X0106970Y0055704D01*
X0108958Y0055704D01*
X0110363Y0054299D01*
X0110363Y0052311D01*
X0108958Y0050906D01*
X0108585Y0051806D01*
X0107343Y0051806D01*
X0106465Y0052684D01*
X0106465Y0053926D01*
X0107343Y0054804D01*
X0108585Y0054804D01*
X0109463Y0053926D01*
X0109463Y0052684D01*
X0108585Y0051806D01*
X0108212Y0052706D01*
X0107716Y0052706D01*
X0107365Y0053057D01*
X0107365Y0053553D01*
X0107716Y0053904D01*
X0108212Y0053904D01*
X0108563Y0053553D01*
X0108563Y0053057D01*
X0108212Y0052706D01*
X0115430Y0044435D02*
X0116030Y0043835D01*
X0114042Y0043835D01*
X0112637Y0045240D01*
X0112637Y0047228D01*
X0114042Y0048633D01*
X0116030Y0048633D01*
X0117435Y0047228D01*
X0117435Y0045240D01*
X0116030Y0043835D01*
X0115657Y0044735D01*
X0114415Y0044735D01*
X0113537Y0045613D01*
X0113537Y0046855D01*
X0114415Y0047733D01*
X0115657Y0047733D01*
X0116535Y0046855D01*
X0116535Y0045613D01*
X0115657Y0044735D01*
X0115284Y0045635D01*
X0114788Y0045635D01*
X0114437Y0045986D01*
X0114437Y0046482D01*
X0114788Y0046833D01*
X0115284Y0046833D01*
X0115635Y0046482D01*
X0115635Y0045986D01*
X0115284Y0045635D01*
X0095430Y0044435D02*
X0096030Y0043835D01*
X0094042Y0043835D01*
X0092637Y0045240D01*
X0092637Y0047228D01*
X0094042Y0048633D01*
X0096030Y0048633D01*
X0097435Y0047228D01*
X0097435Y0045240D01*
X0096030Y0043835D01*
X0095657Y0044735D01*
X0094415Y0044735D01*
X0093537Y0045613D01*
X0093537Y0046855D01*
X0094415Y0047733D01*
X0095657Y0047733D01*
X0096535Y0046855D01*
X0096535Y0045613D01*
X0095657Y0044735D01*
X0095284Y0045635D01*
X0094788Y0045635D01*
X0094437Y0045986D01*
X0094437Y0046482D01*
X0094788Y0046833D01*
X0095284Y0046833D01*
X0095635Y0046482D01*
X0095635Y0045986D01*
X0095284Y0045635D01*
X0088358Y0051506D02*
X0088958Y0050906D01*
X0086970Y0050906D01*
X0085565Y0052311D01*
X0085565Y0054299D01*
X0086970Y0055704D01*
X0088958Y0055704D01*
X0090363Y0054299D01*
X0090363Y0052311D01*
X0088958Y0050906D01*
X0088585Y0051806D01*
X0087343Y0051806D01*
X0086465Y0052684D01*
X0086465Y0053926D01*
X0087343Y0054804D01*
X0088585Y0054804D01*
X0089463Y0053926D01*
X0089463Y0052684D01*
X0088585Y0051806D01*
X0088212Y0052706D01*
X0087716Y0052706D01*
X0087365Y0053057D01*
X0087365Y0053553D01*
X0087716Y0053904D01*
X0088212Y0053904D01*
X0088563Y0053553D01*
X0088563Y0053057D01*
X0088212Y0052706D01*
X0095430Y0064435D02*
X0096030Y0063835D01*
X0094042Y0063835D01*
X0092637Y0065240D01*
X0092637Y0067228D01*
X0094042Y0068633D01*
X0096030Y0068633D01*
X0097435Y0067228D01*
X0097435Y0065240D01*
X0096030Y0063835D01*
X0095657Y0064735D01*
X0094415Y0064735D01*
X0093537Y0065613D01*
X0093537Y0066855D01*
X0094415Y0067733D01*
X0095657Y0067733D01*
X0096535Y0066855D01*
X0096535Y0065613D01*
X0095657Y0064735D01*
X0095284Y0065635D01*
X0094788Y0065635D01*
X0094437Y0065986D01*
X0094437Y0066482D01*
X0094788Y0066833D01*
X0095284Y0066833D01*
X0095635Y0066482D01*
X0095635Y0065986D01*
X0095284Y0065635D01*
X0088358Y0071506D02*
X0088958Y0070906D01*
X0086970Y0070906D01*
X0085565Y0072311D01*
X0085565Y0074299D01*
X0086970Y0075704D01*
X0088958Y0075704D01*
X0090363Y0074299D01*
X0090363Y0072311D01*
X0088958Y0070906D01*
X0088585Y0071806D01*
X0087343Y0071806D01*
X0086465Y0072684D01*
X0086465Y0073926D01*
X0087343Y0074804D01*
X0088585Y0074804D01*
X0089463Y0073926D01*
X0089463Y0072684D01*
X0088585Y0071806D01*
X0088212Y0072706D01*
X0087716Y0072706D01*
X0087365Y0073057D01*
X0087365Y0073553D01*
X0087716Y0073904D01*
X0088212Y0073904D01*
X0088563Y0073553D01*
X0088563Y0073057D01*
X0088212Y0072706D01*
X0075430Y0064435D02*
X0076030Y0063835D01*
X0074042Y0063835D01*
X0072637Y0065240D01*
X0072637Y0067228D01*
X0074042Y0068633D01*
X0076030Y0068633D01*
X0077435Y0067228D01*
X0077435Y0065240D01*
X0076030Y0063835D01*
X0075657Y0064735D01*
X0074415Y0064735D01*
X0073537Y0065613D01*
X0073537Y0066855D01*
X0074415Y0067733D01*
X0075657Y0067733D01*
X0076535Y0066855D01*
X0076535Y0065613D01*
X0075657Y0064735D01*
X0075284Y0065635D01*
X0074788Y0065635D01*
X0074437Y0065986D01*
X0074437Y0066482D01*
X0074788Y0066833D01*
X0075284Y0066833D01*
X0075635Y0066482D01*
X0075635Y0065986D01*
X0075284Y0065635D01*
X0068358Y0071506D02*
X0068958Y0070906D01*
X0066970Y0070906D01*
X0065565Y0072311D01*
X0065565Y0074299D01*
X0066970Y0075704D01*
X0068958Y0075704D01*
X0070363Y0074299D01*
X0070363Y0072311D01*
X0068958Y0070906D01*
X0068585Y0071806D01*
X0067343Y0071806D01*
X0066465Y0072684D01*
X0066465Y0073926D01*
X0067343Y0074804D01*
X0068585Y0074804D01*
X0069463Y0073926D01*
X0069463Y0072684D01*
X0068585Y0071806D01*
X0068212Y0072706D01*
X0067716Y0072706D01*
X0067365Y0073057D01*
X0067365Y0073553D01*
X0067716Y0073904D01*
X0068212Y0073904D01*
X0068563Y0073553D01*
X0068563Y0073057D01*
X0068212Y0072706D01*
X0068358Y0051506D02*
X0068958Y0050906D01*
X0066970Y0050906D01*
X0065565Y0052311D01*
X0065565Y0054299D01*
X0066970Y0055704D01*
X0068958Y0055704D01*
X0070363Y0054299D01*
X0070363Y0052311D01*
X0068958Y0050906D01*
X0068585Y0051806D01*
X0067343Y0051806D01*
X0066465Y0052684D01*
X0066465Y0053926D01*
X0067343Y0054804D01*
X0068585Y0054804D01*
X0069463Y0053926D01*
X0069463Y0052684D01*
X0068585Y0051806D01*
X0068212Y0052706D01*
X0067716Y0052706D01*
X0067365Y0053057D01*
X0067365Y0053553D01*
X0067716Y0053904D01*
X0068212Y0053904D01*
X0068563Y0053553D01*
X0068563Y0053057D01*
X0068212Y0052706D01*
X0075430Y0044435D02*
X0076030Y0043835D01*
X0074042Y0043835D01*
X0072637Y0045240D01*
X0072637Y0047228D01*
X0074042Y0048633D01*
X0076030Y0048633D01*
X0077435Y0047228D01*
X0077435Y0045240D01*
X0076030Y0043835D01*
X0075657Y0044735D01*
X0074415Y0044735D01*
X0073537Y0045613D01*
X0073537Y0046855D01*
X0074415Y0047733D01*
X0075657Y0047733D01*
X0076535Y0046855D01*
X0076535Y0045613D01*
X0075657Y0044735D01*
X0075284Y0045635D01*
X0074788Y0045635D01*
X0074437Y0045986D01*
X0074437Y0046482D01*
X0074788Y0046833D01*
X0075284Y0046833D01*
X0075635Y0046482D01*
X0075635Y0045986D01*
X0075284Y0045635D01*
D14*
X0064000Y0127270D03*
X0051500Y0127270D03*
X0039000Y0127270D03*
X0026500Y0127270D03*
X0026500Y0157270D03*
X0039000Y0157270D03*
X0051500Y0157270D03*
X0064000Y0157270D03*
X0161500Y0112270D03*
X0191500Y0112270D03*
D15*
X0061500Y0174270D02*
X0061500Y0180270D01*
X0051500Y0180270D02*
X0051500Y0174270D01*
X0041500Y0174270D02*
X0041500Y0180270D01*
D16*
X0141500Y0152270D03*
M02*
