G75*
%MOIN*%
%OFA0B0*%
%FSLAX25Y25*%
%IPPOS*%
%LPD*%
%AMOC8*
5,1,8,0,0,1.08239X$1,22.5*
%
%ADD10C,0.01000*%
%ADD11R,0.70000X0.15000*%
%ADD12C,0.08000*%
%ADD13R,0.05512X0.01969*%
%ADD14OC8,0.06000*%
%ADD15C,0.01040*%
%ADD16OC8,0.05200*%
%ADD17C,0.06000*%
%ADD18C,0.01181*%
%ADD19C,0.04356*%
D10*
X0001500Y0114770D02*
X0001530Y0117224D01*
X0001620Y0119677D01*
X0001771Y0122126D01*
X0001982Y0124572D01*
X0002252Y0127011D01*
X0002582Y0129443D01*
X0002972Y0131866D01*
X0003421Y0134279D01*
X0003930Y0136680D01*
X0004497Y0139068D01*
X0005122Y0141441D01*
X0005806Y0143798D01*
X0006547Y0146138D01*
X0007346Y0148459D01*
X0008201Y0150760D01*
X0009112Y0153038D01*
X0010079Y0155294D01*
X0011101Y0157526D01*
X0012178Y0159731D01*
X0013308Y0161910D01*
X0014491Y0164060D01*
X0015727Y0166180D01*
X0017015Y0168270D01*
X0018353Y0170327D01*
X0019742Y0172351D01*
X0021179Y0174340D01*
X0022665Y0176293D01*
X0024199Y0178209D01*
X0025779Y0180087D01*
X0027405Y0181926D01*
X0029075Y0183724D01*
X0030789Y0185481D01*
X0032546Y0187195D01*
X0034344Y0188865D01*
X0036183Y0190491D01*
X0038061Y0192071D01*
X0039977Y0193605D01*
X0041930Y0195091D01*
X0043919Y0196528D01*
X0045943Y0197917D01*
X0048000Y0199255D01*
X0050090Y0200543D01*
X0052210Y0201779D01*
X0054360Y0202962D01*
X0056539Y0204092D01*
X0058744Y0205169D01*
X0060976Y0206191D01*
X0063232Y0207158D01*
X0065510Y0208069D01*
X0067811Y0208924D01*
X0070132Y0209723D01*
X0072472Y0210464D01*
X0074829Y0211148D01*
X0077202Y0211773D01*
X0079590Y0212340D01*
X0081991Y0212849D01*
X0084404Y0213298D01*
X0086827Y0213688D01*
X0089259Y0214018D01*
X0091698Y0214288D01*
X0094144Y0214499D01*
X0096593Y0214650D01*
X0099046Y0214740D01*
X0101500Y0214770D01*
X0103954Y0214740D01*
X0106407Y0214650D01*
X0108856Y0214499D01*
X0111302Y0214288D01*
X0113741Y0214018D01*
X0116173Y0213688D01*
X0118596Y0213298D01*
X0121009Y0212849D01*
X0123410Y0212340D01*
X0125798Y0211773D01*
X0128171Y0211148D01*
X0130528Y0210464D01*
X0132868Y0209723D01*
X0135189Y0208924D01*
X0137490Y0208069D01*
X0139768Y0207158D01*
X0142024Y0206191D01*
X0144256Y0205169D01*
X0146461Y0204092D01*
X0148640Y0202962D01*
X0150790Y0201779D01*
X0152910Y0200543D01*
X0155000Y0199255D01*
X0157057Y0197917D01*
X0159081Y0196528D01*
X0161070Y0195091D01*
X0163023Y0193605D01*
X0164939Y0192071D01*
X0166817Y0190491D01*
X0168656Y0188865D01*
X0170454Y0187195D01*
X0172211Y0185481D01*
X0173925Y0183724D01*
X0175595Y0181926D01*
X0177221Y0180087D01*
X0178801Y0178209D01*
X0180335Y0176293D01*
X0181821Y0174340D01*
X0183258Y0172351D01*
X0184647Y0170327D01*
X0185985Y0168270D01*
X0187273Y0166180D01*
X0188509Y0164060D01*
X0189692Y0161910D01*
X0190822Y0159731D01*
X0191899Y0157526D01*
X0192921Y0155294D01*
X0193888Y0153038D01*
X0194799Y0150760D01*
X0195654Y0148459D01*
X0196453Y0146138D01*
X0197194Y0143798D01*
X0197878Y0141441D01*
X0198503Y0139068D01*
X0199070Y0136680D01*
X0199579Y0134279D01*
X0200028Y0131866D01*
X0200418Y0129443D01*
X0200748Y0127011D01*
X0201018Y0124572D01*
X0201229Y0122126D01*
X0201380Y0119677D01*
X0201470Y0117224D01*
X0201500Y0114770D01*
X0201470Y0112316D01*
X0201380Y0109863D01*
X0201229Y0107414D01*
X0201018Y0104968D01*
X0200748Y0102529D01*
X0200418Y0100097D01*
X0200028Y0097674D01*
X0199579Y0095261D01*
X0199070Y0092860D01*
X0198503Y0090472D01*
X0197878Y0088099D01*
X0197194Y0085742D01*
X0196453Y0083402D01*
X0195654Y0081081D01*
X0194799Y0078780D01*
X0193888Y0076502D01*
X0192921Y0074246D01*
X0191899Y0072014D01*
X0190822Y0069809D01*
X0189692Y0067630D01*
X0188509Y0065480D01*
X0187273Y0063360D01*
X0185985Y0061270D01*
X0184647Y0059213D01*
X0183258Y0057189D01*
X0181821Y0055200D01*
X0180335Y0053247D01*
X0178801Y0051331D01*
X0177221Y0049453D01*
X0175595Y0047614D01*
X0173925Y0045816D01*
X0172211Y0044059D01*
X0170454Y0042345D01*
X0168656Y0040675D01*
X0166817Y0039049D01*
X0164939Y0037469D01*
X0163023Y0035935D01*
X0161070Y0034449D01*
X0159081Y0033012D01*
X0157057Y0031623D01*
X0155000Y0030285D01*
X0152910Y0028997D01*
X0150790Y0027761D01*
X0148640Y0026578D01*
X0146461Y0025448D01*
X0144256Y0024371D01*
X0142024Y0023349D01*
X0139768Y0022382D01*
X0137490Y0021471D01*
X0135189Y0020616D01*
X0132868Y0019817D01*
X0130528Y0019076D01*
X0128171Y0018392D01*
X0125798Y0017767D01*
X0123410Y0017200D01*
X0121009Y0016691D01*
X0118596Y0016242D01*
X0116173Y0015852D01*
X0113741Y0015522D01*
X0111302Y0015252D01*
X0108856Y0015041D01*
X0106407Y0014890D01*
X0103954Y0014800D01*
X0101500Y0014770D01*
X0099046Y0014800D01*
X0096593Y0014890D01*
X0094144Y0015041D01*
X0091698Y0015252D01*
X0089259Y0015522D01*
X0086827Y0015852D01*
X0084404Y0016242D01*
X0081991Y0016691D01*
X0079590Y0017200D01*
X0077202Y0017767D01*
X0074829Y0018392D01*
X0072472Y0019076D01*
X0070132Y0019817D01*
X0067811Y0020616D01*
X0065510Y0021471D01*
X0063232Y0022382D01*
X0060976Y0023349D01*
X0058744Y0024371D01*
X0056539Y0025448D01*
X0054360Y0026578D01*
X0052210Y0027761D01*
X0050090Y0028997D01*
X0048000Y0030285D01*
X0045943Y0031623D01*
X0043919Y0033012D01*
X0041930Y0034449D01*
X0039977Y0035935D01*
X0038061Y0037469D01*
X0036183Y0039049D01*
X0034344Y0040675D01*
X0032546Y0042345D01*
X0030789Y0044059D01*
X0029075Y0045816D01*
X0027405Y0047614D01*
X0025779Y0049453D01*
X0024199Y0051331D01*
X0022665Y0053247D01*
X0021179Y0055200D01*
X0019742Y0057189D01*
X0018353Y0059213D01*
X0017015Y0061270D01*
X0015727Y0063360D01*
X0014491Y0065480D01*
X0013308Y0067630D01*
X0012178Y0069809D01*
X0011101Y0072014D01*
X0010079Y0074246D01*
X0009112Y0076502D01*
X0008201Y0078780D01*
X0007346Y0081081D01*
X0006547Y0083402D01*
X0005806Y0085742D01*
X0005122Y0088099D01*
X0004497Y0090472D01*
X0003930Y0092860D01*
X0003421Y0095261D01*
X0002972Y0097674D01*
X0002582Y0100097D01*
X0002252Y0102529D01*
X0001982Y0104968D01*
X0001771Y0107414D01*
X0001620Y0109863D01*
X0001530Y0112316D01*
X0001500Y0114770D01*
D11*
X0101500Y0194770D03*
D12*
X0086500Y0167270D03*
X0166500Y0167270D03*
D13*
X0114902Y0149770D03*
X0114902Y0144770D03*
X0114902Y0139770D03*
X0114902Y0134770D03*
X0088098Y0134770D03*
X0088098Y0139730D03*
X0088098Y0144730D03*
X0088098Y0149730D03*
D14*
X0166500Y0137270D03*
X0176500Y0137270D03*
X0186500Y0137270D03*
X0186500Y0127270D03*
X0176500Y0127270D03*
X0166500Y0127270D03*
D15*
X0068305Y0031746D02*
X0068825Y0031226D01*
X0067103Y0031226D01*
X0065885Y0032444D01*
X0065885Y0034166D01*
X0067103Y0035384D01*
X0068825Y0035384D01*
X0070043Y0034166D01*
X0070043Y0032444D01*
X0068825Y0031226D01*
X0068502Y0032006D01*
X0067426Y0032006D01*
X0066665Y0032767D01*
X0066665Y0033843D01*
X0067426Y0034604D01*
X0068502Y0034604D01*
X0069263Y0033843D01*
X0069263Y0032767D01*
X0068502Y0032006D01*
X0068179Y0032786D01*
X0067749Y0032786D01*
X0067445Y0033090D01*
X0067445Y0033520D01*
X0067749Y0033824D01*
X0068179Y0033824D01*
X0068483Y0033520D01*
X0068483Y0033090D01*
X0068179Y0032786D01*
X0075377Y0024675D02*
X0075897Y0024155D01*
X0074175Y0024155D01*
X0072957Y0025373D01*
X0072957Y0027095D01*
X0074175Y0028313D01*
X0075897Y0028313D01*
X0077115Y0027095D01*
X0077115Y0025373D01*
X0075897Y0024155D01*
X0075574Y0024935D01*
X0074498Y0024935D01*
X0073737Y0025696D01*
X0073737Y0026772D01*
X0074498Y0027533D01*
X0075574Y0027533D01*
X0076335Y0026772D01*
X0076335Y0025696D01*
X0075574Y0024935D01*
X0075251Y0025715D01*
X0074821Y0025715D01*
X0074517Y0026019D01*
X0074517Y0026449D01*
X0074821Y0026753D01*
X0075251Y0026753D01*
X0075555Y0026449D01*
X0075555Y0026019D01*
X0075251Y0025715D01*
X0088305Y0031746D02*
X0088825Y0031226D01*
X0087103Y0031226D01*
X0085885Y0032444D01*
X0085885Y0034166D01*
X0087103Y0035384D01*
X0088825Y0035384D01*
X0090043Y0034166D01*
X0090043Y0032444D01*
X0088825Y0031226D01*
X0088502Y0032006D01*
X0087426Y0032006D01*
X0086665Y0032767D01*
X0086665Y0033843D01*
X0087426Y0034604D01*
X0088502Y0034604D01*
X0089263Y0033843D01*
X0089263Y0032767D01*
X0088502Y0032006D01*
X0088179Y0032786D01*
X0087749Y0032786D01*
X0087445Y0033090D01*
X0087445Y0033520D01*
X0087749Y0033824D01*
X0088179Y0033824D01*
X0088483Y0033520D01*
X0088483Y0033090D01*
X0088179Y0032786D01*
X0095377Y0024675D02*
X0095897Y0024155D01*
X0094175Y0024155D01*
X0092957Y0025373D01*
X0092957Y0027095D01*
X0094175Y0028313D01*
X0095897Y0028313D01*
X0097115Y0027095D01*
X0097115Y0025373D01*
X0095897Y0024155D01*
X0095574Y0024935D01*
X0094498Y0024935D01*
X0093737Y0025696D01*
X0093737Y0026772D01*
X0094498Y0027533D01*
X0095574Y0027533D01*
X0096335Y0026772D01*
X0096335Y0025696D01*
X0095574Y0024935D01*
X0095251Y0025715D01*
X0094821Y0025715D01*
X0094517Y0026019D01*
X0094517Y0026449D01*
X0094821Y0026753D01*
X0095251Y0026753D01*
X0095555Y0026449D01*
X0095555Y0026019D01*
X0095251Y0025715D01*
X0108305Y0031746D02*
X0108825Y0031226D01*
X0107103Y0031226D01*
X0105885Y0032444D01*
X0105885Y0034166D01*
X0107103Y0035384D01*
X0108825Y0035384D01*
X0110043Y0034166D01*
X0110043Y0032444D01*
X0108825Y0031226D01*
X0108502Y0032006D01*
X0107426Y0032006D01*
X0106665Y0032767D01*
X0106665Y0033843D01*
X0107426Y0034604D01*
X0108502Y0034604D01*
X0109263Y0033843D01*
X0109263Y0032767D01*
X0108502Y0032006D01*
X0108179Y0032786D01*
X0107749Y0032786D01*
X0107445Y0033090D01*
X0107445Y0033520D01*
X0107749Y0033824D01*
X0108179Y0033824D01*
X0108483Y0033520D01*
X0108483Y0033090D01*
X0108179Y0032786D01*
X0115377Y0024675D02*
X0115897Y0024155D01*
X0114175Y0024155D01*
X0112957Y0025373D01*
X0112957Y0027095D01*
X0114175Y0028313D01*
X0115897Y0028313D01*
X0117115Y0027095D01*
X0117115Y0025373D01*
X0115897Y0024155D01*
X0115574Y0024935D01*
X0114498Y0024935D01*
X0113737Y0025696D01*
X0113737Y0026772D01*
X0114498Y0027533D01*
X0115574Y0027533D01*
X0116335Y0026772D01*
X0116335Y0025696D01*
X0115574Y0024935D01*
X0115251Y0025715D01*
X0114821Y0025715D01*
X0114517Y0026019D01*
X0114517Y0026449D01*
X0114821Y0026753D01*
X0115251Y0026753D01*
X0115555Y0026449D01*
X0115555Y0026019D01*
X0115251Y0025715D01*
X0128305Y0031746D02*
X0128825Y0031226D01*
X0127103Y0031226D01*
X0125885Y0032444D01*
X0125885Y0034166D01*
X0127103Y0035384D01*
X0128825Y0035384D01*
X0130043Y0034166D01*
X0130043Y0032444D01*
X0128825Y0031226D01*
X0128502Y0032006D01*
X0127426Y0032006D01*
X0126665Y0032767D01*
X0126665Y0033843D01*
X0127426Y0034604D01*
X0128502Y0034604D01*
X0129263Y0033843D01*
X0129263Y0032767D01*
X0128502Y0032006D01*
X0128179Y0032786D01*
X0127749Y0032786D01*
X0127445Y0033090D01*
X0127445Y0033520D01*
X0127749Y0033824D01*
X0128179Y0033824D01*
X0128483Y0033520D01*
X0128483Y0033090D01*
X0128179Y0032786D01*
X0135377Y0024675D02*
X0135897Y0024155D01*
X0134175Y0024155D01*
X0132957Y0025373D01*
X0132957Y0027095D01*
X0134175Y0028313D01*
X0135897Y0028313D01*
X0137115Y0027095D01*
X0137115Y0025373D01*
X0135897Y0024155D01*
X0135574Y0024935D01*
X0134498Y0024935D01*
X0133737Y0025696D01*
X0133737Y0026772D01*
X0134498Y0027533D01*
X0135574Y0027533D01*
X0136335Y0026772D01*
X0136335Y0025696D01*
X0135574Y0024935D01*
X0135251Y0025715D01*
X0134821Y0025715D01*
X0134517Y0026019D01*
X0134517Y0026449D01*
X0134821Y0026753D01*
X0135251Y0026753D01*
X0135555Y0026449D01*
X0135555Y0026019D01*
X0135251Y0025715D01*
X0135377Y0044675D02*
X0135897Y0044155D01*
X0134175Y0044155D01*
X0132957Y0045373D01*
X0132957Y0047095D01*
X0134175Y0048313D01*
X0135897Y0048313D01*
X0137115Y0047095D01*
X0137115Y0045373D01*
X0135897Y0044155D01*
X0135574Y0044935D01*
X0134498Y0044935D01*
X0133737Y0045696D01*
X0133737Y0046772D01*
X0134498Y0047533D01*
X0135574Y0047533D01*
X0136335Y0046772D01*
X0136335Y0045696D01*
X0135574Y0044935D01*
X0135251Y0045715D01*
X0134821Y0045715D01*
X0134517Y0046019D01*
X0134517Y0046449D01*
X0134821Y0046753D01*
X0135251Y0046753D01*
X0135555Y0046449D01*
X0135555Y0046019D01*
X0135251Y0045715D01*
X0128305Y0051746D02*
X0128825Y0051226D01*
X0127103Y0051226D01*
X0125885Y0052444D01*
X0125885Y0054166D01*
X0127103Y0055384D01*
X0128825Y0055384D01*
X0130043Y0054166D01*
X0130043Y0052444D01*
X0128825Y0051226D01*
X0128502Y0052006D01*
X0127426Y0052006D01*
X0126665Y0052767D01*
X0126665Y0053843D01*
X0127426Y0054604D01*
X0128502Y0054604D01*
X0129263Y0053843D01*
X0129263Y0052767D01*
X0128502Y0052006D01*
X0128179Y0052786D01*
X0127749Y0052786D01*
X0127445Y0053090D01*
X0127445Y0053520D01*
X0127749Y0053824D01*
X0128179Y0053824D01*
X0128483Y0053520D01*
X0128483Y0053090D01*
X0128179Y0052786D01*
X0135377Y0064675D02*
X0135897Y0064155D01*
X0134175Y0064155D01*
X0132957Y0065373D01*
X0132957Y0067095D01*
X0134175Y0068313D01*
X0135897Y0068313D01*
X0137115Y0067095D01*
X0137115Y0065373D01*
X0135897Y0064155D01*
X0135574Y0064935D01*
X0134498Y0064935D01*
X0133737Y0065696D01*
X0133737Y0066772D01*
X0134498Y0067533D01*
X0135574Y0067533D01*
X0136335Y0066772D01*
X0136335Y0065696D01*
X0135574Y0064935D01*
X0135251Y0065715D01*
X0134821Y0065715D01*
X0134517Y0066019D01*
X0134517Y0066449D01*
X0134821Y0066753D01*
X0135251Y0066753D01*
X0135555Y0066449D01*
X0135555Y0066019D01*
X0135251Y0065715D01*
X0128305Y0071746D02*
X0128825Y0071226D01*
X0127103Y0071226D01*
X0125885Y0072444D01*
X0125885Y0074166D01*
X0127103Y0075384D01*
X0128825Y0075384D01*
X0130043Y0074166D01*
X0130043Y0072444D01*
X0128825Y0071226D01*
X0128502Y0072006D01*
X0127426Y0072006D01*
X0126665Y0072767D01*
X0126665Y0073843D01*
X0127426Y0074604D01*
X0128502Y0074604D01*
X0129263Y0073843D01*
X0129263Y0072767D01*
X0128502Y0072006D01*
X0128179Y0072786D01*
X0127749Y0072786D01*
X0127445Y0073090D01*
X0127445Y0073520D01*
X0127749Y0073824D01*
X0128179Y0073824D01*
X0128483Y0073520D01*
X0128483Y0073090D01*
X0128179Y0072786D01*
X0135377Y0084675D02*
X0135897Y0084155D01*
X0134175Y0084155D01*
X0132957Y0085373D01*
X0132957Y0087095D01*
X0134175Y0088313D01*
X0135897Y0088313D01*
X0137115Y0087095D01*
X0137115Y0085373D01*
X0135897Y0084155D01*
X0135574Y0084935D01*
X0134498Y0084935D01*
X0133737Y0085696D01*
X0133737Y0086772D01*
X0134498Y0087533D01*
X0135574Y0087533D01*
X0136335Y0086772D01*
X0136335Y0085696D01*
X0135574Y0084935D01*
X0135251Y0085715D01*
X0134821Y0085715D01*
X0134517Y0086019D01*
X0134517Y0086449D01*
X0134821Y0086753D01*
X0135251Y0086753D01*
X0135555Y0086449D01*
X0135555Y0086019D01*
X0135251Y0085715D01*
X0128305Y0091746D02*
X0128825Y0091226D01*
X0127103Y0091226D01*
X0125885Y0092444D01*
X0125885Y0094166D01*
X0127103Y0095384D01*
X0128825Y0095384D01*
X0130043Y0094166D01*
X0130043Y0092444D01*
X0128825Y0091226D01*
X0128502Y0092006D01*
X0127426Y0092006D01*
X0126665Y0092767D01*
X0126665Y0093843D01*
X0127426Y0094604D01*
X0128502Y0094604D01*
X0129263Y0093843D01*
X0129263Y0092767D01*
X0128502Y0092006D01*
X0128179Y0092786D01*
X0127749Y0092786D01*
X0127445Y0093090D01*
X0127445Y0093520D01*
X0127749Y0093824D01*
X0128179Y0093824D01*
X0128483Y0093520D01*
X0128483Y0093090D01*
X0128179Y0092786D01*
X0115377Y0084675D02*
X0115897Y0084155D01*
X0114175Y0084155D01*
X0112957Y0085373D01*
X0112957Y0087095D01*
X0114175Y0088313D01*
X0115897Y0088313D01*
X0117115Y0087095D01*
X0117115Y0085373D01*
X0115897Y0084155D01*
X0115574Y0084935D01*
X0114498Y0084935D01*
X0113737Y0085696D01*
X0113737Y0086772D01*
X0114498Y0087533D01*
X0115574Y0087533D01*
X0116335Y0086772D01*
X0116335Y0085696D01*
X0115574Y0084935D01*
X0115251Y0085715D01*
X0114821Y0085715D01*
X0114517Y0086019D01*
X0114517Y0086449D01*
X0114821Y0086753D01*
X0115251Y0086753D01*
X0115555Y0086449D01*
X0115555Y0086019D01*
X0115251Y0085715D01*
X0108305Y0091746D02*
X0108825Y0091226D01*
X0107103Y0091226D01*
X0105885Y0092444D01*
X0105885Y0094166D01*
X0107103Y0095384D01*
X0108825Y0095384D01*
X0110043Y0094166D01*
X0110043Y0092444D01*
X0108825Y0091226D01*
X0108502Y0092006D01*
X0107426Y0092006D01*
X0106665Y0092767D01*
X0106665Y0093843D01*
X0107426Y0094604D01*
X0108502Y0094604D01*
X0109263Y0093843D01*
X0109263Y0092767D01*
X0108502Y0092006D01*
X0108179Y0092786D01*
X0107749Y0092786D01*
X0107445Y0093090D01*
X0107445Y0093520D01*
X0107749Y0093824D01*
X0108179Y0093824D01*
X0108483Y0093520D01*
X0108483Y0093090D01*
X0108179Y0092786D01*
X0095377Y0084675D02*
X0095897Y0084155D01*
X0094175Y0084155D01*
X0092957Y0085373D01*
X0092957Y0087095D01*
X0094175Y0088313D01*
X0095897Y0088313D01*
X0097115Y0087095D01*
X0097115Y0085373D01*
X0095897Y0084155D01*
X0095574Y0084935D01*
X0094498Y0084935D01*
X0093737Y0085696D01*
X0093737Y0086772D01*
X0094498Y0087533D01*
X0095574Y0087533D01*
X0096335Y0086772D01*
X0096335Y0085696D01*
X0095574Y0084935D01*
X0095251Y0085715D01*
X0094821Y0085715D01*
X0094517Y0086019D01*
X0094517Y0086449D01*
X0094821Y0086753D01*
X0095251Y0086753D01*
X0095555Y0086449D01*
X0095555Y0086019D01*
X0095251Y0085715D01*
X0088305Y0091746D02*
X0088825Y0091226D01*
X0087103Y0091226D01*
X0085885Y0092444D01*
X0085885Y0094166D01*
X0087103Y0095384D01*
X0088825Y0095384D01*
X0090043Y0094166D01*
X0090043Y0092444D01*
X0088825Y0091226D01*
X0088502Y0092006D01*
X0087426Y0092006D01*
X0086665Y0092767D01*
X0086665Y0093843D01*
X0087426Y0094604D01*
X0088502Y0094604D01*
X0089263Y0093843D01*
X0089263Y0092767D01*
X0088502Y0092006D01*
X0088179Y0092786D01*
X0087749Y0092786D01*
X0087445Y0093090D01*
X0087445Y0093520D01*
X0087749Y0093824D01*
X0088179Y0093824D01*
X0088483Y0093520D01*
X0088483Y0093090D01*
X0088179Y0092786D01*
X0075377Y0084675D02*
X0075897Y0084155D01*
X0074175Y0084155D01*
X0072957Y0085373D01*
X0072957Y0087095D01*
X0074175Y0088313D01*
X0075897Y0088313D01*
X0077115Y0087095D01*
X0077115Y0085373D01*
X0075897Y0084155D01*
X0075574Y0084935D01*
X0074498Y0084935D01*
X0073737Y0085696D01*
X0073737Y0086772D01*
X0074498Y0087533D01*
X0075574Y0087533D01*
X0076335Y0086772D01*
X0076335Y0085696D01*
X0075574Y0084935D01*
X0075251Y0085715D01*
X0074821Y0085715D01*
X0074517Y0086019D01*
X0074517Y0086449D01*
X0074821Y0086753D01*
X0075251Y0086753D01*
X0075555Y0086449D01*
X0075555Y0086019D01*
X0075251Y0085715D01*
X0068305Y0091746D02*
X0068825Y0091226D01*
X0067103Y0091226D01*
X0065885Y0092444D01*
X0065885Y0094166D01*
X0067103Y0095384D01*
X0068825Y0095384D01*
X0070043Y0094166D01*
X0070043Y0092444D01*
X0068825Y0091226D01*
X0068502Y0092006D01*
X0067426Y0092006D01*
X0066665Y0092767D01*
X0066665Y0093843D01*
X0067426Y0094604D01*
X0068502Y0094604D01*
X0069263Y0093843D01*
X0069263Y0092767D01*
X0068502Y0092006D01*
X0068179Y0092786D01*
X0067749Y0092786D01*
X0067445Y0093090D01*
X0067445Y0093520D01*
X0067749Y0093824D01*
X0068179Y0093824D01*
X0068483Y0093520D01*
X0068483Y0093090D01*
X0068179Y0092786D01*
X0075377Y0104675D02*
X0075897Y0104155D01*
X0074175Y0104155D01*
X0072957Y0105373D01*
X0072957Y0107095D01*
X0074175Y0108313D01*
X0075897Y0108313D01*
X0077115Y0107095D01*
X0077115Y0105373D01*
X0075897Y0104155D01*
X0075574Y0104935D01*
X0074498Y0104935D01*
X0073737Y0105696D01*
X0073737Y0106772D01*
X0074498Y0107533D01*
X0075574Y0107533D01*
X0076335Y0106772D01*
X0076335Y0105696D01*
X0075574Y0104935D01*
X0075251Y0105715D01*
X0074821Y0105715D01*
X0074517Y0106019D01*
X0074517Y0106449D01*
X0074821Y0106753D01*
X0075251Y0106753D01*
X0075555Y0106449D01*
X0075555Y0106019D01*
X0075251Y0105715D01*
X0068305Y0111746D02*
X0068825Y0111226D01*
X0067103Y0111226D01*
X0065885Y0112444D01*
X0065885Y0114166D01*
X0067103Y0115384D01*
X0068825Y0115384D01*
X0070043Y0114166D01*
X0070043Y0112444D01*
X0068825Y0111226D01*
X0068502Y0112006D01*
X0067426Y0112006D01*
X0066665Y0112767D01*
X0066665Y0113843D01*
X0067426Y0114604D01*
X0068502Y0114604D01*
X0069263Y0113843D01*
X0069263Y0112767D01*
X0068502Y0112006D01*
X0068179Y0112786D01*
X0067749Y0112786D01*
X0067445Y0113090D01*
X0067445Y0113520D01*
X0067749Y0113824D01*
X0068179Y0113824D01*
X0068483Y0113520D01*
X0068483Y0113090D01*
X0068179Y0112786D01*
X0088305Y0111746D02*
X0088825Y0111226D01*
X0087103Y0111226D01*
X0085885Y0112444D01*
X0085885Y0114166D01*
X0087103Y0115384D01*
X0088825Y0115384D01*
X0090043Y0114166D01*
X0090043Y0112444D01*
X0088825Y0111226D01*
X0088502Y0112006D01*
X0087426Y0112006D01*
X0086665Y0112767D01*
X0086665Y0113843D01*
X0087426Y0114604D01*
X0088502Y0114604D01*
X0089263Y0113843D01*
X0089263Y0112767D01*
X0088502Y0112006D01*
X0088179Y0112786D01*
X0087749Y0112786D01*
X0087445Y0113090D01*
X0087445Y0113520D01*
X0087749Y0113824D01*
X0088179Y0113824D01*
X0088483Y0113520D01*
X0088483Y0113090D01*
X0088179Y0112786D01*
X0095377Y0104675D02*
X0095897Y0104155D01*
X0094175Y0104155D01*
X0092957Y0105373D01*
X0092957Y0107095D01*
X0094175Y0108313D01*
X0095897Y0108313D01*
X0097115Y0107095D01*
X0097115Y0105373D01*
X0095897Y0104155D01*
X0095574Y0104935D01*
X0094498Y0104935D01*
X0093737Y0105696D01*
X0093737Y0106772D01*
X0094498Y0107533D01*
X0095574Y0107533D01*
X0096335Y0106772D01*
X0096335Y0105696D01*
X0095574Y0104935D01*
X0095251Y0105715D01*
X0094821Y0105715D01*
X0094517Y0106019D01*
X0094517Y0106449D01*
X0094821Y0106753D01*
X0095251Y0106753D01*
X0095555Y0106449D01*
X0095555Y0106019D01*
X0095251Y0105715D01*
X0108305Y0111746D02*
X0108825Y0111226D01*
X0107103Y0111226D01*
X0105885Y0112444D01*
X0105885Y0114166D01*
X0107103Y0115384D01*
X0108825Y0115384D01*
X0110043Y0114166D01*
X0110043Y0112444D01*
X0108825Y0111226D01*
X0108502Y0112006D01*
X0107426Y0112006D01*
X0106665Y0112767D01*
X0106665Y0113843D01*
X0107426Y0114604D01*
X0108502Y0114604D01*
X0109263Y0113843D01*
X0109263Y0112767D01*
X0108502Y0112006D01*
X0108179Y0112786D01*
X0107749Y0112786D01*
X0107445Y0113090D01*
X0107445Y0113520D01*
X0107749Y0113824D01*
X0108179Y0113824D01*
X0108483Y0113520D01*
X0108483Y0113090D01*
X0108179Y0112786D01*
X0115377Y0104675D02*
X0115897Y0104155D01*
X0114175Y0104155D01*
X0112957Y0105373D01*
X0112957Y0107095D01*
X0114175Y0108313D01*
X0115897Y0108313D01*
X0117115Y0107095D01*
X0117115Y0105373D01*
X0115897Y0104155D01*
X0115574Y0104935D01*
X0114498Y0104935D01*
X0113737Y0105696D01*
X0113737Y0106772D01*
X0114498Y0107533D01*
X0115574Y0107533D01*
X0116335Y0106772D01*
X0116335Y0105696D01*
X0115574Y0104935D01*
X0115251Y0105715D01*
X0114821Y0105715D01*
X0114517Y0106019D01*
X0114517Y0106449D01*
X0114821Y0106753D01*
X0115251Y0106753D01*
X0115555Y0106449D01*
X0115555Y0106019D01*
X0115251Y0105715D01*
X0128305Y0111746D02*
X0128825Y0111226D01*
X0127103Y0111226D01*
X0125885Y0112444D01*
X0125885Y0114166D01*
X0127103Y0115384D01*
X0128825Y0115384D01*
X0130043Y0114166D01*
X0130043Y0112444D01*
X0128825Y0111226D01*
X0128502Y0112006D01*
X0127426Y0112006D01*
X0126665Y0112767D01*
X0126665Y0113843D01*
X0127426Y0114604D01*
X0128502Y0114604D01*
X0129263Y0113843D01*
X0129263Y0112767D01*
X0128502Y0112006D01*
X0128179Y0112786D01*
X0127749Y0112786D01*
X0127445Y0113090D01*
X0127445Y0113520D01*
X0127749Y0113824D01*
X0128179Y0113824D01*
X0128483Y0113520D01*
X0128483Y0113090D01*
X0128179Y0112786D01*
X0135377Y0104675D02*
X0135897Y0104155D01*
X0134175Y0104155D01*
X0132957Y0105373D01*
X0132957Y0107095D01*
X0134175Y0108313D01*
X0135897Y0108313D01*
X0137115Y0107095D01*
X0137115Y0105373D01*
X0135897Y0104155D01*
X0135574Y0104935D01*
X0134498Y0104935D01*
X0133737Y0105696D01*
X0133737Y0106772D01*
X0134498Y0107533D01*
X0135574Y0107533D01*
X0136335Y0106772D01*
X0136335Y0105696D01*
X0135574Y0104935D01*
X0135251Y0105715D01*
X0134821Y0105715D01*
X0134517Y0106019D01*
X0134517Y0106449D01*
X0134821Y0106753D01*
X0135251Y0106753D01*
X0135555Y0106449D01*
X0135555Y0106019D01*
X0135251Y0105715D01*
X0108305Y0071746D02*
X0108825Y0071226D01*
X0107103Y0071226D01*
X0105885Y0072444D01*
X0105885Y0074166D01*
X0107103Y0075384D01*
X0108825Y0075384D01*
X0110043Y0074166D01*
X0110043Y0072444D01*
X0108825Y0071226D01*
X0108502Y0072006D01*
X0107426Y0072006D01*
X0106665Y0072767D01*
X0106665Y0073843D01*
X0107426Y0074604D01*
X0108502Y0074604D01*
X0109263Y0073843D01*
X0109263Y0072767D01*
X0108502Y0072006D01*
X0108179Y0072786D01*
X0107749Y0072786D01*
X0107445Y0073090D01*
X0107445Y0073520D01*
X0107749Y0073824D01*
X0108179Y0073824D01*
X0108483Y0073520D01*
X0108483Y0073090D01*
X0108179Y0072786D01*
X0115377Y0064675D02*
X0115897Y0064155D01*
X0114175Y0064155D01*
X0112957Y0065373D01*
X0112957Y0067095D01*
X0114175Y0068313D01*
X0115897Y0068313D01*
X0117115Y0067095D01*
X0117115Y0065373D01*
X0115897Y0064155D01*
X0115574Y0064935D01*
X0114498Y0064935D01*
X0113737Y0065696D01*
X0113737Y0066772D01*
X0114498Y0067533D01*
X0115574Y0067533D01*
X0116335Y0066772D01*
X0116335Y0065696D01*
X0115574Y0064935D01*
X0115251Y0065715D01*
X0114821Y0065715D01*
X0114517Y0066019D01*
X0114517Y0066449D01*
X0114821Y0066753D01*
X0115251Y0066753D01*
X0115555Y0066449D01*
X0115555Y0066019D01*
X0115251Y0065715D01*
X0108305Y0051746D02*
X0108825Y0051226D01*
X0107103Y0051226D01*
X0105885Y0052444D01*
X0105885Y0054166D01*
X0107103Y0055384D01*
X0108825Y0055384D01*
X0110043Y0054166D01*
X0110043Y0052444D01*
X0108825Y0051226D01*
X0108502Y0052006D01*
X0107426Y0052006D01*
X0106665Y0052767D01*
X0106665Y0053843D01*
X0107426Y0054604D01*
X0108502Y0054604D01*
X0109263Y0053843D01*
X0109263Y0052767D01*
X0108502Y0052006D01*
X0108179Y0052786D01*
X0107749Y0052786D01*
X0107445Y0053090D01*
X0107445Y0053520D01*
X0107749Y0053824D01*
X0108179Y0053824D01*
X0108483Y0053520D01*
X0108483Y0053090D01*
X0108179Y0052786D01*
X0115377Y0044675D02*
X0115897Y0044155D01*
X0114175Y0044155D01*
X0112957Y0045373D01*
X0112957Y0047095D01*
X0114175Y0048313D01*
X0115897Y0048313D01*
X0117115Y0047095D01*
X0117115Y0045373D01*
X0115897Y0044155D01*
X0115574Y0044935D01*
X0114498Y0044935D01*
X0113737Y0045696D01*
X0113737Y0046772D01*
X0114498Y0047533D01*
X0115574Y0047533D01*
X0116335Y0046772D01*
X0116335Y0045696D01*
X0115574Y0044935D01*
X0115251Y0045715D01*
X0114821Y0045715D01*
X0114517Y0046019D01*
X0114517Y0046449D01*
X0114821Y0046753D01*
X0115251Y0046753D01*
X0115555Y0046449D01*
X0115555Y0046019D01*
X0115251Y0045715D01*
X0095377Y0044675D02*
X0095897Y0044155D01*
X0094175Y0044155D01*
X0092957Y0045373D01*
X0092957Y0047095D01*
X0094175Y0048313D01*
X0095897Y0048313D01*
X0097115Y0047095D01*
X0097115Y0045373D01*
X0095897Y0044155D01*
X0095574Y0044935D01*
X0094498Y0044935D01*
X0093737Y0045696D01*
X0093737Y0046772D01*
X0094498Y0047533D01*
X0095574Y0047533D01*
X0096335Y0046772D01*
X0096335Y0045696D01*
X0095574Y0044935D01*
X0095251Y0045715D01*
X0094821Y0045715D01*
X0094517Y0046019D01*
X0094517Y0046449D01*
X0094821Y0046753D01*
X0095251Y0046753D01*
X0095555Y0046449D01*
X0095555Y0046019D01*
X0095251Y0045715D01*
X0088305Y0051746D02*
X0088825Y0051226D01*
X0087103Y0051226D01*
X0085885Y0052444D01*
X0085885Y0054166D01*
X0087103Y0055384D01*
X0088825Y0055384D01*
X0090043Y0054166D01*
X0090043Y0052444D01*
X0088825Y0051226D01*
X0088502Y0052006D01*
X0087426Y0052006D01*
X0086665Y0052767D01*
X0086665Y0053843D01*
X0087426Y0054604D01*
X0088502Y0054604D01*
X0089263Y0053843D01*
X0089263Y0052767D01*
X0088502Y0052006D01*
X0088179Y0052786D01*
X0087749Y0052786D01*
X0087445Y0053090D01*
X0087445Y0053520D01*
X0087749Y0053824D01*
X0088179Y0053824D01*
X0088483Y0053520D01*
X0088483Y0053090D01*
X0088179Y0052786D01*
X0095377Y0064675D02*
X0095897Y0064155D01*
X0094175Y0064155D01*
X0092957Y0065373D01*
X0092957Y0067095D01*
X0094175Y0068313D01*
X0095897Y0068313D01*
X0097115Y0067095D01*
X0097115Y0065373D01*
X0095897Y0064155D01*
X0095574Y0064935D01*
X0094498Y0064935D01*
X0093737Y0065696D01*
X0093737Y0066772D01*
X0094498Y0067533D01*
X0095574Y0067533D01*
X0096335Y0066772D01*
X0096335Y0065696D01*
X0095574Y0064935D01*
X0095251Y0065715D01*
X0094821Y0065715D01*
X0094517Y0066019D01*
X0094517Y0066449D01*
X0094821Y0066753D01*
X0095251Y0066753D01*
X0095555Y0066449D01*
X0095555Y0066019D01*
X0095251Y0065715D01*
X0088305Y0071746D02*
X0088825Y0071226D01*
X0087103Y0071226D01*
X0085885Y0072444D01*
X0085885Y0074166D01*
X0087103Y0075384D01*
X0088825Y0075384D01*
X0090043Y0074166D01*
X0090043Y0072444D01*
X0088825Y0071226D01*
X0088502Y0072006D01*
X0087426Y0072006D01*
X0086665Y0072767D01*
X0086665Y0073843D01*
X0087426Y0074604D01*
X0088502Y0074604D01*
X0089263Y0073843D01*
X0089263Y0072767D01*
X0088502Y0072006D01*
X0088179Y0072786D01*
X0087749Y0072786D01*
X0087445Y0073090D01*
X0087445Y0073520D01*
X0087749Y0073824D01*
X0088179Y0073824D01*
X0088483Y0073520D01*
X0088483Y0073090D01*
X0088179Y0072786D01*
X0075377Y0064675D02*
X0075897Y0064155D01*
X0074175Y0064155D01*
X0072957Y0065373D01*
X0072957Y0067095D01*
X0074175Y0068313D01*
X0075897Y0068313D01*
X0077115Y0067095D01*
X0077115Y0065373D01*
X0075897Y0064155D01*
X0075574Y0064935D01*
X0074498Y0064935D01*
X0073737Y0065696D01*
X0073737Y0066772D01*
X0074498Y0067533D01*
X0075574Y0067533D01*
X0076335Y0066772D01*
X0076335Y0065696D01*
X0075574Y0064935D01*
X0075251Y0065715D01*
X0074821Y0065715D01*
X0074517Y0066019D01*
X0074517Y0066449D01*
X0074821Y0066753D01*
X0075251Y0066753D01*
X0075555Y0066449D01*
X0075555Y0066019D01*
X0075251Y0065715D01*
X0068305Y0071746D02*
X0068825Y0071226D01*
X0067103Y0071226D01*
X0065885Y0072444D01*
X0065885Y0074166D01*
X0067103Y0075384D01*
X0068825Y0075384D01*
X0070043Y0074166D01*
X0070043Y0072444D01*
X0068825Y0071226D01*
X0068502Y0072006D01*
X0067426Y0072006D01*
X0066665Y0072767D01*
X0066665Y0073843D01*
X0067426Y0074604D01*
X0068502Y0074604D01*
X0069263Y0073843D01*
X0069263Y0072767D01*
X0068502Y0072006D01*
X0068179Y0072786D01*
X0067749Y0072786D01*
X0067445Y0073090D01*
X0067445Y0073520D01*
X0067749Y0073824D01*
X0068179Y0073824D01*
X0068483Y0073520D01*
X0068483Y0073090D01*
X0068179Y0072786D01*
X0068305Y0051746D02*
X0068825Y0051226D01*
X0067103Y0051226D01*
X0065885Y0052444D01*
X0065885Y0054166D01*
X0067103Y0055384D01*
X0068825Y0055384D01*
X0070043Y0054166D01*
X0070043Y0052444D01*
X0068825Y0051226D01*
X0068502Y0052006D01*
X0067426Y0052006D01*
X0066665Y0052767D01*
X0066665Y0053843D01*
X0067426Y0054604D01*
X0068502Y0054604D01*
X0069263Y0053843D01*
X0069263Y0052767D01*
X0068502Y0052006D01*
X0068179Y0052786D01*
X0067749Y0052786D01*
X0067445Y0053090D01*
X0067445Y0053520D01*
X0067749Y0053824D01*
X0068179Y0053824D01*
X0068483Y0053520D01*
X0068483Y0053090D01*
X0068179Y0052786D01*
X0075377Y0044675D02*
X0075897Y0044155D01*
X0074175Y0044155D01*
X0072957Y0045373D01*
X0072957Y0047095D01*
X0074175Y0048313D01*
X0075897Y0048313D01*
X0077115Y0047095D01*
X0077115Y0045373D01*
X0075897Y0044155D01*
X0075574Y0044935D01*
X0074498Y0044935D01*
X0073737Y0045696D01*
X0073737Y0046772D01*
X0074498Y0047533D01*
X0075574Y0047533D01*
X0076335Y0046772D01*
X0076335Y0045696D01*
X0075574Y0044935D01*
X0075251Y0045715D01*
X0074821Y0045715D01*
X0074517Y0046019D01*
X0074517Y0046449D01*
X0074821Y0046753D01*
X0075251Y0046753D01*
X0075555Y0046449D01*
X0075555Y0046019D01*
X0075251Y0045715D01*
D16*
X0064000Y0127270D03*
X0051500Y0127270D03*
X0039000Y0127270D03*
X0026500Y0127270D03*
X0026500Y0157270D03*
X0039000Y0157270D03*
X0051500Y0157270D03*
X0064000Y0157270D03*
X0161500Y0112270D03*
X0191500Y0112270D03*
D17*
X0061500Y0174270D02*
X0061500Y0180270D01*
X0051500Y0180270D02*
X0051500Y0174270D01*
X0041500Y0174270D02*
X0041500Y0180270D01*
D18*
X0051500Y0177270D02*
X0051500Y0169770D01*
X0031500Y0169770D01*
X0021500Y0159770D01*
X0021500Y0154770D01*
X0044000Y0132270D01*
X0101500Y0132270D01*
X0104000Y0134770D01*
X0114902Y0134770D01*
X0114902Y0131368D01*
X0124000Y0122270D01*
X0181500Y0122270D01*
X0186500Y0127270D01*
X0189000Y0132270D02*
X0181500Y0132270D01*
X0176500Y0127270D01*
X0176500Y0137270D02*
X0171500Y0142270D01*
X0139000Y0142270D01*
X0136500Y0139770D01*
X0114902Y0139770D01*
X0099000Y0139770D01*
X0096500Y0137270D01*
X0059000Y0137270D01*
X0039000Y0157270D01*
X0031500Y0162270D02*
X0066500Y0162270D01*
X0081500Y0147270D01*
X0096500Y0147270D01*
X0099000Y0144770D01*
X0114902Y0144770D01*
X0179000Y0144770D01*
X0186500Y0137270D01*
X0189000Y0132270D02*
X0191500Y0134770D01*
X0191500Y0139770D01*
X0184000Y0147270D01*
X0121500Y0147270D01*
X0119000Y0149770D01*
X0114902Y0149770D01*
X0101500Y0137270D02*
X0166500Y0137270D01*
X0145464Y0113305D02*
X0146500Y0112270D01*
X0161500Y0112270D01*
X0145464Y0113305D02*
X0127964Y0113305D01*
X0107964Y0113305D01*
X0087964Y0113305D01*
X0067964Y0113305D01*
X0061500Y0112270D02*
X0067536Y0106234D01*
X0075036Y0106234D01*
X0061500Y0104770D02*
X0039000Y0127270D01*
X0061500Y0124770D02*
X0061500Y0112270D01*
X0061500Y0104770D02*
X0061500Y0079770D01*
X0062964Y0078305D01*
X0067964Y0073305D01*
X0087964Y0073305D01*
X0107964Y0073305D01*
X0127964Y0073305D01*
X0115036Y0080376D02*
X0115036Y0086234D01*
X0115036Y0080376D02*
X0107964Y0073305D01*
X0095036Y0066234D02*
X0095036Y0060376D01*
X0087964Y0053305D01*
X0107964Y0053305D01*
X0127964Y0053305D01*
X0127964Y0033305D02*
X0107964Y0033305D01*
X0087964Y0033305D01*
X0067964Y0033305D01*
X0075036Y0040376D01*
X0075036Y0046234D01*
X0067964Y0053305D02*
X0087964Y0053305D01*
X0087964Y0093305D02*
X0067964Y0093305D01*
X0087964Y0093305D02*
X0107964Y0093305D01*
X0127964Y0093305D01*
X0135036Y0100376D01*
X0135036Y0106234D01*
X0101500Y0137270D02*
X0099000Y0134770D01*
X0088098Y0134770D01*
X0088098Y0139730D02*
X0069039Y0139730D01*
X0051500Y0157270D01*
X0064000Y0157270D02*
X0076539Y0144730D01*
X0088098Y0144730D01*
X0088098Y0149730D02*
X0086500Y0149730D01*
X0086500Y0167270D01*
X0099000Y0152270D02*
X0141500Y0152270D01*
X0156500Y0177270D02*
X0166500Y0167270D01*
X0156500Y0177270D02*
X0061500Y0177270D01*
X0088098Y0149730D02*
X0096461Y0149730D01*
X0099000Y0152270D01*
X0064000Y0127270D02*
X0061500Y0124770D01*
X0026500Y0157270D02*
X0031500Y0162270D01*
D19*
X0141500Y0152270D03*
M02*
