<?xml version="1.0" encoding="UTF-8" standalone="no"?>
<!-- Created with Inkscape (http://www.inkscape.org/) -->

<svg
   xmlns:dc="http://purl.org/dc/elements/1.1/"
   xmlns:cc="http://creativecommons.org/ns#"
   xmlns:rdf="http://www.w3.org/1999/02/22-rdf-syntax-ns#"
   xmlns:svg="http://www.w3.org/2000/svg"
   xmlns="http://www.w3.org/2000/svg"
   xmlns:sodipodi="http://sodipodi.sourceforge.net/DTD/sodipodi-0.dtd"
   xmlns:inkscape="http://www.inkscape.org/namespaces/inkscape"
   width="42.616238mm"
   height="51mm"
   viewBox="0 0 151.00242 180.70866"
   id="svg2"
   version="1.1"
   inkscape:version="0.91 r13725"
   sodipodi:docname="ladybug.svg"
   inkscape:export-filename="/home/fdb/eagle/Merchandising/Ladybug/ladybug.png"
   inkscape:export-xdpi="299.81961"
   inkscape:export-ydpi="299.81961">
  <sodipodi:namedview
     id="base"
     pagecolor="#ffffff"
     bordercolor="#666666"
     borderopacity="1.0"
     inkscape:pageopacity="0.0"
     inkscape:pageshadow="2"
     inkscape:zoom="1.4"
     inkscape:cx="-152.54971"
     inkscape:cy="-65.186781"
     inkscape:document-units="px"
     inkscape:current-layer="layer1"
     showgrid="false"
     showguides="true"
     inkscape:guide-bbox="true"
     inkscape:window-width="1920"
     inkscape:window-height="1056"
     inkscape:window-x="0"
     inkscape:window-y="24"
     inkscape:window-maximized="1"
     inkscape:snap-bbox="true"
     inkscape:snap-page="true"
     inkscape:snap-text-baseline="true"
     inkscape:snap-center="true"
     inkscape:snap-object-midpoints="true"
     inkscape:snap-midpoints="true"
     inkscape:snap-smooth-nodes="true"
     inkscape:snap-intersection-paths="true"
     inkscape:object-paths="true"
     inkscape:snap-bbox-midpoints="true"
     inkscape:snap-bbox-edge-midpoints="true"
     inkscape:bbox-nodes="true"
     inkscape:bbox-paths="true"
     fit-margin-top="0"
     fit-margin-left="0"
     fit-margin-right="0"
     fit-margin-bottom="0" />
  <defs
     id="defs4" />
  <metadata
     id="metadata7">
    <rdf:RDF>
      <cc:Work
         rdf:about="">
        <dc:format>image/svg+xml</dc:format>
        <dc:type
           rdf:resource="http://purl.org/dc/dcmitype/StillImage" />
        <dc:title />
      </cc:Work>
    </rdf:RDF>
  </metadata>
  <g
     inkscape:label="Layer 1"
     inkscape:groupmode="layer"
     id="layer1"
     transform="translate(-259.86849,-871.65354)">
    <g
       id="g3492"
       transform="matrix(0.2251283,0,0,0.2251283,252.4945,858.29662)">
      <path
         inkscape:connector-curvature="0"
         id="path3366"
         d="M368.12432 62.221313L358.360627359 62.4577359926L348.620516183 63.1663222561L338.927158592 64.3488857952L329.302493866 66.0054432533L319.771834282 68.1334610674L310.357396365 70.7289899841L301.082934066 73.7858610829L291.969246062 77.2971340556L283.040130991 81.2531161517L274.317265784 85.6431736492L265.819750839 90.45656781L257.568008018 95.6806206295L249.581497725 101.301861181L241.879653044 107.305462974L234.478647352 113.677981788L227.397227819 120.402760931L220.651125428 127.464645446L214.257133344 134.846275657L208.229844608 142.531504987L202.584744622 150.501793061L197.3363753 158.738037674L192.497782244 167.221543591L188.0812139 175.9330635L184.099141342 184.850109452L180.561581147 193.951946489L177.477273615 203.217570596L174.853619877 212.625709416L172.697481856 222.150431546L171.012652977 231.769945972L169.801399354 241.461457246L169.064208429 251.199934666L168.79916 260.96225L160.934080747 267.038736803L153.253882442 273.347256069L145.766501986 279.881605474L138.477962832 286.636720116L131.394539852 293.606964508L124.522894673 300.785882481L117.868908513 308.167358688L111.438178715 315.74521971L105.237480348 323.511400904L99.2716838978 331.459640909L93.5457100957 339.583321974L88.0649762358 347.874699587L82.8349414431 356.325324429L77.8596080655 364.928548701L73.1434372196 373.67659377L68.6908984302 382.561074448L64.5050594188 391.575964727L60.5907113466 400.71106779L56.9512526018 409.958381425L53.5892831856 419.311535441L50.508726176 428.759841014L47.7119073959 438.296287041L45.2015244864 447.911984195L42.9795714434 457.599798475L41.0488087138 467.347812323L39.410358355 477.15028405L38.0659194791 486.997205014L37.0165134143 496.880852723L36.2631464111 506.790493298L35.8061728033 516.71802717L35.645683 526.654629994L35.7889499715 536.508451253L36.2196464152 546.353118309L36.9390776672 556.182350788L37.9479248891 565.986279037L39.2462045869 575.754695809L40.8338814508 585.480736089L42.7101755419 595.155086039L44.8740937394 604.769720705L47.323676564 614.314377102L50.0576921358 623.783271269L53.0729831521 633.165085183L56.3671985273 642.452774123L59.9374559565 651.63851644L63.7802465105 660.713793303L67.8913485057 669.669475606L72.2676967107 678.499700437L76.9042510574 687.19511506L81.7971218141 695.749300141L86.9416100707 704.154783274L92.3327853081 712.404225224L97.9654141332 720.490307085L103.834589444 728.406576487L109.934920668 736.146230332L116.261117621 743.702911773L122.807116434 751.069658522L129.567343335 758.240402664L136.536487265 765.209542919L143.70780707 771.97028969L151.07498329 778.516621935L158.631729974 784.842815201L166.371348747 790.943062474L174.28754906 796.812135143L182.373757969 802.444801989L190.62360666 807.836183346L199.028735872 812.980396301L207.583739768 817.873669798L216.27974331 822.510447779L225.109621033 826.886531658L234.065358821 830.997574708L243.141049618 834.840450068L252.32667368 838.410568086L261.614286189 841.704668225L270.996881353 844.720112405L280.464358994 847.453632947L290.009710859 849.903321247L299.624802007 852.067252138L309.298358621 853.943308632L319.025160904 855.531027609L328.794236183 856.829291889L338.597938627 857.838007287L348.425733993 858.557250078L358.270470575 858.987886757L368.12432 859.13109L377.978142473 858.987887927L387.822812632 858.557256306L397.652050112 857.837889761L407.455985262 856.829107064L417.224410836 855.530891642L426.950461819 853.94327876L436.624824366 852.067048297L446.239473517 849.90319332L455.784146273 847.453673241L465.253058665 844.719719903L474.634892649 841.704490533L483.922603487 838.410336171L493.108369513 834.840139072L502.18367187 830.997408108L511.139381425 826.886364904L519.969635244 822.510074652L528.66508056 817.87357736L537.219298011 812.980762717L545.624815161 807.836329585L553.87429274 802.445208435L561.96041181 796.812632613L569.876719967 790.943509177L577.616414077 784.843228658L585.173137258 778.517081197L592.539927182 771.971130617L599.710715897 765.210950652L606.679902087 758.241852324L613.440696111 751.070576744L619.987076886 743.70344333L626.313319914 736.146737998L632.413618141 728.407159086L638.282742911 720.490997108L643.915462964 712.404824973L649.30689859 704.155011464L654.451166821 695.749915805L659.344496566 687.194943808L663.981331708 678.498970475L668.357473614 669.669121243L672.468575504 660.713410201L676.311510477 651.637744384L679.881688816 642.452143508L683.175849931 633.164552368L686.191355697 623.78197674L688.924938368 614.314516781L691.374689292 604.769180732L693.538683252 595.154103521L695.414803182 585.480558953L697.00258593 575.753766821L698.300914243 565.984699793L699.309693886 556.181003698L700.029001066 546.35321278L700.459702228 536.508478751L700.60297 526.654629994L700.439547498 516.720907092L699.979820393 506.796470178L699.224007859 496.89138164L698.172562215 487.013490981L696.826242298 477.171190285L695.186232808 467.373672217L693.253912069 457.629300504L691.030874588 447.946246215L688.519525055 438.334754863L685.721962894 428.802467931L682.64054283 419.357280303L679.278224915 410.008158534L675.638508525 400.76452429L671.724321479 391.633554912L667.539222789 382.623471615L663.087252118 373.742865214L658.371947941 364.998776637L653.397496372 356.399083859L648.168828455 347.952362935L642.689488256 339.664502358L636.9656869 331.54503384L631.001645627 323.600009845L624.802867374 315.836904323L618.374662924 308.262483854L611.723247412 300.884122601L604.853419744 293.707211882L597.772176582 286.739096404L590.485089232 279.985210407L583.000149509 273.452777936L575.323629612 267.146924988L567.46254 261.073L567.202674247 251.305665524L566.470311145 241.563155738L565.263697925 231.868665151L563.583094442 222.245231613L561.430714038 212.715961368L558.810740646 203.304216327L555.729413658 194.033753663L552.193737694 184.925372166L548.2134793 176.002864791L543.79934182 167.287899472L538.962127686 158.799566298L533.714583292 150.558272284L528.070246288 142.583460451L522.044010803 134.894542795L515.649379921 127.507673897L508.903077545 120.441574439L501.820317501 113.711951574L494.418522237 107.335568904L486.713894869 101.326992099L478.7250358 95.7016727141L470.471105058 90.4741165085L461.970851523 85.6573330475L453.243574217 81.2635324452L444.311814763 77.3051378333L435.195254069 73.7917280133L425.91727927 70.7328855102L416.497968665 68.1354521813L406.961848282 66.0059409358L397.3339725 64.3487859269L387.635378763 63.1657502879L377.891115273 62.4572539987L368.12432 62.221313L368.12432 62.221313"
         style="color:#000000;clip-rule:nonzero;display:inline;overflow:visible;visibility:visible;opacity:1;isolation:auto;mix-blend-mode:normal;color-interpolation:sRGB;color-interpolation-filters:linearRGB;solid-color:#000000;solid-opacity:1;fill:#000000;fill-opacity:1;fill-rule:nonzero;stroke:#000000;stroke-width:5.78212357;stroke-linecap:butt;stroke-linejoin:miter;stroke-miterlimit:4;stroke-dasharray:none;stroke-dashoffset:0;stroke-opacity:1;color-rendering:auto;image-rendering:auto;shape-rendering:auto;text-rendering:auto;enable-background:accumulate" />
    </g>
    <path
       style="fill:#ffffff;fill-opacity:1;fill-rule:evenodd;stroke:none;stroke-width:1.5;stroke-linecap:butt;stroke-linejoin:miter;stroke-miterlimit:4;stroke-dasharray:none;stroke-opacity:1"
       d="m 289.90085,922.06704 c -76.80174,83.66726 42.71604,144.20716 44.31403,119.49446 1.40433,-21.7178 -5.72224,-94.36215 -7.53577,-103.69961 -0.17545,-0.90334 -1.26946,-1.02105 -1.80982,-0.97791 -15.79542,1.26117 -28.91118,-10.43921 -33.40266,-15.07988 -0.42547,-0.43961 -1.29924,-0.25995 -1.56578,0.26294 z m 17.59311,18.1244 c 5.84963,-0.29151 11.33103,2.96858 13.91662,8.27698 3.5539,7.29676 0.57594,16.0655 -6.6514,19.58528 -7.2271,3.5197 -15.96657,0.45791 -19.5202,-6.83871 -3.55367,-7.29653 -0.57595,-16.0649 6.65096,-19.58484 1.7507,-0.85256 3.65632,-1.34179 5.60402,-1.43871 z m -21.9676,36.88014 c 7.69279,1.1e-4 13.92896,7.12729 13.92894,15.91904 2e-5,8.79178 -6.23615,15.91888 -13.92894,15.91908 -7.69278,-2e-4 -13.92896,-7.1273 -13.92893,-15.91908 -3e-5,-8.79176 6.23615,-15.91893 13.92893,-15.91904 z m 28.95704,31.99502 c 0.76661,0.015 1.52949,0.098 2.28031,0.2484 7.27807,1.458 11.94312,8.8047 10.41965,16.4093 -1.52337,7.6044 -8.65818,12.5871 -15.93618,11.1293 -7.27806,-1.4578 -11.94328,-8.8043 -10.42009,-16.4088 1.34226,-6.7017 7.1075,-11.5052 13.65631,-11.3782 z"
       id="path4173"
       inkscape:connector-curvature="0"
       sodipodi:nodetypes="csssscccsscccscscccsscc"
       inkscape:export-xdpi="100"
       inkscape:export-ydpi="100" />
    <path
       style="fill:#ffffff;fill-opacity:1;fill-rule:evenodd;stroke:none;stroke-width:1.5;stroke-linecap:butt;stroke-linejoin:miter;stroke-miterlimit:4;stroke-dasharray:none;stroke-opacity:1"
       d="m 378.00328,921.74034 c -8.17619,10.46997 -29.81021,14.45372 -37.2637,14.766 -0.54917,0.023 -0.89352,0.69541 -0.91848,0.94166 -0.68004,6.71051 2.37134,79.9502 3.39307,104.1571 1.07027,25.3571 111.20627,-40.4018 37.33204,-120.19894 -0.72604,-0.78424 -1.37022,-1.16754 -2.54293,0.33418 z m -18.16919,16.32997 c 7.84954,2.1e-4 14.2128,6.43985 14.21298,14.38358 6e-5,7.94391 -6.36327,14.38381 -14.21298,14.38403 -7.84989,3e-5 -14.21348,-6.43994 -14.21342,-14.38403 1.8e-4,-7.94391 6.36371,-14.38361 14.21342,-14.38358 z m 24.08433,33.08462 c 5.46068,-0.15824 10.78522,2.7955 13.88453,7.70229 4.68043,7.41026 2.92951,16.91978 -3.91073,21.23988 -6.83994,4.32 -16.17881,1.8152 -20.8591,-5.59478 -4.6805,-7.41014 -2.92979,-16.91963 3.91028,-21.23989 2.07499,-1.31047 4.47341,-2.03515 6.97502,-2.1075 z m -24.17358,37.78217 c 5.86933,-0.3047 11.41338,4.0916 13.25706,10.5124 2.14031,7.4544 -1.40909,15.0146 -7.92786,16.8864 -6.51874,1.8718 -13.53839,-2.6536 -15.67895,-10.1079 -2.14058,-7.4544 1.40864,-15.0148 7.92742,-16.8868 0.78759,-0.2261 1.59907,-0.3615 2.42233,-0.4041 z"
       id="path4247"
       inkscape:connector-curvature="0"
       sodipodi:nodetypes="ssssssccccccccsccccsscc" />
    <g
       id="g3348"
       transform="matrix(0.2251283,0,0,0.2251283,481.78024,858.29662)">
      <path
         style="color:#000000;clip-rule:nonzero;display:inline;overflow:visible;visibility:visible;opacity:1;isolation:auto;mix-blend-mode:normal;color-interpolation:sRGB;color-interpolation-filters:linearRGB;solid-color:#000000;solid-opacity:1;fill:#000000;fill-opacity:1;fill-rule:nonzero;stroke:#000000;stroke-width:5.78212357;stroke-linecap:butt;stroke-linejoin:miter;stroke-miterlimit:4;stroke-dasharray:none;stroke-dashoffset:0;stroke-opacity:1;color-rendering:auto;image-rendering:auto;shape-rendering:auto;text-rendering:auto;enable-background:accumulate"
         d="M 368.12432,62.221313 A 199.3562,199.3562 0 0 0 168.79916,260.96225 332.47786,332.47786 0 0 0 35.645683,526.65463 332.47786,332.47786 0 0 0 368.12432,859.13109 332.47786,332.47786 0 0 0 700.60297,526.65463 332.47786,332.47786 0 0 0 567.46254,261.073 199.3562,199.3562 0 0 0 368.12432,62.221313 Z"
         id="path3350"
         inkscape:connector-curvature="0" />
    </g>
    <path
       inkscape:export-ydpi="100"
       inkscape:export-xdpi="100"
       sodipodi:nodetypes="csssscccsscccscscccsscc"
       inkscape:connector-curvature="0"
       id="path3352"
       d="m 519.18659,922.06704 c -76.80174,83.66726 42.71604,144.20716 44.31403,119.49446 1.40433,-21.7178 -5.72224,-94.36215 -7.53577,-103.69961 -0.17545,-0.90334 -1.26946,-1.02105 -1.80982,-0.97791 -15.79542,1.26117 -28.91118,-10.43921 -33.40266,-15.07988 -0.42547,-0.43961 -1.29924,-0.25995 -1.56578,0.26294 z m 17.59311,18.1244 c 5.84963,-0.29151 11.33103,2.96858 13.91662,8.27698 3.5539,7.29676 0.57594,16.0655 -6.6514,19.58528 -7.2271,3.5197 -15.96657,0.45791 -19.5202,-6.83871 -3.55367,-7.29653 -0.57595,-16.0649 6.65096,-19.58484 1.7507,-0.85256 3.65632,-1.34179 5.60402,-1.43871 z m -21.9676,36.88014 c 7.69279,1.1e-4 13.92896,7.12729 13.92894,15.91904 2e-5,8.79178 -6.23615,15.91888 -13.92894,15.91908 -7.69278,-2e-4 -13.92896,-7.1273 -13.92893,-15.91908 -3e-5,-8.79176 6.23615,-15.91893 13.92893,-15.91904 z m 28.95704,31.99502 c 0.76661,0.015 1.52949,0.098 2.28031,0.2484 7.27807,1.458 11.94312,8.8047 10.41965,16.4093 -1.52337,7.6044 -8.65818,12.5871 -15.93618,11.1293 -7.27806,-1.4578 -11.94328,-8.8043 -10.42009,-16.4088 1.34226,-6.7017 7.1075,-11.5052 13.65631,-11.3782 z"
       style="fill:#ff0000;fill-opacity:1;fill-rule:evenodd;stroke:none;stroke-width:1.5;stroke-linecap:butt;stroke-linejoin:miter;stroke-miterlimit:4;stroke-dasharray:none;stroke-opacity:1" />
    <path
       sodipodi:nodetypes="ssssssccccccccsccccsscc"
       inkscape:connector-curvature="0"
       id="path3354"
       d="m 607.28902,921.74034 c -8.17619,10.46997 -29.81021,14.45372 -37.2637,14.766 -0.54917,0.023 -0.89352,0.69541 -0.91848,0.94166 -0.68004,6.71051 2.37134,79.9502 3.39307,104.1571 1.07027,25.3571 111.20627,-40.4018 37.33204,-120.19894 -0.72604,-0.78424 -1.37022,-1.16754 -2.54293,0.33418 z m -18.16919,16.32997 c 7.84954,2.1e-4 14.2128,6.43985 14.21298,14.38358 6e-5,7.94391 -6.36327,14.38381 -14.21298,14.38403 -7.84989,3e-5 -14.21348,-6.43994 -14.21342,-14.38403 1.8e-4,-7.94391 6.36371,-14.38361 14.21342,-14.38358 z m 24.08433,33.08462 c 5.46068,-0.15824 10.78522,2.7955 13.88453,7.70229 4.68043,7.41026 2.92951,16.91978 -3.91073,21.23988 -6.83994,4.32 -16.17881,1.8152 -20.8591,-5.59478 -4.6805,-7.41014 -2.92979,-16.91963 3.91028,-21.23989 2.07499,-1.31047 4.47341,-2.03515 6.97502,-2.1075 z m -24.17358,37.78217 c 5.86933,-0.3047 11.41338,4.0916 13.25706,10.5124 2.14031,7.4544 -1.40909,15.0146 -7.92786,16.8864 -6.51874,1.8718 -13.53839,-2.6536 -15.67895,-10.1079 -2.14058,-7.4544 1.40864,-15.0148 7.92742,-16.8868 0.78759,-0.2261 1.59907,-0.3615 2.42233,-0.4041 z"
       style="fill:#ff0000;fill-opacity:1;fill-rule:evenodd;stroke:none;stroke-width:1.5;stroke-linecap:butt;stroke-linejoin:miter;stroke-miterlimit:4;stroke-dasharray:none;stroke-opacity:1" />
  </g>
</svg>
