G75*
%MOIN*%
%OFA0B0*%
%FSLAX25Y25*%
%IPPOS*%
%LPD*%
%AMOC8*
5,1,8,0,0,1.08239X$1,22.5*
%
%ADD10C,0.01000*%
%ADD11C,0.00600*%
%ADD12C,0.00200*%
D10*
X0001500Y0101500D02*
X0001530Y0103954D01*
X0001620Y0106407D01*
X0001771Y0108856D01*
X0001982Y0111302D01*
X0002252Y0113741D01*
X0002582Y0116173D01*
X0002972Y0118596D01*
X0003421Y0121009D01*
X0003930Y0123410D01*
X0004497Y0125798D01*
X0005122Y0128171D01*
X0005806Y0130528D01*
X0006547Y0132868D01*
X0007346Y0135189D01*
X0008201Y0137490D01*
X0009112Y0139768D01*
X0010079Y0142024D01*
X0011101Y0144256D01*
X0012178Y0146461D01*
X0013308Y0148640D01*
X0014491Y0150790D01*
X0015727Y0152910D01*
X0017015Y0155000D01*
X0018353Y0157057D01*
X0019742Y0159081D01*
X0021179Y0161070D01*
X0022665Y0163023D01*
X0024199Y0164939D01*
X0025779Y0166817D01*
X0027405Y0168656D01*
X0029075Y0170454D01*
X0030789Y0172211D01*
X0032546Y0173925D01*
X0034344Y0175595D01*
X0036183Y0177221D01*
X0038061Y0178801D01*
X0039977Y0180335D01*
X0041930Y0181821D01*
X0043919Y0183258D01*
X0045943Y0184647D01*
X0048000Y0185985D01*
X0050090Y0187273D01*
X0052210Y0188509D01*
X0054360Y0189692D01*
X0056539Y0190822D01*
X0058744Y0191899D01*
X0060976Y0192921D01*
X0063232Y0193888D01*
X0065510Y0194799D01*
X0067811Y0195654D01*
X0070132Y0196453D01*
X0072472Y0197194D01*
X0074829Y0197878D01*
X0077202Y0198503D01*
X0079590Y0199070D01*
X0081991Y0199579D01*
X0084404Y0200028D01*
X0086827Y0200418D01*
X0089259Y0200748D01*
X0091698Y0201018D01*
X0094144Y0201229D01*
X0096593Y0201380D01*
X0099046Y0201470D01*
X0101500Y0201500D01*
X0103954Y0201470D01*
X0106407Y0201380D01*
X0108856Y0201229D01*
X0111302Y0201018D01*
X0113741Y0200748D01*
X0116173Y0200418D01*
X0118596Y0200028D01*
X0121009Y0199579D01*
X0123410Y0199070D01*
X0125798Y0198503D01*
X0128171Y0197878D01*
X0130528Y0197194D01*
X0132868Y0196453D01*
X0135189Y0195654D01*
X0137490Y0194799D01*
X0139768Y0193888D01*
X0142024Y0192921D01*
X0144256Y0191899D01*
X0146461Y0190822D01*
X0148640Y0189692D01*
X0150790Y0188509D01*
X0152910Y0187273D01*
X0155000Y0185985D01*
X0157057Y0184647D01*
X0159081Y0183258D01*
X0161070Y0181821D01*
X0163023Y0180335D01*
X0164939Y0178801D01*
X0166817Y0177221D01*
X0168656Y0175595D01*
X0170454Y0173925D01*
X0172211Y0172211D01*
X0173925Y0170454D01*
X0175595Y0168656D01*
X0177221Y0166817D01*
X0178801Y0164939D01*
X0180335Y0163023D01*
X0181821Y0161070D01*
X0183258Y0159081D01*
X0184647Y0157057D01*
X0185985Y0155000D01*
X0187273Y0152910D01*
X0188509Y0150790D01*
X0189692Y0148640D01*
X0190822Y0146461D01*
X0191899Y0144256D01*
X0192921Y0142024D01*
X0193888Y0139768D01*
X0194799Y0137490D01*
X0195654Y0135189D01*
X0196453Y0132868D01*
X0197194Y0130528D01*
X0197878Y0128171D01*
X0198503Y0125798D01*
X0199070Y0123410D01*
X0199579Y0121009D01*
X0200028Y0118596D01*
X0200418Y0116173D01*
X0200748Y0113741D01*
X0201018Y0111302D01*
X0201229Y0108856D01*
X0201380Y0106407D01*
X0201470Y0103954D01*
X0201500Y0101500D01*
X0201470Y0099046D01*
X0201380Y0096593D01*
X0201229Y0094144D01*
X0201018Y0091698D01*
X0200748Y0089259D01*
X0200418Y0086827D01*
X0200028Y0084404D01*
X0199579Y0081991D01*
X0199070Y0079590D01*
X0198503Y0077202D01*
X0197878Y0074829D01*
X0197194Y0072472D01*
X0196453Y0070132D01*
X0195654Y0067811D01*
X0194799Y0065510D01*
X0193888Y0063232D01*
X0192921Y0060976D01*
X0191899Y0058744D01*
X0190822Y0056539D01*
X0189692Y0054360D01*
X0188509Y0052210D01*
X0187273Y0050090D01*
X0185985Y0048000D01*
X0184647Y0045943D01*
X0183258Y0043919D01*
X0181821Y0041930D01*
X0180335Y0039977D01*
X0178801Y0038061D01*
X0177221Y0036183D01*
X0175595Y0034344D01*
X0173925Y0032546D01*
X0172211Y0030789D01*
X0170454Y0029075D01*
X0168656Y0027405D01*
X0166817Y0025779D01*
X0164939Y0024199D01*
X0163023Y0022665D01*
X0161070Y0021179D01*
X0159081Y0019742D01*
X0157057Y0018353D01*
X0155000Y0017015D01*
X0152910Y0015727D01*
X0150790Y0014491D01*
X0148640Y0013308D01*
X0146461Y0012178D01*
X0144256Y0011101D01*
X0142024Y0010079D01*
X0139768Y0009112D01*
X0137490Y0008201D01*
X0135189Y0007346D01*
X0132868Y0006547D01*
X0130528Y0005806D01*
X0128171Y0005122D01*
X0125798Y0004497D01*
X0123410Y0003930D01*
X0121009Y0003421D01*
X0118596Y0002972D01*
X0116173Y0002582D01*
X0113741Y0002252D01*
X0111302Y0001982D01*
X0108856Y0001771D01*
X0106407Y0001620D01*
X0103954Y0001530D01*
X0101500Y0001500D01*
X0099046Y0001530D01*
X0096593Y0001620D01*
X0094144Y0001771D01*
X0091698Y0001982D01*
X0089259Y0002252D01*
X0086827Y0002582D01*
X0084404Y0002972D01*
X0081991Y0003421D01*
X0079590Y0003930D01*
X0077202Y0004497D01*
X0074829Y0005122D01*
X0072472Y0005806D01*
X0070132Y0006547D01*
X0067811Y0007346D01*
X0065510Y0008201D01*
X0063232Y0009112D01*
X0060976Y0010079D01*
X0058744Y0011101D01*
X0056539Y0012178D01*
X0054360Y0013308D01*
X0052210Y0014491D01*
X0050090Y0015727D01*
X0048000Y0017015D01*
X0045943Y0018353D01*
X0043919Y0019742D01*
X0041930Y0021179D01*
X0039977Y0022665D01*
X0038061Y0024199D01*
X0036183Y0025779D01*
X0034344Y0027405D01*
X0032546Y0029075D01*
X0030789Y0030789D01*
X0029075Y0032546D01*
X0027405Y0034344D01*
X0025779Y0036183D01*
X0024199Y0038061D01*
X0022665Y0039977D01*
X0021179Y0041930D01*
X0019742Y0043919D01*
X0018353Y0045943D01*
X0017015Y0048000D01*
X0015727Y0050090D01*
X0014491Y0052210D01*
X0013308Y0054360D01*
X0012178Y0056539D01*
X0011101Y0058744D01*
X0010079Y0060976D01*
X0009112Y0063232D01*
X0008201Y0065510D01*
X0007346Y0067811D01*
X0006547Y0070132D01*
X0005806Y0072472D01*
X0005122Y0074829D01*
X0004497Y0077202D01*
X0003930Y0079590D01*
X0003421Y0081991D01*
X0002972Y0084404D01*
X0002582Y0086827D01*
X0002252Y0089259D01*
X0001982Y0091698D01*
X0001771Y0094144D01*
X0001620Y0096593D01*
X0001530Y0099046D01*
X0001500Y0101500D01*
D11*
X0114984Y0132287D02*
X0114984Y0132799D01*
X0114985Y0132248D02*
X0114987Y0132186D01*
X0114993Y0132125D01*
X0115002Y0132064D01*
X0115016Y0132003D01*
X0115033Y0131944D01*
X0115054Y0131886D01*
X0115079Y0131829D01*
X0115107Y0131774D01*
X0115138Y0131721D01*
X0115173Y0131670D01*
X0115211Y0131621D01*
X0115252Y0131574D01*
X0115295Y0131531D01*
X0115342Y0131490D01*
X0115391Y0131452D01*
X0115442Y0131417D01*
X0115495Y0131386D01*
X0115550Y0131358D01*
X0115607Y0131333D01*
X0115665Y0131312D01*
X0115724Y0131295D01*
X0115785Y0131281D01*
X0115846Y0131272D01*
X0115907Y0131266D01*
X0115969Y0131264D01*
X0116008Y0131264D02*
X0136933Y0131264D01*
X0136995Y0131266D01*
X0137056Y0131272D01*
X0137117Y0131281D01*
X0137178Y0131295D01*
X0137237Y0131312D01*
X0137295Y0131333D01*
X0137352Y0131358D01*
X0137407Y0131386D01*
X0137460Y0131417D01*
X0137511Y0131452D01*
X0137560Y0131490D01*
X0137607Y0131531D01*
X0137650Y0131574D01*
X0137691Y0131621D01*
X0137729Y0131670D01*
X0137764Y0131721D01*
X0137795Y0131774D01*
X0137823Y0131829D01*
X0137848Y0131886D01*
X0137869Y0131944D01*
X0137886Y0132003D01*
X0137900Y0132064D01*
X0137909Y0132125D01*
X0137915Y0132186D01*
X0137917Y0132248D01*
X0137917Y0132287D02*
X0137917Y0132799D01*
X0137917Y0135240D02*
X0137917Y0137760D01*
X0137917Y0140240D02*
X0137917Y0142760D01*
X0137917Y0145240D02*
X0137917Y0147760D01*
X0137917Y0150201D02*
X0137917Y0150791D01*
X0137917Y0150752D02*
X0137915Y0150814D01*
X0137909Y0150875D01*
X0137900Y0150936D01*
X0137886Y0150997D01*
X0137869Y0151056D01*
X0137848Y0151114D01*
X0137823Y0151171D01*
X0137795Y0151226D01*
X0137764Y0151279D01*
X0137729Y0151330D01*
X0137691Y0151379D01*
X0137650Y0151426D01*
X0137607Y0151469D01*
X0137560Y0151510D01*
X0137511Y0151548D01*
X0137460Y0151583D01*
X0137407Y0151614D01*
X0137352Y0151642D01*
X0137295Y0151667D01*
X0137237Y0151688D01*
X0137178Y0151705D01*
X0137117Y0151719D01*
X0137056Y0151728D01*
X0136995Y0151734D01*
X0136933Y0151736D01*
X0115969Y0151736D01*
X0115907Y0151734D01*
X0115846Y0151728D01*
X0115785Y0151719D01*
X0115724Y0151705D01*
X0115665Y0151688D01*
X0115607Y0151667D01*
X0115550Y0151642D01*
X0115495Y0151614D01*
X0115442Y0151583D01*
X0115391Y0151548D01*
X0115342Y0151510D01*
X0115295Y0151469D01*
X0115252Y0151426D01*
X0115211Y0151379D01*
X0115173Y0151330D01*
X0115138Y0151279D01*
X0115107Y0151226D01*
X0115079Y0151171D01*
X0115054Y0151114D01*
X0115033Y0151056D01*
X0115016Y0150997D01*
X0115002Y0150936D01*
X0114993Y0150875D01*
X0114987Y0150814D01*
X0114985Y0150752D01*
X0114984Y0150673D02*
X0114984Y0150161D01*
X0114984Y0147760D02*
X0114984Y0145201D01*
X0114984Y0142760D02*
X0114984Y0140201D01*
X0114984Y0137760D02*
X0114984Y0135240D01*
D12*
X0120141Y0135909D02*
X0120143Y0135997D01*
X0120149Y0136085D01*
X0120159Y0136173D01*
X0120173Y0136261D01*
X0120190Y0136347D01*
X0120212Y0136433D01*
X0120237Y0136517D01*
X0120267Y0136601D01*
X0120299Y0136683D01*
X0120336Y0136763D01*
X0120376Y0136842D01*
X0120420Y0136919D01*
X0120467Y0136994D01*
X0120517Y0137066D01*
X0120571Y0137137D01*
X0120627Y0137204D01*
X0120687Y0137270D01*
X0120749Y0137332D01*
X0120815Y0137392D01*
X0120882Y0137448D01*
X0120953Y0137502D01*
X0121025Y0137552D01*
X0121100Y0137599D01*
X0121177Y0137643D01*
X0121256Y0137683D01*
X0121336Y0137720D01*
X0121418Y0137752D01*
X0121502Y0137782D01*
X0121586Y0137807D01*
X0121672Y0137829D01*
X0121758Y0137846D01*
X0121846Y0137860D01*
X0121934Y0137870D01*
X0122022Y0137876D01*
X0122110Y0137878D01*
X0122198Y0137876D01*
X0122286Y0137870D01*
X0122374Y0137860D01*
X0122462Y0137846D01*
X0122548Y0137829D01*
X0122634Y0137807D01*
X0122718Y0137782D01*
X0122802Y0137752D01*
X0122884Y0137720D01*
X0122964Y0137683D01*
X0123043Y0137643D01*
X0123120Y0137599D01*
X0123195Y0137552D01*
X0123267Y0137502D01*
X0123338Y0137448D01*
X0123405Y0137392D01*
X0123471Y0137332D01*
X0123533Y0137270D01*
X0123593Y0137204D01*
X0123649Y0137137D01*
X0123703Y0137066D01*
X0123753Y0136994D01*
X0123800Y0136919D01*
X0123844Y0136842D01*
X0123884Y0136763D01*
X0123921Y0136683D01*
X0123953Y0136601D01*
X0123983Y0136517D01*
X0124008Y0136433D01*
X0124030Y0136347D01*
X0124047Y0136261D01*
X0124061Y0136173D01*
X0124071Y0136085D01*
X0124077Y0135997D01*
X0124079Y0135909D01*
X0124077Y0135821D01*
X0124071Y0135733D01*
X0124061Y0135645D01*
X0124047Y0135557D01*
X0124030Y0135471D01*
X0124008Y0135385D01*
X0123983Y0135301D01*
X0123953Y0135217D01*
X0123921Y0135135D01*
X0123884Y0135055D01*
X0123844Y0134976D01*
X0123800Y0134899D01*
X0123753Y0134824D01*
X0123703Y0134752D01*
X0123649Y0134681D01*
X0123593Y0134614D01*
X0123533Y0134548D01*
X0123471Y0134486D01*
X0123405Y0134426D01*
X0123338Y0134370D01*
X0123267Y0134316D01*
X0123195Y0134266D01*
X0123120Y0134219D01*
X0123043Y0134175D01*
X0122964Y0134135D01*
X0122884Y0134098D01*
X0122802Y0134066D01*
X0122718Y0134036D01*
X0122634Y0134011D01*
X0122548Y0133989D01*
X0122462Y0133972D01*
X0122374Y0133958D01*
X0122286Y0133948D01*
X0122198Y0133942D01*
X0122110Y0133940D01*
X0122022Y0133942D01*
X0121934Y0133948D01*
X0121846Y0133958D01*
X0121758Y0133972D01*
X0121672Y0133989D01*
X0121586Y0134011D01*
X0121502Y0134036D01*
X0121418Y0134066D01*
X0121336Y0134098D01*
X0121256Y0134135D01*
X0121177Y0134175D01*
X0121100Y0134219D01*
X0121025Y0134266D01*
X0120953Y0134316D01*
X0120882Y0134370D01*
X0120815Y0134426D01*
X0120749Y0134486D01*
X0120687Y0134548D01*
X0120627Y0134614D01*
X0120571Y0134681D01*
X0120517Y0134752D01*
X0120467Y0134824D01*
X0120420Y0134899D01*
X0120376Y0134976D01*
X0120336Y0135055D01*
X0120299Y0135135D01*
X0120267Y0135217D01*
X0120237Y0135301D01*
X0120212Y0135385D01*
X0120190Y0135471D01*
X0120173Y0135557D01*
X0120159Y0135645D01*
X0120149Y0135733D01*
X0120143Y0135821D01*
X0120141Y0135909D01*
M02*
