G75*
%MOIN*%
%OFA0B0*%
%FSLAX25Y25*%
%IPPOS*%
%LPD*%
%AMOC8*
5,1,8,0,0,1.08239X$1,22.5*
%
%ADD10C,0.01000*%
%ADD11C,0.05000*%
%ADD12R,0.00075X0.00075*%
%ADD13R,0.00449X0.00075*%
%ADD14R,0.00599X0.00075*%
%ADD15R,0.00748X0.00075*%
%ADD16R,0.00823X0.00075*%
%ADD17R,0.00748X0.00075*%
%ADD18R,0.00748X0.00075*%
%ADD19R,0.00973X0.00075*%
%ADD20R,0.00898X0.00075*%
%ADD21R,0.01272X0.00075*%
%ADD22R,0.01497X0.00075*%
%ADD23R,0.01572X0.00075*%
%ADD24R,0.01796X0.00075*%
%ADD25R,0.01796X0.00075*%
%ADD26R,0.02021X0.00075*%
%ADD27R,0.02245X0.00075*%
%ADD28R,0.02171X0.00075*%
%ADD29R,0.02395X0.00075*%
%ADD30R,0.02246X0.00075*%
%ADD31R,0.02545X0.00075*%
%ADD32R,0.02320X0.00075*%
%ADD33R,0.02694X0.00075*%
%ADD34R,0.01123X0.00075*%
%ADD35R,0.01123X0.00075*%
%ADD36R,0.01048X0.00075*%
%ADD37R,0.00898X0.00075*%
%ADD38R,0.00973X0.00075*%
%ADD39R,0.00898X0.00075*%
%ADD40R,0.00224X0.00075*%
%ADD41R,0.00898X0.00075*%
%ADD42R,0.00823X0.00075*%
%ADD43R,0.00299X0.00075*%
%ADD44R,0.00150X0.00075*%
%ADD45R,0.00374X0.00075*%
%ADD46R,0.00524X0.00075*%
%ADD47R,0.00524X0.00075*%
%ADD48R,0.00674X0.00075*%
%ADD49R,0.00823X0.00075*%
%ADD50R,0.00674X0.00075*%
%ADD51R,0.00824X0.00075*%
%ADD52R,0.00749X0.00075*%
%ADD53R,0.00749X0.00075*%
%ADD54R,0.00898X0.00075*%
%ADD55R,0.00898X0.00075*%
%ADD56R,0.00225X0.00075*%
%ADD57R,0.00374X0.00075*%
%ADD58R,0.01272X0.00075*%
%ADD59R,0.00824X0.00075*%
%ADD60R,0.00524X0.00075*%
%ADD61R,0.01422X0.00075*%
%ADD62R,0.00599X0.00075*%
%ADD63R,0.01497X0.00075*%
%ADD64R,0.00674X0.00075*%
%ADD65R,0.00973X0.00075*%
%ADD66R,0.01048X0.00075*%
%ADD67R,0.01048X0.00075*%
%ADD68R,0.01198X0.00075*%
%ADD69R,0.01122X0.00075*%
%ADD70R,0.01197X0.00075*%
%ADD71R,0.02620X0.00075*%
%ADD72R,0.01347X0.00075*%
%ADD73R,0.01796X0.00075*%
%ADD74R,0.02470X0.00075*%
%ADD75R,0.01646X0.00075*%
%ADD76R,0.02320X0.00075*%
%ADD77R,0.01647X0.00075*%
%ADD78R,0.02170X0.00075*%
%ADD79R,0.01796X0.00075*%
%ADD80R,0.01871X0.00075*%
%ADD81R,0.00150X0.00075*%
%ADD82R,0.01946X0.00075*%
%ADD83R,0.01722X0.00075*%
%ADD84R,0.01272X0.00075*%
%ADD85R,0.01347X0.00075*%
%ADD86R,0.01048X0.00075*%
%ADD87R,0.01122X0.00075*%
%ADD88R,0.00599X0.00075*%
%ADD89R,0.01048X0.00075*%
%ADD90R,0.01048X0.00075*%
%ADD91R,0.00674X0.00075*%
%ADD92R,0.01123X0.00075*%
%ADD93R,0.00449X0.00075*%
%ADD94R,0.01796X0.00075*%
%ADD95R,0.01721X0.00075*%
%ADD96R,0.01198X0.00075*%
%ADD97R,0.00598X0.00075*%
%ADD98R,0.01572X0.00075*%
%ADD99R,0.01572X0.00075*%
%ADD100R,0.01721X0.00075*%
%ADD101R,0.01422X0.00075*%
%ADD102R,0.00075X0.00075*%
%ADD103R,0.02170X0.00075*%
%ADD104R,0.00374X0.00075*%
%ADD105R,0.02620X0.00075*%
%ADD106R,0.02694X0.00075*%
%ADD107R,0.00374X0.00075*%
%ADD108R,0.00449X0.00075*%
%ADD109R,0.02769X0.00075*%
%ADD110R,0.02694X0.00075*%
%ADD111R,0.02770X0.00075*%
%ADD112R,0.00524X0.00075*%
%ADD113R,0.02769X0.00075*%
%ADD114R,0.00075X0.00075*%
%ADD115R,0.00973X0.00075*%
%ADD116R,0.02620X0.00075*%
%ADD117R,0.02470X0.00075*%
%ADD118R,0.02919X0.00075*%
%ADD119R,0.02994X0.00075*%
%ADD120R,0.03069X0.00075*%
%ADD121R,0.02395X0.00075*%
%ADD122R,0.00224X0.00075*%
%ADD123R,0.03144X0.00075*%
%ADD124R,0.03219X0.00075*%
%ADD125R,0.03293X0.00075*%
%ADD126R,0.01497X0.00075*%
%ADD127R,0.03368X0.00075*%
%ADD128R,0.01572X0.00075*%
%ADD129R,0.03368X0.00075*%
%ADD130R,0.02096X0.00075*%
%ADD131R,0.03443X0.00075*%
%ADD132R,0.01646X0.00075*%
%ADD133R,0.03518X0.00075*%
%ADD134R,0.01946X0.00075*%
%ADD135R,0.00524X0.00075*%
%ADD136R,0.03593X0.00075*%
%ADD137R,0.03667X0.00075*%
%ADD138R,0.03743X0.00075*%
%ADD139R,0.01572X0.00075*%
%ADD140R,0.01572X0.00075*%
%ADD141R,0.02021X0.00075*%
%ADD142R,0.00824X0.00075*%
%ADD143R,0.00449X0.00075*%
%ADD144R,0.02021X0.00075*%
%ADD145R,0.01347X0.00075*%
%ADD146R,0.03668X0.00075*%
%ADD147R,0.03593X0.00075*%
%ADD148R,0.03668X0.00075*%
%ADD149R,0.02395X0.00075*%
%ADD150R,0.03668X0.00075*%
%ADD151R,0.02769X0.00075*%
%ADD152R,0.02844X0.00075*%
%ADD153R,0.02919X0.00075*%
%ADD154R,0.03069X0.00075*%
%ADD155R,0.00973X0.00075*%
%ADD156R,0.03219X0.00075*%
%ADD157R,0.03293X0.00075*%
%ADD158R,0.03368X0.00075*%
%ADD159R,0.03219X0.00075*%
%ADD160R,0.03293X0.00075*%
%ADD161R,0.01198X0.00075*%
%ADD162R,0.03743X0.00075*%
%ADD163R,0.03892X0.00075*%
%ADD164R,0.03967X0.00075*%
%ADD165R,0.05314X0.00075*%
%ADD166R,0.05389X0.00075*%
%ADD167R,0.05239X0.00075*%
%ADD168R,0.03144X0.00075*%
%ADD169R,0.05164X0.00075*%
%ADD170R,0.05164X0.00075*%
%ADD171R,0.05089X0.00075*%
%ADD172R,0.05015X0.00075*%
%ADD173R,0.04940X0.00075*%
%ADD174R,0.04865X0.00075*%
%ADD175R,0.02545X0.00075*%
%ADD176R,0.04790X0.00075*%
%ADD177R,0.04790X0.00075*%
%ADD178R,0.02395X0.00075*%
%ADD179R,0.04715X0.00075*%
%ADD180R,0.04565X0.00075*%
%ADD181R,0.02096X0.00075*%
%ADD182R,0.04491X0.00075*%
%ADD183R,0.04416X0.00075*%
%ADD184R,0.01647X0.00075*%
%ADD185R,0.02170X0.00075*%
%ADD186R,0.01946X0.00075*%
%ADD187R,0.01871X0.00075*%
%ADD188R,0.02994X0.00075*%
%ADD189R,0.03443X0.00075*%
%ADD190R,0.03817X0.00075*%
%ADD191R,0.04117X0.00075*%
%ADD192R,0.04267X0.00075*%
%ADD193R,0.04416X0.00075*%
%ADD194R,0.04416X0.00075*%
%ADD195R,0.04566X0.00075*%
%ADD196R,0.00150X0.00075*%
%ADD197R,0.04715X0.00075*%
%ADD198R,0.04715X0.00075*%
%ADD199R,0.04641X0.00075*%
%ADD200R,0.04566X0.00075*%
%ADD201R,0.00300X0.00075*%
%ADD202R,0.04791X0.00075*%
%ADD203R,0.01422X0.00075*%
%ADD204R,0.04940X0.00075*%
%ADD205R,0.01497X0.00075*%
%ADD206R,0.01422X0.00075*%
%ADD207R,0.01721X0.00075*%
%ADD208R,0.05165X0.00075*%
%ADD209R,0.06886X0.00075*%
%ADD210R,0.06736X0.00075*%
%ADD211R,0.01871X0.00075*%
%ADD212R,0.00300X0.00075*%
%ADD213R,0.06587X0.00075*%
%ADD214R,0.01422X0.00075*%
%ADD215R,0.06437X0.00075*%
%ADD216R,0.06212X0.00075*%
%ADD217R,0.05988X0.00075*%
%ADD218R,0.05763X0.00075*%
%ADD219R,0.03443X0.00075*%
%ADD220R,0.02320X0.00075*%
%ADD221R,0.01871X0.00075*%
%ADD222R,0.01871X0.00075*%
%ADD223R,0.00674X0.00075*%
%ADD224R,0.02919X0.00075*%
%ADD225R,0.02545X0.00075*%
%ADD226R,0.00299X0.00075*%
%ADD227R,0.01122X0.00075*%
%ADD228R,0.01647X0.00075*%
%ADD229R,0.02695X0.00075*%
%ADD230R,0.00449X0.00075*%
%ADD231R,0.01422X0.00075*%
%ADD232R,0.04416X0.00075*%
%ADD233R,0.01348X0.00075*%
%ADD234R,0.03967X0.00075*%
%ADD235R,0.03518X0.00075*%
%ADD236R,0.02919X0.00075*%
%ADD237R,0.00374X0.00075*%
%ADD238R,0.00150X0.00075*%
%ADD239R,0.02096X0.00075*%
%ADD240R,0.02246X0.00075*%
%ADD241R,0.00749X0.00075*%
%ADD242R,0.00598X0.00075*%
%ADD243R,0.01497X0.00075*%
%ADD244R,0.00598X0.00075*%
%ADD245R,0.01497X0.00075*%
%ADD246R,0.02470X0.00075*%
%ADD247R,0.00224X0.00075*%
%ADD248C,0.00500*%
%ADD249C,0.00600*%
%ADD250C,0.00400*%
D10*
X0001500Y0101500D02*
X0001530Y0103954D01*
X0001620Y0106407D01*
X0001771Y0108856D01*
X0001982Y0111302D01*
X0002252Y0113741D01*
X0002582Y0116173D01*
X0002972Y0118596D01*
X0003421Y0121009D01*
X0003930Y0123410D01*
X0004497Y0125798D01*
X0005122Y0128171D01*
X0005806Y0130528D01*
X0006547Y0132868D01*
X0007346Y0135189D01*
X0008201Y0137490D01*
X0009112Y0139768D01*
X0010079Y0142024D01*
X0011101Y0144256D01*
X0012178Y0146461D01*
X0013308Y0148640D01*
X0014491Y0150790D01*
X0015727Y0152910D01*
X0017015Y0155000D01*
X0018353Y0157057D01*
X0019742Y0159081D01*
X0021179Y0161070D01*
X0022665Y0163023D01*
X0024199Y0164939D01*
X0025779Y0166817D01*
X0027405Y0168656D01*
X0029075Y0170454D01*
X0030789Y0172211D01*
X0032546Y0173925D01*
X0034344Y0175595D01*
X0036183Y0177221D01*
X0038061Y0178801D01*
X0039977Y0180335D01*
X0041930Y0181821D01*
X0043919Y0183258D01*
X0045943Y0184647D01*
X0048000Y0185985D01*
X0050090Y0187273D01*
X0052210Y0188509D01*
X0054360Y0189692D01*
X0056539Y0190822D01*
X0058744Y0191899D01*
X0060976Y0192921D01*
X0063232Y0193888D01*
X0065510Y0194799D01*
X0067811Y0195654D01*
X0070132Y0196453D01*
X0072472Y0197194D01*
X0074829Y0197878D01*
X0077202Y0198503D01*
X0079590Y0199070D01*
X0081991Y0199579D01*
X0084404Y0200028D01*
X0086827Y0200418D01*
X0089259Y0200748D01*
X0091698Y0201018D01*
X0094144Y0201229D01*
X0096593Y0201380D01*
X0099046Y0201470D01*
X0101500Y0201500D01*
X0103954Y0201470D01*
X0106407Y0201380D01*
X0108856Y0201229D01*
X0111302Y0201018D01*
X0113741Y0200748D01*
X0116173Y0200418D01*
X0118596Y0200028D01*
X0121009Y0199579D01*
X0123410Y0199070D01*
X0125798Y0198503D01*
X0128171Y0197878D01*
X0130528Y0197194D01*
X0132868Y0196453D01*
X0135189Y0195654D01*
X0137490Y0194799D01*
X0139768Y0193888D01*
X0142024Y0192921D01*
X0144256Y0191899D01*
X0146461Y0190822D01*
X0148640Y0189692D01*
X0150790Y0188509D01*
X0152910Y0187273D01*
X0155000Y0185985D01*
X0157057Y0184647D01*
X0159081Y0183258D01*
X0161070Y0181821D01*
X0163023Y0180335D01*
X0164939Y0178801D01*
X0166817Y0177221D01*
X0168656Y0175595D01*
X0170454Y0173925D01*
X0172211Y0172211D01*
X0173925Y0170454D01*
X0175595Y0168656D01*
X0177221Y0166817D01*
X0178801Y0164939D01*
X0180335Y0163023D01*
X0181821Y0161070D01*
X0183258Y0159081D01*
X0184647Y0157057D01*
X0185985Y0155000D01*
X0187273Y0152910D01*
X0188509Y0150790D01*
X0189692Y0148640D01*
X0190822Y0146461D01*
X0191899Y0144256D01*
X0192921Y0142024D01*
X0193888Y0139768D01*
X0194799Y0137490D01*
X0195654Y0135189D01*
X0196453Y0132868D01*
X0197194Y0130528D01*
X0197878Y0128171D01*
X0198503Y0125798D01*
X0199070Y0123410D01*
X0199579Y0121009D01*
X0200028Y0118596D01*
X0200418Y0116173D01*
X0200748Y0113741D01*
X0201018Y0111302D01*
X0201229Y0108856D01*
X0201380Y0106407D01*
X0201470Y0103954D01*
X0201500Y0101500D01*
X0201470Y0099046D01*
X0201380Y0096593D01*
X0201229Y0094144D01*
X0201018Y0091698D01*
X0200748Y0089259D01*
X0200418Y0086827D01*
X0200028Y0084404D01*
X0199579Y0081991D01*
X0199070Y0079590D01*
X0198503Y0077202D01*
X0197878Y0074829D01*
X0197194Y0072472D01*
X0196453Y0070132D01*
X0195654Y0067811D01*
X0194799Y0065510D01*
X0193888Y0063232D01*
X0192921Y0060976D01*
X0191899Y0058744D01*
X0190822Y0056539D01*
X0189692Y0054360D01*
X0188509Y0052210D01*
X0187273Y0050090D01*
X0185985Y0048000D01*
X0184647Y0045943D01*
X0183258Y0043919D01*
X0181821Y0041930D01*
X0180335Y0039977D01*
X0178801Y0038061D01*
X0177221Y0036183D01*
X0175595Y0034344D01*
X0173925Y0032546D01*
X0172211Y0030789D01*
X0170454Y0029075D01*
X0168656Y0027405D01*
X0166817Y0025779D01*
X0164939Y0024199D01*
X0163023Y0022665D01*
X0161070Y0021179D01*
X0159081Y0019742D01*
X0157057Y0018353D01*
X0155000Y0017015D01*
X0152910Y0015727D01*
X0150790Y0014491D01*
X0148640Y0013308D01*
X0146461Y0012178D01*
X0144256Y0011101D01*
X0142024Y0010079D01*
X0139768Y0009112D01*
X0137490Y0008201D01*
X0135189Y0007346D01*
X0132868Y0006547D01*
X0130528Y0005806D01*
X0128171Y0005122D01*
X0125798Y0004497D01*
X0123410Y0003930D01*
X0121009Y0003421D01*
X0118596Y0002972D01*
X0116173Y0002582D01*
X0113741Y0002252D01*
X0111302Y0001982D01*
X0108856Y0001771D01*
X0106407Y0001620D01*
X0103954Y0001530D01*
X0101500Y0001500D01*
X0099046Y0001530D01*
X0096593Y0001620D01*
X0094144Y0001771D01*
X0091698Y0001982D01*
X0089259Y0002252D01*
X0086827Y0002582D01*
X0084404Y0002972D01*
X0081991Y0003421D01*
X0079590Y0003930D01*
X0077202Y0004497D01*
X0074829Y0005122D01*
X0072472Y0005806D01*
X0070132Y0006547D01*
X0067811Y0007346D01*
X0065510Y0008201D01*
X0063232Y0009112D01*
X0060976Y0010079D01*
X0058744Y0011101D01*
X0056539Y0012178D01*
X0054360Y0013308D01*
X0052210Y0014491D01*
X0050090Y0015727D01*
X0048000Y0017015D01*
X0045943Y0018353D01*
X0043919Y0019742D01*
X0041930Y0021179D01*
X0039977Y0022665D01*
X0038061Y0024199D01*
X0036183Y0025779D01*
X0034344Y0027405D01*
X0032546Y0029075D01*
X0030789Y0030789D01*
X0029075Y0032546D01*
X0027405Y0034344D01*
X0025779Y0036183D01*
X0024199Y0038061D01*
X0022665Y0039977D01*
X0021179Y0041930D01*
X0019742Y0043919D01*
X0018353Y0045943D01*
X0017015Y0048000D01*
X0015727Y0050090D01*
X0014491Y0052210D01*
X0013308Y0054360D01*
X0012178Y0056539D01*
X0011101Y0058744D01*
X0010079Y0060976D01*
X0009112Y0063232D01*
X0008201Y0065510D01*
X0007346Y0067811D01*
X0006547Y0070132D01*
X0005806Y0072472D01*
X0005122Y0074829D01*
X0004497Y0077202D01*
X0003930Y0079590D01*
X0003421Y0081991D01*
X0002972Y0084404D01*
X0002582Y0086827D01*
X0002252Y0089259D01*
X0001982Y0091698D01*
X0001771Y0094144D01*
X0001620Y0096593D01*
X0001530Y0099046D01*
X0001500Y0101500D01*
D11*
X0186500Y0141500D03*
D12*
X0034433Y0135325D03*
D13*
X0034246Y0135400D03*
X0029380Y0141837D03*
X0028333Y0143484D03*
X0031925Y0147226D03*
X0028482Y0150145D03*
X0027135Y0153289D03*
X0029380Y0155310D03*
X0042778Y0150819D03*
D14*
X0042554Y0151567D03*
X0043901Y0151867D03*
X0040159Y0152241D03*
X0040533Y0154187D03*
X0043826Y0142735D03*
X0034096Y0135475D03*
D15*
X0034021Y0135550D03*
X0033946Y0135625D03*
X0033871Y0135775D03*
X0033796Y0135924D03*
X0033722Y0135999D03*
X0034470Y0137646D03*
X0034470Y0137721D03*
X0034470Y0138170D03*
X0034470Y0138245D03*
X0034470Y0138319D03*
X0035593Y0138619D03*
X0035593Y0138694D03*
X0035518Y0138843D03*
X0035518Y0138918D03*
X0035518Y0138993D03*
X0035668Y0138319D03*
X0035668Y0138245D03*
X0035668Y0138170D03*
X0035742Y0137870D03*
X0035742Y0137721D03*
X0035817Y0137496D03*
X0035817Y0137346D03*
X0037763Y0137047D03*
X0037838Y0137197D03*
X0037838Y0137272D03*
X0037838Y0137346D03*
X0037838Y0137496D03*
X0037838Y0137571D03*
X0037838Y0137646D03*
X0037838Y0137721D03*
X0037838Y0137870D03*
X0037763Y0138170D03*
X0037763Y0138245D03*
X0037689Y0138619D03*
X0037614Y0138843D03*
X0037614Y0138918D03*
X0037614Y0138993D03*
X0037539Y0139218D03*
X0037539Y0139292D03*
X0037539Y0139367D03*
X0038661Y0140041D03*
X0035668Y0140041D03*
X0034545Y0140041D03*
X0031925Y0138245D03*
X0031850Y0137945D03*
X0031850Y0137870D03*
X0031850Y0137721D03*
X0031850Y0137646D03*
X0031925Y0137496D03*
X0031925Y0137346D03*
X0032000Y0137272D03*
X0030129Y0137571D03*
X0030129Y0137646D03*
X0030503Y0138843D03*
X0029006Y0141238D03*
X0029680Y0143484D03*
X0026387Y0141238D03*
X0028407Y0150295D03*
X0027883Y0151717D03*
X0028033Y0151942D03*
X0026835Y0152690D03*
X0026686Y0152466D03*
X0027135Y0153139D03*
X0029680Y0152690D03*
X0029680Y0152615D03*
X0029755Y0152391D03*
X0032449Y0156283D03*
X0032524Y0155984D03*
X0032524Y0155909D03*
X0032599Y0155684D03*
X0032599Y0155609D03*
X0032748Y0154786D03*
X0032748Y0154711D03*
X0032748Y0154636D03*
X0032973Y0153663D03*
X0034545Y0154636D03*
X0034545Y0154711D03*
X0034545Y0154786D03*
X0035967Y0154412D03*
X0036042Y0154636D03*
X0036042Y0154711D03*
X0036042Y0154786D03*
X0036192Y0155460D03*
X0036192Y0155609D03*
X0036192Y0155684D03*
X0036266Y0155909D03*
X0036266Y0155984D03*
X0036341Y0156283D03*
X0036341Y0156358D03*
X0036341Y0156433D03*
X0036416Y0156732D03*
X0036416Y0156882D03*
X0036416Y0156957D03*
X0035069Y0153139D03*
X0040159Y0152466D03*
X0040159Y0152391D03*
X0040233Y0152765D03*
X0040233Y0152840D03*
X0040233Y0153064D03*
X0041206Y0151118D03*
X0041506Y0150669D03*
X0043152Y0153064D03*
X0040458Y0155460D03*
X0040533Y0143484D03*
X0043676Y0140939D03*
D16*
X0043639Y0141014D03*
X0042516Y0139517D03*
X0042366Y0139367D03*
X0041693Y0138694D03*
X0039896Y0137721D03*
X0039822Y0137870D03*
X0039597Y0138245D03*
X0039522Y0138394D03*
X0039073Y0139218D03*
X0038998Y0139367D03*
X0038924Y0139517D03*
X0038849Y0139667D03*
X0037502Y0139517D03*
X0037576Y0139143D03*
X0037651Y0138694D03*
X0037726Y0138394D03*
X0037726Y0138319D03*
X0037801Y0137945D03*
X0037726Y0136972D03*
X0035929Y0137047D03*
X0035855Y0137197D03*
X0035855Y0137272D03*
X0035780Y0137571D03*
X0035780Y0137646D03*
X0035705Y0137945D03*
X0035630Y0138394D03*
X0034433Y0138394D03*
X0034358Y0138619D03*
X0034283Y0138694D03*
X0034507Y0137945D03*
X0034507Y0137870D03*
X0034433Y0137571D03*
X0034433Y0137496D03*
X0034358Y0137346D03*
X0034358Y0137272D03*
X0034283Y0137197D03*
X0033684Y0136074D03*
X0033909Y0135700D03*
X0032037Y0137197D03*
X0031888Y0137571D03*
X0031888Y0138170D03*
X0031963Y0138319D03*
X0031963Y0138394D03*
X0030316Y0138245D03*
X0038325Y0147226D03*
X0041842Y0142960D03*
X0041917Y0142885D03*
X0042142Y0142661D03*
X0042217Y0142586D03*
X0042292Y0142511D03*
X0042366Y0142436D03*
X0043863Y0151493D03*
X0043115Y0152990D03*
X0036004Y0154561D03*
X0036229Y0155759D03*
X0036304Y0156208D03*
X0036379Y0156657D03*
X0034433Y0155085D03*
X0034507Y0154936D03*
X0034507Y0154561D03*
X0032711Y0154936D03*
X0032561Y0155759D03*
X0032487Y0156208D03*
X0029642Y0152840D03*
X0026424Y0152017D03*
D17*
X0026985Y0152915D03*
X0029455Y0153439D03*
X0029755Y0152316D03*
X0032524Y0156058D03*
X0034470Y0154487D03*
X0036192Y0155534D03*
X0036266Y0156058D03*
X0040233Y0152915D03*
X0041131Y0151268D03*
X0037689Y0138544D03*
X0037763Y0138020D03*
X0037838Y0137421D03*
X0035817Y0137421D03*
X0035593Y0138544D03*
X0035518Y0139068D03*
X0034470Y0138020D03*
X0033796Y0135849D03*
X0031925Y0137421D03*
X0030279Y0138020D03*
X0029380Y0141688D03*
D18*
X0026461Y0141089D03*
X0026312Y0141388D03*
X0028333Y0138768D03*
X0030279Y0138095D03*
X0031850Y0137795D03*
X0033647Y0136149D03*
X0034470Y0137795D03*
X0034470Y0138095D03*
X0034395Y0138469D03*
X0035593Y0138469D03*
X0035668Y0138095D03*
X0035742Y0137795D03*
X0037763Y0138095D03*
X0037838Y0137795D03*
X0037689Y0138469D03*
X0037539Y0139442D03*
X0041581Y0150594D03*
X0040159Y0152541D03*
X0043901Y0151567D03*
X0036042Y0154861D03*
X0036266Y0156133D03*
X0036341Y0156507D03*
X0036416Y0156807D03*
X0034545Y0154861D03*
X0032748Y0154861D03*
X0032524Y0155834D03*
X0029680Y0152541D03*
X0029755Y0152241D03*
X0026536Y0152241D03*
D19*
X0029418Y0148873D03*
X0029418Y0148798D03*
X0029418Y0148723D03*
X0029418Y0144307D03*
X0029418Y0144232D03*
X0030241Y0138394D03*
X0032262Y0138843D03*
X0034133Y0138843D03*
X0034208Y0137047D03*
X0034133Y0136972D03*
X0033534Y0136224D03*
X0040795Y0144232D03*
X0040795Y0144307D03*
X0043265Y0141463D03*
X0043414Y0141313D03*
X0040795Y0148798D03*
X0040795Y0148873D03*
X0039447Y0153663D03*
X0034283Y0154337D03*
D20*
X0033572Y0156957D03*
X0031626Y0153364D03*
X0029455Y0149097D03*
X0029455Y0149023D03*
X0029455Y0144158D03*
X0029455Y0144083D03*
X0026162Y0141837D03*
X0029455Y0138918D03*
X0029530Y0138843D03*
X0030279Y0138319D03*
X0032075Y0138619D03*
X0032150Y0138694D03*
X0032150Y0137047D03*
X0032225Y0136972D03*
X0036790Y0136224D03*
X0039934Y0137646D03*
X0040009Y0137496D03*
X0039410Y0138619D03*
X0039260Y0138918D03*
X0038736Y0139891D03*
X0038662Y0139966D03*
X0042629Y0142137D03*
X0043227Y0141538D03*
X0040757Y0144083D03*
X0040757Y0144158D03*
X0040757Y0149023D03*
X0040757Y0149097D03*
D21*
X0040944Y0147900D03*
X0040944Y0147825D03*
X0040944Y0147750D03*
X0040944Y0147675D03*
X0040944Y0145505D03*
X0040944Y0145280D03*
X0040944Y0145205D03*
X0043040Y0141912D03*
X0036828Y0136298D03*
X0033310Y0136298D03*
X0028819Y0139292D03*
X0026274Y0141987D03*
X0029268Y0145280D03*
X0029268Y0145505D03*
X0029268Y0145580D03*
X0029268Y0147675D03*
X0029268Y0147750D03*
X0029268Y0147825D03*
X0030241Y0150145D03*
X0035031Y0148199D03*
X0039971Y0150145D03*
X0040046Y0153364D03*
X0040421Y0155235D03*
D22*
X0042254Y0150220D03*
X0039784Y0142810D03*
X0041730Y0139068D03*
X0033198Y0136373D03*
D23*
X0036828Y0136373D03*
X0027621Y0142810D03*
D24*
X0033198Y0136448D03*
X0036641Y0153888D03*
X0042928Y0152541D03*
D25*
X0036790Y0136448D03*
D26*
X0036828Y0136523D03*
X0033235Y0136523D03*
X0028744Y0138993D03*
X0032561Y0142885D03*
X0032561Y0142960D03*
X0032037Y0146852D03*
X0033535Y0154037D03*
X0036528Y0154037D03*
X0036528Y0154112D03*
X0038774Y0153738D03*
X0042891Y0152466D03*
X0040645Y0147077D03*
D27*
X0032674Y0143184D03*
X0033198Y0136598D03*
D28*
X0036828Y0136598D03*
X0037352Y0143409D03*
X0038774Y0151118D03*
X0033534Y0154112D03*
D29*
X0033198Y0156732D03*
X0038362Y0151418D03*
X0038437Y0141762D03*
X0036491Y0140490D03*
X0033722Y0140490D03*
X0033198Y0136673D03*
D30*
X0036865Y0136673D03*
X0038736Y0141987D03*
X0043901Y0142960D03*
X0038662Y0151193D03*
X0032075Y0146702D03*
D31*
X0032823Y0143559D03*
X0032823Y0143484D03*
X0033647Y0140565D03*
X0036566Y0140565D03*
X0037988Y0141463D03*
X0038212Y0141613D03*
X0037389Y0143634D03*
X0033198Y0136748D03*
X0032299Y0151717D03*
X0033497Y0155310D03*
X0037913Y0151717D03*
D32*
X0033385Y0155460D03*
X0037352Y0143484D03*
X0038624Y0141912D03*
X0036828Y0136748D03*
D33*
X0033198Y0136822D03*
X0033422Y0140715D03*
X0032823Y0141089D03*
X0036790Y0140715D03*
X0032150Y0151567D03*
D34*
X0030690Y0154187D03*
X0029343Y0148274D03*
X0029343Y0144681D03*
X0029493Y0139742D03*
X0030166Y0138469D03*
X0036154Y0136822D03*
X0037501Y0136822D03*
X0037202Y0143035D03*
X0040869Y0144681D03*
X0040869Y0148274D03*
X0038923Y0154187D03*
D35*
X0039298Y0154487D03*
X0030241Y0154487D03*
X0032337Y0136897D03*
D36*
X0034021Y0136897D03*
X0040009Y0140640D03*
X0040832Y0148648D03*
X0031626Y0153439D03*
X0029380Y0148648D03*
D37*
X0036042Y0136897D03*
X0042554Y0142211D03*
D38*
X0043115Y0141688D03*
X0043564Y0141164D03*
X0040495Y0140116D03*
X0037651Y0136897D03*
D39*
X0035967Y0136972D03*
X0033123Y0139517D03*
X0030578Y0140565D03*
X0029380Y0141613D03*
X0029305Y0141538D03*
X0029231Y0141463D03*
X0029081Y0141313D03*
X0029755Y0143409D03*
X0028407Y0150370D03*
X0030354Y0153364D03*
X0032524Y0156358D03*
X0033796Y0155609D03*
X0034395Y0154412D03*
X0037015Y0153738D03*
X0040233Y0153139D03*
X0041131Y0151343D03*
X0043826Y0151418D03*
X0040458Y0143409D03*
X0042479Y0142286D03*
X0043152Y0141613D03*
X0039036Y0139292D03*
X0039111Y0139143D03*
X0039185Y0138993D03*
X0039560Y0138319D03*
X0039635Y0138170D03*
X0039784Y0137945D03*
D40*
X0039971Y0141089D03*
X0030316Y0137122D03*
X0029418Y0149621D03*
D41*
X0029455Y0148948D03*
X0034171Y0138768D03*
X0034245Y0137122D03*
X0032075Y0137122D03*
X0038811Y0139742D03*
X0039335Y0138768D03*
X0039485Y0138469D03*
X0040757Y0144008D03*
X0040757Y0148948D03*
D42*
X0042441Y0142361D03*
X0042441Y0139442D03*
X0039672Y0138095D03*
X0037801Y0137122D03*
X0037651Y0138768D03*
X0035555Y0138768D03*
X0035929Y0137122D03*
X0031888Y0138095D03*
X0029642Y0138768D03*
X0030091Y0149921D03*
X0032487Y0156133D03*
X0036229Y0155834D03*
D43*
X0032749Y0153588D03*
X0030129Y0149771D03*
X0028856Y0141014D03*
X0028332Y0138619D03*
X0030279Y0137197D03*
X0038811Y0140265D03*
X0039859Y0137272D03*
X0042703Y0139966D03*
X0040158Y0149771D03*
D44*
X0043751Y0140490D03*
X0042703Y0140041D03*
X0039784Y0137197D03*
X0029455Y0141987D03*
X0028407Y0143634D03*
X0028108Y0152466D03*
D45*
X0028145Y0152391D03*
X0029418Y0149547D03*
X0038774Y0140191D03*
X0039971Y0141014D03*
X0040795Y0149547D03*
X0030241Y0137272D03*
D46*
X0030166Y0137346D03*
X0039971Y0140939D03*
X0040720Y0149472D03*
X0029493Y0149472D03*
D47*
X0030091Y0149846D03*
X0037202Y0153663D03*
X0040196Y0152166D03*
X0043190Y0153139D03*
X0043789Y0142661D03*
X0043714Y0142511D03*
X0043714Y0140789D03*
X0039896Y0137346D03*
D48*
X0039971Y0137421D03*
X0030690Y0139592D03*
X0030541Y0139068D03*
X0030615Y0140640D03*
X0028969Y0141164D03*
X0026424Y0141164D03*
X0026124Y0141688D03*
X0030166Y0137421D03*
X0027921Y0151792D03*
X0026574Y0152316D03*
X0029343Y0153963D03*
X0029193Y0154487D03*
X0034208Y0156058D03*
X0038250Y0153439D03*
X0040121Y0152316D03*
X0040495Y0153963D03*
X0041468Y0150744D03*
X0043639Y0152316D03*
D49*
X0036004Y0154487D03*
X0034507Y0155011D03*
X0032711Y0155011D03*
X0036379Y0156582D03*
X0037576Y0139068D03*
X0039148Y0139068D03*
X0035705Y0138020D03*
X0034433Y0137421D03*
X0034358Y0138544D03*
X0032037Y0138544D03*
X0031888Y0138020D03*
D50*
X0030316Y0138170D03*
X0030241Y0137945D03*
X0030166Y0137496D03*
X0030541Y0138918D03*
X0030541Y0138993D03*
X0030615Y0139143D03*
X0030615Y0139218D03*
X0030615Y0139292D03*
X0030690Y0139517D03*
X0030765Y0139816D03*
X0029568Y0143559D03*
X0029568Y0143634D03*
X0026574Y0140939D03*
X0026574Y0140864D03*
X0026648Y0140789D03*
X0026499Y0141014D03*
X0026349Y0141313D03*
X0026274Y0141463D03*
X0026199Y0141538D03*
X0026199Y0141613D03*
X0026124Y0141762D03*
X0029492Y0149397D03*
X0029792Y0152017D03*
X0029792Y0152091D03*
X0029792Y0152166D03*
X0029717Y0152466D03*
X0029642Y0152765D03*
X0029492Y0153364D03*
X0029418Y0153588D03*
X0029418Y0153663D03*
X0029418Y0153738D03*
X0029343Y0153813D03*
X0029268Y0154112D03*
X0029193Y0154412D03*
X0027098Y0153064D03*
X0027023Y0152990D03*
X0026948Y0152840D03*
X0026873Y0152765D03*
X0026798Y0152615D03*
X0026648Y0152391D03*
X0026499Y0152166D03*
X0026424Y0152091D03*
X0027846Y0151642D03*
X0028070Y0152017D03*
X0028145Y0152091D03*
X0031663Y0153289D03*
X0033983Y0155684D03*
X0034058Y0155759D03*
X0034208Y0155909D03*
X0034208Y0155984D03*
X0036379Y0157031D03*
X0040570Y0154412D03*
X0040570Y0154337D03*
X0040570Y0154262D03*
X0040495Y0154112D03*
X0040495Y0154037D03*
X0040420Y0153813D03*
X0040420Y0153738D03*
X0040420Y0153663D03*
X0040271Y0152990D03*
X0040196Y0152690D03*
X0040196Y0152615D03*
X0041169Y0151193D03*
X0041244Y0151044D03*
X0041318Y0150969D03*
X0041394Y0150819D03*
X0042741Y0150669D03*
X0043489Y0150819D03*
X0043938Y0151642D03*
X0043938Y0151717D03*
X0043863Y0151942D03*
X0043789Y0152091D03*
X0043714Y0152166D03*
X0043564Y0152391D03*
X0042591Y0151493D03*
X0040720Y0149397D03*
X0040645Y0154636D03*
X0040645Y0154711D03*
X0040645Y0143634D03*
X0040645Y0143559D03*
X0042067Y0143634D03*
X0039971Y0140864D03*
X0041693Y0138619D03*
X0037202Y0142960D03*
D51*
X0039971Y0140789D03*
X0038774Y0139816D03*
X0039298Y0138843D03*
X0039373Y0138694D03*
X0039971Y0137571D03*
X0042666Y0139667D03*
X0040720Y0143933D03*
X0035480Y0139143D03*
X0029493Y0143933D03*
X0032786Y0154561D03*
X0034133Y0156358D03*
X0036154Y0155385D03*
X0036154Y0155310D03*
X0036079Y0154936D03*
D52*
X0036117Y0155085D03*
X0036117Y0155235D03*
X0034171Y0156208D03*
X0034171Y0156283D03*
X0032823Y0154412D03*
X0032823Y0154337D03*
X0032823Y0154262D03*
X0029530Y0149322D03*
X0028183Y0152166D03*
X0029530Y0143783D03*
X0030204Y0137870D03*
X0030204Y0137721D03*
X0040682Y0143783D03*
X0040682Y0149322D03*
D53*
X0040682Y0143708D03*
X0029530Y0143708D03*
X0030204Y0137795D03*
X0036117Y0155160D03*
X0034171Y0156133D03*
D54*
X0038213Y0153514D03*
X0040159Y0149921D03*
X0043602Y0141089D03*
X0041730Y0138768D03*
X0039859Y0137795D03*
X0038961Y0139442D03*
X0032000Y0138469D03*
X0029156Y0141388D03*
X0029380Y0155160D03*
D55*
X0030428Y0153439D03*
X0029680Y0152915D03*
X0029829Y0143334D03*
X0038886Y0139592D03*
X0039709Y0138020D03*
X0040383Y0143334D03*
D56*
X0043714Y0140565D03*
X0041693Y0138394D03*
X0037726Y0139667D03*
X0030615Y0140789D03*
D57*
X0041693Y0138469D03*
X0043714Y0140715D03*
D58*
X0040944Y0145430D03*
X0040944Y0147526D03*
X0029268Y0147526D03*
X0029268Y0145430D03*
X0030166Y0138544D03*
X0029418Y0155011D03*
D59*
X0029493Y0149172D03*
X0029493Y0143858D03*
X0028220Y0143334D03*
X0039447Y0138544D03*
X0042591Y0139592D03*
X0041992Y0142810D03*
X0040720Y0143858D03*
X0040720Y0149172D03*
D60*
X0043564Y0142211D03*
X0041693Y0138544D03*
X0026648Y0140640D03*
D61*
X0028071Y0143110D03*
X0030391Y0142885D03*
X0030091Y0138619D03*
X0037277Y0143110D03*
X0039822Y0142885D03*
X0039822Y0150295D03*
X0041319Y0151642D03*
X0041843Y0151942D03*
X0041917Y0152017D03*
X0042142Y0152166D03*
X0034058Y0154262D03*
X0030391Y0150295D03*
X0027621Y0151044D03*
X0027397Y0151193D03*
X0026723Y0151642D03*
D62*
X0029755Y0151942D03*
X0029305Y0154037D03*
X0029231Y0154262D03*
X0029231Y0154337D03*
X0029156Y0154561D03*
X0029156Y0154636D03*
X0029380Y0155235D03*
X0040159Y0149846D03*
X0042479Y0151642D03*
X0043826Y0152017D03*
X0040607Y0154561D03*
X0043751Y0142586D03*
X0043676Y0142436D03*
X0043602Y0142286D03*
X0043527Y0142137D03*
X0043676Y0140864D03*
X0042704Y0139816D03*
X0035593Y0139218D03*
X0030802Y0139891D03*
X0030802Y0139966D03*
X0030728Y0139667D03*
X0030653Y0139367D03*
X0029380Y0141762D03*
X0028258Y0143409D03*
X0028333Y0138694D03*
D63*
X0030054Y0138694D03*
X0034171Y0140191D03*
X0036042Y0140191D03*
X0038287Y0147077D03*
X0040907Y0147376D03*
X0042479Y0143559D03*
X0043302Y0150969D03*
X0033273Y0153813D03*
D64*
X0029418Y0153514D03*
X0029343Y0153888D03*
X0029268Y0154187D03*
X0027172Y0153214D03*
X0026723Y0152541D03*
X0027996Y0151867D03*
X0026648Y0140715D03*
X0030765Y0139742D03*
X0030690Y0139442D03*
X0030466Y0138768D03*
X0042292Y0149921D03*
X0041318Y0150894D03*
X0043714Y0152241D03*
X0040495Y0153888D03*
D65*
X0043340Y0141388D03*
X0039971Y0140715D03*
X0032187Y0138768D03*
D66*
X0028332Y0138843D03*
X0026237Y0141912D03*
X0028183Y0143259D03*
X0029380Y0144457D03*
X0029380Y0144532D03*
X0029380Y0144607D03*
X0029380Y0148499D03*
X0029380Y0148574D03*
X0030129Y0149996D03*
X0030054Y0154636D03*
X0029380Y0155085D03*
X0032823Y0155085D03*
X0036117Y0154337D03*
X0038212Y0153588D03*
X0039410Y0154561D03*
X0039485Y0154636D03*
X0039560Y0154711D03*
X0040832Y0148723D03*
X0040832Y0148574D03*
X0040832Y0144607D03*
X0040832Y0144532D03*
X0040832Y0144457D03*
X0040084Y0140565D03*
X0040158Y0140490D03*
X0040533Y0140041D03*
X0040608Y0139966D03*
X0040682Y0139891D03*
X0040757Y0139816D03*
X0041206Y0139367D03*
D67*
X0041057Y0139517D03*
X0040907Y0139667D03*
X0040458Y0140191D03*
X0040383Y0140265D03*
X0040308Y0140340D03*
X0041730Y0138843D03*
X0043078Y0141762D03*
X0040308Y0143259D03*
X0029904Y0143259D03*
X0029755Y0152990D03*
X0039111Y0154337D03*
X0039709Y0154786D03*
X0040458Y0155385D03*
D68*
X0040458Y0155310D03*
X0038736Y0154037D03*
X0041206Y0151493D03*
X0042254Y0150071D03*
X0040084Y0150071D03*
X0040907Y0148199D03*
X0040907Y0148050D03*
X0040907Y0145131D03*
X0040907Y0145056D03*
X0043078Y0141837D03*
X0033946Y0138918D03*
X0029605Y0139816D03*
X0029380Y0139667D03*
X0028931Y0139367D03*
X0028332Y0138918D03*
X0028108Y0143184D03*
X0030129Y0143110D03*
X0029306Y0145056D03*
X0029306Y0145131D03*
X0029306Y0145205D03*
X0029306Y0147900D03*
X0029306Y0148050D03*
X0029306Y0148199D03*
X0030129Y0150071D03*
X0028332Y0150520D03*
X0030877Y0154037D03*
X0030803Y0154112D03*
X0030353Y0154412D03*
X0043078Y0152840D03*
D69*
X0038998Y0154262D03*
X0038325Y0147151D03*
X0030615Y0140490D03*
X0029792Y0139966D03*
X0032412Y0138918D03*
X0029792Y0153064D03*
X0030466Y0154337D03*
D70*
X0030578Y0154262D03*
X0033123Y0153738D03*
X0029156Y0139517D03*
X0041730Y0138918D03*
D71*
X0037801Y0141313D03*
X0037651Y0141238D03*
X0033160Y0138993D03*
X0032562Y0141238D03*
X0032262Y0141463D03*
X0032861Y0143634D03*
X0032636Y0151942D03*
X0033534Y0152466D03*
X0037576Y0151942D03*
D72*
X0036790Y0153813D03*
X0042030Y0152091D03*
X0042479Y0152391D03*
X0042254Y0150145D03*
X0040982Y0147451D03*
X0039934Y0142960D03*
X0041730Y0138993D03*
X0032000Y0147077D03*
X0029231Y0147077D03*
X0029231Y0147151D03*
X0029231Y0147226D03*
X0029231Y0147376D03*
X0029231Y0147451D03*
X0029231Y0146927D03*
X0029231Y0146852D03*
X0029231Y0146777D03*
X0029231Y0146702D03*
X0029231Y0146553D03*
X0029231Y0146403D03*
X0029231Y0146253D03*
X0029231Y0146178D03*
X0029231Y0146104D03*
X0029231Y0146029D03*
X0029231Y0145879D03*
X0029231Y0145804D03*
X0029231Y0145729D03*
X0030279Y0142960D03*
X0028782Y0139218D03*
X0028183Y0150669D03*
X0027958Y0150819D03*
X0027734Y0150969D03*
X0027509Y0151118D03*
X0026611Y0151717D03*
X0029829Y0153139D03*
X0029455Y0154936D03*
D73*
X0041805Y0151792D03*
X0028781Y0139068D03*
D74*
X0033160Y0139068D03*
X0038325Y0141688D03*
D75*
X0028782Y0139143D03*
X0027060Y0142511D03*
X0026910Y0142436D03*
X0040158Y0154936D03*
D76*
X0038474Y0151343D03*
X0035031Y0148349D03*
X0040495Y0146927D03*
X0033160Y0139143D03*
D77*
X0037239Y0143184D03*
X0039560Y0142661D03*
X0041730Y0139143D03*
X0030653Y0150520D03*
X0027210Y0151418D03*
X0027883Y0142960D03*
X0027359Y0142661D03*
X0027210Y0142586D03*
X0026611Y0142286D03*
X0042928Y0152615D03*
D78*
X0038849Y0151044D03*
X0035106Y0153064D03*
X0032636Y0143110D03*
X0033160Y0139218D03*
X0038924Y0142137D03*
D79*
X0036192Y0140265D03*
X0041730Y0139218D03*
X0032000Y0146927D03*
X0042179Y0150445D03*
X0042179Y0150520D03*
D80*
X0038250Y0146927D03*
X0037277Y0143259D03*
X0039298Y0142436D03*
X0033160Y0139292D03*
X0027172Y0151493D03*
D81*
X0028557Y0149996D03*
X0026536Y0140490D03*
X0035742Y0139292D03*
X0040383Y0151942D03*
D82*
X0041730Y0151717D03*
X0039185Y0150819D03*
X0031177Y0153588D03*
X0039111Y0142286D03*
X0036266Y0140340D03*
X0033946Y0140340D03*
X0041730Y0139292D03*
D83*
X0039522Y0142586D03*
X0044163Y0142885D03*
X0042217Y0150370D03*
X0039522Y0150520D03*
X0039896Y0153588D03*
X0031214Y0153663D03*
X0033160Y0139367D03*
D84*
X0029043Y0139442D03*
X0030166Y0143035D03*
X0029268Y0145355D03*
X0029268Y0145655D03*
X0029268Y0147601D03*
X0040046Y0143035D03*
X0040944Y0145355D03*
X0040944Y0147601D03*
X0041244Y0151567D03*
D85*
X0042254Y0152241D03*
X0030578Y0140415D03*
X0033123Y0139442D03*
X0026312Y0142062D03*
X0029231Y0146328D03*
X0029231Y0146628D03*
X0029231Y0147301D03*
D86*
X0040233Y0140415D03*
X0041131Y0139442D03*
X0039784Y0154861D03*
D87*
X0029268Y0139592D03*
D88*
X0037539Y0139592D03*
X0035069Y0151268D03*
X0040458Y0155534D03*
X0040607Y0154487D03*
X0043901Y0151792D03*
X0042778Y0150744D03*
X0028482Y0150220D03*
D89*
X0040982Y0139592D03*
X0043078Y0152915D03*
D90*
X0040158Y0153214D03*
X0040832Y0139742D03*
D91*
X0042666Y0139742D03*
X0034133Y0155834D03*
X0028220Y0152241D03*
D92*
X0028370Y0150445D03*
X0029343Y0148424D03*
X0029343Y0148349D03*
X0029343Y0144831D03*
X0029343Y0144756D03*
X0030017Y0143184D03*
X0029717Y0139891D03*
X0040121Y0143110D03*
X0040196Y0143184D03*
X0040869Y0144756D03*
X0040869Y0144831D03*
X0040869Y0148349D03*
X0040869Y0148424D03*
X0040869Y0148499D03*
X0040121Y0149996D03*
X0040121Y0153289D03*
X0039223Y0154412D03*
X0038849Y0154112D03*
X0038250Y0153663D03*
X0030166Y0154561D03*
D93*
X0042703Y0139891D03*
D94*
X0039410Y0142511D03*
X0040757Y0147226D03*
X0039335Y0150669D03*
X0038736Y0153813D03*
X0030279Y0140041D03*
D95*
X0030316Y0140116D03*
D96*
X0034320Y0140116D03*
X0035892Y0140116D03*
X0040907Y0144906D03*
X0040907Y0148124D03*
X0031027Y0153963D03*
X0029306Y0148124D03*
X0029306Y0144906D03*
D97*
X0038736Y0140116D03*
D98*
X0030391Y0140191D03*
X0026349Y0142137D03*
X0029567Y0154786D03*
X0033460Y0156882D03*
X0043340Y0151044D03*
D99*
X0042217Y0150295D03*
X0039597Y0150445D03*
X0035031Y0151193D03*
X0027771Y0142885D03*
X0030466Y0140265D03*
D100*
X0034058Y0140265D03*
X0043340Y0151118D03*
X0043340Y0151193D03*
X0029642Y0154711D03*
D101*
X0030541Y0140340D03*
X0043040Y0141987D03*
D102*
X0038849Y0140340D03*
X0029567Y0151642D03*
X0037427Y0153588D03*
X0040421Y0155684D03*
D103*
X0038849Y0142062D03*
X0036379Y0140415D03*
X0033834Y0140415D03*
D104*
X0026574Y0140565D03*
X0027098Y0153364D03*
X0038250Y0153364D03*
X0040271Y0152091D03*
X0040420Y0155609D03*
D105*
X0037801Y0151792D03*
X0032412Y0151792D03*
X0033534Y0140640D03*
D106*
X0032674Y0141164D03*
X0036641Y0140640D03*
X0037539Y0141164D03*
X0036940Y0152316D03*
X0033273Y0152316D03*
D107*
X0043714Y0140640D03*
D108*
X0030653Y0140715D03*
X0029755Y0151867D03*
X0031626Y0153214D03*
D109*
X0037427Y0143783D03*
X0033310Y0140789D03*
X0032187Y0141613D03*
D110*
X0032225Y0141538D03*
X0032449Y0141313D03*
X0032898Y0141014D03*
X0033048Y0140939D03*
X0032898Y0143783D03*
X0032150Y0146403D03*
X0034994Y0148424D03*
X0032898Y0152091D03*
X0032973Y0152166D03*
X0032749Y0152017D03*
X0033422Y0152391D03*
X0036716Y0152466D03*
X0036790Y0152391D03*
X0037240Y0152166D03*
X0037314Y0152091D03*
X0037464Y0152017D03*
X0037314Y0141014D03*
X0037165Y0140939D03*
X0036940Y0140789D03*
D111*
X0037052Y0140864D03*
X0033160Y0140864D03*
D112*
X0028894Y0141089D03*
D113*
X0032187Y0146328D03*
X0037427Y0141089D03*
D114*
X0039971Y0141164D03*
X0040121Y0149696D03*
X0030091Y0149696D03*
X0029343Y0149696D03*
D115*
X0026499Y0151942D03*
X0031963Y0147151D03*
X0041169Y0151418D03*
X0042292Y0149996D03*
X0043489Y0141238D03*
D116*
X0037876Y0141388D03*
X0037427Y0143708D03*
X0032861Y0143708D03*
X0032337Y0141388D03*
X0032486Y0151867D03*
X0033684Y0152541D03*
X0036529Y0152541D03*
X0037726Y0151867D03*
D117*
X0038025Y0151642D03*
X0038250Y0151493D03*
X0033534Y0155235D03*
X0033310Y0156433D03*
X0033235Y0156657D03*
X0032187Y0151642D03*
X0032112Y0146553D03*
X0032786Y0143409D03*
X0037352Y0143559D03*
X0038100Y0141538D03*
D118*
X0032112Y0141688D03*
D119*
X0032075Y0141762D03*
X0032823Y0144083D03*
X0032225Y0146104D03*
X0032225Y0146178D03*
X0037539Y0144083D03*
D120*
X0032037Y0141837D03*
D121*
X0032749Y0143259D03*
X0038512Y0141837D03*
X0042853Y0143484D03*
X0033422Y0155385D03*
D122*
X0031663Y0153139D03*
X0029642Y0151717D03*
X0029343Y0155385D03*
X0038250Y0153289D03*
X0043265Y0153289D03*
X0029418Y0141912D03*
X0028370Y0143559D03*
D123*
X0032000Y0141912D03*
X0032748Y0144232D03*
X0032748Y0144307D03*
X0032300Y0145879D03*
X0037539Y0144307D03*
X0037539Y0144232D03*
D124*
X0037576Y0144457D03*
X0032711Y0144457D03*
X0032337Y0145729D03*
X0032337Y0145804D03*
X0034957Y0148574D03*
X0031963Y0141987D03*
X0043265Y0143409D03*
D125*
X0032449Y0145355D03*
X0032374Y0145655D03*
X0031925Y0142062D03*
D126*
X0043003Y0142062D03*
D127*
X0032636Y0144756D03*
X0032561Y0144831D03*
X0032487Y0145131D03*
X0032487Y0145205D03*
X0032487Y0145280D03*
X0032412Y0145505D03*
X0031888Y0142137D03*
D128*
X0030466Y0142810D03*
X0026499Y0142211D03*
D129*
X0031888Y0142211D03*
X0032561Y0144906D03*
X0032412Y0145430D03*
D130*
X0039036Y0142211D03*
D131*
X0037838Y0145131D03*
X0032524Y0145056D03*
X0031850Y0142286D03*
D132*
X0026761Y0142361D03*
X0040832Y0147301D03*
D133*
X0031813Y0142361D03*
D134*
X0039185Y0142361D03*
X0027135Y0151567D03*
D135*
X0043639Y0142361D03*
D136*
X0031776Y0142436D03*
D137*
X0031738Y0142511D03*
D138*
X0031701Y0142586D03*
X0031701Y0142661D03*
D139*
X0027472Y0142735D03*
X0038774Y0153888D03*
X0039971Y0153514D03*
D140*
X0039672Y0142735D03*
X0030541Y0142735D03*
X0027996Y0143035D03*
D141*
X0032561Y0143035D03*
X0032561Y0142735D03*
X0039073Y0150894D03*
X0033310Y0156807D03*
D142*
X0029493Y0149247D03*
X0029493Y0144008D03*
X0040720Y0149247D03*
X0042666Y0150594D03*
X0042067Y0142735D03*
D143*
X0044649Y0142735D03*
D144*
X0037277Y0143334D03*
X0032561Y0142810D03*
X0036528Y0153963D03*
X0033235Y0155534D03*
D145*
X0030279Y0150220D03*
X0027285Y0151268D03*
X0026536Y0151792D03*
X0029231Y0147002D03*
X0029231Y0146478D03*
X0029231Y0145954D03*
X0038736Y0153963D03*
X0044275Y0142810D03*
D146*
X0043265Y0143035D03*
D147*
X0043302Y0143110D03*
X0043377Y0143259D03*
X0037913Y0145205D03*
D148*
X0037951Y0145280D03*
X0034956Y0148723D03*
X0032262Y0151193D03*
X0043340Y0143184D03*
D149*
X0032749Y0143334D03*
D150*
X0043414Y0143334D03*
D151*
X0037427Y0143858D03*
X0032861Y0143858D03*
D152*
X0032823Y0143933D03*
X0032225Y0146253D03*
X0037464Y0143933D03*
D153*
X0037501Y0144008D03*
X0032786Y0144008D03*
D154*
X0032786Y0144158D03*
X0032262Y0146029D03*
X0032187Y0151418D03*
X0037501Y0144158D03*
D155*
X0040795Y0144382D03*
X0029418Y0144382D03*
D156*
X0032711Y0144382D03*
X0037576Y0144382D03*
D157*
X0037614Y0144532D03*
X0037614Y0144607D03*
X0037689Y0144756D03*
X0037689Y0144831D03*
X0037763Y0145056D03*
X0032674Y0144607D03*
X0032674Y0144532D03*
X0032374Y0145580D03*
X0032225Y0151343D03*
D158*
X0032561Y0144981D03*
X0032636Y0144681D03*
X0037726Y0144981D03*
D159*
X0037651Y0144681D03*
D160*
X0037689Y0144906D03*
D161*
X0040907Y0144981D03*
X0040907Y0147975D03*
X0031102Y0153888D03*
X0029306Y0147975D03*
X0029306Y0144981D03*
D162*
X0038063Y0145355D03*
D163*
X0038138Y0145430D03*
D164*
X0038250Y0145505D03*
X0034956Y0148873D03*
D165*
X0038998Y0145804D03*
X0038998Y0145729D03*
X0038923Y0145580D03*
D166*
X0038961Y0145655D03*
D167*
X0039036Y0145879D03*
D168*
X0032300Y0145954D03*
D169*
X0039073Y0145954D03*
D170*
X0039073Y0146029D03*
X0034433Y0150520D03*
X0035106Y0152615D03*
D171*
X0039111Y0146178D03*
X0039111Y0146104D03*
D172*
X0039148Y0146253D03*
X0034507Y0150445D03*
D173*
X0039185Y0146328D03*
D174*
X0039223Y0146403D03*
X0035106Y0152690D03*
D175*
X0032150Y0146478D03*
D176*
X0039260Y0146478D03*
D177*
X0039260Y0146553D03*
D178*
X0032075Y0146628D03*
D179*
X0034957Y0149621D03*
X0039298Y0146628D03*
D180*
X0039373Y0146702D03*
D181*
X0038961Y0150969D03*
X0032075Y0146777D03*
D182*
X0039410Y0146777D03*
D183*
X0039447Y0146852D03*
D184*
X0038287Y0147002D03*
X0032000Y0147002D03*
D185*
X0040570Y0147002D03*
D186*
X0040682Y0147151D03*
D187*
X0035031Y0148274D03*
X0036528Y0154187D03*
D188*
X0034994Y0148499D03*
D189*
X0034994Y0148648D03*
D190*
X0034956Y0148798D03*
D191*
X0034956Y0148948D03*
D192*
X0034957Y0149023D03*
X0034957Y0149097D03*
D193*
X0034957Y0149172D03*
D194*
X0034957Y0149247D03*
D195*
X0034957Y0149322D03*
X0034957Y0149397D03*
X0034957Y0149472D03*
X0034957Y0149547D03*
X0034957Y0149996D03*
D196*
X0040832Y0149621D03*
D197*
X0034957Y0149696D03*
D198*
X0034957Y0149771D03*
D199*
X0034919Y0149846D03*
X0034919Y0150071D03*
X0034844Y0150145D03*
D200*
X0034957Y0149921D03*
D201*
X0040308Y0152017D03*
X0028557Y0150071D03*
D202*
X0034769Y0150220D03*
D203*
X0039897Y0150220D03*
X0039971Y0153439D03*
X0028071Y0150744D03*
D204*
X0034620Y0150370D03*
X0034695Y0150295D03*
D205*
X0036341Y0154262D03*
X0040308Y0155085D03*
X0043003Y0152690D03*
X0039709Y0150370D03*
X0030578Y0150445D03*
X0030503Y0150370D03*
X0029904Y0153289D03*
X0031177Y0153738D03*
X0027210Y0151343D03*
D206*
X0028295Y0150594D03*
X0043265Y0150894D03*
D207*
X0039447Y0150594D03*
X0033385Y0153888D03*
X0030765Y0150594D03*
D208*
X0034358Y0150594D03*
D209*
X0033422Y0150669D03*
D210*
X0033422Y0150744D03*
D211*
X0039223Y0150744D03*
D212*
X0043527Y0150744D03*
D213*
X0033347Y0150819D03*
D214*
X0029867Y0153214D03*
X0027846Y0150894D03*
X0040346Y0155160D03*
D215*
X0033347Y0150894D03*
D216*
X0033310Y0150969D03*
D217*
X0033272Y0151044D03*
D218*
X0033235Y0151118D03*
D219*
X0032225Y0151268D03*
D220*
X0038549Y0151268D03*
D221*
X0033460Y0153963D03*
X0043340Y0151268D03*
D222*
X0043340Y0151343D03*
D223*
X0042666Y0151418D03*
D224*
X0032187Y0151493D03*
D225*
X0033572Y0155160D03*
X0033273Y0156507D03*
X0038138Y0151567D03*
D226*
X0029680Y0151792D03*
D227*
X0026499Y0151867D03*
D228*
X0041805Y0151867D03*
D229*
X0037090Y0152241D03*
X0033123Y0152241D03*
D230*
X0028183Y0152316D03*
D231*
X0042366Y0152316D03*
D232*
X0035106Y0152765D03*
D233*
X0031177Y0153813D03*
X0043003Y0152765D03*
D234*
X0035106Y0152840D03*
D235*
X0035106Y0152915D03*
D236*
X0035106Y0152990D03*
D237*
X0043190Y0153214D03*
D238*
X0027060Y0153439D03*
D239*
X0031177Y0153514D03*
D240*
X0033572Y0154187D03*
D241*
X0032823Y0154487D03*
X0036117Y0155011D03*
D242*
X0040682Y0154786D03*
D243*
X0029530Y0154861D03*
D244*
X0040682Y0154861D03*
D245*
X0040233Y0155011D03*
D246*
X0033235Y0156582D03*
D247*
X0036229Y0157106D03*
D248*
X0075000Y0156500D02*
X0075013Y0157555D01*
X0075052Y0158610D01*
X0075117Y0159663D01*
X0075207Y0160715D01*
X0075323Y0161764D01*
X0075465Y0162809D01*
X0075633Y0163851D01*
X0075826Y0164889D01*
X0076045Y0165921D01*
X0076289Y0166948D01*
X0076558Y0167969D01*
X0076852Y0168982D01*
X0077170Y0169988D01*
X0077514Y0170986D01*
X0077881Y0171975D01*
X0078273Y0172955D01*
X0078689Y0173925D01*
X0079128Y0174885D01*
X0079591Y0175833D01*
X0080077Y0176770D01*
X0080586Y0177695D01*
X0081118Y0178606D01*
X0081671Y0179505D01*
X0082247Y0180390D01*
X0082844Y0181260D01*
X0083462Y0182115D01*
X0084101Y0182955D01*
X0084761Y0183779D01*
X0085440Y0184586D01*
X0086139Y0185377D01*
X0086857Y0186150D01*
X0087594Y0186906D01*
X0088350Y0187643D01*
X0089123Y0188361D01*
X0089914Y0189060D01*
X0090721Y0189739D01*
X0091545Y0190399D01*
X0092385Y0191038D01*
X0093240Y0191656D01*
X0094110Y0192253D01*
X0094995Y0192829D01*
X0095894Y0193382D01*
X0096805Y0193914D01*
X0097730Y0194423D01*
X0098667Y0194909D01*
X0099615Y0195372D01*
X0100575Y0195811D01*
X0101545Y0196227D01*
X0102525Y0196619D01*
X0103514Y0196986D01*
X0104512Y0197330D01*
X0105518Y0197648D01*
X0106531Y0197942D01*
X0107552Y0198211D01*
X0108579Y0198455D01*
X0109611Y0198674D01*
X0110649Y0198867D01*
X0111691Y0199035D01*
X0112736Y0199177D01*
X0113785Y0199293D01*
X0114837Y0199383D01*
X0115890Y0199448D01*
X0116945Y0199487D01*
X0118000Y0199500D01*
X0119055Y0199487D01*
X0120110Y0199448D01*
X0121163Y0199383D01*
X0122215Y0199293D01*
X0123264Y0199177D01*
X0124309Y0199035D01*
X0125351Y0198867D01*
X0126389Y0198674D01*
X0127421Y0198455D01*
X0128448Y0198211D01*
X0129469Y0197942D01*
X0130482Y0197648D01*
X0131488Y0197330D01*
X0132486Y0196986D01*
X0133475Y0196619D01*
X0134455Y0196227D01*
X0135425Y0195811D01*
X0136385Y0195372D01*
X0137333Y0194909D01*
X0138270Y0194423D01*
X0139195Y0193914D01*
X0140106Y0193382D01*
X0141005Y0192829D01*
X0141890Y0192253D01*
X0142760Y0191656D01*
X0143615Y0191038D01*
X0144455Y0190399D01*
X0145279Y0189739D01*
X0146086Y0189060D01*
X0146877Y0188361D01*
X0147650Y0187643D01*
X0148406Y0186906D01*
X0149143Y0186150D01*
X0149861Y0185377D01*
X0150560Y0184586D01*
X0151239Y0183779D01*
X0151899Y0182955D01*
X0152538Y0182115D01*
X0153156Y0181260D01*
X0153753Y0180390D01*
X0154329Y0179505D01*
X0154882Y0178606D01*
X0155414Y0177695D01*
X0155923Y0176770D01*
X0156409Y0175833D01*
X0156872Y0174885D01*
X0157311Y0173925D01*
X0157727Y0172955D01*
X0158119Y0171975D01*
X0158486Y0170986D01*
X0158830Y0169988D01*
X0159148Y0168982D01*
X0159442Y0167969D01*
X0159711Y0166948D01*
X0159955Y0165921D01*
X0160174Y0164889D01*
X0160367Y0163851D01*
X0160535Y0162809D01*
X0160677Y0161764D01*
X0160793Y0160715D01*
X0160883Y0159663D01*
X0160948Y0158610D01*
X0160987Y0157555D01*
X0161000Y0156500D01*
X0160987Y0155445D01*
X0160948Y0154390D01*
X0160883Y0153337D01*
X0160793Y0152285D01*
X0160677Y0151236D01*
X0160535Y0150191D01*
X0160367Y0149149D01*
X0160174Y0148111D01*
X0159955Y0147079D01*
X0159711Y0146052D01*
X0159442Y0145031D01*
X0159148Y0144018D01*
X0158830Y0143012D01*
X0158486Y0142014D01*
X0158119Y0141025D01*
X0157727Y0140045D01*
X0157311Y0139075D01*
X0156872Y0138115D01*
X0156409Y0137167D01*
X0155923Y0136230D01*
X0155414Y0135305D01*
X0154882Y0134394D01*
X0154329Y0133495D01*
X0153753Y0132610D01*
X0153156Y0131740D01*
X0152538Y0130885D01*
X0151899Y0130045D01*
X0151239Y0129221D01*
X0150560Y0128414D01*
X0149861Y0127623D01*
X0149143Y0126850D01*
X0148406Y0126094D01*
X0147650Y0125357D01*
X0146877Y0124639D01*
X0146086Y0123940D01*
X0145279Y0123261D01*
X0144455Y0122601D01*
X0143615Y0121962D01*
X0142760Y0121344D01*
X0141890Y0120747D01*
X0141005Y0120171D01*
X0140106Y0119618D01*
X0139195Y0119086D01*
X0138270Y0118577D01*
X0137333Y0118091D01*
X0136385Y0117628D01*
X0135425Y0117189D01*
X0134455Y0116773D01*
X0133475Y0116381D01*
X0132486Y0116014D01*
X0131488Y0115670D01*
X0130482Y0115352D01*
X0129469Y0115058D01*
X0128448Y0114789D01*
X0127421Y0114545D01*
X0126389Y0114326D01*
X0125351Y0114133D01*
X0124309Y0113965D01*
X0123264Y0113823D01*
X0122215Y0113707D01*
X0121163Y0113617D01*
X0120110Y0113552D01*
X0119055Y0113513D01*
X0118000Y0113500D01*
X0116945Y0113513D01*
X0115890Y0113552D01*
X0114837Y0113617D01*
X0113785Y0113707D01*
X0112736Y0113823D01*
X0111691Y0113965D01*
X0110649Y0114133D01*
X0109611Y0114326D01*
X0108579Y0114545D01*
X0107552Y0114789D01*
X0106531Y0115058D01*
X0105518Y0115352D01*
X0104512Y0115670D01*
X0103514Y0116014D01*
X0102525Y0116381D01*
X0101545Y0116773D01*
X0100575Y0117189D01*
X0099615Y0117628D01*
X0098667Y0118091D01*
X0097730Y0118577D01*
X0096805Y0119086D01*
X0095894Y0119618D01*
X0094995Y0120171D01*
X0094110Y0120747D01*
X0093240Y0121344D01*
X0092385Y0121962D01*
X0091545Y0122601D01*
X0090721Y0123261D01*
X0089914Y0123940D01*
X0089123Y0124639D01*
X0088350Y0125357D01*
X0087594Y0126094D01*
X0086857Y0126850D01*
X0086139Y0127623D01*
X0085440Y0128414D01*
X0084761Y0129221D01*
X0084101Y0130045D01*
X0083462Y0130885D01*
X0082844Y0131740D01*
X0082247Y0132610D01*
X0081671Y0133495D01*
X0081118Y0134394D01*
X0080586Y0135305D01*
X0080077Y0136230D01*
X0079591Y0137167D01*
X0079128Y0138115D01*
X0078689Y0139075D01*
X0078273Y0140045D01*
X0077881Y0141025D01*
X0077514Y0142014D01*
X0077170Y0143012D01*
X0076852Y0144018D01*
X0076558Y0145031D01*
X0076289Y0146052D01*
X0076045Y0147079D01*
X0075826Y0148111D01*
X0075633Y0149149D01*
X0075465Y0150191D01*
X0075323Y0151236D01*
X0075207Y0152285D01*
X0075117Y0153337D01*
X0075052Y0154390D01*
X0075013Y0155445D01*
X0075000Y0156500D01*
X0159000Y0144000D02*
X0174000Y0144000D01*
X0174000Y0169000D01*
X0159000Y0169000D01*
D249*
X0164000Y0136500D02*
X0169000Y0136500D01*
X0171500Y0134000D01*
X0171500Y0119000D01*
X0169000Y0116500D01*
X0164000Y0116500D01*
X0161500Y0119000D01*
X0161500Y0134000D01*
X0164000Y0136500D01*
X0171500Y0134000D02*
X0174000Y0136500D01*
X0179000Y0136500D01*
X0181500Y0134000D01*
X0181500Y0119000D01*
X0179000Y0116500D01*
X0174000Y0116500D01*
X0171500Y0119000D01*
X0181500Y0119000D02*
X0184000Y0116500D01*
X0189000Y0116500D01*
X0191500Y0119000D01*
X0191500Y0134000D01*
X0189000Y0136500D01*
X0184000Y0136500D01*
X0181500Y0134000D01*
X0081500Y0124000D02*
X0081500Y0119000D01*
X0079000Y0116500D01*
X0074000Y0116500D01*
X0071500Y0119000D01*
X0071500Y0124000D01*
X0074000Y0126500D01*
X0079000Y0126500D01*
X0081500Y0124000D01*
X0071500Y0124000D02*
X0071500Y0119000D01*
X0069000Y0116500D01*
X0064000Y0116500D01*
X0061500Y0119000D01*
X0061500Y0124000D01*
X0064000Y0126500D01*
X0069000Y0126500D01*
X0071500Y0124000D01*
X0061500Y0124000D02*
X0061500Y0119000D01*
X0059000Y0116500D01*
X0054000Y0116500D01*
X0051500Y0119000D01*
X0051500Y0124000D01*
X0054000Y0126500D01*
X0059000Y0126500D01*
X0061500Y0124000D01*
X0051500Y0124000D02*
X0051500Y0119000D01*
X0049000Y0116500D01*
X0044000Y0116500D01*
X0041500Y0119000D01*
X0041500Y0124000D01*
X0044000Y0126500D01*
X0049000Y0126500D01*
X0051500Y0124000D01*
X0041500Y0124000D02*
X0041500Y0119000D01*
X0039000Y0116500D01*
X0034000Y0116500D01*
X0031500Y0119000D01*
X0031500Y0124000D01*
X0034000Y0126500D01*
X0039000Y0126500D01*
X0041500Y0124000D01*
X0031500Y0124000D02*
X0031500Y0119000D01*
X0029000Y0116500D01*
X0024000Y0116500D01*
X0021500Y0119000D01*
X0019000Y0116500D01*
X0014000Y0116500D01*
X0011500Y0119000D01*
X0011500Y0124000D01*
X0014000Y0126500D01*
X0019000Y0126500D01*
X0021500Y0124000D01*
X0021500Y0119000D01*
X0021500Y0124000D01*
X0024000Y0126500D01*
X0029000Y0126500D01*
X0031500Y0124000D01*
X0039000Y0161500D02*
X0036500Y0164000D01*
X0036500Y0169000D01*
X0039000Y0171500D01*
X0044000Y0171500D01*
X0046500Y0169000D01*
X0049000Y0171500D01*
X0054000Y0171500D01*
X0056500Y0169000D01*
X0059000Y0171500D01*
X0064000Y0171500D01*
X0066500Y0169000D01*
X0066500Y0164000D01*
X0064000Y0161500D01*
X0059000Y0161500D01*
X0056500Y0164000D01*
X0054000Y0161500D01*
X0049000Y0161500D01*
X0046500Y0164000D01*
X0044000Y0161500D01*
X0039000Y0161500D01*
X0046500Y0164000D02*
X0046500Y0169000D01*
X0056500Y0169000D02*
X0056500Y0164000D01*
D250*
X0058259Y0174200D02*
X0059794Y0174200D01*
X0060561Y0174967D01*
X0060561Y0178037D01*
X0059794Y0178804D01*
X0058259Y0178804D01*
X0057492Y0178037D01*
X0057492Y0174967D01*
X0058259Y0174200D01*
X0062096Y0174200D02*
X0062096Y0178804D01*
X0065165Y0174200D01*
X0065165Y0178804D01*
X0069398Y0133804D02*
X0067096Y0131502D01*
X0070165Y0131502D01*
X0069398Y0129200D02*
X0069398Y0133804D01*
X0072492Y0133804D02*
X0072492Y0130735D01*
X0074027Y0129200D01*
X0075561Y0130735D01*
X0075561Y0133804D01*
X0077096Y0131502D02*
X0080165Y0131502D01*
X0078631Y0133037D02*
X0078631Y0129967D01*
X0060165Y0129967D02*
X0059398Y0129200D01*
X0057863Y0129200D01*
X0057096Y0129967D01*
X0058631Y0131502D02*
X0059398Y0131502D01*
X0060165Y0130735D01*
X0060165Y0129967D01*
X0059398Y0131502D02*
X0060165Y0132269D01*
X0060165Y0133037D01*
X0059398Y0133804D01*
X0057863Y0133804D01*
X0057096Y0133037D01*
X0050165Y0133037D02*
X0049398Y0133804D01*
X0047863Y0133804D01*
X0047096Y0133037D01*
X0050165Y0133037D02*
X0050165Y0132269D01*
X0047096Y0129200D01*
X0050165Y0129200D01*
X0040165Y0129200D02*
X0037096Y0129200D01*
X0038631Y0129200D02*
X0038631Y0133804D01*
X0037096Y0132269D01*
X0030165Y0133037D02*
X0030165Y0129967D01*
X0029398Y0129200D01*
X0027863Y0129200D01*
X0027096Y0129967D01*
X0030165Y0133037D01*
X0029398Y0133804D01*
X0027863Y0133804D01*
X0027096Y0133037D01*
X0027096Y0129967D01*
X0020165Y0129967D02*
X0019398Y0129200D01*
X0017096Y0129200D01*
X0017096Y0133804D01*
X0019398Y0133804D01*
X0020165Y0133037D01*
X0020165Y0129967D01*
X0015561Y0129200D02*
X0015561Y0133804D01*
X0012492Y0133804D02*
X0015561Y0129200D01*
X0012492Y0129200D02*
X0012492Y0133804D01*
X0010957Y0133037D02*
X0010190Y0133804D01*
X0008656Y0133804D01*
X0007888Y0133037D01*
X0007888Y0129967D01*
X0008656Y0129200D01*
X0010190Y0129200D01*
X0010957Y0129967D01*
X0010957Y0131502D01*
X0009423Y0131502D01*
M02*
