G75*
%MOIN*%
%OFA0B0*%
%FSLAX25Y25*%
%IPPOS*%
%LPD*%
%AMOC8*
5,1,8,0,0,1.08239X$1,22.5*
%
%ADD10C,0.01000*%
%ADD11C,0.08800*%
%ADD12OC8,0.06800*%
%ADD13C,0.06800*%
%ADD14OC8,0.06706*%
%ADD15C,0.05550*%
D10*
X0001500Y0101500D02*
X0001530Y0103954D01*
X0001620Y0106407D01*
X0001771Y0108856D01*
X0001982Y0111302D01*
X0002252Y0113741D01*
X0002582Y0116173D01*
X0002972Y0118596D01*
X0003421Y0121009D01*
X0003930Y0123410D01*
X0004497Y0125798D01*
X0005122Y0128171D01*
X0005806Y0130528D01*
X0006547Y0132868D01*
X0007346Y0135189D01*
X0008201Y0137490D01*
X0009112Y0139768D01*
X0010079Y0142024D01*
X0011101Y0144256D01*
X0012178Y0146461D01*
X0013308Y0148640D01*
X0014491Y0150790D01*
X0015727Y0152910D01*
X0017015Y0155000D01*
X0018353Y0157057D01*
X0019742Y0159081D01*
X0021179Y0161070D01*
X0022665Y0163023D01*
X0024199Y0164939D01*
X0025779Y0166817D01*
X0027405Y0168656D01*
X0029075Y0170454D01*
X0030789Y0172211D01*
X0032546Y0173925D01*
X0034344Y0175595D01*
X0036183Y0177221D01*
X0038061Y0178801D01*
X0039977Y0180335D01*
X0041930Y0181821D01*
X0043919Y0183258D01*
X0045943Y0184647D01*
X0048000Y0185985D01*
X0050090Y0187273D01*
X0052210Y0188509D01*
X0054360Y0189692D01*
X0056539Y0190822D01*
X0058744Y0191899D01*
X0060976Y0192921D01*
X0063232Y0193888D01*
X0065510Y0194799D01*
X0067811Y0195654D01*
X0070132Y0196453D01*
X0072472Y0197194D01*
X0074829Y0197878D01*
X0077202Y0198503D01*
X0079590Y0199070D01*
X0081991Y0199579D01*
X0084404Y0200028D01*
X0086827Y0200418D01*
X0089259Y0200748D01*
X0091698Y0201018D01*
X0094144Y0201229D01*
X0096593Y0201380D01*
X0099046Y0201470D01*
X0101500Y0201500D01*
X0103954Y0201470D01*
X0106407Y0201380D01*
X0108856Y0201229D01*
X0111302Y0201018D01*
X0113741Y0200748D01*
X0116173Y0200418D01*
X0118596Y0200028D01*
X0121009Y0199579D01*
X0123410Y0199070D01*
X0125798Y0198503D01*
X0128171Y0197878D01*
X0130528Y0197194D01*
X0132868Y0196453D01*
X0135189Y0195654D01*
X0137490Y0194799D01*
X0139768Y0193888D01*
X0142024Y0192921D01*
X0144256Y0191899D01*
X0146461Y0190822D01*
X0148640Y0189692D01*
X0150790Y0188509D01*
X0152910Y0187273D01*
X0155000Y0185985D01*
X0157057Y0184647D01*
X0159081Y0183258D01*
X0161070Y0181821D01*
X0163023Y0180335D01*
X0164939Y0178801D01*
X0166817Y0177221D01*
X0168656Y0175595D01*
X0170454Y0173925D01*
X0172211Y0172211D01*
X0173925Y0170454D01*
X0175595Y0168656D01*
X0177221Y0166817D01*
X0178801Y0164939D01*
X0180335Y0163023D01*
X0181821Y0161070D01*
X0183258Y0159081D01*
X0184647Y0157057D01*
X0185985Y0155000D01*
X0187273Y0152910D01*
X0188509Y0150790D01*
X0189692Y0148640D01*
X0190822Y0146461D01*
X0191899Y0144256D01*
X0192921Y0142024D01*
X0193888Y0139768D01*
X0194799Y0137490D01*
X0195654Y0135189D01*
X0196453Y0132868D01*
X0197194Y0130528D01*
X0197878Y0128171D01*
X0198503Y0125798D01*
X0199070Y0123410D01*
X0199579Y0121009D01*
X0200028Y0118596D01*
X0200418Y0116173D01*
X0200748Y0113741D01*
X0201018Y0111302D01*
X0201229Y0108856D01*
X0201380Y0106407D01*
X0201470Y0103954D01*
X0201500Y0101500D01*
X0201470Y0099046D01*
X0201380Y0096593D01*
X0201229Y0094144D01*
X0201018Y0091698D01*
X0200748Y0089259D01*
X0200418Y0086827D01*
X0200028Y0084404D01*
X0199579Y0081991D01*
X0199070Y0079590D01*
X0198503Y0077202D01*
X0197878Y0074829D01*
X0197194Y0072472D01*
X0196453Y0070132D01*
X0195654Y0067811D01*
X0194799Y0065510D01*
X0193888Y0063232D01*
X0192921Y0060976D01*
X0191899Y0058744D01*
X0190822Y0056539D01*
X0189692Y0054360D01*
X0188509Y0052210D01*
X0187273Y0050090D01*
X0185985Y0048000D01*
X0184647Y0045943D01*
X0183258Y0043919D01*
X0181821Y0041930D01*
X0180335Y0039977D01*
X0178801Y0038061D01*
X0177221Y0036183D01*
X0175595Y0034344D01*
X0173925Y0032546D01*
X0172211Y0030789D01*
X0170454Y0029075D01*
X0168656Y0027405D01*
X0166817Y0025779D01*
X0164939Y0024199D01*
X0163023Y0022665D01*
X0161070Y0021179D01*
X0159081Y0019742D01*
X0157057Y0018353D01*
X0155000Y0017015D01*
X0152910Y0015727D01*
X0150790Y0014491D01*
X0148640Y0013308D01*
X0146461Y0012178D01*
X0144256Y0011101D01*
X0142024Y0010079D01*
X0139768Y0009112D01*
X0137490Y0008201D01*
X0135189Y0007346D01*
X0132868Y0006547D01*
X0130528Y0005806D01*
X0128171Y0005122D01*
X0125798Y0004497D01*
X0123410Y0003930D01*
X0121009Y0003421D01*
X0118596Y0002972D01*
X0116173Y0002582D01*
X0113741Y0002252D01*
X0111302Y0001982D01*
X0108856Y0001771D01*
X0106407Y0001620D01*
X0103954Y0001530D01*
X0101500Y0001500D01*
X0099046Y0001530D01*
X0096593Y0001620D01*
X0094144Y0001771D01*
X0091698Y0001982D01*
X0089259Y0002252D01*
X0086827Y0002582D01*
X0084404Y0002972D01*
X0081991Y0003421D01*
X0079590Y0003930D01*
X0077202Y0004497D01*
X0074829Y0005122D01*
X0072472Y0005806D01*
X0070132Y0006547D01*
X0067811Y0007346D01*
X0065510Y0008201D01*
X0063232Y0009112D01*
X0060976Y0010079D01*
X0058744Y0011101D01*
X0056539Y0012178D01*
X0054360Y0013308D01*
X0052210Y0014491D01*
X0050090Y0015727D01*
X0048000Y0017015D01*
X0045943Y0018353D01*
X0043919Y0019742D01*
X0041930Y0021179D01*
X0039977Y0022665D01*
X0038061Y0024199D01*
X0036183Y0025779D01*
X0034344Y0027405D01*
X0032546Y0029075D01*
X0030789Y0030789D01*
X0029075Y0032546D01*
X0027405Y0034344D01*
X0025779Y0036183D01*
X0024199Y0038061D01*
X0022665Y0039977D01*
X0021179Y0041930D01*
X0019742Y0043919D01*
X0018353Y0045943D01*
X0017015Y0048000D01*
X0015727Y0050090D01*
X0014491Y0052210D01*
X0013308Y0054360D01*
X0012178Y0056539D01*
X0011101Y0058744D01*
X0010079Y0060976D01*
X0009112Y0063232D01*
X0008201Y0065510D01*
X0007346Y0067811D01*
X0006547Y0070132D01*
X0005806Y0072472D01*
X0005122Y0074829D01*
X0004497Y0077202D01*
X0003930Y0079590D01*
X0003421Y0081991D01*
X0002972Y0084404D01*
X0002582Y0086827D01*
X0002252Y0089259D01*
X0001982Y0091698D01*
X0001771Y0094144D01*
X0001620Y0096593D01*
X0001530Y0099046D01*
X0001500Y0101500D01*
D11*
X0086500Y0156500D03*
X0166500Y0156500D03*
D12*
X0166500Y0131500D03*
X0176500Y0131500D03*
X0176500Y0121500D03*
X0166500Y0121500D03*
X0186500Y0121500D03*
X0186500Y0131500D03*
X0076500Y0121500D03*
X0066500Y0121500D03*
X0056500Y0121500D03*
X0046500Y0121500D03*
X0036500Y0121500D03*
X0026500Y0121500D03*
X0016500Y0121500D03*
D13*
X0041500Y0163500D02*
X0041500Y0169500D01*
X0051500Y0169500D02*
X0051500Y0163500D01*
X0061500Y0163500D02*
X0061500Y0169500D01*
D14*
X0036500Y0036500D03*
X0036500Y0046500D03*
X0026500Y0046500D03*
X0026500Y0056500D03*
X0036500Y0056500D03*
X0036500Y0066500D03*
X0026500Y0066500D03*
X0026500Y0076500D03*
X0036500Y0076500D03*
X0036500Y0086500D03*
X0026500Y0086500D03*
X0026500Y0096500D03*
X0036500Y0096500D03*
X0036500Y0106500D03*
X0026500Y0106500D03*
X0016500Y0106500D03*
X0016500Y0096500D03*
X0016500Y0086500D03*
X0016500Y0076500D03*
X0016500Y0066500D03*
X0016500Y0056500D03*
X0046500Y0056500D03*
X0046500Y0046500D03*
X0046500Y0036500D03*
X0046500Y0026500D03*
X0056500Y0026500D03*
X0056500Y0036500D03*
X0056500Y0046500D03*
X0056500Y0056500D03*
X0056500Y0066500D03*
X0056500Y0076500D03*
X0056500Y0086500D03*
X0056500Y0096500D03*
X0056500Y0106500D03*
X0046500Y0106500D03*
X0046500Y0096500D03*
X0046500Y0086500D03*
X0046500Y0076500D03*
X0046500Y0066500D03*
X0066500Y0066500D03*
X0066500Y0056500D03*
X0066500Y0046500D03*
X0066500Y0036500D03*
X0066500Y0026500D03*
X0066500Y0016500D03*
X0056500Y0016500D03*
X0076500Y0016500D03*
X0076500Y0026500D03*
X0076500Y0036500D03*
X0076500Y0046500D03*
X0076500Y0056500D03*
X0076500Y0066500D03*
X0076500Y0076500D03*
X0076500Y0086500D03*
X0076500Y0096500D03*
X0076500Y0106500D03*
X0066500Y0106500D03*
X0066500Y0096500D03*
X0066500Y0086500D03*
X0066500Y0076500D03*
X0086500Y0076500D03*
X0086500Y0066500D03*
X0086500Y0056500D03*
X0086500Y0046500D03*
X0086500Y0036500D03*
X0086500Y0026500D03*
X0086500Y0016500D03*
X0086500Y0006500D03*
X0096500Y0006500D03*
X0096500Y0016500D03*
X0096500Y0026500D03*
X0096500Y0036500D03*
X0096500Y0046500D03*
X0096500Y0056500D03*
X0096500Y0066500D03*
X0096500Y0076500D03*
X0096500Y0086500D03*
X0096500Y0096500D03*
X0096500Y0106500D03*
X0086500Y0106500D03*
X0086500Y0096500D03*
X0086500Y0086500D03*
X0106500Y0086500D03*
X0106500Y0076500D03*
X0106500Y0066500D03*
X0106500Y0056500D03*
X0106500Y0046500D03*
X0106500Y0036500D03*
X0106500Y0026500D03*
X0106500Y0016500D03*
X0106500Y0006500D03*
X0116500Y0006500D03*
X0116500Y0016500D03*
X0116500Y0026500D03*
X0116500Y0036500D03*
X0116500Y0046500D03*
X0116500Y0056500D03*
X0116500Y0066500D03*
X0116500Y0076500D03*
X0116500Y0086500D03*
X0116500Y0096500D03*
X0116500Y0106500D03*
X0106500Y0106500D03*
X0106500Y0096500D03*
X0126500Y0096500D03*
X0126500Y0086500D03*
X0126500Y0076500D03*
X0126500Y0066500D03*
X0126500Y0056500D03*
X0126500Y0046500D03*
X0126500Y0036500D03*
X0126500Y0026500D03*
X0126500Y0016500D03*
X0136500Y0016500D03*
X0136500Y0026500D03*
X0136500Y0036500D03*
X0136500Y0046500D03*
X0136500Y0056500D03*
X0136500Y0066500D03*
X0136500Y0076500D03*
X0136500Y0086500D03*
X0136500Y0096500D03*
X0136500Y0106500D03*
X0126500Y0106500D03*
X0146500Y0106500D03*
X0146500Y0096500D03*
X0146500Y0086500D03*
X0146500Y0076500D03*
X0146500Y0066500D03*
X0146500Y0056500D03*
X0146500Y0046500D03*
X0146500Y0036500D03*
X0146500Y0026500D03*
X0146500Y0016500D03*
X0156500Y0026500D03*
X0156500Y0036500D03*
X0156500Y0046500D03*
X0156500Y0056500D03*
X0156500Y0066500D03*
X0156500Y0076500D03*
X0156500Y0086500D03*
X0156500Y0096500D03*
X0156500Y0106500D03*
X0166500Y0106500D03*
X0176500Y0106500D03*
X0176500Y0096500D03*
X0166500Y0096500D03*
X0166500Y0086500D03*
X0176500Y0086500D03*
X0176500Y0076500D03*
X0166500Y0076500D03*
X0166500Y0066500D03*
X0176500Y0066500D03*
X0176500Y0056500D03*
X0166500Y0056500D03*
X0166500Y0046500D03*
X0176500Y0046500D03*
X0166500Y0036500D03*
X0186500Y0056500D03*
X0186500Y0066500D03*
X0186500Y0076500D03*
X0186500Y0086500D03*
X0186500Y0096500D03*
X0186500Y0106500D03*
X0196500Y0106500D03*
X0196500Y0096500D03*
X0196500Y0086500D03*
X0006500Y0086500D03*
X0006500Y0096500D03*
X0006500Y0106500D03*
D15*
X0156500Y0149000D03*
M02*
