%
M48
M72
T01C0.03150
T02C0.03937
T03C0.04000
T04C0.05000
%
T01
X156500Y149000
T02
X36500Y36500
X36500Y46500
X26500Y46500
X26500Y56500
X36500Y56500
X36500Y66500
X26500Y66500
X26500Y76500
X36500Y76500
X36500Y86500
X26500Y86500
X26500Y96500
X36500Y96500
X36500Y106500
X26500Y106500
X16500Y106500
X16500Y96500
X16500Y86500
X16500Y76500
X16500Y66500
X46500Y66500
X46500Y56500
X46500Y46500
X46500Y36500
X46500Y26500
X56500Y26500
X56500Y36500
X56500Y46500
X56500Y56500
X56500Y66500
X56500Y76500
X56500Y86500
X56500Y96500
X56500Y106500
X46500Y106500
X46500Y96500
X46500Y86500
X46500Y76500
X66500Y76500
X66500Y66500
X66500Y56500
X66500Y46500
X66500Y36500
X66500Y26500
X66500Y16500
X76500Y16500
X76500Y26500
X76500Y36500
X76500Y46500
X76500Y56500
X76500Y66500
X76500Y76500
X76500Y86500
X76500Y96500
X76500Y106500
X66500Y106500
X66500Y96500
X66500Y86500
X86500Y86500
X86500Y76500
X86500Y66500
X86500Y56500
X86500Y46500
X86500Y36500
X86500Y26500
X86500Y16500
X96500Y16500
X96500Y26500
X96500Y36500
X96500Y46500
X96500Y56500
X96500Y66500
X96500Y76500
X96500Y86500
X96500Y96500
X86500Y96500
X86500Y106500
X96500Y106500
X106500Y106500
X106500Y96500
X106500Y86500
X106500Y76500
X106500Y66500
X106500Y56500
X106500Y46500
X106500Y36500
X106500Y26500
X106500Y16500
X116500Y16500
X116500Y26500
X116500Y36500
X116500Y46500
X116500Y56500
X116500Y66500
X116500Y76500
X116500Y86500
X116500Y96500
X116500Y106500
X126500Y106500
X126500Y96500
X126500Y86500
X126500Y76500
X126500Y66500
X126500Y56500
X126500Y46500
X126500Y36500
X126500Y26500
X126500Y16500
X136500Y16500
X136500Y26500
X136500Y36500
X136500Y46500
X136500Y56500
X136500Y66500
X136500Y76500
X136500Y86500
X136500Y96500
X136500Y106500
X146500Y106500
X146500Y96500
X146500Y86500
X146500Y76500
X146500Y66500
X146500Y56500
X146500Y46500
X146500Y36500
X146500Y26500
X156500Y26500
X156500Y36500
X156500Y46500
X156500Y56500
X156500Y66500
X156500Y76500
X156500Y86500
X156500Y96500
X156500Y106500
X166500Y106500
X176500Y106500
X176500Y96500
X166500Y96500
X166500Y86500
X176500Y86500
X176500Y76500
X166500Y76500
X166500Y66500
X176500Y66500
X176500Y56500
X166500Y56500
X166500Y46500
X176500Y46500
X166500Y36500
X186500Y66500
X186500Y76500
X186500Y86500
X186500Y96500
X186500Y106500
T03
X186500Y121500
X186500Y131500
X176500Y131500
X166500Y131500
X166500Y121500
X176500Y121500
X16500Y121500
X26500Y121500
X36500Y121500
X46500Y121500
X56500Y121500
X66500Y121500
X76500Y121500
X61500Y166500
X51500Y166500
X41500Y166500
T04
X86500Y156500
X166500Y156500
M30
