G75*
%MOIN*%
%OFA0B0*%
%FSLAX25Y25*%
%IPPOS*%
%LPD*%
%AMOC8*
5,1,8,0,0,1.08239X$1,22.5*
%
%ADD10C,0.01000*%
%ADD11R,0.07087X0.10630*%
D10*
X0046800Y0151499D02*
X0045183Y0150255D01*
X0043596Y0148971D01*
X0042041Y0147649D01*
X0040519Y0146289D01*
X0039031Y0144893D01*
X0037578Y0143460D01*
X0036160Y0141992D01*
X0034778Y0140490D01*
X0033434Y0138955D01*
X0032128Y0137387D01*
X0030860Y0135787D01*
X0029632Y0134157D01*
X0028444Y0132497D01*
X0027298Y0130809D01*
X0026193Y0129093D01*
X0025130Y0127351D01*
X0024110Y0125583D01*
X0023134Y0123791D01*
X0022202Y0121975D01*
X0021315Y0120137D01*
X0020473Y0118278D01*
X0019677Y0116399D01*
X0018927Y0114501D01*
X0018224Y0112585D01*
X0017568Y0110652D01*
X0016959Y0108704D01*
X0016399Y0106742D01*
X0015886Y0104766D01*
X0015422Y0102779D01*
X0015007Y0100781D01*
X0014641Y0098773D01*
X0014324Y0096757D01*
X0014057Y0094734D01*
X0013840Y0092704D01*
X0013672Y0090670D01*
X0013554Y0088633D01*
X0013486Y0086593D01*
X0013467Y0084552D01*
X0013499Y0082512D01*
X0013581Y0080473D01*
X0013713Y0078436D01*
X0013894Y0076403D01*
X0014126Y0074376D01*
X0014407Y0072354D01*
X0014737Y0070340D01*
X0015116Y0068335D01*
X0015545Y0066339D01*
X0016022Y0064355D01*
X0016548Y0062383D01*
X0017122Y0060425D01*
X0017743Y0058481D01*
X0018412Y0056553D01*
X0019128Y0054642D01*
X0019891Y0052749D01*
X0020700Y0050875D01*
X0021554Y0049021D01*
X0022454Y0047189D01*
X0023398Y0045380D01*
X0024386Y0043594D01*
X0025418Y0041833D01*
X0026492Y0040098D01*
X0027609Y0038390D01*
X0028767Y0036710D01*
X0029966Y0035058D01*
X0031205Y0033436D01*
X0032483Y0031845D01*
X0033800Y0030286D01*
X0035155Y0028760D01*
X0036546Y0027267D01*
X0037974Y0025809D01*
X0039437Y0024386D01*
X0040934Y0022999D01*
X0042465Y0021650D01*
X0044029Y0020338D01*
X0045624Y0019065D01*
X0047250Y0017831D01*
X0048906Y0016638D01*
X0050590Y0015486D01*
X0052302Y0014375D01*
X0054041Y0013306D01*
X0055805Y0012281D01*
X0057594Y0011299D01*
X0059407Y0010361D01*
X0061242Y0009467D01*
X0063098Y0008619D01*
X0064975Y0007817D01*
X0066870Y0007060D01*
X0068784Y0006351D01*
X0070714Y0005688D01*
X0072660Y0005073D01*
X0074620Y0004506D01*
X0076594Y0003987D01*
X0078580Y0003516D01*
X0080577Y0003094D01*
X0082583Y0002722D01*
X0084599Y0002398D01*
X0086621Y0002124D01*
X0088649Y0001900D01*
X0090683Y0001725D01*
X0092720Y0001600D01*
X0094759Y0001525D01*
X0096800Y0001500D01*
X0098841Y0001525D01*
X0100880Y0001600D01*
X0102917Y0001725D01*
X0104951Y0001900D01*
X0106979Y0002124D01*
X0109001Y0002398D01*
X0111017Y0002722D01*
X0113023Y0003094D01*
X0115020Y0003516D01*
X0117006Y0003987D01*
X0118980Y0004506D01*
X0120940Y0005073D01*
X0122886Y0005688D01*
X0124816Y0006351D01*
X0126730Y0007060D01*
X0128625Y0007817D01*
X0130502Y0008619D01*
X0132358Y0009467D01*
X0134193Y0010361D01*
X0136006Y0011299D01*
X0137795Y0012281D01*
X0139559Y0013306D01*
X0141298Y0014375D01*
X0143010Y0015486D01*
X0144694Y0016638D01*
X0146350Y0017831D01*
X0147976Y0019065D01*
X0149571Y0020338D01*
X0151135Y0021650D01*
X0152666Y0022999D01*
X0154163Y0024386D01*
X0155626Y0025809D01*
X0157054Y0027267D01*
X0158445Y0028760D01*
X0159800Y0030286D01*
X0161117Y0031845D01*
X0162395Y0033436D01*
X0163634Y0035058D01*
X0164833Y0036710D01*
X0165991Y0038390D01*
X0167108Y0040098D01*
X0168182Y0041833D01*
X0169214Y0043594D01*
X0170202Y0045380D01*
X0171146Y0047189D01*
X0172046Y0049021D01*
X0172900Y0050875D01*
X0173709Y0052749D01*
X0174472Y0054642D01*
X0175188Y0056553D01*
X0175857Y0058481D01*
X0176478Y0060425D01*
X0177052Y0062383D01*
X0177578Y0064355D01*
X0178055Y0066339D01*
X0178484Y0068335D01*
X0178863Y0070340D01*
X0179193Y0072354D01*
X0179474Y0074376D01*
X0179706Y0076403D01*
X0179887Y0078436D01*
X0180019Y0080473D01*
X0180101Y0082512D01*
X0180133Y0084552D01*
X0180114Y0086593D01*
X0180046Y0088633D01*
X0179928Y0090670D01*
X0179760Y0092704D01*
X0179543Y0094734D01*
X0179276Y0096757D01*
X0178959Y0098773D01*
X0178593Y0100781D01*
X0178178Y0102779D01*
X0177714Y0104766D01*
X0177201Y0106742D01*
X0176641Y0108704D01*
X0176032Y0110652D01*
X0175376Y0112585D01*
X0174673Y0114501D01*
X0173923Y0116399D01*
X0173127Y0118278D01*
X0172285Y0120137D01*
X0171398Y0121975D01*
X0170466Y0123791D01*
X0169490Y0125583D01*
X0168470Y0127351D01*
X0167407Y0129093D01*
X0166302Y0130809D01*
X0165156Y0132497D01*
X0163968Y0134157D01*
X0162740Y0135787D01*
X0161472Y0137387D01*
X0160166Y0138955D01*
X0158822Y0140490D01*
X0157440Y0141992D01*
X0156022Y0143460D01*
X0154569Y0144893D01*
X0153081Y0146289D01*
X0151559Y0147649D01*
X0150004Y0148971D01*
X0148417Y0150255D01*
X0146800Y0151499D01*
X0146800Y0151500D02*
X0146785Y0152718D01*
X0146741Y0153934D01*
X0146667Y0155150D01*
X0146563Y0156363D01*
X0146430Y0157573D01*
X0146267Y0158780D01*
X0146075Y0159982D01*
X0145854Y0161180D01*
X0145604Y0162372D01*
X0145325Y0163557D01*
X0145017Y0164735D01*
X0144680Y0165905D01*
X0144315Y0167067D01*
X0143922Y0168219D01*
X0143501Y0169362D01*
X0143052Y0170493D01*
X0142576Y0171614D01*
X0142072Y0172723D01*
X0141542Y0173819D01*
X0140985Y0174902D01*
X0140402Y0175971D01*
X0139794Y0177025D01*
X0139159Y0178065D01*
X0138500Y0179088D01*
X0137816Y0180096D01*
X0137107Y0181086D01*
X0136375Y0182059D01*
X0135619Y0183013D01*
X0134840Y0183949D01*
X0134039Y0184866D01*
X0133215Y0185763D01*
X0132370Y0186639D01*
X0131504Y0187495D01*
X0130617Y0188330D01*
X0129710Y0189142D01*
X0128784Y0189932D01*
X0127838Y0190700D01*
X0126875Y0191444D01*
X0125893Y0192164D01*
X0124894Y0192861D01*
X0123879Y0193533D01*
X0122847Y0194180D01*
X0121800Y0194801D01*
X0120738Y0195397D01*
X0119662Y0195967D01*
X0118573Y0196511D01*
X0117470Y0197027D01*
X0116355Y0197517D01*
X0115229Y0197980D01*
X0114092Y0198415D01*
X0112944Y0198822D01*
X0111787Y0199201D01*
X0110621Y0199552D01*
X0109447Y0199874D01*
X0108265Y0200168D01*
X0107076Y0200433D01*
X0105882Y0200668D01*
X0104682Y0200875D01*
X0103477Y0201052D01*
X0102269Y0201200D01*
X0101057Y0201318D01*
X0099842Y0201407D01*
X0098626Y0201467D01*
X0097409Y0201496D01*
X0096191Y0201496D01*
X0094974Y0201467D01*
X0093758Y0201407D01*
X0092543Y0201318D01*
X0091331Y0201200D01*
X0090123Y0201052D01*
X0088918Y0200875D01*
X0087718Y0200668D01*
X0086524Y0200433D01*
X0085335Y0200168D01*
X0084153Y0199874D01*
X0082979Y0199552D01*
X0081813Y0199201D01*
X0080656Y0198822D01*
X0079508Y0198415D01*
X0078371Y0197980D01*
X0077245Y0197517D01*
X0076130Y0197027D01*
X0075027Y0196511D01*
X0073938Y0195967D01*
X0072862Y0195397D01*
X0071800Y0194801D01*
X0070753Y0194180D01*
X0069721Y0193533D01*
X0068706Y0192861D01*
X0067707Y0192164D01*
X0066725Y0191444D01*
X0065762Y0190700D01*
X0064816Y0189932D01*
X0063890Y0189142D01*
X0062983Y0188330D01*
X0062096Y0187495D01*
X0061230Y0186639D01*
X0060385Y0185763D01*
X0059561Y0184866D01*
X0058760Y0183949D01*
X0057981Y0183013D01*
X0057225Y0182059D01*
X0056493Y0181086D01*
X0055784Y0180096D01*
X0055100Y0179088D01*
X0054441Y0178065D01*
X0053806Y0177025D01*
X0053198Y0175971D01*
X0052615Y0174902D01*
X0052058Y0173819D01*
X0051528Y0172723D01*
X0051024Y0171614D01*
X0050548Y0170493D01*
X0050099Y0169362D01*
X0049678Y0168219D01*
X0049285Y0167067D01*
X0048920Y0165905D01*
X0048583Y0164735D01*
X0048275Y0163557D01*
X0047996Y0162372D01*
X0047746Y0161180D01*
X0047525Y0159982D01*
X0047333Y0158780D01*
X0047170Y0157573D01*
X0047037Y0156363D01*
X0046933Y0155150D01*
X0046859Y0153934D01*
X0046815Y0152718D01*
X0046800Y0151500D01*
D11*
X0088139Y0189000D03*
X0105461Y0189000D03*
M02*
