G75*
%MOIN*%
%OFA0B0*%
%FSLAX25Y25*%
%IPPOS*%
%LPD*%
%AMOC8*
5,1,8,0,0,1.08239X$1,22.5*
%
%ADD10C,0.00400*%
%ADD11R,0.00138X0.00276*%
%ADD12R,0.00138X0.00827*%
%ADD13R,0.00138X0.01378*%
%ADD14R,0.00138X0.01929*%
%ADD15R,0.00138X0.02480*%
%ADD16R,0.00138X0.03031*%
%ADD17R,0.00138X0.03583*%
%ADD18R,0.00138X0.04134*%
%ADD19R,0.00138X0.04685*%
%ADD20R,0.00138X0.05236*%
%ADD21R,0.00138X0.05787*%
%ADD22R,0.00138X0.06339*%
%ADD23R,0.00138X0.06890*%
%ADD24R,0.00138X0.07441*%
%ADD25R,0.00138X0.07992*%
%ADD26R,0.00138X0.08543*%
%ADD27R,0.00138X0.09094*%
%ADD28R,0.00138X0.09646*%
%ADD29R,0.00138X0.10197*%
%ADD30R,0.00138X0.10886*%
%ADD31R,0.00138X0.11437*%
%ADD32R,0.00138X0.11988*%
%ADD33R,0.00138X0.12539*%
%ADD34R,0.00138X0.13091*%
%ADD35R,0.00138X0.13642*%
%ADD36R,0.00138X0.14193*%
%ADD37R,0.00138X0.14744*%
%ADD38R,0.00138X0.15295*%
%ADD39R,0.00138X0.15846*%
%ADD40R,0.00138X0.16398*%
%ADD41R,0.00138X0.16949*%
%ADD42R,0.00138X0.17500*%
%ADD43R,0.00138X0.18051*%
%ADD44R,0.00138X0.18602*%
%ADD45R,0.00138X0.19154*%
%ADD46R,0.00138X0.19705*%
%ADD47R,0.00138X0.20256*%
%ADD48R,0.00138X0.20807*%
%ADD49R,0.00138X0.21358*%
%ADD50R,0.00138X0.21909*%
%ADD51R,0.00138X0.22461*%
%ADD52R,0.00138X0.23012*%
%ADD53R,0.00138X0.23563*%
%ADD54R,0.00138X0.24114*%
%ADD55R,0.00138X0.24665*%
%ADD56R,0.00138X0.25217*%
%ADD57R,0.00138X0.25768*%
%ADD58R,0.00138X0.26319*%
%ADD59R,0.00138X0.26870*%
%ADD60R,0.00138X0.27421*%
%ADD61R,0.00138X0.27972*%
%ADD62R,0.00138X0.28524*%
%ADD63R,0.00138X0.05098*%
%ADD64R,0.00138X0.01516*%
%ADD65R,0.00138X0.03720*%
%ADD66R,0.00138X0.06063*%
%ADD67R,0.00138X0.04823*%
%ADD68R,0.00138X0.03445*%
%ADD69R,0.00138X0.03307*%
%ADD70R,0.00138X0.06614*%
%ADD71R,0.00138X0.01654*%
%ADD72R,0.00138X0.07165*%
%ADD73R,0.00138X0.02894*%
%ADD74R,0.00138X0.07717*%
%ADD75R,0.00138X0.04961*%
%ADD76R,0.00138X0.01791*%
%ADD77R,0.00138X0.02756*%
%ADD78R,0.00138X0.08268*%
%ADD79R,0.00138X0.03996*%
%ADD80R,0.00138X0.02618*%
%ADD81R,0.00138X0.05374*%
%ADD82R,0.00138X0.04409*%
%ADD83R,0.00138X0.00138*%
%ADD84R,0.00138X0.08819*%
%ADD85R,0.00138X0.05512*%
%ADD86R,0.00138X0.05650*%
%ADD87R,0.00138X0.02343*%
%ADD88R,0.00138X0.00413*%
%ADD89R,0.00138X0.09370*%
%ADD90R,0.00138X0.00551*%
%ADD91R,0.00138X0.00689*%
%ADD92R,0.00138X0.01240*%
%ADD93R,0.00138X0.00965*%
%ADD94R,0.00138X0.01102*%
%ADD95R,0.00138X0.05925*%
%ADD96R,0.00138X0.02067*%
%ADD97R,0.00138X0.02205*%
%ADD98R,0.00138X0.09921*%
%ADD99R,0.00138X0.06201*%
%ADD100R,0.00138X0.09783*%
%ADD101R,0.00138X0.06476*%
%ADD102R,0.00138X0.06752*%
%ADD103R,0.00138X0.09508*%
%ADD104R,0.00138X0.07579*%
%ADD105R,0.00138X0.07854*%
%ADD106R,0.00138X0.09232*%
%ADD107R,0.00138X0.07028*%
%ADD108R,0.00138X0.08957*%
%ADD109R,0.00138X0.07303*%
%ADD110R,0.00138X0.03858*%
%ADD111R,0.00138X0.10059*%
%ADD112R,0.00138X0.10335*%
%ADD113R,0.00138X0.03169*%
%ADD114R,0.00138X0.10610*%
%ADD115R,0.00138X0.04547*%
%ADD116R,0.00138X0.04272*%
%ADD117R,0.00138X0.18878*%
%ADD118R,0.00138X0.18740*%
%ADD119R,0.00138X0.18465*%
%ADD120R,0.00138X0.18327*%
%ADD121R,0.00138X0.18189*%
%ADD122R,0.00138X0.17913*%
%ADD123R,0.00138X0.17638*%
%ADD124R,0.00138X0.17224*%
%ADD125R,0.00138X0.16673*%
%ADD126R,0.00138X0.08681*%
%ADD127R,0.00138X0.16122*%
%ADD128R,0.00138X0.08406*%
%ADD129R,0.00138X0.28248*%
%ADD130R,0.00138X0.27697*%
%ADD131R,0.00138X0.27146*%
%ADD132R,0.00138X0.26594*%
%ADD133R,0.00138X0.26043*%
%ADD134R,0.00138X0.25492*%
%ADD135R,0.00138X0.24941*%
%ADD136R,0.00138X0.24390*%
%ADD137R,0.00138X0.23839*%
%ADD138R,0.00138X0.23287*%
%ADD139R,0.00138X0.22736*%
%ADD140R,0.00138X0.22185*%
%ADD141R,0.00138X0.21634*%
%ADD142R,0.00138X0.21083*%
%ADD143R,0.00138X0.20531*%
%ADD144R,0.00138X0.19980*%
%ADD145R,0.00138X0.19429*%
%ADD146R,0.00138X0.17776*%
%ADD147R,0.00138X0.15571*%
%ADD148R,0.00138X0.15020*%
%ADD149R,0.00138X0.14606*%
%ADD150R,0.00138X0.14055*%
%ADD151R,0.00138X0.13504*%
%ADD152R,0.00138X0.12953*%
%ADD153R,0.00138X0.12402*%
%ADD154R,0.00138X0.11850*%
%ADD155R,0.00138X0.11299*%
%ADD156R,0.00138X0.10748*%
%ADD157R,0.00118X0.00039*%
%ADD158R,0.00276X0.00039*%
%ADD159R,0.00394X0.00039*%
%ADD160R,0.00354X0.00039*%
%ADD161R,0.00472X0.00039*%
%ADD162R,0.00551X0.00039*%
%ADD163R,0.00669X0.00039*%
%ADD164R,0.00748X0.00039*%
%ADD165R,0.00866X0.00039*%
%ADD166R,0.00945X0.00039*%
%ADD167R,0.01063X0.00039*%
%ADD168R,0.01142X0.00039*%
%ADD169R,0.01260X0.00039*%
%ADD170R,0.01220X0.00039*%
%ADD171R,0.01339X0.00039*%
%ADD172R,0.01457X0.00039*%
%ADD173R,0.01417X0.00039*%
%ADD174R,0.01535X0.00039*%
%ADD175R,0.01654X0.00039*%
%ADD176R,0.01614X0.00039*%
%ADD177R,0.01732X0.00039*%
%ADD178R,0.01811X0.00039*%
%ADD179R,0.01929X0.00039*%
%ADD180R,0.02008X0.00039*%
%ADD181R,0.02126X0.00039*%
%ADD182R,0.02205X0.00039*%
%ADD183R,0.02323X0.00039*%
%ADD184R,0.02283X0.00039*%
%ADD185R,0.02402X0.00039*%
%ADD186R,0.02520X0.00039*%
%ADD187R,0.02480X0.00039*%
%ADD188R,0.02598X0.00039*%
%ADD189R,0.02717X0.00039*%
%ADD190R,0.02677X0.00039*%
%ADD191R,0.02795X0.00039*%
%ADD192R,0.00197X0.00039*%
%ADD193R,0.02874X0.00039*%
%ADD194R,0.00315X0.00039*%
%ADD195R,0.02992X0.00039*%
%ADD196R,0.03071X0.00039*%
%ADD197R,0.00512X0.00039*%
%ADD198R,0.03189X0.00039*%
%ADD199R,0.03268X0.00039*%
%ADD200R,0.00630X0.00039*%
%ADD201R,0.03386X0.00039*%
%ADD202R,0.03346X0.00039*%
%ADD203R,0.03465X0.00039*%
%ADD204R,0.00827X0.00039*%
%ADD205R,0.03583X0.00039*%
%ADD206R,0.03543X0.00039*%
%ADD207R,0.03661X0.00039*%
%ADD208R,0.01024X0.00039*%
%ADD209R,0.03780X0.00039*%
%ADD210R,0.01102X0.00039*%
%ADD211R,0.03740X0.00039*%
%ADD212R,0.03858X0.00039*%
%ADD213R,0.01181X0.00039*%
%ADD214R,0.03937X0.00039*%
%ADD215R,0.01299X0.00039*%
%ADD216R,0.04055X0.00039*%
%ADD217R,0.01378X0.00039*%
%ADD218R,0.05669X0.00039*%
%ADD219R,0.05748X0.00039*%
%ADD220R,0.05787X0.00039*%
%ADD221R,0.05866X0.00039*%
%ADD222R,0.05827X0.00039*%
%ADD223R,0.05906X0.00039*%
%ADD224R,0.05945X0.00039*%
%ADD225R,0.06024X0.00039*%
%ADD226R,0.06063X0.00039*%
%ADD227R,0.06142X0.00039*%
%ADD228R,0.06102X0.00039*%
%ADD229R,0.06181X0.00039*%
%ADD230R,0.06260X0.00039*%
%ADD231R,0.06220X0.00039*%
%ADD232R,0.06299X0.00039*%
%ADD233R,0.06339X0.00039*%
%ADD234R,0.06417X0.00039*%
%ADD235R,0.06457X0.00039*%
%ADD236R,0.06496X0.00039*%
%ADD237R,0.06535X0.00039*%
%ADD238R,0.06378X0.00039*%
%ADD239R,0.05984X0.00039*%
%ADD240R,0.06575X0.00039*%
%ADD241R,0.06614X0.00039*%
%ADD242R,0.06654X0.00039*%
%ADD243R,0.06693X0.00039*%
%ADD244R,0.06732X0.00039*%
%ADD245R,0.06772X0.00039*%
%ADD246R,0.06811X0.00039*%
%ADD247R,0.06850X0.00039*%
%ADD248R,0.06890X0.00039*%
%ADD249R,0.06929X0.00039*%
%ADD250R,0.06969X0.00039*%
%ADD251R,0.07008X0.00039*%
%ADD252R,0.07047X0.00039*%
%ADD253R,0.07205X0.00039*%
%ADD254R,0.07402X0.00039*%
%ADD255R,0.07362X0.00039*%
%ADD256R,0.07559X0.00039*%
%ADD257R,0.07598X0.00039*%
%ADD258R,0.07756X0.00039*%
%ADD259R,0.07953X0.00039*%
%ADD260R,0.07913X0.00039*%
%ADD261R,0.08150X0.00039*%
%ADD262R,0.08307X0.00039*%
%ADD263R,0.08504X0.00039*%
%ADD264R,0.08701X0.00039*%
%ADD265R,0.08780X0.00039*%
%ADD266R,0.08819X0.00039*%
%ADD267R,0.08740X0.00039*%
%ADD268R,0.08661X0.00039*%
%ADD269R,0.08622X0.00039*%
%ADD270R,0.08583X0.00039*%
%ADD271R,0.08543X0.00039*%
%ADD272R,0.08465X0.00039*%
%ADD273R,0.08425X0.00039*%
%ADD274R,0.08858X0.00039*%
%ADD275R,0.08386X0.00039*%
%ADD276R,0.08346X0.00039*%
%ADD277R,0.08189X0.00039*%
%ADD278R,0.07992X0.00039*%
%ADD279R,0.08031X0.00039*%
%ADD280R,0.07835X0.00039*%
%ADD281R,0.07795X0.00039*%
%ADD282R,0.07638X0.00039*%
%ADD283R,0.07441X0.00039*%
%ADD284R,0.07480X0.00039*%
%ADD285R,0.07283X0.00039*%
%ADD286R,0.07126X0.00039*%
%ADD287R,0.07087X0.00039*%
%ADD288R,0.07244X0.00039*%
%ADD289R,0.07323X0.00039*%
%ADD290R,0.07677X0.00039*%
%ADD291R,0.16260X0.00039*%
%ADD292R,0.16220X0.00039*%
%ADD293R,0.16181X0.00039*%
%ADD294R,0.16142X0.00039*%
%ADD295R,0.16102X0.00039*%
%ADD296R,0.16024X0.00039*%
%ADD297R,0.15984X0.00039*%
%ADD298R,0.15945X0.00039*%
%ADD299R,0.15906X0.00039*%
%ADD300R,0.15866X0.00039*%
%ADD301R,0.15787X0.00039*%
%ADD302R,0.15748X0.00039*%
%ADD303R,0.15709X0.00039*%
%ADD304R,0.15669X0.00039*%
%ADD305R,0.15630X0.00039*%
%ADD306R,0.15551X0.00039*%
%ADD307R,0.15512X0.00039*%
%ADD308R,0.15472X0.00039*%
%ADD309R,0.15433X0.00039*%
%ADD310R,0.15394X0.00039*%
%ADD311R,0.15315X0.00039*%
%ADD312R,0.15276X0.00039*%
%ADD313R,0.15236X0.00039*%
%ADD314R,0.15591X0.00039*%
%ADD315R,0.16063X0.00039*%
%ADD316R,0.16339X0.00039*%
%ADD317R,0.16417X0.00039*%
%ADD318R,0.16457X0.00039*%
%ADD319R,0.16496X0.00039*%
%ADD320R,0.16575X0.00039*%
%ADD321R,0.16614X0.00039*%
%ADD322R,0.16654X0.00039*%
%ADD323R,0.16732X0.00039*%
%ADD324R,0.16772X0.00039*%
%ADD325R,0.16811X0.00039*%
%ADD326R,0.16890X0.00039*%
%ADD327R,0.16929X0.00039*%
%ADD328R,0.16969X0.00039*%
%ADD329R,0.17047X0.00039*%
%ADD330R,0.17126X0.00039*%
%ADD331R,0.17205X0.00039*%
%ADD332R,0.17283X0.00039*%
%ADD333R,0.17323X0.00039*%
%ADD334R,0.17362X0.00039*%
%ADD335R,0.17441X0.00039*%
%ADD336R,0.17480X0.00039*%
%ADD337R,0.17520X0.00039*%
%ADD338R,0.17598X0.00039*%
%ADD339R,0.17638X0.00039*%
%ADD340R,0.17677X0.00039*%
%ADD341R,0.17756X0.00039*%
%ADD342R,0.17795X0.00039*%
%ADD343R,0.17835X0.00039*%
%ADD344R,0.17913X0.00039*%
%ADD345R,0.17992X0.00039*%
%ADD346R,0.18071X0.00039*%
%ADD347R,0.18150X0.00039*%
%ADD348R,0.18189X0.00039*%
%ADD349R,0.18228X0.00039*%
%ADD350R,0.18307X0.00039*%
%ADD351R,0.18346X0.00039*%
%ADD352R,0.18386X0.00039*%
%ADD353R,0.18465X0.00039*%
%ADD354R,0.18504X0.00039*%
%ADD355R,0.18543X0.00039*%
%ADD356R,0.18622X0.00039*%
%ADD357R,0.18661X0.00039*%
%ADD358R,0.18701X0.00039*%
%ADD359R,0.04488X0.00039*%
%ADD360R,0.04449X0.00039*%
%ADD361R,0.04370X0.00039*%
%ADD362R,0.04331X0.00039*%
%ADD363R,0.04252X0.00039*%
%ADD364R,0.04173X0.00039*%
%ADD365R,0.04134X0.00039*%
%ADD366R,0.03976X0.00039*%
%ADD367R,0.07520X0.00039*%
%ADD368R,0.07165X0.00039*%
%ADD369R,0.03504X0.00039*%
%ADD370R,0.03307X0.00039*%
%ADD371R,0.03110X0.00039*%
%ADD372R,0.02913X0.00039*%
%ADD373R,0.05630X0.00039*%
%ADD374R,0.05433X0.00039*%
%ADD375R,0.05236X0.00039*%
%ADD376R,0.05039X0.00039*%
%ADD377R,0.04843X0.00039*%
%ADD378R,0.02441X0.00039*%
%ADD379R,0.04685X0.00039*%
%ADD380R,0.04528X0.00039*%
%ADD381R,0.02244X0.00039*%
%ADD382R,0.02047X0.00039*%
%ADD383R,0.01850X0.00039*%
%ADD384R,0.04291X0.00039*%
%ADD385R,0.00984X0.00039*%
%ADD386R,0.04213X0.00039*%
%ADD387R,0.00787X0.00039*%
%ADD388R,0.00591X0.00039*%
%ADD389R,0.04094X0.00039*%
%ADD390R,0.04016X0.00039*%
%ADD391R,0.03898X0.00039*%
%ADD392R,0.03819X0.00039*%
%ADD393R,0.03701X0.00039*%
%ADD394R,0.03622X0.00039*%
%ADD395R,0.03425X0.00039*%
%ADD396R,0.03228X0.00039*%
%ADD397C,0.01000*%
%ADD398R,0.00118X0.00118*%
%ADD399R,0.00709X0.00118*%
%ADD400R,0.00945X0.00118*%
%ADD401R,0.01181X0.00118*%
%ADD402R,0.01299X0.00118*%
%ADD403R,0.01535X0.00118*%
%ADD404R,0.01417X0.00118*%
%ADD405R,0.02008X0.00118*%
%ADD406R,0.02362X0.00118*%
%ADD407R,0.02480X0.00118*%
%ADD408R,0.02835X0.00118*%
%ADD409R,0.03189X0.00118*%
%ADD410R,0.03543X0.00118*%
%ADD411R,0.03425X0.00118*%
%ADD412R,0.03780X0.00118*%
%ADD413R,0.04016X0.00118*%
%ADD414R,0.03661X0.00118*%
%ADD415R,0.04252X0.00118*%
%ADD416R,0.01772X0.00118*%
%ADD417R,0.01654X0.00118*%
%ADD418R,0.00354X0.00118*%
%ADD419R,0.00472X0.00118*%
%ADD420R,0.00236X0.00118*%
%ADD421R,0.00591X0.00118*%
%ADD422R,0.00827X0.00118*%
%ADD423R,0.01063X0.00118*%
%ADD424R,0.02244X0.00118*%
%ADD425R,0.01890X0.00118*%
%ADD426R,0.04134X0.00118*%
%ADD427R,0.02126X0.00118*%
%ADD428R,0.03898X0.00118*%
%ADD429R,0.02598X0.00118*%
%ADD430R,0.02953X0.00118*%
%ADD431R,0.03071X0.00118*%
%ADD432R,0.02717X0.00118*%
%ADD433R,0.04370X0.00118*%
%ADD434R,0.04606X0.00118*%
%ADD435R,0.04724X0.00118*%
%ADD436R,0.04843X0.00118*%
%ADD437R,0.04961X0.00118*%
%ADD438R,0.05079X0.00118*%
%ADD439R,0.05197X0.00118*%
%ADD440R,0.05315X0.00118*%
%ADD441R,0.03307X0.00118*%
%ADD442R,0.05433X0.00118*%
%ADD443R,0.05551X0.00118*%
%ADD444R,0.05669X0.00118*%
%ADD445R,0.05787X0.00118*%
%ADD446R,0.05906X0.00118*%
%ADD447R,0.04488X0.00118*%
%ADD448R,0.06142X0.00118*%
%ADD449R,0.06260X0.00118*%
%ADD450R,0.08386X0.00118*%
%ADD451R,0.08504X0.00118*%
%ADD452R,0.08268X0.00118*%
%ADD453R,0.08150X0.00118*%
%ADD454R,0.08031X0.00118*%
%ADD455R,0.07913X0.00118*%
%ADD456R,0.07795X0.00118*%
%ADD457R,0.07677X0.00118*%
%ADD458R,0.07559X0.00118*%
%ADD459R,0.07441X0.00118*%
%ADD460R,0.07205X0.00118*%
%ADD461R,0.07087X0.00118*%
%ADD462R,0.06969X0.00118*%
%ADD463R,0.06024X0.00118*%
%ADD464R,0.06496X0.00118*%
%ADD465R,0.06732X0.00118*%
%ADD466R,0.07323X0.00118*%
%ADD467R,0.10866X0.00118*%
%ADD468R,0.10630X0.00118*%
%ADD469R,0.10394X0.00118*%
%ADD470R,0.10157X0.00118*%
%ADD471R,0.09803X0.00118*%
%ADD472R,0.09449X0.00118*%
%ADD473R,0.09094X0.00118*%
%ADD474C,0.01600*%
%ADD475C,0.00500*%
%ADD476C,0.00800*%
D10*
X0057056Y0063818D02*
X0060126Y0063818D01*
X0060126Y0064585D02*
X0059358Y0065352D01*
X0057824Y0065352D01*
X0057056Y0064585D01*
X0057056Y0063818D01*
X0057824Y0062283D02*
X0059358Y0062283D01*
X0060126Y0063050D01*
X0060126Y0064585D01*
X0061660Y0064585D02*
X0061660Y0062283D01*
X0061660Y0060154D02*
X0061660Y0057085D01*
X0061660Y0055550D02*
X0061660Y0054783D01*
X0063195Y0054783D02*
X0065497Y0054783D01*
X0066264Y0055550D01*
X0065497Y0056318D01*
X0063195Y0056318D01*
X0063195Y0057085D02*
X0063195Y0054783D01*
X0063195Y0057085D02*
X0063962Y0057852D01*
X0065497Y0057852D01*
X0067799Y0057085D02*
X0067799Y0054783D01*
X0069333Y0054783D02*
X0069333Y0057085D01*
X0068566Y0057852D01*
X0067799Y0057085D01*
X0069333Y0057085D02*
X0070101Y0057852D01*
X0070868Y0057852D01*
X0070868Y0054783D01*
X0072403Y0055550D02*
X0072403Y0057085D01*
X0073170Y0057852D01*
X0074705Y0057852D01*
X0075472Y0057085D01*
X0075472Y0055550D01*
X0074705Y0054783D01*
X0073170Y0054783D01*
X0072403Y0055550D01*
X0077007Y0054783D02*
X0079309Y0054783D01*
X0080076Y0055550D01*
X0080076Y0057085D01*
X0079309Y0057852D01*
X0077007Y0057852D01*
X0077007Y0054016D01*
X0077774Y0053248D01*
X0078541Y0053248D01*
X0081611Y0054783D02*
X0081611Y0057085D01*
X0082378Y0057852D01*
X0083913Y0057852D01*
X0083913Y0056318D02*
X0081611Y0056318D01*
X0081611Y0054783D02*
X0083913Y0054783D01*
X0084680Y0055550D01*
X0083913Y0056318D01*
X0086214Y0055550D02*
X0086982Y0056318D01*
X0088516Y0056318D01*
X0089284Y0057085D01*
X0088516Y0057852D01*
X0086214Y0057852D01*
X0086214Y0055550D02*
X0086982Y0054783D01*
X0089284Y0054783D01*
X0095422Y0054783D02*
X0097724Y0054783D01*
X0098492Y0055550D01*
X0097724Y0056318D01*
X0095422Y0056318D01*
X0095422Y0057085D02*
X0095422Y0054783D01*
X0095422Y0057085D02*
X0096190Y0057852D01*
X0097724Y0057852D01*
X0100794Y0059387D02*
X0100794Y0054783D01*
X0101561Y0054783D02*
X0100026Y0054783D01*
X0103096Y0054783D02*
X0104630Y0054783D01*
X0103863Y0054783D02*
X0103863Y0059387D01*
X0104630Y0059387D01*
X0106165Y0057085D02*
X0106165Y0054783D01*
X0108467Y0054783D01*
X0109234Y0055550D01*
X0108467Y0056318D01*
X0106165Y0056318D01*
X0106165Y0057085D02*
X0106932Y0057852D01*
X0108467Y0057852D01*
X0108467Y0062283D02*
X0106165Y0062283D01*
X0106165Y0064585D01*
X0106932Y0065352D01*
X0108467Y0065352D01*
X0108467Y0063818D02*
X0106165Y0063818D01*
X0104630Y0065352D02*
X0103863Y0065352D01*
X0103863Y0062283D01*
X0104630Y0062283D02*
X0103096Y0062283D01*
X0101561Y0059387D02*
X0100794Y0059387D01*
X0096957Y0063050D02*
X0096190Y0063818D01*
X0093888Y0063818D01*
X0093888Y0064585D02*
X0093888Y0062283D01*
X0096190Y0062283D01*
X0096957Y0063050D01*
X0096190Y0065352D02*
X0094655Y0065352D01*
X0093888Y0064585D01*
X0092353Y0065352D02*
X0090818Y0065352D01*
X0091586Y0066120D02*
X0091586Y0063050D01*
X0090818Y0062283D01*
X0088516Y0063050D02*
X0087749Y0062283D01*
X0088516Y0063050D02*
X0088516Y0066120D01*
X0087749Y0065352D02*
X0089284Y0065352D01*
X0086214Y0064585D02*
X0086214Y0063050D01*
X0085447Y0062283D01*
X0083913Y0062283D01*
X0083145Y0063818D02*
X0086214Y0063818D01*
X0086214Y0064585D02*
X0085447Y0065352D01*
X0083913Y0065352D01*
X0083145Y0064585D01*
X0083145Y0063818D01*
X0081611Y0065352D02*
X0081611Y0062283D01*
X0081611Y0065352D02*
X0079309Y0065352D01*
X0078541Y0064585D01*
X0078541Y0062283D01*
X0077007Y0062283D02*
X0073937Y0062283D01*
X0072403Y0062283D02*
X0070868Y0062283D01*
X0071635Y0062283D02*
X0071635Y0065352D01*
X0072403Y0065352D01*
X0073937Y0065352D02*
X0077007Y0062283D01*
X0077007Y0065352D02*
X0073937Y0065352D01*
X0071635Y0066887D02*
X0071635Y0067654D01*
X0071252Y0069783D02*
X0069717Y0069783D01*
X0070484Y0069783D02*
X0070484Y0074387D01*
X0071252Y0074387D01*
X0071635Y0077283D02*
X0070101Y0077283D01*
X0069333Y0078050D01*
X0069333Y0079585D01*
X0070101Y0080352D01*
X0071635Y0080352D01*
X0072403Y0079585D01*
X0072403Y0078050D01*
X0071635Y0077283D01*
X0073937Y0078050D02*
X0074705Y0077283D01*
X0077007Y0077283D01*
X0078541Y0077283D02*
X0078541Y0079585D01*
X0079309Y0080352D01*
X0080076Y0079585D01*
X0080076Y0077283D01*
X0081611Y0077283D02*
X0081611Y0080352D01*
X0080843Y0080352D01*
X0080076Y0079585D01*
X0083145Y0079585D02*
X0083145Y0078050D01*
X0083913Y0077283D01*
X0085447Y0077283D01*
X0086215Y0078050D01*
X0086215Y0079585D01*
X0085447Y0080352D01*
X0083913Y0080352D01*
X0083145Y0079585D01*
X0082378Y0084783D02*
X0080076Y0084783D01*
X0080076Y0087085D01*
X0080843Y0087852D01*
X0082378Y0087852D01*
X0082378Y0086318D02*
X0080076Y0086318D01*
X0078541Y0087852D02*
X0077007Y0087852D01*
X0077774Y0088620D02*
X0077774Y0085550D01*
X0077007Y0084783D01*
X0074705Y0085550D02*
X0074705Y0088620D01*
X0075472Y0087852D02*
X0073937Y0087852D01*
X0072403Y0087085D02*
X0071635Y0087852D01*
X0070101Y0087852D01*
X0069333Y0087085D01*
X0069333Y0086318D01*
X0072403Y0086318D01*
X0072403Y0087085D02*
X0072403Y0085550D01*
X0071635Y0084783D01*
X0070101Y0084783D01*
X0067799Y0084783D02*
X0067799Y0087852D01*
X0067799Y0086318D02*
X0066264Y0087852D01*
X0065497Y0087852D01*
X0063962Y0087852D02*
X0063195Y0087852D01*
X0063195Y0084783D01*
X0063962Y0084783D02*
X0062428Y0084783D01*
X0060893Y0085550D02*
X0060126Y0086318D01*
X0057824Y0086318D01*
X0057824Y0087085D02*
X0057824Y0084783D01*
X0060126Y0084783D01*
X0060893Y0085550D01*
X0060126Y0087852D02*
X0058591Y0087852D01*
X0057824Y0087085D01*
X0063195Y0089387D02*
X0063195Y0090154D01*
X0062428Y0080352D02*
X0060893Y0080352D01*
X0060126Y0079585D01*
X0060126Y0078818D01*
X0063195Y0078818D01*
X0063195Y0079585D02*
X0063195Y0078050D01*
X0062428Y0077283D01*
X0060893Y0077283D01*
X0058591Y0077283D02*
X0058591Y0080352D01*
X0056289Y0080352D01*
X0055522Y0079585D01*
X0055522Y0077283D01*
X0053220Y0078050D02*
X0052452Y0077283D01*
X0053220Y0078050D02*
X0053220Y0081120D01*
X0053987Y0080352D02*
X0052452Y0080352D01*
X0050918Y0080352D02*
X0050150Y0080352D01*
X0050150Y0077283D01*
X0049383Y0077283D02*
X0050918Y0077283D01*
X0050150Y0081887D02*
X0050150Y0082654D01*
X0058207Y0072852D02*
X0057440Y0072085D01*
X0057440Y0070550D01*
X0058207Y0069783D01*
X0059742Y0069783D01*
X0060509Y0070550D01*
X0060509Y0072085D01*
X0059742Y0072852D01*
X0058207Y0072852D01*
X0055905Y0070550D02*
X0055138Y0070550D01*
X0055138Y0069783D01*
X0055905Y0069783D01*
X0055905Y0070550D01*
X0062044Y0069783D02*
X0062811Y0070550D01*
X0062811Y0073620D01*
X0062044Y0072852D02*
X0063579Y0072852D01*
X0065113Y0072085D02*
X0065113Y0069783D01*
X0067415Y0069783D01*
X0068182Y0070550D01*
X0067415Y0071318D01*
X0065113Y0071318D01*
X0065113Y0072085D02*
X0065880Y0072852D01*
X0067415Y0072852D01*
X0067799Y0077283D02*
X0067799Y0080352D01*
X0065497Y0080352D01*
X0064730Y0079585D01*
X0064730Y0077283D01*
X0063195Y0079585D02*
X0062428Y0080352D01*
X0073937Y0079585D02*
X0073937Y0078050D01*
X0073937Y0079585D02*
X0074705Y0080352D01*
X0077007Y0080352D01*
X0077007Y0075748D01*
X0078158Y0072852D02*
X0077390Y0072085D01*
X0077390Y0070550D01*
X0078158Y0069783D01*
X0079692Y0069783D01*
X0080460Y0070550D01*
X0080460Y0072085D01*
X0079692Y0072852D01*
X0078158Y0072852D01*
X0081994Y0072852D02*
X0083529Y0072852D01*
X0082762Y0073620D02*
X0082762Y0070550D01*
X0081994Y0069783D01*
X0085064Y0070550D02*
X0085831Y0071318D01*
X0087365Y0071318D01*
X0088133Y0072085D01*
X0087365Y0072852D01*
X0085064Y0072852D01*
X0085064Y0070550D02*
X0085831Y0069783D01*
X0088133Y0069783D01*
X0089667Y0071318D02*
X0092737Y0071318D01*
X0092737Y0072085D02*
X0091969Y0072852D01*
X0090435Y0072852D01*
X0089667Y0072085D01*
X0089667Y0071318D01*
X0090435Y0069783D02*
X0091969Y0069783D01*
X0092737Y0070550D01*
X0092737Y0072085D01*
X0094271Y0072852D02*
X0094271Y0069783D01*
X0096573Y0069783D01*
X0097341Y0070550D01*
X0097341Y0072852D01*
X0098875Y0072852D02*
X0101177Y0072852D01*
X0101945Y0072085D01*
X0101945Y0070550D01*
X0101177Y0069783D01*
X0098875Y0069783D01*
X0098875Y0068248D02*
X0098875Y0072852D01*
X0098492Y0077283D02*
X0096957Y0077283D01*
X0097724Y0077283D02*
X0097724Y0080352D01*
X0098492Y0080352D01*
X0097724Y0081887D02*
X0097724Y0082654D01*
X0098492Y0084783D02*
X0099259Y0085550D01*
X0099259Y0088620D01*
X0100026Y0087852D02*
X0098492Y0087852D01*
X0096190Y0087852D02*
X0094655Y0087852D01*
X0093888Y0087085D01*
X0093888Y0084783D01*
X0096190Y0084783D01*
X0096957Y0085550D01*
X0096190Y0086318D01*
X0093888Y0086318D01*
X0092353Y0087085D02*
X0089284Y0087085D01*
X0087749Y0087852D02*
X0085447Y0087852D01*
X0084680Y0087085D01*
X0084680Y0085550D01*
X0085447Y0084783D01*
X0087749Y0084783D01*
X0087749Y0089387D01*
X0083145Y0085550D02*
X0082378Y0084783D01*
X0083145Y0085550D02*
X0082378Y0086318D01*
X0087749Y0080352D02*
X0090051Y0080352D01*
X0090818Y0079585D01*
X0090818Y0078050D01*
X0090051Y0077283D01*
X0087749Y0077283D01*
X0074705Y0085550D02*
X0073937Y0084783D01*
X0068566Y0065352D02*
X0067031Y0065352D01*
X0066264Y0064585D01*
X0066264Y0063050D01*
X0067031Y0062283D01*
X0068566Y0062283D01*
X0069333Y0063050D01*
X0069333Y0064585D01*
X0068566Y0065352D01*
X0064730Y0065352D02*
X0064730Y0062283D01*
X0064730Y0065352D02*
X0062428Y0065352D01*
X0061660Y0064585D01*
X0101561Y0087852D02*
X0102328Y0087852D01*
X0103863Y0086318D01*
X0103863Y0087852D02*
X0103863Y0084783D01*
X0105398Y0085550D02*
X0105398Y0087085D01*
X0106165Y0087852D01*
X0107699Y0087852D01*
X0108467Y0087085D01*
X0108467Y0085550D01*
X0107699Y0084783D01*
X0106165Y0084783D01*
X0105398Y0085550D01*
X0105398Y0082654D02*
X0105398Y0081887D01*
X0105398Y0080352D02*
X0105398Y0077283D01*
X0106165Y0077283D02*
X0104630Y0077283D01*
X0107699Y0077283D02*
X0108467Y0078050D01*
X0108467Y0081120D01*
X0109234Y0080352D02*
X0107699Y0080352D01*
X0106165Y0080352D02*
X0105398Y0080352D01*
X0110769Y0080352D02*
X0112303Y0080352D01*
X0111536Y0081120D02*
X0111536Y0078050D01*
X0110769Y0077283D01*
X0113838Y0077283D02*
X0113838Y0080352D01*
X0116907Y0080352D02*
X0116907Y0078050D01*
X0116140Y0077283D01*
X0113838Y0077283D01*
X0114989Y0072852D02*
X0112687Y0072852D01*
X0111152Y0072852D02*
X0111152Y0070550D01*
X0110385Y0069783D01*
X0108083Y0069783D01*
X0108083Y0072852D01*
X0103863Y0067654D02*
X0103863Y0066887D01*
X0108467Y0063818D02*
X0109234Y0063050D01*
X0108467Y0062283D01*
X0110769Y0066887D02*
X0113838Y0066887D01*
X0113838Y0062283D01*
X0113838Y0064585D02*
X0112303Y0064585D01*
X0113454Y0069783D02*
X0112687Y0070550D01*
X0113454Y0071318D01*
X0114989Y0071318D01*
X0115756Y0072085D01*
X0114989Y0072852D01*
X0115756Y0069783D02*
X0113454Y0069783D01*
X0119977Y0077283D02*
X0119977Y0081887D01*
X0121511Y0081887D02*
X0118442Y0081887D01*
X0113071Y0084783D02*
X0113071Y0089387D01*
X0110769Y0089387D01*
X0110001Y0088620D01*
X0110001Y0087085D01*
X0110769Y0086318D01*
X0113071Y0086318D01*
X0140854Y0057680D02*
X0139226Y0056053D01*
X0139226Y0054968D01*
X0140854Y0053340D01*
X0138683Y0052255D02*
X0138683Y0051169D01*
X0138683Y0052255D02*
X0136513Y0054425D01*
X0137598Y0054425D02*
X0136513Y0053340D01*
X0135970Y0051712D02*
X0134885Y0051712D01*
X0133800Y0050627D01*
X0133800Y0049542D01*
X0134343Y0048999D01*
X0136513Y0051169D01*
X0137056Y0050627D02*
X0135970Y0051712D01*
X0137056Y0050627D02*
X0137056Y0049542D01*
X0135970Y0048457D01*
X0134343Y0046829D02*
X0132172Y0048999D01*
X0131087Y0047914D02*
X0130545Y0047371D01*
X0131087Y0047914D02*
X0133258Y0047914D01*
X0130545Y0045201D02*
X0128374Y0045201D01*
X0127832Y0044659D01*
X0126747Y0043573D02*
X0128374Y0041946D01*
X0128374Y0040860D01*
X0126747Y0039233D01*
X0124576Y0041403D01*
X0123491Y0040318D02*
X0122406Y0039233D01*
X0122406Y0040318D02*
X0124576Y0038148D01*
X0124576Y0037062D01*
X0122406Y0035977D02*
X0122406Y0034892D01*
X0122406Y0035977D02*
X0120236Y0038148D01*
X0121321Y0038148D02*
X0120236Y0037062D01*
X0119693Y0035435D02*
X0118608Y0035435D01*
X0117523Y0034350D01*
X0117523Y0033264D01*
X0118608Y0032179D01*
X0119693Y0032179D01*
X0120778Y0033264D01*
X0120778Y0034350D01*
X0119693Y0035435D01*
X0115895Y0032722D02*
X0118065Y0030551D01*
X0116980Y0031637D02*
X0114810Y0031637D01*
X0114267Y0031094D01*
X0113725Y0029466D02*
X0112640Y0029466D01*
X0111555Y0028381D01*
X0111555Y0027296D01*
X0112097Y0026753D01*
X0114267Y0028924D01*
X0113725Y0029466D02*
X0114810Y0028381D01*
X0114810Y0027296D01*
X0113725Y0026211D01*
X0131630Y0044116D02*
X0129460Y0046286D01*
X0140854Y0057680D02*
X0143024Y0055510D01*
X0144109Y0056595D02*
X0145194Y0057680D01*
X0144652Y0057138D02*
X0141396Y0060393D01*
X0140854Y0059851D02*
X0141939Y0060936D01*
X0125028Y0118851D02*
X0125028Y0120385D01*
X0125028Y0119618D02*
X0120424Y0119618D01*
X0120424Y0118851D02*
X0120424Y0120385D01*
X0120424Y0121920D02*
X0123494Y0121920D01*
X0123494Y0124222D01*
X0122726Y0124989D01*
X0120424Y0124989D01*
X0121192Y0126524D02*
X0120424Y0127291D01*
X0120424Y0129593D01*
X0121192Y0131128D02*
X0120424Y0131895D01*
X0120424Y0133430D01*
X0121192Y0134197D01*
X0122726Y0134197D01*
X0123494Y0133430D01*
X0123494Y0131895D01*
X0122726Y0131128D01*
X0121192Y0131128D01*
X0123494Y0129593D02*
X0123494Y0127291D01*
X0122726Y0126524D01*
X0121192Y0126524D01*
X0115994Y0124989D02*
X0113692Y0124989D01*
X0112924Y0125757D01*
X0112924Y0128059D01*
X0115994Y0128059D01*
X0115226Y0129593D02*
X0115994Y0130361D01*
X0115994Y0131895D01*
X0115226Y0132663D01*
X0114459Y0132663D01*
X0114459Y0129593D01*
X0113692Y0129593D02*
X0115226Y0129593D01*
X0113692Y0129593D02*
X0112924Y0130361D01*
X0112924Y0131895D01*
X0112924Y0134197D02*
X0112924Y0136499D01*
X0113692Y0137267D01*
X0114459Y0136499D01*
X0114459Y0134965D01*
X0115226Y0134197D01*
X0115994Y0134965D01*
X0115994Y0137267D01*
X0115994Y0138801D02*
X0115994Y0140336D01*
X0116761Y0139568D02*
X0113692Y0139568D01*
X0112924Y0140336D01*
X0113692Y0141870D02*
X0112924Y0142638D01*
X0112924Y0144172D01*
X0113692Y0144940D01*
X0115226Y0144940D01*
X0115994Y0144172D01*
X0115994Y0142638D01*
X0115226Y0141870D01*
X0113692Y0141870D01*
X0108494Y0139185D02*
X0108494Y0137650D01*
X0107726Y0136883D01*
X0106192Y0136883D01*
X0105424Y0137650D01*
X0105424Y0139185D01*
X0106192Y0139952D01*
X0107726Y0139952D01*
X0108494Y0139185D01*
X0107726Y0135348D02*
X0106192Y0135348D01*
X0105424Y0134581D01*
X0105424Y0132279D01*
X0103890Y0132279D02*
X0108494Y0132279D01*
X0108494Y0134581D01*
X0107726Y0135348D01*
X0107726Y0130744D02*
X0106192Y0130744D01*
X0105424Y0129977D01*
X0105424Y0128442D01*
X0106192Y0127675D01*
X0107726Y0127675D01*
X0108494Y0128442D01*
X0108494Y0129977D01*
X0107726Y0130744D01*
X0108494Y0126140D02*
X0108494Y0123838D01*
X0107726Y0123071D01*
X0106192Y0123071D01*
X0105424Y0123838D01*
X0105424Y0126140D01*
X0110028Y0126140D01*
X0111390Y0123455D02*
X0115994Y0123455D01*
X0115994Y0121153D01*
X0115226Y0120385D01*
X0113692Y0120385D01*
X0112924Y0121153D01*
X0112924Y0123455D01*
X0102528Y0132663D02*
X0102528Y0133430D01*
X0097924Y0133430D01*
X0097924Y0132663D02*
X0097924Y0134197D01*
X0098692Y0135732D02*
X0100226Y0135732D01*
X0100994Y0136499D01*
X0100994Y0138801D01*
X0102528Y0138801D02*
X0097924Y0138801D01*
X0097924Y0136499D01*
X0098692Y0135732D01*
X0098692Y0140336D02*
X0099459Y0141103D01*
X0099459Y0143405D01*
X0100226Y0143405D02*
X0097924Y0143405D01*
X0097924Y0141103D01*
X0098692Y0140336D01*
X0100994Y0141103D02*
X0100994Y0142638D01*
X0100226Y0143405D01*
X0100994Y0144940D02*
X0100994Y0146474D01*
X0101761Y0145707D02*
X0098692Y0145707D01*
X0097924Y0146474D01*
X0098692Y0148009D02*
X0097924Y0148776D01*
X0097924Y0150311D01*
X0098692Y0151078D01*
X0100226Y0151078D01*
X0100994Y0150311D01*
X0100994Y0148776D01*
X0100226Y0148009D01*
X0098692Y0148009D01*
X0094261Y0148009D02*
X0091192Y0148009D01*
X0090424Y0148776D01*
X0091192Y0150311D02*
X0090424Y0151078D01*
X0090424Y0152613D01*
X0091192Y0153380D01*
X0092726Y0153380D01*
X0093494Y0152613D01*
X0093494Y0151078D01*
X0092726Y0150311D01*
X0091192Y0150311D01*
X0093494Y0148776D02*
X0093494Y0147242D01*
X0093494Y0145707D02*
X0093494Y0144172D01*
X0094261Y0144940D02*
X0091192Y0144940D01*
X0090424Y0145707D01*
X0091959Y0142638D02*
X0091959Y0139568D01*
X0092726Y0139568D02*
X0093494Y0140336D01*
X0093494Y0141870D01*
X0092726Y0142638D01*
X0091959Y0142638D01*
X0090424Y0141870D02*
X0090424Y0140336D01*
X0091192Y0139568D01*
X0092726Y0139568D01*
X0092726Y0138034D02*
X0090424Y0138034D01*
X0092726Y0138034D02*
X0093494Y0137267D01*
X0093494Y0134965D01*
X0090424Y0134965D01*
X0090424Y0133430D02*
X0092726Y0133430D01*
X0093494Y0132663D01*
X0093494Y0130361D01*
X0090424Y0130361D01*
X0091192Y0128826D02*
X0092726Y0128826D01*
X0093494Y0128059D01*
X0093494Y0126524D01*
X0092726Y0125757D01*
X0091192Y0125757D01*
X0090424Y0126524D01*
X0090424Y0128059D01*
X0091192Y0128826D01*
X0090424Y0124222D02*
X0090424Y0121920D01*
X0091192Y0121153D01*
X0092726Y0121153D01*
X0093494Y0121920D01*
X0093494Y0124222D01*
X0097924Y0123455D02*
X0097924Y0125757D01*
X0098692Y0126524D01*
X0099459Y0125757D01*
X0099459Y0124222D01*
X0100226Y0123455D01*
X0100994Y0124222D01*
X0100994Y0126524D01*
X0100994Y0128826D02*
X0100994Y0130361D01*
X0100226Y0131128D01*
X0097924Y0131128D01*
X0097924Y0128826D01*
X0098692Y0128059D01*
X0099459Y0128826D01*
X0099459Y0131128D01*
X0106192Y0146091D02*
X0106959Y0146858D01*
X0106959Y0149160D01*
X0107726Y0149160D02*
X0105424Y0149160D01*
X0105424Y0146858D01*
X0106192Y0146091D01*
X0108494Y0146858D02*
X0108494Y0148393D01*
X0107726Y0149160D01*
X0108494Y0150695D02*
X0105424Y0152229D01*
X0108494Y0153764D01*
X0107726Y0155299D02*
X0106192Y0155299D01*
X0105424Y0156066D01*
X0105424Y0157601D01*
X0106959Y0158368D02*
X0106959Y0155299D01*
X0107726Y0155299D02*
X0108494Y0156066D01*
X0108494Y0157601D01*
X0107726Y0158368D01*
X0106959Y0158368D01*
X0106959Y0159902D02*
X0108494Y0161437D01*
X0108494Y0162204D01*
X0108494Y0159902D02*
X0105424Y0159902D01*
X0103296Y0157984D02*
X0102528Y0157984D01*
X0100994Y0157984D02*
X0097924Y0157984D01*
X0097924Y0157217D02*
X0097924Y0158752D01*
X0097924Y0160286D02*
X0097924Y0161821D01*
X0097924Y0161053D02*
X0102528Y0161053D01*
X0102528Y0160286D01*
X0100994Y0157984D02*
X0100994Y0157217D01*
X0093494Y0157217D02*
X0093494Y0156450D01*
X0091959Y0154915D01*
X0090424Y0154915D02*
X0093494Y0154915D01*
X0092726Y0158752D02*
X0091192Y0158752D01*
X0090424Y0159519D01*
X0090424Y0161053D01*
X0091959Y0161821D02*
X0091959Y0158752D01*
X0092726Y0158752D02*
X0093494Y0159519D01*
X0093494Y0161053D01*
X0092726Y0161821D01*
X0091959Y0161821D01*
X0091192Y0163355D02*
X0091192Y0164123D01*
X0090424Y0164123D01*
X0090424Y0163355D01*
X0091192Y0163355D01*
X0102205Y0171800D02*
X0102205Y0174870D01*
X0102972Y0175637D01*
X0104507Y0175637D01*
X0105274Y0174870D01*
X0105274Y0171800D01*
X0104507Y0171033D01*
X0102972Y0171033D01*
X0102205Y0171800D01*
X0106809Y0171800D02*
X0107576Y0171033D01*
X0109111Y0171033D01*
X0109878Y0171800D01*
X0111412Y0171800D02*
X0112180Y0171033D01*
X0113714Y0171033D01*
X0114482Y0171800D01*
X0116016Y0171800D02*
X0116016Y0174870D01*
X0116784Y0175637D01*
X0118318Y0175637D01*
X0119086Y0174870D01*
X0119086Y0171800D01*
X0118318Y0171033D01*
X0116784Y0171033D01*
X0116016Y0171800D01*
X0114482Y0174102D02*
X0113714Y0173335D01*
X0112180Y0173335D01*
X0111412Y0172568D01*
X0111412Y0171800D01*
X0109111Y0173335D02*
X0107576Y0173335D01*
X0106809Y0172568D01*
X0106809Y0171800D01*
X0106809Y0174870D02*
X0107576Y0175637D01*
X0109111Y0175637D01*
X0109878Y0174870D01*
X0109878Y0174102D01*
X0109111Y0173335D01*
X0111412Y0174870D02*
X0112180Y0175637D01*
X0113714Y0175637D01*
X0114482Y0174870D01*
X0114482Y0174102D01*
X0114482Y0178533D02*
X0114482Y0181602D01*
X0115249Y0181602D01*
X0114482Y0183137D02*
X0114482Y0183904D01*
X0116784Y0183137D02*
X0119853Y0183137D01*
X0119853Y0178533D01*
X0119853Y0180835D02*
X0118318Y0180835D01*
X0115249Y0178533D02*
X0113714Y0178533D01*
X0112180Y0178533D02*
X0110645Y0178533D01*
X0111412Y0178533D02*
X0111412Y0183137D01*
X0112180Y0183137D01*
X0109111Y0180835D02*
X0109111Y0179300D01*
X0108343Y0178533D01*
X0106809Y0178533D01*
X0106041Y0179300D01*
X0106041Y0180835D01*
X0106809Y0181602D01*
X0108343Y0181602D01*
X0109111Y0180835D01*
X0120620Y0174870D02*
X0120620Y0173335D01*
X0121388Y0172568D01*
X0123690Y0172568D01*
X0123690Y0171033D02*
X0123690Y0175637D01*
X0121388Y0175637D01*
X0120620Y0174870D01*
X0122155Y0172568D02*
X0120620Y0171033D01*
X0120424Y0166425D02*
X0120424Y0164123D01*
X0121192Y0163355D01*
X0121959Y0164123D01*
X0121959Y0166425D01*
X0122726Y0166425D02*
X0120424Y0166425D01*
X0122726Y0166425D02*
X0123494Y0165657D01*
X0123494Y0164123D01*
X0123494Y0161821D02*
X0123494Y0159519D01*
X0122726Y0158751D01*
X0121192Y0158751D01*
X0120424Y0159519D01*
X0120424Y0161821D01*
X0125028Y0161821D01*
X0129459Y0154531D02*
X0129459Y0151462D01*
X0130226Y0151462D02*
X0130994Y0152229D01*
X0130994Y0153764D01*
X0130226Y0154531D01*
X0129459Y0154531D01*
X0127924Y0153764D02*
X0127924Y0152229D01*
X0128692Y0151462D01*
X0130226Y0151462D01*
X0130994Y0149927D02*
X0130994Y0149160D01*
X0129459Y0147625D01*
X0127924Y0147625D02*
X0130994Y0147625D01*
X0130226Y0146091D02*
X0130994Y0145323D01*
X0130994Y0143789D01*
X0130226Y0143021D01*
X0128692Y0143021D01*
X0127924Y0143789D01*
X0127924Y0145323D01*
X0128692Y0146091D01*
X0130226Y0146091D01*
X0130994Y0141487D02*
X0130994Y0139952D01*
X0131761Y0140719D02*
X0128692Y0140719D01*
X0127924Y0141487D01*
X0128692Y0138418D02*
X0130226Y0138418D01*
X0130994Y0137650D01*
X0130994Y0136116D01*
X0130226Y0135348D01*
X0128692Y0135348D01*
X0127924Y0136116D01*
X0127924Y0137650D01*
X0128692Y0138418D01*
X0125028Y0138801D02*
X0125028Y0139568D01*
X0120424Y0139568D01*
X0120424Y0138801D02*
X0120424Y0140336D01*
X0121192Y0141870D02*
X0121959Y0142638D01*
X0121959Y0144940D01*
X0122726Y0144940D02*
X0123494Y0144172D01*
X0123494Y0142638D01*
X0122726Y0144940D02*
X0120424Y0144940D01*
X0120424Y0142638D01*
X0121192Y0141870D01*
X0120424Y0137267D02*
X0120424Y0135732D01*
X0120424Y0136499D02*
X0125028Y0136499D01*
X0125028Y0135732D01*
X0127924Y0133814D02*
X0132528Y0133814D01*
X0130994Y0132279D01*
X0132528Y0130744D01*
X0127924Y0130744D01*
X0125028Y0146474D02*
X0125028Y0147242D01*
X0120424Y0147242D01*
X0120424Y0148009D02*
X0120424Y0146474D01*
X0121192Y0149544D02*
X0120424Y0150311D01*
X0120424Y0151846D01*
X0121192Y0152613D01*
X0122726Y0152613D01*
X0123494Y0151846D01*
X0123494Y0150311D01*
X0122726Y0149544D01*
X0121192Y0149544D01*
X0117528Y0151078D02*
X0117528Y0151846D01*
X0112924Y0151846D01*
X0112924Y0152613D02*
X0112924Y0151078D01*
X0113692Y0154148D02*
X0114459Y0154915D01*
X0114459Y0157217D01*
X0115226Y0157217D02*
X0112924Y0157217D01*
X0112924Y0154915D01*
X0113692Y0154148D01*
X0115994Y0154915D02*
X0115994Y0156450D01*
X0115226Y0157217D01*
X0115994Y0158752D02*
X0115994Y0160286D01*
X0116761Y0159519D02*
X0113692Y0159519D01*
X0112924Y0160286D01*
X0113692Y0161821D02*
X0112924Y0162588D01*
X0112924Y0164123D01*
X0113692Y0164890D01*
X0115226Y0164890D01*
X0115994Y0164123D01*
X0115994Y0162588D01*
X0115226Y0161821D01*
X0113692Y0161821D01*
X0066388Y0171033D02*
X0066388Y0175637D01*
X0063318Y0171033D01*
X0063318Y0175637D01*
X0061784Y0175637D02*
X0061784Y0171033D01*
X0058714Y0171033D01*
X0057180Y0171033D02*
X0057180Y0175637D01*
X0054878Y0175637D01*
X0054111Y0174870D01*
X0054111Y0173335D01*
X0054878Y0172568D01*
X0057180Y0172568D01*
X0055645Y0172568D02*
X0054111Y0171033D01*
X0052576Y0171800D02*
X0052576Y0174870D01*
X0051809Y0175637D01*
X0050274Y0175637D01*
X0049507Y0174870D01*
X0049507Y0171800D01*
X0050274Y0171033D01*
X0051809Y0171033D01*
X0052576Y0171800D01*
X0053343Y0178533D02*
X0051809Y0178533D01*
X0051041Y0179300D01*
X0051041Y0180835D01*
X0051809Y0181602D01*
X0053343Y0181602D01*
X0054111Y0180835D01*
X0054111Y0179300D01*
X0053343Y0178533D01*
X0055645Y0178533D02*
X0057180Y0178533D01*
X0056412Y0178533D02*
X0056412Y0183137D01*
X0057180Y0183137D01*
X0059482Y0183137D02*
X0059482Y0183904D01*
X0059482Y0181602D02*
X0059482Y0178533D01*
X0060249Y0178533D02*
X0058714Y0178533D01*
X0058714Y0175637D02*
X0061784Y0175637D01*
X0061784Y0173335D02*
X0060249Y0173335D01*
X0064853Y0178533D02*
X0064853Y0183137D01*
X0061784Y0183137D01*
X0060249Y0181602D02*
X0059482Y0181602D01*
X0063318Y0180835D02*
X0064853Y0180835D01*
X0053442Y0119387D02*
X0050373Y0119387D01*
X0050373Y0118620D01*
X0053442Y0115550D01*
X0053442Y0114783D01*
X0050373Y0114783D01*
X0048838Y0115550D02*
X0048071Y0116318D01*
X0045769Y0116318D01*
X0045769Y0117085D02*
X0045769Y0114783D01*
X0048071Y0114783D01*
X0048838Y0115550D01*
X0048071Y0117852D02*
X0046536Y0117852D01*
X0045769Y0117085D01*
X0044234Y0117852D02*
X0043467Y0117852D01*
X0042699Y0117085D01*
X0041932Y0117852D01*
X0041165Y0117085D01*
X0041165Y0114783D01*
X0042699Y0114783D02*
X0042699Y0117085D01*
X0044234Y0117852D02*
X0044234Y0114783D01*
X0039630Y0114783D02*
X0037328Y0114783D01*
X0036561Y0115550D01*
X0036561Y0117085D01*
X0037328Y0117852D01*
X0039630Y0117852D01*
X0039630Y0113248D01*
X0035026Y0115550D02*
X0035026Y0117085D01*
X0034259Y0117852D01*
X0032724Y0117852D01*
X0031957Y0117085D01*
X0031957Y0116318D01*
X0035026Y0116318D01*
X0035026Y0115550D02*
X0034259Y0114783D01*
X0032724Y0114783D01*
X0029655Y0115550D02*
X0029655Y0118620D01*
X0030422Y0117852D02*
X0028888Y0117852D01*
X0027353Y0117852D02*
X0025818Y0117852D01*
X0026586Y0118620D02*
X0026586Y0115550D01*
X0025818Y0114783D01*
X0024284Y0115550D02*
X0024284Y0117085D01*
X0023516Y0117852D01*
X0021982Y0117852D01*
X0021215Y0117085D01*
X0021215Y0116318D01*
X0024284Y0116318D01*
X0024284Y0115550D02*
X0023516Y0114783D01*
X0021982Y0114783D01*
X0028888Y0114783D02*
X0029655Y0115550D01*
D11*
X0033565Y0098991D03*
X0033565Y0086176D03*
X0029461Y0082416D03*
X0033565Y0072535D03*
X0033565Y0063027D03*
X0017473Y0079109D03*
X0017473Y0085586D03*
X0005209Y0082416D03*
D12*
X0005347Y0082416D03*
X0018300Y0085448D03*
X0018300Y0079247D03*
X0018438Y0079247D03*
X0029323Y0082416D03*
X0033978Y0088381D03*
X0033978Y0090173D03*
X0035218Y0092653D03*
X0033565Y0093204D03*
X0036872Y0096925D03*
X0037010Y0099129D03*
X0037147Y0099129D03*
X0033978Y0101058D03*
X0033840Y0101058D03*
X0032738Y0106019D03*
X0033013Y0106157D03*
X0033151Y0106157D03*
X0033289Y0106295D03*
X0033427Y0106295D03*
X0033565Y0106295D03*
X0034391Y0106295D03*
X0034529Y0106295D03*
X0034667Y0106295D03*
X0034805Y0106295D03*
X0035080Y0106157D03*
X0035218Y0106157D03*
X0035494Y0106019D03*
X0033978Y0074602D03*
X0033840Y0074602D03*
X0036734Y0072810D03*
X0036872Y0072810D03*
X0033840Y0067436D03*
X0036872Y0061098D03*
X0019540Y0062849D03*
D13*
X0015406Y0062712D03*
X0019127Y0079385D03*
X0019264Y0079385D03*
X0019127Y0085310D03*
X0018989Y0085310D03*
X0029186Y0082416D03*
X0033702Y0093204D03*
X0035494Y0093066D03*
X0037010Y0096373D03*
X0033840Y0096373D03*
X0033702Y0070330D03*
X0033840Y0060547D03*
X0005485Y0082416D03*
D14*
X0005623Y0082416D03*
X0019953Y0085172D03*
X0020091Y0085172D03*
X0020091Y0079523D03*
X0019953Y0079523D03*
X0019953Y0076216D03*
X0019816Y0076216D03*
X0020091Y0076216D03*
X0020229Y0076216D03*
X0020367Y0076216D03*
X0029048Y0082416D03*
X0033840Y0078736D03*
X0035494Y0083421D03*
X0033702Y0089208D03*
X0031084Y0103677D03*
X0037147Y0103676D03*
X0019127Y0062574D03*
X0035494Y0057377D03*
D15*
X0017611Y0076491D03*
X0017473Y0076491D03*
X0017335Y0076491D03*
X0017198Y0076491D03*
X0017060Y0076491D03*
X0020780Y0079660D03*
X0020918Y0079660D03*
X0018438Y0082279D03*
X0020780Y0085034D03*
X0020918Y0085034D03*
X0028910Y0082416D03*
X0031360Y0103952D03*
X0036872Y0103952D03*
X0005760Y0082416D03*
D16*
X0005898Y0082416D03*
X0016095Y0076767D03*
X0017886Y0082279D03*
X0021607Y0079798D03*
X0021745Y0079798D03*
X0021745Y0084897D03*
X0021607Y0084897D03*
X0028772Y0082416D03*
X0016095Y0062160D03*
D17*
X0018438Y0062023D03*
X0028635Y0082416D03*
X0006036Y0082416D03*
D18*
X0006174Y0082416D03*
X0018162Y0061747D03*
X0028497Y0082416D03*
D19*
X0028359Y0082416D03*
X0022020Y0095231D03*
X0021883Y0095507D03*
X0021745Y0095782D03*
X0006312Y0082416D03*
D20*
X0006449Y0082416D03*
X0012375Y0094267D03*
X0013615Y0096747D03*
X0028221Y0082416D03*
X0017060Y0061334D03*
D21*
X0017335Y0061058D03*
X0006587Y0082416D03*
X0014166Y0097574D03*
X0020229Y0090408D03*
X0020505Y0097712D03*
X0028083Y0082416D03*
D22*
X0027946Y0082416D03*
X0019678Y0090546D03*
X0020091Y0098263D03*
X0014579Y0098125D03*
X0006725Y0082416D03*
X0022158Y0070842D03*
D23*
X0021883Y0070566D03*
X0027808Y0082416D03*
X0019127Y0090684D03*
X0018989Y0090684D03*
X0018851Y0090684D03*
X0019678Y0098814D03*
X0014993Y0098676D03*
X0006863Y0082416D03*
D24*
X0007001Y0082416D03*
X0017198Y0090684D03*
X0017335Y0090684D03*
X0017473Y0090684D03*
X0017611Y0090684D03*
X0017749Y0090684D03*
X0019402Y0099090D03*
X0027670Y0082416D03*
X0021607Y0070290D03*
D25*
X0021331Y0070015D03*
X0027532Y0082416D03*
X0018989Y0099641D03*
X0015820Y0099641D03*
X0015682Y0099503D03*
X0007138Y0082416D03*
D26*
X0007276Y0082416D03*
X0021056Y0069739D03*
X0027394Y0082416D03*
X0018713Y0099916D03*
X0016095Y0099916D03*
D27*
X0007414Y0082416D03*
X0016371Y0069464D03*
X0016509Y0069464D03*
X0016646Y0069464D03*
X0016784Y0069464D03*
X0016922Y0069464D03*
X0017060Y0069464D03*
X0017197Y0069464D03*
X0017611Y0069464D03*
X0017749Y0069464D03*
X0017886Y0069464D03*
X0018024Y0069464D03*
X0018162Y0069464D03*
X0018300Y0069464D03*
X0018438Y0069464D03*
X0018575Y0069464D03*
X0020780Y0069464D03*
X0027257Y0082416D03*
D28*
X0027119Y0082416D03*
X0020505Y0069188D03*
X0019953Y0069188D03*
X0014993Y0069188D03*
X0007552Y0082416D03*
D29*
X0007690Y0082416D03*
X0026981Y0082416D03*
D30*
X0026843Y0082485D03*
X0017473Y0101225D03*
X0017335Y0101225D03*
D31*
X0026705Y0082485D03*
D32*
X0026568Y0082485D03*
D33*
X0026430Y0082485D03*
D34*
X0026292Y0082485D03*
D35*
X0026154Y0082485D03*
D36*
X0026016Y0082485D03*
D37*
X0025879Y0082485D03*
D38*
X0025741Y0082485D03*
D39*
X0025603Y0082485D03*
D40*
X0025465Y0082485D03*
D41*
X0025327Y0082485D03*
X0013890Y0083725D03*
D42*
X0014166Y0084001D03*
X0025190Y0082485D03*
D43*
X0025052Y0082485D03*
X0014579Y0084277D03*
D44*
X0015268Y0084552D03*
X0024914Y0082485D03*
D45*
X0024776Y0082485D03*
D46*
X0024638Y0082485D03*
D47*
X0024501Y0082485D03*
D48*
X0024363Y0082485D03*
D49*
X0024225Y0082485D03*
D50*
X0024087Y0082485D03*
D51*
X0023949Y0082485D03*
D52*
X0023812Y0082485D03*
D53*
X0023674Y0082485D03*
D54*
X0023536Y0082485D03*
D55*
X0023398Y0082485D03*
D56*
X0023260Y0082485D03*
D57*
X0023123Y0082485D03*
D58*
X0022985Y0082485D03*
D59*
X0022847Y0082485D03*
D60*
X0022709Y0082485D03*
D61*
X0022572Y0082485D03*
D62*
X0022434Y0082485D03*
D63*
X0016095Y0082347D03*
X0022296Y0094473D03*
X0021194Y0096678D03*
X0021056Y0096954D03*
X0013477Y0096540D03*
X0017749Y0061403D03*
D64*
X0021883Y0076009D03*
X0022020Y0076009D03*
X0022158Y0076009D03*
X0022296Y0076009D03*
X0019540Y0079454D03*
X0019402Y0079454D03*
X0019402Y0082347D03*
X0019540Y0082347D03*
X0019402Y0085241D03*
X0019264Y0085241D03*
X0022020Y0088686D03*
X0022158Y0088686D03*
X0022296Y0088686D03*
X0033702Y0083765D03*
X0030947Y0103470D03*
X0031773Y0104986D03*
X0037285Y0103470D03*
X0037010Y0060615D03*
X0033702Y0057722D03*
D65*
X0016371Y0061954D03*
X0013201Y0068292D03*
X0022296Y0080005D03*
X0022296Y0084690D03*
X0017197Y0082347D03*
X0017060Y0082347D03*
D66*
X0019953Y0090546D03*
X0022296Y0070979D03*
D67*
X0017886Y0061540D03*
X0016922Y0061403D03*
X0016233Y0082347D03*
X0020780Y0090064D03*
X0022158Y0094887D03*
X0021607Y0095989D03*
X0021469Y0096265D03*
X0013064Y0095851D03*
X0012926Y0095576D03*
X0012788Y0095300D03*
X0012650Y0095025D03*
D68*
X0017335Y0082347D03*
X0017473Y0082347D03*
X0022158Y0079867D03*
X0022158Y0084828D03*
X0013064Y0068430D03*
D69*
X0016233Y0062023D03*
X0018575Y0062160D03*
X0021883Y0079798D03*
X0022020Y0079798D03*
X0022020Y0084897D03*
X0021883Y0084897D03*
D70*
X0019264Y0090684D03*
X0022020Y0070704D03*
D71*
X0021745Y0076078D03*
X0021607Y0076078D03*
X0021469Y0076078D03*
X0021331Y0076078D03*
X0021194Y0076078D03*
X0019540Y0085172D03*
X0021331Y0088617D03*
X0021469Y0088617D03*
X0021607Y0088617D03*
X0021745Y0088617D03*
X0021883Y0088617D03*
X0033840Y0093204D03*
X0036596Y0104779D03*
X0033702Y0078873D03*
X0019264Y0062712D03*
X0015544Y0062574D03*
D72*
X0021745Y0070428D03*
X0018438Y0090684D03*
X0019540Y0098952D03*
X0015131Y0098814D03*
D73*
X0021331Y0084966D03*
X0021469Y0084966D03*
X0018024Y0082347D03*
X0021331Y0079729D03*
X0021469Y0079729D03*
X0016233Y0076698D03*
X0012788Y0068706D03*
X0018713Y0062229D03*
D74*
X0021469Y0070153D03*
X0016233Y0090408D03*
X0016509Y0090546D03*
X0015544Y0099365D03*
D75*
X0013339Y0096334D03*
X0013201Y0096058D03*
X0012512Y0094680D03*
X0021331Y0096471D03*
X0020642Y0090133D03*
D76*
X0021194Y0088548D03*
X0019816Y0085241D03*
X0019678Y0085241D03*
X0019264Y0082347D03*
X0019127Y0082347D03*
X0019678Y0079454D03*
X0019816Y0079454D03*
X0020505Y0076147D03*
X0020642Y0076147D03*
X0020780Y0076147D03*
X0020918Y0076147D03*
X0021056Y0076147D03*
X0033840Y0070261D03*
X0035218Y0069986D03*
X0035356Y0069986D03*
X0035494Y0069986D03*
X0033840Y0057722D03*
X0035218Y0057308D03*
X0035356Y0057308D03*
X0035356Y0083352D03*
X0035218Y0083352D03*
X0033840Y0083765D03*
X0035356Y0088312D03*
X0035494Y0088312D03*
X0037147Y0089277D03*
X0031636Y0104710D03*
D77*
X0031498Y0104090D03*
X0036734Y0104090D03*
X0021194Y0085034D03*
X0018162Y0082279D03*
X0021056Y0079660D03*
X0021194Y0079660D03*
X0016371Y0076629D03*
X0015957Y0062298D03*
D78*
X0021194Y0069877D03*
X0018851Y0099779D03*
X0015957Y0099779D03*
D79*
X0021056Y0089651D03*
X0016922Y0082347D03*
X0016784Y0082347D03*
X0013339Y0068155D03*
X0016509Y0061816D03*
X0033702Y0104710D03*
X0033840Y0104710D03*
X0033978Y0104710D03*
X0034116Y0104710D03*
X0034254Y0104710D03*
D80*
X0021056Y0084966D03*
X0018300Y0082347D03*
X0016922Y0076560D03*
X0016784Y0076560D03*
X0016646Y0076560D03*
X0016509Y0076560D03*
X0012650Y0068843D03*
X0018851Y0062367D03*
D81*
X0017611Y0061265D03*
X0020505Y0090202D03*
X0020918Y0097092D03*
X0013753Y0096954D03*
D82*
X0020918Y0089857D03*
X0018024Y0061609D03*
D83*
X0019816Y0063056D03*
X0014993Y0062918D03*
X0017335Y0079178D03*
X0020780Y0082347D03*
X0020918Y0082347D03*
X0017335Y0085517D03*
X0034391Y0088037D03*
X0034391Y0102781D03*
D84*
X0018575Y0100054D03*
X0016233Y0100054D03*
X0020918Y0069601D03*
D85*
X0017198Y0061196D03*
X0020367Y0090271D03*
X0020780Y0097298D03*
X0013890Y0097160D03*
D86*
X0014028Y0097367D03*
X0020642Y0097505D03*
X0017473Y0061127D03*
D87*
X0018989Y0062505D03*
X0015820Y0062367D03*
X0012512Y0068981D03*
X0017749Y0076422D03*
X0017886Y0076422D03*
X0018024Y0076422D03*
X0018162Y0076422D03*
X0018300Y0076422D03*
X0020505Y0079592D03*
X0020642Y0079592D03*
X0018713Y0082347D03*
X0018575Y0082347D03*
X0020505Y0085103D03*
X0020642Y0085103D03*
X0033840Y0089277D03*
X0037010Y0089277D03*
X0037010Y0103883D03*
D88*
X0037010Y0101265D03*
X0037147Y0101265D03*
X0037285Y0101265D03*
X0036872Y0101265D03*
X0036734Y0101265D03*
X0036596Y0101265D03*
X0036458Y0101265D03*
X0036321Y0101265D03*
X0036183Y0101265D03*
X0036045Y0101265D03*
X0035907Y0101265D03*
X0035769Y0101265D03*
X0035632Y0101265D03*
X0035494Y0101265D03*
X0035356Y0101265D03*
X0035218Y0101265D03*
X0035080Y0101265D03*
X0034943Y0101265D03*
X0034805Y0101265D03*
X0034667Y0101265D03*
X0034529Y0101265D03*
X0034391Y0101265D03*
X0034254Y0101265D03*
X0034254Y0100714D03*
X0034529Y0100576D03*
X0034805Y0100438D03*
X0035080Y0100301D03*
X0035356Y0100163D03*
X0035632Y0100025D03*
X0035907Y0099887D03*
X0036183Y0099749D03*
X0036458Y0099612D03*
X0036458Y0098923D03*
X0036321Y0098923D03*
X0036183Y0098923D03*
X0036045Y0098923D03*
X0035907Y0098923D03*
X0035769Y0098923D03*
X0035632Y0098923D03*
X0035494Y0098923D03*
X0035356Y0098923D03*
X0035218Y0098923D03*
X0035080Y0098923D03*
X0034943Y0098923D03*
X0034805Y0098923D03*
X0034667Y0098923D03*
X0034529Y0098923D03*
X0034391Y0098923D03*
X0034254Y0098923D03*
X0034116Y0098923D03*
X0033978Y0098923D03*
X0033840Y0098923D03*
X0033702Y0098923D03*
X0034667Y0097545D03*
X0034943Y0097682D03*
X0035080Y0097682D03*
X0035632Y0097682D03*
X0035769Y0097682D03*
X0035907Y0097682D03*
X0036183Y0097545D03*
X0036458Y0097407D03*
X0036596Y0098923D03*
X0033565Y0101127D03*
X0034529Y0094238D03*
X0034667Y0094238D03*
X0034805Y0094237D03*
X0034943Y0094238D03*
X0035080Y0094238D03*
X0035218Y0094238D03*
X0035356Y0094237D03*
X0035494Y0094237D03*
X0035632Y0094238D03*
X0035769Y0094238D03*
X0035907Y0094238D03*
X0036045Y0094237D03*
X0036183Y0094238D03*
X0036321Y0094238D03*
X0036458Y0094238D03*
X0036596Y0094237D03*
X0036734Y0094237D03*
X0036872Y0094238D03*
X0037010Y0094238D03*
X0037147Y0094238D03*
X0037285Y0094238D03*
X0037285Y0092171D03*
X0037147Y0092171D03*
X0037010Y0092171D03*
X0036872Y0092171D03*
X0036734Y0092171D03*
X0036596Y0092171D03*
X0036458Y0092171D03*
X0036321Y0092171D03*
X0036183Y0092171D03*
X0036045Y0090930D03*
X0035907Y0090930D03*
X0035494Y0091068D03*
X0035356Y0091068D03*
X0034943Y0090930D03*
X0034805Y0090930D03*
X0034529Y0090793D03*
X0034391Y0090655D03*
X0034391Y0092308D03*
X0034254Y0092308D03*
X0034529Y0092308D03*
X0034667Y0092308D03*
X0034805Y0092308D03*
X0034254Y0094100D03*
X0036321Y0090793D03*
X0036321Y0087761D03*
X0036045Y0087623D03*
X0035907Y0087623D03*
X0035769Y0087623D03*
X0035632Y0087623D03*
X0035632Y0086245D03*
X0035769Y0086245D03*
X0035907Y0086245D03*
X0036045Y0086245D03*
X0036183Y0086245D03*
X0036321Y0086245D03*
X0036458Y0086245D03*
X0036596Y0086245D03*
X0036734Y0086245D03*
X0036872Y0086245D03*
X0037010Y0086245D03*
X0037147Y0086245D03*
X0037285Y0086245D03*
X0037285Y0084867D03*
X0037147Y0084867D03*
X0037010Y0084867D03*
X0036872Y0084867D03*
X0036734Y0084867D03*
X0036596Y0084867D03*
X0036458Y0084867D03*
X0036321Y0084867D03*
X0036183Y0084867D03*
X0036045Y0084867D03*
X0035907Y0084867D03*
X0035769Y0084867D03*
X0035632Y0084867D03*
X0035494Y0084867D03*
X0035356Y0084867D03*
X0035218Y0084867D03*
X0035080Y0084867D03*
X0034943Y0084867D03*
X0034805Y0084867D03*
X0034529Y0084730D03*
X0034391Y0084730D03*
X0034116Y0084592D03*
X0034116Y0086245D03*
X0034254Y0086245D03*
X0034391Y0086245D03*
X0034529Y0086245D03*
X0034667Y0086245D03*
X0034805Y0086245D03*
X0034943Y0086245D03*
X0035080Y0086245D03*
X0035218Y0086245D03*
X0035356Y0086245D03*
X0035494Y0086245D03*
X0033978Y0086245D03*
X0033840Y0086245D03*
X0033702Y0086245D03*
X0034254Y0088037D03*
X0034116Y0082938D03*
X0034254Y0082801D03*
X0034391Y0082801D03*
X0034667Y0082663D03*
X0034805Y0082663D03*
X0034943Y0082663D03*
X0035080Y0082663D03*
X0035632Y0082663D03*
X0035769Y0082663D03*
X0035907Y0082663D03*
X0036045Y0082663D03*
X0036183Y0082663D03*
X0036321Y0082663D03*
X0036458Y0082663D03*
X0036596Y0082663D03*
X0036734Y0082663D03*
X0036872Y0082663D03*
X0037010Y0082663D03*
X0037147Y0082663D03*
X0037285Y0082663D03*
X0037285Y0079493D03*
X0037147Y0079493D03*
X0037010Y0079493D03*
X0036872Y0079493D03*
X0036734Y0079493D03*
X0036596Y0079493D03*
X0036458Y0079493D03*
X0036321Y0079493D03*
X0036183Y0079493D03*
X0036045Y0079493D03*
X0035907Y0079493D03*
X0035769Y0079493D03*
X0035632Y0079493D03*
X0035494Y0079493D03*
X0035356Y0079493D03*
X0035218Y0079493D03*
X0035080Y0079493D03*
X0034943Y0079493D03*
X0034805Y0079493D03*
X0034667Y0079493D03*
X0034529Y0079493D03*
X0034391Y0079493D03*
X0034254Y0079493D03*
X0034116Y0079493D03*
X0033978Y0079493D03*
X0034529Y0077426D03*
X0034805Y0077289D03*
X0035218Y0077151D03*
X0035356Y0077151D03*
X0035494Y0077151D03*
X0035632Y0077151D03*
X0035769Y0077151D03*
X0036045Y0077289D03*
X0036183Y0077289D03*
X0036321Y0077426D03*
X0036321Y0076049D03*
X0036458Y0076049D03*
X0036596Y0076049D03*
X0036734Y0076049D03*
X0036872Y0076049D03*
X0037010Y0076049D03*
X0037147Y0076049D03*
X0037285Y0076049D03*
X0036183Y0076049D03*
X0036045Y0076049D03*
X0035907Y0076049D03*
X0035769Y0076049D03*
X0035632Y0076049D03*
X0035494Y0076049D03*
X0035356Y0076049D03*
X0035218Y0076049D03*
X0035080Y0076049D03*
X0034943Y0076049D03*
X0034805Y0076049D03*
X0034667Y0076049D03*
X0034529Y0076049D03*
X0034391Y0076049D03*
X0034254Y0076049D03*
X0034116Y0076049D03*
X0033978Y0076049D03*
X0033840Y0076049D03*
X0033702Y0076049D03*
X0033565Y0076049D03*
X0033565Y0074671D03*
X0034254Y0074808D03*
X0034391Y0074808D03*
X0034529Y0074808D03*
X0034667Y0074808D03*
X0034805Y0074808D03*
X0034943Y0074808D03*
X0035080Y0074808D03*
X0035218Y0074808D03*
X0035356Y0074808D03*
X0035494Y0074808D03*
X0035632Y0074808D03*
X0035769Y0074808D03*
X0035907Y0074808D03*
X0036045Y0074808D03*
X0036183Y0074808D03*
X0036321Y0074808D03*
X0036458Y0074808D03*
X0036596Y0074808D03*
X0036734Y0074808D03*
X0036872Y0074808D03*
X0037010Y0074808D03*
X0037147Y0074808D03*
X0037285Y0074808D03*
X0036458Y0073155D03*
X0036183Y0073293D03*
X0035907Y0073430D03*
X0035632Y0073568D03*
X0035356Y0073706D03*
X0035080Y0073844D03*
X0034805Y0073982D03*
X0034529Y0074119D03*
X0034254Y0074257D03*
X0034254Y0072604D03*
X0034391Y0072604D03*
X0034529Y0072604D03*
X0034667Y0072604D03*
X0034805Y0072604D03*
X0034943Y0072604D03*
X0035080Y0072604D03*
X0035218Y0072604D03*
X0035356Y0072604D03*
X0035494Y0072604D03*
X0035632Y0072604D03*
X0035769Y0072604D03*
X0035907Y0072604D03*
X0036045Y0072604D03*
X0036183Y0072604D03*
X0036321Y0072604D03*
X0036458Y0072604D03*
X0036458Y0071363D03*
X0036321Y0071363D03*
X0036183Y0071363D03*
X0036045Y0071363D03*
X0035907Y0071363D03*
X0035769Y0071363D03*
X0035632Y0071363D03*
X0035494Y0071364D03*
X0035356Y0071363D03*
X0035218Y0071363D03*
X0035080Y0071363D03*
X0034943Y0071363D03*
X0034805Y0071363D03*
X0034667Y0071363D03*
X0034529Y0071363D03*
X0034254Y0071226D03*
X0034116Y0072604D03*
X0033978Y0072604D03*
X0033840Y0072604D03*
X0033702Y0072604D03*
X0034391Y0069297D03*
X0034529Y0069297D03*
X0034667Y0069297D03*
X0034805Y0069297D03*
X0034943Y0069297D03*
X0035080Y0069297D03*
X0035632Y0069297D03*
X0035769Y0069297D03*
X0035907Y0069297D03*
X0036045Y0069297D03*
X0036183Y0069297D03*
X0036321Y0069297D03*
X0036458Y0069297D03*
X0036596Y0069297D03*
X0036734Y0069297D03*
X0036872Y0069297D03*
X0037010Y0069297D03*
X0037147Y0069297D03*
X0037285Y0069297D03*
X0037010Y0067919D03*
X0036872Y0067919D03*
X0036734Y0067919D03*
X0036596Y0067919D03*
X0036458Y0067919D03*
X0036321Y0067919D03*
X0036183Y0067919D03*
X0035907Y0067781D03*
X0035769Y0067781D03*
X0035632Y0067781D03*
X0035494Y0067781D03*
X0035356Y0067781D03*
X0035218Y0067781D03*
X0035080Y0067781D03*
X0034805Y0067643D03*
X0034667Y0067643D03*
X0034529Y0067643D03*
X0034391Y0067643D03*
X0034254Y0067643D03*
X0034254Y0067092D03*
X0034529Y0066954D03*
X0034667Y0066954D03*
X0034805Y0066954D03*
X0035080Y0066816D03*
X0035218Y0066816D03*
X0035494Y0066678D03*
X0035632Y0066678D03*
X0035907Y0066541D03*
X0036045Y0066541D03*
X0036183Y0066541D03*
X0036321Y0066403D03*
X0036458Y0066403D03*
X0036458Y0065852D03*
X0036321Y0065852D03*
X0036183Y0065714D03*
X0036045Y0065714D03*
X0035907Y0065714D03*
X0035632Y0065576D03*
X0035494Y0065576D03*
X0035218Y0065438D03*
X0035080Y0065438D03*
X0034943Y0065438D03*
X0034805Y0065301D03*
X0034667Y0065301D03*
X0034529Y0065300D03*
X0034254Y0065163D03*
X0034254Y0064612D03*
X0034391Y0064612D03*
X0034529Y0064612D03*
X0034667Y0064612D03*
X0034805Y0064612D03*
X0035080Y0064474D03*
X0035218Y0064474D03*
X0035356Y0064474D03*
X0035494Y0064474D03*
X0035632Y0064474D03*
X0035769Y0064474D03*
X0035907Y0064474D03*
X0036321Y0064336D03*
X0036458Y0064336D03*
X0036596Y0064336D03*
X0036734Y0064336D03*
X0036872Y0064336D03*
X0037010Y0064336D03*
X0037010Y0063096D03*
X0037147Y0063096D03*
X0037285Y0063096D03*
X0036872Y0063096D03*
X0036734Y0063096D03*
X0036596Y0063096D03*
X0036458Y0063096D03*
X0036321Y0063096D03*
X0036183Y0063096D03*
X0036045Y0063096D03*
X0035907Y0063096D03*
X0035769Y0063096D03*
X0035632Y0063096D03*
X0035494Y0063096D03*
X0035356Y0063096D03*
X0035218Y0063096D03*
X0035080Y0063096D03*
X0034943Y0063096D03*
X0034805Y0063096D03*
X0034667Y0063096D03*
X0034529Y0063096D03*
X0034391Y0063096D03*
X0034254Y0063096D03*
X0034116Y0063096D03*
X0033978Y0063096D03*
X0033840Y0063096D03*
X0033702Y0063096D03*
X0034805Y0061856D03*
X0034943Y0061856D03*
X0035356Y0061993D03*
X0035494Y0061993D03*
X0035632Y0061993D03*
X0035907Y0061856D03*
X0036045Y0061856D03*
X0036321Y0061718D03*
X0034391Y0061580D03*
X0033565Y0064887D03*
X0033565Y0067367D03*
X0037147Y0066127D03*
X0037285Y0066127D03*
X0037285Y0071363D03*
X0037147Y0071364D03*
X0037010Y0071363D03*
X0036872Y0071364D03*
X0036734Y0071364D03*
X0036596Y0071363D03*
X0036596Y0058824D03*
X0036458Y0058824D03*
X0036321Y0058824D03*
X0036183Y0058824D03*
X0036045Y0058824D03*
X0035907Y0058824D03*
X0035769Y0058824D03*
X0035632Y0058824D03*
X0035494Y0058824D03*
X0035356Y0058824D03*
X0035218Y0058824D03*
X0035080Y0058824D03*
X0034943Y0058824D03*
X0034805Y0058824D03*
X0034529Y0058686D03*
X0034391Y0058686D03*
X0034116Y0058549D03*
X0034116Y0056895D03*
X0034391Y0056757D03*
X0034667Y0056619D03*
X0034805Y0056619D03*
X0034943Y0056619D03*
X0035080Y0056619D03*
X0035632Y0056619D03*
X0035769Y0056619D03*
X0035907Y0056619D03*
X0036045Y0056619D03*
X0036183Y0056619D03*
X0036321Y0056619D03*
X0036458Y0056619D03*
X0036596Y0056619D03*
X0036734Y0056619D03*
X0036872Y0056619D03*
X0037010Y0056619D03*
X0037147Y0056619D03*
X0037285Y0056619D03*
X0037285Y0058824D03*
X0037147Y0058824D03*
X0037010Y0058824D03*
X0036872Y0058824D03*
X0036734Y0058824D03*
X0017749Y0079178D03*
X0017611Y0079178D03*
X0020505Y0082347D03*
X0020642Y0082347D03*
X0017749Y0085517D03*
X0017611Y0085517D03*
D89*
X0019264Y0069326D03*
X0019402Y0069326D03*
X0019540Y0069326D03*
X0020642Y0069326D03*
X0015682Y0069326D03*
X0015544Y0069326D03*
D90*
X0015131Y0062849D03*
X0019678Y0062987D03*
X0033565Y0060133D03*
X0034254Y0058617D03*
X0034667Y0058755D03*
X0033978Y0056964D03*
X0034254Y0056826D03*
X0034529Y0056688D03*
X0034529Y0061649D03*
X0034667Y0061787D03*
X0035080Y0061924D03*
X0035218Y0061925D03*
X0035769Y0061925D03*
X0036183Y0061787D03*
X0036458Y0061649D03*
X0036596Y0061511D03*
X0036734Y0061373D03*
X0037147Y0064267D03*
X0037285Y0064267D03*
X0036183Y0064405D03*
X0036045Y0064405D03*
X0034943Y0064543D03*
X0034391Y0065232D03*
X0035356Y0065507D03*
X0035769Y0065645D03*
X0035769Y0066610D03*
X0035356Y0066747D03*
X0034943Y0066885D03*
X0034391Y0067023D03*
X0034943Y0067712D03*
X0036045Y0067850D03*
X0037147Y0067988D03*
X0037285Y0067988D03*
X0034254Y0069365D03*
X0034116Y0069503D03*
X0033978Y0069641D03*
X0033978Y0071019D03*
X0034116Y0071157D03*
X0034391Y0071295D03*
X0035494Y0073637D03*
X0035769Y0073499D03*
X0036045Y0073362D03*
X0036321Y0073224D03*
X0037285Y0072673D03*
X0035218Y0073775D03*
X0034943Y0073913D03*
X0034667Y0074051D03*
X0034391Y0074188D03*
X0034943Y0077220D03*
X0035080Y0077220D03*
X0034667Y0077358D03*
X0034391Y0077495D03*
X0034254Y0077633D03*
X0035907Y0077220D03*
X0036458Y0077495D03*
X0036596Y0077633D03*
X0036734Y0077771D03*
X0034529Y0082732D03*
X0033978Y0083007D03*
X0034254Y0084661D03*
X0034667Y0084799D03*
X0036183Y0087692D03*
X0036458Y0087830D03*
X0036596Y0087968D03*
X0036734Y0088106D03*
X0036734Y0090448D03*
X0036596Y0090586D03*
X0036458Y0090724D03*
X0036183Y0090862D03*
X0035769Y0090999D03*
X0035632Y0090999D03*
X0035218Y0090999D03*
X0035080Y0090999D03*
X0034667Y0090862D03*
X0034254Y0090586D03*
X0034116Y0092377D03*
X0033978Y0092515D03*
X0034943Y0092377D03*
X0035080Y0092515D03*
X0035769Y0092377D03*
X0035907Y0092239D03*
X0036045Y0092239D03*
X0034391Y0094169D03*
X0034116Y0094031D03*
X0033978Y0093893D03*
X0033565Y0095960D03*
X0034254Y0097200D03*
X0034391Y0097338D03*
X0034529Y0097476D03*
X0034805Y0097613D03*
X0036045Y0097613D03*
X0036321Y0097476D03*
X0036596Y0097338D03*
X0037285Y0099129D03*
X0036596Y0099543D03*
X0036321Y0099680D03*
X0036045Y0099818D03*
X0035769Y0099956D03*
X0035494Y0100094D03*
X0035218Y0100232D03*
X0034943Y0100369D03*
X0034667Y0100507D03*
X0034391Y0100645D03*
X0034116Y0088106D03*
X0018024Y0085448D03*
X0017886Y0085448D03*
X0017886Y0079247D03*
X0018024Y0079247D03*
D91*
X0018162Y0079178D03*
X0020229Y0082347D03*
X0020367Y0082347D03*
X0018162Y0085379D03*
X0033702Y0074671D03*
X0034116Y0077840D03*
X0036872Y0077978D03*
X0037285Y0078667D03*
X0037147Y0072741D03*
X0037010Y0072741D03*
X0033702Y0067367D03*
X0033702Y0064887D03*
X0033840Y0064887D03*
X0034254Y0061442D03*
X0034116Y0061304D03*
X0033978Y0058411D03*
X0036872Y0066127D03*
X0037010Y0066127D03*
X0033978Y0084454D03*
X0036872Y0088312D03*
X0036872Y0090241D03*
X0034116Y0090379D03*
X0037285Y0096029D03*
X0036734Y0097131D03*
X0034116Y0096993D03*
X0033702Y0101127D03*
D92*
X0031911Y0105261D03*
X0036458Y0105123D03*
X0035356Y0093135D03*
X0033565Y0089277D03*
X0037285Y0089277D03*
X0037010Y0078391D03*
X0037147Y0060478D03*
X0019402Y0062781D03*
X0018989Y0079316D03*
X0018851Y0079316D03*
X0019678Y0082347D03*
X0019816Y0082347D03*
X0013477Y0088824D03*
X0013339Y0088824D03*
X0013201Y0088824D03*
X0013064Y0088824D03*
X0012926Y0088824D03*
X0012788Y0088824D03*
X0012650Y0088824D03*
X0012512Y0088824D03*
X0012375Y0088824D03*
D93*
X0018438Y0085379D03*
X0018575Y0085379D03*
X0019953Y0082347D03*
X0020091Y0082347D03*
X0018713Y0079316D03*
X0018575Y0079316D03*
X0015268Y0062781D03*
X0033565Y0057722D03*
X0033978Y0061029D03*
X0037285Y0060340D03*
X0034116Y0064887D03*
X0033978Y0064887D03*
X0036596Y0066127D03*
X0036734Y0066127D03*
X0034116Y0067367D03*
X0033978Y0067367D03*
X0033565Y0070261D03*
X0036596Y0072879D03*
X0034116Y0074533D03*
X0033978Y0078115D03*
X0037147Y0078529D03*
X0033565Y0083765D03*
X0035632Y0092722D03*
X0033978Y0096718D03*
X0036734Y0099198D03*
X0036872Y0099198D03*
X0034116Y0100989D03*
X0032325Y0105675D03*
X0032462Y0105812D03*
X0032600Y0105950D03*
X0032876Y0106088D03*
X0034943Y0106226D03*
X0035356Y0106088D03*
X0035632Y0105950D03*
X0035769Y0105812D03*
D94*
X0035907Y0105743D03*
X0036045Y0105606D03*
X0036183Y0105468D03*
X0036321Y0105330D03*
X0032187Y0105606D03*
X0032049Y0105468D03*
X0033702Y0096236D03*
X0037147Y0096236D03*
X0033565Y0079149D03*
X0018851Y0085310D03*
X0018713Y0085310D03*
X0033702Y0060409D03*
D95*
X0020091Y0090477D03*
X0020367Y0097918D03*
X0014304Y0097780D03*
D96*
X0020229Y0085103D03*
X0020367Y0085103D03*
X0018989Y0082347D03*
X0018851Y0082347D03*
X0020229Y0079592D03*
X0019678Y0076284D03*
X0019540Y0076284D03*
X0019402Y0076284D03*
X0019264Y0076284D03*
X0012375Y0069119D03*
X0015682Y0062505D03*
D97*
X0018438Y0076353D03*
X0018575Y0076353D03*
X0018713Y0076353D03*
X0018851Y0076353D03*
X0018989Y0076353D03*
X0019127Y0076353D03*
X0020367Y0079523D03*
X0035218Y0096787D03*
X0035356Y0096787D03*
X0035494Y0096787D03*
X0031222Y0103814D03*
D98*
X0020367Y0069050D03*
X0014579Y0069050D03*
X0014442Y0069050D03*
D99*
X0019816Y0090477D03*
X0020229Y0098056D03*
X0014442Y0097918D03*
D100*
X0016784Y0100674D03*
X0018024Y0100674D03*
X0020091Y0069119D03*
X0020229Y0069119D03*
X0014855Y0069119D03*
X0014717Y0069119D03*
X0014304Y0069119D03*
D101*
X0019402Y0090615D03*
X0019540Y0090615D03*
X0019953Y0098469D03*
X0014717Y0098332D03*
D102*
X0014855Y0098469D03*
X0019816Y0098607D03*
D103*
X0018162Y0100536D03*
X0016646Y0100536D03*
X0015406Y0069257D03*
X0015268Y0069257D03*
X0015131Y0069257D03*
X0014166Y0069257D03*
X0019678Y0069257D03*
X0019816Y0069257D03*
D104*
X0016371Y0090477D03*
X0016646Y0090615D03*
X0016784Y0090615D03*
X0016922Y0090615D03*
X0017060Y0090615D03*
X0015406Y0099158D03*
X0019264Y0099296D03*
D105*
X0019127Y0099434D03*
X0016095Y0090340D03*
D106*
X0016509Y0100399D03*
X0018300Y0100399D03*
X0018713Y0069395D03*
X0018851Y0069395D03*
X0018989Y0069395D03*
X0019127Y0069395D03*
X0016233Y0069395D03*
X0016095Y0069395D03*
X0015957Y0069395D03*
X0015820Y0069395D03*
X0014028Y0069395D03*
D107*
X0018575Y0090753D03*
X0018713Y0090753D03*
D108*
X0018438Y0100261D03*
X0016371Y0100261D03*
X0017335Y0069532D03*
X0017473Y0069532D03*
X0013890Y0069532D03*
D109*
X0017886Y0090753D03*
X0018024Y0090753D03*
X0018162Y0090753D03*
X0018300Y0090753D03*
X0015268Y0099021D03*
D110*
X0018300Y0061885D03*
D111*
X0017886Y0100812D03*
X0016922Y0100812D03*
D112*
X0017060Y0100950D03*
X0017749Y0100950D03*
D113*
X0017749Y0082347D03*
X0017611Y0082347D03*
X0012926Y0068568D03*
D114*
X0017197Y0101088D03*
X0017611Y0101088D03*
D115*
X0016371Y0082347D03*
X0016784Y0061540D03*
D116*
X0016646Y0061678D03*
X0013477Y0068017D03*
X0016509Y0082347D03*
X0016646Y0082347D03*
D117*
X0015957Y0084690D03*
X0015820Y0084690D03*
X0015682Y0084690D03*
X0009894Y0082485D03*
D118*
X0015406Y0084621D03*
X0015544Y0084621D03*
D119*
X0015131Y0084483D03*
X0014993Y0084483D03*
D120*
X0014855Y0084414D03*
X0009757Y0082485D03*
D121*
X0014717Y0084345D03*
D122*
X0014442Y0084208D03*
D123*
X0014304Y0084070D03*
D124*
X0014028Y0083863D03*
X0009481Y0082485D03*
D125*
X0009343Y0082485D03*
X0013753Y0083588D03*
D126*
X0013753Y0069670D03*
D127*
X0009205Y0082485D03*
X0013615Y0083312D03*
D128*
X0013615Y0069808D03*
D129*
X0012237Y0082485D03*
D130*
X0012099Y0082485D03*
D131*
X0011961Y0082485D03*
D132*
X0011823Y0082485D03*
D133*
X0011686Y0082485D03*
D134*
X0011548Y0082485D03*
D135*
X0011410Y0082485D03*
D136*
X0011272Y0082485D03*
D137*
X0011135Y0082485D03*
D138*
X0010997Y0082485D03*
D139*
X0010859Y0082485D03*
D140*
X0010721Y0082485D03*
D141*
X0010583Y0082485D03*
D142*
X0010446Y0082485D03*
D143*
X0010308Y0082485D03*
D144*
X0010170Y0082485D03*
D145*
X0010032Y0082485D03*
D146*
X0009619Y0082485D03*
D147*
X0009068Y0082485D03*
D148*
X0008930Y0082485D03*
D149*
X0008792Y0082416D03*
D150*
X0008654Y0082416D03*
D151*
X0008516Y0082416D03*
D152*
X0008379Y0082416D03*
D153*
X0008241Y0082416D03*
D154*
X0008103Y0082416D03*
D155*
X0007965Y0082416D03*
D156*
X0007827Y0082416D03*
D157*
X0045766Y0132221D03*
X0059939Y0132221D03*
D158*
X0059939Y0132260D03*
X0045766Y0132260D03*
X0045766Y0150843D03*
X0059939Y0150843D03*
D159*
X0059919Y0150804D03*
X0045785Y0150804D03*
X0045785Y0132300D03*
X0056376Y0133363D03*
D160*
X0059939Y0132300D03*
X0049348Y0133363D03*
D161*
X0049329Y0133402D03*
X0045785Y0132339D03*
X0059919Y0132339D03*
X0059919Y0150764D03*
X0045785Y0150764D03*
D162*
X0049289Y0133441D03*
X0045785Y0132378D03*
X0056415Y0133441D03*
X0059919Y0132378D03*
D163*
X0059899Y0132418D03*
X0049270Y0133481D03*
X0045805Y0132418D03*
X0045805Y0150685D03*
X0059899Y0150685D03*
D164*
X0059899Y0150646D03*
X0056474Y0133520D03*
X0059899Y0132457D03*
X0049230Y0133520D03*
X0045805Y0132457D03*
D165*
X0045825Y0132496D03*
X0049210Y0133559D03*
X0059880Y0132496D03*
X0059880Y0150607D03*
X0045825Y0150607D03*
D166*
X0059880Y0150567D03*
X0056533Y0133599D03*
X0059880Y0132536D03*
X0049171Y0133599D03*
X0045825Y0132536D03*
D167*
X0045844Y0132575D03*
X0045844Y0150528D03*
X0059860Y0150528D03*
X0059860Y0132575D03*
D168*
X0059860Y0132615D03*
X0056592Y0133678D03*
X0045844Y0132615D03*
X0059860Y0150489D03*
D169*
X0059840Y0150449D03*
X0056651Y0133756D03*
X0045864Y0132654D03*
X0045864Y0150449D03*
D170*
X0056632Y0133717D03*
X0059860Y0132654D03*
D171*
X0059840Y0132693D03*
X0059840Y0150410D03*
X0045864Y0150410D03*
X0045864Y0132693D03*
D172*
X0045884Y0132733D03*
X0045884Y0150370D03*
X0059821Y0150370D03*
D173*
X0059840Y0132733D03*
D174*
X0059821Y0132772D03*
X0045884Y0132772D03*
X0045884Y0150331D03*
X0059821Y0150331D03*
D175*
X0059801Y0150292D03*
X0045903Y0150292D03*
X0045903Y0132811D03*
D176*
X0059821Y0132811D03*
D177*
X0059801Y0132851D03*
X0045903Y0132851D03*
X0045903Y0150252D03*
X0059801Y0150252D03*
D178*
X0059801Y0132890D03*
X0045903Y0132890D03*
D179*
X0045923Y0132930D03*
X0059781Y0132930D03*
X0059781Y0150174D03*
X0045923Y0150174D03*
D180*
X0059781Y0150134D03*
X0059781Y0132969D03*
X0045923Y0132969D03*
D181*
X0045943Y0133008D03*
X0059762Y0133008D03*
X0059762Y0150095D03*
X0045943Y0150095D03*
D182*
X0059762Y0150056D03*
X0059762Y0133048D03*
X0045943Y0133048D03*
D183*
X0045962Y0133087D03*
X0045962Y0150016D03*
X0059742Y0150016D03*
D184*
X0059762Y0133087D03*
D185*
X0059742Y0133126D03*
X0045962Y0133126D03*
X0059742Y0149977D03*
D186*
X0059722Y0149937D03*
X0045982Y0149937D03*
X0045982Y0133166D03*
D187*
X0059742Y0133166D03*
D188*
X0059722Y0133205D03*
X0045982Y0133205D03*
X0045982Y0149898D03*
X0059722Y0149898D03*
D189*
X0059703Y0149859D03*
X0046002Y0149859D03*
X0046002Y0133245D03*
D190*
X0059722Y0133245D03*
D191*
X0059703Y0133284D03*
X0046002Y0133284D03*
X0046002Y0149819D03*
X0059703Y0149819D03*
D192*
X0059939Y0150882D03*
X0045766Y0150882D03*
X0049388Y0133284D03*
X0056317Y0133284D03*
D193*
X0059703Y0133323D03*
X0046002Y0133323D03*
D194*
X0049368Y0133323D03*
X0056336Y0133323D03*
D195*
X0059683Y0133363D03*
X0046022Y0133363D03*
X0046022Y0149741D03*
X0059683Y0149741D03*
D196*
X0059683Y0149701D03*
X0059683Y0133402D03*
X0046022Y0133402D03*
D197*
X0056396Y0133402D03*
D198*
X0059663Y0133441D03*
X0046041Y0133441D03*
X0046041Y0149662D03*
X0059663Y0149662D03*
D199*
X0059663Y0149622D03*
X0052852Y0153087D03*
X0052852Y0153126D03*
X0046041Y0133481D03*
X0059663Y0133481D03*
D200*
X0056455Y0133481D03*
D201*
X0046061Y0133520D03*
X0046061Y0149583D03*
X0052872Y0152851D03*
X0059644Y0149583D03*
D202*
X0052852Y0152890D03*
X0052852Y0152930D03*
X0052852Y0152969D03*
X0052852Y0153008D03*
X0059663Y0133520D03*
D203*
X0059644Y0133559D03*
X0046061Y0133559D03*
X0059644Y0149544D03*
X0052872Y0152615D03*
D204*
X0056514Y0133559D03*
D205*
X0046081Y0133599D03*
X0046081Y0149504D03*
X0052852Y0152260D03*
X0052852Y0152300D03*
X0052852Y0152339D03*
X0052852Y0152378D03*
X0059624Y0149504D03*
D206*
X0052872Y0152418D03*
X0059644Y0133599D03*
D207*
X0059624Y0133638D03*
X0046081Y0133638D03*
X0046081Y0149465D03*
X0052852Y0152024D03*
X0052852Y0152063D03*
X0052852Y0152103D03*
X0052852Y0152142D03*
X0059624Y0149465D03*
D208*
X0056573Y0133638D03*
X0049132Y0133638D03*
D209*
X0046100Y0133678D03*
X0046100Y0149426D03*
X0052872Y0151788D03*
X0059604Y0149426D03*
D210*
X0049132Y0133678D03*
D211*
X0059624Y0133678D03*
X0052852Y0151827D03*
X0052852Y0151867D03*
X0052852Y0151906D03*
X0052852Y0151945D03*
D212*
X0052872Y0151591D03*
X0052872Y0151552D03*
X0059604Y0149386D03*
X0046100Y0149386D03*
X0046100Y0133717D03*
X0059604Y0133717D03*
D213*
X0049092Y0133717D03*
X0045864Y0150489D03*
D214*
X0052872Y0151355D03*
X0059604Y0133756D03*
X0046100Y0133756D03*
D215*
X0049073Y0133756D03*
D216*
X0046120Y0133796D03*
X0059585Y0133796D03*
X0059585Y0149308D03*
X0052852Y0150961D03*
X0052852Y0151000D03*
X0052852Y0151040D03*
X0052852Y0151079D03*
X0052852Y0151119D03*
X0046120Y0149308D03*
D217*
X0049033Y0133796D03*
X0056671Y0133796D03*
D218*
X0058817Y0133835D03*
X0046888Y0133835D03*
D219*
X0046888Y0133874D03*
X0058817Y0133874D03*
D220*
X0058836Y0133914D03*
X0046868Y0133914D03*
X0052852Y0149741D03*
D221*
X0057616Y0136985D03*
X0057616Y0136945D03*
X0057655Y0136906D03*
X0057655Y0136867D03*
X0048088Y0136906D03*
X0048088Y0136945D03*
X0048049Y0136867D03*
X0048010Y0136788D03*
X0046868Y0133953D03*
D222*
X0058856Y0133953D03*
D223*
X0058856Y0133993D03*
X0057754Y0136709D03*
X0057714Y0136748D03*
X0057714Y0136788D03*
X0057675Y0136827D03*
X0057596Y0137024D03*
X0048108Y0137024D03*
X0048108Y0136985D03*
X0048108Y0137063D03*
X0048029Y0136827D03*
X0047990Y0136748D03*
X0046848Y0133993D03*
D224*
X0046829Y0134032D03*
X0047892Y0136591D03*
X0047931Y0136630D03*
X0047931Y0136670D03*
X0047970Y0136709D03*
X0057616Y0137063D03*
X0057773Y0136670D03*
X0057773Y0136630D03*
X0057813Y0136591D03*
X0058876Y0134032D03*
D225*
X0058876Y0134071D03*
X0058010Y0136237D03*
X0057970Y0136315D03*
X0057931Y0136355D03*
X0057931Y0136394D03*
X0057616Y0137182D03*
X0048128Y0137182D03*
X0047813Y0136433D03*
X0047773Y0136355D03*
X0047734Y0136315D03*
X0047734Y0136276D03*
X0046829Y0134071D03*
X0052852Y0149701D03*
D226*
X0048108Y0137260D03*
X0048108Y0137221D03*
X0047714Y0136237D03*
X0047675Y0136197D03*
X0047675Y0136158D03*
X0047636Y0136119D03*
X0046809Y0134111D03*
X0057596Y0137221D03*
X0057990Y0136276D03*
X0058029Y0136197D03*
X0058069Y0136119D03*
X0058896Y0134111D03*
D227*
X0058226Y0135843D03*
X0058187Y0135922D03*
X0058148Y0135961D03*
X0057596Y0137300D03*
X0057596Y0137339D03*
X0048108Y0137339D03*
X0048108Y0137300D03*
X0047596Y0136040D03*
X0047557Y0135961D03*
X0047518Y0135922D03*
X0047518Y0135882D03*
X0046809Y0134150D03*
D228*
X0047577Y0136000D03*
X0047616Y0136079D03*
X0057616Y0137260D03*
X0058049Y0136158D03*
X0058088Y0136079D03*
X0058128Y0136040D03*
X0058128Y0136000D03*
X0058915Y0134150D03*
D229*
X0058915Y0134189D03*
X0058285Y0135725D03*
X0058285Y0135764D03*
X0058246Y0135804D03*
X0058207Y0135882D03*
X0057616Y0137378D03*
X0048128Y0137378D03*
X0047498Y0135843D03*
X0047459Y0135804D03*
X0047459Y0135764D03*
X0047419Y0135725D03*
X0047380Y0135646D03*
X0046789Y0134189D03*
X0052852Y0149662D03*
D230*
X0058246Y0143835D03*
X0058285Y0143796D03*
X0057616Y0137457D03*
X0058403Y0135528D03*
X0058403Y0135489D03*
X0058443Y0135449D03*
X0058482Y0135370D03*
X0047340Y0135567D03*
X0047301Y0135489D03*
X0047262Y0135449D03*
X0047262Y0135410D03*
X0046789Y0134229D03*
X0047380Y0139308D03*
X0047340Y0139347D03*
X0047380Y0143756D03*
X0047419Y0143796D03*
X0047459Y0143835D03*
D231*
X0048108Y0137457D03*
X0048108Y0137418D03*
X0047399Y0135685D03*
X0047360Y0135607D03*
X0047321Y0135528D03*
X0057596Y0137418D03*
X0058305Y0135685D03*
X0058344Y0135646D03*
X0058344Y0135607D03*
X0058384Y0135567D03*
X0058935Y0134229D03*
D232*
X0058935Y0134268D03*
X0058541Y0135252D03*
X0058541Y0135292D03*
X0058502Y0135331D03*
X0058462Y0135410D03*
X0057596Y0137496D03*
X0057596Y0137536D03*
X0058305Y0139268D03*
X0058344Y0139308D03*
X0058384Y0139347D03*
X0058423Y0139386D03*
X0058344Y0143756D03*
X0058226Y0143874D03*
X0058187Y0143914D03*
X0048108Y0137536D03*
X0048108Y0137496D03*
X0047439Y0139229D03*
X0047399Y0139268D03*
X0047242Y0135370D03*
X0047203Y0135331D03*
X0047163Y0135252D03*
X0046770Y0134268D03*
X0047478Y0143874D03*
X0047518Y0143914D03*
D233*
X0047537Y0143953D03*
X0047577Y0143993D03*
X0047301Y0139386D03*
X0047459Y0139189D03*
X0048128Y0137575D03*
X0047183Y0135292D03*
X0047144Y0135213D03*
X0047104Y0135174D03*
X0047104Y0135134D03*
X0046750Y0134308D03*
X0057616Y0137575D03*
X0058246Y0139189D03*
X0058285Y0139229D03*
X0058561Y0135213D03*
X0058600Y0135174D03*
X0058640Y0135095D03*
X0058955Y0134308D03*
X0058167Y0143953D03*
D234*
X0058088Y0144071D03*
X0057616Y0137654D03*
X0058679Y0135016D03*
X0058718Y0134937D03*
X0058758Y0134898D03*
X0058758Y0134859D03*
X0058955Y0134347D03*
X0048128Y0137654D03*
X0047537Y0139111D03*
X0046986Y0134937D03*
X0046986Y0134898D03*
X0046947Y0134859D03*
X0046907Y0134780D03*
X0046750Y0134386D03*
X0046750Y0134347D03*
X0047616Y0144032D03*
X0047655Y0144071D03*
X0052852Y0149622D03*
D235*
X0047675Y0144111D03*
X0047557Y0139071D03*
X0047596Y0139032D03*
X0048108Y0137733D03*
X0048108Y0137693D03*
X0046927Y0134819D03*
X0046888Y0134741D03*
X0057596Y0137693D03*
X0057596Y0137733D03*
X0058148Y0139071D03*
X0058541Y0139426D03*
X0058777Y0134819D03*
X0058817Y0134780D03*
X0058817Y0134741D03*
X0058856Y0134701D03*
X0058896Y0134622D03*
X0058974Y0134426D03*
X0058974Y0134386D03*
X0058029Y0144111D03*
D236*
X0058010Y0144150D03*
X0058128Y0139032D03*
X0058088Y0138993D03*
X0058876Y0134662D03*
X0058915Y0134583D03*
X0058955Y0134504D03*
X0058955Y0134465D03*
X0048128Y0137772D03*
X0047616Y0138993D03*
X0047183Y0139426D03*
X0046868Y0134701D03*
X0046829Y0134662D03*
X0046829Y0134622D03*
X0046789Y0134583D03*
X0046789Y0134544D03*
X0046750Y0134504D03*
X0046750Y0134465D03*
X0046750Y0134426D03*
X0047695Y0144150D03*
D237*
X0047754Y0144189D03*
X0047163Y0143678D03*
X0047675Y0138953D03*
X0048108Y0137811D03*
X0057596Y0137811D03*
X0057596Y0137772D03*
X0058069Y0138953D03*
X0058935Y0134544D03*
X0057951Y0144189D03*
D238*
X0058108Y0144032D03*
X0058148Y0143993D03*
X0058423Y0143717D03*
X0058226Y0139150D03*
X0058187Y0139111D03*
X0057596Y0137615D03*
X0058620Y0135134D03*
X0058659Y0135056D03*
X0058699Y0134977D03*
X0048108Y0137615D03*
X0047518Y0139150D03*
X0047085Y0135095D03*
X0047045Y0135056D03*
X0047045Y0135016D03*
X0047006Y0134977D03*
X0047281Y0143717D03*
D239*
X0048108Y0137142D03*
X0048108Y0137103D03*
X0047872Y0136552D03*
X0047872Y0136512D03*
X0047833Y0136473D03*
X0047793Y0136394D03*
X0057596Y0137103D03*
X0057596Y0137142D03*
X0057833Y0136552D03*
X0057872Y0136512D03*
X0057872Y0136473D03*
X0057911Y0136433D03*
D240*
X0057616Y0137851D03*
X0058010Y0138914D03*
X0058561Y0143678D03*
X0057931Y0144229D03*
X0052852Y0149583D03*
X0047773Y0144229D03*
X0047695Y0138914D03*
X0048128Y0137851D03*
D241*
X0048108Y0137890D03*
X0048108Y0137930D03*
X0047714Y0138874D03*
X0047833Y0144268D03*
X0057596Y0137930D03*
X0057596Y0137890D03*
X0057990Y0138874D03*
D242*
X0057892Y0144268D03*
X0057852Y0144308D03*
X0047852Y0144308D03*
X0047773Y0138835D03*
X0048128Y0137969D03*
D243*
X0048108Y0138008D03*
X0047833Y0138756D03*
X0047793Y0138796D03*
X0047045Y0139465D03*
X0047911Y0144347D03*
X0057596Y0138008D03*
X0057596Y0137969D03*
X0057911Y0138796D03*
X0057951Y0138835D03*
X0058659Y0139465D03*
D244*
X0057892Y0138756D03*
X0057616Y0138048D03*
X0058679Y0143638D03*
X0057813Y0144347D03*
X0048128Y0138048D03*
X0047025Y0143638D03*
D245*
X0047951Y0144386D03*
X0047872Y0138717D03*
X0048108Y0138087D03*
X0057596Y0138087D03*
X0057596Y0138126D03*
X0057833Y0138717D03*
X0057754Y0144386D03*
X0052872Y0149544D03*
D246*
X0057813Y0138678D03*
X0048128Y0138166D03*
X0048128Y0138126D03*
X0047892Y0138678D03*
D247*
X0047951Y0138638D03*
X0048108Y0138205D03*
X0046927Y0139504D03*
X0047990Y0144426D03*
X0057714Y0144426D03*
X0058777Y0139504D03*
X0057596Y0138205D03*
X0057596Y0138166D03*
D248*
X0057734Y0138599D03*
X0057773Y0138638D03*
X0058797Y0143599D03*
X0057655Y0144465D03*
X0048049Y0144465D03*
X0046907Y0143599D03*
X0048128Y0138245D03*
D249*
X0048108Y0138284D03*
X0048029Y0138559D03*
X0047990Y0138599D03*
X0057596Y0138323D03*
X0057596Y0138284D03*
X0057596Y0138245D03*
D250*
X0057655Y0138520D03*
X0057695Y0138559D03*
X0057616Y0144504D03*
X0052852Y0149504D03*
X0048088Y0144504D03*
X0048128Y0138363D03*
X0048128Y0138323D03*
D251*
X0048108Y0138402D03*
X0048108Y0138441D03*
X0048069Y0138481D03*
X0048069Y0138520D03*
X0046809Y0139544D03*
X0048148Y0144544D03*
X0057636Y0138481D03*
X0057636Y0138441D03*
X0057596Y0138402D03*
X0057596Y0138363D03*
D252*
X0058915Y0139544D03*
X0057577Y0144544D03*
D253*
X0059033Y0139583D03*
X0048285Y0144622D03*
X0046671Y0139583D03*
D254*
X0046573Y0139622D03*
D255*
X0052852Y0149426D03*
X0059151Y0139622D03*
D256*
X0046455Y0139662D03*
D257*
X0059270Y0139662D03*
D258*
X0059388Y0139701D03*
X0052852Y0149347D03*
X0046317Y0139701D03*
D259*
X0046218Y0139741D03*
D260*
X0052852Y0149308D03*
X0059506Y0139741D03*
D261*
X0059624Y0139780D03*
X0052852Y0149268D03*
X0046081Y0139780D03*
D262*
X0045962Y0139819D03*
X0052852Y0149229D03*
X0059742Y0139819D03*
D263*
X0059880Y0139859D03*
X0060273Y0140804D03*
X0060273Y0140843D03*
X0060273Y0140882D03*
X0060273Y0140922D03*
X0060273Y0140961D03*
X0060273Y0142103D03*
X0060273Y0142142D03*
X0060273Y0142182D03*
X0060273Y0142221D03*
X0060273Y0142260D03*
X0052872Y0149189D03*
X0045431Y0142221D03*
X0045431Y0142182D03*
X0045431Y0142142D03*
X0045431Y0142103D03*
X0045431Y0142063D03*
X0045431Y0141000D03*
X0045431Y0140961D03*
X0045431Y0140922D03*
X0045431Y0140882D03*
X0045431Y0140843D03*
X0045864Y0139859D03*
D264*
X0045726Y0139898D03*
X0045529Y0140252D03*
X0045529Y0140292D03*
X0045529Y0140331D03*
X0045529Y0142772D03*
X0045529Y0142811D03*
X0052852Y0149150D03*
X0060175Y0142851D03*
X0060175Y0142811D03*
X0060175Y0142772D03*
X0060175Y0140292D03*
X0060175Y0140252D03*
X0059978Y0139898D03*
D265*
X0060057Y0139937D03*
X0060136Y0140095D03*
X0060136Y0140134D03*
X0060136Y0142969D03*
X0060136Y0143008D03*
X0045569Y0142969D03*
X0045569Y0142930D03*
X0045569Y0140134D03*
X0045569Y0140095D03*
X0045648Y0139937D03*
D266*
X0045628Y0139977D03*
X0045588Y0140016D03*
X0045588Y0140056D03*
X0045588Y0143008D03*
X0045588Y0143048D03*
X0045628Y0143126D03*
X0045667Y0143166D03*
X0060077Y0143126D03*
X0060116Y0143087D03*
X0060116Y0143048D03*
X0060116Y0140056D03*
X0060116Y0140016D03*
X0060077Y0139977D03*
D267*
X0060155Y0140174D03*
X0060155Y0140213D03*
X0060155Y0142890D03*
X0060155Y0142930D03*
X0059998Y0143205D03*
X0045707Y0143205D03*
X0045549Y0142890D03*
X0045549Y0142851D03*
X0045549Y0140213D03*
X0045549Y0140174D03*
D268*
X0045510Y0140370D03*
X0045510Y0140410D03*
X0045510Y0142654D03*
X0045510Y0142693D03*
X0045510Y0142733D03*
X0060195Y0142733D03*
X0060195Y0142693D03*
X0060195Y0140370D03*
X0060195Y0140331D03*
D269*
X0060214Y0140410D03*
X0060214Y0140449D03*
X0060214Y0140489D03*
X0060214Y0142575D03*
X0060214Y0142615D03*
X0060214Y0142654D03*
X0045490Y0142615D03*
X0045490Y0142575D03*
X0045490Y0142536D03*
X0045490Y0140528D03*
X0045490Y0140489D03*
X0045490Y0140449D03*
D270*
X0045470Y0140567D03*
X0045470Y0140607D03*
X0045470Y0140646D03*
X0045470Y0142418D03*
X0045470Y0142457D03*
X0045470Y0142496D03*
X0045825Y0143245D03*
X0059880Y0143245D03*
X0060234Y0142536D03*
X0060234Y0142496D03*
X0060234Y0142457D03*
X0060234Y0140607D03*
X0060234Y0140567D03*
X0060234Y0140528D03*
D271*
X0060254Y0140646D03*
X0060254Y0140685D03*
X0060254Y0140725D03*
X0060254Y0140764D03*
X0060254Y0142300D03*
X0060254Y0142339D03*
X0060254Y0142378D03*
X0060254Y0142418D03*
X0045451Y0142378D03*
X0045451Y0142339D03*
X0045451Y0142300D03*
X0045451Y0142260D03*
X0045451Y0140804D03*
X0045451Y0140764D03*
X0045451Y0140725D03*
X0045451Y0140685D03*
D272*
X0045411Y0141040D03*
X0045411Y0141079D03*
X0045411Y0141119D03*
X0045411Y0141158D03*
X0045411Y0141197D03*
X0045411Y0141237D03*
X0045411Y0141276D03*
X0045411Y0141315D03*
X0045411Y0141355D03*
X0045411Y0141394D03*
X0045411Y0141670D03*
X0045411Y0141709D03*
X0045411Y0141748D03*
X0045411Y0141788D03*
X0045411Y0141827D03*
X0045411Y0141867D03*
X0045411Y0141906D03*
X0045411Y0141945D03*
X0045411Y0141985D03*
X0045411Y0142024D03*
X0060293Y0142024D03*
X0060293Y0141985D03*
X0060293Y0141945D03*
X0060293Y0141906D03*
X0060293Y0141867D03*
X0060293Y0141827D03*
X0060293Y0142063D03*
X0060293Y0141237D03*
X0060293Y0141197D03*
X0060293Y0141158D03*
X0060293Y0141119D03*
X0060293Y0141079D03*
X0060293Y0141040D03*
X0060293Y0141000D03*
D273*
X0060313Y0141276D03*
X0060313Y0141315D03*
X0060313Y0141355D03*
X0060313Y0141394D03*
X0060313Y0141433D03*
X0060313Y0141473D03*
X0060313Y0141512D03*
X0060313Y0141552D03*
X0060313Y0141591D03*
X0060313Y0141630D03*
X0060313Y0141670D03*
X0060313Y0141709D03*
X0060313Y0141748D03*
X0060313Y0141788D03*
X0045392Y0141630D03*
X0045392Y0141591D03*
X0045392Y0141552D03*
X0045392Y0141512D03*
X0045392Y0141473D03*
X0045392Y0141433D03*
D274*
X0045608Y0143087D03*
X0060057Y0143166D03*
D275*
X0045962Y0143284D03*
D276*
X0059762Y0143284D03*
D277*
X0059644Y0143323D03*
X0046061Y0143323D03*
D278*
X0046199Y0143363D03*
D279*
X0059525Y0143363D03*
D280*
X0046317Y0143402D03*
D281*
X0059407Y0143402D03*
D282*
X0059289Y0143441D03*
X0046415Y0143441D03*
D283*
X0046553Y0143481D03*
D284*
X0048423Y0144701D03*
X0057281Y0144701D03*
X0059171Y0143481D03*
D285*
X0059033Y0143520D03*
X0046671Y0143520D03*
D286*
X0046789Y0143559D03*
X0048207Y0144583D03*
X0057498Y0144583D03*
D287*
X0058935Y0143559D03*
D288*
X0057439Y0144622D03*
D289*
X0057360Y0144662D03*
X0048344Y0144662D03*
D290*
X0048561Y0144741D03*
X0057144Y0144741D03*
D291*
X0052852Y0144780D03*
X0052852Y0146788D03*
X0052852Y0146827D03*
D292*
X0052872Y0144819D03*
D293*
X0052852Y0144859D03*
X0052852Y0146748D03*
D294*
X0052872Y0144898D03*
D295*
X0052852Y0144937D03*
X0052852Y0144977D03*
X0052852Y0146709D03*
D296*
X0052852Y0146630D03*
X0052852Y0145056D03*
X0052852Y0145016D03*
D297*
X0052872Y0145095D03*
D298*
X0052852Y0145134D03*
X0052852Y0146591D03*
D299*
X0052872Y0146552D03*
X0052872Y0145174D03*
D300*
X0052852Y0145213D03*
X0052852Y0145252D03*
X0052852Y0146512D03*
D301*
X0052852Y0146473D03*
X0052852Y0145331D03*
X0052852Y0145292D03*
D302*
X0052872Y0145370D03*
X0052872Y0146433D03*
D303*
X0052852Y0146394D03*
X0052852Y0145410D03*
D304*
X0052872Y0145449D03*
D305*
X0052852Y0145489D03*
X0052852Y0145528D03*
X0052852Y0146355D03*
D306*
X0052852Y0146276D03*
X0052852Y0145607D03*
X0052852Y0145567D03*
D307*
X0052872Y0145646D03*
D308*
X0052852Y0145685D03*
X0052852Y0146237D03*
D309*
X0052872Y0146197D03*
X0052872Y0145725D03*
D310*
X0052852Y0145764D03*
X0052852Y0145804D03*
X0052852Y0146158D03*
D311*
X0052852Y0146119D03*
X0052852Y0145882D03*
X0052852Y0145843D03*
D312*
X0052872Y0145922D03*
X0052872Y0146079D03*
D313*
X0052852Y0146040D03*
X0052852Y0146000D03*
X0052852Y0145961D03*
D314*
X0052872Y0146315D03*
D315*
X0052872Y0146670D03*
D316*
X0052852Y0146867D03*
D317*
X0052852Y0146906D03*
D318*
X0052872Y0146945D03*
D319*
X0052852Y0146985D03*
D320*
X0052852Y0147024D03*
D321*
X0052872Y0147063D03*
D322*
X0052852Y0147103D03*
D323*
X0052852Y0147142D03*
D324*
X0052872Y0147182D03*
D325*
X0052852Y0147221D03*
D326*
X0052852Y0147260D03*
D327*
X0052872Y0147300D03*
D328*
X0052852Y0147339D03*
D329*
X0052852Y0147378D03*
D330*
X0052852Y0147418D03*
X0052852Y0147457D03*
D331*
X0052852Y0147496D03*
D332*
X0052852Y0147536D03*
D333*
X0052872Y0147575D03*
D334*
X0052852Y0147615D03*
D335*
X0052852Y0147654D03*
D336*
X0052872Y0147693D03*
D337*
X0052852Y0147733D03*
D338*
X0052852Y0147772D03*
D339*
X0052872Y0147811D03*
D340*
X0052852Y0147851D03*
D341*
X0052852Y0147890D03*
D342*
X0052872Y0147930D03*
D343*
X0052852Y0147969D03*
D344*
X0052852Y0148008D03*
X0052852Y0149111D03*
D345*
X0052852Y0149071D03*
X0052852Y0148087D03*
X0052852Y0148048D03*
D346*
X0052852Y0148126D03*
X0052852Y0149032D03*
D347*
X0052852Y0148993D03*
X0052852Y0148166D03*
D348*
X0052872Y0148205D03*
D349*
X0052852Y0148245D03*
X0052852Y0148953D03*
D350*
X0052852Y0148914D03*
X0052852Y0148284D03*
D351*
X0052872Y0148323D03*
D352*
X0052852Y0148363D03*
X0052852Y0148874D03*
D353*
X0052852Y0148835D03*
X0052852Y0148402D03*
D354*
X0052872Y0148441D03*
D355*
X0052852Y0148481D03*
X0052852Y0148796D03*
D356*
X0052852Y0148756D03*
X0052852Y0148520D03*
D357*
X0052872Y0148559D03*
X0052872Y0148717D03*
D358*
X0052852Y0148678D03*
X0052852Y0148638D03*
X0052852Y0148599D03*
D359*
X0046179Y0149150D03*
D360*
X0052852Y0150056D03*
X0052852Y0150095D03*
X0059545Y0149150D03*
D361*
X0052852Y0150134D03*
X0052852Y0150174D03*
X0052852Y0150213D03*
X0052852Y0150252D03*
X0046159Y0149189D03*
D362*
X0052872Y0150292D03*
X0059565Y0149189D03*
D363*
X0059565Y0149229D03*
X0052872Y0150489D03*
X0052872Y0150528D03*
X0046140Y0149229D03*
D364*
X0046140Y0149268D03*
X0052872Y0150725D03*
D365*
X0052852Y0150764D03*
X0052852Y0150804D03*
X0052852Y0150843D03*
X0052852Y0150882D03*
X0059585Y0149268D03*
D366*
X0059585Y0149347D03*
X0052852Y0151197D03*
X0052852Y0151237D03*
X0052852Y0151276D03*
X0052852Y0151315D03*
X0046120Y0149347D03*
D367*
X0052852Y0149386D03*
D368*
X0052872Y0149465D03*
D369*
X0052852Y0152457D03*
X0052852Y0152496D03*
X0052852Y0152536D03*
X0052852Y0152575D03*
X0046081Y0149544D03*
D370*
X0046061Y0149622D03*
X0052872Y0153048D03*
D371*
X0052852Y0153205D03*
X0046041Y0149701D03*
D372*
X0046022Y0149780D03*
X0059683Y0149780D03*
D373*
X0052852Y0149780D03*
D374*
X0052872Y0149819D03*
D375*
X0052852Y0149859D03*
D376*
X0052872Y0149898D03*
D377*
X0052852Y0149937D03*
D378*
X0045982Y0149977D03*
D379*
X0052852Y0149977D03*
D380*
X0052852Y0150016D03*
D381*
X0045962Y0150056D03*
D382*
X0045943Y0150134D03*
D383*
X0045923Y0150213D03*
X0059781Y0150213D03*
D384*
X0052852Y0150331D03*
X0052852Y0150370D03*
X0052852Y0150410D03*
X0052852Y0150449D03*
D385*
X0045844Y0150567D03*
D386*
X0052852Y0150567D03*
X0052852Y0150607D03*
X0052852Y0150646D03*
X0052852Y0150685D03*
D387*
X0045825Y0150646D03*
D388*
X0045805Y0150725D03*
X0059899Y0150725D03*
D389*
X0052872Y0150922D03*
D390*
X0052872Y0151158D03*
D391*
X0052852Y0151394D03*
X0052852Y0151433D03*
X0052852Y0151473D03*
X0052852Y0151512D03*
D392*
X0052852Y0151630D03*
X0052852Y0151670D03*
X0052852Y0151709D03*
X0052852Y0151748D03*
D393*
X0052872Y0151985D03*
D394*
X0052872Y0152182D03*
X0052872Y0152221D03*
D395*
X0052852Y0152654D03*
X0052852Y0152693D03*
X0052852Y0152733D03*
X0052852Y0152772D03*
X0052852Y0152811D03*
D396*
X0052872Y0153166D03*
D397*
X0032380Y0129583D02*
X0029880Y0129583D01*
X0029880Y0127083D01*
X0029880Y0129583D02*
X0034880Y0124583D01*
X0034880Y0119583D01*
X0035046Y0151500D02*
X0035061Y0152718D01*
X0035105Y0153934D01*
X0035179Y0155150D01*
X0035283Y0156363D01*
X0035416Y0157573D01*
X0035579Y0158780D01*
X0035771Y0159982D01*
X0035992Y0161180D01*
X0036242Y0162372D01*
X0036521Y0163557D01*
X0036829Y0164735D01*
X0037166Y0165905D01*
X0037531Y0167067D01*
X0037924Y0168219D01*
X0038345Y0169362D01*
X0038794Y0170493D01*
X0039270Y0171614D01*
X0039774Y0172723D01*
X0040304Y0173819D01*
X0040861Y0174902D01*
X0041444Y0175971D01*
X0042052Y0177025D01*
X0042687Y0178065D01*
X0043346Y0179088D01*
X0044030Y0180096D01*
X0044739Y0181086D01*
X0045471Y0182059D01*
X0046227Y0183013D01*
X0047006Y0183949D01*
X0047807Y0184866D01*
X0048631Y0185763D01*
X0049476Y0186639D01*
X0050342Y0187495D01*
X0051229Y0188330D01*
X0052136Y0189142D01*
X0053062Y0189932D01*
X0054008Y0190700D01*
X0054971Y0191444D01*
X0055953Y0192164D01*
X0056952Y0192861D01*
X0057967Y0193533D01*
X0058999Y0194180D01*
X0060046Y0194801D01*
X0061108Y0195397D01*
X0062184Y0195967D01*
X0063273Y0196511D01*
X0064376Y0197027D01*
X0065491Y0197517D01*
X0066617Y0197980D01*
X0067754Y0198415D01*
X0068902Y0198822D01*
X0070059Y0199201D01*
X0071225Y0199552D01*
X0072399Y0199874D01*
X0073581Y0200168D01*
X0074770Y0200433D01*
X0075964Y0200668D01*
X0077164Y0200875D01*
X0078369Y0201052D01*
X0079577Y0201200D01*
X0080789Y0201318D01*
X0082004Y0201407D01*
X0083220Y0201467D01*
X0084437Y0201496D01*
X0085655Y0201496D01*
X0086872Y0201467D01*
X0088088Y0201407D01*
X0089303Y0201318D01*
X0090515Y0201200D01*
X0091723Y0201052D01*
X0092928Y0200875D01*
X0094128Y0200668D01*
X0095322Y0200433D01*
X0096511Y0200168D01*
X0097693Y0199874D01*
X0098867Y0199552D01*
X0100033Y0199201D01*
X0101190Y0198822D01*
X0102338Y0198415D01*
X0103475Y0197980D01*
X0104601Y0197517D01*
X0105716Y0197027D01*
X0106819Y0196511D01*
X0107908Y0195967D01*
X0108984Y0195397D01*
X0110046Y0194801D01*
X0111093Y0194180D01*
X0112125Y0193533D01*
X0113140Y0192861D01*
X0114139Y0192164D01*
X0115121Y0191444D01*
X0116084Y0190700D01*
X0117030Y0189932D01*
X0117956Y0189142D01*
X0118863Y0188330D01*
X0119750Y0187495D01*
X0120616Y0186639D01*
X0121461Y0185763D01*
X0122285Y0184866D01*
X0123086Y0183949D01*
X0123865Y0183013D01*
X0124621Y0182059D01*
X0125353Y0181086D01*
X0126062Y0180096D01*
X0126746Y0179088D01*
X0127405Y0178065D01*
X0128040Y0177025D01*
X0128648Y0175971D01*
X0129231Y0174902D01*
X0129788Y0173819D01*
X0130318Y0172723D01*
X0130822Y0171614D01*
X0131298Y0170493D01*
X0131747Y0169362D01*
X0132168Y0168219D01*
X0132561Y0167067D01*
X0132926Y0165905D01*
X0133263Y0164735D01*
X0133571Y0163557D01*
X0133850Y0162372D01*
X0134100Y0161180D01*
X0134321Y0159982D01*
X0134513Y0158780D01*
X0134676Y0157573D01*
X0134809Y0156363D01*
X0134913Y0155150D01*
X0134987Y0153934D01*
X0135031Y0152718D01*
X0135046Y0151500D01*
X0109880Y0187083D02*
X0107380Y0189583D01*
X0099880Y0189583D01*
X0102380Y0192083D01*
X0099880Y0189583D02*
X0102380Y0187083D01*
X0069880Y0189583D02*
X0067380Y0192083D01*
X0069880Y0189583D02*
X0067380Y0187083D01*
X0069880Y0189583D02*
X0062380Y0189583D01*
X0035046Y0151499D02*
X0033429Y0150255D01*
X0031842Y0148971D01*
X0030287Y0147649D01*
X0028765Y0146289D01*
X0027277Y0144893D01*
X0025824Y0143460D01*
X0024406Y0141992D01*
X0023024Y0140490D01*
X0021680Y0138955D01*
X0020374Y0137387D01*
X0019106Y0135787D01*
X0017878Y0134157D01*
X0016690Y0132497D01*
X0015544Y0130809D01*
X0014439Y0129093D01*
X0013376Y0127351D01*
X0012356Y0125583D01*
X0011380Y0123791D01*
X0010448Y0121975D01*
X0009561Y0120137D01*
X0008719Y0118278D01*
X0007923Y0116399D01*
X0007173Y0114501D01*
X0006470Y0112585D01*
X0005814Y0110652D01*
X0005205Y0108704D01*
X0004645Y0106742D01*
X0004132Y0104766D01*
X0003668Y0102779D01*
X0003253Y0100781D01*
X0002887Y0098773D01*
X0002570Y0096757D01*
X0002303Y0094734D01*
X0002086Y0092704D01*
X0001918Y0090670D01*
X0001800Y0088633D01*
X0001732Y0086593D01*
X0001713Y0084552D01*
X0001745Y0082512D01*
X0001827Y0080473D01*
X0001959Y0078436D01*
X0002140Y0076403D01*
X0002372Y0074376D01*
X0002653Y0072354D01*
X0002983Y0070340D01*
X0003362Y0068335D01*
X0003791Y0066339D01*
X0004268Y0064355D01*
X0004794Y0062383D01*
X0005368Y0060425D01*
X0005989Y0058481D01*
X0006658Y0056553D01*
X0007374Y0054642D01*
X0008137Y0052749D01*
X0008946Y0050875D01*
X0009800Y0049021D01*
X0010700Y0047189D01*
X0011644Y0045380D01*
X0012632Y0043594D01*
X0013664Y0041833D01*
X0014738Y0040098D01*
X0015855Y0038390D01*
X0017013Y0036710D01*
X0018212Y0035058D01*
X0019451Y0033436D01*
X0020729Y0031845D01*
X0022046Y0030286D01*
X0023401Y0028760D01*
X0024792Y0027267D01*
X0026220Y0025809D01*
X0027683Y0024386D01*
X0029180Y0022999D01*
X0030711Y0021650D01*
X0032275Y0020338D01*
X0033870Y0019065D01*
X0035496Y0017831D01*
X0037152Y0016638D01*
X0038836Y0015486D01*
X0040548Y0014375D01*
X0042287Y0013306D01*
X0044051Y0012281D01*
X0045840Y0011299D01*
X0047653Y0010361D01*
X0049488Y0009467D01*
X0051344Y0008619D01*
X0053221Y0007817D01*
X0055116Y0007060D01*
X0057030Y0006351D01*
X0058960Y0005688D01*
X0060906Y0005073D01*
X0062866Y0004506D01*
X0064840Y0003987D01*
X0066826Y0003516D01*
X0068823Y0003094D01*
X0070829Y0002722D01*
X0072845Y0002398D01*
X0074867Y0002124D01*
X0076895Y0001900D01*
X0078929Y0001725D01*
X0080966Y0001600D01*
X0083005Y0001525D01*
X0085046Y0001500D01*
X0087087Y0001525D01*
X0089126Y0001600D01*
X0091163Y0001725D01*
X0093197Y0001900D01*
X0095225Y0002124D01*
X0097247Y0002398D01*
X0099263Y0002722D01*
X0101269Y0003094D01*
X0103266Y0003516D01*
X0105252Y0003987D01*
X0107226Y0004506D01*
X0109186Y0005073D01*
X0111132Y0005688D01*
X0113062Y0006351D01*
X0114976Y0007060D01*
X0116871Y0007817D01*
X0118748Y0008619D01*
X0120604Y0009467D01*
X0122439Y0010361D01*
X0124252Y0011299D01*
X0126041Y0012281D01*
X0127805Y0013306D01*
X0129544Y0014375D01*
X0131256Y0015486D01*
X0132940Y0016638D01*
X0134596Y0017831D01*
X0136222Y0019065D01*
X0137817Y0020338D01*
X0139381Y0021650D01*
X0140912Y0022999D01*
X0142409Y0024386D01*
X0143872Y0025809D01*
X0145300Y0027267D01*
X0146691Y0028760D01*
X0148046Y0030286D01*
X0149363Y0031845D01*
X0150641Y0033436D01*
X0151880Y0035058D01*
X0153079Y0036710D01*
X0154237Y0038390D01*
X0155354Y0040098D01*
X0156428Y0041833D01*
X0157460Y0043594D01*
X0158448Y0045380D01*
X0159392Y0047189D01*
X0160292Y0049021D01*
X0161146Y0050875D01*
X0161955Y0052749D01*
X0162718Y0054642D01*
X0163434Y0056553D01*
X0164103Y0058481D01*
X0164724Y0060425D01*
X0165298Y0062383D01*
X0165824Y0064355D01*
X0166301Y0066339D01*
X0166730Y0068335D01*
X0167109Y0070340D01*
X0167439Y0072354D01*
X0167720Y0074376D01*
X0167952Y0076403D01*
X0168133Y0078436D01*
X0168265Y0080473D01*
X0168347Y0082512D01*
X0168379Y0084552D01*
X0168360Y0086593D01*
X0168292Y0088633D01*
X0168174Y0090670D01*
X0168006Y0092704D01*
X0167789Y0094734D01*
X0167522Y0096757D01*
X0167205Y0098773D01*
X0166839Y0100781D01*
X0166424Y0102779D01*
X0165960Y0104766D01*
X0165447Y0106742D01*
X0164887Y0108704D01*
X0164278Y0110652D01*
X0163622Y0112585D01*
X0162919Y0114501D01*
X0162169Y0116399D01*
X0161373Y0118278D01*
X0160531Y0120137D01*
X0159644Y0121975D01*
X0158712Y0123791D01*
X0157736Y0125583D01*
X0156716Y0127351D01*
X0155653Y0129093D01*
X0154548Y0130809D01*
X0153402Y0132497D01*
X0152214Y0134157D01*
X0150986Y0135787D01*
X0149718Y0137387D01*
X0148412Y0138955D01*
X0147068Y0140490D01*
X0145686Y0141992D01*
X0144268Y0143460D01*
X0142815Y0144893D01*
X0141327Y0146289D01*
X0139805Y0147649D01*
X0138250Y0148971D01*
X0136663Y0150255D01*
X0135046Y0151499D01*
X0109880Y0024583D02*
X0102380Y0017083D01*
X0104880Y0017083D01*
X0102380Y0017083D02*
X0102380Y0019583D01*
D398*
X0149053Y0070115D03*
X0142085Y0078028D03*
X0140313Y0079327D03*
X0140077Y0092792D03*
X0144329Y0098933D03*
X0139604Y0102241D03*
X0155903Y0092792D03*
X0157085Y0092792D03*
X0156730Y0095863D03*
D399*
X0156435Y0096217D03*
X0158915Y0096926D03*
X0160569Y0098461D03*
X0157025Y0101650D03*
X0153482Y0098343D03*
X0158443Y0093500D03*
X0153010Y0088894D03*
X0158679Y0082989D03*
X0157025Y0080390D03*
X0155018Y0078619D03*
X0149348Y0070233D03*
X0136002Y0077319D03*
X0132931Y0081808D03*
X0135884Y0094563D03*
D400*
X0135884Y0094445D03*
X0136238Y0095745D03*
X0136356Y0095863D03*
X0134230Y0096453D03*
X0134112Y0096217D03*
X0134112Y0096099D03*
X0139191Y0100823D03*
X0139191Y0100941D03*
X0139309Y0100469D03*
X0139309Y0100351D03*
X0139427Y0099878D03*
X0139545Y0102004D03*
X0140018Y0096808D03*
X0140018Y0093028D03*
X0148049Y0095272D03*
X0156435Y0096335D03*
X0158443Y0093619D03*
X0157144Y0099642D03*
X0157262Y0099996D03*
X0157262Y0100115D03*
X0157380Y0100469D03*
X0157380Y0100587D03*
X0157025Y0101532D03*
X0158797Y0082870D03*
X0157025Y0080272D03*
X0154781Y0077437D03*
X0154781Y0077319D03*
X0154899Y0076965D03*
X0155018Y0076493D03*
X0158679Y0075430D03*
X0149585Y0070351D03*
X0147222Y0076256D03*
X0144151Y0076847D03*
X0142262Y0077674D03*
X0136002Y0077201D03*
X0134466Y0078855D03*
X0134703Y0080863D03*
X0134585Y0081099D03*
X0134466Y0081335D03*
X0134348Y0081571D03*
X0134230Y0081808D03*
D401*
X0134466Y0078973D03*
X0139191Y0083343D03*
X0139191Y0083461D03*
X0139427Y0082989D03*
X0142380Y0077556D03*
X0144151Y0076611D03*
X0144151Y0076493D03*
X0144151Y0076374D03*
X0144151Y0076256D03*
X0144033Y0075902D03*
X0144033Y0075784D03*
X0144033Y0075666D03*
X0143915Y0075311D03*
X0143915Y0075193D03*
X0143915Y0075075D03*
X0143797Y0074721D03*
X0143797Y0074603D03*
X0143797Y0074485D03*
X0143797Y0074367D03*
X0143679Y0074130D03*
X0143679Y0074012D03*
X0143679Y0073894D03*
X0143679Y0073776D03*
X0143679Y0073658D03*
X0143679Y0073540D03*
X0143679Y0073422D03*
X0143679Y0073304D03*
X0143679Y0073185D03*
X0143679Y0073067D03*
X0143797Y0072831D03*
X0146868Y0073304D03*
X0146868Y0073422D03*
X0146868Y0073540D03*
X0146986Y0073894D03*
X0146986Y0074012D03*
X0146986Y0074130D03*
X0147104Y0074485D03*
X0147104Y0074603D03*
X0147104Y0074721D03*
X0147104Y0074839D03*
X0147222Y0075075D03*
X0147222Y0075193D03*
X0147222Y0075311D03*
X0147222Y0075430D03*
X0147340Y0075666D03*
X0147340Y0075784D03*
X0147340Y0075902D03*
X0147340Y0076020D03*
X0147104Y0077556D03*
X0148876Y0077556D03*
X0149112Y0075075D03*
X0148994Y0074839D03*
X0148994Y0074721D03*
X0148994Y0074603D03*
X0148994Y0074485D03*
X0148994Y0074367D03*
X0148994Y0074012D03*
X0148994Y0073894D03*
X0148994Y0073776D03*
X0150293Y0071414D03*
X0150175Y0071178D03*
X0150057Y0071059D03*
X0150057Y0070941D03*
X0149939Y0070823D03*
X0149821Y0070587D03*
X0149703Y0070469D03*
X0152892Y0073185D03*
X0153010Y0073304D03*
X0153010Y0073422D03*
X0153010Y0073540D03*
X0153128Y0073776D03*
X0153128Y0073894D03*
X0153128Y0074012D03*
X0153128Y0074130D03*
X0153128Y0074248D03*
X0153010Y0074721D03*
X0155254Y0075666D03*
X0155608Y0074485D03*
X0155608Y0074367D03*
X0155726Y0074130D03*
X0155726Y0074012D03*
X0155726Y0073894D03*
X0155844Y0073776D03*
X0155844Y0073658D03*
X0158679Y0075548D03*
X0157616Y0079445D03*
X0157025Y0080154D03*
X0156553Y0082989D03*
X0156789Y0083343D03*
X0156789Y0083461D03*
X0161868Y0079682D03*
X0161750Y0079445D03*
X0161632Y0079209D03*
X0156789Y0092201D03*
X0158561Y0093737D03*
X0159388Y0095981D03*
X0159151Y0096335D03*
X0158915Y0096689D03*
X0160805Y0097870D03*
X0161041Y0097516D03*
X0161277Y0097162D03*
X0161514Y0096808D03*
X0160569Y0098225D03*
X0156907Y0098697D03*
X0156553Y0097516D03*
X0156553Y0097398D03*
X0156553Y0097280D03*
X0156435Y0097044D03*
X0156435Y0096926D03*
X0156435Y0096808D03*
X0151356Y0099052D03*
X0151592Y0099996D03*
X0151592Y0100115D03*
X0151592Y0100233D03*
X0151592Y0100351D03*
X0151710Y0100587D03*
X0151710Y0100705D03*
X0151710Y0100823D03*
X0151710Y0100941D03*
X0151947Y0102122D03*
X0151947Y0102241D03*
X0152065Y0102477D03*
X0152065Y0102595D03*
X0152065Y0102713D03*
X0152065Y0102831D03*
X0152183Y0103185D03*
X0149466Y0103185D03*
X0149466Y0103067D03*
X0149466Y0102949D03*
X0148876Y0100941D03*
X0148876Y0100823D03*
X0148876Y0100705D03*
X0148876Y0100587D03*
X0148994Y0100351D03*
X0148049Y0098225D03*
X0146632Y0100233D03*
X0146514Y0100587D03*
X0146514Y0100705D03*
X0146514Y0100823D03*
X0146514Y0100941D03*
X0146396Y0101178D03*
X0146396Y0101296D03*
X0146396Y0101414D03*
X0146396Y0101532D03*
X0146277Y0101886D03*
X0146277Y0102004D03*
X0146277Y0102122D03*
X0146277Y0102241D03*
X0146159Y0102595D03*
X0146159Y0102713D03*
X0146159Y0102831D03*
X0146159Y0102949D03*
X0146041Y0103185D03*
X0146041Y0103304D03*
X0146041Y0103422D03*
X0146041Y0103540D03*
X0145923Y0103894D03*
X0145923Y0104012D03*
X0145923Y0104130D03*
X0145923Y0104248D03*
X0139545Y0101886D03*
X0139899Y0098107D03*
X0139899Y0097870D03*
X0139899Y0097752D03*
X0139899Y0097634D03*
X0140018Y0097280D03*
X0140018Y0097162D03*
X0140018Y0097044D03*
X0138482Y0095272D03*
X0138364Y0095036D03*
X0137892Y0094327D03*
X0137773Y0094209D03*
X0139191Y0092201D03*
X0134112Y0095745D03*
X0135293Y0098107D03*
D402*
X0135352Y0097989D03*
X0134171Y0095626D03*
X0136061Y0094209D03*
X0139132Y0092083D03*
X0139132Y0091965D03*
X0142911Y0088894D03*
X0139132Y0083697D03*
X0139132Y0083579D03*
X0137360Y0082162D03*
X0137242Y0082044D03*
X0137124Y0081926D03*
X0137006Y0081808D03*
X0136888Y0081689D03*
X0136770Y0081571D03*
X0136651Y0081453D03*
X0136533Y0081335D03*
X0136415Y0081217D03*
X0134525Y0079091D03*
X0136061Y0076965D03*
X0136179Y0076847D03*
X0136297Y0076729D03*
X0136415Y0076611D03*
X0136533Y0076493D03*
X0137596Y0075430D03*
X0140431Y0073894D03*
X0140313Y0073658D03*
X0140549Y0074130D03*
X0140785Y0074485D03*
X0140903Y0074721D03*
X0141022Y0074957D03*
X0141140Y0075193D03*
X0141258Y0075430D03*
X0141376Y0075666D03*
X0141612Y0076020D03*
X0141730Y0076256D03*
X0141848Y0076493D03*
X0141966Y0076729D03*
X0142085Y0076965D03*
X0142203Y0077201D03*
X0144210Y0076729D03*
X0144092Y0076138D03*
X0144092Y0076020D03*
X0143974Y0075548D03*
X0143974Y0075430D03*
X0143856Y0074957D03*
X0143856Y0074839D03*
X0143738Y0074248D03*
X0143738Y0072949D03*
X0143856Y0072713D03*
X0146691Y0072831D03*
X0146691Y0072949D03*
X0146809Y0073067D03*
X0146809Y0073185D03*
X0146927Y0073658D03*
X0146927Y0073776D03*
X0147045Y0074248D03*
X0147045Y0074367D03*
X0147163Y0074957D03*
X0147281Y0075548D03*
X0147399Y0076138D03*
X0149171Y0075311D03*
X0149171Y0075193D03*
X0149053Y0074957D03*
X0149289Y0075430D03*
X0148935Y0074248D03*
X0148935Y0074130D03*
X0149053Y0073658D03*
X0149053Y0073540D03*
X0149053Y0073422D03*
X0149171Y0073304D03*
X0149171Y0073185D03*
X0149289Y0073067D03*
X0150234Y0071296D03*
X0149880Y0070705D03*
X0152833Y0073067D03*
X0153069Y0073658D03*
X0153069Y0074367D03*
X0153069Y0074485D03*
X0153069Y0074603D03*
X0152951Y0074839D03*
X0152951Y0074957D03*
X0152833Y0075193D03*
X0155549Y0074721D03*
X0156612Y0075548D03*
X0158856Y0082752D03*
X0156848Y0083579D03*
X0156848Y0083697D03*
X0156848Y0083815D03*
X0156848Y0091965D03*
X0156848Y0092083D03*
X0155903Y0093146D03*
X0156612Y0097752D03*
X0161691Y0096453D03*
X0151651Y0100469D03*
X0151770Y0101059D03*
X0151770Y0101178D03*
X0152006Y0102359D03*
X0152124Y0102949D03*
X0152124Y0103067D03*
X0149525Y0103304D03*
X0149053Y0101296D03*
X0148935Y0101178D03*
X0148935Y0101059D03*
X0148935Y0100469D03*
X0146573Y0100469D03*
X0146573Y0100351D03*
X0146455Y0101059D03*
X0146336Y0101650D03*
X0146336Y0101768D03*
X0146218Y0102359D03*
X0146218Y0102477D03*
X0146100Y0103067D03*
X0145982Y0103658D03*
X0145982Y0103776D03*
X0140313Y0078737D03*
D403*
X0140313Y0078619D03*
X0139486Y0077674D03*
X0135352Y0080154D03*
X0135116Y0079800D03*
X0134998Y0079682D03*
X0134880Y0079563D03*
X0134762Y0079445D03*
X0134644Y0079327D03*
X0139014Y0084170D03*
X0139014Y0084288D03*
X0139014Y0084406D03*
X0139014Y0091374D03*
X0139014Y0091493D03*
X0136651Y0093264D03*
X0138423Y0095508D03*
X0141140Y0099052D03*
X0149289Y0100115D03*
X0156966Y0091493D03*
X0156966Y0091374D03*
X0156966Y0091256D03*
X0152951Y0088776D03*
X0156966Y0084406D03*
X0156966Y0084288D03*
X0156966Y0084170D03*
X0152478Y0075666D03*
X0152596Y0075548D03*
X0149525Y0075666D03*
X0149407Y0072831D03*
X0149525Y0072713D03*
X0150470Y0071532D03*
X0155667Y0074957D03*
X0143974Y0072595D03*
X0161573Y0096335D03*
D404*
X0158561Y0093855D03*
X0156907Y0091847D03*
X0156907Y0091729D03*
X0156907Y0091611D03*
X0156553Y0097870D03*
X0155490Y0098579D03*
X0155372Y0098697D03*
X0153482Y0098579D03*
X0157025Y0101414D03*
X0152065Y0103304D03*
X0150411Y0104248D03*
X0150057Y0102122D03*
X0149112Y0100233D03*
X0144978Y0099170D03*
X0143088Y0098815D03*
X0139899Y0098225D03*
X0138482Y0095390D03*
X0140018Y0093146D03*
X0139073Y0091847D03*
X0139073Y0091729D03*
X0139073Y0091611D03*
X0134230Y0095508D03*
X0139073Y0084052D03*
X0139073Y0083933D03*
X0139073Y0083815D03*
X0139545Y0082870D03*
X0139663Y0082752D03*
X0136356Y0081099D03*
X0136238Y0080981D03*
X0136120Y0080863D03*
X0135293Y0080036D03*
X0135175Y0079918D03*
X0134585Y0079209D03*
X0137537Y0075548D03*
X0140490Y0074012D03*
X0140372Y0073776D03*
X0140254Y0073540D03*
X0140608Y0074248D03*
X0140726Y0074367D03*
X0140844Y0074603D03*
X0140962Y0074839D03*
X0141081Y0075075D03*
X0141199Y0075311D03*
X0141317Y0075548D03*
X0141435Y0075784D03*
X0141553Y0075902D03*
X0141671Y0076138D03*
X0141789Y0076374D03*
X0141907Y0076611D03*
X0142025Y0076847D03*
X0142144Y0077083D03*
X0142262Y0077319D03*
X0142380Y0077437D03*
X0146632Y0072713D03*
X0146514Y0072595D03*
X0145333Y0071532D03*
X0149348Y0072949D03*
X0149466Y0075548D03*
X0151120Y0076729D03*
X0152655Y0075430D03*
X0152773Y0075311D03*
X0152892Y0075075D03*
X0152773Y0072949D03*
X0152655Y0072831D03*
X0152537Y0072713D03*
X0155608Y0074839D03*
X0156789Y0075666D03*
X0156907Y0075784D03*
X0155136Y0078382D03*
X0157025Y0080036D03*
X0157144Y0079918D03*
X0157262Y0079800D03*
X0157380Y0079682D03*
X0157498Y0079563D03*
X0156317Y0082752D03*
X0156435Y0082870D03*
X0156907Y0083933D03*
X0156907Y0084052D03*
X0162104Y0080390D03*
D405*
X0161927Y0080626D03*
X0157911Y0076374D03*
X0157557Y0076611D03*
X0155785Y0075193D03*
X0150825Y0071650D03*
X0145273Y0071650D03*
X0140195Y0082280D03*
X0138777Y0085705D03*
X0138777Y0085823D03*
X0138777Y0085941D03*
X0138777Y0086059D03*
X0138777Y0086178D03*
X0138777Y0089367D03*
X0138777Y0089485D03*
X0138777Y0089603D03*
X0138777Y0089721D03*
X0138777Y0089839D03*
X0138777Y0089957D03*
X0140313Y0093500D03*
X0138305Y0095745D03*
X0140195Y0098579D03*
X0139604Y0101532D03*
X0148108Y0090430D03*
X0155667Y0093500D03*
X0157203Y0089839D03*
X0157203Y0089721D03*
X0157203Y0089603D03*
X0157203Y0089485D03*
X0157203Y0089367D03*
X0157203Y0086414D03*
X0157203Y0086296D03*
X0157203Y0086178D03*
X0157203Y0086059D03*
X0157203Y0085941D03*
X0157203Y0085823D03*
X0155785Y0082280D03*
X0156966Y0101178D03*
X0135470Y0080508D03*
D406*
X0135529Y0080745D03*
X0136356Y0083107D03*
X0140608Y0081926D03*
X0137537Y0076020D03*
X0146514Y0077792D03*
X0149466Y0077792D03*
X0151002Y0071768D03*
X0155962Y0075430D03*
X0142970Y0088658D03*
X0138836Y0089130D03*
X0136710Y0093619D03*
X0135057Y0094800D03*
X0135529Y0097516D03*
X0139781Y0101296D03*
X0139899Y0101178D03*
X0146041Y0099996D03*
X0150884Y0099288D03*
X0154191Y0099170D03*
X0156199Y0098461D03*
X0156789Y0100941D03*
X0160451Y0095390D03*
X0155254Y0093855D03*
X0155136Y0093973D03*
X0140726Y0093855D03*
D407*
X0140903Y0093973D03*
X0136770Y0093737D03*
X0134998Y0094918D03*
X0140313Y0098815D03*
X0142203Y0099406D03*
X0148108Y0095154D03*
X0150588Y0104130D03*
X0156730Y0100823D03*
X0159210Y0082280D03*
X0159565Y0082044D03*
X0159801Y0081926D03*
X0160037Y0081808D03*
X0161573Y0080981D03*
X0161809Y0080863D03*
X0155313Y0081926D03*
X0155195Y0081808D03*
X0155313Y0077910D03*
X0155431Y0077792D03*
X0145273Y0071768D03*
X0140785Y0081808D03*
D408*
X0141199Y0081453D03*
X0146277Y0077910D03*
X0145333Y0071886D03*
X0151002Y0071886D03*
X0155608Y0077556D03*
X0157970Y0076020D03*
X0152892Y0088422D03*
X0145569Y0099406D03*
X0142262Y0099288D03*
X0141317Y0094327D03*
X0137419Y0096099D03*
X0136829Y0094091D03*
X0136829Y0093973D03*
X0135648Y0097280D03*
X0139073Y0088894D03*
X0137537Y0076256D03*
D409*
X0145273Y0072004D03*
X0150943Y0072004D03*
X0158029Y0075902D03*
X0152006Y0081808D03*
X0152006Y0081926D03*
X0152006Y0082044D03*
X0152006Y0082162D03*
X0152006Y0082280D03*
X0152833Y0088304D03*
X0144565Y0082752D03*
X0139250Y0088658D03*
X0141730Y0094682D03*
X0142203Y0099170D03*
X0145746Y0099524D03*
X0145746Y0099642D03*
X0145746Y0099760D03*
X0150470Y0099642D03*
X0150943Y0102004D03*
X0150825Y0104012D03*
X0135707Y0097162D03*
D410*
X0142380Y0095154D03*
X0150411Y0099878D03*
X0152773Y0088067D03*
X0151829Y0082516D03*
X0151002Y0072122D03*
X0145214Y0072241D03*
X0142262Y0080626D03*
X0134112Y0082162D03*
D411*
X0139368Y0088540D03*
X0142085Y0094918D03*
X0142203Y0095036D03*
X0147990Y0098107D03*
X0150470Y0099760D03*
X0151888Y0082398D03*
X0149998Y0078146D03*
X0151061Y0076256D03*
X0145982Y0078146D03*
X0142085Y0080745D03*
X0141966Y0080863D03*
X0144447Y0082870D03*
X0145273Y0072122D03*
D412*
X0151002Y0072241D03*
X0150175Y0078264D03*
X0151710Y0082634D03*
X0151710Y0082752D03*
X0152773Y0087949D03*
X0145805Y0078264D03*
X0142734Y0080272D03*
X0142616Y0080390D03*
X0135766Y0082989D03*
X0142852Y0095508D03*
X0150648Y0101768D03*
X0151002Y0103894D03*
D413*
X0150884Y0103540D03*
X0150529Y0101650D03*
X0150411Y0101414D03*
X0152419Y0095981D03*
X0152655Y0087713D03*
X0151592Y0083107D03*
X0151592Y0082989D03*
X0150293Y0078382D03*
X0145687Y0078382D03*
X0143443Y0079800D03*
X0143088Y0080036D03*
X0144388Y0083225D03*
X0151002Y0072359D03*
X0143207Y0095745D03*
X0143561Y0095981D03*
D414*
X0142675Y0095390D03*
X0142557Y0095272D03*
X0139486Y0088422D03*
X0144447Y0082989D03*
X0142439Y0080508D03*
X0145273Y0072359D03*
X0151061Y0076138D03*
X0148108Y0090666D03*
X0150707Y0101886D03*
D415*
X0150648Y0097044D03*
X0150884Y0096926D03*
X0151120Y0096808D03*
X0151356Y0096689D03*
X0151474Y0096571D03*
X0151710Y0096453D03*
X0152655Y0095745D03*
X0148167Y0090784D03*
X0152655Y0087595D03*
X0151474Y0083461D03*
X0152537Y0079918D03*
X0152183Y0079563D03*
X0151829Y0079327D03*
X0151592Y0079209D03*
X0151474Y0079091D03*
X0151238Y0078973D03*
X0150648Y0078619D03*
X0145569Y0078500D03*
X0145333Y0078619D03*
X0145096Y0078737D03*
X0144742Y0078973D03*
X0144506Y0079091D03*
X0144151Y0079327D03*
X0151002Y0072477D03*
X0144270Y0096453D03*
X0144506Y0096571D03*
X0144624Y0096689D03*
X0144860Y0096808D03*
X0145096Y0096926D03*
X0145333Y0097044D03*
X0145451Y0097162D03*
D416*
X0143029Y0099052D03*
X0142085Y0099760D03*
X0141966Y0099878D03*
X0141848Y0099996D03*
X0141494Y0100233D03*
X0141376Y0100351D03*
X0140077Y0098461D03*
X0140077Y0093264D03*
X0138896Y0090902D03*
X0138896Y0090784D03*
X0138896Y0090666D03*
X0138896Y0090548D03*
X0142911Y0088776D03*
X0138896Y0085115D03*
X0138896Y0084996D03*
X0138896Y0084878D03*
X0139959Y0082516D03*
X0140077Y0082398D03*
X0144683Y0082280D03*
X0152242Y0075784D03*
X0152360Y0072595D03*
X0155785Y0075075D03*
X0157203Y0076847D03*
X0156848Y0077083D03*
X0156494Y0077319D03*
X0156376Y0077437D03*
X0155077Y0078264D03*
X0156022Y0082516D03*
X0157085Y0084878D03*
X0157085Y0084996D03*
X0157085Y0085115D03*
X0157085Y0090548D03*
X0157085Y0090666D03*
X0157085Y0090784D03*
X0158620Y0093973D03*
X0161573Y0096217D03*
X0156376Y0098107D03*
X0154959Y0099878D03*
X0155313Y0100115D03*
X0155667Y0100351D03*
X0155785Y0100469D03*
X0146336Y0072477D03*
X0144210Y0072477D03*
D417*
X0139309Y0077437D03*
X0139191Y0077319D03*
X0139073Y0077201D03*
X0138955Y0077083D03*
X0138836Y0076965D03*
X0138718Y0076847D03*
X0138600Y0076729D03*
X0138482Y0076611D03*
X0138364Y0076493D03*
X0137537Y0075666D03*
X0139427Y0077556D03*
X0139545Y0077792D03*
X0139663Y0077910D03*
X0139781Y0078028D03*
X0139899Y0078146D03*
X0140018Y0078264D03*
X0140136Y0078382D03*
X0140254Y0078500D03*
X0139781Y0082634D03*
X0138955Y0084524D03*
X0138955Y0084642D03*
X0138955Y0084760D03*
X0135411Y0080272D03*
X0138955Y0091020D03*
X0138955Y0091138D03*
X0138955Y0091256D03*
X0140018Y0098343D03*
X0141671Y0100115D03*
X0141199Y0100469D03*
X0141081Y0100587D03*
X0140962Y0100705D03*
X0140726Y0100823D03*
X0140608Y0100941D03*
X0139545Y0101768D03*
X0143088Y0098933D03*
X0146396Y0100115D03*
X0151592Y0101296D03*
X0153482Y0098697D03*
X0155962Y0100587D03*
X0157025Y0101296D03*
X0156435Y0097989D03*
X0155844Y0093264D03*
X0157025Y0091138D03*
X0157025Y0091020D03*
X0157025Y0090902D03*
X0157025Y0084760D03*
X0157025Y0084642D03*
X0157025Y0084524D03*
X0156199Y0082634D03*
X0158915Y0082634D03*
X0161986Y0080508D03*
X0158679Y0075666D03*
X0149703Y0072595D03*
X0135411Y0097870D03*
D418*
X0135116Y0098461D03*
X0143029Y0098461D03*
X0146218Y0104485D03*
X0153423Y0098225D03*
X0156612Y0095981D03*
X0156966Y0092674D03*
X0157085Y0101768D03*
X0158620Y0083107D03*
X0156966Y0080508D03*
X0155077Y0078737D03*
X0155549Y0072949D03*
X0143856Y0076965D03*
X0140313Y0079209D03*
X0137596Y0074957D03*
X0134407Y0078382D03*
D419*
X0136002Y0077437D03*
X0142144Y0077910D03*
X0140490Y0073185D03*
X0155608Y0073067D03*
X0158679Y0075311D03*
X0157852Y0079091D03*
X0155844Y0092910D03*
X0158325Y0093382D03*
X0156553Y0096099D03*
X0151710Y0098933D03*
X0139781Y0096453D03*
X0140018Y0092910D03*
X0134703Y0094445D03*
D420*
X0138955Y0092674D03*
X0139663Y0096335D03*
X0134348Y0078264D03*
X0136002Y0077556D03*
X0140608Y0073067D03*
X0146986Y0076374D03*
X0156907Y0080626D03*
X0158561Y0083225D03*
X0161514Y0078264D03*
X0158325Y0093264D03*
X0159033Y0097162D03*
X0160687Y0098697D03*
D421*
X0160628Y0098579D03*
X0158974Y0097044D03*
X0156966Y0092556D03*
X0161455Y0078382D03*
X0155667Y0073185D03*
X0142203Y0077792D03*
X0140313Y0079091D03*
X0137596Y0075075D03*
X0134407Y0078500D03*
X0134407Y0078619D03*
X0139014Y0092556D03*
X0139840Y0096571D03*
X0143029Y0098579D03*
X0139604Y0102122D03*
X0135234Y0098343D03*
D422*
X0135234Y0098225D03*
X0139959Y0096689D03*
X0139132Y0092437D03*
X0144683Y0099052D03*
X0155903Y0093028D03*
X0156848Y0092437D03*
X0157793Y0079209D03*
X0161336Y0078500D03*
X0155785Y0073304D03*
X0140431Y0073304D03*
X0137596Y0075193D03*
X0140313Y0078973D03*
X0134407Y0078737D03*
X0134644Y0080981D03*
X0134525Y0081217D03*
X0134407Y0081453D03*
X0134289Y0081689D03*
D423*
X0137006Y0083225D03*
X0139250Y0083225D03*
X0139250Y0083107D03*
X0140313Y0078855D03*
X0137596Y0075311D03*
X0136061Y0077083D03*
X0140313Y0073422D03*
X0144683Y0082162D03*
X0139132Y0092319D03*
X0137951Y0094445D03*
X0138069Y0094563D03*
X0138187Y0094682D03*
X0138187Y0094800D03*
X0138305Y0094918D03*
X0138423Y0095154D03*
X0136179Y0095626D03*
X0136061Y0095508D03*
X0135943Y0094327D03*
X0134762Y0094563D03*
X0134053Y0095863D03*
X0134053Y0095981D03*
X0134171Y0096335D03*
X0134289Y0096571D03*
X0134407Y0096689D03*
X0134407Y0096808D03*
X0134525Y0096926D03*
X0134644Y0097044D03*
X0136651Y0093146D03*
X0140077Y0096926D03*
X0139959Y0097398D03*
X0139959Y0097516D03*
X0139840Y0097989D03*
X0139604Y0099052D03*
X0139604Y0099170D03*
X0139604Y0099288D03*
X0139486Y0099406D03*
X0139486Y0099524D03*
X0139486Y0099642D03*
X0139486Y0099760D03*
X0139368Y0099996D03*
X0139368Y0100115D03*
X0139368Y0100233D03*
X0139250Y0100587D03*
X0139250Y0100705D03*
X0143029Y0098697D03*
X0145982Y0104367D03*
X0149407Y0102831D03*
X0149407Y0102713D03*
X0149407Y0102595D03*
X0149525Y0102477D03*
X0149644Y0102359D03*
X0149762Y0102241D03*
X0153423Y0098461D03*
X0156612Y0097634D03*
X0156494Y0097162D03*
X0156376Y0096689D03*
X0156376Y0096571D03*
X0156376Y0096453D03*
X0156848Y0098579D03*
X0156966Y0098815D03*
X0156966Y0098933D03*
X0156966Y0099052D03*
X0156966Y0099170D03*
X0157085Y0099288D03*
X0157085Y0099406D03*
X0157085Y0099524D03*
X0157203Y0099760D03*
X0157203Y0099878D03*
X0157321Y0100233D03*
X0157321Y0100351D03*
X0160510Y0098343D03*
X0160628Y0098107D03*
X0160746Y0097989D03*
X0160864Y0097752D03*
X0160982Y0097634D03*
X0161100Y0097398D03*
X0161218Y0097280D03*
X0161336Y0097044D03*
X0161455Y0096926D03*
X0161573Y0096689D03*
X0161691Y0096571D03*
X0159447Y0095863D03*
X0159329Y0096099D03*
X0159210Y0096217D03*
X0159092Y0096453D03*
X0158974Y0096571D03*
X0158856Y0096808D03*
X0156848Y0092319D03*
X0156730Y0083225D03*
X0156730Y0083107D03*
X0157675Y0079327D03*
X0155077Y0078500D03*
X0154840Y0077201D03*
X0154840Y0077083D03*
X0154959Y0076847D03*
X0154959Y0076729D03*
X0154959Y0076611D03*
X0155077Y0076374D03*
X0155077Y0076256D03*
X0155077Y0076138D03*
X0155195Y0076020D03*
X0155195Y0075902D03*
X0155195Y0075784D03*
X0155313Y0075548D03*
X0155549Y0074603D03*
X0155667Y0074248D03*
X0155785Y0073540D03*
X0155785Y0073422D03*
X0161336Y0078619D03*
X0161336Y0078737D03*
X0161455Y0078855D03*
X0161455Y0078973D03*
X0161573Y0079091D03*
X0161691Y0079327D03*
X0161809Y0079563D03*
X0161927Y0079800D03*
X0162045Y0079918D03*
X0162045Y0080036D03*
X0162163Y0080154D03*
X0162163Y0080272D03*
D424*
X0159092Y0082398D03*
X0155431Y0082044D03*
X0155195Y0078028D03*
X0155903Y0075311D03*
X0144565Y0082398D03*
X0140549Y0082044D03*
X0135470Y0080626D03*
X0140431Y0093619D03*
X0140549Y0093737D03*
X0138187Y0095863D03*
X0137360Y0096335D03*
X0137242Y0096453D03*
X0136888Y0096689D03*
X0136533Y0096926D03*
X0135116Y0094682D03*
X0140313Y0098697D03*
X0139722Y0101414D03*
X0149644Y0099996D03*
X0156258Y0098343D03*
X0155431Y0093737D03*
X0158738Y0094209D03*
X0159092Y0094445D03*
X0159447Y0094682D03*
X0159801Y0094918D03*
X0160155Y0095154D03*
X0161218Y0095863D03*
D425*
X0158679Y0094091D03*
X0155844Y0093382D03*
X0157144Y0090430D03*
X0157144Y0090311D03*
X0157144Y0090193D03*
X0157144Y0090075D03*
X0157144Y0089957D03*
X0157144Y0085705D03*
X0157144Y0085587D03*
X0157144Y0085469D03*
X0157144Y0085351D03*
X0157144Y0085233D03*
X0155844Y0082398D03*
X0159033Y0082516D03*
X0156671Y0077201D03*
X0157025Y0076965D03*
X0157380Y0076729D03*
X0157734Y0076493D03*
X0158679Y0075784D03*
X0149821Y0075784D03*
X0149230Y0077674D03*
X0146750Y0077674D03*
X0138836Y0085233D03*
X0138836Y0085351D03*
X0138836Y0085469D03*
X0138836Y0085587D03*
X0138836Y0090075D03*
X0138836Y0090193D03*
X0138836Y0090311D03*
X0138836Y0090430D03*
X0140136Y0093382D03*
X0138364Y0095626D03*
X0136710Y0093382D03*
X0135411Y0097752D03*
X0139545Y0101650D03*
X0142262Y0099642D03*
X0151120Y0099170D03*
X0154309Y0099406D03*
X0154427Y0099524D03*
X0154663Y0099642D03*
X0154781Y0099760D03*
X0155136Y0099996D03*
X0155490Y0100233D03*
X0135411Y0080390D03*
X0137537Y0075784D03*
D426*
X0143620Y0079682D03*
X0143738Y0079563D03*
X0143974Y0079445D03*
X0144329Y0083343D03*
X0150470Y0078500D03*
X0152006Y0079445D03*
X0152360Y0079682D03*
X0152478Y0079800D03*
X0151533Y0083225D03*
X0151533Y0083343D03*
X0151061Y0075902D03*
X0152242Y0096099D03*
X0152124Y0096217D03*
X0151888Y0096335D03*
X0150470Y0097162D03*
X0150234Y0097280D03*
X0145746Y0097280D03*
X0144092Y0096335D03*
X0143856Y0096217D03*
X0143738Y0096099D03*
D427*
X0145333Y0099288D03*
X0142262Y0099524D03*
X0137065Y0096571D03*
X0136710Y0096808D03*
X0136356Y0097044D03*
X0135529Y0097634D03*
X0136710Y0093500D03*
X0138718Y0089248D03*
X0140372Y0082162D03*
X0137537Y0075902D03*
X0133522Y0081926D03*
X0151120Y0076611D03*
X0155136Y0078146D03*
X0157970Y0076256D03*
X0161868Y0080745D03*
X0157262Y0086532D03*
X0157262Y0086650D03*
X0157262Y0086768D03*
X0157262Y0086886D03*
X0157262Y0087004D03*
X0157262Y0087122D03*
X0157262Y0087241D03*
X0157262Y0087359D03*
X0157262Y0087477D03*
X0157262Y0087595D03*
X0157262Y0087713D03*
X0157262Y0087831D03*
X0157262Y0087949D03*
X0157262Y0088067D03*
X0157262Y0088185D03*
X0157262Y0088304D03*
X0157262Y0088422D03*
X0157262Y0088540D03*
X0157262Y0088658D03*
X0157262Y0088776D03*
X0157262Y0088894D03*
X0157262Y0089012D03*
X0157262Y0089130D03*
X0157262Y0089248D03*
X0152892Y0088658D03*
X0155608Y0093619D03*
X0158915Y0094327D03*
X0159270Y0094563D03*
X0159624Y0094800D03*
X0159978Y0095036D03*
X0160333Y0095272D03*
X0161396Y0095981D03*
X0161514Y0096099D03*
X0156317Y0098225D03*
X0156907Y0101059D03*
X0154191Y0099288D03*
X0155608Y0082162D03*
D428*
X0151651Y0082870D03*
X0152714Y0087831D03*
X0152596Y0095863D03*
X0150470Y0101532D03*
X0150825Y0103422D03*
X0150943Y0103658D03*
X0150943Y0103776D03*
X0143384Y0095863D03*
X0143029Y0095626D03*
X0144447Y0083107D03*
X0142911Y0080154D03*
X0143266Y0079918D03*
X0151061Y0076020D03*
D429*
X0144624Y0082516D03*
X0140962Y0081689D03*
X0137537Y0076138D03*
X0138955Y0089012D03*
X0142970Y0088540D03*
X0137419Y0096217D03*
X0135648Y0097398D03*
X0140018Y0101059D03*
X0152892Y0088540D03*
X0155018Y0094091D03*
X0160451Y0095508D03*
X0159388Y0082162D03*
X0160214Y0081689D03*
X0160451Y0081571D03*
X0160687Y0081453D03*
X0160923Y0081335D03*
X0161159Y0081217D03*
X0161396Y0081099D03*
X0157970Y0076138D03*
D430*
X0151061Y0076374D03*
X0144565Y0082634D03*
X0141376Y0081335D03*
X0143029Y0088422D03*
X0148108Y0090548D03*
X0141494Y0094445D03*
X0145746Y0099878D03*
X0150588Y0099524D03*
X0160510Y0095626D03*
X0134998Y0095390D03*
X0134998Y0095272D03*
D431*
X0137537Y0095981D03*
X0141553Y0094563D03*
X0139191Y0088776D03*
X0141553Y0081217D03*
X0141671Y0081099D03*
X0146159Y0078028D03*
X0149821Y0078028D03*
X0137537Y0076374D03*
X0154191Y0098933D03*
X0160569Y0095745D03*
D432*
X0156612Y0100705D03*
X0154132Y0099052D03*
X0150707Y0099406D03*
X0154840Y0094209D03*
X0141140Y0094209D03*
X0141022Y0094091D03*
X0140431Y0098933D03*
X0136770Y0093855D03*
X0134998Y0095036D03*
X0134998Y0095154D03*
X0133699Y0082044D03*
X0141022Y0081571D03*
X0149644Y0077910D03*
X0151061Y0076493D03*
X0155549Y0077674D03*
D433*
X0152596Y0080036D03*
X0151061Y0078855D03*
X0150825Y0078737D03*
X0151533Y0083579D03*
X0152596Y0087477D03*
X0144919Y0078855D03*
X0144329Y0079209D03*
X0144329Y0083461D03*
X0144329Y0083579D03*
D434*
X0144210Y0083815D03*
X0151651Y0083815D03*
X0152714Y0080154D03*
X0152596Y0095626D03*
X0147990Y0097989D03*
D435*
X0148167Y0090902D03*
X0152537Y0087241D03*
X0152537Y0087122D03*
X0151592Y0083933D03*
X0152773Y0080272D03*
X0144151Y0083933D03*
D436*
X0144210Y0084052D03*
X0151651Y0084052D03*
X0152478Y0087004D03*
X0152833Y0080390D03*
X0152596Y0095508D03*
D437*
X0152419Y0086886D03*
X0152419Y0086768D03*
X0151710Y0084288D03*
X0151710Y0084170D03*
X0152892Y0080508D03*
X0144151Y0084170D03*
X0144151Y0084288D03*
D438*
X0144092Y0084406D03*
X0144092Y0084524D03*
X0143974Y0084878D03*
X0148226Y0091020D03*
X0152360Y0086650D03*
X0152360Y0086532D03*
X0151770Y0084524D03*
X0151770Y0084406D03*
X0152951Y0080626D03*
X0135116Y0082870D03*
D439*
X0143915Y0084996D03*
X0143915Y0085115D03*
X0143915Y0085233D03*
X0143797Y0085469D03*
X0144033Y0084760D03*
X0144033Y0084642D03*
X0151829Y0084642D03*
X0151829Y0084760D03*
X0152183Y0085941D03*
X0152301Y0086296D03*
X0152301Y0086414D03*
X0153010Y0080745D03*
X0152537Y0095390D03*
D440*
X0152242Y0086178D03*
X0152242Y0086059D03*
X0152124Y0085823D03*
X0152124Y0085705D03*
X0152124Y0085587D03*
X0152006Y0085351D03*
X0152006Y0085233D03*
X0152006Y0085115D03*
X0151888Y0084996D03*
X0151888Y0084878D03*
X0153069Y0080981D03*
X0153069Y0080863D03*
X0143856Y0085351D03*
D441*
X0141789Y0080981D03*
X0152773Y0088185D03*
X0154191Y0098815D03*
X0141907Y0094800D03*
D442*
X0148167Y0091138D03*
X0152537Y0095272D03*
X0152065Y0085469D03*
X0153128Y0081099D03*
X0143679Y0085587D03*
D443*
X0153187Y0081217D03*
X0147990Y0097870D03*
D444*
X0143561Y0085705D03*
X0135057Y0082398D03*
X0134939Y0082634D03*
X0153246Y0081335D03*
D445*
X0153305Y0081453D03*
X0148226Y0091256D03*
X0152478Y0095154D03*
X0143502Y0085823D03*
X0135116Y0082280D03*
X0134998Y0082516D03*
X0134880Y0082752D03*
D446*
X0143325Y0085941D03*
X0153364Y0081689D03*
X0153364Y0081571D03*
D447*
X0151592Y0083697D03*
X0152537Y0087359D03*
X0144270Y0083697D03*
D448*
X0143207Y0086059D03*
D449*
X0143029Y0086178D03*
X0148226Y0091493D03*
X0147990Y0097752D03*
D450*
X0141848Y0086650D03*
X0141848Y0086532D03*
X0141966Y0086296D03*
D451*
X0141907Y0086414D03*
D452*
X0141789Y0086768D03*
D453*
X0141730Y0086886D03*
X0141730Y0087004D03*
X0149053Y0094091D03*
X0149171Y0094209D03*
X0147990Y0097398D03*
D454*
X0141671Y0087241D03*
X0141671Y0087122D03*
D455*
X0141612Y0087359D03*
X0148935Y0093973D03*
D456*
X0148758Y0093855D03*
X0148640Y0093737D03*
X0141553Y0087477D03*
D457*
X0141494Y0087595D03*
X0147990Y0097516D03*
D458*
X0148522Y0093619D03*
X0141435Y0087831D03*
X0141435Y0087713D03*
D459*
X0141376Y0087949D03*
X0148226Y0092674D03*
X0148226Y0092792D03*
X0148226Y0092910D03*
D460*
X0148226Y0093146D03*
X0148226Y0093264D03*
X0148226Y0092556D03*
X0148226Y0092437D03*
X0148226Y0092319D03*
X0148226Y0092201D03*
X0141258Y0088067D03*
D461*
X0141199Y0088185D03*
D462*
X0141140Y0088304D03*
X0148226Y0091965D03*
X0148226Y0092083D03*
X0147990Y0097634D03*
D463*
X0148226Y0091374D03*
D464*
X0148226Y0091611D03*
D465*
X0148226Y0091729D03*
X0148226Y0091847D03*
D466*
X0148285Y0093028D03*
X0148285Y0093382D03*
X0148403Y0093500D03*
D467*
X0150648Y0094327D03*
D468*
X0150648Y0094445D03*
D469*
X0150766Y0094563D03*
D470*
X0150766Y0094682D03*
D471*
X0150825Y0094800D03*
D472*
X0150884Y0094918D03*
D473*
X0150943Y0095036D03*
D474*
X0087380Y0142083D02*
X0082380Y0142083D01*
X0084880Y0139583D01*
X0082380Y0142083D02*
X0084880Y0144583D01*
D475*
X0041880Y0075583D02*
X0041893Y0076638D01*
X0041932Y0077693D01*
X0041997Y0078746D01*
X0042087Y0079798D01*
X0042203Y0080847D01*
X0042345Y0081892D01*
X0042513Y0082934D01*
X0042706Y0083972D01*
X0042925Y0085004D01*
X0043169Y0086031D01*
X0043438Y0087052D01*
X0043732Y0088065D01*
X0044050Y0089071D01*
X0044394Y0090069D01*
X0044761Y0091058D01*
X0045153Y0092038D01*
X0045569Y0093008D01*
X0046008Y0093968D01*
X0046471Y0094916D01*
X0046957Y0095853D01*
X0047466Y0096778D01*
X0047998Y0097689D01*
X0048551Y0098588D01*
X0049127Y0099473D01*
X0049724Y0100343D01*
X0050342Y0101198D01*
X0050981Y0102038D01*
X0051641Y0102862D01*
X0052320Y0103669D01*
X0053019Y0104460D01*
X0053737Y0105233D01*
X0054474Y0105989D01*
X0055230Y0106726D01*
X0056003Y0107444D01*
X0056794Y0108143D01*
X0057601Y0108822D01*
X0058425Y0109482D01*
X0059265Y0110121D01*
X0060120Y0110739D01*
X0060990Y0111336D01*
X0061875Y0111912D01*
X0062774Y0112465D01*
X0063685Y0112997D01*
X0064610Y0113506D01*
X0065547Y0113992D01*
X0066495Y0114455D01*
X0067455Y0114894D01*
X0068425Y0115310D01*
X0069405Y0115702D01*
X0070394Y0116069D01*
X0071392Y0116413D01*
X0072398Y0116731D01*
X0073411Y0117025D01*
X0074432Y0117294D01*
X0075459Y0117538D01*
X0076491Y0117757D01*
X0077529Y0117950D01*
X0078571Y0118118D01*
X0079616Y0118260D01*
X0080665Y0118376D01*
X0081717Y0118466D01*
X0082770Y0118531D01*
X0083825Y0118570D01*
X0084880Y0118583D01*
X0085935Y0118570D01*
X0086990Y0118531D01*
X0088043Y0118466D01*
X0089095Y0118376D01*
X0090144Y0118260D01*
X0091189Y0118118D01*
X0092231Y0117950D01*
X0093269Y0117757D01*
X0094301Y0117538D01*
X0095328Y0117294D01*
X0096349Y0117025D01*
X0097362Y0116731D01*
X0098368Y0116413D01*
X0099366Y0116069D01*
X0100355Y0115702D01*
X0101335Y0115310D01*
X0102305Y0114894D01*
X0103265Y0114455D01*
X0104213Y0113992D01*
X0105150Y0113506D01*
X0106075Y0112997D01*
X0106986Y0112465D01*
X0107885Y0111912D01*
X0108770Y0111336D01*
X0109640Y0110739D01*
X0110495Y0110121D01*
X0111335Y0109482D01*
X0112159Y0108822D01*
X0112966Y0108143D01*
X0113757Y0107444D01*
X0114530Y0106726D01*
X0115286Y0105989D01*
X0116023Y0105233D01*
X0116741Y0104460D01*
X0117440Y0103669D01*
X0118119Y0102862D01*
X0118779Y0102038D01*
X0119418Y0101198D01*
X0120036Y0100343D01*
X0120633Y0099473D01*
X0121209Y0098588D01*
X0121762Y0097689D01*
X0122294Y0096778D01*
X0122803Y0095853D01*
X0123289Y0094916D01*
X0123752Y0093968D01*
X0124191Y0093008D01*
X0124607Y0092038D01*
X0124999Y0091058D01*
X0125366Y0090069D01*
X0125710Y0089071D01*
X0126028Y0088065D01*
X0126322Y0087052D01*
X0126591Y0086031D01*
X0126835Y0085004D01*
X0127054Y0083972D01*
X0127247Y0082934D01*
X0127415Y0081892D01*
X0127557Y0080847D01*
X0127673Y0079798D01*
X0127763Y0078746D01*
X0127828Y0077693D01*
X0127867Y0076638D01*
X0127880Y0075583D01*
X0127867Y0074528D01*
X0127828Y0073473D01*
X0127763Y0072420D01*
X0127673Y0071368D01*
X0127557Y0070319D01*
X0127415Y0069274D01*
X0127247Y0068232D01*
X0127054Y0067194D01*
X0126835Y0066162D01*
X0126591Y0065135D01*
X0126322Y0064114D01*
X0126028Y0063101D01*
X0125710Y0062095D01*
X0125366Y0061097D01*
X0124999Y0060108D01*
X0124607Y0059128D01*
X0124191Y0058158D01*
X0123752Y0057198D01*
X0123289Y0056250D01*
X0122803Y0055313D01*
X0122294Y0054388D01*
X0121762Y0053477D01*
X0121209Y0052578D01*
X0120633Y0051693D01*
X0120036Y0050823D01*
X0119418Y0049968D01*
X0118779Y0049128D01*
X0118119Y0048304D01*
X0117440Y0047497D01*
X0116741Y0046706D01*
X0116023Y0045933D01*
X0115286Y0045177D01*
X0114530Y0044440D01*
X0113757Y0043722D01*
X0112966Y0043023D01*
X0112159Y0042344D01*
X0111335Y0041684D01*
X0110495Y0041045D01*
X0109640Y0040427D01*
X0108770Y0039830D01*
X0107885Y0039254D01*
X0106986Y0038701D01*
X0106075Y0038169D01*
X0105150Y0037660D01*
X0104213Y0037174D01*
X0103265Y0036711D01*
X0102305Y0036272D01*
X0101335Y0035856D01*
X0100355Y0035464D01*
X0099366Y0035097D01*
X0098368Y0034753D01*
X0097362Y0034435D01*
X0096349Y0034141D01*
X0095328Y0033872D01*
X0094301Y0033628D01*
X0093269Y0033409D01*
X0092231Y0033216D01*
X0091189Y0033048D01*
X0090144Y0032906D01*
X0089095Y0032790D01*
X0088043Y0032700D01*
X0086990Y0032635D01*
X0085935Y0032596D01*
X0084880Y0032583D01*
X0083825Y0032596D01*
X0082770Y0032635D01*
X0081717Y0032700D01*
X0080665Y0032790D01*
X0079616Y0032906D01*
X0078571Y0033048D01*
X0077529Y0033216D01*
X0076491Y0033409D01*
X0075459Y0033628D01*
X0074432Y0033872D01*
X0073411Y0034141D01*
X0072398Y0034435D01*
X0071392Y0034753D01*
X0070394Y0035097D01*
X0069405Y0035464D01*
X0068425Y0035856D01*
X0067455Y0036272D01*
X0066495Y0036711D01*
X0065547Y0037174D01*
X0064610Y0037660D01*
X0063685Y0038169D01*
X0062774Y0038701D01*
X0061875Y0039254D01*
X0060990Y0039830D01*
X0060120Y0040427D01*
X0059265Y0041045D01*
X0058425Y0041684D01*
X0057601Y0042344D01*
X0056794Y0043023D01*
X0056003Y0043722D01*
X0055230Y0044440D01*
X0054474Y0045177D01*
X0053737Y0045933D01*
X0053019Y0046706D01*
X0052320Y0047497D01*
X0051641Y0048304D01*
X0050981Y0049128D01*
X0050342Y0049968D01*
X0049724Y0050823D01*
X0049127Y0051693D01*
X0048551Y0052578D01*
X0047998Y0053477D01*
X0047466Y0054388D01*
X0046957Y0055313D01*
X0046471Y0056250D01*
X0046008Y0057198D01*
X0045569Y0058158D01*
X0045153Y0059128D01*
X0044761Y0060108D01*
X0044394Y0061097D01*
X0044050Y0062095D01*
X0043732Y0063101D01*
X0043438Y0064114D01*
X0043169Y0065135D01*
X0042925Y0066162D01*
X0042706Y0067194D01*
X0042513Y0068232D01*
X0042345Y0069274D01*
X0042203Y0070319D01*
X0042087Y0071368D01*
X0041997Y0072420D01*
X0041932Y0073473D01*
X0041893Y0074528D01*
X0041880Y0075583D01*
X0072380Y0034583D02*
X0072380Y0019583D01*
X0097380Y0019583D01*
X0097380Y0034583D01*
D476*
X0028112Y0026780D02*
X0024576Y0030315D01*
X0024576Y0033851D01*
X0021041Y0033851D01*
X0017505Y0037386D01*
X0017505Y0040922D01*
X0021041Y0044457D01*
X0024576Y0044457D01*
X0028112Y0040922D01*
X0028112Y0037386D01*
X0031648Y0037386D01*
X0035183Y0033851D01*
X0035183Y0030315D01*
X0031648Y0026780D01*
X0028112Y0026780D01*
X0069880Y0014583D02*
X0069880Y0009583D01*
X0072380Y0007083D01*
X0077380Y0007083D01*
X0079880Y0009583D01*
X0082380Y0007083D01*
X0087380Y0007083D01*
X0089880Y0009583D01*
X0092380Y0007083D01*
X0097380Y0007083D01*
X0099880Y0009583D01*
X0099880Y0014583D01*
X0097380Y0017083D01*
X0092380Y0017083D01*
X0089880Y0014583D01*
X0087380Y0017083D01*
X0082380Y0017083D01*
X0079880Y0014583D01*
X0077380Y0017083D01*
X0072380Y0017083D01*
X0069880Y0014583D01*
X0134576Y0030315D02*
X0134576Y0033851D01*
X0138112Y0037386D01*
X0141648Y0037386D01*
X0141648Y0040922D01*
X0145183Y0044457D01*
X0148719Y0044457D01*
X0152254Y0040922D01*
X0152254Y0037386D01*
X0148719Y0033851D01*
X0145183Y0033851D01*
X0145183Y0030315D01*
X0141648Y0026780D01*
X0138112Y0026780D01*
X0134576Y0030315D01*
X0077380Y0122083D02*
X0072380Y0122083D01*
X0069880Y0124583D01*
X0069880Y0129583D01*
X0072380Y0132083D01*
X0069880Y0134583D01*
X0069880Y0139583D01*
X0072380Y0142083D01*
X0069880Y0144583D01*
X0069880Y0149583D01*
X0072380Y0152083D01*
X0069880Y0154583D01*
X0069880Y0159583D01*
X0072380Y0162083D01*
X0077380Y0162083D01*
X0079880Y0159583D01*
X0079880Y0154583D01*
X0077380Y0152083D01*
X0079880Y0149583D01*
X0079880Y0144583D01*
X0077380Y0142083D01*
X0079880Y0139583D01*
X0079880Y0134583D01*
X0077380Y0132083D01*
X0079880Y0129583D01*
X0079880Y0124583D01*
X0077380Y0122083D01*
X0035183Y0135315D02*
X0031648Y0131780D01*
X0028112Y0131780D01*
X0028112Y0128244D01*
X0024576Y0124709D01*
X0021041Y0124709D01*
X0017505Y0128244D01*
X0017505Y0131780D01*
X0021041Y0135315D01*
X0024576Y0135315D01*
X0024576Y0138851D01*
X0028112Y0142386D01*
X0031648Y0142386D01*
X0035183Y0138851D01*
X0035183Y0135315D01*
X0134576Y0135315D02*
X0134576Y0138851D01*
X0138112Y0142386D01*
X0141648Y0142386D01*
X0145183Y0138851D01*
X0145183Y0135315D01*
X0148719Y0135315D01*
X0152254Y0131780D01*
X0152254Y0128244D01*
X0148719Y0124709D01*
X0145183Y0124709D01*
X0141648Y0128244D01*
X0141648Y0131780D01*
X0138112Y0131780D01*
X0134576Y0135315D01*
M02*
