G75*
%MOIN*%
%OFA0B0*%
%FSLAX25Y25*%
%IPPOS*%
%LPD*%
%AMOC8*
5,1,8,0,0,1.08239X$1,22.5*
%
%ADD10C,0.01000*%
%ADD11C,0.01600*%
D10*
X0081800Y0001500D02*
X0111800Y0001500D01*
X0096800Y0151500D01*
X0146800Y0151500D02*
X0146785Y0152718D01*
X0146741Y0153934D01*
X0146667Y0155150D01*
X0146563Y0156363D01*
X0146430Y0157573D01*
X0146267Y0158780D01*
X0146075Y0159982D01*
X0145854Y0161180D01*
X0145604Y0162372D01*
X0145325Y0163557D01*
X0145017Y0164735D01*
X0144680Y0165905D01*
X0144315Y0167067D01*
X0143922Y0168219D01*
X0143501Y0169362D01*
X0143052Y0170493D01*
X0142576Y0171614D01*
X0142072Y0172723D01*
X0141542Y0173819D01*
X0140985Y0174902D01*
X0140402Y0175971D01*
X0139794Y0177025D01*
X0139159Y0178065D01*
X0138500Y0179088D01*
X0137816Y0180096D01*
X0137107Y0181086D01*
X0136375Y0182059D01*
X0135619Y0183013D01*
X0134840Y0183949D01*
X0134039Y0184866D01*
X0133215Y0185763D01*
X0132370Y0186639D01*
X0131504Y0187495D01*
X0130617Y0188330D01*
X0129710Y0189142D01*
X0128784Y0189932D01*
X0127838Y0190700D01*
X0126875Y0191444D01*
X0125893Y0192164D01*
X0124894Y0192861D01*
X0123879Y0193533D01*
X0122847Y0194180D01*
X0121800Y0194801D01*
X0120738Y0195397D01*
X0119662Y0195967D01*
X0118573Y0196511D01*
X0117470Y0197027D01*
X0116355Y0197517D01*
X0115229Y0197980D01*
X0114092Y0198415D01*
X0112944Y0198822D01*
X0111787Y0199201D01*
X0110621Y0199552D01*
X0109447Y0199874D01*
X0108265Y0200168D01*
X0107076Y0200433D01*
X0105882Y0200668D01*
X0104682Y0200875D01*
X0103477Y0201052D01*
X0102269Y0201200D01*
X0101057Y0201318D01*
X0099842Y0201407D01*
X0098626Y0201467D01*
X0097409Y0201496D01*
X0096191Y0201496D01*
X0094974Y0201467D01*
X0093758Y0201407D01*
X0092543Y0201318D01*
X0091331Y0201200D01*
X0090123Y0201052D01*
X0088918Y0200875D01*
X0087718Y0200668D01*
X0086524Y0200433D01*
X0085335Y0200168D01*
X0084153Y0199874D01*
X0082979Y0199552D01*
X0081813Y0199201D01*
X0080656Y0198822D01*
X0079508Y0198415D01*
X0078371Y0197980D01*
X0077245Y0197517D01*
X0076130Y0197027D01*
X0075027Y0196511D01*
X0073938Y0195967D01*
X0072862Y0195397D01*
X0071800Y0194801D01*
X0070753Y0194180D01*
X0069721Y0193533D01*
X0068706Y0192861D01*
X0067707Y0192164D01*
X0066725Y0191444D01*
X0065762Y0190700D01*
X0064816Y0189932D01*
X0063890Y0189142D01*
X0062983Y0188330D01*
X0062096Y0187495D01*
X0061230Y0186639D01*
X0060385Y0185763D01*
X0059561Y0184866D01*
X0058760Y0183949D01*
X0057981Y0183013D01*
X0057225Y0182059D01*
X0056493Y0181086D01*
X0055784Y0180096D01*
X0055100Y0179088D01*
X0054441Y0178065D01*
X0053806Y0177025D01*
X0053198Y0175971D01*
X0052615Y0174902D01*
X0052058Y0173819D01*
X0051528Y0172723D01*
X0051024Y0171614D01*
X0050548Y0170493D01*
X0050099Y0169362D01*
X0049678Y0168219D01*
X0049285Y0167067D01*
X0048920Y0165905D01*
X0048583Y0164735D01*
X0048275Y0163557D01*
X0047996Y0162372D01*
X0047746Y0161180D01*
X0047525Y0159982D01*
X0047333Y0158780D01*
X0047170Y0157573D01*
X0047037Y0156363D01*
X0046933Y0155150D01*
X0046859Y0153934D01*
X0046815Y0152718D01*
X0046800Y0151500D01*
X0047074Y0156726D01*
X0047893Y0161896D01*
X0049247Y0166951D01*
X0051123Y0171837D01*
X0053499Y0176500D01*
X0056349Y0180889D01*
X0059643Y0184957D01*
X0063343Y0188657D01*
X0067411Y0191951D01*
X0071800Y0194801D01*
X0076463Y0197177D01*
X0081349Y0199053D01*
X0086404Y0200407D01*
X0091574Y0201226D01*
X0096800Y0201500D01*
X0102026Y0201226D01*
X0107196Y0200407D01*
X0112251Y0199053D01*
X0117137Y0197177D01*
X0121800Y0194801D01*
X0126189Y0191951D01*
X0130257Y0188657D01*
X0133957Y0184957D01*
X0137251Y0180889D01*
X0140101Y0176500D01*
X0142477Y0171837D01*
X0144353Y0166951D01*
X0145707Y0161896D01*
X0146526Y0156726D01*
X0146800Y0151500D01*
X0046800Y0151500D01*
X0046841Y0152275D02*
X0146759Y0152275D01*
X0146707Y0153274D02*
X0046893Y0153274D01*
X0046945Y0154272D02*
X0146655Y0154272D01*
X0146602Y0155271D02*
X0046998Y0155271D01*
X0047050Y0156269D02*
X0146550Y0156269D01*
X0146440Y0157268D02*
X0047160Y0157268D01*
X0047318Y0158266D02*
X0146282Y0158266D01*
X0146124Y0159265D02*
X0047476Y0159265D01*
X0047634Y0160263D02*
X0145966Y0160263D01*
X0145808Y0161262D02*
X0047792Y0161262D01*
X0047990Y0162260D02*
X0145610Y0162260D01*
X0145342Y0163259D02*
X0048258Y0163259D01*
X0048525Y0164257D02*
X0145075Y0164257D01*
X0144807Y0165256D02*
X0048793Y0165256D01*
X0049061Y0166254D02*
X0144539Y0166254D01*
X0144237Y0167253D02*
X0049363Y0167253D01*
X0049746Y0168251D02*
X0143854Y0168251D01*
X0143470Y0169250D02*
X0050130Y0169250D01*
X0050513Y0170248D02*
X0143087Y0170248D01*
X0142704Y0171247D02*
X0050896Y0171247D01*
X0051331Y0172245D02*
X0142269Y0172245D01*
X0141760Y0173244D02*
X0051840Y0173244D01*
X0052348Y0174242D02*
X0141252Y0174242D01*
X0140743Y0175241D02*
X0052857Y0175241D01*
X0053366Y0176239D02*
X0140234Y0176239D01*
X0139622Y0177238D02*
X0053978Y0177238D01*
X0054626Y0178237D02*
X0138974Y0178237D01*
X0138325Y0179235D02*
X0055275Y0179235D01*
X0055923Y0180234D02*
X0137677Y0180234D01*
X0136973Y0181232D02*
X0056627Y0181232D01*
X0057435Y0182231D02*
X0136165Y0182231D01*
X0135356Y0183229D02*
X0058244Y0183229D01*
X0059052Y0184228D02*
X0134548Y0184228D01*
X0133688Y0185226D02*
X0059912Y0185226D01*
X0060911Y0186225D02*
X0132689Y0186225D01*
X0131691Y0187223D02*
X0061909Y0187223D01*
X0062908Y0188222D02*
X0130692Y0188222D01*
X0129561Y0189220D02*
X0064039Y0189220D01*
X0065272Y0190219D02*
X0128328Y0190219D01*
X0127095Y0191217D02*
X0066505Y0191217D01*
X0067819Y0192216D02*
X0125781Y0192216D01*
X0124244Y0193214D02*
X0069356Y0193214D01*
X0070894Y0194213D02*
X0122706Y0194213D01*
X0120995Y0195211D02*
X0072605Y0195211D01*
X0074564Y0196210D02*
X0119036Y0196210D01*
X0117056Y0197208D02*
X0076544Y0197208D01*
X0079145Y0198207D02*
X0114455Y0198207D01*
X0111682Y0199205D02*
X0081918Y0199205D01*
X0085644Y0200204D02*
X0107956Y0200204D01*
X0102177Y0201202D02*
X0091423Y0201202D01*
X0096800Y0151500D02*
X0081800Y0001500D01*
X0111800Y0001500D01*
X0111700Y0002499D02*
X0081900Y0002499D01*
X0082000Y0003497D02*
X0111600Y0003497D01*
X0111500Y0004496D02*
X0082100Y0004496D01*
X0082199Y0005494D02*
X0111401Y0005494D01*
X0111301Y0006493D02*
X0082299Y0006493D01*
X0082399Y0007491D02*
X0111201Y0007491D01*
X0111101Y0008490D02*
X0082499Y0008490D01*
X0082599Y0009488D02*
X0111001Y0009488D01*
X0110901Y0010487D02*
X0082699Y0010487D01*
X0082799Y0011485D02*
X0110801Y0011485D01*
X0110702Y0012484D02*
X0082898Y0012484D01*
X0082998Y0013482D02*
X0110602Y0013482D01*
X0110502Y0014481D02*
X0083098Y0014481D01*
X0083198Y0015479D02*
X0110402Y0015479D01*
X0110302Y0016478D02*
X0083298Y0016478D01*
X0083398Y0017476D02*
X0110202Y0017476D01*
X0110103Y0018475D02*
X0083497Y0018475D01*
X0083597Y0019473D02*
X0110003Y0019473D01*
X0109903Y0020472D02*
X0083697Y0020472D01*
X0083797Y0021470D02*
X0109803Y0021470D01*
X0109703Y0022469D02*
X0083897Y0022469D01*
X0083997Y0023467D02*
X0109603Y0023467D01*
X0109503Y0024466D02*
X0084097Y0024466D01*
X0084196Y0025464D02*
X0109404Y0025464D01*
X0109304Y0026463D02*
X0084296Y0026463D01*
X0084396Y0027461D02*
X0109204Y0027461D01*
X0109104Y0028460D02*
X0084496Y0028460D01*
X0084596Y0029458D02*
X0109004Y0029458D01*
X0108904Y0030457D02*
X0084696Y0030457D01*
X0084796Y0031455D02*
X0108804Y0031455D01*
X0108705Y0032454D02*
X0084895Y0032454D01*
X0084995Y0033452D02*
X0108605Y0033452D01*
X0108505Y0034451D02*
X0085095Y0034451D01*
X0085195Y0035449D02*
X0108405Y0035449D01*
X0108305Y0036448D02*
X0085295Y0036448D01*
X0085395Y0037446D02*
X0108205Y0037446D01*
X0108106Y0038445D02*
X0085495Y0038445D01*
X0085594Y0039443D02*
X0108006Y0039443D01*
X0107906Y0040442D02*
X0085694Y0040442D01*
X0085794Y0041440D02*
X0107806Y0041440D01*
X0107706Y0042439D02*
X0085894Y0042439D01*
X0085994Y0043437D02*
X0107606Y0043437D01*
X0107506Y0044436D02*
X0086094Y0044436D01*
X0086193Y0045434D02*
X0107407Y0045434D01*
X0107307Y0046433D02*
X0086293Y0046433D01*
X0086393Y0047432D02*
X0107207Y0047432D01*
X0107107Y0048430D02*
X0086493Y0048430D01*
X0086593Y0049429D02*
X0107007Y0049429D01*
X0106907Y0050427D02*
X0086693Y0050427D01*
X0086793Y0051426D02*
X0106807Y0051426D01*
X0106708Y0052424D02*
X0086892Y0052424D01*
X0086992Y0053423D02*
X0106608Y0053423D01*
X0106508Y0054421D02*
X0087092Y0054421D01*
X0087192Y0055420D02*
X0106408Y0055420D01*
X0106308Y0056418D02*
X0087292Y0056418D01*
X0087392Y0057417D02*
X0106208Y0057417D01*
X0106108Y0058415D02*
X0087492Y0058415D01*
X0087591Y0059414D02*
X0106009Y0059414D01*
X0105909Y0060412D02*
X0087691Y0060412D01*
X0087791Y0061411D02*
X0105809Y0061411D01*
X0105709Y0062409D02*
X0087891Y0062409D01*
X0087991Y0063408D02*
X0105609Y0063408D01*
X0105509Y0064406D02*
X0088091Y0064406D01*
X0088190Y0065405D02*
X0105410Y0065405D01*
X0105310Y0066403D02*
X0088290Y0066403D01*
X0088390Y0067402D02*
X0105210Y0067402D01*
X0105110Y0068400D02*
X0088490Y0068400D01*
X0088590Y0069399D02*
X0105010Y0069399D01*
X0104910Y0070397D02*
X0088690Y0070397D01*
X0088790Y0071396D02*
X0104810Y0071396D01*
X0104711Y0072394D02*
X0088889Y0072394D01*
X0088989Y0073393D02*
X0104611Y0073393D01*
X0104511Y0074391D02*
X0089089Y0074391D01*
X0089189Y0075390D02*
X0104411Y0075390D01*
X0104311Y0076388D02*
X0089289Y0076388D01*
X0089389Y0077387D02*
X0104211Y0077387D01*
X0104111Y0078385D02*
X0089489Y0078385D01*
X0089588Y0079384D02*
X0104012Y0079384D01*
X0103912Y0080382D02*
X0089688Y0080382D01*
X0089788Y0081381D02*
X0103812Y0081381D01*
X0103712Y0082379D02*
X0089888Y0082379D01*
X0089988Y0083378D02*
X0103612Y0083378D01*
X0103512Y0084376D02*
X0090088Y0084376D01*
X0090187Y0085375D02*
X0103413Y0085375D01*
X0103313Y0086373D02*
X0090287Y0086373D01*
X0090387Y0087372D02*
X0103213Y0087372D01*
X0103113Y0088370D02*
X0090487Y0088370D01*
X0090587Y0089369D02*
X0103013Y0089369D01*
X0102913Y0090368D02*
X0090687Y0090368D01*
X0090787Y0091366D02*
X0102813Y0091366D01*
X0102714Y0092365D02*
X0090886Y0092365D01*
X0090986Y0093363D02*
X0102614Y0093363D01*
X0102514Y0094362D02*
X0091086Y0094362D01*
X0091186Y0095360D02*
X0102414Y0095360D01*
X0102314Y0096359D02*
X0091286Y0096359D01*
X0091386Y0097357D02*
X0102214Y0097357D01*
X0102114Y0098356D02*
X0091486Y0098356D01*
X0091585Y0099354D02*
X0102015Y0099354D01*
X0101915Y0100353D02*
X0091685Y0100353D01*
X0091785Y0101351D02*
X0101815Y0101351D01*
X0101715Y0102350D02*
X0091885Y0102350D01*
X0091985Y0103348D02*
X0101615Y0103348D01*
X0101515Y0104347D02*
X0092085Y0104347D01*
X0092185Y0105345D02*
X0101415Y0105345D01*
X0101316Y0106344D02*
X0092284Y0106344D01*
X0092384Y0107342D02*
X0101216Y0107342D01*
X0101116Y0108341D02*
X0092484Y0108341D01*
X0092584Y0109339D02*
X0101016Y0109339D01*
X0100916Y0110338D02*
X0092684Y0110338D01*
X0092784Y0111336D02*
X0100816Y0111336D01*
X0100717Y0112335D02*
X0092883Y0112335D01*
X0092983Y0113333D02*
X0100617Y0113333D01*
X0100517Y0114332D02*
X0093083Y0114332D01*
X0093183Y0115330D02*
X0100417Y0115330D01*
X0100317Y0116329D02*
X0093283Y0116329D01*
X0093383Y0117327D02*
X0100217Y0117327D01*
X0100117Y0118326D02*
X0093483Y0118326D01*
X0093582Y0119324D02*
X0100018Y0119324D01*
X0099918Y0120323D02*
X0093682Y0120323D01*
X0093782Y0121321D02*
X0099818Y0121321D01*
X0099718Y0122320D02*
X0093882Y0122320D01*
X0093982Y0123318D02*
X0099618Y0123318D01*
X0099518Y0124317D02*
X0094082Y0124317D01*
X0094182Y0125315D02*
X0099418Y0125315D01*
X0099319Y0126314D02*
X0094281Y0126314D01*
X0094381Y0127312D02*
X0099219Y0127312D01*
X0099119Y0128311D02*
X0094481Y0128311D01*
X0094581Y0129309D02*
X0099019Y0129309D01*
X0098919Y0130308D02*
X0094681Y0130308D01*
X0094781Y0131306D02*
X0098819Y0131306D01*
X0098720Y0132305D02*
X0094880Y0132305D01*
X0094980Y0133303D02*
X0098620Y0133303D01*
X0098520Y0134302D02*
X0095080Y0134302D01*
X0095180Y0135301D02*
X0098420Y0135301D01*
X0098320Y0136299D02*
X0095280Y0136299D01*
X0095380Y0137298D02*
X0098220Y0137298D01*
X0098120Y0138296D02*
X0095480Y0138296D01*
X0095579Y0139295D02*
X0098021Y0139295D01*
X0097921Y0140293D02*
X0095679Y0140293D01*
X0095779Y0141292D02*
X0097821Y0141292D01*
X0097721Y0142290D02*
X0095879Y0142290D01*
X0095979Y0143289D02*
X0097621Y0143289D01*
X0097521Y0144287D02*
X0096079Y0144287D01*
X0096179Y0145286D02*
X0097421Y0145286D01*
X0097322Y0146284D02*
X0096278Y0146284D01*
X0096378Y0147283D02*
X0097222Y0147283D01*
X0097122Y0148281D02*
X0096478Y0148281D01*
X0096578Y0149280D02*
X0097022Y0149280D01*
X0096922Y0150278D02*
X0096678Y0150278D01*
X0096778Y0151277D02*
X0096822Y0151277D01*
X0146800Y0151499D02*
X0148417Y0150255D01*
X0150004Y0148971D01*
X0151559Y0147649D01*
X0153081Y0146289D01*
X0154569Y0144893D01*
X0156022Y0143460D01*
X0157440Y0141992D01*
X0158822Y0140490D01*
X0160166Y0138955D01*
X0161472Y0137387D01*
X0162740Y0135787D01*
X0163968Y0134157D01*
X0165156Y0132497D01*
X0166302Y0130809D01*
X0167407Y0129093D01*
X0168470Y0127351D01*
X0169490Y0125583D01*
X0170466Y0123791D01*
X0171398Y0121975D01*
X0172285Y0120137D01*
X0173127Y0118278D01*
X0173923Y0116399D01*
X0174673Y0114501D01*
X0175376Y0112585D01*
X0176032Y0110652D01*
X0176641Y0108704D01*
X0177201Y0106742D01*
X0177714Y0104766D01*
X0178178Y0102779D01*
X0178593Y0100781D01*
X0178959Y0098773D01*
X0179276Y0096757D01*
X0179543Y0094734D01*
X0179760Y0092704D01*
X0179928Y0090670D01*
X0180046Y0088633D01*
X0180114Y0086593D01*
X0180133Y0084552D01*
X0180101Y0082512D01*
X0180019Y0080473D01*
X0179887Y0078436D01*
X0179706Y0076403D01*
X0179474Y0074376D01*
X0179193Y0072354D01*
X0178863Y0070340D01*
X0178484Y0068335D01*
X0178055Y0066339D01*
X0177578Y0064355D01*
X0177052Y0062383D01*
X0176478Y0060425D01*
X0175857Y0058481D01*
X0175188Y0056553D01*
X0174472Y0054642D01*
X0173709Y0052749D01*
X0172900Y0050875D01*
X0172046Y0049021D01*
X0171146Y0047189D01*
X0170202Y0045380D01*
X0169214Y0043594D01*
X0168182Y0041833D01*
X0167108Y0040098D01*
X0165991Y0038390D01*
X0164833Y0036710D01*
X0163634Y0035058D01*
X0162395Y0033436D01*
X0161117Y0031845D01*
X0159800Y0030286D01*
X0158445Y0028760D01*
X0157054Y0027267D01*
X0155626Y0025809D01*
X0154163Y0024386D01*
X0152666Y0022999D01*
X0151135Y0021650D01*
X0149571Y0020338D01*
X0147976Y0019065D01*
X0146350Y0017831D01*
X0144694Y0016638D01*
X0143010Y0015486D01*
X0141298Y0014375D01*
X0139559Y0013306D01*
X0137795Y0012281D01*
X0136006Y0011299D01*
X0134193Y0010361D01*
X0132358Y0009467D01*
X0130502Y0008619D01*
X0128625Y0007817D01*
X0126730Y0007060D01*
X0124816Y0006351D01*
X0122886Y0005688D01*
X0120940Y0005073D01*
X0118980Y0004506D01*
X0117006Y0003987D01*
X0115020Y0003516D01*
X0113023Y0003094D01*
X0111017Y0002722D01*
X0109001Y0002398D01*
X0106979Y0002124D01*
X0104951Y0001900D01*
X0102917Y0001725D01*
X0100880Y0001600D01*
X0098841Y0001525D01*
X0096800Y0001500D01*
X0094759Y0001525D01*
X0092720Y0001600D01*
X0090683Y0001725D01*
X0088649Y0001900D01*
X0086621Y0002124D01*
X0084599Y0002398D01*
X0082583Y0002722D01*
X0080577Y0003094D01*
X0078580Y0003516D01*
X0076594Y0003987D01*
X0074620Y0004506D01*
X0072660Y0005073D01*
X0070714Y0005688D01*
X0068784Y0006351D01*
X0066870Y0007060D01*
X0064975Y0007817D01*
X0063098Y0008619D01*
X0061242Y0009467D01*
X0059407Y0010361D01*
X0057594Y0011299D01*
X0055805Y0012281D01*
X0054041Y0013306D01*
X0052302Y0014375D01*
X0050590Y0015486D01*
X0048906Y0016638D01*
X0047250Y0017831D01*
X0045624Y0019065D01*
X0044029Y0020338D01*
X0042465Y0021650D01*
X0040934Y0022999D01*
X0039437Y0024386D01*
X0037974Y0025809D01*
X0036546Y0027267D01*
X0035155Y0028760D01*
X0033800Y0030286D01*
X0032483Y0031845D01*
X0031205Y0033436D01*
X0029966Y0035058D01*
X0028767Y0036710D01*
X0027609Y0038390D01*
X0026492Y0040098D01*
X0025418Y0041833D01*
X0024386Y0043594D01*
X0023398Y0045380D01*
X0022454Y0047189D01*
X0021554Y0049021D01*
X0020700Y0050875D01*
X0019891Y0052749D01*
X0019128Y0054642D01*
X0018412Y0056553D01*
X0017743Y0058481D01*
X0017122Y0060425D01*
X0016548Y0062383D01*
X0016022Y0064355D01*
X0015545Y0066339D01*
X0015116Y0068335D01*
X0014737Y0070340D01*
X0014407Y0072354D01*
X0014126Y0074376D01*
X0013894Y0076403D01*
X0013713Y0078436D01*
X0013581Y0080473D01*
X0013499Y0082512D01*
X0013467Y0084552D01*
X0013486Y0086593D01*
X0013554Y0088633D01*
X0013672Y0090670D01*
X0013840Y0092704D01*
X0014057Y0094734D01*
X0014324Y0096757D01*
X0014641Y0098773D01*
X0015007Y0100781D01*
X0015422Y0102779D01*
X0015886Y0104766D01*
X0016399Y0106742D01*
X0016959Y0108704D01*
X0017568Y0110652D01*
X0018224Y0112585D01*
X0018927Y0114501D01*
X0019677Y0116399D01*
X0020473Y0118278D01*
X0021315Y0120137D01*
X0022202Y0121975D01*
X0023134Y0123791D01*
X0024110Y0125583D01*
X0025130Y0127351D01*
X0026193Y0129093D01*
X0027298Y0130809D01*
X0028444Y0132497D01*
X0029632Y0134157D01*
X0030860Y0135787D01*
X0032128Y0137387D01*
X0033434Y0138955D01*
X0034778Y0140490D01*
X0036160Y0141992D01*
X0037578Y0143460D01*
X0039031Y0144893D01*
X0040519Y0146289D01*
X0042041Y0147649D01*
X0043596Y0148971D01*
X0045183Y0150255D01*
X0046800Y0151499D01*
D11*
X0042396Y0034471D02*
X0043132Y0032303D01*
X0044145Y0030250D01*
X0045416Y0028347D01*
X0046926Y0026626D01*
X0048647Y0025116D01*
X0050550Y0023845D01*
X0052603Y0022832D01*
X0054771Y0022096D01*
X0057016Y0021650D01*
X0059300Y0021500D01*
X0061649Y0021658D01*
X0063956Y0022131D01*
X0066178Y0022908D01*
X0068276Y0023977D01*
X0070211Y0025318D01*
X0071949Y0026906D01*
X0073458Y0028714D01*
X0074710Y0030707D01*
X0075684Y0032851D01*
X0076361Y0035106D01*
X0076730Y0037431D01*
X0076782Y0039785D01*
X0076519Y0042125D01*
X0075943Y0044408D01*
X0075067Y0046593D01*
X0073905Y0048641D01*
X0072479Y0050514D01*
X0070814Y0052179D01*
X0068941Y0053605D01*
X0066893Y0054767D01*
X0064708Y0055643D01*
X0062425Y0056219D01*
X0060085Y0056482D01*
X0057731Y0056430D01*
X0055406Y0056061D01*
X0053151Y0055384D01*
X0051007Y0054410D01*
X0049014Y0053158D01*
X0047206Y0051649D01*
X0045618Y0049911D01*
X0044277Y0047976D01*
X0043208Y0045878D01*
X0042431Y0043656D01*
X0041958Y0041349D01*
X0041800Y0039000D01*
X0041950Y0036716D01*
X0042396Y0034471D01*
X0042277Y0035069D02*
X0076350Y0035069D01*
X0076609Y0036667D02*
X0041959Y0036667D01*
X0041848Y0038266D02*
X0076748Y0038266D01*
X0076773Y0039864D02*
X0041858Y0039864D01*
X0041982Y0041463D02*
X0076593Y0041463D01*
X0076283Y0043061D02*
X0042309Y0043061D01*
X0042782Y0044660D02*
X0075842Y0044660D01*
X0075201Y0046258D02*
X0043402Y0046258D01*
X0044217Y0047857D02*
X0074350Y0047857D01*
X0073285Y0049455D02*
X0045302Y0049455D01*
X0046662Y0051054D02*
X0071939Y0051054D01*
X0070192Y0052652D02*
X0048408Y0052652D01*
X0050753Y0054251D02*
X0067802Y0054251D01*
X0063891Y0055849D02*
X0054700Y0055849D01*
X0057271Y0067096D02*
X0059516Y0066650D01*
X0061800Y0066500D01*
X0064149Y0066658D01*
X0066456Y0067131D01*
X0068678Y0067908D01*
X0070776Y0068977D01*
X0072711Y0070318D01*
X0074449Y0071906D01*
X0075958Y0073714D01*
X0077210Y0075707D01*
X0078184Y0077851D01*
X0078861Y0080106D01*
X0079230Y0082431D01*
X0079282Y0084785D01*
X0079019Y0087125D01*
X0078443Y0089408D01*
X0077567Y0091593D01*
X0076405Y0093641D01*
X0074979Y0095514D01*
X0073314Y0097179D01*
X0071441Y0098605D01*
X0069393Y0099767D01*
X0067208Y0100643D01*
X0064925Y0101219D01*
X0062585Y0101482D01*
X0060231Y0101430D01*
X0057906Y0101061D01*
X0055651Y0100384D01*
X0053507Y0099410D01*
X0051514Y0098158D01*
X0049706Y0096649D01*
X0048118Y0094911D01*
X0046777Y0092976D01*
X0045708Y0090878D01*
X0044931Y0088656D01*
X0044458Y0086349D01*
X0044300Y0084000D01*
X0044450Y0081716D01*
X0044896Y0079471D01*
X0045632Y0077303D01*
X0046645Y0075250D01*
X0047916Y0073347D01*
X0049426Y0071626D01*
X0051147Y0070116D01*
X0053050Y0068845D01*
X0055103Y0067832D01*
X0057271Y0067096D01*
X0057559Y0067039D02*
X0066008Y0067039D01*
X0070109Y0068637D02*
X0053470Y0068637D01*
X0051010Y0070236D02*
X0072593Y0070236D01*
X0074370Y0071834D02*
X0049242Y0071834D01*
X0047859Y0073433D02*
X0075723Y0073433D01*
X0076786Y0075032D02*
X0046791Y0075032D01*
X0045964Y0076630D02*
X0077630Y0076630D01*
X0078298Y0078229D02*
X0045318Y0078229D01*
X0044825Y0079827D02*
X0078778Y0079827D01*
X0079070Y0081426D02*
X0044507Y0081426D01*
X0044364Y0083024D02*
X0079243Y0083024D01*
X0079279Y0084623D02*
X0044342Y0084623D01*
X0044450Y0086221D02*
X0079121Y0086221D01*
X0078844Y0087820D02*
X0044759Y0087820D01*
X0045197Y0089418D02*
X0078439Y0089418D01*
X0077798Y0091017D02*
X0045779Y0091017D01*
X0046593Y0092615D02*
X0076987Y0092615D01*
X0075969Y0094214D02*
X0047635Y0094214D01*
X0048942Y0095812D02*
X0074681Y0095812D01*
X0073009Y0097411D02*
X0050619Y0097411D01*
X0052869Y0099009D02*
X0070728Y0099009D01*
X0067297Y0100608D02*
X0056396Y0100608D01*
X0062603Y0110332D02*
X0064771Y0109596D01*
X0067016Y0109150D01*
X0069300Y0109000D01*
X0071649Y0109158D01*
X0073956Y0109631D01*
X0076178Y0110408D01*
X0078276Y0111477D01*
X0080211Y0112818D01*
X0081949Y0114406D01*
X0083458Y0116214D01*
X0084710Y0118207D01*
X0085684Y0120351D01*
X0086361Y0122606D01*
X0086730Y0124931D01*
X0086782Y0127285D01*
X0086519Y0129625D01*
X0085943Y0131908D01*
X0085067Y0134093D01*
X0083905Y0136141D01*
X0082479Y0138014D01*
X0080814Y0139679D01*
X0078941Y0141105D01*
X0076893Y0142267D01*
X0074708Y0143143D01*
X0072425Y0143719D01*
X0070085Y0143982D01*
X0067731Y0143930D01*
X0065406Y0143561D01*
X0063151Y0142884D01*
X0061007Y0141910D01*
X0059014Y0140658D01*
X0057206Y0139149D01*
X0055618Y0137411D01*
X0054277Y0135476D01*
X0053208Y0133378D01*
X0052431Y0131156D01*
X0051958Y0128849D01*
X0051800Y0126500D01*
X0051950Y0124216D01*
X0052396Y0121971D01*
X0053132Y0119803D01*
X0054145Y0117750D01*
X0055416Y0115847D01*
X0056926Y0114126D01*
X0058647Y0112616D01*
X0060550Y0111345D01*
X0062603Y0110332D01*
X0062996Y0110199D02*
X0075579Y0110199D01*
X0078738Y0111797D02*
X0059872Y0111797D01*
X0057758Y0113396D02*
X0080843Y0113396D01*
X0082440Y0114994D02*
X0056164Y0114994D01*
X0054918Y0116593D02*
X0083696Y0116593D01*
X0084700Y0118191D02*
X0053927Y0118191D01*
X0053139Y0119790D02*
X0085429Y0119790D01*
X0085996Y0121388D02*
X0052594Y0121388D01*
X0052194Y0122987D02*
X0086422Y0122987D01*
X0086675Y0124585D02*
X0051926Y0124585D01*
X0051821Y0126184D02*
X0086758Y0126184D01*
X0086726Y0127782D02*
X0051886Y0127782D01*
X0052067Y0129381D02*
X0086546Y0129381D01*
X0086177Y0130979D02*
X0052395Y0130979D01*
X0052928Y0132578D02*
X0085675Y0132578D01*
X0085020Y0134176D02*
X0053615Y0134176D01*
X0054484Y0135775D02*
X0084113Y0135775D01*
X0082966Y0137373D02*
X0055592Y0137373D01*
X0057045Y0138972D02*
X0081521Y0138972D01*
X0079643Y0140570D02*
X0058909Y0140570D01*
X0061577Y0142169D02*
X0077066Y0142169D01*
X0071992Y0143768D02*
X0066708Y0143768D01*
X0038443Y0116908D02*
X0039019Y0114625D01*
X0039282Y0112285D01*
X0039230Y0109931D01*
X0038861Y0107606D01*
X0038184Y0105351D01*
X0037210Y0103207D01*
X0035958Y0101214D01*
X0034449Y0099406D01*
X0032711Y0097818D01*
X0030776Y0096477D01*
X0028678Y0095408D01*
X0026456Y0094631D01*
X0024149Y0094158D01*
X0021800Y0094000D01*
X0019516Y0094150D01*
X0017271Y0094596D01*
X0015103Y0095332D01*
X0013050Y0096345D01*
X0011147Y0097616D01*
X0009426Y0099126D01*
X0007916Y0100847D01*
X0006645Y0102750D01*
X0005632Y0104803D01*
X0004896Y0106971D01*
X0004450Y0109216D01*
X0004300Y0111500D01*
X0004458Y0113849D01*
X0004931Y0116156D01*
X0005708Y0118378D01*
X0006777Y0120476D01*
X0008118Y0122411D01*
X0009706Y0124149D01*
X0011514Y0125658D01*
X0013507Y0126910D01*
X0015651Y0127884D01*
X0017906Y0128561D01*
X0020231Y0128930D01*
X0022585Y0128982D01*
X0024925Y0128719D01*
X0027208Y0128143D01*
X0029393Y0127267D01*
X0031441Y0126105D01*
X0033314Y0124679D01*
X0034979Y0123014D01*
X0036405Y0121141D01*
X0037567Y0119093D01*
X0038443Y0116908D01*
X0038523Y0116593D02*
X0005084Y0116593D01*
X0004693Y0114994D02*
X0038926Y0114994D01*
X0039157Y0113396D02*
X0004428Y0113396D01*
X0004320Y0111797D02*
X0039271Y0111797D01*
X0039236Y0110199D02*
X0004385Y0110199D01*
X0004572Y0108600D02*
X0039019Y0108600D01*
X0038680Y0107002D02*
X0004890Y0107002D01*
X0005428Y0105403D02*
X0038200Y0105403D01*
X0037482Y0103805D02*
X0006124Y0103805D01*
X0007008Y0102206D02*
X0036581Y0102206D01*
X0035452Y0100608D02*
X0008126Y0100608D01*
X0009558Y0099009D02*
X0034014Y0099009D01*
X0032123Y0097411D02*
X0011454Y0097411D01*
X0014130Y0095812D02*
X0029471Y0095812D01*
X0024419Y0094214D02*
X0019194Y0094214D01*
X0020085Y0081482D02*
X0017731Y0081430D01*
X0015406Y0081061D01*
X0013151Y0080384D01*
X0011007Y0079410D01*
X0009014Y0078158D01*
X0007206Y0076649D01*
X0005618Y0074911D01*
X0004277Y0072976D01*
X0003208Y0070878D01*
X0002431Y0068656D01*
X0001958Y0066349D01*
X0001800Y0064000D01*
X0001950Y0061716D01*
X0002396Y0059471D01*
X0003132Y0057303D01*
X0004145Y0055250D01*
X0005416Y0053347D01*
X0006926Y0051626D01*
X0008647Y0050116D01*
X0010550Y0048845D01*
X0012603Y0047832D01*
X0014771Y0047096D01*
X0017016Y0046650D01*
X0019300Y0046500D01*
X0021649Y0046658D01*
X0023956Y0047131D01*
X0026178Y0047908D01*
X0028276Y0048977D01*
X0030211Y0050318D01*
X0031949Y0051906D01*
X0033458Y0053714D01*
X0034710Y0055707D01*
X0035684Y0057851D01*
X0036361Y0060106D01*
X0036730Y0062431D01*
X0036782Y0064785D01*
X0036519Y0067125D01*
X0035943Y0069408D01*
X0035067Y0071593D01*
X0033905Y0073641D01*
X0032479Y0075514D01*
X0030814Y0077179D01*
X0028941Y0078605D01*
X0026893Y0079767D01*
X0024708Y0080643D01*
X0022425Y0081219D01*
X0020085Y0081482D01*
X0020589Y0081426D02*
X0017706Y0081426D01*
X0011925Y0079827D02*
X0026743Y0079827D01*
X0029435Y0078229D02*
X0009126Y0078229D01*
X0007189Y0076630D02*
X0031363Y0076630D01*
X0032846Y0075032D02*
X0005728Y0075032D01*
X0004594Y0073433D02*
X0034023Y0073433D01*
X0034930Y0071834D02*
X0003696Y0071834D01*
X0002984Y0070236D02*
X0035611Y0070236D01*
X0036138Y0068637D02*
X0002427Y0068637D01*
X0002100Y0067039D02*
X0036528Y0067039D01*
X0036709Y0065440D02*
X0001897Y0065440D01*
X0001810Y0063842D02*
X0036761Y0063842D01*
X0036700Y0062243D02*
X0001915Y0062243D01*
X0002163Y0060645D02*
X0036447Y0060645D01*
X0036043Y0059046D02*
X0002540Y0059046D01*
X0003083Y0057448D02*
X0035501Y0057448D01*
X0034775Y0055849D02*
X0003849Y0055849D01*
X0004812Y0054251D02*
X0033795Y0054251D01*
X0032572Y0052652D02*
X0006025Y0052652D01*
X0007578Y0051054D02*
X0031016Y0051054D01*
X0028966Y0049455D02*
X0009636Y0049455D01*
X0012553Y0047857D02*
X0026031Y0047857D01*
X0042736Y0033470D02*
X0075870Y0033470D01*
X0075239Y0031872D02*
X0043345Y0031872D01*
X0044133Y0030273D02*
X0074438Y0030273D01*
X0073425Y0028675D02*
X0045197Y0028675D01*
X0046531Y0027076D02*
X0072091Y0027076D01*
X0070386Y0025478D02*
X0048235Y0025478D01*
X0050498Y0023879D02*
X0068083Y0023879D01*
X0064384Y0022281D02*
X0054228Y0022281D01*
X0116645Y0075250D02*
X0115632Y0077303D01*
X0114896Y0079471D01*
X0114450Y0081716D01*
X0114300Y0084000D01*
X0114458Y0086349D01*
X0114931Y0088656D01*
X0115708Y0090878D01*
X0116777Y0092976D01*
X0118118Y0094911D01*
X0119706Y0096649D01*
X0121514Y0098158D01*
X0123507Y0099410D01*
X0125651Y0100384D01*
X0127906Y0101061D01*
X0130231Y0101430D01*
X0132585Y0101482D01*
X0134925Y0101219D01*
X0137208Y0100643D01*
X0139393Y0099767D01*
X0141441Y0098605D01*
X0143314Y0097179D01*
X0144979Y0095514D01*
X0146405Y0093641D01*
X0147567Y0091593D01*
X0148443Y0089408D01*
X0149019Y0087125D01*
X0149282Y0084785D01*
X0149230Y0082431D01*
X0148861Y0080106D01*
X0148184Y0077851D01*
X0147210Y0075707D01*
X0145958Y0073714D01*
X0144449Y0071906D01*
X0142711Y0070318D01*
X0140776Y0068977D01*
X0138678Y0067908D01*
X0136456Y0067131D01*
X0134149Y0066658D01*
X0131800Y0066500D01*
X0129516Y0066650D01*
X0127271Y0067096D01*
X0125103Y0067832D01*
X0123050Y0068845D01*
X0121147Y0070116D01*
X0119426Y0071626D01*
X0117916Y0073347D01*
X0116645Y0075250D01*
X0116791Y0075032D02*
X0146786Y0075032D01*
X0147630Y0076630D02*
X0115964Y0076630D01*
X0115318Y0078229D02*
X0148298Y0078229D01*
X0148778Y0079827D02*
X0114825Y0079827D01*
X0114507Y0081426D02*
X0149070Y0081426D01*
X0149243Y0083024D02*
X0114364Y0083024D01*
X0114342Y0084623D02*
X0149279Y0084623D01*
X0149121Y0086221D02*
X0114450Y0086221D01*
X0114759Y0087820D02*
X0148844Y0087820D01*
X0148439Y0089418D02*
X0115197Y0089418D01*
X0115779Y0091017D02*
X0147798Y0091017D01*
X0146987Y0092615D02*
X0116593Y0092615D01*
X0117635Y0094214D02*
X0145969Y0094214D01*
X0144681Y0095812D02*
X0118942Y0095812D01*
X0120619Y0097411D02*
X0143009Y0097411D01*
X0140728Y0099009D02*
X0122869Y0099009D01*
X0126396Y0100608D02*
X0137297Y0100608D01*
X0131178Y0110408D02*
X0128956Y0109631D01*
X0126649Y0109158D01*
X0124300Y0109000D01*
X0122016Y0109150D01*
X0119771Y0109596D01*
X0117603Y0110332D01*
X0115550Y0111345D01*
X0113647Y0112616D01*
X0111926Y0114126D01*
X0110416Y0115847D01*
X0109145Y0117750D01*
X0108132Y0119803D01*
X0107396Y0121971D01*
X0106950Y0124216D01*
X0106800Y0126500D01*
X0106958Y0128849D01*
X0107431Y0131156D01*
X0108208Y0133378D01*
X0109277Y0135476D01*
X0110618Y0137411D01*
X0112206Y0139149D01*
X0114014Y0140658D01*
X0116007Y0141910D01*
X0118151Y0142884D01*
X0120406Y0143561D01*
X0122731Y0143930D01*
X0125085Y0143982D01*
X0127425Y0143719D01*
X0129708Y0143143D01*
X0131893Y0142267D01*
X0133941Y0141105D01*
X0135814Y0139679D01*
X0137479Y0138014D01*
X0138905Y0136141D01*
X0140067Y0134093D01*
X0140943Y0131908D01*
X0141519Y0129625D01*
X0141782Y0127285D01*
X0141730Y0124931D01*
X0141361Y0122606D01*
X0140684Y0120351D01*
X0139710Y0118207D01*
X0138458Y0116214D01*
X0136949Y0114406D01*
X0135211Y0112818D01*
X0133276Y0111477D01*
X0131178Y0110408D01*
X0130579Y0110199D02*
X0117996Y0110199D01*
X0114872Y0111797D02*
X0133738Y0111797D01*
X0135843Y0113396D02*
X0112758Y0113396D01*
X0111164Y0114994D02*
X0137440Y0114994D01*
X0138696Y0116593D02*
X0109918Y0116593D01*
X0108927Y0118191D02*
X0139700Y0118191D01*
X0140429Y0119790D02*
X0108139Y0119790D01*
X0107594Y0121388D02*
X0140996Y0121388D01*
X0141422Y0122987D02*
X0107194Y0122987D01*
X0106926Y0124585D02*
X0141675Y0124585D01*
X0141758Y0126184D02*
X0106821Y0126184D01*
X0106886Y0127782D02*
X0141726Y0127782D01*
X0141546Y0129381D02*
X0107067Y0129381D01*
X0107395Y0130979D02*
X0141177Y0130979D01*
X0140675Y0132578D02*
X0107928Y0132578D01*
X0108615Y0134176D02*
X0140020Y0134176D01*
X0139113Y0135775D02*
X0109484Y0135775D01*
X0110592Y0137373D02*
X0137966Y0137373D01*
X0136521Y0138972D02*
X0112045Y0138972D01*
X0113909Y0140570D02*
X0134643Y0140570D01*
X0132066Y0142169D02*
X0116577Y0142169D01*
X0121708Y0143768D02*
X0126992Y0143768D01*
X0154931Y0116156D02*
X0154458Y0113849D01*
X0154300Y0111500D01*
X0154450Y0109216D01*
X0154896Y0106971D01*
X0155632Y0104803D01*
X0156645Y0102750D01*
X0157916Y0100847D01*
X0159426Y0099126D01*
X0161147Y0097616D01*
X0163050Y0096345D01*
X0165103Y0095332D01*
X0167271Y0094596D01*
X0169516Y0094150D01*
X0171800Y0094000D01*
X0174149Y0094158D01*
X0176456Y0094631D01*
X0178678Y0095408D01*
X0180776Y0096477D01*
X0182711Y0097818D01*
X0184449Y0099406D01*
X0185958Y0101214D01*
X0187210Y0103207D01*
X0188184Y0105351D01*
X0188861Y0107606D01*
X0189230Y0109931D01*
X0189282Y0112285D01*
X0189019Y0114625D01*
X0188443Y0116908D01*
X0187567Y0119093D01*
X0186405Y0121141D01*
X0184979Y0123014D01*
X0183314Y0124679D01*
X0181441Y0126105D01*
X0179393Y0127267D01*
X0177208Y0128143D01*
X0174925Y0128719D01*
X0172585Y0128982D01*
X0170231Y0128930D01*
X0167906Y0128561D01*
X0165651Y0127884D01*
X0163507Y0126910D01*
X0161514Y0125658D01*
X0159706Y0124149D01*
X0158118Y0122411D01*
X0156777Y0120476D01*
X0155708Y0118378D01*
X0154931Y0116156D01*
X0155084Y0116593D02*
X0188523Y0116593D01*
X0188926Y0114994D02*
X0154693Y0114994D01*
X0154428Y0113396D02*
X0189157Y0113396D01*
X0189271Y0111797D02*
X0154320Y0111797D01*
X0154385Y0110199D02*
X0189236Y0110199D01*
X0189019Y0108600D02*
X0154572Y0108600D01*
X0154890Y0107002D02*
X0188680Y0107002D01*
X0188200Y0105403D02*
X0155428Y0105403D01*
X0156124Y0103805D02*
X0187482Y0103805D01*
X0186581Y0102206D02*
X0157008Y0102206D01*
X0158126Y0100608D02*
X0185452Y0100608D01*
X0184014Y0099009D02*
X0159558Y0099009D01*
X0161454Y0097411D02*
X0182123Y0097411D01*
X0179471Y0095812D02*
X0164130Y0095812D01*
X0169194Y0094214D02*
X0174419Y0094214D01*
X0175085Y0081482D02*
X0172731Y0081430D01*
X0170406Y0081061D01*
X0168151Y0080384D01*
X0166007Y0079410D01*
X0164014Y0078158D01*
X0162206Y0076649D01*
X0160618Y0074911D01*
X0159277Y0072976D01*
X0158208Y0070878D01*
X0157431Y0068656D01*
X0156958Y0066349D01*
X0156800Y0064000D01*
X0156950Y0061716D01*
X0157396Y0059471D01*
X0158132Y0057303D01*
X0159145Y0055250D01*
X0160416Y0053347D01*
X0161926Y0051626D01*
X0163647Y0050116D01*
X0165550Y0048845D01*
X0167603Y0047832D01*
X0169771Y0047096D01*
X0172016Y0046650D01*
X0174300Y0046500D01*
X0176649Y0046658D01*
X0178956Y0047131D01*
X0181178Y0047908D01*
X0183276Y0048977D01*
X0185211Y0050318D01*
X0186949Y0051906D01*
X0188458Y0053714D01*
X0189710Y0055707D01*
X0190684Y0057851D01*
X0191361Y0060106D01*
X0191730Y0062431D01*
X0191782Y0064785D01*
X0191519Y0067125D01*
X0190943Y0069408D01*
X0190067Y0071593D01*
X0188905Y0073641D01*
X0187479Y0075514D01*
X0185814Y0077179D01*
X0183941Y0078605D01*
X0181893Y0079767D01*
X0179708Y0080643D01*
X0177425Y0081219D01*
X0175085Y0081482D01*
X0175589Y0081426D02*
X0172706Y0081426D01*
X0166925Y0079827D02*
X0181743Y0079827D01*
X0184435Y0078229D02*
X0164126Y0078229D01*
X0162189Y0076630D02*
X0186363Y0076630D01*
X0187846Y0075032D02*
X0160728Y0075032D01*
X0159594Y0073433D02*
X0189023Y0073433D01*
X0189930Y0071834D02*
X0158696Y0071834D01*
X0157984Y0070236D02*
X0190611Y0070236D01*
X0191138Y0068637D02*
X0157427Y0068637D01*
X0157100Y0067039D02*
X0191528Y0067039D01*
X0191709Y0065440D02*
X0156897Y0065440D01*
X0156810Y0063842D02*
X0191761Y0063842D01*
X0191700Y0062243D02*
X0156915Y0062243D01*
X0157163Y0060645D02*
X0191447Y0060645D01*
X0191043Y0059046D02*
X0157540Y0059046D01*
X0158083Y0057448D02*
X0190501Y0057448D01*
X0189775Y0055849D02*
X0158849Y0055849D01*
X0159812Y0054251D02*
X0188795Y0054251D01*
X0187572Y0052652D02*
X0161025Y0052652D01*
X0162578Y0051054D02*
X0186016Y0051054D01*
X0183966Y0049455D02*
X0164636Y0049455D01*
X0167553Y0047857D02*
X0181031Y0047857D01*
X0151519Y0042125D02*
X0151782Y0039785D01*
X0151730Y0037431D01*
X0151361Y0035106D01*
X0150684Y0032851D01*
X0149710Y0030707D01*
X0148458Y0028714D01*
X0146949Y0026906D01*
X0145211Y0025318D01*
X0143276Y0023977D01*
X0141178Y0022908D01*
X0138956Y0022131D01*
X0136649Y0021658D01*
X0134300Y0021500D01*
X0132016Y0021650D01*
X0129771Y0022096D01*
X0127603Y0022832D01*
X0125550Y0023845D01*
X0123647Y0025116D01*
X0121926Y0026626D01*
X0120416Y0028347D01*
X0119145Y0030250D01*
X0118132Y0032303D01*
X0117396Y0034471D01*
X0116950Y0036716D01*
X0116800Y0039000D01*
X0116958Y0041349D01*
X0117431Y0043656D01*
X0118208Y0045878D01*
X0119277Y0047976D01*
X0120618Y0049911D01*
X0122206Y0051649D01*
X0124014Y0053158D01*
X0126007Y0054410D01*
X0128151Y0055384D01*
X0130406Y0056061D01*
X0132731Y0056430D01*
X0135085Y0056482D01*
X0137425Y0056219D01*
X0139708Y0055643D01*
X0141893Y0054767D01*
X0143941Y0053605D01*
X0145814Y0052179D01*
X0147479Y0050514D01*
X0148905Y0048641D01*
X0150067Y0046593D01*
X0150943Y0044408D01*
X0151519Y0042125D01*
X0151593Y0041463D02*
X0116982Y0041463D01*
X0116858Y0039864D02*
X0151773Y0039864D01*
X0151748Y0038266D02*
X0116848Y0038266D01*
X0116959Y0036667D02*
X0151609Y0036667D01*
X0151350Y0035069D02*
X0117277Y0035069D01*
X0117736Y0033470D02*
X0150870Y0033470D01*
X0150239Y0031872D02*
X0118345Y0031872D01*
X0119133Y0030273D02*
X0149438Y0030273D01*
X0148425Y0028675D02*
X0120197Y0028675D01*
X0121531Y0027076D02*
X0147091Y0027076D01*
X0145386Y0025478D02*
X0123235Y0025478D01*
X0125498Y0023879D02*
X0143083Y0023879D01*
X0139384Y0022281D02*
X0129228Y0022281D01*
X0117309Y0043061D02*
X0151283Y0043061D01*
X0150842Y0044660D02*
X0117782Y0044660D01*
X0118402Y0046258D02*
X0150201Y0046258D01*
X0149350Y0047857D02*
X0119217Y0047857D01*
X0120302Y0049455D02*
X0148285Y0049455D01*
X0146939Y0051054D02*
X0121662Y0051054D01*
X0123408Y0052652D02*
X0145192Y0052652D01*
X0142802Y0054251D02*
X0125753Y0054251D01*
X0129700Y0055849D02*
X0138891Y0055849D01*
X0136008Y0067039D02*
X0127559Y0067039D01*
X0123470Y0068637D02*
X0140109Y0068637D01*
X0142593Y0070236D02*
X0121010Y0070236D01*
X0119242Y0071834D02*
X0144370Y0071834D01*
X0145723Y0073433D02*
X0117859Y0073433D01*
X0155643Y0118191D02*
X0187929Y0118191D01*
X0187172Y0119790D02*
X0156428Y0119790D01*
X0157409Y0121388D02*
X0186216Y0121388D01*
X0184999Y0122987D02*
X0158644Y0122987D01*
X0160229Y0124585D02*
X0183407Y0124585D01*
X0181302Y0126184D02*
X0162351Y0126184D01*
X0165427Y0127782D02*
X0178108Y0127782D01*
X0037929Y0118191D02*
X0005643Y0118191D01*
X0006428Y0119790D02*
X0037172Y0119790D01*
X0036216Y0121388D02*
X0007409Y0121388D01*
X0008644Y0122987D02*
X0034999Y0122987D01*
X0033407Y0124585D02*
X0010229Y0124585D01*
X0012351Y0126184D02*
X0031302Y0126184D01*
X0028108Y0127782D02*
X0015427Y0127782D01*
M02*
