G75*
%MOIN*%
%OFA0B0*%
%FSLAX25Y25*%
%IPPOS*%
%LPD*%
%AMOC8*
5,1,8,0,0,1.08239X$1,22.5*
%
%ADD10C,0.00400*%
%ADD11R,0.00138X0.00276*%
%ADD12R,0.00138X0.00827*%
%ADD13R,0.00138X0.01378*%
%ADD14R,0.00138X0.01929*%
%ADD15R,0.00138X0.02480*%
%ADD16R,0.00138X0.03031*%
%ADD17R,0.00138X0.03583*%
%ADD18R,0.00138X0.04134*%
%ADD19R,0.00138X0.04685*%
%ADD20R,0.00138X0.05236*%
%ADD21R,0.00138X0.05787*%
%ADD22R,0.00138X0.06339*%
%ADD23R,0.00138X0.06890*%
%ADD24R,0.00138X0.07441*%
%ADD25R,0.00138X0.07992*%
%ADD26R,0.00138X0.08543*%
%ADD27R,0.00138X0.09094*%
%ADD28R,0.00138X0.09646*%
%ADD29R,0.00138X0.10197*%
%ADD30R,0.00138X0.10886*%
%ADD31R,0.00138X0.11437*%
%ADD32R,0.00138X0.11988*%
%ADD33R,0.00138X0.12539*%
%ADD34R,0.00138X0.13091*%
%ADD35R,0.00138X0.13642*%
%ADD36R,0.00138X0.14193*%
%ADD37R,0.00138X0.14744*%
%ADD38R,0.00138X0.15295*%
%ADD39R,0.00138X0.15846*%
%ADD40R,0.00138X0.16398*%
%ADD41R,0.00138X0.16949*%
%ADD42R,0.00138X0.17500*%
%ADD43R,0.00138X0.18051*%
%ADD44R,0.00138X0.18602*%
%ADD45R,0.00138X0.19154*%
%ADD46R,0.00138X0.19705*%
%ADD47R,0.00138X0.20256*%
%ADD48R,0.00138X0.20807*%
%ADD49R,0.00138X0.21358*%
%ADD50R,0.00138X0.21909*%
%ADD51R,0.00138X0.22461*%
%ADD52R,0.00138X0.23012*%
%ADD53R,0.00138X0.23563*%
%ADD54R,0.00138X0.24114*%
%ADD55R,0.00138X0.24665*%
%ADD56R,0.00138X0.25217*%
%ADD57R,0.00138X0.25768*%
%ADD58R,0.00138X0.26319*%
%ADD59R,0.00138X0.26870*%
%ADD60R,0.00138X0.27421*%
%ADD61R,0.00138X0.27972*%
%ADD62R,0.00138X0.28524*%
%ADD63R,0.00138X0.05098*%
%ADD64R,0.00138X0.01516*%
%ADD65R,0.00138X0.03720*%
%ADD66R,0.00138X0.06063*%
%ADD67R,0.00138X0.04823*%
%ADD68R,0.00138X0.03445*%
%ADD69R,0.00138X0.03307*%
%ADD70R,0.00138X0.06614*%
%ADD71R,0.00138X0.01654*%
%ADD72R,0.00138X0.07165*%
%ADD73R,0.00138X0.02894*%
%ADD74R,0.00138X0.07717*%
%ADD75R,0.00138X0.04961*%
%ADD76R,0.00138X0.01791*%
%ADD77R,0.00138X0.02756*%
%ADD78R,0.00138X0.08268*%
%ADD79R,0.00138X0.03996*%
%ADD80R,0.00138X0.02618*%
%ADD81R,0.00138X0.05374*%
%ADD82R,0.00138X0.04409*%
%ADD83R,0.00138X0.00138*%
%ADD84R,0.00138X0.08819*%
%ADD85R,0.00138X0.05512*%
%ADD86R,0.00138X0.05650*%
%ADD87R,0.00138X0.02343*%
%ADD88R,0.00138X0.00413*%
%ADD89R,0.00138X0.09370*%
%ADD90R,0.00138X0.00551*%
%ADD91R,0.00138X0.00689*%
%ADD92R,0.00138X0.01240*%
%ADD93R,0.00138X0.00965*%
%ADD94R,0.00138X0.01102*%
%ADD95R,0.00138X0.05925*%
%ADD96R,0.00138X0.02067*%
%ADD97R,0.00138X0.02205*%
%ADD98R,0.00138X0.09921*%
%ADD99R,0.00138X0.06201*%
%ADD100R,0.00138X0.09783*%
%ADD101R,0.00138X0.06476*%
%ADD102R,0.00138X0.06752*%
%ADD103R,0.00138X0.09508*%
%ADD104R,0.00138X0.07579*%
%ADD105R,0.00138X0.07854*%
%ADD106R,0.00138X0.09232*%
%ADD107R,0.00138X0.07028*%
%ADD108R,0.00138X0.08957*%
%ADD109R,0.00138X0.07303*%
%ADD110R,0.00138X0.03858*%
%ADD111R,0.00138X0.10059*%
%ADD112R,0.00138X0.10335*%
%ADD113R,0.00138X0.03169*%
%ADD114R,0.00138X0.10610*%
%ADD115R,0.00138X0.04547*%
%ADD116R,0.00138X0.04272*%
%ADD117R,0.00138X0.18878*%
%ADD118R,0.00138X0.18740*%
%ADD119R,0.00138X0.18465*%
%ADD120R,0.00138X0.18327*%
%ADD121R,0.00138X0.18189*%
%ADD122R,0.00138X0.17913*%
%ADD123R,0.00138X0.17638*%
%ADD124R,0.00138X0.17224*%
%ADD125R,0.00138X0.16673*%
%ADD126R,0.00138X0.08681*%
%ADD127R,0.00138X0.16122*%
%ADD128R,0.00138X0.08406*%
%ADD129R,0.00138X0.28248*%
%ADD130R,0.00138X0.27697*%
%ADD131R,0.00138X0.27146*%
%ADD132R,0.00138X0.26594*%
%ADD133R,0.00138X0.26043*%
%ADD134R,0.00138X0.25492*%
%ADD135R,0.00138X0.24941*%
%ADD136R,0.00138X0.24390*%
%ADD137R,0.00138X0.23839*%
%ADD138R,0.00138X0.23287*%
%ADD139R,0.00138X0.22736*%
%ADD140R,0.00138X0.22185*%
%ADD141R,0.00138X0.21634*%
%ADD142R,0.00138X0.21083*%
%ADD143R,0.00138X0.20531*%
%ADD144R,0.00138X0.19980*%
%ADD145R,0.00138X0.19429*%
%ADD146R,0.00138X0.17776*%
%ADD147R,0.00138X0.15571*%
%ADD148R,0.00138X0.15020*%
%ADD149R,0.00138X0.14606*%
%ADD150R,0.00138X0.14055*%
%ADD151R,0.00138X0.13504*%
%ADD152R,0.00138X0.12953*%
%ADD153R,0.00138X0.12402*%
%ADD154R,0.00138X0.11850*%
%ADD155R,0.00138X0.11299*%
%ADD156R,0.00138X0.10748*%
%ADD157R,0.00118X0.00039*%
%ADD158R,0.00276X0.00039*%
%ADD159R,0.00394X0.00039*%
%ADD160R,0.00354X0.00039*%
%ADD161R,0.00472X0.00039*%
%ADD162R,0.00551X0.00039*%
%ADD163R,0.00669X0.00039*%
%ADD164R,0.00748X0.00039*%
%ADD165R,0.00866X0.00039*%
%ADD166R,0.00945X0.00039*%
%ADD167R,0.01063X0.00039*%
%ADD168R,0.01142X0.00039*%
%ADD169R,0.01260X0.00039*%
%ADD170R,0.01220X0.00039*%
%ADD171R,0.01339X0.00039*%
%ADD172R,0.01457X0.00039*%
%ADD173R,0.01417X0.00039*%
%ADD174R,0.01535X0.00039*%
%ADD175R,0.01654X0.00039*%
%ADD176R,0.01614X0.00039*%
%ADD177R,0.01732X0.00039*%
%ADD178R,0.01811X0.00039*%
%ADD179R,0.01929X0.00039*%
%ADD180R,0.02008X0.00039*%
%ADD181R,0.02126X0.00039*%
%ADD182R,0.02205X0.00039*%
%ADD183R,0.02323X0.00039*%
%ADD184R,0.02283X0.00039*%
%ADD185R,0.02402X0.00039*%
%ADD186R,0.02520X0.00039*%
%ADD187R,0.02480X0.00039*%
%ADD188R,0.02598X0.00039*%
%ADD189R,0.02717X0.00039*%
%ADD190R,0.02677X0.00039*%
%ADD191R,0.02795X0.00039*%
%ADD192R,0.00197X0.00039*%
%ADD193R,0.02874X0.00039*%
%ADD194R,0.00315X0.00039*%
%ADD195R,0.02992X0.00039*%
%ADD196R,0.03071X0.00039*%
%ADD197R,0.00512X0.00039*%
%ADD198R,0.03189X0.00039*%
%ADD199R,0.03268X0.00039*%
%ADD200R,0.00630X0.00039*%
%ADD201R,0.03386X0.00039*%
%ADD202R,0.03346X0.00039*%
%ADD203R,0.03465X0.00039*%
%ADD204R,0.00827X0.00039*%
%ADD205R,0.03583X0.00039*%
%ADD206R,0.03543X0.00039*%
%ADD207R,0.03661X0.00039*%
%ADD208R,0.01024X0.00039*%
%ADD209R,0.03780X0.00039*%
%ADD210R,0.01102X0.00039*%
%ADD211R,0.03740X0.00039*%
%ADD212R,0.03858X0.00039*%
%ADD213R,0.01181X0.00039*%
%ADD214R,0.03937X0.00039*%
%ADD215R,0.01299X0.00039*%
%ADD216R,0.04055X0.00039*%
%ADD217R,0.01378X0.00039*%
%ADD218R,0.05669X0.00039*%
%ADD219R,0.05748X0.00039*%
%ADD220R,0.05787X0.00039*%
%ADD221R,0.05866X0.00039*%
%ADD222R,0.05827X0.00039*%
%ADD223R,0.05906X0.00039*%
%ADD224R,0.05945X0.00039*%
%ADD225R,0.06024X0.00039*%
%ADD226R,0.06063X0.00039*%
%ADD227R,0.06142X0.00039*%
%ADD228R,0.06102X0.00039*%
%ADD229R,0.06181X0.00039*%
%ADD230R,0.06260X0.00039*%
%ADD231R,0.06220X0.00039*%
%ADD232R,0.06299X0.00039*%
%ADD233R,0.06339X0.00039*%
%ADD234R,0.06417X0.00039*%
%ADD235R,0.06457X0.00039*%
%ADD236R,0.06496X0.00039*%
%ADD237R,0.06535X0.00039*%
%ADD238R,0.06378X0.00039*%
%ADD239R,0.05984X0.00039*%
%ADD240R,0.06575X0.00039*%
%ADD241R,0.06614X0.00039*%
%ADD242R,0.06654X0.00039*%
%ADD243R,0.06693X0.00039*%
%ADD244R,0.06732X0.00039*%
%ADD245R,0.06772X0.00039*%
%ADD246R,0.06811X0.00039*%
%ADD247R,0.06850X0.00039*%
%ADD248R,0.06890X0.00039*%
%ADD249R,0.06929X0.00039*%
%ADD250R,0.06969X0.00039*%
%ADD251R,0.07008X0.00039*%
%ADD252R,0.07047X0.00039*%
%ADD253R,0.07205X0.00039*%
%ADD254R,0.07402X0.00039*%
%ADD255R,0.07362X0.00039*%
%ADD256R,0.07559X0.00039*%
%ADD257R,0.07598X0.00039*%
%ADD258R,0.07756X0.00039*%
%ADD259R,0.07953X0.00039*%
%ADD260R,0.07913X0.00039*%
%ADD261R,0.08150X0.00039*%
%ADD262R,0.08307X0.00039*%
%ADD263R,0.08504X0.00039*%
%ADD264R,0.08701X0.00039*%
%ADD265R,0.08780X0.00039*%
%ADD266R,0.08819X0.00039*%
%ADD267R,0.08740X0.00039*%
%ADD268R,0.08661X0.00039*%
%ADD269R,0.08622X0.00039*%
%ADD270R,0.08583X0.00039*%
%ADD271R,0.08543X0.00039*%
%ADD272R,0.08465X0.00039*%
%ADD273R,0.08425X0.00039*%
%ADD274R,0.08858X0.00039*%
%ADD275R,0.08386X0.00039*%
%ADD276R,0.08346X0.00039*%
%ADD277R,0.08189X0.00039*%
%ADD278R,0.07992X0.00039*%
%ADD279R,0.08031X0.00039*%
%ADD280R,0.07835X0.00039*%
%ADD281R,0.07795X0.00039*%
%ADD282R,0.07638X0.00039*%
%ADD283R,0.07441X0.00039*%
%ADD284R,0.07480X0.00039*%
%ADD285R,0.07283X0.00039*%
%ADD286R,0.07126X0.00039*%
%ADD287R,0.07087X0.00039*%
%ADD288R,0.07244X0.00039*%
%ADD289R,0.07323X0.00039*%
%ADD290R,0.07677X0.00039*%
%ADD291R,0.16260X0.00039*%
%ADD292R,0.16220X0.00039*%
%ADD293R,0.16181X0.00039*%
%ADD294R,0.16142X0.00039*%
%ADD295R,0.16102X0.00039*%
%ADD296R,0.16024X0.00039*%
%ADD297R,0.15984X0.00039*%
%ADD298R,0.15945X0.00039*%
%ADD299R,0.15906X0.00039*%
%ADD300R,0.15866X0.00039*%
%ADD301R,0.15787X0.00039*%
%ADD302R,0.15748X0.00039*%
%ADD303R,0.15709X0.00039*%
%ADD304R,0.15669X0.00039*%
%ADD305R,0.15630X0.00039*%
%ADD306R,0.15551X0.00039*%
%ADD307R,0.15512X0.00039*%
%ADD308R,0.15472X0.00039*%
%ADD309R,0.15433X0.00039*%
%ADD310R,0.15394X0.00039*%
%ADD311R,0.15315X0.00039*%
%ADD312R,0.15276X0.00039*%
%ADD313R,0.15236X0.00039*%
%ADD314R,0.15591X0.00039*%
%ADD315R,0.16063X0.00039*%
%ADD316R,0.16339X0.00039*%
%ADD317R,0.16417X0.00039*%
%ADD318R,0.16457X0.00039*%
%ADD319R,0.16496X0.00039*%
%ADD320R,0.16575X0.00039*%
%ADD321R,0.16614X0.00039*%
%ADD322R,0.16654X0.00039*%
%ADD323R,0.16732X0.00039*%
%ADD324R,0.16772X0.00039*%
%ADD325R,0.16811X0.00039*%
%ADD326R,0.16890X0.00039*%
%ADD327R,0.16929X0.00039*%
%ADD328R,0.16969X0.00039*%
%ADD329R,0.17047X0.00039*%
%ADD330R,0.17126X0.00039*%
%ADD331R,0.17205X0.00039*%
%ADD332R,0.17283X0.00039*%
%ADD333R,0.17323X0.00039*%
%ADD334R,0.17362X0.00039*%
%ADD335R,0.17441X0.00039*%
%ADD336R,0.17480X0.00039*%
%ADD337R,0.17520X0.00039*%
%ADD338R,0.17598X0.00039*%
%ADD339R,0.17638X0.00039*%
%ADD340R,0.17677X0.00039*%
%ADD341R,0.17756X0.00039*%
%ADD342R,0.17795X0.00039*%
%ADD343R,0.17835X0.00039*%
%ADD344R,0.17913X0.00039*%
%ADD345R,0.17992X0.00039*%
%ADD346R,0.18071X0.00039*%
%ADD347R,0.18150X0.00039*%
%ADD348R,0.18189X0.00039*%
%ADD349R,0.18228X0.00039*%
%ADD350R,0.18307X0.00039*%
%ADD351R,0.18346X0.00039*%
%ADD352R,0.18386X0.00039*%
%ADD353R,0.18465X0.00039*%
%ADD354R,0.18504X0.00039*%
%ADD355R,0.18543X0.00039*%
%ADD356R,0.18622X0.00039*%
%ADD357R,0.18661X0.00039*%
%ADD358R,0.18701X0.00039*%
%ADD359R,0.04488X0.00039*%
%ADD360R,0.04449X0.00039*%
%ADD361R,0.04370X0.00039*%
%ADD362R,0.04331X0.00039*%
%ADD363R,0.04252X0.00039*%
%ADD364R,0.04173X0.00039*%
%ADD365R,0.04134X0.00039*%
%ADD366R,0.03976X0.00039*%
%ADD367R,0.07520X0.00039*%
%ADD368R,0.07165X0.00039*%
%ADD369R,0.03504X0.00039*%
%ADD370R,0.03307X0.00039*%
%ADD371R,0.03110X0.00039*%
%ADD372R,0.02913X0.00039*%
%ADD373R,0.05630X0.00039*%
%ADD374R,0.05433X0.00039*%
%ADD375R,0.05236X0.00039*%
%ADD376R,0.05039X0.00039*%
%ADD377R,0.04843X0.00039*%
%ADD378R,0.02441X0.00039*%
%ADD379R,0.04685X0.00039*%
%ADD380R,0.04528X0.00039*%
%ADD381R,0.02244X0.00039*%
%ADD382R,0.02047X0.00039*%
%ADD383R,0.01850X0.00039*%
%ADD384R,0.04291X0.00039*%
%ADD385R,0.00984X0.00039*%
%ADD386R,0.04213X0.00039*%
%ADD387R,0.00787X0.00039*%
%ADD388R,0.00591X0.00039*%
%ADD389R,0.04094X0.00039*%
%ADD390R,0.04016X0.00039*%
%ADD391R,0.03898X0.00039*%
%ADD392R,0.03819X0.00039*%
%ADD393R,0.03701X0.00039*%
%ADD394R,0.03622X0.00039*%
%ADD395R,0.03425X0.00039*%
%ADD396R,0.03228X0.00039*%
%ADD397C,0.01000*%
%ADD398R,0.00118X0.00118*%
%ADD399R,0.00709X0.00118*%
%ADD400R,0.00945X0.00118*%
%ADD401R,0.01181X0.00118*%
%ADD402R,0.01299X0.00118*%
%ADD403R,0.01535X0.00118*%
%ADD404R,0.01417X0.00118*%
%ADD405R,0.02008X0.00118*%
%ADD406R,0.02362X0.00118*%
%ADD407R,0.02480X0.00118*%
%ADD408R,0.02835X0.00118*%
%ADD409R,0.03189X0.00118*%
%ADD410R,0.03543X0.00118*%
%ADD411R,0.03425X0.00118*%
%ADD412R,0.03780X0.00118*%
%ADD413R,0.04016X0.00118*%
%ADD414R,0.03661X0.00118*%
%ADD415R,0.04252X0.00118*%
%ADD416R,0.01772X0.00118*%
%ADD417R,0.01654X0.00118*%
%ADD418R,0.00354X0.00118*%
%ADD419R,0.00472X0.00118*%
%ADD420R,0.00236X0.00118*%
%ADD421R,0.00591X0.00118*%
%ADD422R,0.00827X0.00118*%
%ADD423R,0.01063X0.00118*%
%ADD424R,0.02244X0.00118*%
%ADD425R,0.01890X0.00118*%
%ADD426R,0.04134X0.00118*%
%ADD427R,0.02126X0.00118*%
%ADD428R,0.03898X0.00118*%
%ADD429R,0.02598X0.00118*%
%ADD430R,0.02953X0.00118*%
%ADD431R,0.03071X0.00118*%
%ADD432R,0.02717X0.00118*%
%ADD433R,0.04370X0.00118*%
%ADD434R,0.04606X0.00118*%
%ADD435R,0.04724X0.00118*%
%ADD436R,0.04843X0.00118*%
%ADD437R,0.04961X0.00118*%
%ADD438R,0.05079X0.00118*%
%ADD439R,0.05197X0.00118*%
%ADD440R,0.05315X0.00118*%
%ADD441R,0.03307X0.00118*%
%ADD442R,0.05433X0.00118*%
%ADD443R,0.05551X0.00118*%
%ADD444R,0.05669X0.00118*%
%ADD445R,0.05787X0.00118*%
%ADD446R,0.05906X0.00118*%
%ADD447R,0.04488X0.00118*%
%ADD448R,0.06142X0.00118*%
%ADD449R,0.06260X0.00118*%
%ADD450R,0.08386X0.00118*%
%ADD451R,0.08504X0.00118*%
%ADD452R,0.08268X0.00118*%
%ADD453R,0.08150X0.00118*%
%ADD454R,0.08031X0.00118*%
%ADD455R,0.07913X0.00118*%
%ADD456R,0.07795X0.00118*%
%ADD457R,0.07677X0.00118*%
%ADD458R,0.07559X0.00118*%
%ADD459R,0.07441X0.00118*%
%ADD460R,0.07205X0.00118*%
%ADD461R,0.07087X0.00118*%
%ADD462R,0.06969X0.00118*%
%ADD463R,0.06024X0.00118*%
%ADD464R,0.06496X0.00118*%
%ADD465R,0.06732X0.00118*%
%ADD466R,0.07323X0.00118*%
%ADD467R,0.10866X0.00118*%
%ADD468R,0.10630X0.00118*%
%ADD469R,0.10394X0.00118*%
%ADD470R,0.10157X0.00118*%
%ADD471R,0.09803X0.00118*%
%ADD472R,0.09449X0.00118*%
%ADD473R,0.09094X0.00118*%
%ADD474C,0.01600*%
%ADD475C,0.00500*%
%ADD476C,0.00800*%
D10*
X0067389Y0061948D02*
X0069691Y0061948D01*
X0070459Y0062715D01*
X0069691Y0063482D01*
X0067389Y0063482D01*
X0067389Y0064249D02*
X0067389Y0061948D01*
X0067389Y0064249D02*
X0068157Y0065017D01*
X0069691Y0065017D01*
X0072761Y0066551D02*
X0072761Y0061948D01*
X0073528Y0061948D02*
X0071993Y0061948D01*
X0075063Y0061948D02*
X0076597Y0061948D01*
X0075830Y0061948D02*
X0075830Y0066551D01*
X0076597Y0066551D01*
X0078132Y0064249D02*
X0078132Y0061948D01*
X0080434Y0061948D01*
X0081201Y0062715D01*
X0080434Y0063482D01*
X0078132Y0063482D01*
X0078132Y0064249D02*
X0078899Y0065017D01*
X0080434Y0065017D01*
X0083503Y0059819D02*
X0083503Y0056749D01*
X0083503Y0055215D02*
X0083503Y0054448D01*
X0085038Y0054448D02*
X0087340Y0054448D01*
X0088107Y0055215D01*
X0087340Y0055982D01*
X0085038Y0055982D01*
X0085038Y0056749D02*
X0085038Y0054448D01*
X0085038Y0056749D02*
X0085805Y0057517D01*
X0087340Y0057517D01*
X0089642Y0056749D02*
X0089642Y0054448D01*
X0091176Y0054448D02*
X0091176Y0056749D01*
X0090409Y0057517D01*
X0089642Y0056749D01*
X0091176Y0056749D02*
X0091944Y0057517D01*
X0092711Y0057517D01*
X0092711Y0054448D01*
X0094246Y0055215D02*
X0094246Y0056749D01*
X0095013Y0057517D01*
X0096548Y0057517D01*
X0097315Y0056749D01*
X0097315Y0055215D01*
X0096548Y0054448D01*
X0095013Y0054448D01*
X0094246Y0055215D01*
X0098850Y0054448D02*
X0101152Y0054448D01*
X0101919Y0055215D01*
X0101919Y0056749D01*
X0101152Y0057517D01*
X0098850Y0057517D01*
X0098850Y0053680D01*
X0099617Y0052913D01*
X0100384Y0052913D01*
X0103453Y0054448D02*
X0105755Y0054448D01*
X0106523Y0055215D01*
X0105755Y0055982D01*
X0103453Y0055982D01*
X0103453Y0056749D02*
X0103453Y0054448D01*
X0103453Y0056749D02*
X0104221Y0057517D01*
X0105755Y0057517D01*
X0108057Y0057517D02*
X0110359Y0057517D01*
X0111127Y0056749D01*
X0110359Y0055982D01*
X0108825Y0055982D01*
X0108057Y0055215D01*
X0108825Y0054448D01*
X0111127Y0054448D01*
X0111894Y0061948D02*
X0111894Y0065017D01*
X0109592Y0065017D01*
X0108825Y0064249D01*
X0108825Y0061948D01*
X0107290Y0061948D02*
X0104221Y0061948D01*
X0102686Y0061948D02*
X0101152Y0061948D01*
X0101919Y0061948D02*
X0101919Y0065017D01*
X0102686Y0065017D01*
X0104221Y0065017D02*
X0107290Y0061948D01*
X0107290Y0065017D02*
X0104221Y0065017D01*
X0101919Y0066551D02*
X0101919Y0067319D01*
X0102303Y0069448D02*
X0103837Y0069448D01*
X0104604Y0070215D01*
X0104604Y0071749D01*
X0103837Y0072517D01*
X0102303Y0072517D01*
X0101535Y0071749D01*
X0101535Y0070982D01*
X0104604Y0070982D01*
X0106139Y0069448D02*
X0106139Y0072517D01*
X0106139Y0069448D02*
X0108441Y0069448D01*
X0109208Y0070215D01*
X0109208Y0072517D01*
X0110743Y0072517D02*
X0113045Y0072517D01*
X0113812Y0071749D01*
X0113812Y0070215D01*
X0113045Y0069448D01*
X0110743Y0069448D01*
X0110743Y0067913D02*
X0110743Y0072517D01*
X0110359Y0076948D02*
X0108825Y0076948D01*
X0109592Y0076948D02*
X0109592Y0080017D01*
X0110359Y0080017D01*
X0109592Y0081551D02*
X0109592Y0082319D01*
X0110359Y0084448D02*
X0111127Y0085215D01*
X0111127Y0088284D01*
X0111894Y0087517D02*
X0110359Y0087517D01*
X0113429Y0087517D02*
X0114196Y0087517D01*
X0115731Y0085982D01*
X0115731Y0084448D02*
X0115731Y0087517D01*
X0117265Y0086749D02*
X0118033Y0087517D01*
X0119567Y0087517D01*
X0120335Y0086749D01*
X0120335Y0085215D01*
X0119567Y0084448D01*
X0118033Y0084448D01*
X0117265Y0085215D01*
X0117265Y0086749D01*
X0117265Y0082319D02*
X0117265Y0081551D01*
X0117265Y0080017D02*
X0117265Y0076948D01*
X0116498Y0076948D02*
X0118033Y0076948D01*
X0119567Y0076948D02*
X0120335Y0077715D01*
X0120335Y0080784D01*
X0121102Y0080017D02*
X0119567Y0080017D01*
X0118033Y0080017D02*
X0117265Y0080017D01*
X0122637Y0080017D02*
X0124171Y0080017D01*
X0123404Y0080784D02*
X0123404Y0077715D01*
X0122637Y0076948D01*
X0125706Y0076948D02*
X0125706Y0080017D01*
X0128775Y0080017D02*
X0128775Y0077715D01*
X0128008Y0076948D01*
X0125706Y0076948D01*
X0126857Y0072517D02*
X0124555Y0072517D01*
X0123020Y0072517D02*
X0123020Y0070215D01*
X0122253Y0069448D01*
X0119951Y0069448D01*
X0119951Y0072517D01*
X0124555Y0070215D02*
X0125322Y0070982D01*
X0126857Y0070982D01*
X0127624Y0071749D01*
X0126857Y0072517D01*
X0127624Y0069448D02*
X0125322Y0069448D01*
X0124555Y0070215D01*
X0125706Y0066551D02*
X0124171Y0065017D01*
X0124171Y0061948D01*
X0124171Y0064249D02*
X0127240Y0064249D01*
X0127240Y0065017D02*
X0125706Y0066551D01*
X0127240Y0065017D02*
X0127240Y0061948D01*
X0122637Y0065017D02*
X0121102Y0065017D01*
X0121869Y0065784D02*
X0121869Y0062715D01*
X0121102Y0061948D01*
X0118800Y0062715D02*
X0118033Y0061948D01*
X0118800Y0062715D02*
X0118800Y0065784D01*
X0119567Y0065017D02*
X0118033Y0065017D01*
X0116498Y0064249D02*
X0116498Y0062715D01*
X0115731Y0061948D01*
X0114196Y0061948D01*
X0113429Y0063482D02*
X0116498Y0063482D01*
X0116498Y0064249D02*
X0115731Y0065017D01*
X0114196Y0065017D01*
X0113429Y0064249D01*
X0113429Y0063482D01*
X0101919Y0076948D02*
X0099617Y0076948D01*
X0098082Y0077715D02*
X0097315Y0076948D01*
X0095780Y0076948D01*
X0095013Y0077715D01*
X0095013Y0079249D01*
X0095780Y0080017D01*
X0097315Y0080017D01*
X0098082Y0079249D01*
X0098082Y0077715D01*
X0099617Y0080017D02*
X0101919Y0080017D01*
X0102686Y0079249D01*
X0102686Y0077715D01*
X0101919Y0076948D01*
X0099233Y0072517D02*
X0096931Y0072517D01*
X0095397Y0072517D02*
X0093862Y0072517D01*
X0094629Y0073284D02*
X0094629Y0070215D01*
X0093862Y0069448D01*
X0092327Y0070215D02*
X0092327Y0071749D01*
X0091560Y0072517D01*
X0090025Y0072517D01*
X0089258Y0071749D01*
X0089258Y0070215D01*
X0090025Y0069448D01*
X0091560Y0069448D01*
X0092327Y0070215D01*
X0096931Y0070215D02*
X0097699Y0070982D01*
X0099233Y0070982D01*
X0100001Y0071749D01*
X0099233Y0072517D01*
X0100001Y0069448D02*
X0097699Y0069448D01*
X0096931Y0070215D01*
X0097315Y0065017D02*
X0096548Y0064249D01*
X0096548Y0062715D01*
X0097315Y0061948D01*
X0098850Y0061948D01*
X0099617Y0062715D01*
X0099617Y0064249D01*
X0098850Y0065017D01*
X0097315Y0065017D01*
X0095013Y0065017D02*
X0095013Y0061948D01*
X0095013Y0065017D02*
X0092711Y0065017D01*
X0091944Y0064249D01*
X0091944Y0061948D01*
X0090409Y0062715D02*
X0090409Y0064249D01*
X0089642Y0065017D01*
X0088107Y0065017D01*
X0087340Y0064249D01*
X0087340Y0063482D01*
X0090409Y0063482D01*
X0090409Y0062715D02*
X0089642Y0061948D01*
X0088107Y0061948D01*
X0083120Y0069448D02*
X0081585Y0069448D01*
X0082352Y0069448D02*
X0082352Y0074051D01*
X0083120Y0074051D01*
X0083503Y0076948D02*
X0081969Y0076948D01*
X0081201Y0077715D01*
X0081201Y0079249D01*
X0081969Y0080017D01*
X0083503Y0080017D01*
X0084271Y0079249D01*
X0084271Y0077715D01*
X0083503Y0076948D01*
X0085805Y0077715D02*
X0086572Y0076948D01*
X0088874Y0076948D01*
X0090409Y0076948D02*
X0090409Y0079249D01*
X0091176Y0080017D01*
X0091944Y0079249D01*
X0091944Y0076948D01*
X0093478Y0076948D02*
X0093478Y0080017D01*
X0092711Y0080017D01*
X0091944Y0079249D01*
X0088874Y0080017D02*
X0088874Y0075413D01*
X0085805Y0077715D02*
X0085805Y0079249D01*
X0086572Y0080017D01*
X0088874Y0080017D01*
X0088874Y0084448D02*
X0089642Y0085215D01*
X0089642Y0088284D01*
X0090409Y0087517D02*
X0088874Y0087517D01*
X0087340Y0087517D02*
X0085805Y0087517D01*
X0086572Y0088284D02*
X0086572Y0085215D01*
X0085805Y0084448D01*
X0084270Y0085215D02*
X0084270Y0086749D01*
X0083503Y0087517D01*
X0081969Y0087517D01*
X0081201Y0086749D01*
X0081201Y0085982D01*
X0084270Y0085982D01*
X0084270Y0085215D02*
X0083503Y0084448D01*
X0081969Y0084448D01*
X0079667Y0084448D02*
X0079667Y0087517D01*
X0079667Y0085982D02*
X0078132Y0087517D01*
X0077365Y0087517D01*
X0075830Y0087517D02*
X0075063Y0087517D01*
X0075063Y0084448D01*
X0075830Y0084448D02*
X0074295Y0084448D01*
X0072761Y0085215D02*
X0071993Y0085982D01*
X0069691Y0085982D01*
X0069691Y0086749D02*
X0069691Y0084448D01*
X0071993Y0084448D01*
X0072761Y0085215D01*
X0070459Y0087517D02*
X0069691Y0086749D01*
X0070459Y0087517D02*
X0071993Y0087517D01*
X0075063Y0089051D02*
X0075063Y0089819D01*
X0074295Y0080017D02*
X0072761Y0080017D01*
X0071993Y0079249D01*
X0071993Y0078482D01*
X0075063Y0078482D01*
X0075063Y0077715D02*
X0075063Y0079249D01*
X0074295Y0080017D01*
X0075063Y0077715D02*
X0074295Y0076948D01*
X0072761Y0076948D01*
X0070459Y0076948D02*
X0070459Y0080017D01*
X0068157Y0080017D01*
X0067389Y0079249D01*
X0067389Y0076948D01*
X0065087Y0077715D02*
X0064320Y0076948D01*
X0065087Y0077715D02*
X0065087Y0080784D01*
X0064320Y0080017D02*
X0065855Y0080017D01*
X0062786Y0080017D02*
X0062018Y0080017D01*
X0062018Y0076948D01*
X0061251Y0076948D02*
X0062786Y0076948D01*
X0062018Y0081551D02*
X0062018Y0082319D01*
X0070075Y0072517D02*
X0069308Y0071749D01*
X0069308Y0070215D01*
X0070075Y0069448D01*
X0071610Y0069448D01*
X0072377Y0070215D01*
X0072377Y0071749D01*
X0071610Y0072517D01*
X0070075Y0072517D01*
X0067773Y0070215D02*
X0067006Y0070215D01*
X0067006Y0069448D01*
X0067773Y0069448D01*
X0067773Y0070215D01*
X0072761Y0066551D02*
X0073528Y0066551D01*
X0073912Y0069448D02*
X0074679Y0070215D01*
X0074679Y0073284D01*
X0075446Y0072517D02*
X0073912Y0072517D01*
X0076981Y0071749D02*
X0076981Y0069448D01*
X0079283Y0069448D01*
X0080050Y0070215D01*
X0079283Y0070982D01*
X0076981Y0070982D01*
X0076981Y0071749D02*
X0077748Y0072517D01*
X0079283Y0072517D01*
X0079667Y0076948D02*
X0079667Y0080017D01*
X0077365Y0080017D01*
X0076597Y0079249D01*
X0076597Y0076948D01*
X0091944Y0084448D02*
X0094246Y0084448D01*
X0095013Y0085215D01*
X0094246Y0085982D01*
X0091944Y0085982D01*
X0091944Y0086749D02*
X0091944Y0084448D01*
X0091944Y0086749D02*
X0092711Y0087517D01*
X0094246Y0087517D01*
X0096548Y0086749D02*
X0097315Y0087517D01*
X0099617Y0087517D01*
X0099617Y0089051D02*
X0099617Y0084448D01*
X0097315Y0084448D01*
X0096548Y0085215D01*
X0096548Y0086749D01*
X0101152Y0086749D02*
X0104221Y0086749D01*
X0105755Y0086749D02*
X0105755Y0084448D01*
X0108057Y0084448D01*
X0108825Y0085215D01*
X0108057Y0085982D01*
X0105755Y0085982D01*
X0105755Y0086749D02*
X0106523Y0087517D01*
X0108057Y0087517D01*
X0121869Y0088284D02*
X0121869Y0086749D01*
X0122637Y0085982D01*
X0124938Y0085982D01*
X0124938Y0084448D02*
X0124938Y0089051D01*
X0122637Y0089051D01*
X0121869Y0088284D01*
X0130310Y0081551D02*
X0133379Y0081551D01*
X0131844Y0081551D02*
X0131844Y0076948D01*
X0152721Y0059515D02*
X0153807Y0060600D01*
X0153264Y0060058D02*
X0156519Y0056802D01*
X0155977Y0056260D02*
X0157062Y0057345D01*
X0154892Y0055175D02*
X0152721Y0057345D01*
X0151094Y0055717D01*
X0151094Y0054632D01*
X0152721Y0053004D01*
X0150551Y0051919D02*
X0150551Y0050834D01*
X0150551Y0051919D02*
X0148381Y0054089D01*
X0149466Y0054089D02*
X0148381Y0053004D01*
X0147838Y0051376D02*
X0146753Y0051376D01*
X0145668Y0050291D01*
X0145668Y0049206D01*
X0146211Y0048664D01*
X0148381Y0050834D01*
X0148923Y0050291D02*
X0147838Y0051376D01*
X0148923Y0050291D02*
X0148923Y0049206D01*
X0147838Y0048121D01*
X0146211Y0046493D02*
X0144040Y0048664D01*
X0142955Y0047578D02*
X0142412Y0047036D01*
X0142955Y0047578D02*
X0145125Y0047578D01*
X0142412Y0044866D02*
X0140242Y0044866D01*
X0139700Y0044323D01*
X0138614Y0043238D02*
X0140242Y0041610D01*
X0140242Y0040525D01*
X0138614Y0038897D01*
X0136444Y0041067D01*
X0135359Y0039982D02*
X0134274Y0038897D01*
X0134274Y0039982D02*
X0136444Y0037812D01*
X0136444Y0036727D01*
X0134274Y0035642D02*
X0134274Y0034557D01*
X0134274Y0035642D02*
X0132104Y0037812D01*
X0133189Y0037812D02*
X0132104Y0036727D01*
X0131561Y0035099D02*
X0132646Y0034014D01*
X0132646Y0032929D01*
X0131561Y0031844D01*
X0130476Y0031844D01*
X0129391Y0032929D01*
X0129391Y0034014D01*
X0130476Y0035099D01*
X0131561Y0035099D01*
X0128848Y0031301D02*
X0126678Y0031301D01*
X0126135Y0030758D01*
X0125593Y0029131D02*
X0124507Y0029131D01*
X0123422Y0028046D01*
X0123422Y0026960D01*
X0123965Y0026418D01*
X0126135Y0028588D01*
X0126678Y0028046D02*
X0125593Y0029131D01*
X0126678Y0028046D02*
X0126678Y0026960D01*
X0125593Y0025875D01*
X0129933Y0030216D02*
X0127763Y0032386D01*
X0141327Y0045951D02*
X0143498Y0043780D01*
X0136896Y0118132D02*
X0136896Y0119666D01*
X0136896Y0118899D02*
X0132292Y0118899D01*
X0132292Y0118132D02*
X0132292Y0119666D01*
X0132292Y0121201D02*
X0135361Y0121201D01*
X0135361Y0123503D01*
X0134594Y0124270D01*
X0132292Y0124270D01*
X0133059Y0125805D02*
X0132292Y0126572D01*
X0132292Y0128874D01*
X0133059Y0130409D02*
X0132292Y0131176D01*
X0132292Y0132711D01*
X0133059Y0133478D01*
X0134594Y0133478D01*
X0135361Y0132711D01*
X0135361Y0131176D01*
X0134594Y0130409D01*
X0133059Y0130409D01*
X0135361Y0128874D02*
X0135361Y0126572D01*
X0134594Y0125805D01*
X0133059Y0125805D01*
X0127861Y0124654D02*
X0125559Y0124654D01*
X0124792Y0125421D01*
X0124792Y0127723D01*
X0127861Y0127723D01*
X0127094Y0129258D02*
X0127861Y0130025D01*
X0127861Y0131560D01*
X0127094Y0132327D01*
X0126327Y0132327D01*
X0126327Y0129258D01*
X0127094Y0129258D02*
X0125559Y0129258D01*
X0124792Y0130025D01*
X0124792Y0131560D01*
X0124792Y0133862D02*
X0124792Y0136164D01*
X0125559Y0136931D01*
X0126327Y0136164D01*
X0126327Y0134629D01*
X0127094Y0133862D01*
X0127861Y0134629D01*
X0127861Y0136931D01*
X0127861Y0138466D02*
X0127861Y0140000D01*
X0128629Y0139233D02*
X0125559Y0139233D01*
X0124792Y0140000D01*
X0125559Y0141535D02*
X0124792Y0142302D01*
X0124792Y0143837D01*
X0125559Y0144604D01*
X0127094Y0144604D01*
X0127861Y0143837D01*
X0127861Y0142302D01*
X0127094Y0141535D01*
X0125559Y0141535D01*
X0120361Y0138849D02*
X0120361Y0137315D01*
X0119594Y0136547D01*
X0118059Y0136547D01*
X0117292Y0137315D01*
X0117292Y0138849D01*
X0118059Y0139617D01*
X0119594Y0139617D01*
X0120361Y0138849D01*
X0119594Y0135013D02*
X0118059Y0135013D01*
X0117292Y0134245D01*
X0117292Y0131943D01*
X0115757Y0131943D02*
X0120361Y0131943D01*
X0120361Y0134245D01*
X0119594Y0135013D01*
X0119594Y0130409D02*
X0120361Y0129641D01*
X0120361Y0128107D01*
X0119594Y0127339D01*
X0118059Y0127339D01*
X0117292Y0128107D01*
X0117292Y0129641D01*
X0118059Y0130409D01*
X0119594Y0130409D01*
X0114396Y0132327D02*
X0114396Y0133094D01*
X0109792Y0133094D01*
X0109792Y0132327D02*
X0109792Y0133862D01*
X0110559Y0135396D02*
X0109792Y0136164D01*
X0109792Y0138466D01*
X0114396Y0138466D01*
X0112861Y0138466D02*
X0112861Y0136164D01*
X0112094Y0135396D01*
X0110559Y0135396D01*
X0110559Y0140000D02*
X0111327Y0140768D01*
X0111327Y0143070D01*
X0112094Y0143070D02*
X0109792Y0143070D01*
X0109792Y0140768D01*
X0110559Y0140000D01*
X0112861Y0140768D02*
X0112861Y0142302D01*
X0112094Y0143070D01*
X0112861Y0144604D02*
X0112861Y0146139D01*
X0113629Y0145371D02*
X0110559Y0145371D01*
X0109792Y0146139D01*
X0110559Y0147673D02*
X0109792Y0148441D01*
X0109792Y0149975D01*
X0110559Y0150743D01*
X0112094Y0150743D01*
X0112861Y0149975D01*
X0112861Y0148441D01*
X0112094Y0147673D01*
X0110559Y0147673D01*
X0106129Y0147673D02*
X0103059Y0147673D01*
X0102292Y0148441D01*
X0103059Y0149975D02*
X0102292Y0150743D01*
X0102292Y0152277D01*
X0103059Y0153045D01*
X0104594Y0153045D01*
X0105361Y0152277D01*
X0105361Y0150743D01*
X0104594Y0149975D01*
X0103059Y0149975D01*
X0105361Y0148441D02*
X0105361Y0146906D01*
X0105361Y0145371D02*
X0105361Y0143837D01*
X0106129Y0144604D02*
X0103059Y0144604D01*
X0102292Y0145371D01*
X0103827Y0142302D02*
X0103827Y0139233D01*
X0104594Y0139233D02*
X0103059Y0139233D01*
X0102292Y0140000D01*
X0102292Y0141535D01*
X0103827Y0142302D02*
X0104594Y0142302D01*
X0105361Y0141535D01*
X0105361Y0140000D01*
X0104594Y0139233D01*
X0104594Y0137698D02*
X0102292Y0137698D01*
X0102292Y0134629D02*
X0105361Y0134629D01*
X0105361Y0136931D01*
X0104594Y0137698D01*
X0104594Y0133094D02*
X0102292Y0133094D01*
X0104594Y0133094D02*
X0105361Y0132327D01*
X0105361Y0130025D01*
X0102292Y0130025D01*
X0103059Y0128490D02*
X0102292Y0127723D01*
X0102292Y0126188D01*
X0103059Y0125421D01*
X0104594Y0125421D01*
X0105361Y0126188D01*
X0105361Y0127723D01*
X0104594Y0128490D01*
X0103059Y0128490D01*
X0102292Y0123887D02*
X0102292Y0121585D01*
X0103059Y0120817D01*
X0104594Y0120817D01*
X0105361Y0121585D01*
X0105361Y0123887D01*
X0109792Y0123119D02*
X0109792Y0125421D01*
X0110559Y0126188D01*
X0111327Y0125421D01*
X0111327Y0123887D01*
X0112094Y0123119D01*
X0112861Y0123887D01*
X0112861Y0126188D01*
X0112861Y0128490D02*
X0112861Y0130025D01*
X0112094Y0130792D01*
X0109792Y0130792D01*
X0109792Y0128490D01*
X0110559Y0127723D01*
X0111327Y0128490D01*
X0111327Y0130792D01*
X0117292Y0125805D02*
X0117292Y0123503D01*
X0118059Y0122736D01*
X0119594Y0122736D01*
X0120361Y0123503D01*
X0120361Y0125805D01*
X0121896Y0125805D02*
X0117292Y0125805D01*
X0123257Y0123119D02*
X0127861Y0123119D01*
X0127861Y0120817D01*
X0127094Y0120050D01*
X0125559Y0120050D01*
X0124792Y0120817D01*
X0124792Y0123119D01*
X0132292Y0135013D02*
X0132292Y0136547D01*
X0132292Y0135780D02*
X0136896Y0135780D01*
X0136896Y0135013D01*
X0136896Y0138082D02*
X0136896Y0138849D01*
X0132292Y0138849D01*
X0132292Y0138082D02*
X0132292Y0139617D01*
X0133059Y0141151D02*
X0133827Y0141919D01*
X0133827Y0144220D01*
X0134594Y0144220D02*
X0132292Y0144220D01*
X0132292Y0141919D01*
X0133059Y0141151D01*
X0135361Y0141919D02*
X0135361Y0143453D01*
X0134594Y0144220D01*
X0135361Y0145755D02*
X0132292Y0145755D01*
X0133827Y0145755D02*
X0135361Y0147290D01*
X0135361Y0148057D01*
X0134594Y0149592D02*
X0133059Y0149592D01*
X0132292Y0150359D01*
X0132292Y0151894D01*
X0133827Y0152661D02*
X0133827Y0149592D01*
X0134594Y0149592D02*
X0135361Y0150359D01*
X0135361Y0151894D01*
X0134594Y0152661D01*
X0133827Y0152661D01*
X0129396Y0151510D02*
X0124792Y0151510D01*
X0124792Y0150743D02*
X0124792Y0152277D01*
X0125559Y0153812D02*
X0126327Y0154579D01*
X0126327Y0156881D01*
X0127094Y0156881D02*
X0124792Y0156881D01*
X0124792Y0154579D01*
X0125559Y0153812D01*
X0127861Y0154579D02*
X0127861Y0156114D01*
X0127094Y0156881D01*
X0127861Y0158416D02*
X0127861Y0159951D01*
X0128629Y0159183D02*
X0125559Y0159183D01*
X0124792Y0159951D01*
X0125559Y0161485D02*
X0124792Y0162253D01*
X0124792Y0163787D01*
X0125559Y0164555D01*
X0127094Y0164555D01*
X0127861Y0163787D01*
X0127861Y0162253D01*
X0127094Y0161485D01*
X0125559Y0161485D01*
X0120361Y0161102D02*
X0120361Y0161869D01*
X0120361Y0161102D02*
X0118827Y0159567D01*
X0120361Y0159567D02*
X0117292Y0159567D01*
X0118827Y0158032D02*
X0118827Y0154963D01*
X0119594Y0154963D02*
X0120361Y0155730D01*
X0120361Y0157265D01*
X0119594Y0158032D01*
X0118827Y0158032D01*
X0117292Y0157265D02*
X0117292Y0155730D01*
X0118059Y0154963D01*
X0119594Y0154963D01*
X0120361Y0153428D02*
X0117292Y0151894D01*
X0120361Y0150359D01*
X0119594Y0148824D02*
X0120361Y0148057D01*
X0120361Y0146522D01*
X0118827Y0146522D02*
X0118059Y0145755D01*
X0117292Y0146522D01*
X0117292Y0148824D01*
X0119594Y0148824D01*
X0118827Y0148824D02*
X0118827Y0146522D01*
X0129396Y0150743D02*
X0129396Y0151510D01*
X0133059Y0158800D02*
X0134594Y0158800D01*
X0135361Y0159567D01*
X0135361Y0161869D01*
X0136896Y0161869D02*
X0132292Y0161869D01*
X0132292Y0159567D01*
X0133059Y0158800D01*
X0133059Y0163404D02*
X0133827Y0164171D01*
X0133827Y0166473D01*
X0134594Y0166473D02*
X0132292Y0166473D01*
X0132292Y0164171D01*
X0133059Y0163404D01*
X0135361Y0164171D02*
X0135361Y0165705D01*
X0134594Y0166473D01*
X0135557Y0170698D02*
X0135557Y0175301D01*
X0133255Y0175301D01*
X0132488Y0174534D01*
X0132488Y0172999D01*
X0133255Y0172232D01*
X0135557Y0172232D01*
X0134023Y0172232D02*
X0132488Y0170698D01*
X0130953Y0171465D02*
X0130186Y0170698D01*
X0128652Y0170698D01*
X0127884Y0171465D01*
X0127884Y0174534D01*
X0128652Y0175301D01*
X0130186Y0175301D01*
X0130953Y0174534D01*
X0130953Y0171465D01*
X0126350Y0171465D02*
X0125582Y0170698D01*
X0124048Y0170698D01*
X0123280Y0171465D01*
X0123280Y0172232D01*
X0124048Y0172999D01*
X0125582Y0172999D01*
X0126350Y0173767D01*
X0126350Y0174534D01*
X0125582Y0175301D01*
X0124048Y0175301D01*
X0123280Y0174534D01*
X0121746Y0174534D02*
X0120978Y0175301D01*
X0119444Y0175301D01*
X0118676Y0174534D01*
X0117142Y0174534D02*
X0117142Y0171465D01*
X0116374Y0170698D01*
X0114840Y0170698D01*
X0114072Y0171465D01*
X0114072Y0174534D01*
X0114840Y0175301D01*
X0116374Y0175301D01*
X0117142Y0174534D01*
X0119444Y0172999D02*
X0118676Y0172232D01*
X0118676Y0171465D01*
X0119444Y0170698D01*
X0120978Y0170698D01*
X0121746Y0171465D01*
X0120978Y0172999D02*
X0119444Y0172999D01*
X0120978Y0172999D02*
X0121746Y0173767D01*
X0121746Y0174534D01*
X0122513Y0178198D02*
X0124048Y0178198D01*
X0123280Y0178198D02*
X0123280Y0182801D01*
X0124048Y0182801D01*
X0126350Y0182801D02*
X0126350Y0183569D01*
X0126350Y0181267D02*
X0126350Y0178198D01*
X0127117Y0178198D02*
X0125582Y0178198D01*
X0126350Y0181267D02*
X0127117Y0181267D01*
X0128651Y0182801D02*
X0131721Y0182801D01*
X0131721Y0178198D01*
X0131721Y0180499D02*
X0130186Y0180499D01*
X0120978Y0180499D02*
X0120978Y0178965D01*
X0120211Y0178198D01*
X0118676Y0178198D01*
X0117909Y0178965D01*
X0117909Y0180499D01*
X0118676Y0181267D01*
X0120211Y0181267D01*
X0120978Y0180499D01*
X0114396Y0160718D02*
X0109792Y0160718D01*
X0109792Y0159951D02*
X0109792Y0161485D01*
X0109792Y0158416D02*
X0109792Y0156881D01*
X0109792Y0157649D02*
X0112861Y0157649D01*
X0112861Y0156881D01*
X0114396Y0157649D02*
X0115163Y0157649D01*
X0114396Y0159951D02*
X0114396Y0160718D01*
X0105361Y0160718D02*
X0105361Y0159183D01*
X0104594Y0158416D01*
X0103059Y0158416D01*
X0102292Y0159183D01*
X0102292Y0160718D01*
X0103827Y0161485D02*
X0103827Y0158416D01*
X0105361Y0156881D02*
X0105361Y0156114D01*
X0103827Y0154579D01*
X0105361Y0154579D02*
X0102292Y0154579D01*
X0105361Y0160718D02*
X0104594Y0161485D01*
X0103827Y0161485D01*
X0103059Y0163020D02*
X0102292Y0163020D01*
X0102292Y0163787D01*
X0103059Y0163787D01*
X0103059Y0163020D01*
X0078255Y0170698D02*
X0078255Y0175301D01*
X0075186Y0170698D01*
X0075186Y0175301D01*
X0073651Y0175301D02*
X0073651Y0170698D01*
X0070582Y0170698D01*
X0069048Y0170698D02*
X0069048Y0175301D01*
X0066746Y0175301D01*
X0065978Y0174534D01*
X0065978Y0172999D01*
X0066746Y0172232D01*
X0069048Y0172232D01*
X0067513Y0172232D02*
X0065978Y0170698D01*
X0064444Y0171465D02*
X0063676Y0170698D01*
X0062142Y0170698D01*
X0061374Y0171465D01*
X0061374Y0174534D01*
X0062142Y0175301D01*
X0063676Y0175301D01*
X0064444Y0174534D01*
X0064444Y0171465D01*
X0065211Y0178198D02*
X0063676Y0178198D01*
X0062909Y0178965D01*
X0062909Y0180499D01*
X0063676Y0181267D01*
X0065211Y0181267D01*
X0065978Y0180499D01*
X0065978Y0178965D01*
X0065211Y0178198D01*
X0067513Y0178198D02*
X0069048Y0178198D01*
X0068280Y0178198D02*
X0068280Y0182801D01*
X0069048Y0182801D01*
X0071350Y0182801D02*
X0071350Y0183569D01*
X0071350Y0181267D02*
X0071350Y0178198D01*
X0072117Y0178198D02*
X0070582Y0178198D01*
X0070582Y0175301D02*
X0073651Y0175301D01*
X0073651Y0172999D02*
X0072117Y0172999D01*
X0076721Y0178198D02*
X0076721Y0182801D01*
X0073651Y0182801D01*
X0072117Y0181267D02*
X0071350Y0181267D01*
X0075186Y0180499D02*
X0076721Y0180499D01*
X0065310Y0119051D02*
X0062240Y0119051D01*
X0062240Y0118284D01*
X0065310Y0115215D01*
X0065310Y0114448D01*
X0062240Y0114448D01*
X0060706Y0115215D02*
X0059938Y0115982D01*
X0057637Y0115982D01*
X0057637Y0116749D02*
X0057637Y0114448D01*
X0059938Y0114448D01*
X0060706Y0115215D01*
X0059938Y0117517D02*
X0058404Y0117517D01*
X0057637Y0116749D01*
X0056102Y0117517D02*
X0056102Y0114448D01*
X0054567Y0114448D02*
X0054567Y0116749D01*
X0053800Y0117517D01*
X0053033Y0116749D01*
X0053033Y0114448D01*
X0051498Y0114448D02*
X0049196Y0114448D01*
X0048429Y0115215D01*
X0048429Y0116749D01*
X0049196Y0117517D01*
X0051498Y0117517D01*
X0051498Y0112913D01*
X0054567Y0116749D02*
X0055335Y0117517D01*
X0056102Y0117517D01*
X0046894Y0116749D02*
X0046894Y0115215D01*
X0046127Y0114448D01*
X0044592Y0114448D01*
X0043825Y0115982D02*
X0046894Y0115982D01*
X0046894Y0116749D02*
X0046127Y0117517D01*
X0044592Y0117517D01*
X0043825Y0116749D01*
X0043825Y0115982D01*
X0042290Y0117517D02*
X0040755Y0117517D01*
X0041523Y0118284D02*
X0041523Y0115215D01*
X0040755Y0114448D01*
X0039221Y0117517D02*
X0037686Y0117517D01*
X0038454Y0118284D02*
X0038454Y0115215D01*
X0037686Y0114448D01*
X0036152Y0115215D02*
X0036152Y0116749D01*
X0035384Y0117517D01*
X0033850Y0117517D01*
X0033082Y0116749D01*
X0033082Y0115982D01*
X0036152Y0115982D01*
X0036152Y0115215D02*
X0035384Y0114448D01*
X0033850Y0114448D01*
X0139792Y0130409D02*
X0144396Y0130409D01*
X0142861Y0131943D01*
X0144396Y0133478D01*
X0139792Y0133478D01*
X0140559Y0135013D02*
X0139792Y0135780D01*
X0139792Y0137315D01*
X0140559Y0138082D01*
X0142094Y0138082D01*
X0142861Y0137315D01*
X0142861Y0135780D01*
X0142094Y0135013D01*
X0140559Y0135013D01*
X0142861Y0139617D02*
X0142861Y0141151D01*
X0143629Y0140384D02*
X0140559Y0140384D01*
X0139792Y0141151D01*
X0140559Y0142686D02*
X0139792Y0143453D01*
X0139792Y0144988D01*
X0140559Y0145755D01*
X0142094Y0145755D01*
X0142861Y0144988D01*
X0142861Y0143453D01*
X0142094Y0142686D01*
X0140559Y0142686D01*
X0139792Y0147290D02*
X0142861Y0147290D01*
X0141327Y0147290D02*
X0142861Y0148824D01*
X0142861Y0149592D01*
X0142094Y0151126D02*
X0140559Y0151126D01*
X0139792Y0151894D01*
X0139792Y0153428D01*
X0141327Y0154196D02*
X0141327Y0151126D01*
X0142094Y0151126D02*
X0142861Y0151894D01*
X0142861Y0153428D01*
X0142094Y0154196D01*
X0141327Y0154196D01*
D11*
X0053221Y0082600D03*
X0040957Y0079431D03*
X0040957Y0085907D03*
X0028969Y0082600D03*
X0024865Y0078840D03*
X0024865Y0066025D03*
X0024865Y0092481D03*
X0024865Y0101989D03*
D12*
X0021558Y0103918D03*
X0024590Y0097580D03*
X0021696Y0092206D03*
X0021558Y0092206D03*
X0024452Y0090414D03*
X0024590Y0090414D03*
X0029106Y0082600D03*
X0024452Y0076635D03*
X0024452Y0074844D03*
X0023212Y0072363D03*
X0024865Y0071812D03*
X0021558Y0068092D03*
X0021420Y0065887D03*
X0021283Y0065887D03*
X0024452Y0063958D03*
X0024590Y0063958D03*
X0025692Y0058997D03*
X0025416Y0058859D03*
X0025279Y0058859D03*
X0025141Y0058722D03*
X0025003Y0058722D03*
X0024865Y0058722D03*
X0024039Y0058722D03*
X0023901Y0058722D03*
X0023763Y0058722D03*
X0023625Y0058722D03*
X0023350Y0058859D03*
X0023212Y0058859D03*
X0022936Y0058997D03*
X0040130Y0079568D03*
X0040130Y0085769D03*
X0039992Y0085769D03*
X0053083Y0082600D03*
X0038890Y0102167D03*
D13*
X0043024Y0102305D03*
X0039303Y0085631D03*
X0039166Y0085631D03*
X0039303Y0079706D03*
X0039441Y0079706D03*
X0029244Y0082600D03*
X0024727Y0071812D03*
X0022936Y0071950D03*
X0021420Y0068643D03*
X0024590Y0068643D03*
X0024727Y0094686D03*
X0024590Y0104470D03*
X0052945Y0082600D03*
D14*
X0052807Y0082600D03*
X0038477Y0079844D03*
X0038339Y0079844D03*
X0038339Y0085494D03*
X0038477Y0085494D03*
X0038477Y0088801D03*
X0038614Y0088801D03*
X0038339Y0088801D03*
X0038201Y0088801D03*
X0038063Y0088801D03*
X0029382Y0082600D03*
X0024590Y0086281D03*
X0022936Y0081596D03*
X0024727Y0075808D03*
X0027346Y0061340D03*
X0021283Y0061340D03*
X0039303Y0102442D03*
X0022936Y0107639D03*
D15*
X0040819Y0088525D03*
X0040957Y0088525D03*
X0041095Y0088525D03*
X0041232Y0088525D03*
X0041370Y0088525D03*
X0037650Y0085356D03*
X0037512Y0085356D03*
X0039992Y0082738D03*
X0037650Y0079982D03*
X0037512Y0079982D03*
X0029520Y0082600D03*
X0027070Y0061064D03*
X0021558Y0061064D03*
X0052669Y0082600D03*
D16*
X0052532Y0082600D03*
X0042335Y0088249D03*
X0036823Y0085218D03*
X0036685Y0085218D03*
X0040543Y0082738D03*
X0036823Y0080120D03*
X0036685Y0080119D03*
X0029658Y0082600D03*
X0042335Y0102856D03*
D17*
X0039992Y0102994D03*
X0029795Y0082600D03*
X0052394Y0082600D03*
D18*
X0052256Y0082600D03*
X0040268Y0103269D03*
X0029933Y0082600D03*
D19*
X0030071Y0082600D03*
X0036410Y0069785D03*
X0036547Y0069509D03*
X0036685Y0069234D03*
X0052118Y0082600D03*
D20*
X0051980Y0082600D03*
X0046055Y0070749D03*
X0044815Y0068269D03*
X0030209Y0082600D03*
X0041370Y0103682D03*
D21*
X0041095Y0103958D03*
X0051843Y0082600D03*
X0038201Y0074608D03*
X0037925Y0067305D03*
X0044264Y0067442D03*
X0030347Y0082600D03*
D22*
X0030484Y0082600D03*
X0038752Y0074470D03*
X0038339Y0066753D03*
X0043851Y0066891D03*
X0051705Y0082600D03*
X0036272Y0094175D03*
D23*
X0036547Y0094450D03*
X0030622Y0082600D03*
X0039303Y0074332D03*
X0039441Y0074332D03*
X0039579Y0074332D03*
X0038752Y0066202D03*
X0043437Y0066340D03*
X0051567Y0082600D03*
D24*
X0051429Y0082600D03*
X0041232Y0074332D03*
X0041095Y0074332D03*
X0040957Y0074332D03*
X0040819Y0074332D03*
X0040681Y0074332D03*
X0039028Y0065927D03*
X0030760Y0082600D03*
X0036823Y0094726D03*
D25*
X0037099Y0095001D03*
X0030898Y0082600D03*
X0039441Y0065375D03*
X0042610Y0065375D03*
X0042748Y0065513D03*
X0051291Y0082600D03*
D26*
X0051154Y0082600D03*
X0037374Y0095277D03*
X0031036Y0082600D03*
X0039717Y0065100D03*
X0042335Y0065100D03*
D27*
X0051016Y0082600D03*
X0042059Y0095553D03*
X0041921Y0095553D03*
X0041784Y0095553D03*
X0041646Y0095553D03*
X0041508Y0095553D03*
X0041370Y0095553D03*
X0041232Y0095553D03*
X0040819Y0095553D03*
X0040681Y0095553D03*
X0040543Y0095553D03*
X0040406Y0095553D03*
X0040268Y0095553D03*
X0040130Y0095553D03*
X0039992Y0095553D03*
X0039854Y0095553D03*
X0037650Y0095553D03*
X0031173Y0082600D03*
D28*
X0031311Y0082600D03*
X0037925Y0095828D03*
X0038477Y0095828D03*
X0043437Y0095828D03*
X0050878Y0082600D03*
D29*
X0050740Y0082600D03*
X0031449Y0082600D03*
D30*
X0031587Y0082531D03*
X0040957Y0063791D03*
X0041095Y0063791D03*
D31*
X0031725Y0082531D03*
D32*
X0031862Y0082531D03*
D33*
X0032000Y0082531D03*
D34*
X0032138Y0082531D03*
D35*
X0032276Y0082531D03*
D36*
X0032414Y0082531D03*
D37*
X0032551Y0082531D03*
D38*
X0032689Y0082531D03*
D39*
X0032827Y0082531D03*
D40*
X0032965Y0082531D03*
D41*
X0033103Y0082531D03*
X0044540Y0081291D03*
D42*
X0044264Y0081015D03*
X0033240Y0082531D03*
D43*
X0033378Y0082531D03*
X0043851Y0080740D03*
D44*
X0043162Y0080464D03*
X0033516Y0082531D03*
D45*
X0033654Y0082531D03*
D46*
X0033791Y0082531D03*
D47*
X0033929Y0082531D03*
D48*
X0034067Y0082531D03*
D49*
X0034205Y0082531D03*
D50*
X0034343Y0082531D03*
D51*
X0034480Y0082531D03*
D52*
X0034618Y0082531D03*
D53*
X0034756Y0082531D03*
D54*
X0034894Y0082531D03*
D55*
X0035032Y0082531D03*
D56*
X0035169Y0082531D03*
D57*
X0035307Y0082531D03*
D58*
X0035445Y0082531D03*
D59*
X0035583Y0082531D03*
D60*
X0035721Y0082531D03*
D61*
X0035858Y0082531D03*
D62*
X0035996Y0082531D03*
D63*
X0042335Y0082669D03*
X0036134Y0070543D03*
X0037236Y0068338D03*
X0037374Y0068062D03*
X0044953Y0068476D03*
X0040681Y0103614D03*
D64*
X0036547Y0089007D03*
X0036410Y0089007D03*
X0036272Y0089007D03*
X0036134Y0089007D03*
X0038890Y0085562D03*
X0039028Y0085562D03*
X0039028Y0082669D03*
X0038890Y0082669D03*
X0039028Y0079775D03*
X0039166Y0079775D03*
X0036410Y0076330D03*
X0036272Y0076330D03*
X0036134Y0076330D03*
X0024727Y0081251D03*
X0027483Y0061546D03*
X0026657Y0060031D03*
X0021145Y0061546D03*
X0021420Y0104401D03*
X0024727Y0107294D03*
D65*
X0042059Y0103062D03*
X0045228Y0096724D03*
X0036134Y0085011D03*
X0036134Y0080326D03*
X0041232Y0082669D03*
X0041370Y0082669D03*
D66*
X0038477Y0074470D03*
X0036134Y0094037D03*
D67*
X0040543Y0103476D03*
X0041508Y0103614D03*
X0042197Y0082669D03*
X0037650Y0074952D03*
X0036272Y0070129D03*
X0036823Y0069027D03*
X0036961Y0068751D03*
X0045366Y0069165D03*
X0045504Y0069440D03*
X0045642Y0069716D03*
X0045780Y0069992D03*
D68*
X0036272Y0080188D03*
X0036272Y0085149D03*
X0040957Y0082669D03*
X0041095Y0082669D03*
X0045366Y0096586D03*
D69*
X0042197Y0102994D03*
X0039854Y0102856D03*
X0036547Y0085218D03*
X0036410Y0085218D03*
X0036410Y0080120D03*
X0036547Y0080119D03*
D70*
X0039166Y0074332D03*
X0036410Y0094312D03*
D71*
X0036685Y0088938D03*
X0036823Y0088938D03*
X0036961Y0088938D03*
X0037099Y0088938D03*
X0037236Y0088938D03*
X0038890Y0079844D03*
X0037099Y0076399D03*
X0036961Y0076399D03*
X0036823Y0076399D03*
X0036685Y0076399D03*
X0036547Y0076399D03*
X0024590Y0071812D03*
X0021834Y0060237D03*
X0024727Y0086143D03*
X0039165Y0102305D03*
X0042886Y0102442D03*
D72*
X0036685Y0094588D03*
X0039992Y0074332D03*
X0038890Y0066064D03*
X0043299Y0066202D03*
D73*
X0037099Y0080051D03*
X0036961Y0080051D03*
X0040406Y0082669D03*
X0037099Y0085287D03*
X0036961Y0085287D03*
X0042197Y0088318D03*
X0045642Y0096310D03*
X0039717Y0102787D03*
D74*
X0036961Y0094864D03*
X0042197Y0074608D03*
X0041921Y0074470D03*
X0042886Y0065651D03*
D75*
X0045091Y0068682D03*
X0045229Y0068958D03*
X0045917Y0070336D03*
X0037099Y0068545D03*
X0037788Y0074883D03*
D76*
X0037236Y0076468D03*
X0038614Y0079775D03*
X0038752Y0079775D03*
X0039166Y0082669D03*
X0039303Y0082669D03*
X0038752Y0085562D03*
X0038614Y0085562D03*
X0037925Y0088870D03*
X0037788Y0088870D03*
X0037650Y0088869D03*
X0037512Y0088870D03*
X0037374Y0088870D03*
X0024590Y0094755D03*
X0023212Y0095031D03*
X0023074Y0095031D03*
X0022936Y0095031D03*
X0024590Y0107294D03*
X0023212Y0107708D03*
X0023074Y0107708D03*
X0023074Y0081664D03*
X0023212Y0081664D03*
X0024590Y0081251D03*
X0023074Y0076704D03*
X0022936Y0076704D03*
X0021283Y0075739D03*
X0026794Y0060306D03*
D77*
X0026932Y0060926D03*
X0021696Y0060926D03*
X0037236Y0079982D03*
X0040268Y0082738D03*
X0037374Y0085356D03*
X0037236Y0085356D03*
X0042059Y0088387D03*
X0042473Y0102718D03*
D78*
X0037236Y0095139D03*
X0039579Y0065238D03*
X0042473Y0065238D03*
D79*
X0037374Y0075366D03*
X0041508Y0082669D03*
X0041646Y0082669D03*
X0045091Y0096862D03*
X0041921Y0103200D03*
X0024727Y0060306D03*
X0024590Y0060306D03*
X0024452Y0060306D03*
X0024314Y0060306D03*
X0024176Y0060306D03*
D80*
X0037374Y0080051D03*
X0040130Y0082669D03*
X0041508Y0088456D03*
X0041646Y0088456D03*
X0041784Y0088456D03*
X0041921Y0088456D03*
X0045780Y0096173D03*
X0039579Y0102649D03*
D81*
X0040819Y0103751D03*
X0037925Y0074814D03*
X0037512Y0067925D03*
X0044677Y0068062D03*
D82*
X0037512Y0075159D03*
X0040406Y0103407D03*
D83*
X0038614Y0101960D03*
X0043437Y0102098D03*
X0041095Y0085838D03*
X0037650Y0082669D03*
X0037512Y0082669D03*
X0041095Y0079499D03*
X0024038Y0076979D03*
X0024039Y0062235D03*
D84*
X0039854Y0064962D03*
X0042197Y0064962D03*
X0037512Y0095415D03*
D85*
X0041232Y0103820D03*
X0038063Y0074745D03*
X0037650Y0067718D03*
X0044540Y0067856D03*
D86*
X0044402Y0067649D03*
X0037788Y0067511D03*
X0040957Y0103889D03*
D87*
X0039441Y0102511D03*
X0042610Y0102649D03*
X0045917Y0096035D03*
X0040681Y0088594D03*
X0040543Y0088594D03*
X0040406Y0088594D03*
X0040268Y0088594D03*
X0040130Y0088594D03*
X0037925Y0085425D03*
X0037788Y0085425D03*
X0039717Y0082669D03*
X0039854Y0082669D03*
X0037925Y0079913D03*
X0037788Y0079913D03*
X0024590Y0075739D03*
X0021420Y0075739D03*
X0021420Y0061133D03*
D88*
X0021420Y0063751D03*
X0021283Y0063751D03*
X0021145Y0063751D03*
X0021558Y0063751D03*
X0021696Y0063751D03*
X0021834Y0063751D03*
X0021972Y0063751D03*
X0022109Y0063751D03*
X0022247Y0063751D03*
X0022385Y0063751D03*
X0022523Y0063751D03*
X0022661Y0063751D03*
X0022798Y0063751D03*
X0022936Y0063751D03*
X0023074Y0063751D03*
X0023212Y0063751D03*
X0023350Y0063751D03*
X0023487Y0063751D03*
X0023625Y0063751D03*
X0023763Y0063751D03*
X0023901Y0063751D03*
X0024039Y0063751D03*
X0024176Y0063751D03*
X0024176Y0064302D03*
X0023901Y0064440D03*
X0023625Y0064578D03*
X0023350Y0064716D03*
X0023074Y0064853D03*
X0022798Y0064991D03*
X0022523Y0065129D03*
X0022247Y0065267D03*
X0021972Y0065405D03*
X0021972Y0066094D03*
X0022109Y0066094D03*
X0022247Y0066094D03*
X0022385Y0066094D03*
X0022523Y0066094D03*
X0022661Y0066094D03*
X0022798Y0066094D03*
X0022936Y0066094D03*
X0023074Y0066094D03*
X0023212Y0066094D03*
X0023350Y0066094D03*
X0023487Y0066094D03*
X0023625Y0066094D03*
X0023763Y0066094D03*
X0023901Y0066094D03*
X0024039Y0066094D03*
X0024176Y0066094D03*
X0024314Y0066094D03*
X0024452Y0066094D03*
X0024590Y0066094D03*
X0024727Y0066094D03*
X0023763Y0067472D03*
X0023487Y0067334D03*
X0023350Y0067334D03*
X0022798Y0067334D03*
X0022661Y0067334D03*
X0022523Y0067334D03*
X0022247Y0067472D03*
X0021972Y0067609D03*
X0021834Y0066094D03*
X0024865Y0063889D03*
X0023901Y0070779D03*
X0023763Y0070779D03*
X0023625Y0070779D03*
X0023487Y0070779D03*
X0023350Y0070779D03*
X0023212Y0070779D03*
X0023074Y0070779D03*
X0022936Y0070779D03*
X0022798Y0070779D03*
X0022661Y0070779D03*
X0022523Y0070779D03*
X0022385Y0070779D03*
X0022247Y0070779D03*
X0022109Y0070779D03*
X0021972Y0070779D03*
X0021834Y0070779D03*
X0021696Y0070779D03*
X0021558Y0070779D03*
X0021420Y0070779D03*
X0021283Y0070779D03*
X0021145Y0070779D03*
X0021145Y0072846D03*
X0021283Y0072846D03*
X0021420Y0072846D03*
X0021558Y0072846D03*
X0021696Y0072846D03*
X0021834Y0072846D03*
X0021972Y0072846D03*
X0022109Y0072846D03*
X0022247Y0072846D03*
X0022385Y0074086D03*
X0022523Y0074086D03*
X0022936Y0073948D03*
X0023074Y0073948D03*
X0023487Y0074086D03*
X0023625Y0074086D03*
X0023901Y0074223D03*
X0024039Y0074361D03*
X0024039Y0072708D03*
X0024176Y0072708D03*
X0023901Y0072708D03*
X0023763Y0072708D03*
X0023625Y0072708D03*
X0024176Y0070916D03*
X0022109Y0074223D03*
X0024176Y0076979D03*
X0022798Y0077393D03*
X0022661Y0077393D03*
X0022523Y0077393D03*
X0022385Y0077393D03*
X0022109Y0077255D03*
X0022109Y0078771D03*
X0021972Y0078771D03*
X0021834Y0078771D03*
X0021696Y0078771D03*
X0021558Y0078771D03*
X0021420Y0078771D03*
X0021283Y0078771D03*
X0021145Y0078771D03*
X0022247Y0078771D03*
X0022385Y0078771D03*
X0022523Y0078771D03*
X0022661Y0078771D03*
X0022798Y0078771D03*
X0022936Y0078771D03*
X0023074Y0078771D03*
X0023212Y0078771D03*
X0023350Y0078771D03*
X0023487Y0078771D03*
X0023625Y0078771D03*
X0023763Y0078771D03*
X0023901Y0078771D03*
X0024039Y0078771D03*
X0024176Y0078771D03*
X0024314Y0078771D03*
X0024452Y0078771D03*
X0024590Y0078771D03*
X0024727Y0078771D03*
X0024038Y0080286D03*
X0023901Y0080287D03*
X0023625Y0080149D03*
X0023487Y0080149D03*
X0023350Y0080149D03*
X0023212Y0080149D03*
X0023074Y0080149D03*
X0022936Y0080149D03*
X0022798Y0080149D03*
X0022661Y0080149D03*
X0022523Y0080149D03*
X0022385Y0080149D03*
X0022247Y0080149D03*
X0022109Y0080149D03*
X0021972Y0080149D03*
X0021834Y0080149D03*
X0021696Y0080149D03*
X0021558Y0080149D03*
X0021420Y0080149D03*
X0021283Y0080149D03*
X0021145Y0080149D03*
X0021145Y0082353D03*
X0021283Y0082353D03*
X0021420Y0082353D03*
X0021558Y0082353D03*
X0021696Y0082353D03*
X0021834Y0082353D03*
X0021972Y0082353D03*
X0022109Y0082353D03*
X0022247Y0082353D03*
X0022385Y0082353D03*
X0022523Y0082353D03*
X0022661Y0082353D03*
X0022798Y0082353D03*
X0023350Y0082353D03*
X0023487Y0082353D03*
X0023625Y0082353D03*
X0023763Y0082353D03*
X0024039Y0082216D03*
X0024176Y0082216D03*
X0024314Y0082078D03*
X0024314Y0080424D03*
X0024314Y0085523D03*
X0024176Y0085523D03*
X0024039Y0085523D03*
X0023901Y0085523D03*
X0023763Y0085523D03*
X0023625Y0085523D03*
X0023487Y0085523D03*
X0023350Y0085523D03*
X0023212Y0085523D03*
X0023074Y0085523D03*
X0022936Y0085523D03*
X0022798Y0085523D03*
X0022661Y0085523D03*
X0022523Y0085523D03*
X0022385Y0085523D03*
X0022247Y0085523D03*
X0022109Y0085523D03*
X0021972Y0085523D03*
X0021834Y0085523D03*
X0021696Y0085523D03*
X0021558Y0085523D03*
X0021420Y0085523D03*
X0021283Y0085523D03*
X0021145Y0085523D03*
X0022109Y0087590D03*
X0022247Y0087727D03*
X0022385Y0087727D03*
X0022661Y0087865D03*
X0022798Y0087865D03*
X0022936Y0087865D03*
X0023074Y0087865D03*
X0023212Y0087865D03*
X0023625Y0087727D03*
X0023901Y0087590D03*
X0023901Y0088968D03*
X0024039Y0088968D03*
X0024176Y0088968D03*
X0024314Y0088968D03*
X0024452Y0088968D03*
X0024590Y0088968D03*
X0024727Y0088968D03*
X0024865Y0088968D03*
X0023763Y0088968D03*
X0023625Y0088968D03*
X0023487Y0088968D03*
X0023350Y0088968D03*
X0023212Y0088968D03*
X0023074Y0088968D03*
X0022936Y0088968D03*
X0022798Y0088968D03*
X0022661Y0088968D03*
X0022523Y0088968D03*
X0022385Y0088968D03*
X0022247Y0088968D03*
X0022109Y0088968D03*
X0021972Y0088968D03*
X0021834Y0088968D03*
X0021696Y0088968D03*
X0021558Y0088968D03*
X0021420Y0088968D03*
X0021283Y0088968D03*
X0021145Y0088968D03*
X0021145Y0090208D03*
X0021283Y0090208D03*
X0021420Y0090208D03*
X0021558Y0090208D03*
X0021696Y0090208D03*
X0021834Y0090208D03*
X0021972Y0090208D03*
X0022109Y0090208D03*
X0022247Y0090208D03*
X0022385Y0090208D03*
X0022523Y0090208D03*
X0022661Y0090208D03*
X0022798Y0090208D03*
X0022936Y0090208D03*
X0023074Y0090208D03*
X0023212Y0090208D03*
X0023350Y0090208D03*
X0023487Y0090208D03*
X0023625Y0090208D03*
X0023763Y0090208D03*
X0023901Y0090208D03*
X0024039Y0090208D03*
X0024176Y0090208D03*
X0024176Y0090759D03*
X0023901Y0090897D03*
X0023625Y0091035D03*
X0023350Y0091172D03*
X0023074Y0091310D03*
X0022798Y0091448D03*
X0022523Y0091586D03*
X0022247Y0091724D03*
X0021972Y0091861D03*
X0021972Y0092412D03*
X0022109Y0092412D03*
X0022247Y0092412D03*
X0022385Y0092413D03*
X0022523Y0092412D03*
X0022661Y0092412D03*
X0022798Y0092412D03*
X0022936Y0092412D03*
X0023074Y0092412D03*
X0023212Y0092412D03*
X0023350Y0092412D03*
X0023487Y0092413D03*
X0023625Y0092412D03*
X0023763Y0092412D03*
X0023901Y0092412D03*
X0024039Y0092412D03*
X0024176Y0092412D03*
X0024314Y0092412D03*
X0024452Y0092412D03*
X0024590Y0092412D03*
X0024727Y0092412D03*
X0024176Y0093790D03*
X0023901Y0093653D03*
X0023763Y0093653D03*
X0023625Y0093653D03*
X0023487Y0093653D03*
X0023350Y0093653D03*
X0023212Y0093653D03*
X0023074Y0093653D03*
X0022936Y0093653D03*
X0022798Y0093653D03*
X0022661Y0093653D03*
X0022523Y0093653D03*
X0022385Y0093653D03*
X0022247Y0093653D03*
X0022109Y0093653D03*
X0021972Y0093653D03*
X0021834Y0093653D03*
X0021696Y0093653D03*
X0021558Y0093653D03*
X0021420Y0093653D03*
X0021283Y0093653D03*
X0021145Y0093653D03*
X0021145Y0095720D03*
X0021283Y0095720D03*
X0021420Y0095720D03*
X0021558Y0095720D03*
X0021696Y0095720D03*
X0021834Y0095720D03*
X0021972Y0095720D03*
X0022109Y0095720D03*
X0022247Y0095720D03*
X0022385Y0095720D03*
X0022523Y0095720D03*
X0022661Y0095720D03*
X0022798Y0095720D03*
X0023350Y0095720D03*
X0023487Y0095720D03*
X0023625Y0095720D03*
X0023763Y0095720D03*
X0023901Y0095720D03*
X0024039Y0095720D03*
X0024039Y0097373D03*
X0024176Y0097373D03*
X0023901Y0097373D03*
X0023763Y0097373D03*
X0023625Y0097373D03*
X0023350Y0097235D03*
X0023212Y0097235D03*
X0023074Y0097235D03*
X0022936Y0097235D03*
X0022798Y0097235D03*
X0022661Y0097235D03*
X0022523Y0097235D03*
X0022247Y0097098D03*
X0022109Y0097098D03*
X0021972Y0097098D03*
X0021834Y0097098D03*
X0021696Y0097098D03*
X0021558Y0097098D03*
X0021420Y0097098D03*
X0022247Y0098475D03*
X0022385Y0098475D03*
X0022523Y0098475D03*
X0022798Y0098338D03*
X0022936Y0098338D03*
X0023212Y0098200D03*
X0023350Y0098200D03*
X0023625Y0098062D03*
X0023763Y0098062D03*
X0023901Y0098062D03*
X0024176Y0097924D03*
X0024865Y0097649D03*
X0023901Y0099716D03*
X0023763Y0099716D03*
X0023625Y0099716D03*
X0023487Y0099578D03*
X0023350Y0099578D03*
X0023212Y0099578D03*
X0022936Y0099440D03*
X0022798Y0099440D03*
X0022523Y0099302D03*
X0022385Y0099302D03*
X0022247Y0099302D03*
X0022109Y0099164D03*
X0021972Y0099164D03*
X0021972Y0098613D03*
X0022109Y0098613D03*
X0021283Y0098889D03*
X0021145Y0098889D03*
X0021420Y0100680D03*
X0021558Y0100680D03*
X0021696Y0100680D03*
X0021834Y0100680D03*
X0021972Y0100680D03*
X0022109Y0100680D03*
X0022523Y0100542D03*
X0022661Y0100542D03*
X0022798Y0100542D03*
X0022936Y0100542D03*
X0023074Y0100542D03*
X0023212Y0100542D03*
X0023350Y0100542D03*
X0023625Y0100405D03*
X0023763Y0100405D03*
X0023901Y0100405D03*
X0024038Y0100405D03*
X0024176Y0100405D03*
X0024176Y0099853D03*
X0024865Y0100129D03*
X0024727Y0101920D03*
X0024590Y0101920D03*
X0024452Y0101920D03*
X0024314Y0101920D03*
X0024176Y0101920D03*
X0024039Y0101920D03*
X0023901Y0101920D03*
X0023763Y0101920D03*
X0023625Y0101920D03*
X0023487Y0101920D03*
X0023350Y0101920D03*
X0023212Y0101920D03*
X0023074Y0101920D03*
X0022936Y0101920D03*
X0022798Y0101920D03*
X0022661Y0101920D03*
X0022523Y0101920D03*
X0022385Y0101920D03*
X0022247Y0101920D03*
X0022109Y0101920D03*
X0021972Y0101920D03*
X0021834Y0101920D03*
X0021696Y0101920D03*
X0021558Y0101920D03*
X0021420Y0101920D03*
X0021283Y0101920D03*
X0021145Y0101920D03*
X0022109Y0103298D03*
X0022385Y0103161D03*
X0022523Y0103161D03*
X0022798Y0103023D03*
X0022936Y0103023D03*
X0023074Y0103023D03*
X0023487Y0103161D03*
X0023625Y0103161D03*
X0024039Y0103436D03*
X0023625Y0106192D03*
X0023487Y0106192D03*
X0023350Y0106192D03*
X0023212Y0106192D03*
X0023074Y0106192D03*
X0022936Y0106192D03*
X0022798Y0106192D03*
X0022661Y0106192D03*
X0022523Y0106192D03*
X0022385Y0106192D03*
X0022247Y0106192D03*
X0022109Y0106192D03*
X0021972Y0106192D03*
X0021834Y0106192D03*
X0021696Y0106192D03*
X0021558Y0106192D03*
X0021420Y0106192D03*
X0021283Y0106192D03*
X0021145Y0106192D03*
X0021145Y0108397D03*
X0021283Y0108397D03*
X0021420Y0108397D03*
X0021558Y0108397D03*
X0021696Y0108397D03*
X0021834Y0108397D03*
X0021972Y0108397D03*
X0022109Y0108397D03*
X0022247Y0108397D03*
X0022385Y0108397D03*
X0022523Y0108397D03*
X0022661Y0108397D03*
X0022798Y0108397D03*
X0023350Y0108397D03*
X0023487Y0108397D03*
X0023625Y0108397D03*
X0023763Y0108397D03*
X0024039Y0108259D03*
X0024314Y0108121D03*
X0024314Y0106468D03*
X0024038Y0106330D03*
X0023901Y0106330D03*
X0024865Y0090346D03*
X0024452Y0085523D03*
X0037788Y0082669D03*
X0037925Y0082669D03*
X0040681Y0085838D03*
X0040819Y0085838D03*
X0040819Y0079499D03*
X0040681Y0079499D03*
D89*
X0039166Y0095690D03*
X0039028Y0095690D03*
X0038890Y0095690D03*
X0037788Y0095690D03*
X0042748Y0095690D03*
X0042886Y0095690D03*
D90*
X0043299Y0102167D03*
X0038752Y0102029D03*
X0024865Y0104883D03*
X0024176Y0106399D03*
X0023763Y0106261D03*
X0024452Y0108052D03*
X0024176Y0108190D03*
X0023901Y0108328D03*
X0023901Y0103367D03*
X0023763Y0103229D03*
X0023350Y0103092D03*
X0023212Y0103092D03*
X0022661Y0103092D03*
X0022247Y0103229D03*
X0021972Y0103367D03*
X0021834Y0103505D03*
X0021696Y0103643D03*
X0021283Y0100749D03*
X0021145Y0100749D03*
X0022247Y0100611D03*
X0022385Y0100611D03*
X0023487Y0100473D03*
X0024039Y0099785D03*
X0023074Y0099509D03*
X0022661Y0099371D03*
X0022661Y0098407D03*
X0023074Y0098269D03*
X0023487Y0098131D03*
X0024039Y0097993D03*
X0023487Y0097304D03*
X0022385Y0097166D03*
X0021283Y0097029D03*
X0021145Y0097029D03*
X0024176Y0095651D03*
X0024314Y0095513D03*
X0024452Y0095375D03*
X0024452Y0093997D03*
X0024314Y0093859D03*
X0024039Y0093722D03*
X0022661Y0091517D03*
X0022936Y0091379D03*
X0023212Y0091241D03*
X0023487Y0091103D03*
X0023763Y0090966D03*
X0024039Y0090828D03*
X0022385Y0091655D03*
X0022109Y0091792D03*
X0021145Y0092344D03*
X0022523Y0087796D03*
X0021972Y0087521D03*
X0021834Y0087383D03*
X0021696Y0087245D03*
X0023350Y0087796D03*
X0023487Y0087796D03*
X0023763Y0087659D03*
X0024039Y0087521D03*
X0024176Y0087383D03*
X0023901Y0082285D03*
X0024452Y0082009D03*
X0024176Y0080355D03*
X0023763Y0080218D03*
X0022247Y0077324D03*
X0021972Y0077186D03*
X0021834Y0077048D03*
X0021696Y0076911D03*
X0021696Y0074568D03*
X0021834Y0074430D03*
X0021972Y0074292D03*
X0022247Y0074155D03*
X0022661Y0074017D03*
X0022798Y0074017D03*
X0023212Y0074017D03*
X0023350Y0074017D03*
X0023763Y0074155D03*
X0024176Y0074430D03*
X0024314Y0072639D03*
X0024452Y0072501D03*
X0023487Y0072639D03*
X0023350Y0072501D03*
X0022661Y0072639D03*
X0022523Y0072777D03*
X0022385Y0072777D03*
X0024039Y0070848D03*
X0024314Y0070985D03*
X0024452Y0071123D03*
X0024865Y0069056D03*
X0024176Y0067816D03*
X0024039Y0067678D03*
X0023901Y0067540D03*
X0023625Y0067403D03*
X0022385Y0067403D03*
X0022109Y0067540D03*
X0021834Y0067678D03*
X0021145Y0065887D03*
X0021834Y0065474D03*
X0022109Y0065336D03*
X0022385Y0065198D03*
X0022661Y0065060D03*
X0022936Y0064922D03*
X0023212Y0064785D03*
X0023487Y0064647D03*
X0023763Y0064509D03*
X0024039Y0064371D03*
X0024314Y0076911D03*
X0040406Y0079568D03*
X0040543Y0079568D03*
X0040543Y0085769D03*
X0040406Y0085769D03*
D91*
X0040268Y0085838D03*
X0038201Y0082669D03*
X0038063Y0082669D03*
X0040268Y0079637D03*
X0024452Y0080562D03*
X0021558Y0076704D03*
X0021558Y0074775D03*
X0024314Y0074637D03*
X0021145Y0068987D03*
X0021696Y0067885D03*
X0024314Y0068023D03*
X0024727Y0063889D03*
X0021145Y0086350D03*
X0021558Y0087038D03*
X0024314Y0087176D03*
X0024727Y0090346D03*
X0021420Y0092275D03*
X0021283Y0092275D03*
X0024727Y0097649D03*
X0024727Y0100129D03*
X0024590Y0100129D03*
X0021558Y0098889D03*
X0021420Y0098889D03*
X0024176Y0103574D03*
X0024314Y0103712D03*
X0024452Y0106605D03*
D92*
X0021283Y0104538D03*
X0021420Y0086625D03*
X0021145Y0075739D03*
X0024865Y0075739D03*
X0023074Y0071881D03*
X0021972Y0059893D03*
X0026519Y0059755D03*
X0044953Y0076192D03*
X0045091Y0076192D03*
X0045228Y0076192D03*
X0045366Y0076192D03*
X0045504Y0076192D03*
X0045642Y0076192D03*
X0045780Y0076192D03*
X0045917Y0076192D03*
X0046055Y0076192D03*
X0038752Y0082669D03*
X0038614Y0082669D03*
X0039441Y0085700D03*
X0039579Y0085700D03*
X0039028Y0102236D03*
D93*
X0043162Y0102236D03*
X0039854Y0085700D03*
X0039717Y0085700D03*
X0038477Y0082669D03*
X0038339Y0082669D03*
X0039854Y0079637D03*
X0039992Y0079637D03*
X0024865Y0081251D03*
X0024452Y0086901D03*
X0021283Y0086487D03*
X0024314Y0090483D03*
X0021834Y0092137D03*
X0024865Y0094755D03*
X0024452Y0097649D03*
X0024314Y0097649D03*
X0024314Y0100129D03*
X0024452Y0100129D03*
X0021834Y0098889D03*
X0021696Y0098889D03*
X0024452Y0103987D03*
X0024865Y0107294D03*
X0021145Y0104676D03*
X0022798Y0072294D03*
X0024452Y0068298D03*
X0021696Y0065818D03*
X0021558Y0065818D03*
X0024314Y0064027D03*
X0026105Y0059342D03*
X0025968Y0059204D03*
X0025830Y0059066D03*
X0025554Y0058928D03*
X0023487Y0058790D03*
X0023074Y0058928D03*
X0022798Y0059066D03*
X0022661Y0059204D03*
D94*
X0022523Y0059273D03*
X0022385Y0059411D03*
X0022247Y0059548D03*
X0022109Y0059686D03*
X0026243Y0059411D03*
X0026381Y0059548D03*
X0024727Y0068781D03*
X0021283Y0068781D03*
X0024865Y0085867D03*
X0039579Y0079706D03*
X0039717Y0079706D03*
X0024727Y0104607D03*
D95*
X0038339Y0074539D03*
X0038063Y0067098D03*
X0044126Y0067236D03*
D96*
X0038201Y0079913D03*
X0038063Y0079913D03*
X0039441Y0082669D03*
X0039579Y0082669D03*
X0038201Y0085425D03*
X0038752Y0088732D03*
X0038890Y0088732D03*
X0039028Y0088732D03*
X0039166Y0088732D03*
X0046055Y0095897D03*
X0042748Y0102511D03*
D97*
X0039992Y0088663D03*
X0039854Y0088663D03*
X0039717Y0088663D03*
X0039579Y0088663D03*
X0039441Y0088663D03*
X0039303Y0088663D03*
X0038063Y0085494D03*
X0023212Y0068229D03*
X0023074Y0068229D03*
X0022936Y0068229D03*
X0027208Y0061202D03*
D98*
X0038063Y0095966D03*
X0043851Y0095966D03*
X0043988Y0095966D03*
D99*
X0038614Y0074539D03*
X0043988Y0067098D03*
X0038201Y0066960D03*
D100*
X0040406Y0064342D03*
X0041646Y0064342D03*
X0043575Y0095897D03*
X0043713Y0095897D03*
X0044126Y0095897D03*
X0038339Y0095897D03*
X0038201Y0095897D03*
D101*
X0038890Y0074401D03*
X0039028Y0074401D03*
X0038477Y0066547D03*
X0043713Y0066684D03*
D102*
X0043575Y0066547D03*
X0038614Y0066409D03*
D103*
X0040268Y0064480D03*
X0041784Y0064480D03*
X0043024Y0095759D03*
X0043162Y0095759D03*
X0043299Y0095759D03*
X0044264Y0095759D03*
X0038752Y0095759D03*
X0038614Y0095759D03*
D104*
X0042059Y0074539D03*
X0041784Y0074401D03*
X0041646Y0074401D03*
X0041508Y0074401D03*
X0041370Y0074401D03*
X0043024Y0065858D03*
X0039166Y0065720D03*
D105*
X0039303Y0065582D03*
X0042335Y0074677D03*
D106*
X0041921Y0064618D03*
X0040130Y0064618D03*
X0039717Y0095621D03*
X0039579Y0095621D03*
X0039441Y0095621D03*
X0039303Y0095621D03*
X0042197Y0095621D03*
X0042335Y0095621D03*
X0042473Y0095621D03*
X0042610Y0095621D03*
X0044402Y0095621D03*
D107*
X0039854Y0074263D03*
X0039717Y0074263D03*
D108*
X0039992Y0064755D03*
X0042059Y0064755D03*
X0041095Y0095484D03*
X0040957Y0095484D03*
X0044540Y0095484D03*
D109*
X0040543Y0074263D03*
X0040406Y0074263D03*
X0040268Y0074263D03*
X0040130Y0074263D03*
X0043162Y0065995D03*
D110*
X0040130Y0103131D03*
D111*
X0040543Y0064204D03*
X0041508Y0064204D03*
D112*
X0041370Y0064066D03*
X0040681Y0064066D03*
D113*
X0040681Y0082669D03*
X0040819Y0082669D03*
X0045504Y0096448D03*
D114*
X0041232Y0063929D03*
X0040819Y0063929D03*
D115*
X0042059Y0082669D03*
X0041646Y0103476D03*
D116*
X0041784Y0103338D03*
X0044953Y0096999D03*
X0041921Y0082669D03*
X0041784Y0082669D03*
D117*
X0042473Y0080326D03*
X0042610Y0080326D03*
X0042748Y0080326D03*
X0048536Y0082531D03*
D118*
X0043024Y0080395D03*
X0042886Y0080395D03*
D119*
X0043299Y0080533D03*
X0043437Y0080533D03*
D120*
X0043575Y0080602D03*
X0048673Y0082531D03*
D121*
X0043713Y0080671D03*
D122*
X0043988Y0080808D03*
D123*
X0044126Y0080946D03*
D124*
X0044402Y0081153D03*
X0048949Y0082531D03*
D125*
X0049087Y0082531D03*
X0044677Y0081429D03*
D126*
X0044677Y0095346D03*
D127*
X0049225Y0082531D03*
X0044815Y0081704D03*
D128*
X0044815Y0095208D03*
D129*
X0046193Y0082531D03*
D130*
X0046331Y0082531D03*
D131*
X0046469Y0082531D03*
D132*
X0046606Y0082531D03*
D133*
X0046744Y0082531D03*
D134*
X0046882Y0082531D03*
D135*
X0047020Y0082531D03*
D136*
X0047158Y0082531D03*
D137*
X0047295Y0082531D03*
D138*
X0047433Y0082531D03*
D139*
X0047571Y0082531D03*
D140*
X0047709Y0082531D03*
D141*
X0047847Y0082531D03*
D142*
X0047984Y0082531D03*
D143*
X0048122Y0082531D03*
D144*
X0048260Y0082531D03*
D145*
X0048398Y0082531D03*
D146*
X0048811Y0082531D03*
D147*
X0049362Y0082531D03*
D148*
X0049500Y0082531D03*
D149*
X0049638Y0082600D03*
D150*
X0049776Y0082600D03*
D151*
X0049914Y0082600D03*
D152*
X0050051Y0082600D03*
D153*
X0050189Y0082600D03*
D154*
X0050327Y0082600D03*
D155*
X0050465Y0082600D03*
D156*
X0050603Y0082600D03*
D157*
X0057633Y0131885D03*
X0071807Y0131885D03*
D158*
X0071807Y0131925D03*
X0057633Y0131925D03*
X0057633Y0150507D03*
X0071807Y0150507D03*
D159*
X0071787Y0150468D03*
X0057653Y0150468D03*
X0068244Y0133027D03*
X0057653Y0131964D03*
D160*
X0061216Y0133027D03*
X0071807Y0131964D03*
D161*
X0071787Y0132003D03*
X0061196Y0133066D03*
X0057653Y0132003D03*
X0057653Y0150429D03*
X0071787Y0150429D03*
D162*
X0068283Y0133106D03*
X0071787Y0132043D03*
X0061157Y0133106D03*
X0057653Y0132043D03*
D163*
X0057673Y0132082D03*
X0061137Y0133145D03*
X0071767Y0132082D03*
X0071767Y0150350D03*
X0057673Y0150350D03*
D164*
X0071767Y0150311D03*
X0068342Y0133185D03*
X0071767Y0132122D03*
X0061098Y0133185D03*
X0057673Y0132122D03*
D165*
X0057692Y0132161D03*
X0061078Y0133224D03*
X0071748Y0132161D03*
X0071748Y0150271D03*
X0057692Y0150271D03*
D166*
X0071748Y0150232D03*
X0068401Y0133263D03*
X0071748Y0132200D03*
X0061039Y0133263D03*
X0057692Y0132200D03*
D167*
X0057712Y0132240D03*
X0071728Y0132240D03*
X0071728Y0150192D03*
X0057712Y0150192D03*
D168*
X0071728Y0150153D03*
X0068460Y0133342D03*
X0071728Y0132279D03*
X0057712Y0132279D03*
D169*
X0057732Y0132318D03*
X0068519Y0133421D03*
X0071708Y0150114D03*
X0057732Y0150114D03*
D170*
X0068500Y0133381D03*
X0071728Y0132318D03*
D171*
X0071708Y0132358D03*
X0057732Y0132358D03*
X0057732Y0150074D03*
X0071708Y0150074D03*
D172*
X0071688Y0150035D03*
X0057751Y0150035D03*
X0057751Y0132397D03*
D173*
X0071708Y0132397D03*
D174*
X0071688Y0132437D03*
X0057751Y0132437D03*
X0057751Y0149996D03*
X0071688Y0149996D03*
D175*
X0071669Y0149956D03*
X0057771Y0149956D03*
X0057771Y0132476D03*
D176*
X0071688Y0132476D03*
D177*
X0071669Y0132515D03*
X0057771Y0132515D03*
X0057771Y0149917D03*
X0071669Y0149917D03*
D178*
X0071669Y0132555D03*
X0057771Y0132555D03*
D179*
X0057791Y0132594D03*
X0071649Y0132594D03*
X0071649Y0149838D03*
X0057791Y0149838D03*
D180*
X0071649Y0149799D03*
X0071649Y0132633D03*
X0057791Y0132633D03*
D181*
X0057811Y0132673D03*
X0071629Y0132673D03*
X0071629Y0149759D03*
X0057811Y0149759D03*
D182*
X0071629Y0149720D03*
X0071629Y0132712D03*
X0057811Y0132712D03*
D183*
X0057830Y0132751D03*
X0057830Y0149681D03*
X0071610Y0149681D03*
D184*
X0071629Y0132751D03*
D185*
X0071610Y0132791D03*
X0057830Y0132791D03*
X0071610Y0149641D03*
D186*
X0071590Y0149602D03*
X0057850Y0149602D03*
X0057850Y0132830D03*
D187*
X0071610Y0132830D03*
D188*
X0071590Y0132870D03*
X0057850Y0132870D03*
X0057850Y0149563D03*
X0071590Y0149563D03*
D189*
X0071570Y0149523D03*
X0057870Y0149523D03*
X0057870Y0132909D03*
D190*
X0071590Y0132909D03*
D191*
X0071570Y0132948D03*
X0057870Y0132948D03*
X0057870Y0149484D03*
X0071570Y0149484D03*
D192*
X0071807Y0150547D03*
X0057633Y0150547D03*
X0061255Y0132948D03*
X0068185Y0132948D03*
D193*
X0071570Y0132988D03*
X0057870Y0132988D03*
D194*
X0061236Y0132988D03*
X0068204Y0132988D03*
D195*
X0071551Y0133027D03*
X0057889Y0133027D03*
X0057889Y0149405D03*
X0071551Y0149405D03*
D196*
X0071551Y0149366D03*
X0071551Y0133066D03*
X0057889Y0133066D03*
D197*
X0068263Y0133066D03*
D198*
X0071531Y0133106D03*
X0057909Y0133106D03*
X0057909Y0149326D03*
X0071531Y0149326D03*
D199*
X0071531Y0149287D03*
X0064720Y0152751D03*
X0064720Y0152791D03*
X0071531Y0133145D03*
X0057909Y0133145D03*
D200*
X0068322Y0133145D03*
D201*
X0057929Y0133185D03*
X0057929Y0149248D03*
X0064740Y0152515D03*
X0071511Y0149248D03*
D202*
X0064720Y0152555D03*
X0064720Y0152594D03*
X0064720Y0152633D03*
X0064720Y0152673D03*
X0071531Y0133185D03*
D203*
X0071511Y0133224D03*
X0057929Y0133224D03*
X0071511Y0149208D03*
X0064740Y0152279D03*
D204*
X0068381Y0133224D03*
D205*
X0057948Y0133263D03*
X0057948Y0149169D03*
X0064720Y0151925D03*
X0064720Y0151964D03*
X0064720Y0152003D03*
X0064720Y0152043D03*
X0071492Y0149169D03*
D206*
X0064740Y0152082D03*
X0071511Y0133263D03*
D207*
X0071492Y0133303D03*
X0057948Y0133303D03*
X0057948Y0149129D03*
X0064720Y0151688D03*
X0064720Y0151728D03*
X0064720Y0151767D03*
X0064720Y0151807D03*
X0071492Y0149129D03*
D208*
X0068440Y0133303D03*
X0061000Y0133303D03*
D209*
X0057968Y0133342D03*
X0057968Y0149090D03*
X0064740Y0151452D03*
X0071472Y0149090D03*
D210*
X0061000Y0133342D03*
D211*
X0071492Y0133342D03*
X0064720Y0151492D03*
X0064720Y0151531D03*
X0064720Y0151570D03*
X0064720Y0151610D03*
D212*
X0064740Y0151255D03*
X0064740Y0151216D03*
X0071472Y0149051D03*
X0057968Y0149051D03*
X0057968Y0133381D03*
X0071472Y0133381D03*
D213*
X0060960Y0133381D03*
X0057732Y0150153D03*
D214*
X0064740Y0151019D03*
X0071472Y0133421D03*
X0057968Y0133421D03*
D215*
X0060940Y0133421D03*
D216*
X0057988Y0133460D03*
X0071452Y0133460D03*
X0071452Y0148972D03*
X0064720Y0150625D03*
X0064720Y0150665D03*
X0064720Y0150704D03*
X0064720Y0150744D03*
X0064720Y0150783D03*
X0057988Y0148972D03*
D217*
X0060901Y0133460D03*
X0068539Y0133460D03*
D218*
X0070685Y0133500D03*
X0058755Y0133500D03*
D219*
X0058755Y0133539D03*
X0070685Y0133539D03*
D220*
X0070704Y0133578D03*
X0058736Y0133578D03*
X0064720Y0149405D03*
D221*
X0069484Y0136649D03*
X0069484Y0136610D03*
X0069523Y0136570D03*
X0069523Y0136531D03*
X0059956Y0136570D03*
X0059956Y0136610D03*
X0059917Y0136531D03*
X0059877Y0136452D03*
X0058736Y0133618D03*
D222*
X0070724Y0133618D03*
D223*
X0070724Y0133657D03*
X0069622Y0136374D03*
X0069582Y0136413D03*
X0069582Y0136452D03*
X0069543Y0136492D03*
X0069464Y0136688D03*
X0059976Y0136688D03*
X0059976Y0136649D03*
X0059976Y0136728D03*
X0059897Y0136492D03*
X0059858Y0136413D03*
X0058716Y0133657D03*
D224*
X0058696Y0133696D03*
X0059759Y0136255D03*
X0059799Y0136295D03*
X0059799Y0136334D03*
X0059838Y0136374D03*
X0069484Y0136728D03*
X0069641Y0136334D03*
X0069641Y0136295D03*
X0069681Y0136255D03*
X0070744Y0133696D03*
D225*
X0070744Y0133736D03*
X0069877Y0135901D03*
X0069838Y0135980D03*
X0069799Y0136019D03*
X0069799Y0136059D03*
X0069484Y0136846D03*
X0059996Y0136846D03*
X0059681Y0136098D03*
X0059641Y0136019D03*
X0059602Y0135980D03*
X0059602Y0135940D03*
X0058696Y0133736D03*
X0064720Y0149366D03*
D226*
X0059976Y0136925D03*
X0059976Y0136885D03*
X0059582Y0135901D03*
X0059543Y0135862D03*
X0059543Y0135822D03*
X0059503Y0135783D03*
X0058677Y0133775D03*
X0069464Y0136885D03*
X0069858Y0135940D03*
X0069897Y0135862D03*
X0069937Y0135783D03*
X0070763Y0133775D03*
D227*
X0070094Y0135507D03*
X0070055Y0135586D03*
X0070015Y0135625D03*
X0069464Y0136964D03*
X0069464Y0137003D03*
X0059976Y0137003D03*
X0059976Y0136964D03*
X0059464Y0135704D03*
X0059425Y0135625D03*
X0059385Y0135586D03*
X0059385Y0135547D03*
X0058677Y0133814D03*
D228*
X0059444Y0135665D03*
X0059484Y0135744D03*
X0069484Y0136925D03*
X0069917Y0135822D03*
X0069956Y0135744D03*
X0069996Y0135704D03*
X0069996Y0135665D03*
X0070783Y0133814D03*
D229*
X0070783Y0133854D03*
X0070153Y0135389D03*
X0070153Y0135429D03*
X0070114Y0135468D03*
X0070074Y0135547D03*
X0069484Y0137043D03*
X0059996Y0137043D03*
X0059366Y0135507D03*
X0059326Y0135468D03*
X0059326Y0135429D03*
X0059287Y0135389D03*
X0059248Y0135311D03*
X0058657Y0133854D03*
X0064720Y0149326D03*
D230*
X0070114Y0143500D03*
X0070153Y0143460D03*
X0069484Y0137122D03*
X0070271Y0135192D03*
X0070271Y0135153D03*
X0070311Y0135114D03*
X0070350Y0135035D03*
X0059208Y0135232D03*
X0059169Y0135153D03*
X0059129Y0135114D03*
X0059129Y0135074D03*
X0058657Y0133893D03*
X0059248Y0138972D03*
X0059208Y0139011D03*
X0059248Y0143421D03*
X0059287Y0143460D03*
X0059326Y0143500D03*
D231*
X0059976Y0137122D03*
X0059976Y0137082D03*
X0059267Y0135350D03*
X0059228Y0135271D03*
X0059188Y0135192D03*
X0069464Y0137082D03*
X0070173Y0135350D03*
X0070212Y0135311D03*
X0070212Y0135271D03*
X0070251Y0135232D03*
X0070803Y0133893D03*
D232*
X0070803Y0133933D03*
X0070409Y0134917D03*
X0070409Y0134956D03*
X0070370Y0134996D03*
X0070330Y0135074D03*
X0069464Y0137161D03*
X0069464Y0137200D03*
X0070173Y0138933D03*
X0070212Y0138972D03*
X0070251Y0139011D03*
X0070291Y0139051D03*
X0070212Y0143421D03*
X0070094Y0143539D03*
X0070055Y0143578D03*
X0059385Y0143578D03*
X0059346Y0143539D03*
X0059267Y0138933D03*
X0059307Y0138893D03*
X0059976Y0137200D03*
X0059976Y0137161D03*
X0059110Y0135035D03*
X0059070Y0134996D03*
X0059031Y0134917D03*
X0058637Y0133933D03*
D233*
X0058618Y0133972D03*
X0058972Y0134799D03*
X0058972Y0134838D03*
X0059011Y0134877D03*
X0059051Y0134956D03*
X0059996Y0137240D03*
X0059326Y0138854D03*
X0059169Y0139051D03*
X0059405Y0143618D03*
X0059444Y0143657D03*
X0069484Y0137240D03*
X0070114Y0138854D03*
X0070153Y0138893D03*
X0070429Y0134877D03*
X0070468Y0134838D03*
X0070507Y0134759D03*
X0070822Y0133972D03*
X0070035Y0143618D03*
D234*
X0069956Y0143736D03*
X0069484Y0137318D03*
X0070547Y0134681D03*
X0070586Y0134602D03*
X0070626Y0134563D03*
X0070626Y0134523D03*
X0070822Y0134011D03*
X0059996Y0137318D03*
X0059405Y0138775D03*
X0058854Y0134602D03*
X0058854Y0134563D03*
X0058814Y0134523D03*
X0058775Y0134444D03*
X0058618Y0134051D03*
X0058618Y0134011D03*
X0059484Y0143696D03*
X0059523Y0143736D03*
X0064720Y0149287D03*
D235*
X0069897Y0143775D03*
X0070409Y0139090D03*
X0070015Y0138736D03*
X0069464Y0137397D03*
X0069464Y0137358D03*
X0070645Y0134484D03*
X0070685Y0134444D03*
X0070685Y0134405D03*
X0070724Y0134366D03*
X0070763Y0134287D03*
X0070842Y0134090D03*
X0070842Y0134051D03*
X0059976Y0137358D03*
X0059976Y0137397D03*
X0059464Y0138696D03*
X0059425Y0138736D03*
X0058795Y0134484D03*
X0058755Y0134405D03*
X0059543Y0143775D03*
D236*
X0059563Y0143814D03*
X0059051Y0139090D03*
X0059484Y0138657D03*
X0059996Y0137437D03*
X0058736Y0134366D03*
X0058696Y0134326D03*
X0058696Y0134287D03*
X0058657Y0134248D03*
X0058657Y0134208D03*
X0058618Y0134169D03*
X0058618Y0134129D03*
X0058618Y0134090D03*
X0070744Y0134326D03*
X0070783Y0134248D03*
X0070822Y0134169D03*
X0070822Y0134129D03*
X0069956Y0138657D03*
X0069996Y0138696D03*
X0069877Y0143814D03*
D237*
X0069818Y0143854D03*
X0069937Y0138618D03*
X0069464Y0137476D03*
X0069464Y0137437D03*
X0070803Y0134208D03*
X0059976Y0137476D03*
X0059543Y0138618D03*
X0059031Y0143342D03*
X0059622Y0143854D03*
D238*
X0059149Y0143381D03*
X0059385Y0138814D03*
X0059976Y0137279D03*
X0058952Y0134759D03*
X0058913Y0134720D03*
X0058913Y0134681D03*
X0058874Y0134641D03*
X0069464Y0137279D03*
X0070055Y0138775D03*
X0070094Y0138814D03*
X0070488Y0134799D03*
X0070527Y0134720D03*
X0070566Y0134641D03*
X0070291Y0143381D03*
X0070015Y0143657D03*
X0069976Y0143696D03*
D239*
X0069464Y0136807D03*
X0069464Y0136767D03*
X0069700Y0136216D03*
X0069740Y0136177D03*
X0069740Y0136137D03*
X0069779Y0136098D03*
X0059976Y0136767D03*
X0059976Y0136807D03*
X0059740Y0136216D03*
X0059740Y0136177D03*
X0059700Y0136137D03*
X0059661Y0136059D03*
D240*
X0059996Y0137515D03*
X0059563Y0138578D03*
X0059641Y0143893D03*
X0064720Y0149248D03*
X0069799Y0143893D03*
X0070429Y0143342D03*
X0069877Y0138578D03*
X0069484Y0137515D03*
D241*
X0069464Y0137555D03*
X0069464Y0137594D03*
X0069858Y0138539D03*
X0059976Y0137594D03*
X0059976Y0137555D03*
X0059582Y0138539D03*
X0059700Y0143933D03*
D242*
X0059720Y0143972D03*
X0059641Y0138500D03*
X0059996Y0137633D03*
X0069720Y0143972D03*
X0069759Y0143933D03*
D243*
X0070527Y0139129D03*
X0069818Y0138500D03*
X0069779Y0138460D03*
X0069464Y0137673D03*
X0069464Y0137633D03*
X0059976Y0137673D03*
X0059700Y0138421D03*
X0059661Y0138460D03*
X0058913Y0139129D03*
X0059779Y0144011D03*
D244*
X0058893Y0143303D03*
X0059996Y0137712D03*
X0069484Y0137712D03*
X0069759Y0138421D03*
X0070547Y0143303D03*
X0069681Y0144011D03*
D245*
X0069622Y0144051D03*
X0069700Y0138381D03*
X0069464Y0137791D03*
X0069464Y0137751D03*
X0059976Y0137751D03*
X0059740Y0138381D03*
X0059818Y0144051D03*
X0064740Y0149208D03*
D246*
X0069681Y0138342D03*
X0059996Y0137830D03*
X0059996Y0137791D03*
X0059759Y0138342D03*
D247*
X0059818Y0138303D03*
X0059976Y0137870D03*
X0058795Y0139169D03*
X0059858Y0144090D03*
X0069582Y0144090D03*
X0070645Y0139169D03*
X0069464Y0137870D03*
X0069464Y0137830D03*
D248*
X0069602Y0138263D03*
X0069641Y0138303D03*
X0070665Y0143263D03*
X0069523Y0144129D03*
X0059996Y0137909D03*
X0058775Y0143263D03*
X0059917Y0144129D03*
D249*
X0059858Y0138263D03*
X0059897Y0138224D03*
X0059976Y0137948D03*
X0069464Y0137948D03*
X0069464Y0137909D03*
X0069464Y0137988D03*
D250*
X0069523Y0138185D03*
X0069563Y0138224D03*
X0069484Y0144169D03*
X0064720Y0149169D03*
X0059956Y0144169D03*
X0059996Y0138027D03*
X0059996Y0137988D03*
D251*
X0059976Y0138066D03*
X0059976Y0138106D03*
X0059937Y0138145D03*
X0059937Y0138185D03*
X0058677Y0139208D03*
X0060015Y0144208D03*
X0069503Y0138145D03*
X0069503Y0138106D03*
X0069464Y0138066D03*
X0069464Y0138027D03*
D252*
X0070783Y0139208D03*
X0069444Y0144208D03*
D253*
X0070901Y0139248D03*
X0060153Y0144287D03*
X0058539Y0139248D03*
D254*
X0058440Y0139287D03*
D255*
X0064720Y0149090D03*
X0071019Y0139287D03*
D256*
X0058322Y0139326D03*
D257*
X0071137Y0139326D03*
D258*
X0071255Y0139366D03*
X0064720Y0149011D03*
X0058185Y0139366D03*
D259*
X0058086Y0139405D03*
D260*
X0064720Y0148972D03*
X0071374Y0139405D03*
D261*
X0071492Y0139444D03*
X0064720Y0148933D03*
X0057948Y0139444D03*
D262*
X0057830Y0139484D03*
X0064720Y0148893D03*
X0071610Y0139484D03*
D263*
X0071748Y0139523D03*
X0072141Y0140468D03*
X0072141Y0140507D03*
X0072141Y0140547D03*
X0072141Y0140586D03*
X0072141Y0140625D03*
X0072141Y0141767D03*
X0072141Y0141807D03*
X0072141Y0141846D03*
X0072141Y0141885D03*
X0072141Y0141925D03*
X0064740Y0148854D03*
X0057299Y0141885D03*
X0057299Y0141846D03*
X0057299Y0141807D03*
X0057299Y0141767D03*
X0057299Y0141728D03*
X0057299Y0140665D03*
X0057299Y0140625D03*
X0057299Y0140586D03*
X0057299Y0140547D03*
X0057299Y0140507D03*
X0057732Y0139523D03*
D264*
X0057594Y0139563D03*
X0057397Y0139917D03*
X0057397Y0139956D03*
X0057397Y0139996D03*
X0057397Y0142437D03*
X0057397Y0142476D03*
X0064720Y0148814D03*
X0072043Y0142515D03*
X0072043Y0142476D03*
X0072043Y0142437D03*
X0072043Y0139956D03*
X0072043Y0139917D03*
X0071846Y0139563D03*
D265*
X0071925Y0139602D03*
X0072003Y0139759D03*
X0072003Y0139799D03*
X0072003Y0142633D03*
X0072003Y0142673D03*
X0057437Y0142633D03*
X0057437Y0142594D03*
X0057437Y0139799D03*
X0057437Y0139759D03*
X0057515Y0139602D03*
D266*
X0057496Y0139641D03*
X0057456Y0139681D03*
X0057456Y0139720D03*
X0057456Y0142673D03*
X0057456Y0142712D03*
X0057496Y0142791D03*
X0057535Y0142830D03*
X0071944Y0142791D03*
X0071984Y0142751D03*
X0071984Y0142712D03*
X0071984Y0139720D03*
X0071984Y0139681D03*
X0071944Y0139641D03*
D267*
X0072023Y0139838D03*
X0072023Y0139877D03*
X0072023Y0142555D03*
X0072023Y0142594D03*
X0071866Y0142870D03*
X0057574Y0142870D03*
X0057417Y0142555D03*
X0057417Y0142515D03*
X0057417Y0139877D03*
X0057417Y0139838D03*
D268*
X0057377Y0140035D03*
X0057377Y0140074D03*
X0057377Y0142318D03*
X0057377Y0142358D03*
X0057377Y0142397D03*
X0072063Y0142397D03*
X0072063Y0142358D03*
X0072063Y0140035D03*
X0072063Y0139996D03*
D269*
X0072082Y0140074D03*
X0072082Y0140114D03*
X0072082Y0140153D03*
X0072082Y0142240D03*
X0072082Y0142279D03*
X0072082Y0142318D03*
X0057358Y0142279D03*
X0057358Y0142240D03*
X0057358Y0142200D03*
X0057358Y0140192D03*
X0057358Y0140153D03*
X0057358Y0140114D03*
D270*
X0057338Y0140232D03*
X0057338Y0140271D03*
X0057338Y0140311D03*
X0057338Y0142082D03*
X0057338Y0142122D03*
X0057338Y0142161D03*
X0057692Y0142909D03*
X0071748Y0142909D03*
X0072102Y0142200D03*
X0072102Y0142161D03*
X0072102Y0142122D03*
X0072102Y0140271D03*
X0072102Y0140232D03*
X0072102Y0140192D03*
D271*
X0072122Y0140311D03*
X0072122Y0140350D03*
X0072122Y0140389D03*
X0072122Y0140429D03*
X0072122Y0141964D03*
X0072122Y0142003D03*
X0072122Y0142043D03*
X0072122Y0142082D03*
X0057318Y0142043D03*
X0057318Y0142003D03*
X0057318Y0141964D03*
X0057318Y0141925D03*
X0057318Y0140468D03*
X0057318Y0140429D03*
X0057318Y0140389D03*
X0057318Y0140350D03*
D272*
X0057279Y0140704D03*
X0057279Y0140744D03*
X0057279Y0140783D03*
X0057279Y0140822D03*
X0057279Y0140862D03*
X0057279Y0140901D03*
X0057279Y0140940D03*
X0057279Y0140980D03*
X0057279Y0141019D03*
X0057279Y0141059D03*
X0057279Y0141334D03*
X0057279Y0141374D03*
X0057279Y0141413D03*
X0057279Y0141452D03*
X0057279Y0141492D03*
X0057279Y0141531D03*
X0057279Y0141570D03*
X0057279Y0141610D03*
X0057279Y0141649D03*
X0057279Y0141688D03*
X0072161Y0141688D03*
X0072161Y0141649D03*
X0072161Y0141610D03*
X0072161Y0141570D03*
X0072161Y0141531D03*
X0072161Y0141492D03*
X0072161Y0141728D03*
X0072161Y0140901D03*
X0072161Y0140862D03*
X0072161Y0140822D03*
X0072161Y0140783D03*
X0072161Y0140744D03*
X0072161Y0140704D03*
X0072161Y0140665D03*
D273*
X0072181Y0140940D03*
X0072181Y0140980D03*
X0072181Y0141019D03*
X0072181Y0141059D03*
X0072181Y0141098D03*
X0072181Y0141137D03*
X0072181Y0141177D03*
X0072181Y0141216D03*
X0072181Y0141255D03*
X0072181Y0141295D03*
X0072181Y0141334D03*
X0072181Y0141374D03*
X0072181Y0141413D03*
X0072181Y0141452D03*
X0057259Y0141295D03*
X0057259Y0141255D03*
X0057259Y0141216D03*
X0057259Y0141177D03*
X0057259Y0141137D03*
X0057259Y0141098D03*
D274*
X0057476Y0142751D03*
X0071925Y0142830D03*
D275*
X0057830Y0142948D03*
D276*
X0071629Y0142948D03*
D277*
X0071511Y0142988D03*
X0057929Y0142988D03*
D278*
X0058066Y0143027D03*
D279*
X0071393Y0143027D03*
D280*
X0058185Y0143066D03*
D281*
X0071275Y0143066D03*
D282*
X0071157Y0143106D03*
X0058283Y0143106D03*
D283*
X0058421Y0143145D03*
D284*
X0060291Y0144366D03*
X0069149Y0144366D03*
X0071039Y0143145D03*
D285*
X0070901Y0143185D03*
X0058539Y0143185D03*
D286*
X0058657Y0143224D03*
X0060074Y0144248D03*
X0069366Y0144248D03*
D287*
X0070803Y0143224D03*
D288*
X0069307Y0144287D03*
D289*
X0069228Y0144326D03*
X0060212Y0144326D03*
D290*
X0060429Y0144405D03*
X0069011Y0144405D03*
D291*
X0064720Y0144444D03*
X0064720Y0146452D03*
X0064720Y0146492D03*
D292*
X0064740Y0144484D03*
D293*
X0064720Y0144523D03*
X0064720Y0146413D03*
D294*
X0064740Y0144563D03*
D295*
X0064720Y0144602D03*
X0064720Y0144641D03*
X0064720Y0146374D03*
D296*
X0064720Y0146295D03*
X0064720Y0144720D03*
X0064720Y0144681D03*
D297*
X0064740Y0144759D03*
D298*
X0064720Y0144799D03*
X0064720Y0146255D03*
D299*
X0064740Y0146216D03*
X0064740Y0144838D03*
D300*
X0064720Y0144877D03*
X0064720Y0144917D03*
X0064720Y0146177D03*
D301*
X0064720Y0146137D03*
X0064720Y0144996D03*
X0064720Y0144956D03*
D302*
X0064740Y0145035D03*
X0064740Y0146098D03*
D303*
X0064720Y0146059D03*
X0064720Y0145074D03*
D304*
X0064740Y0145114D03*
D305*
X0064720Y0145153D03*
X0064720Y0145192D03*
X0064720Y0146019D03*
D306*
X0064720Y0145940D03*
X0064720Y0145271D03*
X0064720Y0145232D03*
D307*
X0064740Y0145311D03*
D308*
X0064720Y0145350D03*
X0064720Y0145901D03*
D309*
X0064740Y0145862D03*
X0064740Y0145389D03*
D310*
X0064720Y0145429D03*
X0064720Y0145468D03*
X0064720Y0145822D03*
D311*
X0064720Y0145783D03*
X0064720Y0145547D03*
X0064720Y0145507D03*
D312*
X0064740Y0145586D03*
X0064740Y0145744D03*
D313*
X0064720Y0145704D03*
X0064720Y0145665D03*
X0064720Y0145625D03*
D314*
X0064740Y0145980D03*
D315*
X0064740Y0146334D03*
D316*
X0064720Y0146531D03*
D317*
X0064720Y0146570D03*
D318*
X0064740Y0146610D03*
D319*
X0064720Y0146649D03*
D320*
X0064720Y0146688D03*
D321*
X0064740Y0146728D03*
D322*
X0064720Y0146767D03*
D323*
X0064720Y0146807D03*
D324*
X0064740Y0146846D03*
D325*
X0064720Y0146885D03*
D326*
X0064720Y0146925D03*
D327*
X0064740Y0146964D03*
D328*
X0064720Y0147003D03*
D329*
X0064720Y0147043D03*
D330*
X0064720Y0147082D03*
X0064720Y0147122D03*
D331*
X0064720Y0147161D03*
D332*
X0064720Y0147200D03*
D333*
X0064740Y0147240D03*
D334*
X0064720Y0147279D03*
D335*
X0064720Y0147318D03*
D336*
X0064740Y0147358D03*
D337*
X0064720Y0147397D03*
D338*
X0064720Y0147437D03*
D339*
X0064740Y0147476D03*
D340*
X0064720Y0147515D03*
D341*
X0064720Y0147555D03*
D342*
X0064740Y0147594D03*
D343*
X0064720Y0147633D03*
D344*
X0064720Y0147673D03*
X0064720Y0148775D03*
D345*
X0064720Y0148736D03*
X0064720Y0147751D03*
X0064720Y0147712D03*
D346*
X0064720Y0147791D03*
X0064720Y0148696D03*
D347*
X0064720Y0148657D03*
X0064720Y0147830D03*
D348*
X0064740Y0147870D03*
D349*
X0064720Y0147909D03*
X0064720Y0148618D03*
D350*
X0064720Y0148578D03*
X0064720Y0147948D03*
D351*
X0064740Y0147988D03*
D352*
X0064720Y0148027D03*
X0064720Y0148539D03*
D353*
X0064720Y0148500D03*
X0064720Y0148066D03*
D354*
X0064740Y0148106D03*
D355*
X0064720Y0148145D03*
X0064720Y0148460D03*
D356*
X0064720Y0148421D03*
X0064720Y0148185D03*
D357*
X0064740Y0148224D03*
X0064740Y0148381D03*
D358*
X0064720Y0148342D03*
X0064720Y0148303D03*
X0064720Y0148263D03*
D359*
X0058047Y0148814D03*
D360*
X0064720Y0149720D03*
X0064720Y0149759D03*
X0071413Y0148814D03*
D361*
X0064720Y0149799D03*
X0064720Y0149838D03*
X0064720Y0149877D03*
X0064720Y0149917D03*
X0058027Y0148854D03*
D362*
X0064740Y0149956D03*
X0071433Y0148854D03*
D363*
X0071433Y0148893D03*
X0064740Y0150153D03*
X0064740Y0150192D03*
X0058007Y0148893D03*
D364*
X0058007Y0148933D03*
X0064740Y0150389D03*
D365*
X0064720Y0150429D03*
X0064720Y0150468D03*
X0064720Y0150507D03*
X0064720Y0150547D03*
X0071452Y0148933D03*
D366*
X0071452Y0149011D03*
X0064720Y0150862D03*
X0064720Y0150901D03*
X0064720Y0150940D03*
X0064720Y0150980D03*
X0057988Y0149011D03*
D367*
X0064720Y0149051D03*
D368*
X0064740Y0149129D03*
D369*
X0064720Y0152122D03*
X0064720Y0152161D03*
X0064720Y0152200D03*
X0064720Y0152240D03*
X0057948Y0149208D03*
D370*
X0057929Y0149287D03*
X0064740Y0152712D03*
D371*
X0064720Y0152870D03*
X0057909Y0149366D03*
D372*
X0057889Y0149444D03*
X0071551Y0149444D03*
D373*
X0064720Y0149444D03*
D374*
X0064740Y0149484D03*
D375*
X0064720Y0149523D03*
D376*
X0064740Y0149563D03*
D377*
X0064720Y0149602D03*
D378*
X0057850Y0149641D03*
D379*
X0064720Y0149641D03*
D380*
X0064720Y0149681D03*
D381*
X0057830Y0149720D03*
D382*
X0057811Y0149799D03*
D383*
X0057791Y0149877D03*
X0071649Y0149877D03*
D384*
X0064720Y0149996D03*
X0064720Y0150035D03*
X0064720Y0150074D03*
X0064720Y0150114D03*
D385*
X0057712Y0150232D03*
D386*
X0064720Y0150232D03*
X0064720Y0150271D03*
X0064720Y0150311D03*
X0064720Y0150350D03*
D387*
X0057692Y0150311D03*
D388*
X0057673Y0150389D03*
X0071767Y0150389D03*
D389*
X0064740Y0150586D03*
D390*
X0064740Y0150822D03*
D391*
X0064720Y0151059D03*
X0064720Y0151098D03*
X0064720Y0151137D03*
X0064720Y0151177D03*
D392*
X0064720Y0151295D03*
X0064720Y0151334D03*
X0064720Y0151374D03*
X0064720Y0151413D03*
D393*
X0064740Y0151649D03*
D394*
X0064740Y0151846D03*
X0064740Y0151885D03*
D395*
X0064720Y0152318D03*
X0064720Y0152358D03*
X0064720Y0152397D03*
X0064720Y0152437D03*
X0064720Y0152476D03*
D396*
X0064740Y0152830D03*
D397*
X0044248Y0129248D02*
X0041748Y0129248D01*
X0041748Y0126748D01*
X0041748Y0129248D02*
X0046748Y0124248D01*
X0046748Y0119248D01*
X0046748Y0151748D02*
X0046763Y0152966D01*
X0046807Y0154182D01*
X0046881Y0155398D01*
X0046985Y0156611D01*
X0047118Y0157821D01*
X0047281Y0159028D01*
X0047473Y0160230D01*
X0047694Y0161428D01*
X0047944Y0162620D01*
X0048223Y0163805D01*
X0048531Y0164983D01*
X0048868Y0166153D01*
X0049233Y0167315D01*
X0049626Y0168467D01*
X0050047Y0169610D01*
X0050496Y0170741D01*
X0050972Y0171862D01*
X0051476Y0172971D01*
X0052006Y0174067D01*
X0052563Y0175150D01*
X0053146Y0176219D01*
X0053754Y0177273D01*
X0054389Y0178313D01*
X0055048Y0179336D01*
X0055732Y0180344D01*
X0056441Y0181334D01*
X0057173Y0182307D01*
X0057929Y0183261D01*
X0058708Y0184197D01*
X0059509Y0185114D01*
X0060333Y0186011D01*
X0061178Y0186887D01*
X0062044Y0187743D01*
X0062931Y0188578D01*
X0063838Y0189390D01*
X0064764Y0190180D01*
X0065710Y0190948D01*
X0066673Y0191692D01*
X0067655Y0192412D01*
X0068654Y0193109D01*
X0069669Y0193781D01*
X0070701Y0194428D01*
X0071748Y0195049D01*
X0072810Y0195645D01*
X0073886Y0196215D01*
X0074975Y0196759D01*
X0076078Y0197275D01*
X0077193Y0197765D01*
X0078319Y0198228D01*
X0079456Y0198663D01*
X0080604Y0199070D01*
X0081761Y0199449D01*
X0082927Y0199800D01*
X0084101Y0200122D01*
X0085283Y0200416D01*
X0086472Y0200681D01*
X0087666Y0200916D01*
X0088866Y0201123D01*
X0090071Y0201300D01*
X0091279Y0201448D01*
X0092491Y0201566D01*
X0093706Y0201655D01*
X0094922Y0201715D01*
X0096139Y0201744D01*
X0097357Y0201744D01*
X0098574Y0201715D01*
X0099790Y0201655D01*
X0101005Y0201566D01*
X0102217Y0201448D01*
X0103425Y0201300D01*
X0104630Y0201123D01*
X0105830Y0200916D01*
X0107024Y0200681D01*
X0108213Y0200416D01*
X0109395Y0200122D01*
X0110569Y0199800D01*
X0111735Y0199449D01*
X0112892Y0199070D01*
X0114040Y0198663D01*
X0115177Y0198228D01*
X0116303Y0197765D01*
X0117418Y0197275D01*
X0118521Y0196759D01*
X0119610Y0196215D01*
X0120686Y0195645D01*
X0121748Y0195049D01*
X0122795Y0194428D01*
X0123827Y0193781D01*
X0124842Y0193109D01*
X0125841Y0192412D01*
X0126823Y0191692D01*
X0127786Y0190948D01*
X0128732Y0190180D01*
X0129658Y0189390D01*
X0130565Y0188578D01*
X0131452Y0187743D01*
X0132318Y0186887D01*
X0133163Y0186011D01*
X0133987Y0185114D01*
X0134788Y0184197D01*
X0135567Y0183261D01*
X0136323Y0182307D01*
X0137055Y0181334D01*
X0137764Y0180344D01*
X0138448Y0179336D01*
X0139107Y0178313D01*
X0139742Y0177273D01*
X0140350Y0176219D01*
X0140933Y0175150D01*
X0141490Y0174067D01*
X0142020Y0172971D01*
X0142524Y0171862D01*
X0143000Y0170741D01*
X0143449Y0169610D01*
X0143870Y0168467D01*
X0144263Y0167315D01*
X0144628Y0166153D01*
X0144965Y0164983D01*
X0145273Y0163805D01*
X0145552Y0162620D01*
X0145802Y0161428D01*
X0146023Y0160230D01*
X0146215Y0159028D01*
X0146378Y0157821D01*
X0146511Y0156611D01*
X0146615Y0155398D01*
X0146689Y0154182D01*
X0146733Y0152966D01*
X0146748Y0151748D01*
X0121748Y0186748D02*
X0119248Y0189248D01*
X0111748Y0189248D01*
X0114248Y0191748D01*
X0111748Y0189248D02*
X0114248Y0186748D01*
X0081748Y0189248D02*
X0079248Y0191748D01*
X0081748Y0189248D02*
X0074248Y0189248D01*
X0071748Y0186748D01*
X0079248Y0186748D02*
X0081748Y0189248D01*
X0046748Y0151747D02*
X0045131Y0150503D01*
X0043544Y0149219D01*
X0041989Y0147897D01*
X0040467Y0146537D01*
X0038979Y0145141D01*
X0037526Y0143708D01*
X0036108Y0142240D01*
X0034726Y0140738D01*
X0033382Y0139203D01*
X0032076Y0137635D01*
X0030808Y0136035D01*
X0029580Y0134405D01*
X0028392Y0132745D01*
X0027246Y0131057D01*
X0026141Y0129341D01*
X0025078Y0127599D01*
X0024058Y0125831D01*
X0023082Y0124039D01*
X0022150Y0122223D01*
X0021263Y0120385D01*
X0020421Y0118526D01*
X0019625Y0116647D01*
X0018875Y0114749D01*
X0018172Y0112833D01*
X0017516Y0110900D01*
X0016907Y0108952D01*
X0016347Y0106990D01*
X0015834Y0105014D01*
X0015370Y0103027D01*
X0014955Y0101029D01*
X0014589Y0099021D01*
X0014272Y0097005D01*
X0014005Y0094982D01*
X0013788Y0092952D01*
X0013620Y0090918D01*
X0013502Y0088881D01*
X0013434Y0086841D01*
X0013415Y0084800D01*
X0013447Y0082760D01*
X0013529Y0080721D01*
X0013661Y0078684D01*
X0013842Y0076651D01*
X0014074Y0074624D01*
X0014355Y0072602D01*
X0014685Y0070588D01*
X0015064Y0068583D01*
X0015493Y0066587D01*
X0015970Y0064603D01*
X0016496Y0062631D01*
X0017070Y0060673D01*
X0017691Y0058729D01*
X0018360Y0056801D01*
X0019076Y0054890D01*
X0019839Y0052997D01*
X0020648Y0051123D01*
X0021502Y0049269D01*
X0022402Y0047437D01*
X0023346Y0045628D01*
X0024334Y0043842D01*
X0025366Y0042081D01*
X0026440Y0040346D01*
X0027557Y0038638D01*
X0028715Y0036958D01*
X0029914Y0035306D01*
X0031153Y0033684D01*
X0032431Y0032093D01*
X0033748Y0030534D01*
X0035103Y0029008D01*
X0036494Y0027515D01*
X0037922Y0026057D01*
X0039385Y0024634D01*
X0040882Y0023247D01*
X0042413Y0021898D01*
X0043977Y0020586D01*
X0045572Y0019313D01*
X0047198Y0018079D01*
X0048854Y0016886D01*
X0050538Y0015734D01*
X0052250Y0014623D01*
X0053989Y0013554D01*
X0055753Y0012529D01*
X0057542Y0011547D01*
X0059355Y0010609D01*
X0061190Y0009715D01*
X0063046Y0008867D01*
X0064923Y0008065D01*
X0066818Y0007308D01*
X0068732Y0006599D01*
X0070662Y0005936D01*
X0072608Y0005321D01*
X0074568Y0004754D01*
X0076542Y0004235D01*
X0078528Y0003764D01*
X0080525Y0003342D01*
X0082531Y0002970D01*
X0084547Y0002646D01*
X0086569Y0002372D01*
X0088597Y0002148D01*
X0090631Y0001973D01*
X0092668Y0001848D01*
X0094707Y0001773D01*
X0096748Y0001748D01*
X0098789Y0001773D01*
X0100828Y0001848D01*
X0102865Y0001973D01*
X0104899Y0002148D01*
X0106927Y0002372D01*
X0108949Y0002646D01*
X0110965Y0002970D01*
X0112971Y0003342D01*
X0114968Y0003764D01*
X0116954Y0004235D01*
X0118928Y0004754D01*
X0120888Y0005321D01*
X0122834Y0005936D01*
X0124764Y0006599D01*
X0126678Y0007308D01*
X0128573Y0008065D01*
X0130450Y0008867D01*
X0132306Y0009715D01*
X0134141Y0010609D01*
X0135954Y0011547D01*
X0137743Y0012529D01*
X0139507Y0013554D01*
X0141246Y0014623D01*
X0142958Y0015734D01*
X0144642Y0016886D01*
X0146298Y0018079D01*
X0147924Y0019313D01*
X0149519Y0020586D01*
X0151083Y0021898D01*
X0152614Y0023247D01*
X0154111Y0024634D01*
X0155574Y0026057D01*
X0157002Y0027515D01*
X0158393Y0029008D01*
X0159748Y0030534D01*
X0161065Y0032093D01*
X0162343Y0033684D01*
X0163582Y0035306D01*
X0164781Y0036958D01*
X0165939Y0038638D01*
X0167056Y0040346D01*
X0168130Y0042081D01*
X0169162Y0043842D01*
X0170150Y0045628D01*
X0171094Y0047437D01*
X0171994Y0049269D01*
X0172848Y0051123D01*
X0173657Y0052997D01*
X0174420Y0054890D01*
X0175136Y0056801D01*
X0175805Y0058729D01*
X0176426Y0060673D01*
X0177000Y0062631D01*
X0177526Y0064603D01*
X0178003Y0066587D01*
X0178432Y0068583D01*
X0178811Y0070588D01*
X0179141Y0072602D01*
X0179422Y0074624D01*
X0179654Y0076651D01*
X0179835Y0078684D01*
X0179967Y0080721D01*
X0180049Y0082760D01*
X0180081Y0084800D01*
X0180062Y0086841D01*
X0179994Y0088881D01*
X0179876Y0090918D01*
X0179708Y0092952D01*
X0179491Y0094982D01*
X0179224Y0097005D01*
X0178907Y0099021D01*
X0178541Y0101029D01*
X0178126Y0103027D01*
X0177662Y0105014D01*
X0177149Y0106990D01*
X0176589Y0108952D01*
X0175980Y0110900D01*
X0175324Y0112833D01*
X0174621Y0114749D01*
X0173871Y0116647D01*
X0173075Y0118526D01*
X0172233Y0120385D01*
X0171346Y0122223D01*
X0170414Y0124039D01*
X0169438Y0125831D01*
X0168418Y0127599D01*
X0167355Y0129341D01*
X0166250Y0131057D01*
X0165104Y0132745D01*
X0163916Y0134405D01*
X0162688Y0136035D01*
X0161420Y0137635D01*
X0160114Y0139203D01*
X0158770Y0140738D01*
X0157388Y0142240D01*
X0155970Y0143708D01*
X0154517Y0145141D01*
X0153029Y0146537D01*
X0151507Y0147897D01*
X0149952Y0149219D01*
X0148365Y0150503D01*
X0146748Y0151747D01*
X0121748Y0024248D02*
X0114248Y0016748D01*
X0116748Y0016748D01*
X0114248Y0016748D02*
X0114248Y0019248D01*
D398*
X0160921Y0069779D03*
X0153952Y0077692D03*
X0152181Y0078992D03*
X0151944Y0092456D03*
X0156196Y0098598D03*
X0151472Y0101905D03*
X0167771Y0092456D03*
X0168952Y0092456D03*
X0168598Y0095527D03*
D399*
X0168303Y0095881D03*
X0165350Y0098007D03*
X0168893Y0101314D03*
X0172437Y0098125D03*
X0170783Y0096590D03*
X0170311Y0093165D03*
X0164877Y0088559D03*
X0170547Y0082653D03*
X0168893Y0080055D03*
X0166885Y0078283D03*
X0161216Y0069897D03*
X0147870Y0076984D03*
X0144799Y0081472D03*
X0147751Y0094228D03*
D400*
X0147751Y0094110D03*
X0148106Y0095409D03*
X0148224Y0095527D03*
X0146098Y0096118D03*
X0145980Y0095881D03*
X0145980Y0095763D03*
X0151885Y0096472D03*
X0151295Y0099543D03*
X0151177Y0100015D03*
X0151177Y0100133D03*
X0151059Y0100488D03*
X0151059Y0100606D03*
X0151413Y0101669D03*
X0159917Y0094937D03*
X0151885Y0092692D03*
X0146098Y0081472D03*
X0146216Y0081236D03*
X0146334Y0081000D03*
X0146452Y0080763D03*
X0146570Y0080527D03*
X0146334Y0078519D03*
X0147870Y0076866D03*
X0154129Y0077338D03*
X0156019Y0076511D03*
X0159090Y0075921D03*
X0161452Y0070015D03*
X0166885Y0076157D03*
X0166767Y0076629D03*
X0166649Y0076984D03*
X0166649Y0077102D03*
X0168893Y0079937D03*
X0170665Y0082535D03*
X0170547Y0075094D03*
X0170311Y0093283D03*
X0168303Y0096000D03*
X0169011Y0099307D03*
X0169129Y0099661D03*
X0169129Y0099779D03*
X0169248Y0100133D03*
X0169248Y0100251D03*
X0168893Y0101196D03*
D401*
X0168775Y0098362D03*
X0168421Y0097181D03*
X0168421Y0097062D03*
X0168421Y0096944D03*
X0168303Y0096708D03*
X0168303Y0096590D03*
X0168303Y0096472D03*
X0170783Y0096354D03*
X0171019Y0096000D03*
X0171255Y0095645D03*
X0173145Y0096826D03*
X0173381Y0096472D03*
X0172909Y0097181D03*
X0172673Y0097535D03*
X0172437Y0097889D03*
X0170429Y0093401D03*
X0168657Y0091866D03*
X0163224Y0098716D03*
X0163460Y0099661D03*
X0163460Y0099779D03*
X0163460Y0099897D03*
X0163460Y0100015D03*
X0163578Y0100251D03*
X0163578Y0100370D03*
X0163578Y0100488D03*
X0163578Y0100606D03*
X0163814Y0101787D03*
X0163814Y0101905D03*
X0163933Y0102141D03*
X0163933Y0102259D03*
X0163933Y0102377D03*
X0163933Y0102496D03*
X0164051Y0102850D03*
X0161334Y0102850D03*
X0161334Y0102732D03*
X0161334Y0102614D03*
X0160744Y0100606D03*
X0160744Y0100488D03*
X0160744Y0100370D03*
X0160744Y0100251D03*
X0160862Y0100015D03*
X0159917Y0097889D03*
X0158500Y0099897D03*
X0158381Y0100251D03*
X0158381Y0100370D03*
X0158381Y0100488D03*
X0158381Y0100606D03*
X0158263Y0100842D03*
X0158263Y0100960D03*
X0158263Y0101078D03*
X0158263Y0101196D03*
X0158145Y0101551D03*
X0158145Y0101669D03*
X0158145Y0101787D03*
X0158145Y0101905D03*
X0158027Y0102259D03*
X0158027Y0102377D03*
X0158027Y0102496D03*
X0158027Y0102614D03*
X0157909Y0102850D03*
X0157909Y0102968D03*
X0157909Y0103086D03*
X0157909Y0103204D03*
X0157791Y0103559D03*
X0157791Y0103677D03*
X0157791Y0103795D03*
X0157791Y0103913D03*
X0151413Y0101551D03*
X0151767Y0097771D03*
X0151767Y0097535D03*
X0151767Y0097417D03*
X0151767Y0097299D03*
X0151885Y0096944D03*
X0151885Y0096826D03*
X0151885Y0096708D03*
X0150350Y0094937D03*
X0150232Y0094700D03*
X0149759Y0093992D03*
X0149641Y0093874D03*
X0151059Y0091866D03*
X0145980Y0095409D03*
X0147161Y0097771D03*
X0151059Y0083125D03*
X0151059Y0083007D03*
X0151295Y0082653D03*
X0154248Y0077220D03*
X0156019Y0076275D03*
X0156019Y0076157D03*
X0156019Y0076039D03*
X0156019Y0075921D03*
X0155901Y0075566D03*
X0155901Y0075448D03*
X0155901Y0075330D03*
X0155783Y0074976D03*
X0155783Y0074858D03*
X0155783Y0074740D03*
X0155665Y0074385D03*
X0155665Y0074267D03*
X0155665Y0074149D03*
X0155665Y0074031D03*
X0155547Y0073795D03*
X0155547Y0073677D03*
X0155547Y0073559D03*
X0155547Y0073440D03*
X0155547Y0073322D03*
X0155547Y0073204D03*
X0155547Y0073086D03*
X0155547Y0072968D03*
X0155547Y0072850D03*
X0155547Y0072732D03*
X0155665Y0072496D03*
X0158736Y0072968D03*
X0158736Y0073086D03*
X0158736Y0073204D03*
X0158854Y0073559D03*
X0158854Y0073677D03*
X0158854Y0073795D03*
X0158972Y0074149D03*
X0158972Y0074267D03*
X0158972Y0074385D03*
X0158972Y0074503D03*
X0159090Y0074740D03*
X0159090Y0074858D03*
X0159090Y0074976D03*
X0159090Y0075094D03*
X0159208Y0075330D03*
X0159208Y0075448D03*
X0159208Y0075566D03*
X0159208Y0075685D03*
X0158972Y0077220D03*
X0160744Y0077220D03*
X0160980Y0074740D03*
X0160862Y0074503D03*
X0160862Y0074385D03*
X0160862Y0074267D03*
X0160862Y0074149D03*
X0160862Y0074031D03*
X0160862Y0073677D03*
X0160862Y0073559D03*
X0160862Y0073440D03*
X0162161Y0071078D03*
X0162043Y0070842D03*
X0161925Y0070724D03*
X0161925Y0070606D03*
X0161807Y0070488D03*
X0161688Y0070251D03*
X0161570Y0070133D03*
X0164759Y0072850D03*
X0164877Y0072968D03*
X0164877Y0073086D03*
X0164877Y0073204D03*
X0164996Y0073440D03*
X0164996Y0073559D03*
X0164996Y0073677D03*
X0164996Y0073795D03*
X0164996Y0073913D03*
X0164877Y0074385D03*
X0167122Y0075330D03*
X0167476Y0074149D03*
X0167476Y0074031D03*
X0167594Y0073795D03*
X0167594Y0073677D03*
X0167594Y0073559D03*
X0167712Y0073440D03*
X0167712Y0073322D03*
X0170547Y0075212D03*
X0169484Y0079110D03*
X0168893Y0079818D03*
X0168421Y0082653D03*
X0168657Y0083007D03*
X0168657Y0083125D03*
X0173736Y0079346D03*
X0173618Y0079110D03*
X0173500Y0078874D03*
X0146334Y0078637D03*
D402*
X0146393Y0078755D03*
X0147929Y0076629D03*
X0148047Y0076511D03*
X0148165Y0076393D03*
X0148283Y0076275D03*
X0148401Y0076157D03*
X0149464Y0075094D03*
X0152299Y0073559D03*
X0152417Y0073795D03*
X0152653Y0074149D03*
X0152771Y0074385D03*
X0152889Y0074622D03*
X0153007Y0074858D03*
X0153126Y0075094D03*
X0153244Y0075330D03*
X0153480Y0075685D03*
X0153598Y0075921D03*
X0153716Y0076157D03*
X0153834Y0076393D03*
X0153952Y0076629D03*
X0154070Y0076866D03*
X0156078Y0076393D03*
X0155960Y0075803D03*
X0155960Y0075685D03*
X0155842Y0075212D03*
X0155842Y0075094D03*
X0155724Y0074622D03*
X0155724Y0074503D03*
X0155606Y0073913D03*
X0155606Y0072614D03*
X0155724Y0072377D03*
X0158559Y0072496D03*
X0158559Y0072614D03*
X0158677Y0072732D03*
X0158677Y0072850D03*
X0158795Y0073322D03*
X0158795Y0073440D03*
X0158913Y0073913D03*
X0158913Y0074031D03*
X0159031Y0074622D03*
X0159149Y0075212D03*
X0159267Y0075803D03*
X0161039Y0074976D03*
X0161039Y0074858D03*
X0161157Y0075094D03*
X0160921Y0074622D03*
X0160803Y0073913D03*
X0160803Y0073795D03*
X0160921Y0073322D03*
X0160921Y0073204D03*
X0160921Y0073086D03*
X0161039Y0072968D03*
X0161039Y0072850D03*
X0161157Y0072732D03*
X0162102Y0070960D03*
X0161748Y0070370D03*
X0164700Y0072732D03*
X0164937Y0073322D03*
X0164937Y0074031D03*
X0164937Y0074149D03*
X0164937Y0074267D03*
X0164818Y0074503D03*
X0164818Y0074622D03*
X0164700Y0074858D03*
X0167417Y0074385D03*
X0168480Y0075212D03*
X0170724Y0082417D03*
X0168716Y0083244D03*
X0168716Y0083362D03*
X0168716Y0083480D03*
X0168716Y0091629D03*
X0168716Y0091748D03*
X0167771Y0092811D03*
X0168480Y0097417D03*
X0173559Y0096118D03*
X0163519Y0100133D03*
X0163637Y0100724D03*
X0163637Y0100842D03*
X0163874Y0102023D03*
X0163992Y0102614D03*
X0163992Y0102732D03*
X0161393Y0102968D03*
X0160921Y0100960D03*
X0160803Y0100842D03*
X0160803Y0100724D03*
X0160803Y0100133D03*
X0158440Y0100133D03*
X0158440Y0100015D03*
X0158322Y0100724D03*
X0158204Y0101314D03*
X0158204Y0101433D03*
X0158086Y0102023D03*
X0158086Y0102141D03*
X0157968Y0102732D03*
X0157850Y0103322D03*
X0157850Y0103440D03*
X0147220Y0097653D03*
X0146039Y0095291D03*
X0147929Y0093874D03*
X0151000Y0091748D03*
X0151000Y0091629D03*
X0154779Y0088559D03*
X0151000Y0083362D03*
X0151000Y0083244D03*
X0149228Y0081826D03*
X0149110Y0081708D03*
X0148992Y0081590D03*
X0148874Y0081472D03*
X0148755Y0081354D03*
X0148637Y0081236D03*
X0148519Y0081118D03*
X0148401Y0081000D03*
X0148283Y0080881D03*
X0152181Y0078401D03*
X0152181Y0073322D03*
D403*
X0155842Y0072259D03*
X0161275Y0072496D03*
X0161393Y0072377D03*
X0162338Y0071196D03*
X0161393Y0075330D03*
X0164346Y0075330D03*
X0164464Y0075212D03*
X0167535Y0074622D03*
X0168834Y0083834D03*
X0168834Y0083952D03*
X0168834Y0084070D03*
X0164818Y0088440D03*
X0168834Y0090921D03*
X0168834Y0091039D03*
X0168834Y0091157D03*
X0173440Y0096000D03*
X0161157Y0099779D03*
X0153007Y0098716D03*
X0150291Y0095173D03*
X0148519Y0092929D03*
X0150881Y0091157D03*
X0150881Y0091039D03*
X0150881Y0084070D03*
X0150881Y0083952D03*
X0150881Y0083834D03*
X0147220Y0079818D03*
X0146984Y0079464D03*
X0146866Y0079346D03*
X0146748Y0079228D03*
X0146629Y0079110D03*
X0146511Y0078992D03*
X0151354Y0077338D03*
X0152181Y0078283D03*
D404*
X0154129Y0076984D03*
X0154248Y0077102D03*
X0154011Y0076748D03*
X0153893Y0076511D03*
X0153775Y0076275D03*
X0153657Y0076039D03*
X0153539Y0075803D03*
X0153421Y0075566D03*
X0153303Y0075448D03*
X0153185Y0075212D03*
X0153066Y0074976D03*
X0152948Y0074740D03*
X0152830Y0074503D03*
X0152712Y0074267D03*
X0152594Y0074031D03*
X0152476Y0073913D03*
X0152358Y0073677D03*
X0152240Y0073440D03*
X0152122Y0073204D03*
X0149405Y0075212D03*
X0146452Y0078874D03*
X0147043Y0079582D03*
X0147161Y0079700D03*
X0147988Y0080527D03*
X0148106Y0080645D03*
X0148224Y0080763D03*
X0151413Y0082535D03*
X0151531Y0082417D03*
X0150940Y0083480D03*
X0150940Y0083598D03*
X0150940Y0083716D03*
X0150940Y0091275D03*
X0150940Y0091393D03*
X0150940Y0091511D03*
X0151885Y0092811D03*
X0150350Y0095055D03*
X0151767Y0097889D03*
X0154956Y0098480D03*
X0156846Y0098834D03*
X0160980Y0099897D03*
X0161925Y0101787D03*
X0162279Y0103913D03*
X0163933Y0102968D03*
X0165350Y0098244D03*
X0167240Y0098362D03*
X0167358Y0098244D03*
X0168421Y0097535D03*
X0170429Y0093519D03*
X0168775Y0091511D03*
X0168775Y0091393D03*
X0168775Y0091275D03*
X0168775Y0083716D03*
X0168775Y0083598D03*
X0168303Y0082535D03*
X0168185Y0082417D03*
X0168893Y0079700D03*
X0169011Y0079582D03*
X0169129Y0079464D03*
X0169248Y0079346D03*
X0169366Y0079228D03*
X0167003Y0078047D03*
X0168775Y0075448D03*
X0168657Y0075330D03*
X0167476Y0074503D03*
X0164759Y0074740D03*
X0164641Y0074976D03*
X0164523Y0075094D03*
X0162988Y0076393D03*
X0161334Y0075212D03*
X0161216Y0072614D03*
X0164405Y0072377D03*
X0164523Y0072496D03*
X0164641Y0072614D03*
X0158500Y0072377D03*
X0158381Y0072259D03*
X0157200Y0071196D03*
X0173972Y0080055D03*
X0168893Y0101078D03*
X0146098Y0095173D03*
D405*
X0150173Y0095409D03*
X0152181Y0093165D03*
X0150645Y0089622D03*
X0150645Y0089503D03*
X0150645Y0089385D03*
X0150645Y0089267D03*
X0150645Y0089149D03*
X0150645Y0089031D03*
X0150645Y0085842D03*
X0150645Y0085724D03*
X0150645Y0085606D03*
X0150645Y0085488D03*
X0150645Y0085370D03*
X0152063Y0081944D03*
X0147338Y0080173D03*
X0157141Y0071314D03*
X0162692Y0071314D03*
X0167653Y0074858D03*
X0169425Y0076275D03*
X0169779Y0076039D03*
X0173795Y0080291D03*
X0167653Y0081944D03*
X0169070Y0085488D03*
X0169070Y0085606D03*
X0169070Y0085724D03*
X0169070Y0085842D03*
X0169070Y0085960D03*
X0169070Y0086078D03*
X0169070Y0089031D03*
X0169070Y0089149D03*
X0169070Y0089267D03*
X0169070Y0089385D03*
X0169070Y0089503D03*
X0167535Y0093165D03*
X0168834Y0100842D03*
X0159976Y0090094D03*
X0152063Y0098244D03*
X0151472Y0101196D03*
D406*
X0151649Y0100960D03*
X0151767Y0100842D03*
X0147397Y0097181D03*
X0146925Y0094464D03*
X0148578Y0093283D03*
X0152594Y0093519D03*
X0150704Y0088795D03*
X0154838Y0088322D03*
X0152476Y0081590D03*
X0148224Y0082771D03*
X0147397Y0080409D03*
X0149405Y0075685D03*
X0158381Y0077456D03*
X0161334Y0077456D03*
X0162870Y0071433D03*
X0167830Y0075094D03*
X0167122Y0093519D03*
X0167003Y0093637D03*
X0168066Y0098125D03*
X0166059Y0098834D03*
X0162751Y0098952D03*
X0157909Y0099661D03*
X0168657Y0100606D03*
X0172318Y0095055D03*
D407*
X0168598Y0100488D03*
X0162456Y0103795D03*
X0154070Y0099070D03*
X0152181Y0098480D03*
X0152771Y0093637D03*
X0148637Y0093401D03*
X0146866Y0094582D03*
X0152653Y0081472D03*
X0157141Y0071433D03*
X0167181Y0077574D03*
X0167299Y0077456D03*
X0167063Y0081472D03*
X0167181Y0081590D03*
X0171078Y0081944D03*
X0171433Y0081708D03*
X0171669Y0081590D03*
X0171905Y0081472D03*
X0173440Y0080645D03*
X0173677Y0080527D03*
X0159976Y0094818D03*
D408*
X0157437Y0099070D03*
X0154129Y0098952D03*
X0153185Y0093992D03*
X0149287Y0095763D03*
X0148696Y0093755D03*
X0148696Y0093637D03*
X0147515Y0096944D03*
X0150940Y0088559D03*
X0153066Y0081118D03*
X0158145Y0077574D03*
X0157200Y0071551D03*
X0162870Y0071551D03*
X0167476Y0077220D03*
X0169838Y0075685D03*
X0164759Y0088086D03*
X0149405Y0075921D03*
D409*
X0156433Y0082417D03*
X0151118Y0088322D03*
X0153598Y0094346D03*
X0154070Y0098834D03*
X0157614Y0099188D03*
X0157614Y0099307D03*
X0157614Y0099425D03*
X0162338Y0099307D03*
X0162811Y0101669D03*
X0162692Y0103677D03*
X0164700Y0087968D03*
X0163874Y0081944D03*
X0163874Y0081826D03*
X0163874Y0081708D03*
X0163874Y0081590D03*
X0163874Y0081472D03*
X0169897Y0075566D03*
X0162811Y0071669D03*
X0157141Y0071669D03*
X0147574Y0096826D03*
D410*
X0154248Y0094818D03*
X0162279Y0099543D03*
X0164641Y0087732D03*
X0163696Y0082181D03*
X0154129Y0080291D03*
X0145980Y0081826D03*
X0157082Y0071905D03*
X0162870Y0071787D03*
D411*
X0162929Y0075921D03*
X0161866Y0077811D03*
X0157850Y0077811D03*
X0153952Y0080409D03*
X0153834Y0080527D03*
X0156314Y0082535D03*
X0151236Y0088204D03*
X0153952Y0094582D03*
X0154070Y0094700D03*
X0159858Y0097771D03*
X0162338Y0099425D03*
X0163755Y0082063D03*
X0157141Y0071787D03*
D412*
X0162870Y0071905D03*
X0162043Y0077929D03*
X0157673Y0077929D03*
X0154602Y0079937D03*
X0154484Y0080055D03*
X0147633Y0082653D03*
X0154720Y0095173D03*
X0162515Y0101433D03*
X0162870Y0103559D03*
X0164641Y0087614D03*
X0163578Y0082417D03*
X0163578Y0082299D03*
D413*
X0163460Y0082653D03*
X0163460Y0082771D03*
X0164523Y0087377D03*
X0162161Y0078047D03*
X0157555Y0078047D03*
X0155311Y0079464D03*
X0154956Y0079700D03*
X0156255Y0082889D03*
X0162870Y0072023D03*
X0155074Y0095409D03*
X0155429Y0095645D03*
X0162279Y0101078D03*
X0162397Y0101314D03*
X0162751Y0103204D03*
X0164287Y0095645D03*
D414*
X0162574Y0101551D03*
X0154543Y0095055D03*
X0154425Y0094937D03*
X0159976Y0090330D03*
X0156314Y0082653D03*
X0154307Y0080173D03*
X0151354Y0088086D03*
X0162929Y0075803D03*
X0157141Y0072023D03*
D415*
X0162870Y0072141D03*
X0162515Y0078283D03*
X0163106Y0078637D03*
X0163342Y0078755D03*
X0163460Y0078874D03*
X0163696Y0078992D03*
X0164051Y0079228D03*
X0164405Y0079582D03*
X0163342Y0083125D03*
X0164523Y0087259D03*
X0160035Y0090448D03*
X0163342Y0096236D03*
X0163224Y0096354D03*
X0162988Y0096472D03*
X0162751Y0096590D03*
X0162515Y0096708D03*
X0163578Y0096118D03*
X0164523Y0095409D03*
X0157318Y0096826D03*
X0157200Y0096708D03*
X0156964Y0096590D03*
X0156728Y0096472D03*
X0156492Y0096354D03*
X0156374Y0096236D03*
X0156137Y0096118D03*
X0156019Y0078992D03*
X0156374Y0078755D03*
X0156610Y0078637D03*
X0156964Y0078401D03*
X0157200Y0078283D03*
X0157437Y0078165D03*
D416*
X0156551Y0081944D03*
X0151944Y0082063D03*
X0151826Y0082181D03*
X0150763Y0084543D03*
X0150763Y0084661D03*
X0150763Y0084779D03*
X0154779Y0088440D03*
X0150763Y0090212D03*
X0150763Y0090330D03*
X0150763Y0090448D03*
X0150763Y0090566D03*
X0151944Y0092929D03*
X0151944Y0098125D03*
X0153362Y0099897D03*
X0153244Y0100015D03*
X0153716Y0099661D03*
X0153834Y0099543D03*
X0153952Y0099425D03*
X0154897Y0098716D03*
X0166826Y0099543D03*
X0167181Y0099779D03*
X0167535Y0100015D03*
X0167653Y0100133D03*
X0168244Y0097771D03*
X0170488Y0093637D03*
X0173440Y0095881D03*
X0168952Y0090448D03*
X0168952Y0090330D03*
X0168952Y0090212D03*
X0168952Y0084779D03*
X0168952Y0084661D03*
X0168952Y0084543D03*
X0167889Y0082181D03*
X0166944Y0077929D03*
X0168244Y0077102D03*
X0168362Y0076984D03*
X0168716Y0076748D03*
X0169070Y0076511D03*
X0167653Y0074740D03*
X0164110Y0075448D03*
X0164228Y0072259D03*
X0158204Y0072141D03*
X0156078Y0072141D03*
D417*
X0151177Y0077102D03*
X0151295Y0077220D03*
X0151413Y0077456D03*
X0151531Y0077574D03*
X0151649Y0077692D03*
X0151767Y0077811D03*
X0151885Y0077929D03*
X0152003Y0078047D03*
X0152122Y0078165D03*
X0151059Y0076984D03*
X0150940Y0076866D03*
X0150822Y0076748D03*
X0150704Y0076629D03*
X0150586Y0076511D03*
X0150468Y0076393D03*
X0150350Y0076275D03*
X0150232Y0076157D03*
X0149405Y0075330D03*
X0147279Y0079937D03*
X0151649Y0082299D03*
X0150822Y0084188D03*
X0150822Y0084307D03*
X0150822Y0084425D03*
X0150822Y0090685D03*
X0150822Y0090803D03*
X0150822Y0090921D03*
X0147279Y0097535D03*
X0151885Y0098007D03*
X0153539Y0099779D03*
X0153066Y0100133D03*
X0152948Y0100251D03*
X0152830Y0100370D03*
X0152594Y0100488D03*
X0152476Y0100606D03*
X0151413Y0101433D03*
X0154956Y0098598D03*
X0158263Y0099779D03*
X0163460Y0100960D03*
X0165350Y0098362D03*
X0168303Y0097653D03*
X0167830Y0100251D03*
X0168893Y0100960D03*
X0167712Y0092929D03*
X0168893Y0090803D03*
X0168893Y0090685D03*
X0168893Y0090566D03*
X0168893Y0084425D03*
X0168893Y0084307D03*
X0168893Y0084188D03*
X0168066Y0082299D03*
X0170783Y0082299D03*
X0173854Y0080173D03*
X0170547Y0075330D03*
X0161570Y0072259D03*
D418*
X0167417Y0072614D03*
X0166944Y0078401D03*
X0168834Y0080173D03*
X0170488Y0082771D03*
X0168834Y0092338D03*
X0168480Y0095645D03*
X0165291Y0097889D03*
X0168952Y0101433D03*
X0158086Y0104149D03*
X0154897Y0098125D03*
X0146984Y0098125D03*
X0152181Y0078874D03*
X0155724Y0076629D03*
X0149464Y0074622D03*
X0146275Y0078047D03*
D419*
X0147870Y0077102D03*
X0152358Y0072850D03*
X0154011Y0077574D03*
X0167476Y0072732D03*
X0170547Y0074976D03*
X0169720Y0078755D03*
X0167712Y0092574D03*
X0170192Y0093047D03*
X0168421Y0095763D03*
X0163578Y0098598D03*
X0151649Y0096118D03*
X0151885Y0092574D03*
X0146570Y0094110D03*
D420*
X0150822Y0092338D03*
X0151531Y0096000D03*
X0146216Y0077929D03*
X0147870Y0077220D03*
X0152476Y0072732D03*
X0158854Y0076039D03*
X0168775Y0080291D03*
X0170429Y0082889D03*
X0173381Y0077929D03*
X0170192Y0092929D03*
X0170901Y0096826D03*
X0172555Y0098362D03*
D421*
X0172496Y0098244D03*
X0170842Y0096708D03*
X0168834Y0092220D03*
X0173322Y0078047D03*
X0167535Y0072850D03*
X0154070Y0077456D03*
X0152181Y0078755D03*
X0149464Y0074740D03*
X0146275Y0078165D03*
X0146275Y0078283D03*
X0150881Y0092220D03*
X0151708Y0096236D03*
X0154897Y0098244D03*
X0151472Y0101787D03*
X0147102Y0098007D03*
D422*
X0147102Y0097889D03*
X0151826Y0096354D03*
X0151000Y0092102D03*
X0156551Y0098716D03*
X0167771Y0092692D03*
X0168716Y0092102D03*
X0169661Y0078874D03*
X0173204Y0078165D03*
X0167653Y0072968D03*
X0152299Y0072968D03*
X0149464Y0074858D03*
X0152181Y0078637D03*
X0146275Y0078401D03*
X0146511Y0080645D03*
X0146393Y0080881D03*
X0146275Y0081118D03*
X0146157Y0081354D03*
D423*
X0148874Y0082889D03*
X0151118Y0082889D03*
X0151118Y0082771D03*
X0152181Y0078519D03*
X0149464Y0074976D03*
X0147929Y0076748D03*
X0152181Y0073086D03*
X0156551Y0081826D03*
X0151000Y0091984D03*
X0149818Y0094110D03*
X0149937Y0094228D03*
X0150055Y0094346D03*
X0150055Y0094464D03*
X0150173Y0094582D03*
X0150291Y0094818D03*
X0148047Y0095291D03*
X0147929Y0095173D03*
X0147811Y0093992D03*
X0146629Y0094228D03*
X0145921Y0095527D03*
X0145921Y0095645D03*
X0146039Y0096000D03*
X0146157Y0096236D03*
X0146275Y0096354D03*
X0146275Y0096472D03*
X0146393Y0096590D03*
X0146511Y0096708D03*
X0148519Y0092811D03*
X0151944Y0096590D03*
X0151826Y0097062D03*
X0151826Y0097181D03*
X0151708Y0097653D03*
X0151472Y0098716D03*
X0151472Y0098834D03*
X0151472Y0098952D03*
X0151354Y0099070D03*
X0151354Y0099188D03*
X0151354Y0099307D03*
X0151354Y0099425D03*
X0151236Y0099661D03*
X0151236Y0099779D03*
X0151236Y0099897D03*
X0151118Y0100251D03*
X0151118Y0100370D03*
X0154897Y0098362D03*
X0157850Y0104031D03*
X0161275Y0102496D03*
X0161275Y0102377D03*
X0161275Y0102259D03*
X0161393Y0102141D03*
X0161511Y0102023D03*
X0161629Y0101905D03*
X0165291Y0098125D03*
X0168244Y0096354D03*
X0168244Y0096236D03*
X0168244Y0096118D03*
X0168362Y0096826D03*
X0168480Y0097299D03*
X0168716Y0098244D03*
X0168834Y0098480D03*
X0168834Y0098598D03*
X0168834Y0098716D03*
X0168834Y0098834D03*
X0168952Y0098952D03*
X0168952Y0099070D03*
X0168952Y0099188D03*
X0169070Y0099425D03*
X0169070Y0099543D03*
X0169188Y0099897D03*
X0169188Y0100015D03*
X0172377Y0098007D03*
X0172496Y0097771D03*
X0172614Y0097653D03*
X0172732Y0097417D03*
X0172850Y0097299D03*
X0172968Y0097062D03*
X0173086Y0096944D03*
X0173204Y0096708D03*
X0173322Y0096590D03*
X0173440Y0096354D03*
X0173559Y0096236D03*
X0171314Y0095527D03*
X0171196Y0095763D03*
X0171078Y0095881D03*
X0170960Y0096118D03*
X0170842Y0096236D03*
X0170724Y0096472D03*
X0168716Y0091984D03*
X0168598Y0082889D03*
X0168598Y0082771D03*
X0169543Y0078992D03*
X0166944Y0078165D03*
X0166708Y0076866D03*
X0166708Y0076748D03*
X0166826Y0076511D03*
X0166826Y0076393D03*
X0166826Y0076275D03*
X0166944Y0076039D03*
X0166944Y0075921D03*
X0166944Y0075803D03*
X0167063Y0075685D03*
X0167063Y0075566D03*
X0167063Y0075448D03*
X0167181Y0075212D03*
X0167417Y0074267D03*
X0167535Y0073913D03*
X0167653Y0073204D03*
X0167653Y0073086D03*
X0173204Y0078283D03*
X0173204Y0078401D03*
X0173322Y0078519D03*
X0173322Y0078637D03*
X0173440Y0078755D03*
X0173559Y0078992D03*
X0173677Y0079228D03*
X0173795Y0079464D03*
X0173913Y0079582D03*
X0173913Y0079700D03*
X0174031Y0079818D03*
X0174031Y0079937D03*
D424*
X0170960Y0082063D03*
X0167299Y0081708D03*
X0167063Y0077692D03*
X0167771Y0074976D03*
X0156433Y0082063D03*
X0152417Y0081708D03*
X0147338Y0080291D03*
X0152299Y0093283D03*
X0152417Y0093401D03*
X0150055Y0095527D03*
X0149228Y0096000D03*
X0149110Y0096118D03*
X0148755Y0096354D03*
X0148401Y0096590D03*
X0146984Y0094346D03*
X0152181Y0098362D03*
X0151590Y0101078D03*
X0161511Y0099661D03*
X0168126Y0098007D03*
X0170960Y0094110D03*
X0171314Y0094346D03*
X0171669Y0094582D03*
X0172023Y0094818D03*
X0173086Y0095527D03*
X0170606Y0093874D03*
X0167299Y0093401D03*
D425*
X0167712Y0093047D03*
X0169011Y0090094D03*
X0169011Y0089976D03*
X0169011Y0089858D03*
X0169011Y0089740D03*
X0169011Y0089622D03*
X0169011Y0085370D03*
X0169011Y0085251D03*
X0169011Y0085133D03*
X0169011Y0085015D03*
X0169011Y0084897D03*
X0167712Y0082063D03*
X0170901Y0082181D03*
X0168539Y0076866D03*
X0168893Y0076629D03*
X0169248Y0076393D03*
X0169602Y0076157D03*
X0170547Y0075448D03*
X0161688Y0075448D03*
X0161098Y0077338D03*
X0158618Y0077338D03*
X0149405Y0075448D03*
X0147279Y0080055D03*
X0150704Y0084897D03*
X0150704Y0085015D03*
X0150704Y0085133D03*
X0150704Y0085251D03*
X0150704Y0089740D03*
X0150704Y0089858D03*
X0150704Y0089976D03*
X0150704Y0090094D03*
X0152003Y0093047D03*
X0150232Y0095291D03*
X0148578Y0093047D03*
X0147279Y0097417D03*
X0151413Y0101314D03*
X0154129Y0099307D03*
X0162988Y0098834D03*
X0166177Y0099070D03*
X0166295Y0099188D03*
X0166531Y0099307D03*
X0166649Y0099425D03*
X0167003Y0099661D03*
X0167358Y0099897D03*
X0170547Y0093755D03*
D426*
X0164110Y0095763D03*
X0163992Y0095881D03*
X0163755Y0096000D03*
X0162338Y0096826D03*
X0162102Y0096944D03*
X0157614Y0096944D03*
X0155960Y0096000D03*
X0155724Y0095881D03*
X0155606Y0095763D03*
X0156196Y0083007D03*
X0155488Y0079346D03*
X0155606Y0079228D03*
X0155842Y0079110D03*
X0162338Y0078165D03*
X0163874Y0079110D03*
X0164228Y0079346D03*
X0164346Y0079464D03*
X0163401Y0082889D03*
X0163401Y0083007D03*
X0162929Y0075566D03*
D427*
X0162988Y0076275D03*
X0167003Y0077811D03*
X0169838Y0075921D03*
X0173736Y0080409D03*
X0167476Y0081826D03*
X0169129Y0086196D03*
X0169129Y0086314D03*
X0169129Y0086433D03*
X0169129Y0086551D03*
X0169129Y0086669D03*
X0169129Y0086787D03*
X0169129Y0086905D03*
X0169129Y0087023D03*
X0169129Y0087141D03*
X0169129Y0087259D03*
X0169129Y0087377D03*
X0169129Y0087496D03*
X0169129Y0087614D03*
X0169129Y0087732D03*
X0169129Y0087850D03*
X0169129Y0087968D03*
X0169129Y0088086D03*
X0169129Y0088204D03*
X0169129Y0088322D03*
X0169129Y0088440D03*
X0169129Y0088559D03*
X0169129Y0088677D03*
X0169129Y0088795D03*
X0169129Y0088913D03*
X0164759Y0088322D03*
X0167476Y0093283D03*
X0170783Y0093992D03*
X0171137Y0094228D03*
X0171492Y0094464D03*
X0171846Y0094700D03*
X0172200Y0094937D03*
X0173263Y0095645D03*
X0173381Y0095763D03*
X0168775Y0100724D03*
X0168185Y0097889D03*
X0166059Y0098952D03*
X0157200Y0098952D03*
X0154129Y0099188D03*
X0148933Y0096236D03*
X0148578Y0096472D03*
X0148224Y0096708D03*
X0147397Y0097299D03*
X0148578Y0093165D03*
X0150586Y0088913D03*
X0152240Y0081826D03*
X0145389Y0081590D03*
X0149405Y0075566D03*
D428*
X0154779Y0079818D03*
X0155133Y0079582D03*
X0156314Y0082771D03*
X0163519Y0082535D03*
X0164582Y0087496D03*
X0164464Y0095527D03*
X0162338Y0101196D03*
X0162692Y0103086D03*
X0162811Y0103322D03*
X0162811Y0103440D03*
X0155251Y0095527D03*
X0154897Y0095291D03*
X0162929Y0075685D03*
D429*
X0169838Y0075803D03*
X0172555Y0081118D03*
X0172791Y0081000D03*
X0173027Y0080881D03*
X0173263Y0080763D03*
X0172318Y0081236D03*
X0172082Y0081354D03*
X0171255Y0081826D03*
X0164759Y0088204D03*
X0166885Y0093755D03*
X0172318Y0095173D03*
X0154838Y0088204D03*
X0150822Y0088677D03*
X0152830Y0081354D03*
X0156492Y0082181D03*
X0149405Y0075803D03*
X0149287Y0095881D03*
X0147515Y0097062D03*
X0151885Y0100724D03*
D430*
X0157614Y0099543D03*
X0162456Y0099188D03*
X0159976Y0090212D03*
X0154897Y0088086D03*
X0156433Y0082299D03*
X0153244Y0081000D03*
X0162929Y0076039D03*
X0153362Y0094110D03*
X0146866Y0094937D03*
X0146866Y0095055D03*
X0172377Y0095291D03*
D431*
X0172437Y0095409D03*
X0166059Y0098598D03*
X0153421Y0094228D03*
X0149405Y0095645D03*
X0151059Y0088440D03*
X0153421Y0080881D03*
X0153539Y0080763D03*
X0158027Y0077692D03*
X0161688Y0077692D03*
X0149405Y0076039D03*
D432*
X0152889Y0081236D03*
X0145566Y0081708D03*
X0148637Y0093519D03*
X0146866Y0094700D03*
X0146866Y0094818D03*
X0152299Y0098598D03*
X0153007Y0093874D03*
X0152889Y0093755D03*
X0162574Y0099070D03*
X0166000Y0098716D03*
X0168480Y0100370D03*
X0166708Y0093874D03*
X0167417Y0077338D03*
X0162929Y0076157D03*
X0161511Y0077574D03*
D433*
X0162692Y0078401D03*
X0162929Y0078519D03*
X0164464Y0079700D03*
X0163401Y0083244D03*
X0164464Y0087141D03*
X0156196Y0083244D03*
X0156196Y0083125D03*
X0156196Y0078874D03*
X0156787Y0078519D03*
D434*
X0156078Y0083480D03*
X0163519Y0083480D03*
X0164582Y0079818D03*
X0164464Y0095291D03*
X0159858Y0097653D03*
D435*
X0160035Y0090566D03*
X0164405Y0086905D03*
X0164405Y0086787D03*
X0163460Y0083598D03*
X0164641Y0079937D03*
X0156019Y0083598D03*
D436*
X0156078Y0083716D03*
X0163519Y0083716D03*
X0164346Y0086669D03*
X0164700Y0080055D03*
X0164464Y0095173D03*
D437*
X0164287Y0086551D03*
X0164287Y0086433D03*
X0163578Y0083952D03*
X0163578Y0083834D03*
X0164759Y0080173D03*
X0156019Y0083834D03*
X0156019Y0083952D03*
D438*
X0155960Y0084070D03*
X0155960Y0084188D03*
X0155842Y0084543D03*
X0160094Y0090685D03*
X0164228Y0086314D03*
X0164228Y0086196D03*
X0163637Y0084188D03*
X0163637Y0084070D03*
X0164818Y0080291D03*
X0146984Y0082535D03*
D439*
X0155783Y0084661D03*
X0155783Y0084779D03*
X0155783Y0084897D03*
X0155665Y0085133D03*
X0155901Y0084425D03*
X0155901Y0084307D03*
X0163696Y0084307D03*
X0163696Y0084425D03*
X0164051Y0085606D03*
X0164169Y0085960D03*
X0164169Y0086078D03*
X0164877Y0080409D03*
X0164405Y0095055D03*
D440*
X0164110Y0085842D03*
X0164110Y0085724D03*
X0163992Y0085488D03*
X0163992Y0085370D03*
X0163992Y0085251D03*
X0163874Y0085015D03*
X0163874Y0084897D03*
X0163874Y0084779D03*
X0163755Y0084661D03*
X0163755Y0084543D03*
X0164937Y0080645D03*
X0164937Y0080527D03*
X0155724Y0085015D03*
D441*
X0153657Y0080645D03*
X0164641Y0087850D03*
X0166059Y0098480D03*
X0153775Y0094464D03*
D442*
X0160035Y0090803D03*
X0164405Y0094937D03*
X0163933Y0085133D03*
X0164996Y0080763D03*
X0155547Y0085251D03*
D443*
X0165055Y0080881D03*
X0159858Y0097535D03*
D444*
X0155429Y0085370D03*
X0146925Y0082063D03*
X0146807Y0082299D03*
X0165114Y0081000D03*
D445*
X0165173Y0081118D03*
X0155370Y0085488D03*
X0160094Y0090921D03*
X0164346Y0094818D03*
X0146748Y0082417D03*
X0146866Y0082181D03*
X0146984Y0081944D03*
D446*
X0155192Y0085606D03*
X0165232Y0081354D03*
X0165232Y0081236D03*
D447*
X0163460Y0083362D03*
X0164405Y0087023D03*
X0156137Y0083362D03*
D448*
X0155074Y0085724D03*
D449*
X0154897Y0085842D03*
X0160094Y0091157D03*
X0159858Y0097417D03*
D450*
X0153716Y0086314D03*
X0153716Y0086196D03*
X0153834Y0085960D03*
D451*
X0153775Y0086078D03*
D452*
X0153657Y0086433D03*
D453*
X0153598Y0086551D03*
X0153598Y0086669D03*
X0160921Y0093755D03*
X0161039Y0093874D03*
X0159858Y0097062D03*
D454*
X0153539Y0086905D03*
X0153539Y0086787D03*
D455*
X0153480Y0087023D03*
X0160803Y0093637D03*
D456*
X0160626Y0093519D03*
X0160507Y0093401D03*
X0153421Y0087141D03*
D457*
X0153362Y0087259D03*
X0159858Y0097181D03*
D458*
X0160389Y0093283D03*
X0153303Y0087496D03*
X0153303Y0087377D03*
D459*
X0153244Y0087614D03*
X0160094Y0092338D03*
X0160094Y0092456D03*
X0160094Y0092574D03*
D460*
X0160094Y0092811D03*
X0160094Y0092929D03*
X0160094Y0092220D03*
X0160094Y0092102D03*
X0160094Y0091984D03*
X0160094Y0091866D03*
X0153126Y0087732D03*
D461*
X0153066Y0087850D03*
D462*
X0153007Y0087968D03*
X0160094Y0091629D03*
X0160094Y0091748D03*
X0159858Y0097299D03*
D463*
X0160094Y0091039D03*
D464*
X0160094Y0091275D03*
D465*
X0160094Y0091393D03*
X0160094Y0091511D03*
D466*
X0160153Y0092692D03*
X0160153Y0093047D03*
X0160271Y0093165D03*
D467*
X0162515Y0093992D03*
D468*
X0162515Y0094110D03*
D469*
X0162633Y0094228D03*
D470*
X0162633Y0094346D03*
D471*
X0162692Y0094464D03*
D472*
X0162751Y0094582D03*
D473*
X0162811Y0094700D03*
D474*
X0099248Y0141748D02*
X0094248Y0141748D01*
X0096748Y0139248D01*
X0094248Y0141748D02*
X0096748Y0144248D01*
D475*
X0053748Y0075248D02*
X0053761Y0076303D01*
X0053800Y0077358D01*
X0053865Y0078411D01*
X0053955Y0079463D01*
X0054071Y0080512D01*
X0054213Y0081557D01*
X0054381Y0082599D01*
X0054574Y0083637D01*
X0054793Y0084669D01*
X0055037Y0085696D01*
X0055306Y0086717D01*
X0055600Y0087730D01*
X0055918Y0088736D01*
X0056262Y0089734D01*
X0056629Y0090723D01*
X0057021Y0091703D01*
X0057437Y0092673D01*
X0057876Y0093633D01*
X0058339Y0094581D01*
X0058825Y0095518D01*
X0059334Y0096443D01*
X0059866Y0097354D01*
X0060419Y0098253D01*
X0060995Y0099138D01*
X0061592Y0100008D01*
X0062210Y0100863D01*
X0062849Y0101703D01*
X0063509Y0102527D01*
X0064188Y0103334D01*
X0064887Y0104125D01*
X0065605Y0104898D01*
X0066342Y0105654D01*
X0067098Y0106391D01*
X0067871Y0107109D01*
X0068662Y0107808D01*
X0069469Y0108487D01*
X0070293Y0109147D01*
X0071133Y0109786D01*
X0071988Y0110404D01*
X0072858Y0111001D01*
X0073743Y0111577D01*
X0074642Y0112130D01*
X0075553Y0112662D01*
X0076478Y0113171D01*
X0077415Y0113657D01*
X0078363Y0114120D01*
X0079323Y0114559D01*
X0080293Y0114975D01*
X0081273Y0115367D01*
X0082262Y0115734D01*
X0083260Y0116078D01*
X0084266Y0116396D01*
X0085279Y0116690D01*
X0086300Y0116959D01*
X0087327Y0117203D01*
X0088359Y0117422D01*
X0089397Y0117615D01*
X0090439Y0117783D01*
X0091484Y0117925D01*
X0092533Y0118041D01*
X0093585Y0118131D01*
X0094638Y0118196D01*
X0095693Y0118235D01*
X0096748Y0118248D01*
X0097803Y0118235D01*
X0098858Y0118196D01*
X0099911Y0118131D01*
X0100963Y0118041D01*
X0102012Y0117925D01*
X0103057Y0117783D01*
X0104099Y0117615D01*
X0105137Y0117422D01*
X0106169Y0117203D01*
X0107196Y0116959D01*
X0108217Y0116690D01*
X0109230Y0116396D01*
X0110236Y0116078D01*
X0111234Y0115734D01*
X0112223Y0115367D01*
X0113203Y0114975D01*
X0114173Y0114559D01*
X0115133Y0114120D01*
X0116081Y0113657D01*
X0117018Y0113171D01*
X0117943Y0112662D01*
X0118854Y0112130D01*
X0119753Y0111577D01*
X0120638Y0111001D01*
X0121508Y0110404D01*
X0122363Y0109786D01*
X0123203Y0109147D01*
X0124027Y0108487D01*
X0124834Y0107808D01*
X0125625Y0107109D01*
X0126398Y0106391D01*
X0127154Y0105654D01*
X0127891Y0104898D01*
X0128609Y0104125D01*
X0129308Y0103334D01*
X0129987Y0102527D01*
X0130647Y0101703D01*
X0131286Y0100863D01*
X0131904Y0100008D01*
X0132501Y0099138D01*
X0133077Y0098253D01*
X0133630Y0097354D01*
X0134162Y0096443D01*
X0134671Y0095518D01*
X0135157Y0094581D01*
X0135620Y0093633D01*
X0136059Y0092673D01*
X0136475Y0091703D01*
X0136867Y0090723D01*
X0137234Y0089734D01*
X0137578Y0088736D01*
X0137896Y0087730D01*
X0138190Y0086717D01*
X0138459Y0085696D01*
X0138703Y0084669D01*
X0138922Y0083637D01*
X0139115Y0082599D01*
X0139283Y0081557D01*
X0139425Y0080512D01*
X0139541Y0079463D01*
X0139631Y0078411D01*
X0139696Y0077358D01*
X0139735Y0076303D01*
X0139748Y0075248D01*
X0139735Y0074193D01*
X0139696Y0073138D01*
X0139631Y0072085D01*
X0139541Y0071033D01*
X0139425Y0069984D01*
X0139283Y0068939D01*
X0139115Y0067897D01*
X0138922Y0066859D01*
X0138703Y0065827D01*
X0138459Y0064800D01*
X0138190Y0063779D01*
X0137896Y0062766D01*
X0137578Y0061760D01*
X0137234Y0060762D01*
X0136867Y0059773D01*
X0136475Y0058793D01*
X0136059Y0057823D01*
X0135620Y0056863D01*
X0135157Y0055915D01*
X0134671Y0054978D01*
X0134162Y0054053D01*
X0133630Y0053142D01*
X0133077Y0052243D01*
X0132501Y0051358D01*
X0131904Y0050488D01*
X0131286Y0049633D01*
X0130647Y0048793D01*
X0129987Y0047969D01*
X0129308Y0047162D01*
X0128609Y0046371D01*
X0127891Y0045598D01*
X0127154Y0044842D01*
X0126398Y0044105D01*
X0125625Y0043387D01*
X0124834Y0042688D01*
X0124027Y0042009D01*
X0123203Y0041349D01*
X0122363Y0040710D01*
X0121508Y0040092D01*
X0120638Y0039495D01*
X0119753Y0038919D01*
X0118854Y0038366D01*
X0117943Y0037834D01*
X0117018Y0037325D01*
X0116081Y0036839D01*
X0115133Y0036376D01*
X0114173Y0035937D01*
X0113203Y0035521D01*
X0112223Y0035129D01*
X0111234Y0034762D01*
X0110236Y0034418D01*
X0109230Y0034100D01*
X0108217Y0033806D01*
X0107196Y0033537D01*
X0106169Y0033293D01*
X0105137Y0033074D01*
X0104099Y0032881D01*
X0103057Y0032713D01*
X0102012Y0032571D01*
X0100963Y0032455D01*
X0099911Y0032365D01*
X0098858Y0032300D01*
X0097803Y0032261D01*
X0096748Y0032248D01*
X0095693Y0032261D01*
X0094638Y0032300D01*
X0093585Y0032365D01*
X0092533Y0032455D01*
X0091484Y0032571D01*
X0090439Y0032713D01*
X0089397Y0032881D01*
X0088359Y0033074D01*
X0087327Y0033293D01*
X0086300Y0033537D01*
X0085279Y0033806D01*
X0084266Y0034100D01*
X0083260Y0034418D01*
X0082262Y0034762D01*
X0081273Y0035129D01*
X0080293Y0035521D01*
X0079323Y0035937D01*
X0078363Y0036376D01*
X0077415Y0036839D01*
X0076478Y0037325D01*
X0075553Y0037834D01*
X0074642Y0038366D01*
X0073743Y0038919D01*
X0072858Y0039495D01*
X0071988Y0040092D01*
X0071133Y0040710D01*
X0070293Y0041349D01*
X0069469Y0042009D01*
X0068662Y0042688D01*
X0067871Y0043387D01*
X0067098Y0044105D01*
X0066342Y0044842D01*
X0065605Y0045598D01*
X0064887Y0046371D01*
X0064188Y0047162D01*
X0063509Y0047969D01*
X0062849Y0048793D01*
X0062210Y0049633D01*
X0061592Y0050488D01*
X0060995Y0051358D01*
X0060419Y0052243D01*
X0059866Y0053142D01*
X0059334Y0054053D01*
X0058825Y0054978D01*
X0058339Y0055915D01*
X0057876Y0056863D01*
X0057437Y0057823D01*
X0057021Y0058793D01*
X0056629Y0059773D01*
X0056262Y0060762D01*
X0055918Y0061760D01*
X0055600Y0062766D01*
X0055306Y0063779D01*
X0055037Y0064800D01*
X0054793Y0065827D01*
X0054574Y0066859D01*
X0054381Y0067897D01*
X0054213Y0068939D01*
X0054071Y0069984D01*
X0053955Y0071033D01*
X0053865Y0072085D01*
X0053800Y0073138D01*
X0053761Y0074193D01*
X0053748Y0075248D01*
X0084248Y0034248D02*
X0084248Y0019248D01*
X0109248Y0019248D01*
X0109248Y0034248D01*
D476*
X0036444Y0033515D02*
X0032909Y0033515D01*
X0029373Y0037051D01*
X0029373Y0040586D01*
X0032909Y0044122D01*
X0036444Y0044122D01*
X0039980Y0040586D01*
X0039980Y0037051D01*
X0043515Y0037051D01*
X0047051Y0033515D01*
X0047051Y0029980D01*
X0043515Y0026444D01*
X0039980Y0026444D01*
X0036444Y0029980D01*
X0036444Y0033515D01*
X0081748Y0014248D02*
X0081748Y0009248D01*
X0084248Y0006748D01*
X0089248Y0006748D01*
X0091748Y0009248D01*
X0094248Y0006748D01*
X0099248Y0006748D01*
X0101748Y0009248D01*
X0104248Y0006748D01*
X0109248Y0006748D01*
X0111748Y0009248D01*
X0111748Y0014248D01*
X0109248Y0016748D01*
X0104248Y0016748D01*
X0101748Y0014248D01*
X0099248Y0016748D01*
X0094248Y0016748D01*
X0091748Y0014248D01*
X0089248Y0016748D01*
X0084248Y0016748D01*
X0081748Y0014248D01*
X0146444Y0029980D02*
X0146444Y0033515D01*
X0149980Y0037051D01*
X0153515Y0037051D01*
X0153515Y0040586D01*
X0157051Y0044122D01*
X0160586Y0044122D01*
X0164122Y0040586D01*
X0164122Y0037051D01*
X0160586Y0033515D01*
X0157051Y0033515D01*
X0157051Y0029980D01*
X0153515Y0026444D01*
X0149980Y0026444D01*
X0146444Y0029980D01*
X0089248Y0121748D02*
X0084248Y0121748D01*
X0081748Y0124248D01*
X0081748Y0129248D01*
X0084248Y0131748D01*
X0081748Y0134248D01*
X0081748Y0139248D01*
X0084248Y0141748D01*
X0081748Y0144248D01*
X0081748Y0149248D01*
X0084248Y0151748D01*
X0081748Y0154248D01*
X0081748Y0159248D01*
X0084248Y0161748D01*
X0089248Y0161748D01*
X0091748Y0159248D01*
X0091748Y0154248D01*
X0089248Y0151748D01*
X0091748Y0149248D01*
X0091748Y0144248D01*
X0089248Y0141748D01*
X0091748Y0139248D01*
X0091748Y0134248D01*
X0089248Y0131748D01*
X0091748Y0129248D01*
X0091748Y0124248D01*
X0089248Y0121748D01*
X0047051Y0134980D02*
X0043515Y0131444D01*
X0039980Y0131444D01*
X0039980Y0127909D01*
X0036444Y0124373D01*
X0032909Y0124373D01*
X0029373Y0127909D01*
X0029373Y0131444D01*
X0032909Y0134980D01*
X0036444Y0134980D01*
X0036444Y0138515D01*
X0039980Y0142051D01*
X0043515Y0142051D01*
X0047051Y0138515D01*
X0047051Y0134980D01*
X0146444Y0134980D02*
X0146444Y0138515D01*
X0149980Y0142051D01*
X0153515Y0142051D01*
X0157051Y0138515D01*
X0157051Y0134980D01*
X0160586Y0134980D01*
X0164122Y0131444D01*
X0164122Y0127909D01*
X0160586Y0124373D01*
X0157051Y0124373D01*
X0153515Y0127909D01*
X0153515Y0131444D01*
X0149980Y0131444D01*
X0146444Y0134980D01*
M02*
