G75*
%MOIN*%
%OFA0B0*%
%FSLAX25Y25*%
%IPPOS*%
%LPD*%
%AMOC8*
5,1,8,0,0,1.08239X$1,22.5*
%
%ADD10C,0.00400*%
%ADD11R,0.00138X0.00276*%
%ADD12R,0.00138X0.00827*%
%ADD13R,0.00138X0.01378*%
%ADD14R,0.00138X0.01929*%
%ADD15R,0.00138X0.02480*%
%ADD16R,0.00138X0.03031*%
%ADD17R,0.00138X0.03583*%
%ADD18R,0.00138X0.04134*%
%ADD19R,0.00138X0.04685*%
%ADD20R,0.00138X0.05236*%
%ADD21R,0.00138X0.05787*%
%ADD22R,0.00138X0.06339*%
%ADD23R,0.00138X0.06890*%
%ADD24R,0.00138X0.07441*%
%ADD25R,0.00138X0.07992*%
%ADD26R,0.00138X0.08543*%
%ADD27R,0.00138X0.09094*%
%ADD28R,0.00138X0.09646*%
%ADD29R,0.00138X0.10197*%
%ADD30R,0.00138X0.10886*%
%ADD31R,0.00138X0.11437*%
%ADD32R,0.00138X0.11988*%
%ADD33R,0.00138X0.12539*%
%ADD34R,0.00138X0.13091*%
%ADD35R,0.00138X0.13642*%
%ADD36R,0.00138X0.14193*%
%ADD37R,0.00138X0.14744*%
%ADD38R,0.00138X0.15295*%
%ADD39R,0.00138X0.15846*%
%ADD40R,0.00138X0.16398*%
%ADD41R,0.00138X0.16949*%
%ADD42R,0.00138X0.17500*%
%ADD43R,0.00138X0.18051*%
%ADD44R,0.00138X0.18602*%
%ADD45R,0.00138X0.19154*%
%ADD46R,0.00138X0.19705*%
%ADD47R,0.00138X0.20256*%
%ADD48R,0.00138X0.20807*%
%ADD49R,0.00138X0.21358*%
%ADD50R,0.00138X0.21909*%
%ADD51R,0.00138X0.22461*%
%ADD52R,0.00138X0.23012*%
%ADD53R,0.00138X0.23563*%
%ADD54R,0.00138X0.24114*%
%ADD55R,0.00138X0.24665*%
%ADD56R,0.00138X0.25217*%
%ADD57R,0.00138X0.25768*%
%ADD58R,0.00138X0.26319*%
%ADD59R,0.00138X0.26870*%
%ADD60R,0.00138X0.27421*%
%ADD61R,0.00138X0.27972*%
%ADD62R,0.00138X0.28524*%
%ADD63R,0.00138X0.05098*%
%ADD64R,0.00138X0.01516*%
%ADD65R,0.00138X0.03720*%
%ADD66R,0.00138X0.06063*%
%ADD67R,0.00138X0.04823*%
%ADD68R,0.00138X0.03445*%
%ADD69R,0.00138X0.03307*%
%ADD70R,0.00138X0.06614*%
%ADD71R,0.00138X0.01654*%
%ADD72R,0.00138X0.07165*%
%ADD73R,0.00138X0.02894*%
%ADD74R,0.00138X0.07717*%
%ADD75R,0.00138X0.04961*%
%ADD76R,0.00138X0.01791*%
%ADD77R,0.00138X0.02756*%
%ADD78R,0.00138X0.08268*%
%ADD79R,0.00138X0.03996*%
%ADD80R,0.00138X0.02618*%
%ADD81R,0.00138X0.05374*%
%ADD82R,0.00138X0.04409*%
%ADD83R,0.00138X0.00138*%
%ADD84R,0.00138X0.08819*%
%ADD85R,0.00138X0.05512*%
%ADD86R,0.00138X0.05650*%
%ADD87R,0.00138X0.02343*%
%ADD88R,0.00138X0.00413*%
%ADD89R,0.00138X0.09370*%
%ADD90R,0.00138X0.00551*%
%ADD91R,0.00138X0.00689*%
%ADD92R,0.00138X0.01240*%
%ADD93R,0.00138X0.00965*%
%ADD94R,0.00138X0.01102*%
%ADD95R,0.00138X0.05925*%
%ADD96R,0.00138X0.02067*%
%ADD97R,0.00138X0.02205*%
%ADD98R,0.00138X0.09921*%
%ADD99R,0.00138X0.06201*%
%ADD100R,0.00138X0.09783*%
%ADD101R,0.00138X0.06476*%
%ADD102R,0.00138X0.06752*%
%ADD103R,0.00138X0.09508*%
%ADD104R,0.00138X0.07579*%
%ADD105R,0.00138X0.07854*%
%ADD106R,0.00138X0.09232*%
%ADD107R,0.00138X0.07028*%
%ADD108R,0.00138X0.08957*%
%ADD109R,0.00138X0.07303*%
%ADD110R,0.00138X0.03858*%
%ADD111R,0.00138X0.10059*%
%ADD112R,0.00138X0.10335*%
%ADD113R,0.00138X0.03169*%
%ADD114R,0.00138X0.10610*%
%ADD115R,0.00138X0.04547*%
%ADD116R,0.00138X0.04272*%
%ADD117R,0.00138X0.18878*%
%ADD118R,0.00138X0.18740*%
%ADD119R,0.00138X0.18465*%
%ADD120R,0.00138X0.18327*%
%ADD121R,0.00138X0.18189*%
%ADD122R,0.00138X0.17913*%
%ADD123R,0.00138X0.17638*%
%ADD124R,0.00138X0.17224*%
%ADD125R,0.00138X0.16673*%
%ADD126R,0.00138X0.08681*%
%ADD127R,0.00138X0.16122*%
%ADD128R,0.00138X0.08406*%
%ADD129R,0.00138X0.28248*%
%ADD130R,0.00138X0.27697*%
%ADD131R,0.00138X0.27146*%
%ADD132R,0.00138X0.26594*%
%ADD133R,0.00138X0.26043*%
%ADD134R,0.00138X0.25492*%
%ADD135R,0.00138X0.24941*%
%ADD136R,0.00138X0.24390*%
%ADD137R,0.00138X0.23839*%
%ADD138R,0.00138X0.23287*%
%ADD139R,0.00138X0.22736*%
%ADD140R,0.00138X0.22185*%
%ADD141R,0.00138X0.21634*%
%ADD142R,0.00138X0.21083*%
%ADD143R,0.00138X0.20531*%
%ADD144R,0.00138X0.19980*%
%ADD145R,0.00138X0.19429*%
%ADD146R,0.00138X0.17776*%
%ADD147R,0.00138X0.15571*%
%ADD148R,0.00138X0.15020*%
%ADD149R,0.00138X0.14606*%
%ADD150R,0.00138X0.14055*%
%ADD151R,0.00138X0.13504*%
%ADD152R,0.00138X0.12953*%
%ADD153R,0.00138X0.12402*%
%ADD154R,0.00138X0.11850*%
%ADD155R,0.00138X0.11299*%
%ADD156R,0.00138X0.10748*%
%ADD157R,0.00118X0.00039*%
%ADD158R,0.00276X0.00039*%
%ADD159R,0.00394X0.00039*%
%ADD160R,0.00354X0.00039*%
%ADD161R,0.00472X0.00039*%
%ADD162R,0.00551X0.00039*%
%ADD163R,0.00669X0.00039*%
%ADD164R,0.00748X0.00039*%
%ADD165R,0.00866X0.00039*%
%ADD166R,0.00945X0.00039*%
%ADD167R,0.01063X0.00039*%
%ADD168R,0.01142X0.00039*%
%ADD169R,0.01260X0.00039*%
%ADD170R,0.01220X0.00039*%
%ADD171R,0.01339X0.00039*%
%ADD172R,0.01457X0.00039*%
%ADD173R,0.01417X0.00039*%
%ADD174R,0.01535X0.00039*%
%ADD175R,0.01654X0.00039*%
%ADD176R,0.01614X0.00039*%
%ADD177R,0.01732X0.00039*%
%ADD178R,0.01811X0.00039*%
%ADD179R,0.01929X0.00039*%
%ADD180R,0.02008X0.00039*%
%ADD181R,0.02126X0.00039*%
%ADD182R,0.02205X0.00039*%
%ADD183R,0.02323X0.00039*%
%ADD184R,0.02283X0.00039*%
%ADD185R,0.02402X0.00039*%
%ADD186R,0.02520X0.00039*%
%ADD187R,0.02480X0.00039*%
%ADD188R,0.02598X0.00039*%
%ADD189R,0.02717X0.00039*%
%ADD190R,0.02677X0.00039*%
%ADD191R,0.02795X0.00039*%
%ADD192R,0.00197X0.00039*%
%ADD193R,0.02874X0.00039*%
%ADD194R,0.00315X0.00039*%
%ADD195R,0.02992X0.00039*%
%ADD196R,0.03071X0.00039*%
%ADD197R,0.00512X0.00039*%
%ADD198R,0.03189X0.00039*%
%ADD199R,0.03268X0.00039*%
%ADD200R,0.00630X0.00039*%
%ADD201R,0.03386X0.00039*%
%ADD202R,0.03346X0.00039*%
%ADD203R,0.03465X0.00039*%
%ADD204R,0.00827X0.00039*%
%ADD205R,0.03583X0.00039*%
%ADD206R,0.03543X0.00039*%
%ADD207R,0.03661X0.00039*%
%ADD208R,0.01024X0.00039*%
%ADD209R,0.03780X0.00039*%
%ADD210R,0.01102X0.00039*%
%ADD211R,0.03740X0.00039*%
%ADD212R,0.03858X0.00039*%
%ADD213R,0.01181X0.00039*%
%ADD214R,0.03937X0.00039*%
%ADD215R,0.01299X0.00039*%
%ADD216R,0.04055X0.00039*%
%ADD217R,0.01378X0.00039*%
%ADD218R,0.05669X0.00039*%
%ADD219R,0.05748X0.00039*%
%ADD220R,0.05787X0.00039*%
%ADD221R,0.05866X0.00039*%
%ADD222R,0.05827X0.00039*%
%ADD223R,0.05906X0.00039*%
%ADD224R,0.05945X0.00039*%
%ADD225R,0.06024X0.00039*%
%ADD226R,0.06063X0.00039*%
%ADD227R,0.06142X0.00039*%
%ADD228R,0.06102X0.00039*%
%ADD229R,0.06181X0.00039*%
%ADD230R,0.06260X0.00039*%
%ADD231R,0.06220X0.00039*%
%ADD232R,0.06299X0.00039*%
%ADD233R,0.06339X0.00039*%
%ADD234R,0.06417X0.00039*%
%ADD235R,0.06457X0.00039*%
%ADD236R,0.06496X0.00039*%
%ADD237R,0.06535X0.00039*%
%ADD238R,0.06378X0.00039*%
%ADD239R,0.05984X0.00039*%
%ADD240R,0.06575X0.00039*%
%ADD241R,0.06614X0.00039*%
%ADD242R,0.06654X0.00039*%
%ADD243R,0.06693X0.00039*%
%ADD244R,0.06732X0.00039*%
%ADD245R,0.06772X0.00039*%
%ADD246R,0.06811X0.00039*%
%ADD247R,0.06850X0.00039*%
%ADD248R,0.06890X0.00039*%
%ADD249R,0.06929X0.00039*%
%ADD250R,0.06969X0.00039*%
%ADD251R,0.07008X0.00039*%
%ADD252R,0.07047X0.00039*%
%ADD253R,0.07205X0.00039*%
%ADD254R,0.07402X0.00039*%
%ADD255R,0.07362X0.00039*%
%ADD256R,0.07559X0.00039*%
%ADD257R,0.07598X0.00039*%
%ADD258R,0.07756X0.00039*%
%ADD259R,0.07953X0.00039*%
%ADD260R,0.07913X0.00039*%
%ADD261R,0.08150X0.00039*%
%ADD262R,0.08307X0.00039*%
%ADD263R,0.08504X0.00039*%
%ADD264R,0.08701X0.00039*%
%ADD265R,0.08780X0.00039*%
%ADD266R,0.08819X0.00039*%
%ADD267R,0.08740X0.00039*%
%ADD268R,0.08661X0.00039*%
%ADD269R,0.08622X0.00039*%
%ADD270R,0.08583X0.00039*%
%ADD271R,0.08543X0.00039*%
%ADD272R,0.08465X0.00039*%
%ADD273R,0.08425X0.00039*%
%ADD274R,0.08858X0.00039*%
%ADD275R,0.08386X0.00039*%
%ADD276R,0.08346X0.00039*%
%ADD277R,0.08189X0.00039*%
%ADD278R,0.07992X0.00039*%
%ADD279R,0.08031X0.00039*%
%ADD280R,0.07835X0.00039*%
%ADD281R,0.07795X0.00039*%
%ADD282R,0.07638X0.00039*%
%ADD283R,0.07441X0.00039*%
%ADD284R,0.07480X0.00039*%
%ADD285R,0.07283X0.00039*%
%ADD286R,0.07126X0.00039*%
%ADD287R,0.07087X0.00039*%
%ADD288R,0.07244X0.00039*%
%ADD289R,0.07323X0.00039*%
%ADD290R,0.07677X0.00039*%
%ADD291R,0.16260X0.00039*%
%ADD292R,0.16220X0.00039*%
%ADD293R,0.16181X0.00039*%
%ADD294R,0.16142X0.00039*%
%ADD295R,0.16102X0.00039*%
%ADD296R,0.16024X0.00039*%
%ADD297R,0.15984X0.00039*%
%ADD298R,0.15945X0.00039*%
%ADD299R,0.15906X0.00039*%
%ADD300R,0.15866X0.00039*%
%ADD301R,0.15787X0.00039*%
%ADD302R,0.15748X0.00039*%
%ADD303R,0.15709X0.00039*%
%ADD304R,0.15669X0.00039*%
%ADD305R,0.15630X0.00039*%
%ADD306R,0.15551X0.00039*%
%ADD307R,0.15512X0.00039*%
%ADD308R,0.15472X0.00039*%
%ADD309R,0.15433X0.00039*%
%ADD310R,0.15394X0.00039*%
%ADD311R,0.15315X0.00039*%
%ADD312R,0.15276X0.00039*%
%ADD313R,0.15236X0.00039*%
%ADD314R,0.15591X0.00039*%
%ADD315R,0.16063X0.00039*%
%ADD316R,0.16339X0.00039*%
%ADD317R,0.16417X0.00039*%
%ADD318R,0.16457X0.00039*%
%ADD319R,0.16496X0.00039*%
%ADD320R,0.16575X0.00039*%
%ADD321R,0.16614X0.00039*%
%ADD322R,0.16654X0.00039*%
%ADD323R,0.16732X0.00039*%
%ADD324R,0.16772X0.00039*%
%ADD325R,0.16811X0.00039*%
%ADD326R,0.16890X0.00039*%
%ADD327R,0.16929X0.00039*%
%ADD328R,0.16969X0.00039*%
%ADD329R,0.17047X0.00039*%
%ADD330R,0.17126X0.00039*%
%ADD331R,0.17205X0.00039*%
%ADD332R,0.17283X0.00039*%
%ADD333R,0.17323X0.00039*%
%ADD334R,0.17362X0.00039*%
%ADD335R,0.17441X0.00039*%
%ADD336R,0.17480X0.00039*%
%ADD337R,0.17520X0.00039*%
%ADD338R,0.17598X0.00039*%
%ADD339R,0.17638X0.00039*%
%ADD340R,0.17677X0.00039*%
%ADD341R,0.17756X0.00039*%
%ADD342R,0.17795X0.00039*%
%ADD343R,0.17835X0.00039*%
%ADD344R,0.17913X0.00039*%
%ADD345R,0.17992X0.00039*%
%ADD346R,0.18071X0.00039*%
%ADD347R,0.18150X0.00039*%
%ADD348R,0.18189X0.00039*%
%ADD349R,0.18228X0.00039*%
%ADD350R,0.18307X0.00039*%
%ADD351R,0.18346X0.00039*%
%ADD352R,0.18386X0.00039*%
%ADD353R,0.18465X0.00039*%
%ADD354R,0.18504X0.00039*%
%ADD355R,0.18543X0.00039*%
%ADD356R,0.18622X0.00039*%
%ADD357R,0.18661X0.00039*%
%ADD358R,0.18701X0.00039*%
%ADD359R,0.04488X0.00039*%
%ADD360R,0.04449X0.00039*%
%ADD361R,0.04370X0.00039*%
%ADD362R,0.04331X0.00039*%
%ADD363R,0.04252X0.00039*%
%ADD364R,0.04173X0.00039*%
%ADD365R,0.04134X0.00039*%
%ADD366R,0.03976X0.00039*%
%ADD367R,0.07520X0.00039*%
%ADD368R,0.07165X0.00039*%
%ADD369R,0.03504X0.00039*%
%ADD370R,0.03307X0.00039*%
%ADD371R,0.03110X0.00039*%
%ADD372R,0.02913X0.00039*%
%ADD373R,0.05630X0.00039*%
%ADD374R,0.05433X0.00039*%
%ADD375R,0.05236X0.00039*%
%ADD376R,0.05039X0.00039*%
%ADD377R,0.04843X0.00039*%
%ADD378R,0.02441X0.00039*%
%ADD379R,0.04685X0.00039*%
%ADD380R,0.04528X0.00039*%
%ADD381R,0.02244X0.00039*%
%ADD382R,0.02047X0.00039*%
%ADD383R,0.01850X0.00039*%
%ADD384R,0.04291X0.00039*%
%ADD385R,0.00984X0.00039*%
%ADD386R,0.04213X0.00039*%
%ADD387R,0.00787X0.00039*%
%ADD388R,0.00591X0.00039*%
%ADD389R,0.04094X0.00039*%
%ADD390R,0.04016X0.00039*%
%ADD391R,0.03898X0.00039*%
%ADD392R,0.03819X0.00039*%
%ADD393R,0.03701X0.00039*%
%ADD394R,0.03622X0.00039*%
%ADD395R,0.03425X0.00039*%
%ADD396R,0.03228X0.00039*%
%ADD397C,0.01000*%
%ADD398R,0.00118X0.00118*%
%ADD399R,0.00709X0.00118*%
%ADD400R,0.00945X0.00118*%
%ADD401R,0.01181X0.00118*%
%ADD402R,0.01299X0.00118*%
%ADD403R,0.01535X0.00118*%
%ADD404R,0.01417X0.00118*%
%ADD405R,0.02008X0.00118*%
%ADD406R,0.02362X0.00118*%
%ADD407R,0.02480X0.00118*%
%ADD408R,0.02835X0.00118*%
%ADD409R,0.03189X0.00118*%
%ADD410R,0.03543X0.00118*%
%ADD411R,0.03425X0.00118*%
%ADD412R,0.03780X0.00118*%
%ADD413R,0.04016X0.00118*%
%ADD414R,0.03661X0.00118*%
%ADD415R,0.04252X0.00118*%
%ADD416R,0.01772X0.00118*%
%ADD417R,0.01654X0.00118*%
%ADD418R,0.00354X0.00118*%
%ADD419R,0.00472X0.00118*%
%ADD420R,0.00236X0.00118*%
%ADD421R,0.00591X0.00118*%
%ADD422R,0.00827X0.00118*%
%ADD423R,0.01063X0.00118*%
%ADD424R,0.02244X0.00118*%
%ADD425R,0.01890X0.00118*%
%ADD426R,0.04134X0.00118*%
%ADD427R,0.02126X0.00118*%
%ADD428R,0.03898X0.00118*%
%ADD429R,0.02598X0.00118*%
%ADD430R,0.02953X0.00118*%
%ADD431R,0.03071X0.00118*%
%ADD432R,0.02717X0.00118*%
%ADD433R,0.04370X0.00118*%
%ADD434R,0.04606X0.00118*%
%ADD435R,0.04724X0.00118*%
%ADD436R,0.04843X0.00118*%
%ADD437R,0.04961X0.00118*%
%ADD438R,0.05079X0.00118*%
%ADD439R,0.05197X0.00118*%
%ADD440R,0.05315X0.00118*%
%ADD441R,0.03307X0.00118*%
%ADD442R,0.05433X0.00118*%
%ADD443R,0.05551X0.00118*%
%ADD444R,0.05669X0.00118*%
%ADD445R,0.05787X0.00118*%
%ADD446R,0.05906X0.00118*%
%ADD447R,0.04488X0.00118*%
%ADD448R,0.06142X0.00118*%
%ADD449R,0.06260X0.00118*%
%ADD450R,0.08386X0.00118*%
%ADD451R,0.08504X0.00118*%
%ADD452R,0.08268X0.00118*%
%ADD453R,0.08150X0.00118*%
%ADD454R,0.08031X0.00118*%
%ADD455R,0.07913X0.00118*%
%ADD456R,0.07795X0.00118*%
%ADD457R,0.07677X0.00118*%
%ADD458R,0.07559X0.00118*%
%ADD459R,0.07441X0.00118*%
%ADD460R,0.07205X0.00118*%
%ADD461R,0.07087X0.00118*%
%ADD462R,0.06969X0.00118*%
%ADD463R,0.06024X0.00118*%
%ADD464R,0.06496X0.00118*%
%ADD465R,0.06732X0.00118*%
%ADD466R,0.07323X0.00118*%
%ADD467R,0.10866X0.00118*%
%ADD468R,0.10630X0.00118*%
%ADD469R,0.10394X0.00118*%
%ADD470R,0.10157X0.00118*%
%ADD471R,0.09803X0.00118*%
%ADD472R,0.09449X0.00118*%
%ADD473R,0.09094X0.00118*%
%ADD474C,0.01600*%
%ADD475C,0.00500*%
%ADD476C,0.00800*%
D10*
X0067442Y0061700D02*
X0069744Y0061700D01*
X0070511Y0062467D01*
X0069744Y0063235D01*
X0067442Y0063235D01*
X0067442Y0064002D02*
X0067442Y0061700D01*
X0067442Y0064002D02*
X0068209Y0064769D01*
X0069744Y0064769D01*
X0072813Y0066304D02*
X0072813Y0061700D01*
X0073580Y0061700D02*
X0072046Y0061700D01*
X0075115Y0061700D02*
X0076650Y0061700D01*
X0075882Y0061700D02*
X0075882Y0066304D01*
X0076650Y0066304D01*
X0078952Y0064769D02*
X0078184Y0064002D01*
X0078184Y0061700D01*
X0080486Y0061700D01*
X0081254Y0062467D01*
X0080486Y0063235D01*
X0078184Y0063235D01*
X0078952Y0064769D02*
X0080486Y0064769D01*
X0083556Y0059571D02*
X0083556Y0056502D01*
X0085090Y0056502D02*
X0085090Y0054200D01*
X0087392Y0054200D01*
X0088159Y0054967D01*
X0087392Y0055735D01*
X0085090Y0055735D01*
X0085090Y0056502D02*
X0085858Y0057269D01*
X0087392Y0057269D01*
X0089694Y0056502D02*
X0089694Y0054200D01*
X0091229Y0054200D02*
X0091229Y0056502D01*
X0090461Y0057269D01*
X0089694Y0056502D01*
X0091229Y0056502D02*
X0091996Y0057269D01*
X0092763Y0057269D01*
X0092763Y0054200D01*
X0094298Y0054967D02*
X0094298Y0056502D01*
X0095065Y0057269D01*
X0096600Y0057269D01*
X0097367Y0056502D01*
X0097367Y0054967D01*
X0096600Y0054200D01*
X0095065Y0054200D01*
X0094298Y0054967D01*
X0098902Y0054200D02*
X0101204Y0054200D01*
X0101971Y0054967D01*
X0101971Y0056502D01*
X0101204Y0057269D01*
X0098902Y0057269D01*
X0098902Y0053433D01*
X0099669Y0052665D01*
X0100437Y0052665D01*
X0103506Y0054200D02*
X0103506Y0056502D01*
X0104273Y0057269D01*
X0105808Y0057269D01*
X0105808Y0055735D02*
X0103506Y0055735D01*
X0103506Y0054200D02*
X0105808Y0054200D01*
X0106575Y0054967D01*
X0105808Y0055735D01*
X0108110Y0054967D02*
X0108877Y0055735D01*
X0110412Y0055735D01*
X0111179Y0056502D01*
X0110412Y0057269D01*
X0108110Y0057269D01*
X0108110Y0054967D02*
X0108877Y0054200D01*
X0111179Y0054200D01*
X0111946Y0061700D02*
X0111946Y0064769D01*
X0109645Y0064769D01*
X0108877Y0064002D01*
X0108877Y0061700D01*
X0107343Y0061700D02*
X0104273Y0061700D01*
X0102739Y0061700D02*
X0101204Y0061700D01*
X0101971Y0061700D02*
X0101971Y0064769D01*
X0102739Y0064769D01*
X0104273Y0064769D02*
X0107343Y0061700D01*
X0107343Y0064769D02*
X0104273Y0064769D01*
X0101971Y0066304D02*
X0101971Y0067071D01*
X0102355Y0069200D02*
X0103890Y0069200D01*
X0104657Y0069967D01*
X0104657Y0071502D01*
X0103890Y0072269D01*
X0102355Y0072269D01*
X0101588Y0071502D01*
X0101588Y0070735D01*
X0104657Y0070735D01*
X0106192Y0069200D02*
X0106192Y0072269D01*
X0106192Y0069200D02*
X0108494Y0069200D01*
X0109261Y0069967D01*
X0109261Y0072269D01*
X0110795Y0072269D02*
X0113097Y0072269D01*
X0113865Y0071502D01*
X0113865Y0069967D01*
X0113097Y0069200D01*
X0110795Y0069200D01*
X0110795Y0067665D02*
X0110795Y0072269D01*
X0110412Y0076700D02*
X0108877Y0076700D01*
X0109645Y0076700D02*
X0109645Y0079769D01*
X0110412Y0079769D01*
X0109645Y0081304D02*
X0109645Y0082071D01*
X0110412Y0084200D02*
X0111179Y0084967D01*
X0111179Y0088037D01*
X0111946Y0087269D02*
X0110412Y0087269D01*
X0108877Y0084967D02*
X0108110Y0085735D01*
X0105808Y0085735D01*
X0105808Y0086502D02*
X0105808Y0084200D01*
X0108110Y0084200D01*
X0108877Y0084967D01*
X0108110Y0087269D02*
X0106575Y0087269D01*
X0105808Y0086502D01*
X0104273Y0086502D02*
X0101204Y0086502D01*
X0099669Y0087269D02*
X0097367Y0087269D01*
X0096600Y0086502D01*
X0096600Y0084967D01*
X0097367Y0084200D01*
X0099669Y0084200D01*
X0099669Y0088804D01*
X0095065Y0084967D02*
X0094298Y0085735D01*
X0091996Y0085735D01*
X0091996Y0086502D02*
X0091996Y0084200D01*
X0094298Y0084200D01*
X0095065Y0084967D01*
X0094298Y0087269D02*
X0092763Y0087269D01*
X0091996Y0086502D01*
X0090461Y0087269D02*
X0088927Y0087269D01*
X0089694Y0088037D02*
X0089694Y0084967D01*
X0088927Y0084200D01*
X0086625Y0084967D02*
X0085858Y0084200D01*
X0086625Y0084967D02*
X0086625Y0088037D01*
X0087392Y0087269D02*
X0085858Y0087269D01*
X0084323Y0086502D02*
X0084323Y0084967D01*
X0083556Y0084200D01*
X0082021Y0084200D01*
X0081254Y0085735D02*
X0084323Y0085735D01*
X0084323Y0086502D02*
X0083556Y0087269D01*
X0082021Y0087269D01*
X0081254Y0086502D01*
X0081254Y0085735D01*
X0079719Y0085735D02*
X0078184Y0087269D01*
X0077417Y0087269D01*
X0075882Y0087269D02*
X0075115Y0087269D01*
X0075115Y0084200D01*
X0075882Y0084200D02*
X0074348Y0084200D01*
X0072813Y0084967D02*
X0072046Y0085735D01*
X0069744Y0085735D01*
X0069744Y0086502D02*
X0069744Y0084200D01*
X0072046Y0084200D01*
X0072813Y0084967D01*
X0072046Y0087269D02*
X0070511Y0087269D01*
X0069744Y0086502D01*
X0075115Y0088804D02*
X0075115Y0089571D01*
X0079719Y0087269D02*
X0079719Y0084200D01*
X0079719Y0079769D02*
X0077417Y0079769D01*
X0076650Y0079002D01*
X0076650Y0076700D01*
X0075115Y0077467D02*
X0075115Y0079002D01*
X0074348Y0079769D01*
X0072813Y0079769D01*
X0072046Y0079002D01*
X0072046Y0078235D01*
X0075115Y0078235D01*
X0075115Y0077467D02*
X0074348Y0076700D01*
X0072813Y0076700D01*
X0070511Y0076700D02*
X0070511Y0079769D01*
X0068209Y0079769D01*
X0067442Y0079002D01*
X0067442Y0076700D01*
X0065140Y0077467D02*
X0064373Y0076700D01*
X0065140Y0077467D02*
X0065140Y0080537D01*
X0065907Y0079769D02*
X0064373Y0079769D01*
X0062838Y0079769D02*
X0062071Y0079769D01*
X0062071Y0076700D01*
X0062838Y0076700D02*
X0061303Y0076700D01*
X0062071Y0081304D02*
X0062071Y0082071D01*
X0070128Y0072269D02*
X0069360Y0071502D01*
X0069360Y0069967D01*
X0070128Y0069200D01*
X0071662Y0069200D01*
X0072429Y0069967D01*
X0072429Y0071502D01*
X0071662Y0072269D01*
X0070128Y0072269D01*
X0067826Y0069967D02*
X0067058Y0069967D01*
X0067058Y0069200D01*
X0067826Y0069200D01*
X0067826Y0069967D01*
X0072813Y0066304D02*
X0073580Y0066304D01*
X0073964Y0069200D02*
X0074731Y0069967D01*
X0074731Y0073037D01*
X0073964Y0072269D02*
X0075499Y0072269D01*
X0077033Y0071502D02*
X0077033Y0069200D01*
X0079335Y0069200D01*
X0080103Y0069967D01*
X0079335Y0070735D01*
X0077033Y0070735D01*
X0077033Y0071502D02*
X0077801Y0072269D01*
X0079335Y0072269D01*
X0082405Y0073804D02*
X0082405Y0069200D01*
X0083172Y0069200D02*
X0081637Y0069200D01*
X0082405Y0073804D02*
X0083172Y0073804D01*
X0083556Y0076700D02*
X0082021Y0076700D01*
X0081254Y0077467D01*
X0081254Y0079002D01*
X0082021Y0079769D01*
X0083556Y0079769D01*
X0084323Y0079002D01*
X0084323Y0077467D01*
X0083556Y0076700D01*
X0085858Y0077467D02*
X0086625Y0076700D01*
X0088927Y0076700D01*
X0090462Y0076700D02*
X0090462Y0079002D01*
X0091229Y0079769D01*
X0091996Y0079002D01*
X0091996Y0076700D01*
X0093531Y0076700D02*
X0093531Y0079769D01*
X0092763Y0079769D01*
X0091996Y0079002D01*
X0095065Y0079002D02*
X0095833Y0079769D01*
X0097367Y0079769D01*
X0098135Y0079002D01*
X0098135Y0077467D01*
X0097367Y0076700D01*
X0095833Y0076700D01*
X0095065Y0077467D01*
X0095065Y0079002D01*
X0099669Y0079769D02*
X0101971Y0079769D01*
X0102739Y0079002D01*
X0102739Y0077467D01*
X0101971Y0076700D01*
X0099669Y0076700D01*
X0099286Y0072269D02*
X0096984Y0072269D01*
X0095449Y0072269D02*
X0093914Y0072269D01*
X0094682Y0073037D02*
X0094682Y0069967D01*
X0093914Y0069200D01*
X0092380Y0069967D02*
X0092380Y0071502D01*
X0091612Y0072269D01*
X0090078Y0072269D01*
X0089311Y0071502D01*
X0089311Y0069967D01*
X0090078Y0069200D01*
X0091612Y0069200D01*
X0092380Y0069967D01*
X0096984Y0069967D02*
X0097751Y0070735D01*
X0099286Y0070735D01*
X0100053Y0071502D01*
X0099286Y0072269D01*
X0100053Y0069200D02*
X0097751Y0069200D01*
X0096984Y0069967D01*
X0097367Y0064769D02*
X0096600Y0064002D01*
X0096600Y0062467D01*
X0097367Y0061700D01*
X0098902Y0061700D01*
X0099669Y0062467D01*
X0099669Y0064002D01*
X0098902Y0064769D01*
X0097367Y0064769D01*
X0095065Y0064769D02*
X0095065Y0061700D01*
X0095065Y0064769D02*
X0092763Y0064769D01*
X0091996Y0064002D01*
X0091996Y0061700D01*
X0090462Y0062467D02*
X0090462Y0064002D01*
X0089694Y0064769D01*
X0088160Y0064769D01*
X0087392Y0064002D01*
X0087392Y0063235D01*
X0090462Y0063235D01*
X0090462Y0062467D02*
X0089694Y0061700D01*
X0088160Y0061700D01*
X0083556Y0054967D02*
X0083556Y0054200D01*
X0088927Y0075165D02*
X0088927Y0079769D01*
X0086625Y0079769D01*
X0085858Y0079002D01*
X0085858Y0077467D01*
X0079719Y0076700D02*
X0079719Y0079769D01*
X0051550Y0112665D02*
X0051550Y0117269D01*
X0049248Y0117269D01*
X0048481Y0116502D01*
X0048481Y0114967D01*
X0049248Y0114200D01*
X0051550Y0114200D01*
X0053085Y0114200D02*
X0053085Y0116502D01*
X0053852Y0117269D01*
X0054620Y0116502D01*
X0054620Y0114200D01*
X0056154Y0114200D02*
X0056154Y0117269D01*
X0055387Y0117269D01*
X0054620Y0116502D01*
X0057689Y0116502D02*
X0057689Y0114200D01*
X0059991Y0114200D01*
X0060758Y0114967D01*
X0059991Y0115735D01*
X0057689Y0115735D01*
X0057689Y0116502D02*
X0058456Y0117269D01*
X0059991Y0117269D01*
X0062293Y0118037D02*
X0065362Y0114967D01*
X0065362Y0114200D01*
X0062293Y0114200D01*
X0062293Y0118037D02*
X0062293Y0118804D01*
X0065362Y0118804D01*
X0046946Y0116502D02*
X0046946Y0114967D01*
X0046179Y0114200D01*
X0044645Y0114200D01*
X0043877Y0115735D02*
X0046946Y0115735D01*
X0046946Y0116502D02*
X0046179Y0117269D01*
X0044645Y0117269D01*
X0043877Y0116502D01*
X0043877Y0115735D01*
X0042343Y0117269D02*
X0040808Y0117269D01*
X0041575Y0118037D02*
X0041575Y0114967D01*
X0040808Y0114200D01*
X0039273Y0117269D02*
X0037739Y0117269D01*
X0038506Y0118037D02*
X0038506Y0114967D01*
X0037739Y0114200D01*
X0036204Y0114967D02*
X0036204Y0116502D01*
X0035437Y0117269D01*
X0033902Y0117269D01*
X0033135Y0116502D01*
X0033135Y0115735D01*
X0036204Y0115735D01*
X0036204Y0114967D02*
X0035437Y0114200D01*
X0033902Y0114200D01*
X0062194Y0170450D02*
X0061427Y0171217D01*
X0061427Y0174287D01*
X0062194Y0175054D01*
X0063729Y0175054D01*
X0064496Y0174287D01*
X0064496Y0171217D01*
X0063729Y0170450D01*
X0062194Y0170450D01*
X0066031Y0170450D02*
X0067565Y0171985D01*
X0066798Y0171985D02*
X0069100Y0171985D01*
X0069100Y0170450D02*
X0069100Y0175054D01*
X0066798Y0175054D01*
X0066031Y0174287D01*
X0066031Y0172752D01*
X0066798Y0171985D01*
X0070635Y0170450D02*
X0073704Y0170450D01*
X0073704Y0175054D01*
X0070635Y0175054D01*
X0072169Y0172752D02*
X0073704Y0172752D01*
X0075239Y0170450D02*
X0075239Y0175054D01*
X0076773Y0177950D02*
X0076773Y0182554D01*
X0073704Y0182554D01*
X0072169Y0181019D02*
X0071402Y0181019D01*
X0071402Y0177950D01*
X0072169Y0177950D02*
X0070635Y0177950D01*
X0069100Y0177950D02*
X0067565Y0177950D01*
X0068333Y0177950D02*
X0068333Y0182554D01*
X0069100Y0182554D01*
X0071402Y0182554D02*
X0071402Y0183321D01*
X0075239Y0180252D02*
X0076773Y0180252D01*
X0078308Y0175054D02*
X0075239Y0170450D01*
X0078308Y0170450D02*
X0078308Y0175054D01*
X0066031Y0178717D02*
X0065263Y0177950D01*
X0063729Y0177950D01*
X0062961Y0178717D01*
X0062961Y0180252D01*
X0063729Y0181019D01*
X0065263Y0181019D01*
X0066031Y0180252D01*
X0066031Y0178717D01*
X0102344Y0163540D02*
X0102344Y0162772D01*
X0103112Y0162772D01*
X0103112Y0163540D01*
X0102344Y0163540D01*
X0103879Y0161238D02*
X0103879Y0158168D01*
X0103112Y0158168D02*
X0104646Y0158168D01*
X0105414Y0158936D01*
X0105414Y0160470D01*
X0104646Y0161238D01*
X0103879Y0161238D01*
X0102344Y0160470D02*
X0102344Y0158936D01*
X0103112Y0158168D01*
X0105414Y0156634D02*
X0105414Y0155866D01*
X0103879Y0154332D01*
X0102344Y0154332D02*
X0105414Y0154332D01*
X0104646Y0152797D02*
X0103112Y0152797D01*
X0102344Y0152030D01*
X0102344Y0150495D01*
X0103112Y0149728D01*
X0104646Y0149728D01*
X0105414Y0150495D01*
X0105414Y0152030D01*
X0104646Y0152797D01*
X0105414Y0148193D02*
X0105414Y0146659D01*
X0106181Y0147426D02*
X0103112Y0147426D01*
X0102344Y0148193D01*
X0102344Y0145124D02*
X0103112Y0144357D01*
X0106181Y0144357D01*
X0105414Y0145124D02*
X0105414Y0143589D01*
X0104646Y0142055D02*
X0103879Y0142055D01*
X0103879Y0138985D01*
X0103112Y0138985D02*
X0104646Y0138985D01*
X0105414Y0139753D01*
X0105414Y0141287D01*
X0104646Y0142055D01*
X0102344Y0139753D02*
X0103112Y0138985D01*
X0102344Y0139753D02*
X0102344Y0141287D01*
X0102344Y0137451D02*
X0104646Y0137451D01*
X0105414Y0136683D01*
X0105414Y0134381D01*
X0102344Y0134381D01*
X0102344Y0132847D02*
X0104646Y0132847D01*
X0105414Y0132080D01*
X0105414Y0129778D01*
X0102344Y0129778D01*
X0103112Y0128243D02*
X0102344Y0127476D01*
X0102344Y0125941D01*
X0103112Y0125174D01*
X0104646Y0125174D01*
X0105414Y0125941D01*
X0105414Y0127476D01*
X0104646Y0128243D01*
X0103112Y0128243D01*
X0102344Y0123639D02*
X0102344Y0121337D01*
X0103112Y0120570D01*
X0104646Y0120570D01*
X0105414Y0121337D01*
X0105414Y0123639D01*
X0109844Y0122872D02*
X0109844Y0125174D01*
X0110612Y0125941D01*
X0111379Y0125174D01*
X0111379Y0123639D01*
X0112146Y0122872D01*
X0112914Y0123639D01*
X0112914Y0125941D01*
X0112914Y0128243D02*
X0112914Y0129778D01*
X0112146Y0130545D01*
X0109844Y0130545D01*
X0109844Y0128243D01*
X0110612Y0127476D01*
X0111379Y0128243D01*
X0111379Y0130545D01*
X0109844Y0132080D02*
X0109844Y0133614D01*
X0109844Y0132847D02*
X0114448Y0132847D01*
X0114448Y0132080D01*
X0115810Y0131696D02*
X0120414Y0131696D01*
X0120414Y0133998D01*
X0119646Y0134765D01*
X0118112Y0134765D01*
X0117344Y0133998D01*
X0117344Y0131696D01*
X0118112Y0130161D02*
X0117344Y0129394D01*
X0117344Y0127859D01*
X0118112Y0127092D01*
X0119646Y0127092D01*
X0120414Y0127859D01*
X0120414Y0129394D01*
X0119646Y0130161D01*
X0118112Y0130161D01*
X0117344Y0125557D02*
X0117344Y0123255D01*
X0118112Y0122488D01*
X0119646Y0122488D01*
X0120414Y0123255D01*
X0120414Y0125557D01*
X0121948Y0125557D02*
X0117344Y0125557D01*
X0123310Y0122872D02*
X0127914Y0122872D01*
X0127914Y0120570D01*
X0127146Y0119802D01*
X0125612Y0119802D01*
X0124844Y0120570D01*
X0124844Y0122872D01*
X0125612Y0124406D02*
X0124844Y0125174D01*
X0124844Y0127476D01*
X0127914Y0127476D01*
X0127146Y0129010D02*
X0127914Y0129778D01*
X0127914Y0131312D01*
X0127146Y0132080D01*
X0126379Y0132080D01*
X0126379Y0129010D01*
X0125612Y0129010D02*
X0127146Y0129010D01*
X0125612Y0129010D02*
X0124844Y0129778D01*
X0124844Y0131312D01*
X0124844Y0133614D02*
X0124844Y0135916D01*
X0125612Y0136683D01*
X0126379Y0135916D01*
X0126379Y0134381D01*
X0127146Y0133614D01*
X0127914Y0134381D01*
X0127914Y0136683D01*
X0127914Y0138218D02*
X0127914Y0139753D01*
X0128681Y0138985D02*
X0125612Y0138985D01*
X0124844Y0139753D01*
X0125612Y0141287D02*
X0124844Y0142055D01*
X0124844Y0143589D01*
X0125612Y0144357D01*
X0127146Y0144357D01*
X0127914Y0143589D01*
X0127914Y0142055D01*
X0127146Y0141287D01*
X0125612Y0141287D01*
X0120414Y0138602D02*
X0120414Y0137067D01*
X0119646Y0136300D01*
X0118112Y0136300D01*
X0117344Y0137067D01*
X0117344Y0138602D01*
X0118112Y0139369D01*
X0119646Y0139369D01*
X0120414Y0138602D01*
X0114448Y0138218D02*
X0109844Y0138218D01*
X0109844Y0135916D01*
X0110612Y0135149D01*
X0112146Y0135149D01*
X0112914Y0135916D01*
X0112914Y0138218D01*
X0112914Y0140520D02*
X0112914Y0142055D01*
X0112146Y0142822D01*
X0109844Y0142822D01*
X0109844Y0140520D01*
X0110612Y0139753D01*
X0111379Y0140520D01*
X0111379Y0142822D01*
X0112914Y0144357D02*
X0112914Y0145891D01*
X0113681Y0145124D02*
X0110612Y0145124D01*
X0109844Y0145891D01*
X0110612Y0147426D02*
X0109844Y0148193D01*
X0109844Y0149728D01*
X0110612Y0150495D01*
X0112146Y0150495D01*
X0112914Y0149728D01*
X0112914Y0148193D01*
X0112146Y0147426D01*
X0110612Y0147426D01*
X0117344Y0148577D02*
X0117344Y0146275D01*
X0118112Y0145508D01*
X0118879Y0146275D01*
X0118879Y0148577D01*
X0119646Y0148577D02*
X0117344Y0148577D01*
X0119646Y0148577D02*
X0120414Y0147810D01*
X0120414Y0146275D01*
X0120414Y0150112D02*
X0117344Y0151646D01*
X0120414Y0153181D01*
X0119646Y0154715D02*
X0120414Y0155483D01*
X0120414Y0157017D01*
X0119646Y0157785D01*
X0118879Y0157785D01*
X0118879Y0154715D01*
X0118112Y0154715D02*
X0119646Y0154715D01*
X0118112Y0154715D02*
X0117344Y0155483D01*
X0117344Y0157017D01*
X0115216Y0157401D02*
X0114448Y0157401D01*
X0112914Y0157401D02*
X0109844Y0157401D01*
X0109844Y0156634D02*
X0109844Y0158168D01*
X0109844Y0159703D02*
X0109844Y0161238D01*
X0109844Y0160470D02*
X0114448Y0160470D01*
X0114448Y0159703D01*
X0112914Y0157401D02*
X0112914Y0156634D01*
X0117344Y0159319D02*
X0120414Y0159319D01*
X0118879Y0159319D02*
X0120414Y0160854D01*
X0120414Y0161621D01*
X0124844Y0162005D02*
X0125612Y0161238D01*
X0127146Y0161238D01*
X0127914Y0162005D01*
X0127914Y0163540D01*
X0127146Y0164307D01*
X0125612Y0164307D01*
X0124844Y0163540D01*
X0124844Y0162005D01*
X0124844Y0159703D02*
X0125612Y0158936D01*
X0128681Y0158936D01*
X0127914Y0159703D02*
X0127914Y0158168D01*
X0127146Y0156634D02*
X0127914Y0155866D01*
X0127914Y0154332D01*
X0126379Y0154332D02*
X0126379Y0156634D01*
X0127146Y0156634D02*
X0124844Y0156634D01*
X0124844Y0154332D01*
X0125612Y0153564D01*
X0126379Y0154332D01*
X0124844Y0152030D02*
X0124844Y0150495D01*
X0124844Y0151263D02*
X0129448Y0151263D01*
X0129448Y0150495D01*
X0132344Y0150112D02*
X0133112Y0149344D01*
X0134646Y0149344D01*
X0135414Y0150112D01*
X0135414Y0151646D01*
X0134646Y0152413D01*
X0133879Y0152413D01*
X0133879Y0149344D01*
X0132344Y0150112D02*
X0132344Y0151646D01*
X0135414Y0147810D02*
X0135414Y0147042D01*
X0133879Y0145508D01*
X0132344Y0145508D02*
X0135414Y0145508D01*
X0134646Y0143973D02*
X0132344Y0143973D01*
X0132344Y0141671D01*
X0133112Y0140904D01*
X0133879Y0141671D01*
X0133879Y0143973D01*
X0134646Y0143973D02*
X0135414Y0143206D01*
X0135414Y0141671D01*
X0136948Y0138602D02*
X0132344Y0138602D01*
X0132344Y0139369D02*
X0132344Y0137834D01*
X0132344Y0136300D02*
X0132344Y0134765D01*
X0132344Y0135532D02*
X0136948Y0135532D01*
X0136948Y0134765D01*
X0134646Y0133230D02*
X0135414Y0132463D01*
X0135414Y0130929D01*
X0134646Y0130161D01*
X0133112Y0130161D01*
X0132344Y0130929D01*
X0132344Y0132463D01*
X0133112Y0133230D01*
X0134646Y0133230D01*
X0135414Y0128627D02*
X0135414Y0126325D01*
X0134646Y0125557D01*
X0133112Y0125557D01*
X0132344Y0126325D01*
X0132344Y0128627D01*
X0132344Y0124023D02*
X0134646Y0124023D01*
X0135414Y0123255D01*
X0135414Y0120953D01*
X0132344Y0120953D01*
X0132344Y0119419D02*
X0132344Y0117884D01*
X0132344Y0118651D02*
X0136948Y0118651D01*
X0136948Y0117884D02*
X0136948Y0119419D01*
X0127914Y0124406D02*
X0125612Y0124406D01*
X0136948Y0137834D02*
X0136948Y0138602D01*
X0139844Y0137067D02*
X0139844Y0135532D01*
X0140612Y0134765D01*
X0142146Y0134765D01*
X0142914Y0135532D01*
X0142914Y0137067D01*
X0142146Y0137834D01*
X0140612Y0137834D01*
X0139844Y0137067D01*
X0142914Y0139369D02*
X0142914Y0140904D01*
X0143681Y0140136D02*
X0140612Y0140136D01*
X0139844Y0140904D01*
X0140612Y0142438D02*
X0139844Y0143206D01*
X0139844Y0144740D01*
X0140612Y0145508D01*
X0142146Y0145508D01*
X0142914Y0144740D01*
X0142914Y0143206D01*
X0142146Y0142438D01*
X0140612Y0142438D01*
X0141379Y0147042D02*
X0142914Y0148577D01*
X0142914Y0149344D01*
X0142146Y0150879D02*
X0140612Y0150879D01*
X0139844Y0151646D01*
X0139844Y0153181D01*
X0141379Y0153948D02*
X0141379Y0150879D01*
X0142146Y0150879D02*
X0142914Y0151646D01*
X0142914Y0153181D01*
X0142146Y0153948D01*
X0141379Y0153948D01*
X0139844Y0147042D02*
X0142914Y0147042D01*
X0134646Y0158552D02*
X0133112Y0158552D01*
X0132344Y0159319D01*
X0132344Y0161621D01*
X0136948Y0161621D01*
X0135414Y0161621D02*
X0135414Y0159319D01*
X0134646Y0158552D01*
X0133112Y0163156D02*
X0133879Y0163923D01*
X0133879Y0166225D01*
X0134646Y0166225D02*
X0132344Y0166225D01*
X0132344Y0163923D01*
X0133112Y0163156D01*
X0135414Y0163923D02*
X0135414Y0165458D01*
X0134646Y0166225D01*
X0135610Y0170450D02*
X0135610Y0175054D01*
X0133308Y0175054D01*
X0132541Y0174287D01*
X0132541Y0172752D01*
X0133308Y0171985D01*
X0135610Y0171985D01*
X0134075Y0171985D02*
X0132541Y0170450D01*
X0131006Y0171217D02*
X0130239Y0170450D01*
X0128704Y0170450D01*
X0127937Y0171217D01*
X0127937Y0174287D01*
X0128704Y0175054D01*
X0130239Y0175054D01*
X0131006Y0174287D01*
X0131006Y0171217D01*
X0126402Y0171217D02*
X0125635Y0170450D01*
X0124100Y0170450D01*
X0123333Y0171217D01*
X0123333Y0171985D01*
X0124100Y0172752D01*
X0125635Y0172752D01*
X0126402Y0173519D01*
X0126402Y0174287D01*
X0125635Y0175054D01*
X0124100Y0175054D01*
X0123333Y0174287D01*
X0121798Y0174287D02*
X0121031Y0175054D01*
X0119496Y0175054D01*
X0118729Y0174287D01*
X0117194Y0174287D02*
X0117194Y0171217D01*
X0116427Y0170450D01*
X0114892Y0170450D01*
X0114125Y0171217D01*
X0114125Y0174287D01*
X0114892Y0175054D01*
X0116427Y0175054D01*
X0117194Y0174287D01*
X0119496Y0172752D02*
X0118729Y0171985D01*
X0118729Y0171217D01*
X0119496Y0170450D01*
X0121031Y0170450D01*
X0121798Y0171217D01*
X0121031Y0172752D02*
X0119496Y0172752D01*
X0121031Y0172752D02*
X0121798Y0173519D01*
X0121798Y0174287D01*
X0122565Y0177950D02*
X0124100Y0177950D01*
X0123333Y0177950D02*
X0123333Y0182554D01*
X0124100Y0182554D01*
X0126402Y0182554D02*
X0126402Y0183321D01*
X0126402Y0181019D02*
X0126402Y0177950D01*
X0127169Y0177950D02*
X0125635Y0177950D01*
X0126402Y0181019D02*
X0127169Y0181019D01*
X0128704Y0182554D02*
X0131773Y0182554D01*
X0131773Y0177950D01*
X0131773Y0180252D02*
X0130239Y0180252D01*
X0121031Y0180252D02*
X0121031Y0178717D01*
X0120263Y0177950D01*
X0118729Y0177950D01*
X0117961Y0178717D01*
X0117961Y0180252D01*
X0118729Y0181019D01*
X0120263Y0181019D01*
X0121031Y0180252D01*
X0139844Y0133230D02*
X0144448Y0133230D01*
X0142914Y0131696D01*
X0144448Y0130161D01*
X0139844Y0130161D01*
X0124991Y0088804D02*
X0122689Y0088804D01*
X0121922Y0088037D01*
X0121922Y0086502D01*
X0122689Y0085735D01*
X0124991Y0085735D01*
X0124991Y0084200D02*
X0124991Y0088804D01*
X0120387Y0086502D02*
X0120387Y0084967D01*
X0119620Y0084200D01*
X0118085Y0084200D01*
X0117318Y0084967D01*
X0117318Y0086502D01*
X0118085Y0087269D01*
X0119620Y0087269D01*
X0120387Y0086502D01*
X0117318Y0082071D02*
X0117318Y0081304D01*
X0117318Y0079769D02*
X0117318Y0076700D01*
X0118085Y0076700D02*
X0116550Y0076700D01*
X0119620Y0076700D02*
X0120387Y0077467D01*
X0120387Y0080537D01*
X0121154Y0079769D02*
X0119620Y0079769D01*
X0118085Y0079769D02*
X0117318Y0079769D01*
X0115783Y0084200D02*
X0115783Y0087269D01*
X0115783Y0085735D02*
X0114248Y0087269D01*
X0113481Y0087269D01*
X0122689Y0079769D02*
X0124224Y0079769D01*
X0123456Y0080537D02*
X0123456Y0077467D01*
X0122689Y0076700D01*
X0125758Y0076700D02*
X0125758Y0079769D01*
X0125758Y0076700D02*
X0128060Y0076700D01*
X0128828Y0077467D01*
X0128828Y0079769D01*
X0130362Y0081304D02*
X0133431Y0081304D01*
X0131897Y0081304D02*
X0131897Y0076700D01*
X0126909Y0072269D02*
X0124607Y0072269D01*
X0123073Y0072269D02*
X0123073Y0069967D01*
X0122305Y0069200D01*
X0120003Y0069200D01*
X0120003Y0072269D01*
X0124607Y0069967D02*
X0125375Y0070735D01*
X0126909Y0070735D01*
X0127677Y0071502D01*
X0126909Y0072269D01*
X0127677Y0069200D02*
X0125375Y0069200D01*
X0124607Y0069967D01*
X0125758Y0066304D02*
X0124224Y0064769D01*
X0124224Y0061700D01*
X0124224Y0064002D02*
X0127293Y0064002D01*
X0127293Y0064769D02*
X0125758Y0066304D01*
X0127293Y0064769D02*
X0127293Y0061700D01*
X0122689Y0064769D02*
X0121154Y0064769D01*
X0121922Y0065537D02*
X0121922Y0062467D01*
X0121154Y0061700D01*
X0118852Y0062467D02*
X0118085Y0061700D01*
X0118852Y0062467D02*
X0118852Y0065537D01*
X0118085Y0064769D02*
X0119620Y0064769D01*
X0116550Y0064002D02*
X0116550Y0062467D01*
X0115783Y0061700D01*
X0114248Y0061700D01*
X0113481Y0063235D02*
X0116550Y0063235D01*
X0116550Y0064002D02*
X0115783Y0064769D01*
X0114248Y0064769D01*
X0113481Y0064002D01*
X0113481Y0063235D01*
X0134326Y0039735D02*
X0136497Y0037564D01*
X0136497Y0036479D01*
X0134326Y0035394D02*
X0134326Y0034309D01*
X0134326Y0035394D02*
X0132156Y0037564D01*
X0133241Y0037564D02*
X0132156Y0036479D01*
X0131613Y0034852D02*
X0132699Y0033766D01*
X0132699Y0032681D01*
X0131613Y0031596D01*
X0130528Y0031596D01*
X0129443Y0032681D01*
X0129443Y0033766D01*
X0130528Y0034852D01*
X0131613Y0034852D01*
X0134326Y0038650D02*
X0135411Y0039735D01*
X0136497Y0040820D02*
X0138667Y0038650D01*
X0140295Y0040277D01*
X0140295Y0041363D01*
X0138667Y0042990D01*
X0139752Y0044075D02*
X0140295Y0044618D01*
X0142465Y0044618D01*
X0143550Y0043533D02*
X0141380Y0045703D01*
X0142465Y0046788D02*
X0143008Y0047331D01*
X0145178Y0047331D01*
X0146263Y0048416D02*
X0145720Y0048959D01*
X0145720Y0050044D01*
X0146806Y0051129D01*
X0147891Y0051129D01*
X0148976Y0050044D01*
X0148976Y0048959D01*
X0147891Y0047873D01*
X0146263Y0048416D02*
X0148433Y0050586D01*
X0150604Y0050586D02*
X0150604Y0051672D01*
X0148433Y0053842D01*
X0149518Y0053842D02*
X0148433Y0052757D01*
X0151146Y0054384D02*
X0151146Y0055470D01*
X0152774Y0057097D01*
X0154944Y0054927D01*
X0156029Y0056012D02*
X0157114Y0057097D01*
X0156572Y0056555D02*
X0153316Y0059810D01*
X0152774Y0059268D02*
X0153859Y0060353D01*
X0151146Y0054384D02*
X0152774Y0052757D01*
X0146263Y0046246D02*
X0144093Y0048416D01*
X0127815Y0032139D02*
X0129986Y0029968D01*
X0128901Y0031054D02*
X0126730Y0031054D01*
X0126188Y0030511D01*
X0125645Y0028883D02*
X0124560Y0028883D01*
X0123475Y0027798D01*
X0123475Y0026713D01*
X0124017Y0026170D01*
X0126188Y0028341D01*
X0126730Y0027798D02*
X0125645Y0028883D01*
X0126730Y0027798D02*
X0126730Y0026713D01*
X0125645Y0025628D01*
D11*
X0053273Y0082352D03*
X0041009Y0079183D03*
X0041009Y0085659D03*
X0029021Y0082352D03*
X0024918Y0078592D03*
X0024918Y0065777D03*
X0024918Y0092234D03*
X0024918Y0101742D03*
D12*
X0021611Y0103671D03*
X0024642Y0097332D03*
X0021748Y0091958D03*
X0021611Y0091958D03*
X0024504Y0090167D03*
X0024642Y0090167D03*
X0029159Y0082352D03*
X0024504Y0076387D03*
X0024504Y0074596D03*
X0023264Y0072116D03*
X0024918Y0071565D03*
X0021611Y0067844D03*
X0021473Y0065639D03*
X0021335Y0065639D03*
X0024504Y0063710D03*
X0024642Y0063710D03*
X0025745Y0058750D03*
X0025469Y0058612D03*
X0025331Y0058612D03*
X0025193Y0058474D03*
X0025056Y0058474D03*
X0024918Y0058474D03*
X0024091Y0058474D03*
X0023953Y0058474D03*
X0023815Y0058474D03*
X0023678Y0058474D03*
X0023402Y0058612D03*
X0023264Y0058612D03*
X0022989Y0058750D03*
X0040183Y0079321D03*
X0040183Y0085522D03*
X0040045Y0085522D03*
X0053135Y0082352D03*
X0038942Y0101919D03*
D13*
X0043076Y0102057D03*
X0039356Y0085384D03*
X0039218Y0085384D03*
X0039356Y0079459D03*
X0039494Y0079459D03*
X0029297Y0082352D03*
X0024780Y0071565D03*
X0022989Y0071702D03*
X0021473Y0068395D03*
X0024642Y0068395D03*
X0024780Y0094439D03*
X0024642Y0104222D03*
X0052997Y0082352D03*
D14*
X0052860Y0082352D03*
X0038529Y0079596D03*
X0038391Y0079596D03*
X0038391Y0085246D03*
X0038529Y0085246D03*
X0038529Y0088553D03*
X0038667Y0088553D03*
X0038391Y0088553D03*
X0038253Y0088553D03*
X0038116Y0088553D03*
X0029434Y0082352D03*
X0024642Y0086033D03*
X0022989Y0081348D03*
X0024780Y0075561D03*
X0027398Y0061092D03*
X0021335Y0061092D03*
X0039356Y0102195D03*
X0022989Y0107391D03*
D15*
X0040871Y0088277D03*
X0041009Y0088277D03*
X0041147Y0088277D03*
X0041285Y0088277D03*
X0041423Y0088277D03*
X0037702Y0085108D03*
X0037564Y0085108D03*
X0040045Y0082490D03*
X0037702Y0079734D03*
X0037564Y0079734D03*
X0029572Y0082352D03*
X0027122Y0060817D03*
X0021611Y0060817D03*
X0052722Y0082352D03*
D16*
X0052584Y0082352D03*
X0042387Y0088002D03*
X0036875Y0084970D03*
X0036738Y0084970D03*
X0040596Y0082490D03*
X0036875Y0079872D03*
X0036738Y0079872D03*
X0029710Y0082352D03*
X0042387Y0102608D03*
D17*
X0040045Y0102746D03*
X0029848Y0082352D03*
X0052446Y0082352D03*
D18*
X0052308Y0082352D03*
X0040320Y0103022D03*
X0029986Y0082352D03*
D19*
X0030123Y0082352D03*
X0036462Y0069537D03*
X0036600Y0069262D03*
X0036738Y0068986D03*
X0052171Y0082352D03*
D20*
X0052033Y0082352D03*
X0046108Y0070502D03*
X0044868Y0068022D03*
X0030261Y0082352D03*
X0041423Y0103435D03*
D21*
X0041147Y0103711D03*
X0030399Y0082352D03*
X0038253Y0074360D03*
X0037978Y0067057D03*
X0044316Y0067195D03*
X0051895Y0082352D03*
D22*
X0051757Y0082352D03*
X0038805Y0074222D03*
X0038391Y0066506D03*
X0043903Y0066644D03*
X0030537Y0082352D03*
X0036324Y0093927D03*
D23*
X0036600Y0094203D03*
X0030675Y0082352D03*
X0039356Y0074085D03*
X0039494Y0074085D03*
X0039631Y0074085D03*
X0038805Y0065955D03*
X0043490Y0066092D03*
X0051620Y0082352D03*
D24*
X0051482Y0082352D03*
X0041285Y0074085D03*
X0041147Y0074085D03*
X0041009Y0074085D03*
X0040871Y0074085D03*
X0040734Y0074085D03*
X0039080Y0065679D03*
X0030812Y0082352D03*
X0036875Y0094478D03*
D25*
X0037151Y0094754D03*
X0030950Y0082352D03*
X0039494Y0065128D03*
X0042663Y0065128D03*
X0042801Y0065266D03*
X0051344Y0082352D03*
D26*
X0051206Y0082352D03*
X0037427Y0095029D03*
X0031088Y0082352D03*
X0039769Y0064852D03*
X0042387Y0064852D03*
D27*
X0051068Y0082352D03*
X0042112Y0095305D03*
X0041974Y0095305D03*
X0041836Y0095305D03*
X0041698Y0095305D03*
X0041560Y0095305D03*
X0041423Y0095305D03*
X0041285Y0095305D03*
X0040872Y0095305D03*
X0040734Y0095305D03*
X0040596Y0095305D03*
X0040458Y0095305D03*
X0040320Y0095305D03*
X0040183Y0095305D03*
X0040045Y0095305D03*
X0039907Y0095305D03*
X0037702Y0095305D03*
X0031226Y0082352D03*
D28*
X0031364Y0082352D03*
X0037978Y0095581D03*
X0038529Y0095581D03*
X0043490Y0095581D03*
X0050931Y0082352D03*
D29*
X0050793Y0082352D03*
X0031501Y0082352D03*
D30*
X0031639Y0082283D03*
X0041009Y0063543D03*
X0041147Y0063543D03*
D31*
X0031777Y0082283D03*
D32*
X0031915Y0082283D03*
D33*
X0032053Y0082283D03*
D34*
X0032190Y0082283D03*
D35*
X0032328Y0082283D03*
D36*
X0032466Y0082283D03*
D37*
X0032604Y0082283D03*
D38*
X0032742Y0082283D03*
D39*
X0032879Y0082283D03*
D40*
X0033017Y0082283D03*
D41*
X0033155Y0082283D03*
X0044592Y0081043D03*
D42*
X0044316Y0080768D03*
X0033293Y0082283D03*
D43*
X0033431Y0082283D03*
X0043903Y0080492D03*
D44*
X0043214Y0080216D03*
X0033568Y0082283D03*
D45*
X0033706Y0082283D03*
D46*
X0033844Y0082283D03*
D47*
X0033982Y0082283D03*
D48*
X0034120Y0082283D03*
D49*
X0034257Y0082283D03*
D50*
X0034395Y0082283D03*
D51*
X0034533Y0082283D03*
D52*
X0034671Y0082283D03*
D53*
X0034808Y0082283D03*
D54*
X0034946Y0082283D03*
D55*
X0035084Y0082283D03*
D56*
X0035222Y0082283D03*
D57*
X0035360Y0082283D03*
D58*
X0035497Y0082283D03*
D59*
X0035635Y0082283D03*
D60*
X0035773Y0082283D03*
D61*
X0035911Y0082283D03*
D62*
X0036049Y0082283D03*
D63*
X0042387Y0082421D03*
X0036186Y0070295D03*
X0037289Y0068090D03*
X0037427Y0067815D03*
X0045005Y0068228D03*
X0040734Y0103366D03*
D64*
X0036600Y0088760D03*
X0036462Y0088760D03*
X0036324Y0088760D03*
X0036186Y0088760D03*
X0038942Y0085315D03*
X0039080Y0085315D03*
X0039080Y0082421D03*
X0038942Y0082421D03*
X0039080Y0079527D03*
X0039218Y0079527D03*
X0036462Y0076083D03*
X0036324Y0076083D03*
X0036186Y0076083D03*
X0024780Y0081004D03*
X0027536Y0061299D03*
X0026709Y0059783D03*
X0021197Y0061299D03*
X0021473Y0104153D03*
X0024780Y0107047D03*
D65*
X0042112Y0102815D03*
X0045281Y0096476D03*
X0036186Y0084764D03*
X0036186Y0080079D03*
X0041285Y0082421D03*
X0041423Y0082421D03*
D66*
X0038529Y0074222D03*
X0036186Y0093789D03*
D67*
X0040596Y0103228D03*
X0041560Y0103366D03*
X0042249Y0082421D03*
X0037702Y0074705D03*
X0036324Y0069882D03*
X0036875Y0068779D03*
X0037013Y0068504D03*
X0045419Y0068917D03*
X0045557Y0069193D03*
X0045694Y0069468D03*
X0045832Y0069744D03*
D68*
X0036324Y0079941D03*
X0036324Y0084901D03*
X0041009Y0082421D03*
X0041147Y0082421D03*
X0045419Y0096338D03*
D69*
X0042249Y0102746D03*
X0039907Y0102608D03*
X0036600Y0084970D03*
X0036462Y0084970D03*
X0036462Y0079872D03*
X0036600Y0079872D03*
D70*
X0039218Y0074085D03*
X0036462Y0094065D03*
D71*
X0036738Y0088691D03*
X0036875Y0088691D03*
X0037013Y0088691D03*
X0037151Y0088691D03*
X0037289Y0088691D03*
X0038942Y0079596D03*
X0037151Y0076151D03*
X0037013Y0076151D03*
X0036875Y0076151D03*
X0036738Y0076151D03*
X0036600Y0076151D03*
X0024642Y0071565D03*
X0021886Y0059990D03*
X0024780Y0085895D03*
X0039218Y0102057D03*
X0042938Y0102195D03*
D72*
X0036738Y0094340D03*
X0040045Y0074085D03*
X0038942Y0065817D03*
X0043352Y0065955D03*
D73*
X0037151Y0079803D03*
X0037013Y0079803D03*
X0040458Y0082421D03*
X0037151Y0085039D03*
X0037013Y0085039D03*
X0042249Y0088071D03*
X0045694Y0096063D03*
X0039769Y0102539D03*
D74*
X0037013Y0094616D03*
X0042249Y0074360D03*
X0041974Y0074222D03*
X0042938Y0065403D03*
D75*
X0045143Y0068435D03*
X0045281Y0068711D03*
X0045970Y0070088D03*
X0037151Y0068297D03*
X0037840Y0074636D03*
D76*
X0037289Y0076220D03*
X0038667Y0079527D03*
X0038805Y0079527D03*
X0039218Y0082421D03*
X0039356Y0082421D03*
X0038805Y0085315D03*
X0038667Y0085315D03*
X0037978Y0088622D03*
X0037840Y0088622D03*
X0037702Y0088622D03*
X0037564Y0088622D03*
X0037427Y0088622D03*
X0024642Y0094507D03*
X0023264Y0094783D03*
X0023126Y0094783D03*
X0022989Y0094783D03*
X0024642Y0107047D03*
X0023264Y0107460D03*
X0023126Y0107460D03*
X0023126Y0081417D03*
X0023264Y0081417D03*
X0024642Y0081004D03*
X0023126Y0076456D03*
X0022989Y0076456D03*
X0021335Y0075492D03*
X0026847Y0060059D03*
D77*
X0026985Y0060679D03*
X0021748Y0060679D03*
X0037289Y0079734D03*
X0040320Y0082490D03*
X0037427Y0085108D03*
X0037289Y0085108D03*
X0042112Y0088140D03*
X0042525Y0102470D03*
D78*
X0037289Y0094892D03*
X0039631Y0064990D03*
X0042525Y0064990D03*
D79*
X0037427Y0075118D03*
X0041560Y0082421D03*
X0041698Y0082421D03*
X0045143Y0096614D03*
X0041974Y0102953D03*
X0024780Y0060059D03*
X0024642Y0060059D03*
X0024504Y0060059D03*
X0024367Y0060059D03*
X0024229Y0060059D03*
D80*
X0037427Y0079803D03*
X0040183Y0082421D03*
X0041560Y0088209D03*
X0041698Y0088209D03*
X0041836Y0088209D03*
X0041974Y0088209D03*
X0045832Y0095925D03*
X0039631Y0102402D03*
D81*
X0040871Y0103504D03*
X0037978Y0074567D03*
X0037564Y0067677D03*
X0044730Y0067815D03*
D82*
X0037564Y0074911D03*
X0040458Y0103159D03*
D83*
X0038667Y0101712D03*
X0043490Y0101850D03*
X0041147Y0085590D03*
X0037702Y0082421D03*
X0037564Y0082421D03*
X0041147Y0079252D03*
X0024091Y0076732D03*
X0024091Y0061988D03*
D84*
X0039907Y0064714D03*
X0042249Y0064714D03*
X0037564Y0095167D03*
D85*
X0041285Y0103573D03*
X0038116Y0074498D03*
X0037702Y0067470D03*
X0044592Y0067608D03*
D86*
X0044454Y0067401D03*
X0037840Y0067264D03*
X0041009Y0103642D03*
D87*
X0039494Y0102264D03*
X0042663Y0102401D03*
X0045970Y0095787D03*
X0040734Y0088346D03*
X0040596Y0088346D03*
X0040458Y0088346D03*
X0040320Y0088346D03*
X0040183Y0088346D03*
X0037978Y0085177D03*
X0037840Y0085177D03*
X0039769Y0082421D03*
X0039907Y0082421D03*
X0037978Y0079665D03*
X0037840Y0079665D03*
X0024642Y0075492D03*
X0021473Y0075492D03*
X0021473Y0060885D03*
D88*
X0021473Y0063504D03*
X0021611Y0063504D03*
X0021748Y0063504D03*
X0021886Y0063504D03*
X0022024Y0063504D03*
X0022162Y0063504D03*
X0022300Y0063504D03*
X0022437Y0063504D03*
X0022575Y0063504D03*
X0022713Y0063504D03*
X0022851Y0063504D03*
X0022989Y0063504D03*
X0023126Y0063504D03*
X0023264Y0063504D03*
X0023402Y0063504D03*
X0023540Y0063504D03*
X0023678Y0063504D03*
X0023815Y0063504D03*
X0023953Y0063504D03*
X0024091Y0063504D03*
X0024229Y0063504D03*
X0024229Y0064055D03*
X0023953Y0064193D03*
X0023678Y0064330D03*
X0023402Y0064468D03*
X0023126Y0064606D03*
X0022851Y0064744D03*
X0022575Y0064881D03*
X0022300Y0065019D03*
X0022024Y0065157D03*
X0022024Y0065846D03*
X0021886Y0065846D03*
X0022162Y0065846D03*
X0022300Y0065846D03*
X0022437Y0065846D03*
X0022575Y0065846D03*
X0022713Y0065846D03*
X0022851Y0065846D03*
X0022989Y0065846D03*
X0023126Y0065846D03*
X0023264Y0065846D03*
X0023402Y0065846D03*
X0023540Y0065846D03*
X0023678Y0065846D03*
X0023815Y0065846D03*
X0023953Y0065846D03*
X0024091Y0065846D03*
X0024229Y0065846D03*
X0024367Y0065846D03*
X0024504Y0065846D03*
X0024642Y0065846D03*
X0024780Y0065846D03*
X0023815Y0067224D03*
X0023540Y0067086D03*
X0023402Y0067086D03*
X0022851Y0067086D03*
X0022713Y0067086D03*
X0022575Y0067086D03*
X0022300Y0067224D03*
X0022024Y0067362D03*
X0022024Y0070531D03*
X0021886Y0070531D03*
X0021748Y0070531D03*
X0021611Y0070531D03*
X0021473Y0070531D03*
X0021335Y0070531D03*
X0021197Y0070531D03*
X0022162Y0070531D03*
X0022300Y0070531D03*
X0022437Y0070531D03*
X0022575Y0070531D03*
X0022713Y0070531D03*
X0022851Y0070531D03*
X0022989Y0070531D03*
X0023126Y0070531D03*
X0023264Y0070531D03*
X0023402Y0070531D03*
X0023540Y0070531D03*
X0023678Y0070531D03*
X0023815Y0070531D03*
X0023953Y0070531D03*
X0024229Y0070669D03*
X0024229Y0072460D03*
X0024091Y0072460D03*
X0023953Y0072460D03*
X0023815Y0072460D03*
X0023678Y0072460D03*
X0023126Y0073700D03*
X0022989Y0073700D03*
X0022575Y0073838D03*
X0022437Y0073838D03*
X0022162Y0073976D03*
X0022162Y0072598D03*
X0022300Y0072598D03*
X0022024Y0072598D03*
X0021886Y0072598D03*
X0021748Y0072598D03*
X0021611Y0072598D03*
X0021473Y0072598D03*
X0021335Y0072598D03*
X0021197Y0072598D03*
X0023540Y0073838D03*
X0023678Y0073838D03*
X0023953Y0073976D03*
X0024091Y0074114D03*
X0024229Y0076732D03*
X0022851Y0077145D03*
X0022713Y0077145D03*
X0022575Y0077145D03*
X0022437Y0077145D03*
X0022162Y0077007D03*
X0022162Y0078523D03*
X0022300Y0078523D03*
X0022437Y0078523D03*
X0022575Y0078523D03*
X0022713Y0078523D03*
X0022851Y0078523D03*
X0022989Y0078523D03*
X0023126Y0078523D03*
X0023264Y0078523D03*
X0023402Y0078523D03*
X0023540Y0078523D03*
X0023678Y0078523D03*
X0023815Y0078523D03*
X0023953Y0078523D03*
X0024091Y0078523D03*
X0024229Y0078523D03*
X0024367Y0078523D03*
X0024504Y0078523D03*
X0024642Y0078523D03*
X0024780Y0078523D03*
X0024091Y0080039D03*
X0023953Y0080039D03*
X0023678Y0079901D03*
X0023540Y0079901D03*
X0023402Y0079901D03*
X0023264Y0079901D03*
X0023126Y0079901D03*
X0022989Y0079901D03*
X0022851Y0079901D03*
X0022713Y0079901D03*
X0022575Y0079901D03*
X0022437Y0079901D03*
X0022300Y0079901D03*
X0022162Y0079901D03*
X0022024Y0079901D03*
X0021886Y0079901D03*
X0021748Y0079901D03*
X0021611Y0079901D03*
X0021473Y0079901D03*
X0021335Y0079901D03*
X0021197Y0079901D03*
X0021197Y0078523D03*
X0021335Y0078523D03*
X0021473Y0078523D03*
X0021611Y0078523D03*
X0021748Y0078523D03*
X0021886Y0078523D03*
X0022024Y0078523D03*
X0024367Y0080177D03*
X0024367Y0081830D03*
X0024229Y0081968D03*
X0024091Y0081968D03*
X0023815Y0082106D03*
X0023678Y0082106D03*
X0023540Y0082106D03*
X0023402Y0082106D03*
X0022851Y0082106D03*
X0022713Y0082106D03*
X0022575Y0082106D03*
X0022437Y0082106D03*
X0022300Y0082106D03*
X0022162Y0082106D03*
X0022024Y0082106D03*
X0021886Y0082106D03*
X0021748Y0082106D03*
X0021611Y0082106D03*
X0021473Y0082106D03*
X0021335Y0082106D03*
X0021197Y0082106D03*
X0021197Y0085275D03*
X0021335Y0085275D03*
X0021473Y0085275D03*
X0021611Y0085275D03*
X0021748Y0085275D03*
X0021886Y0085275D03*
X0022024Y0085275D03*
X0022162Y0085275D03*
X0022300Y0085275D03*
X0022437Y0085275D03*
X0022575Y0085275D03*
X0022713Y0085275D03*
X0022851Y0085275D03*
X0022989Y0085275D03*
X0023126Y0085275D03*
X0023264Y0085275D03*
X0023402Y0085275D03*
X0023540Y0085275D03*
X0023678Y0085275D03*
X0023815Y0085275D03*
X0023953Y0085275D03*
X0024091Y0085275D03*
X0024229Y0085275D03*
X0024367Y0085275D03*
X0024504Y0085275D03*
X0023953Y0087342D03*
X0023678Y0087480D03*
X0023264Y0087618D03*
X0023126Y0087618D03*
X0022989Y0087618D03*
X0022851Y0087618D03*
X0022713Y0087618D03*
X0022437Y0087480D03*
X0022300Y0087480D03*
X0022162Y0087342D03*
X0022162Y0088720D03*
X0022300Y0088720D03*
X0022437Y0088720D03*
X0022575Y0088720D03*
X0022713Y0088720D03*
X0022851Y0088720D03*
X0022989Y0088720D03*
X0023126Y0088720D03*
X0023264Y0088720D03*
X0023402Y0088720D03*
X0023540Y0088720D03*
X0023678Y0088720D03*
X0023815Y0088720D03*
X0023953Y0088720D03*
X0024091Y0088720D03*
X0024229Y0088720D03*
X0024367Y0088720D03*
X0024504Y0088720D03*
X0024642Y0088720D03*
X0024780Y0088720D03*
X0024918Y0088720D03*
X0024918Y0090098D03*
X0024229Y0089960D03*
X0024091Y0089960D03*
X0023953Y0089960D03*
X0023815Y0089960D03*
X0023678Y0089960D03*
X0023540Y0089960D03*
X0023402Y0089960D03*
X0023264Y0089960D03*
X0023126Y0089960D03*
X0022989Y0089960D03*
X0022851Y0089960D03*
X0022713Y0089960D03*
X0022575Y0089960D03*
X0022437Y0089960D03*
X0022300Y0089960D03*
X0022162Y0089960D03*
X0022024Y0089960D03*
X0021886Y0089960D03*
X0021748Y0089960D03*
X0021611Y0089960D03*
X0021473Y0089960D03*
X0021335Y0089960D03*
X0021197Y0089960D03*
X0021197Y0088720D03*
X0021335Y0088720D03*
X0021473Y0088720D03*
X0021611Y0088720D03*
X0021748Y0088720D03*
X0021886Y0088720D03*
X0022024Y0088720D03*
X0023126Y0091063D03*
X0022851Y0091200D03*
X0022575Y0091338D03*
X0022300Y0091476D03*
X0022024Y0091614D03*
X0022024Y0092165D03*
X0022162Y0092165D03*
X0022300Y0092165D03*
X0022437Y0092165D03*
X0022575Y0092165D03*
X0022713Y0092165D03*
X0022851Y0092165D03*
X0022989Y0092165D03*
X0023126Y0092165D03*
X0023264Y0092165D03*
X0023402Y0092165D03*
X0023540Y0092165D03*
X0023678Y0092165D03*
X0023815Y0092165D03*
X0023953Y0092165D03*
X0024091Y0092165D03*
X0024229Y0092165D03*
X0024367Y0092165D03*
X0024504Y0092165D03*
X0024642Y0092165D03*
X0024780Y0092165D03*
X0024229Y0093543D03*
X0023953Y0093405D03*
X0023815Y0093405D03*
X0023678Y0093405D03*
X0023540Y0093405D03*
X0023402Y0093405D03*
X0023264Y0093405D03*
X0023126Y0093405D03*
X0022989Y0093405D03*
X0022851Y0093405D03*
X0022713Y0093405D03*
X0022575Y0093405D03*
X0022437Y0093405D03*
X0022300Y0093405D03*
X0022162Y0093405D03*
X0022024Y0093405D03*
X0021886Y0093405D03*
X0021748Y0093405D03*
X0021611Y0093405D03*
X0021473Y0093405D03*
X0021335Y0093405D03*
X0021197Y0093405D03*
X0021197Y0095472D03*
X0021335Y0095472D03*
X0021473Y0095472D03*
X0021611Y0095472D03*
X0021748Y0095472D03*
X0021886Y0095472D03*
X0022024Y0095472D03*
X0022162Y0095472D03*
X0022300Y0095472D03*
X0022437Y0095472D03*
X0022575Y0095472D03*
X0022713Y0095472D03*
X0022851Y0095472D03*
X0023402Y0095472D03*
X0023540Y0095472D03*
X0023678Y0095472D03*
X0023815Y0095472D03*
X0023953Y0095472D03*
X0024091Y0095472D03*
X0024091Y0097126D03*
X0024229Y0097126D03*
X0023953Y0097126D03*
X0023815Y0097126D03*
X0023678Y0097126D03*
X0023402Y0096988D03*
X0023264Y0096988D03*
X0023126Y0096988D03*
X0022989Y0096988D03*
X0022851Y0096988D03*
X0022713Y0096988D03*
X0022575Y0096988D03*
X0022300Y0096850D03*
X0022162Y0096850D03*
X0022024Y0096850D03*
X0021886Y0096850D03*
X0021748Y0096850D03*
X0021611Y0096850D03*
X0021473Y0096850D03*
X0022300Y0098228D03*
X0022437Y0098228D03*
X0022575Y0098228D03*
X0022851Y0098090D03*
X0022989Y0098090D03*
X0023264Y0097952D03*
X0023402Y0097952D03*
X0023678Y0097815D03*
X0023815Y0097815D03*
X0023953Y0097815D03*
X0024229Y0097677D03*
X0024918Y0097401D03*
X0023953Y0099468D03*
X0023815Y0099468D03*
X0023678Y0099468D03*
X0023540Y0099330D03*
X0023402Y0099330D03*
X0023264Y0099330D03*
X0022989Y0099193D03*
X0022851Y0099193D03*
X0022575Y0099055D03*
X0022437Y0099055D03*
X0022300Y0099055D03*
X0022162Y0098917D03*
X0022024Y0098917D03*
X0022024Y0098366D03*
X0022162Y0098366D03*
X0021335Y0098641D03*
X0021197Y0098641D03*
X0021473Y0100433D03*
X0021611Y0100433D03*
X0021748Y0100433D03*
X0021886Y0100433D03*
X0022024Y0100433D03*
X0022162Y0100433D03*
X0022575Y0100295D03*
X0022713Y0100295D03*
X0022851Y0100295D03*
X0022989Y0100295D03*
X0023126Y0100295D03*
X0023264Y0100295D03*
X0023402Y0100295D03*
X0023678Y0100157D03*
X0023815Y0100157D03*
X0023953Y0100157D03*
X0024091Y0100157D03*
X0024229Y0100157D03*
X0024229Y0099606D03*
X0024918Y0099881D03*
X0024780Y0101673D03*
X0024642Y0101673D03*
X0024504Y0101673D03*
X0024367Y0101673D03*
X0024229Y0101673D03*
X0024091Y0101673D03*
X0023953Y0101673D03*
X0023815Y0101673D03*
X0023678Y0101673D03*
X0023540Y0101673D03*
X0023402Y0101673D03*
X0023264Y0101673D03*
X0023126Y0101673D03*
X0022989Y0101673D03*
X0022851Y0101673D03*
X0022713Y0101673D03*
X0022575Y0101673D03*
X0022437Y0101673D03*
X0022300Y0101673D03*
X0022162Y0101673D03*
X0022024Y0101673D03*
X0021886Y0101673D03*
X0021748Y0101673D03*
X0021611Y0101673D03*
X0021473Y0101673D03*
X0021335Y0101673D03*
X0021197Y0101673D03*
X0022162Y0103051D03*
X0022437Y0102913D03*
X0022575Y0102913D03*
X0022851Y0102775D03*
X0022989Y0102775D03*
X0023126Y0102775D03*
X0023540Y0102913D03*
X0023678Y0102913D03*
X0024091Y0103189D03*
X0023678Y0105944D03*
X0023540Y0105944D03*
X0023402Y0105944D03*
X0023264Y0105944D03*
X0023126Y0105944D03*
X0022989Y0105944D03*
X0022851Y0105944D03*
X0022713Y0105944D03*
X0022575Y0105944D03*
X0022437Y0105944D03*
X0022300Y0105944D03*
X0022162Y0105944D03*
X0022024Y0105944D03*
X0021886Y0105944D03*
X0021748Y0105944D03*
X0021611Y0105944D03*
X0021473Y0105944D03*
X0021335Y0105944D03*
X0021197Y0105944D03*
X0021197Y0108149D03*
X0021335Y0108149D03*
X0021473Y0108149D03*
X0021611Y0108149D03*
X0021748Y0108149D03*
X0021886Y0108149D03*
X0022024Y0108149D03*
X0022162Y0108149D03*
X0022300Y0108149D03*
X0022437Y0108149D03*
X0022575Y0108149D03*
X0022713Y0108149D03*
X0022851Y0108149D03*
X0023402Y0108149D03*
X0023540Y0108149D03*
X0023678Y0108149D03*
X0023815Y0108149D03*
X0024091Y0108011D03*
X0024367Y0107874D03*
X0024367Y0106220D03*
X0024091Y0106082D03*
X0023953Y0106082D03*
X0023402Y0090925D03*
X0023678Y0090787D03*
X0023953Y0090649D03*
X0024229Y0090511D03*
X0037840Y0082421D03*
X0037978Y0082421D03*
X0040734Y0079252D03*
X0040871Y0079252D03*
X0040871Y0085590D03*
X0040734Y0085590D03*
X0024918Y0063641D03*
X0021335Y0063504D03*
X0021197Y0063504D03*
D89*
X0037840Y0095443D03*
X0038942Y0095443D03*
X0039080Y0095443D03*
X0039218Y0095443D03*
X0042801Y0095443D03*
X0042938Y0095443D03*
D90*
X0043352Y0101919D03*
X0038805Y0101781D03*
X0024918Y0104635D03*
X0024229Y0106151D03*
X0023815Y0106013D03*
X0024504Y0107805D03*
X0024229Y0107943D03*
X0023953Y0108080D03*
X0023953Y0103120D03*
X0023815Y0102982D03*
X0023402Y0102844D03*
X0023264Y0102844D03*
X0022713Y0102844D03*
X0022300Y0102982D03*
X0022024Y0103120D03*
X0021886Y0103257D03*
X0021748Y0103395D03*
X0021335Y0100502D03*
X0021197Y0100502D03*
X0022300Y0100364D03*
X0022437Y0100364D03*
X0023540Y0100226D03*
X0024091Y0099537D03*
X0023126Y0099261D03*
X0022713Y0099124D03*
X0022713Y0098159D03*
X0023126Y0098021D03*
X0023540Y0097883D03*
X0024091Y0097746D03*
X0023540Y0097057D03*
X0022437Y0096919D03*
X0021335Y0096781D03*
X0021197Y0096781D03*
X0024229Y0095403D03*
X0024367Y0095265D03*
X0024504Y0095128D03*
X0024504Y0093750D03*
X0024367Y0093612D03*
X0024091Y0093474D03*
X0022437Y0091407D03*
X0022162Y0091545D03*
X0022713Y0091269D03*
X0022989Y0091131D03*
X0023264Y0090994D03*
X0023540Y0090856D03*
X0023815Y0090718D03*
X0024091Y0090580D03*
X0023540Y0087549D03*
X0023402Y0087549D03*
X0023815Y0087411D03*
X0024091Y0087273D03*
X0024229Y0087135D03*
X0022575Y0087549D03*
X0022024Y0087273D03*
X0021886Y0087135D03*
X0021748Y0086998D03*
X0023953Y0082037D03*
X0024504Y0081761D03*
X0024229Y0080108D03*
X0023815Y0079970D03*
X0022300Y0077076D03*
X0022024Y0076939D03*
X0021886Y0076801D03*
X0021748Y0076663D03*
X0021748Y0074320D03*
X0021886Y0074183D03*
X0022024Y0074045D03*
X0022300Y0073907D03*
X0022713Y0073769D03*
X0022851Y0073769D03*
X0023264Y0073769D03*
X0023402Y0073769D03*
X0023815Y0073907D03*
X0024229Y0074183D03*
X0024367Y0072391D03*
X0024504Y0072254D03*
X0023540Y0072391D03*
X0023402Y0072254D03*
X0022713Y0072391D03*
X0022575Y0072529D03*
X0022437Y0072529D03*
X0024091Y0070600D03*
X0024367Y0070738D03*
X0024504Y0070876D03*
X0024918Y0068809D03*
X0024229Y0067569D03*
X0024091Y0067431D03*
X0023953Y0067293D03*
X0023678Y0067155D03*
X0022437Y0067155D03*
X0022162Y0067293D03*
X0021886Y0067431D03*
X0021197Y0065639D03*
X0021886Y0065226D03*
X0022162Y0065088D03*
X0022437Y0064950D03*
X0022713Y0064813D03*
X0022989Y0064675D03*
X0023264Y0064537D03*
X0023540Y0064399D03*
X0023815Y0064261D03*
X0024091Y0064124D03*
X0024367Y0076663D03*
X0021197Y0092096D03*
X0040458Y0085522D03*
X0040596Y0085522D03*
X0040596Y0079321D03*
X0040458Y0079321D03*
D91*
X0040320Y0079390D03*
X0038253Y0082421D03*
X0038116Y0082421D03*
X0040320Y0085590D03*
X0024367Y0086929D03*
X0021611Y0086791D03*
X0021197Y0086102D03*
X0024780Y0090098D03*
X0021473Y0092027D03*
X0021335Y0092027D03*
X0024780Y0097401D03*
X0021611Y0098641D03*
X0021473Y0098641D03*
X0024642Y0099881D03*
X0024780Y0099881D03*
X0024229Y0103326D03*
X0024367Y0103464D03*
X0024504Y0106358D03*
X0024504Y0080315D03*
X0021611Y0076456D03*
X0021611Y0074527D03*
X0024367Y0074389D03*
X0021197Y0068740D03*
X0021748Y0067637D03*
X0024367Y0067775D03*
X0024780Y0063641D03*
D92*
X0026571Y0059507D03*
X0022024Y0059645D03*
X0023126Y0071633D03*
X0024918Y0075492D03*
X0021197Y0075492D03*
X0021473Y0086378D03*
X0038667Y0082421D03*
X0038805Y0082421D03*
X0039494Y0085453D03*
X0039631Y0085453D03*
X0045005Y0075945D03*
X0045143Y0075945D03*
X0045281Y0075945D03*
X0045419Y0075945D03*
X0045557Y0075945D03*
X0045694Y0075945D03*
X0045832Y0075945D03*
X0045970Y0075945D03*
X0046108Y0075945D03*
X0039080Y0101988D03*
X0021335Y0104291D03*
D93*
X0021197Y0104429D03*
X0024504Y0103740D03*
X0024918Y0107047D03*
X0024504Y0099881D03*
X0024367Y0099881D03*
X0021886Y0098641D03*
X0021748Y0098641D03*
X0024367Y0097401D03*
X0024504Y0097401D03*
X0024918Y0094507D03*
X0021886Y0091889D03*
X0024367Y0090236D03*
X0024504Y0086653D03*
X0021335Y0086240D03*
X0024918Y0081004D03*
X0022851Y0072047D03*
X0024504Y0068051D03*
X0021748Y0065570D03*
X0021611Y0065570D03*
X0024367Y0063779D03*
X0026158Y0059094D03*
X0026020Y0058956D03*
X0025882Y0058819D03*
X0025607Y0058681D03*
X0023540Y0058543D03*
X0023126Y0058681D03*
X0022851Y0058818D03*
X0022713Y0058956D03*
X0039907Y0079390D03*
X0040045Y0079390D03*
X0038529Y0082421D03*
X0038391Y0082421D03*
X0039769Y0085453D03*
X0039907Y0085453D03*
X0043214Y0101988D03*
D94*
X0024780Y0104360D03*
X0024918Y0085620D03*
X0039631Y0079459D03*
X0039769Y0079459D03*
X0024780Y0068533D03*
X0021335Y0068533D03*
X0022162Y0059439D03*
X0022300Y0059301D03*
X0022437Y0059163D03*
X0022575Y0059025D03*
X0026296Y0059163D03*
X0026433Y0059301D03*
D95*
X0038116Y0066850D03*
X0044179Y0066988D03*
X0038391Y0074291D03*
D96*
X0038253Y0079665D03*
X0038116Y0079665D03*
X0039494Y0082421D03*
X0039631Y0082421D03*
X0038253Y0085177D03*
X0038805Y0088484D03*
X0038942Y0088484D03*
X0039080Y0088484D03*
X0039218Y0088484D03*
X0046108Y0095650D03*
X0042801Y0102264D03*
D97*
X0040045Y0088415D03*
X0039907Y0088415D03*
X0039769Y0088415D03*
X0039631Y0088415D03*
X0039494Y0088415D03*
X0039356Y0088415D03*
X0038116Y0085246D03*
X0023264Y0067982D03*
X0023126Y0067982D03*
X0022989Y0067982D03*
X0027260Y0060954D03*
D98*
X0038116Y0095718D03*
X0043903Y0095718D03*
X0044041Y0095718D03*
D99*
X0038667Y0074291D03*
X0038253Y0066713D03*
X0044041Y0066850D03*
D100*
X0041698Y0064094D03*
X0040458Y0064094D03*
X0038391Y0095649D03*
X0038253Y0095650D03*
X0043627Y0095650D03*
X0043765Y0095650D03*
X0044179Y0095650D03*
D101*
X0039080Y0074153D03*
X0038942Y0074153D03*
X0038529Y0066299D03*
X0043765Y0066437D03*
D102*
X0043627Y0066299D03*
X0038667Y0066161D03*
D103*
X0040320Y0064232D03*
X0041836Y0064232D03*
X0043076Y0095512D03*
X0043214Y0095512D03*
X0043352Y0095512D03*
X0044316Y0095512D03*
X0038805Y0095512D03*
X0038667Y0095512D03*
D104*
X0042112Y0074291D03*
X0041836Y0074153D03*
X0041698Y0074153D03*
X0041560Y0074153D03*
X0041423Y0074153D03*
X0043076Y0065610D03*
X0039218Y0065472D03*
D105*
X0039356Y0065335D03*
X0042387Y0074429D03*
D106*
X0041974Y0064370D03*
X0040183Y0064370D03*
X0039769Y0095374D03*
X0039631Y0095374D03*
X0039494Y0095374D03*
X0039356Y0095374D03*
X0042249Y0095374D03*
X0042387Y0095374D03*
X0042525Y0095374D03*
X0042663Y0095374D03*
X0044454Y0095374D03*
D107*
X0039907Y0074016D03*
X0039769Y0074016D03*
D108*
X0040045Y0064508D03*
X0042112Y0064508D03*
X0041147Y0095236D03*
X0041009Y0095236D03*
X0044592Y0095236D03*
D109*
X0040596Y0074016D03*
X0040458Y0074016D03*
X0040320Y0074016D03*
X0040183Y0074016D03*
X0043214Y0065748D03*
D110*
X0040183Y0102884D03*
D111*
X0040596Y0063957D03*
X0041560Y0063957D03*
D112*
X0041423Y0063819D03*
X0040734Y0063819D03*
D113*
X0040734Y0082421D03*
X0040871Y0082421D03*
X0045557Y0096201D03*
D114*
X0041285Y0063681D03*
X0040872Y0063681D03*
D115*
X0042112Y0082421D03*
X0041698Y0103228D03*
D116*
X0041836Y0103090D03*
X0045005Y0096752D03*
X0041974Y0082421D03*
X0041836Y0082421D03*
D117*
X0042525Y0080079D03*
X0042663Y0080079D03*
X0042801Y0080079D03*
X0048588Y0082283D03*
D118*
X0043076Y0080148D03*
X0042938Y0080148D03*
D119*
X0043352Y0080285D03*
X0043490Y0080285D03*
D120*
X0043627Y0080354D03*
X0048726Y0082283D03*
D121*
X0043765Y0080423D03*
D122*
X0044041Y0080561D03*
D123*
X0044179Y0080699D03*
D124*
X0044454Y0080905D03*
X0049001Y0082283D03*
D125*
X0049139Y0082283D03*
X0044730Y0081181D03*
D126*
X0044730Y0095098D03*
D127*
X0049277Y0082283D03*
X0044868Y0081457D03*
D128*
X0044868Y0094961D03*
D129*
X0046246Y0082283D03*
D130*
X0046383Y0082283D03*
D131*
X0046521Y0082283D03*
D132*
X0046659Y0082283D03*
D133*
X0046797Y0082283D03*
D134*
X0046934Y0082283D03*
D135*
X0047072Y0082283D03*
D136*
X0047210Y0082283D03*
D137*
X0047348Y0082283D03*
D138*
X0047486Y0082283D03*
D139*
X0047623Y0082283D03*
D140*
X0047761Y0082283D03*
D141*
X0047899Y0082283D03*
D142*
X0048037Y0082283D03*
D143*
X0048175Y0082283D03*
D144*
X0048312Y0082283D03*
D145*
X0048450Y0082283D03*
D146*
X0048864Y0082283D03*
D147*
X0049415Y0082283D03*
D148*
X0049553Y0082283D03*
D149*
X0049690Y0082352D03*
D150*
X0049828Y0082352D03*
D151*
X0049966Y0082352D03*
D152*
X0050104Y0082352D03*
D153*
X0050242Y0082352D03*
D154*
X0050379Y0082352D03*
D155*
X0050517Y0082352D03*
D156*
X0050655Y0082352D03*
D157*
X0057686Y0131638D03*
X0071859Y0131638D03*
D158*
X0071859Y0131677D03*
X0057686Y0131677D03*
X0057686Y0150260D03*
X0071859Y0150260D03*
D159*
X0071839Y0150220D03*
X0057706Y0150220D03*
X0068296Y0132780D03*
X0057706Y0131717D03*
D160*
X0061269Y0132780D03*
X0071859Y0131717D03*
D161*
X0071839Y0131756D03*
X0061249Y0132819D03*
X0057706Y0131756D03*
X0057706Y0150181D03*
X0071839Y0150181D03*
D162*
X0068335Y0132858D03*
X0071839Y0131795D03*
X0061209Y0132858D03*
X0057706Y0131795D03*
D163*
X0057725Y0131835D03*
X0061190Y0132898D03*
X0071820Y0131835D03*
X0071820Y0150102D03*
X0057725Y0150102D03*
D164*
X0071820Y0150063D03*
X0068394Y0132937D03*
X0071820Y0131874D03*
X0061150Y0132937D03*
X0057725Y0131874D03*
D165*
X0057745Y0131913D03*
X0061131Y0132976D03*
X0071800Y0131913D03*
X0071800Y0150024D03*
X0057745Y0150024D03*
D166*
X0071800Y0149984D03*
X0068454Y0133016D03*
X0071800Y0131953D03*
X0061091Y0133016D03*
X0057745Y0131953D03*
D167*
X0057765Y0131992D03*
X0071780Y0131992D03*
X0071780Y0149945D03*
X0057765Y0149945D03*
D168*
X0071780Y0149906D03*
X0068513Y0133094D03*
X0071780Y0132031D03*
X0057765Y0132031D03*
D169*
X0057784Y0132071D03*
X0068572Y0133173D03*
X0071761Y0149866D03*
X0057784Y0149866D03*
D170*
X0068552Y0133134D03*
X0071780Y0132071D03*
D171*
X0071761Y0132110D03*
X0057784Y0132110D03*
X0057784Y0149827D03*
X0071761Y0149827D03*
D172*
X0071741Y0149787D03*
X0057804Y0149787D03*
X0057804Y0132150D03*
D173*
X0071761Y0132150D03*
D174*
X0071741Y0132189D03*
X0057804Y0132189D03*
X0057804Y0149748D03*
X0071741Y0149748D03*
D175*
X0071721Y0149709D03*
X0057824Y0149709D03*
X0057824Y0132228D03*
D176*
X0071741Y0132228D03*
D177*
X0071721Y0132268D03*
X0057824Y0132268D03*
X0057824Y0149669D03*
X0071721Y0149669D03*
D178*
X0071721Y0132307D03*
X0057824Y0132307D03*
D179*
X0057843Y0132346D03*
X0071702Y0132346D03*
X0071702Y0149591D03*
X0057843Y0149591D03*
D180*
X0071702Y0149551D03*
X0071702Y0132386D03*
X0057843Y0132386D03*
D181*
X0057863Y0132425D03*
X0071682Y0132425D03*
X0071682Y0149512D03*
X0057863Y0149512D03*
D182*
X0071682Y0149472D03*
X0071682Y0132465D03*
X0057863Y0132465D03*
D183*
X0057883Y0132504D03*
X0057883Y0149433D03*
X0071662Y0149433D03*
D184*
X0071682Y0132504D03*
D185*
X0071662Y0132543D03*
X0057883Y0132543D03*
X0071662Y0149394D03*
D186*
X0071643Y0149354D03*
X0057902Y0149354D03*
X0057902Y0132583D03*
D187*
X0071662Y0132583D03*
D188*
X0071643Y0132622D03*
X0057902Y0132622D03*
X0057902Y0149315D03*
X0071643Y0149315D03*
D189*
X0071623Y0149276D03*
X0057922Y0149276D03*
X0057922Y0132661D03*
D190*
X0071643Y0132661D03*
D191*
X0071623Y0132701D03*
X0057922Y0132701D03*
X0057922Y0149236D03*
X0071623Y0149236D03*
D192*
X0071859Y0150299D03*
X0057686Y0150299D03*
X0061308Y0132701D03*
X0068237Y0132701D03*
D193*
X0071623Y0132740D03*
X0057922Y0132740D03*
D194*
X0061288Y0132740D03*
X0068257Y0132740D03*
D195*
X0071603Y0132780D03*
X0057942Y0132780D03*
X0057942Y0149157D03*
X0071603Y0149157D03*
D196*
X0071603Y0149118D03*
X0071603Y0132819D03*
X0057942Y0132819D03*
D197*
X0068316Y0132819D03*
D198*
X0071583Y0132858D03*
X0057961Y0132858D03*
X0057961Y0149079D03*
X0071583Y0149079D03*
D199*
X0071583Y0149039D03*
X0064772Y0152504D03*
X0064772Y0152543D03*
X0057961Y0132898D03*
X0071583Y0132898D03*
D200*
X0068375Y0132898D03*
D201*
X0057981Y0132937D03*
X0057981Y0149000D03*
X0064792Y0152268D03*
X0071564Y0149000D03*
D202*
X0064772Y0152307D03*
X0064772Y0152346D03*
X0064772Y0152386D03*
X0064772Y0152425D03*
X0071583Y0132937D03*
D203*
X0071564Y0132976D03*
X0057981Y0132976D03*
X0071564Y0148961D03*
X0064792Y0152031D03*
D204*
X0068434Y0132976D03*
D205*
X0058001Y0133016D03*
X0058001Y0148921D03*
X0064772Y0151677D03*
X0064772Y0151717D03*
X0064772Y0151756D03*
X0064772Y0151795D03*
X0071544Y0148921D03*
D206*
X0064792Y0151835D03*
X0071564Y0133016D03*
D207*
X0071544Y0133055D03*
X0058001Y0133055D03*
X0058001Y0148882D03*
X0064772Y0151441D03*
X0064772Y0151480D03*
X0064772Y0151520D03*
X0064772Y0151559D03*
X0071544Y0148882D03*
D208*
X0068493Y0133055D03*
X0061052Y0133055D03*
D209*
X0058020Y0133094D03*
X0058020Y0148843D03*
X0064792Y0151205D03*
X0071524Y0148843D03*
D210*
X0061052Y0133094D03*
D211*
X0071544Y0133094D03*
X0064772Y0151244D03*
X0064772Y0151283D03*
X0064772Y0151323D03*
X0064772Y0151362D03*
D212*
X0064792Y0151008D03*
X0064792Y0150969D03*
X0071524Y0148803D03*
X0058020Y0148803D03*
X0058020Y0133134D03*
X0071524Y0133134D03*
D213*
X0061013Y0133134D03*
X0057784Y0149906D03*
D214*
X0064792Y0150772D03*
X0071524Y0133173D03*
X0058020Y0133173D03*
D215*
X0060993Y0133173D03*
D216*
X0058040Y0133213D03*
X0071505Y0133213D03*
X0071505Y0148724D03*
X0064772Y0150378D03*
X0064772Y0150417D03*
X0064772Y0150457D03*
X0064772Y0150496D03*
X0064772Y0150535D03*
X0058040Y0148724D03*
D217*
X0060954Y0133213D03*
X0068591Y0133213D03*
D218*
X0070737Y0133252D03*
X0058808Y0133252D03*
D219*
X0058808Y0133291D03*
X0070737Y0133291D03*
D220*
X0070757Y0133331D03*
X0058788Y0133331D03*
X0064772Y0149157D03*
D221*
X0069536Y0136402D03*
X0069536Y0136362D03*
X0069576Y0136323D03*
X0069576Y0136283D03*
X0060009Y0136323D03*
X0060009Y0136362D03*
X0059969Y0136283D03*
X0059930Y0136205D03*
X0058788Y0133370D03*
D222*
X0070776Y0133370D03*
D223*
X0070776Y0133409D03*
X0069674Y0136126D03*
X0069635Y0136165D03*
X0069635Y0136205D03*
X0069595Y0136244D03*
X0069517Y0136441D03*
X0060028Y0136441D03*
X0060028Y0136480D03*
X0060028Y0136402D03*
X0059950Y0136244D03*
X0059910Y0136165D03*
X0058769Y0133409D03*
D224*
X0058749Y0133449D03*
X0059812Y0136008D03*
X0059851Y0136047D03*
X0059851Y0136087D03*
X0059891Y0136126D03*
X0069536Y0136480D03*
X0069694Y0136087D03*
X0069694Y0136047D03*
X0069733Y0136008D03*
X0070796Y0133449D03*
D225*
X0070796Y0133488D03*
X0069930Y0135654D03*
X0069891Y0135732D03*
X0069851Y0135772D03*
X0069851Y0135811D03*
X0069536Y0136598D03*
X0060048Y0136598D03*
X0059733Y0135850D03*
X0059694Y0135772D03*
X0059654Y0135732D03*
X0059654Y0135693D03*
X0058749Y0133488D03*
X0064772Y0149118D03*
D226*
X0060028Y0136677D03*
X0060028Y0136638D03*
X0059635Y0135654D03*
X0059595Y0135614D03*
X0059595Y0135575D03*
X0059556Y0135535D03*
X0058729Y0133528D03*
X0069517Y0136638D03*
X0069910Y0135693D03*
X0069950Y0135614D03*
X0069989Y0135535D03*
X0070816Y0133528D03*
D227*
X0070146Y0135260D03*
X0070107Y0135339D03*
X0070068Y0135378D03*
X0069517Y0136717D03*
X0069517Y0136756D03*
X0060028Y0136756D03*
X0060028Y0136717D03*
X0059517Y0135457D03*
X0059477Y0135378D03*
X0059438Y0135339D03*
X0059438Y0135299D03*
X0058729Y0133567D03*
D228*
X0059497Y0135417D03*
X0059536Y0135496D03*
X0069536Y0136677D03*
X0069969Y0135575D03*
X0070009Y0135496D03*
X0070048Y0135457D03*
X0070048Y0135417D03*
X0070835Y0133567D03*
D229*
X0070835Y0133606D03*
X0070206Y0135142D03*
X0070206Y0135181D03*
X0070166Y0135220D03*
X0070127Y0135299D03*
X0069536Y0136795D03*
X0060048Y0136795D03*
X0059418Y0135260D03*
X0059379Y0135220D03*
X0059379Y0135181D03*
X0059339Y0135142D03*
X0059300Y0135063D03*
X0058709Y0133606D03*
X0064772Y0149079D03*
D230*
X0059379Y0143252D03*
X0059339Y0143213D03*
X0059300Y0143173D03*
X0059261Y0138764D03*
X0059300Y0138724D03*
X0059261Y0134984D03*
X0059221Y0134906D03*
X0059182Y0134866D03*
X0059182Y0134827D03*
X0058709Y0133646D03*
X0069536Y0136874D03*
X0070324Y0134945D03*
X0070324Y0134906D03*
X0070363Y0134866D03*
X0070402Y0134787D03*
X0070206Y0143213D03*
X0070166Y0143252D03*
D231*
X0069517Y0136835D03*
X0070225Y0135102D03*
X0070265Y0135063D03*
X0070265Y0135024D03*
X0070304Y0134984D03*
X0070855Y0133646D03*
X0060028Y0136835D03*
X0060028Y0136874D03*
X0059320Y0135102D03*
X0059280Y0135024D03*
X0059241Y0134945D03*
D232*
X0059162Y0134787D03*
X0059123Y0134748D03*
X0059083Y0134669D03*
X0058690Y0133685D03*
X0060028Y0136913D03*
X0060028Y0136953D03*
X0059359Y0138646D03*
X0059320Y0138685D03*
X0059398Y0143291D03*
X0059438Y0143331D03*
X0069517Y0136953D03*
X0069517Y0136913D03*
X0070225Y0138685D03*
X0070265Y0138724D03*
X0070304Y0138764D03*
X0070343Y0138803D03*
X0070383Y0134827D03*
X0070422Y0134748D03*
X0070461Y0134709D03*
X0070461Y0134669D03*
X0070855Y0133685D03*
X0070265Y0143173D03*
X0070146Y0143291D03*
X0070107Y0143331D03*
D233*
X0070087Y0143370D03*
X0070206Y0138646D03*
X0070166Y0138606D03*
X0069536Y0136992D03*
X0070481Y0134630D03*
X0070520Y0134591D03*
X0070560Y0134512D03*
X0070875Y0133724D03*
X0060048Y0136992D03*
X0059379Y0138606D03*
X0059221Y0138803D03*
X0059103Y0134709D03*
X0059064Y0134630D03*
X0059024Y0134591D03*
X0059024Y0134551D03*
X0058670Y0133724D03*
X0059457Y0143370D03*
X0059497Y0143409D03*
D234*
X0059536Y0143449D03*
X0059576Y0143488D03*
X0059457Y0138528D03*
X0060048Y0137071D03*
X0058906Y0134354D03*
X0058906Y0134315D03*
X0058867Y0134276D03*
X0058828Y0134197D03*
X0058670Y0133803D03*
X0058670Y0133764D03*
X0069536Y0137071D03*
X0070599Y0134433D03*
X0070639Y0134354D03*
X0070678Y0134315D03*
X0070678Y0134276D03*
X0070875Y0133764D03*
X0070009Y0143488D03*
X0064772Y0149039D03*
D235*
X0059595Y0143528D03*
X0059477Y0138488D03*
X0059517Y0138449D03*
X0060028Y0137150D03*
X0060028Y0137110D03*
X0058847Y0134236D03*
X0058808Y0134157D03*
X0069517Y0137110D03*
X0069517Y0137150D03*
X0070068Y0138488D03*
X0070461Y0138843D03*
X0070698Y0134236D03*
X0070737Y0134197D03*
X0070737Y0134157D03*
X0070776Y0134118D03*
X0070816Y0134039D03*
X0070894Y0133843D03*
X0070894Y0133803D03*
X0069950Y0143528D03*
D236*
X0069930Y0143567D03*
X0070048Y0138449D03*
X0070009Y0138409D03*
X0070796Y0134079D03*
X0070835Y0134000D03*
X0070875Y0133921D03*
X0070875Y0133882D03*
X0060048Y0137189D03*
X0059536Y0138409D03*
X0059103Y0138843D03*
X0058788Y0134118D03*
X0058749Y0134079D03*
X0058749Y0134039D03*
X0058709Y0134000D03*
X0058709Y0133961D03*
X0058670Y0133921D03*
X0058670Y0133882D03*
X0058670Y0133843D03*
X0059615Y0143567D03*
D237*
X0059674Y0143606D03*
X0059083Y0143094D03*
X0059595Y0138370D03*
X0060028Y0137228D03*
X0069517Y0137228D03*
X0069517Y0137189D03*
X0069989Y0138370D03*
X0069871Y0143606D03*
X0070855Y0133961D03*
D238*
X0070619Y0134394D03*
X0070580Y0134472D03*
X0070540Y0134551D03*
X0069517Y0137031D03*
X0070107Y0138528D03*
X0070146Y0138567D03*
X0070343Y0143134D03*
X0070068Y0143409D03*
X0070028Y0143449D03*
X0060028Y0137031D03*
X0059438Y0138567D03*
X0059005Y0134512D03*
X0058965Y0134472D03*
X0058965Y0134433D03*
X0058926Y0134394D03*
X0059202Y0143134D03*
D239*
X0060028Y0136559D03*
X0060028Y0136520D03*
X0059792Y0135969D03*
X0059792Y0135929D03*
X0059753Y0135890D03*
X0059713Y0135811D03*
X0069517Y0136520D03*
X0069517Y0136559D03*
X0069753Y0135969D03*
X0069792Y0135929D03*
X0069792Y0135890D03*
X0069831Y0135850D03*
D240*
X0069536Y0137268D03*
X0069930Y0138331D03*
X0070481Y0143094D03*
X0069851Y0143646D03*
X0064772Y0149000D03*
X0059694Y0143646D03*
X0059615Y0138331D03*
X0060048Y0137268D03*
D241*
X0060028Y0137307D03*
X0060028Y0137346D03*
X0059635Y0138291D03*
X0059753Y0143685D03*
X0069517Y0137346D03*
X0069517Y0137307D03*
X0069910Y0138291D03*
D242*
X0069812Y0143685D03*
X0069772Y0143724D03*
X0060048Y0137386D03*
X0059694Y0138252D03*
X0059772Y0143724D03*
D243*
X0059831Y0143764D03*
X0058965Y0138882D03*
X0059713Y0138213D03*
X0059753Y0138173D03*
X0060028Y0137425D03*
X0069517Y0137425D03*
X0069517Y0137386D03*
X0069831Y0138213D03*
X0069871Y0138252D03*
X0070580Y0138882D03*
D244*
X0069812Y0138173D03*
X0069536Y0137465D03*
X0070599Y0143055D03*
X0069733Y0143764D03*
X0060048Y0137465D03*
X0058946Y0143055D03*
D245*
X0059871Y0143803D03*
X0059792Y0138134D03*
X0060028Y0137504D03*
X0069517Y0137504D03*
X0069517Y0137543D03*
X0069753Y0138134D03*
X0069674Y0143803D03*
X0064792Y0148961D03*
D246*
X0069733Y0138094D03*
X0060048Y0137583D03*
X0060048Y0137543D03*
X0059812Y0138094D03*
D247*
X0059871Y0138055D03*
X0060028Y0137622D03*
X0058847Y0138921D03*
X0059910Y0143843D03*
X0069635Y0143843D03*
X0070698Y0138921D03*
X0069517Y0137622D03*
X0069517Y0137583D03*
D248*
X0069654Y0138016D03*
X0069694Y0138055D03*
X0070717Y0143016D03*
X0069576Y0143882D03*
X0060048Y0137661D03*
X0058828Y0143016D03*
X0059969Y0143882D03*
D249*
X0059910Y0138016D03*
X0059950Y0137976D03*
X0060028Y0137701D03*
X0069517Y0137701D03*
X0069517Y0137740D03*
X0069517Y0137661D03*
D250*
X0069576Y0137937D03*
X0069615Y0137976D03*
X0069536Y0143921D03*
X0064772Y0148921D03*
X0060009Y0143921D03*
X0060048Y0137780D03*
X0060048Y0137740D03*
D251*
X0060028Y0137819D03*
X0060028Y0137858D03*
X0059989Y0137898D03*
X0059989Y0137937D03*
X0058729Y0138961D03*
X0060068Y0143961D03*
X0069556Y0137898D03*
X0069556Y0137858D03*
X0069517Y0137819D03*
X0069517Y0137780D03*
D252*
X0070835Y0138961D03*
X0069497Y0143961D03*
D253*
X0070954Y0139000D03*
X0060206Y0144039D03*
X0058591Y0139000D03*
D254*
X0058493Y0139039D03*
D255*
X0064772Y0148843D03*
X0071072Y0139039D03*
D256*
X0058375Y0139079D03*
D257*
X0071190Y0139079D03*
D258*
X0071308Y0139118D03*
X0064772Y0148764D03*
X0058237Y0139118D03*
D259*
X0058139Y0139157D03*
D260*
X0064772Y0148724D03*
X0071426Y0139157D03*
D261*
X0071544Y0139197D03*
X0064772Y0148685D03*
X0058001Y0139197D03*
D262*
X0057883Y0139236D03*
X0064772Y0148646D03*
X0071662Y0139236D03*
D263*
X0071800Y0139276D03*
X0072194Y0140220D03*
X0072194Y0140260D03*
X0072194Y0140299D03*
X0072194Y0140339D03*
X0072194Y0140378D03*
X0072194Y0141520D03*
X0072194Y0141559D03*
X0072194Y0141598D03*
X0072194Y0141638D03*
X0072194Y0141677D03*
X0064792Y0148606D03*
X0057351Y0141638D03*
X0057351Y0141598D03*
X0057351Y0141559D03*
X0057351Y0141520D03*
X0057351Y0141480D03*
X0057351Y0140417D03*
X0057351Y0140378D03*
X0057351Y0140339D03*
X0057351Y0140299D03*
X0057351Y0140260D03*
X0057784Y0139276D03*
D264*
X0057646Y0139315D03*
X0057450Y0139669D03*
X0057450Y0139709D03*
X0057450Y0139748D03*
X0057450Y0142189D03*
X0057450Y0142228D03*
X0064772Y0148567D03*
X0072095Y0142268D03*
X0072095Y0142228D03*
X0072095Y0142189D03*
X0072095Y0139709D03*
X0072095Y0139669D03*
X0071898Y0139315D03*
D265*
X0071977Y0139354D03*
X0072056Y0139512D03*
X0072056Y0139551D03*
X0072056Y0142386D03*
X0072056Y0142425D03*
X0057489Y0142386D03*
X0057489Y0142346D03*
X0057489Y0139551D03*
X0057489Y0139512D03*
X0057568Y0139354D03*
D266*
X0057548Y0139394D03*
X0057509Y0139433D03*
X0057509Y0139472D03*
X0057509Y0142425D03*
X0057509Y0142465D03*
X0057548Y0142543D03*
X0057587Y0142583D03*
X0071997Y0142543D03*
X0072036Y0142504D03*
X0072036Y0142465D03*
X0072036Y0139472D03*
X0072036Y0139433D03*
X0071997Y0139394D03*
D267*
X0072076Y0139591D03*
X0072076Y0139630D03*
X0072076Y0142307D03*
X0072076Y0142346D03*
X0071918Y0142622D03*
X0057627Y0142622D03*
X0057469Y0142307D03*
X0057469Y0142268D03*
X0057469Y0139630D03*
X0057469Y0139591D03*
D268*
X0057430Y0139787D03*
X0057430Y0139827D03*
X0057430Y0142071D03*
X0057430Y0142110D03*
X0057430Y0142150D03*
X0072115Y0142150D03*
X0072115Y0142110D03*
X0072115Y0139787D03*
X0072115Y0139748D03*
D269*
X0072135Y0139827D03*
X0072135Y0139866D03*
X0072135Y0139906D03*
X0072135Y0141992D03*
X0072135Y0142031D03*
X0072135Y0142071D03*
X0057410Y0142031D03*
X0057410Y0141992D03*
X0057410Y0141953D03*
X0057410Y0139945D03*
X0057410Y0139906D03*
X0057410Y0139866D03*
D270*
X0057391Y0139984D03*
X0057391Y0140024D03*
X0057391Y0140063D03*
X0057391Y0141835D03*
X0057391Y0141874D03*
X0057391Y0141913D03*
X0057745Y0142661D03*
X0071800Y0142661D03*
X0072154Y0141953D03*
X0072154Y0141913D03*
X0072154Y0141874D03*
X0072154Y0140024D03*
X0072154Y0139984D03*
X0072154Y0139945D03*
D271*
X0072174Y0140063D03*
X0072174Y0140102D03*
X0072174Y0140142D03*
X0072174Y0140181D03*
X0072174Y0141717D03*
X0072174Y0141756D03*
X0072174Y0141795D03*
X0072174Y0141835D03*
X0057371Y0141795D03*
X0057371Y0141756D03*
X0057371Y0141717D03*
X0057371Y0141677D03*
X0057371Y0140220D03*
X0057371Y0140181D03*
X0057371Y0140142D03*
X0057371Y0140102D03*
D272*
X0057331Y0140457D03*
X0057331Y0140496D03*
X0057331Y0140535D03*
X0057331Y0140575D03*
X0057331Y0140614D03*
X0057331Y0140654D03*
X0057331Y0140693D03*
X0057331Y0140732D03*
X0057331Y0140772D03*
X0057331Y0140811D03*
X0057331Y0141087D03*
X0057331Y0141126D03*
X0057331Y0141165D03*
X0057331Y0141205D03*
X0057331Y0141244D03*
X0057331Y0141283D03*
X0057331Y0141323D03*
X0057331Y0141362D03*
X0057331Y0141402D03*
X0057331Y0141441D03*
X0072213Y0141441D03*
X0072213Y0141480D03*
X0072213Y0141402D03*
X0072213Y0141362D03*
X0072213Y0141323D03*
X0072213Y0141283D03*
X0072213Y0141244D03*
X0072213Y0140654D03*
X0072213Y0140614D03*
X0072213Y0140575D03*
X0072213Y0140535D03*
X0072213Y0140496D03*
X0072213Y0140457D03*
X0072213Y0140417D03*
D273*
X0072233Y0140693D03*
X0072233Y0140732D03*
X0072233Y0140772D03*
X0072233Y0140811D03*
X0072233Y0140850D03*
X0072233Y0140890D03*
X0072233Y0140929D03*
X0072233Y0140969D03*
X0072233Y0141008D03*
X0072233Y0141047D03*
X0072233Y0141087D03*
X0072233Y0141126D03*
X0072233Y0141165D03*
X0072233Y0141205D03*
X0057312Y0141047D03*
X0057312Y0141008D03*
X0057312Y0140969D03*
X0057312Y0140929D03*
X0057312Y0140890D03*
X0057312Y0140850D03*
D274*
X0057528Y0142504D03*
X0071977Y0142583D03*
D275*
X0057883Y0142701D03*
D276*
X0071682Y0142701D03*
D277*
X0071564Y0142740D03*
X0057981Y0142740D03*
D278*
X0058119Y0142780D03*
D279*
X0071446Y0142780D03*
D280*
X0058237Y0142819D03*
D281*
X0071328Y0142819D03*
D282*
X0071209Y0142858D03*
X0058335Y0142858D03*
D283*
X0058473Y0142898D03*
D284*
X0060343Y0144118D03*
X0069202Y0144118D03*
X0071091Y0142898D03*
D285*
X0070954Y0142937D03*
X0058591Y0142937D03*
D286*
X0058709Y0142976D03*
X0060127Y0144000D03*
X0069418Y0144000D03*
D287*
X0070855Y0142976D03*
D288*
X0069359Y0144039D03*
D289*
X0069280Y0144079D03*
X0060265Y0144079D03*
D290*
X0060481Y0144157D03*
X0069064Y0144157D03*
D291*
X0064772Y0144197D03*
X0064772Y0146205D03*
X0064772Y0146244D03*
D292*
X0064792Y0144236D03*
D293*
X0064772Y0144276D03*
X0064772Y0146165D03*
D294*
X0064792Y0144315D03*
D295*
X0064772Y0144354D03*
X0064772Y0144394D03*
X0064772Y0146126D03*
D296*
X0064772Y0146047D03*
X0064772Y0144472D03*
X0064772Y0144433D03*
D297*
X0064792Y0144512D03*
D298*
X0064772Y0144551D03*
X0064772Y0146008D03*
D299*
X0064792Y0145969D03*
X0064792Y0144591D03*
D300*
X0064772Y0144630D03*
X0064772Y0144669D03*
X0064772Y0145929D03*
D301*
X0064772Y0145890D03*
X0064772Y0144748D03*
X0064772Y0144709D03*
D302*
X0064792Y0144787D03*
X0064792Y0145850D03*
D303*
X0064772Y0145811D03*
X0064772Y0144827D03*
D304*
X0064792Y0144866D03*
D305*
X0064772Y0144906D03*
X0064772Y0144945D03*
X0064772Y0145772D03*
D306*
X0064772Y0145693D03*
X0064772Y0145024D03*
X0064772Y0144984D03*
D307*
X0064792Y0145063D03*
D308*
X0064772Y0145102D03*
X0064772Y0145654D03*
D309*
X0064792Y0145614D03*
X0064792Y0145142D03*
D310*
X0064772Y0145181D03*
X0064772Y0145220D03*
X0064772Y0145575D03*
D311*
X0064772Y0145535D03*
X0064772Y0145299D03*
X0064772Y0145260D03*
D312*
X0064792Y0145339D03*
X0064792Y0145496D03*
D313*
X0064772Y0145457D03*
X0064772Y0145417D03*
X0064772Y0145378D03*
D314*
X0064792Y0145732D03*
D315*
X0064792Y0146087D03*
D316*
X0064772Y0146283D03*
D317*
X0064772Y0146323D03*
D318*
X0064792Y0146362D03*
D319*
X0064772Y0146402D03*
D320*
X0064772Y0146441D03*
D321*
X0064792Y0146480D03*
D322*
X0064772Y0146520D03*
D323*
X0064772Y0146559D03*
D324*
X0064792Y0146598D03*
D325*
X0064772Y0146638D03*
D326*
X0064772Y0146677D03*
D327*
X0064792Y0146717D03*
D328*
X0064772Y0146756D03*
D329*
X0064772Y0146795D03*
D330*
X0064772Y0146835D03*
X0064772Y0146874D03*
D331*
X0064772Y0146913D03*
D332*
X0064772Y0146953D03*
D333*
X0064792Y0146992D03*
D334*
X0064772Y0147031D03*
D335*
X0064772Y0147071D03*
D336*
X0064792Y0147110D03*
D337*
X0064772Y0147150D03*
D338*
X0064772Y0147189D03*
D339*
X0064792Y0147228D03*
D340*
X0064772Y0147268D03*
D341*
X0064772Y0147307D03*
D342*
X0064792Y0147346D03*
D343*
X0064772Y0147386D03*
D344*
X0064772Y0147425D03*
X0064772Y0148528D03*
D345*
X0064772Y0148488D03*
X0064772Y0147504D03*
X0064772Y0147465D03*
D346*
X0064772Y0147543D03*
X0064772Y0148449D03*
D347*
X0064772Y0148409D03*
X0064772Y0147583D03*
D348*
X0064792Y0147622D03*
D349*
X0064772Y0147661D03*
X0064772Y0148370D03*
D350*
X0064772Y0148331D03*
X0064772Y0147701D03*
D351*
X0064792Y0147740D03*
D352*
X0064772Y0147780D03*
X0064772Y0148291D03*
D353*
X0064772Y0148252D03*
X0064772Y0147819D03*
D354*
X0064792Y0147858D03*
D355*
X0064772Y0147898D03*
X0064772Y0148213D03*
D356*
X0064772Y0148173D03*
X0064772Y0147937D03*
D357*
X0064792Y0147976D03*
X0064792Y0148134D03*
D358*
X0064772Y0148094D03*
X0064772Y0148055D03*
X0064772Y0148016D03*
D359*
X0058099Y0148567D03*
D360*
X0064772Y0149472D03*
X0064772Y0149512D03*
X0071465Y0148567D03*
D361*
X0064772Y0149551D03*
X0064772Y0149591D03*
X0064772Y0149630D03*
X0064772Y0149669D03*
X0058080Y0148606D03*
D362*
X0064792Y0149709D03*
X0071485Y0148606D03*
D363*
X0071485Y0148646D03*
X0064792Y0149906D03*
X0064792Y0149945D03*
X0058060Y0148646D03*
D364*
X0058060Y0148685D03*
X0064792Y0150142D03*
D365*
X0064772Y0150181D03*
X0064772Y0150220D03*
X0064772Y0150260D03*
X0064772Y0150299D03*
X0071505Y0148685D03*
D366*
X0071505Y0148764D03*
X0064772Y0150614D03*
X0064772Y0150654D03*
X0064772Y0150693D03*
X0064772Y0150732D03*
X0058040Y0148764D03*
D367*
X0064772Y0148803D03*
D368*
X0064792Y0148882D03*
D369*
X0064772Y0151874D03*
X0064772Y0151913D03*
X0064772Y0151953D03*
X0064772Y0151992D03*
X0058001Y0148961D03*
D370*
X0057981Y0149039D03*
X0064792Y0152465D03*
D371*
X0064772Y0152622D03*
X0057961Y0149118D03*
D372*
X0057942Y0149197D03*
X0071603Y0149197D03*
D373*
X0064772Y0149197D03*
D374*
X0064792Y0149236D03*
D375*
X0064772Y0149276D03*
D376*
X0064792Y0149315D03*
D377*
X0064772Y0149354D03*
D378*
X0057902Y0149394D03*
D379*
X0064772Y0149394D03*
D380*
X0064772Y0149433D03*
D381*
X0057883Y0149472D03*
D382*
X0057863Y0149551D03*
D383*
X0057843Y0149630D03*
X0071702Y0149630D03*
D384*
X0064772Y0149748D03*
X0064772Y0149787D03*
X0064772Y0149827D03*
X0064772Y0149866D03*
D385*
X0057765Y0149984D03*
D386*
X0064772Y0149984D03*
X0064772Y0150024D03*
X0064772Y0150063D03*
X0064772Y0150102D03*
D387*
X0057745Y0150063D03*
D388*
X0057725Y0150142D03*
X0071820Y0150142D03*
D389*
X0064792Y0150339D03*
D390*
X0064792Y0150575D03*
D391*
X0064772Y0150811D03*
X0064772Y0150850D03*
X0064772Y0150890D03*
X0064772Y0150929D03*
D392*
X0064772Y0151047D03*
X0064772Y0151087D03*
X0064772Y0151126D03*
X0064772Y0151165D03*
D393*
X0064792Y0151402D03*
D394*
X0064792Y0151598D03*
X0064792Y0151638D03*
D395*
X0064772Y0152071D03*
X0064772Y0152110D03*
X0064772Y0152150D03*
X0064772Y0152189D03*
X0064772Y0152228D03*
D396*
X0064792Y0152583D03*
D397*
X0044300Y0129000D02*
X0041800Y0129000D01*
X0041800Y0126500D01*
X0041800Y0129000D02*
X0046800Y0124000D01*
X0046800Y0119000D01*
X0046800Y0151500D02*
X0046815Y0152718D01*
X0046859Y0153934D01*
X0046933Y0155150D01*
X0047037Y0156363D01*
X0047170Y0157573D01*
X0047333Y0158780D01*
X0047525Y0159982D01*
X0047746Y0161180D01*
X0047996Y0162372D01*
X0048275Y0163557D01*
X0048583Y0164735D01*
X0048920Y0165905D01*
X0049285Y0167067D01*
X0049678Y0168219D01*
X0050099Y0169362D01*
X0050548Y0170493D01*
X0051024Y0171614D01*
X0051528Y0172723D01*
X0052058Y0173819D01*
X0052615Y0174902D01*
X0053198Y0175971D01*
X0053806Y0177025D01*
X0054441Y0178065D01*
X0055100Y0179088D01*
X0055784Y0180096D01*
X0056493Y0181086D01*
X0057225Y0182059D01*
X0057981Y0183013D01*
X0058760Y0183949D01*
X0059561Y0184866D01*
X0060385Y0185763D01*
X0061230Y0186639D01*
X0062096Y0187495D01*
X0062983Y0188330D01*
X0063890Y0189142D01*
X0064816Y0189932D01*
X0065762Y0190700D01*
X0066725Y0191444D01*
X0067707Y0192164D01*
X0068706Y0192861D01*
X0069721Y0193533D01*
X0070753Y0194180D01*
X0071800Y0194801D01*
X0072862Y0195397D01*
X0073938Y0195967D01*
X0075027Y0196511D01*
X0076130Y0197027D01*
X0077245Y0197517D01*
X0078371Y0197980D01*
X0079508Y0198415D01*
X0080656Y0198822D01*
X0081813Y0199201D01*
X0082979Y0199552D01*
X0084153Y0199874D01*
X0085335Y0200168D01*
X0086524Y0200433D01*
X0087718Y0200668D01*
X0088918Y0200875D01*
X0090123Y0201052D01*
X0091331Y0201200D01*
X0092543Y0201318D01*
X0093758Y0201407D01*
X0094974Y0201467D01*
X0096191Y0201496D01*
X0097409Y0201496D01*
X0098626Y0201467D01*
X0099842Y0201407D01*
X0101057Y0201318D01*
X0102269Y0201200D01*
X0103477Y0201052D01*
X0104682Y0200875D01*
X0105882Y0200668D01*
X0107076Y0200433D01*
X0108265Y0200168D01*
X0109447Y0199874D01*
X0110621Y0199552D01*
X0111787Y0199201D01*
X0112944Y0198822D01*
X0114092Y0198415D01*
X0115229Y0197980D01*
X0116355Y0197517D01*
X0117470Y0197027D01*
X0118573Y0196511D01*
X0119662Y0195967D01*
X0120738Y0195397D01*
X0121800Y0194801D01*
X0122847Y0194180D01*
X0123879Y0193533D01*
X0124894Y0192861D01*
X0125893Y0192164D01*
X0126875Y0191444D01*
X0127838Y0190700D01*
X0128784Y0189932D01*
X0129710Y0189142D01*
X0130617Y0188330D01*
X0131504Y0187495D01*
X0132370Y0186639D01*
X0133215Y0185763D01*
X0134039Y0184866D01*
X0134840Y0183949D01*
X0135619Y0183013D01*
X0136375Y0182059D01*
X0137107Y0181086D01*
X0137816Y0180096D01*
X0138500Y0179088D01*
X0139159Y0178065D01*
X0139794Y0177025D01*
X0140402Y0175971D01*
X0140985Y0174902D01*
X0141542Y0173819D01*
X0142072Y0172723D01*
X0142576Y0171614D01*
X0143052Y0170493D01*
X0143501Y0169362D01*
X0143922Y0168219D01*
X0144315Y0167067D01*
X0144680Y0165905D01*
X0145017Y0164735D01*
X0145325Y0163557D01*
X0145604Y0162372D01*
X0145854Y0161180D01*
X0146075Y0159982D01*
X0146267Y0158780D01*
X0146430Y0157573D01*
X0146563Y0156363D01*
X0146667Y0155150D01*
X0146741Y0153934D01*
X0146785Y0152718D01*
X0146800Y0151500D01*
X0121800Y0186500D02*
X0119300Y0189000D01*
X0111800Y0189000D01*
X0114300Y0191500D01*
X0111800Y0189000D02*
X0114300Y0186500D01*
X0081800Y0189000D02*
X0079300Y0191500D01*
X0081800Y0189000D02*
X0074300Y0189000D01*
X0071800Y0186500D01*
X0079300Y0186500D02*
X0081800Y0189000D01*
X0046800Y0151499D02*
X0045183Y0150255D01*
X0043596Y0148971D01*
X0042041Y0147649D01*
X0040519Y0146289D01*
X0039031Y0144893D01*
X0037578Y0143460D01*
X0036160Y0141992D01*
X0034778Y0140490D01*
X0033434Y0138955D01*
X0032128Y0137387D01*
X0030860Y0135787D01*
X0029632Y0134157D01*
X0028444Y0132497D01*
X0027298Y0130809D01*
X0026193Y0129093D01*
X0025130Y0127351D01*
X0024110Y0125583D01*
X0023134Y0123791D01*
X0022202Y0121975D01*
X0021315Y0120137D01*
X0020473Y0118278D01*
X0019677Y0116399D01*
X0018927Y0114501D01*
X0018224Y0112585D01*
X0017568Y0110652D01*
X0016959Y0108704D01*
X0016399Y0106742D01*
X0015886Y0104766D01*
X0015422Y0102779D01*
X0015007Y0100781D01*
X0014641Y0098773D01*
X0014324Y0096757D01*
X0014057Y0094734D01*
X0013840Y0092704D01*
X0013672Y0090670D01*
X0013554Y0088633D01*
X0013486Y0086593D01*
X0013467Y0084552D01*
X0013499Y0082512D01*
X0013581Y0080473D01*
X0013713Y0078436D01*
X0013894Y0076403D01*
X0014126Y0074376D01*
X0014407Y0072354D01*
X0014737Y0070340D01*
X0015116Y0068335D01*
X0015545Y0066339D01*
X0016022Y0064355D01*
X0016548Y0062383D01*
X0017122Y0060425D01*
X0017743Y0058481D01*
X0018412Y0056553D01*
X0019128Y0054642D01*
X0019891Y0052749D01*
X0020700Y0050875D01*
X0021554Y0049021D01*
X0022454Y0047189D01*
X0023398Y0045380D01*
X0024386Y0043594D01*
X0025418Y0041833D01*
X0026492Y0040098D01*
X0027609Y0038390D01*
X0028767Y0036710D01*
X0029966Y0035058D01*
X0031205Y0033436D01*
X0032483Y0031845D01*
X0033800Y0030286D01*
X0035155Y0028760D01*
X0036546Y0027267D01*
X0037974Y0025809D01*
X0039437Y0024386D01*
X0040934Y0022999D01*
X0042465Y0021650D01*
X0044029Y0020338D01*
X0045624Y0019065D01*
X0047250Y0017831D01*
X0048906Y0016638D01*
X0050590Y0015486D01*
X0052302Y0014375D01*
X0054041Y0013306D01*
X0055805Y0012281D01*
X0057594Y0011299D01*
X0059407Y0010361D01*
X0061242Y0009467D01*
X0063098Y0008619D01*
X0064975Y0007817D01*
X0066870Y0007060D01*
X0068784Y0006351D01*
X0070714Y0005688D01*
X0072660Y0005073D01*
X0074620Y0004506D01*
X0076594Y0003987D01*
X0078580Y0003516D01*
X0080577Y0003094D01*
X0082583Y0002722D01*
X0084599Y0002398D01*
X0086621Y0002124D01*
X0088649Y0001900D01*
X0090683Y0001725D01*
X0092720Y0001600D01*
X0094759Y0001525D01*
X0096800Y0001500D01*
X0098841Y0001525D01*
X0100880Y0001600D01*
X0102917Y0001725D01*
X0104951Y0001900D01*
X0106979Y0002124D01*
X0109001Y0002398D01*
X0111017Y0002722D01*
X0113023Y0003094D01*
X0115020Y0003516D01*
X0117006Y0003987D01*
X0118980Y0004506D01*
X0120940Y0005073D01*
X0122886Y0005688D01*
X0124816Y0006351D01*
X0126730Y0007060D01*
X0128625Y0007817D01*
X0130502Y0008619D01*
X0132358Y0009467D01*
X0134193Y0010361D01*
X0136006Y0011299D01*
X0137795Y0012281D01*
X0139559Y0013306D01*
X0141298Y0014375D01*
X0143010Y0015486D01*
X0144694Y0016638D01*
X0146350Y0017831D01*
X0147976Y0019065D01*
X0149571Y0020338D01*
X0151135Y0021650D01*
X0152666Y0022999D01*
X0154163Y0024386D01*
X0155626Y0025809D01*
X0157054Y0027267D01*
X0158445Y0028760D01*
X0159800Y0030286D01*
X0161117Y0031845D01*
X0162395Y0033436D01*
X0163634Y0035058D01*
X0164833Y0036710D01*
X0165991Y0038390D01*
X0167108Y0040098D01*
X0168182Y0041833D01*
X0169214Y0043594D01*
X0170202Y0045380D01*
X0171146Y0047189D01*
X0172046Y0049021D01*
X0172900Y0050875D01*
X0173709Y0052749D01*
X0174472Y0054642D01*
X0175188Y0056553D01*
X0175857Y0058481D01*
X0176478Y0060425D01*
X0177052Y0062383D01*
X0177578Y0064355D01*
X0178055Y0066339D01*
X0178484Y0068335D01*
X0178863Y0070340D01*
X0179193Y0072354D01*
X0179474Y0074376D01*
X0179706Y0076403D01*
X0179887Y0078436D01*
X0180019Y0080473D01*
X0180101Y0082512D01*
X0180133Y0084552D01*
X0180114Y0086593D01*
X0180046Y0088633D01*
X0179928Y0090670D01*
X0179760Y0092704D01*
X0179543Y0094734D01*
X0179276Y0096757D01*
X0178959Y0098773D01*
X0178593Y0100781D01*
X0178178Y0102779D01*
X0177714Y0104766D01*
X0177201Y0106742D01*
X0176641Y0108704D01*
X0176032Y0110652D01*
X0175376Y0112585D01*
X0174673Y0114501D01*
X0173923Y0116399D01*
X0173127Y0118278D01*
X0172285Y0120137D01*
X0171398Y0121975D01*
X0170466Y0123791D01*
X0169490Y0125583D01*
X0168470Y0127351D01*
X0167407Y0129093D01*
X0166302Y0130809D01*
X0165156Y0132497D01*
X0163968Y0134157D01*
X0162740Y0135787D01*
X0161472Y0137387D01*
X0160166Y0138955D01*
X0158822Y0140490D01*
X0157440Y0141992D01*
X0156022Y0143460D01*
X0154569Y0144893D01*
X0153081Y0146289D01*
X0151559Y0147649D01*
X0150004Y0148971D01*
X0148417Y0150255D01*
X0146800Y0151499D01*
X0121800Y0024000D02*
X0114300Y0016500D01*
X0116800Y0016500D01*
X0114300Y0016500D02*
X0114300Y0019000D01*
D398*
X0160973Y0069531D03*
X0154005Y0077445D03*
X0152233Y0078744D03*
X0151997Y0092209D03*
X0156249Y0098350D03*
X0151524Y0101657D03*
X0167824Y0092209D03*
X0169005Y0092209D03*
X0168650Y0095280D03*
D399*
X0168355Y0095634D03*
X0165402Y0097760D03*
X0168946Y0101067D03*
X0172489Y0097878D03*
X0170835Y0096343D03*
X0170363Y0092917D03*
X0164930Y0088311D03*
X0170599Y0082406D03*
X0168946Y0079807D03*
X0166938Y0078035D03*
X0161269Y0069650D03*
X0147922Y0076736D03*
X0144851Y0081224D03*
X0147804Y0093980D03*
D400*
X0147804Y0093862D03*
X0148158Y0095161D03*
X0148276Y0095280D03*
X0146150Y0095870D03*
X0146032Y0095634D03*
X0146032Y0095516D03*
X0151938Y0096224D03*
X0151347Y0099295D03*
X0151229Y0099768D03*
X0151229Y0099886D03*
X0151111Y0100240D03*
X0151111Y0100358D03*
X0151465Y0101421D03*
X0151938Y0092445D03*
X0159969Y0094689D03*
X0168355Y0095752D03*
X0169064Y0099059D03*
X0169182Y0099413D03*
X0169182Y0099531D03*
X0169300Y0099886D03*
X0169300Y0100004D03*
X0168946Y0100949D03*
X0170363Y0093035D03*
X0170717Y0082287D03*
X0168946Y0079689D03*
X0166702Y0076854D03*
X0166702Y0076736D03*
X0166820Y0076382D03*
X0166938Y0075909D03*
X0170599Y0074846D03*
X0161505Y0069768D03*
X0159143Y0075673D03*
X0156072Y0076264D03*
X0154182Y0077091D03*
X0147922Y0076618D03*
X0146387Y0078272D03*
X0146623Y0080280D03*
X0146505Y0080516D03*
X0146387Y0080752D03*
X0146269Y0080988D03*
X0146150Y0081224D03*
D401*
X0146387Y0078390D03*
X0151347Y0082406D03*
X0151111Y0082760D03*
X0151111Y0082878D03*
X0154300Y0076972D03*
X0156072Y0076028D03*
X0156072Y0075909D03*
X0156072Y0075791D03*
X0156072Y0075673D03*
X0155954Y0075319D03*
X0155954Y0075201D03*
X0155954Y0075083D03*
X0155835Y0074728D03*
X0155835Y0074610D03*
X0155835Y0074492D03*
X0155717Y0074138D03*
X0155717Y0074020D03*
X0155717Y0073902D03*
X0155717Y0073783D03*
X0155599Y0073547D03*
X0155599Y0073429D03*
X0155599Y0073311D03*
X0155599Y0073193D03*
X0155599Y0073075D03*
X0155599Y0072957D03*
X0155599Y0072839D03*
X0155599Y0072720D03*
X0155599Y0072602D03*
X0155599Y0072484D03*
X0155717Y0072248D03*
X0158788Y0072720D03*
X0158788Y0072839D03*
X0158788Y0072957D03*
X0158906Y0073311D03*
X0158906Y0073429D03*
X0158906Y0073547D03*
X0159024Y0073902D03*
X0159024Y0074020D03*
X0159024Y0074138D03*
X0159024Y0074256D03*
X0159143Y0074492D03*
X0159143Y0074610D03*
X0159143Y0074728D03*
X0159143Y0074846D03*
X0159261Y0075083D03*
X0159261Y0075201D03*
X0159261Y0075319D03*
X0159261Y0075437D03*
X0159024Y0076972D03*
X0160796Y0076972D03*
X0161032Y0074492D03*
X0160914Y0074256D03*
X0160914Y0074138D03*
X0160914Y0074020D03*
X0160914Y0073902D03*
X0160914Y0073783D03*
X0160914Y0073429D03*
X0160914Y0073311D03*
X0160914Y0073193D03*
X0162213Y0070831D03*
X0162095Y0070594D03*
X0161977Y0070476D03*
X0161977Y0070358D03*
X0161859Y0070240D03*
X0161741Y0070004D03*
X0161623Y0069886D03*
X0164812Y0072602D03*
X0164930Y0072720D03*
X0164930Y0072839D03*
X0164930Y0072957D03*
X0165048Y0073193D03*
X0165048Y0073311D03*
X0165048Y0073429D03*
X0165048Y0073547D03*
X0165048Y0073665D03*
X0164930Y0074138D03*
X0167174Y0075083D03*
X0167528Y0073902D03*
X0167528Y0073783D03*
X0167646Y0073547D03*
X0167646Y0073429D03*
X0167646Y0073311D03*
X0167765Y0073193D03*
X0167765Y0073075D03*
X0170599Y0074965D03*
X0169536Y0078862D03*
X0168946Y0079571D03*
X0168473Y0082406D03*
X0168709Y0082760D03*
X0168709Y0082878D03*
X0173788Y0079098D03*
X0173670Y0078862D03*
X0173552Y0078626D03*
X0168709Y0091618D03*
X0170481Y0093154D03*
X0171308Y0095398D03*
X0171072Y0095752D03*
X0170835Y0096106D03*
X0172725Y0097287D03*
X0172961Y0096933D03*
X0173198Y0096579D03*
X0173434Y0096224D03*
X0172489Y0097642D03*
X0168828Y0098114D03*
X0168473Y0096933D03*
X0168473Y0096815D03*
X0168473Y0096697D03*
X0168355Y0096461D03*
X0168355Y0096343D03*
X0168355Y0096224D03*
X0163276Y0098469D03*
X0163513Y0099413D03*
X0163513Y0099531D03*
X0163513Y0099650D03*
X0163513Y0099768D03*
X0163631Y0100004D03*
X0163631Y0100122D03*
X0163631Y0100240D03*
X0163631Y0100358D03*
X0163867Y0101539D03*
X0163867Y0101657D03*
X0163985Y0101894D03*
X0163985Y0102012D03*
X0163985Y0102130D03*
X0163985Y0102248D03*
X0164103Y0102602D03*
X0161387Y0102602D03*
X0161387Y0102484D03*
X0161387Y0102366D03*
X0160796Y0100358D03*
X0160796Y0100240D03*
X0160796Y0100122D03*
X0160796Y0100004D03*
X0160914Y0099768D03*
X0159969Y0097642D03*
X0158552Y0099650D03*
X0158434Y0100004D03*
X0158434Y0100122D03*
X0158434Y0100240D03*
X0158434Y0100358D03*
X0158316Y0100594D03*
X0158316Y0100713D03*
X0158316Y0100831D03*
X0158316Y0100949D03*
X0158198Y0101303D03*
X0158198Y0101421D03*
X0158198Y0101539D03*
X0158198Y0101657D03*
X0158080Y0102012D03*
X0158080Y0102130D03*
X0158080Y0102248D03*
X0158080Y0102366D03*
X0157961Y0102602D03*
X0157961Y0102720D03*
X0157961Y0102839D03*
X0157961Y0102957D03*
X0157843Y0103311D03*
X0157843Y0103429D03*
X0157843Y0103547D03*
X0157843Y0103665D03*
X0151465Y0101303D03*
X0151820Y0097524D03*
X0151820Y0097287D03*
X0151820Y0097169D03*
X0151820Y0097051D03*
X0151938Y0096697D03*
X0151938Y0096579D03*
X0151938Y0096461D03*
X0150402Y0094689D03*
X0150284Y0094453D03*
X0149812Y0093744D03*
X0149694Y0093626D03*
X0151111Y0091618D03*
X0146032Y0095161D03*
X0147213Y0097524D03*
D402*
X0147272Y0097406D03*
X0146091Y0095043D03*
X0147981Y0093626D03*
X0151052Y0091500D03*
X0151052Y0091382D03*
X0154831Y0088311D03*
X0151052Y0083114D03*
X0151052Y0082996D03*
X0149280Y0081579D03*
X0149162Y0081461D03*
X0149044Y0081343D03*
X0148926Y0081224D03*
X0148808Y0081106D03*
X0148690Y0080988D03*
X0148572Y0080870D03*
X0148454Y0080752D03*
X0148335Y0080634D03*
X0146446Y0078508D03*
X0147981Y0076382D03*
X0148099Y0076264D03*
X0148217Y0076146D03*
X0148335Y0076028D03*
X0148454Y0075909D03*
X0149517Y0074846D03*
X0152351Y0073311D03*
X0152233Y0073075D03*
X0152469Y0073547D03*
X0152706Y0073902D03*
X0152824Y0074138D03*
X0152942Y0074374D03*
X0153060Y0074610D03*
X0153178Y0074846D03*
X0153296Y0075083D03*
X0153532Y0075437D03*
X0153650Y0075673D03*
X0153769Y0075909D03*
X0153887Y0076146D03*
X0154005Y0076382D03*
X0154123Y0076618D03*
X0156131Y0076146D03*
X0156013Y0075555D03*
X0156013Y0075437D03*
X0155894Y0074965D03*
X0155894Y0074846D03*
X0155776Y0074374D03*
X0155776Y0074256D03*
X0155658Y0073665D03*
X0155658Y0072366D03*
X0155776Y0072130D03*
X0158611Y0072248D03*
X0158611Y0072366D03*
X0158729Y0072484D03*
X0158729Y0072602D03*
X0158847Y0073075D03*
X0158847Y0073193D03*
X0158965Y0073665D03*
X0158965Y0073783D03*
X0159083Y0074374D03*
X0159202Y0074965D03*
X0159320Y0075555D03*
X0161091Y0074728D03*
X0161091Y0074610D03*
X0160973Y0074374D03*
X0161209Y0074846D03*
X0160855Y0073665D03*
X0160855Y0073547D03*
X0160973Y0073075D03*
X0160973Y0072957D03*
X0160973Y0072839D03*
X0161091Y0072720D03*
X0161091Y0072602D03*
X0161209Y0072484D03*
X0162154Y0070713D03*
X0161800Y0070122D03*
X0164753Y0072484D03*
X0164989Y0073075D03*
X0164989Y0073783D03*
X0164989Y0073902D03*
X0164989Y0074020D03*
X0164871Y0074256D03*
X0164871Y0074374D03*
X0164753Y0074610D03*
X0167469Y0074138D03*
X0168532Y0074965D03*
X0170776Y0082169D03*
X0168769Y0082996D03*
X0168769Y0083114D03*
X0168769Y0083232D03*
X0168769Y0091382D03*
X0168769Y0091500D03*
X0167824Y0092563D03*
X0168532Y0097169D03*
X0173611Y0095870D03*
X0163572Y0099886D03*
X0163690Y0100476D03*
X0163690Y0100594D03*
X0163926Y0101776D03*
X0164044Y0102366D03*
X0164044Y0102484D03*
X0161446Y0102720D03*
X0160973Y0100713D03*
X0160855Y0100594D03*
X0160855Y0100476D03*
X0160855Y0099886D03*
X0158493Y0099886D03*
X0158493Y0099768D03*
X0158375Y0100476D03*
X0158257Y0101067D03*
X0158257Y0101185D03*
X0158139Y0101776D03*
X0158139Y0101894D03*
X0158020Y0102484D03*
X0157902Y0103075D03*
X0157902Y0103193D03*
X0152233Y0078154D03*
D403*
X0152233Y0078035D03*
X0151406Y0077091D03*
X0147272Y0079571D03*
X0147036Y0079217D03*
X0146918Y0079098D03*
X0146800Y0078980D03*
X0146682Y0078862D03*
X0146564Y0078744D03*
X0150934Y0083587D03*
X0150934Y0083705D03*
X0150934Y0083823D03*
X0150934Y0090791D03*
X0150934Y0090909D03*
X0148572Y0092681D03*
X0150343Y0094925D03*
X0153060Y0098469D03*
X0161209Y0099531D03*
X0168887Y0090909D03*
X0168887Y0090791D03*
X0168887Y0090673D03*
X0164871Y0088193D03*
X0168887Y0083823D03*
X0168887Y0083705D03*
X0168887Y0083587D03*
X0167587Y0074374D03*
X0164517Y0074965D03*
X0164398Y0075083D03*
X0161446Y0075083D03*
X0161328Y0072248D03*
X0161446Y0072130D03*
X0162391Y0070949D03*
X0155894Y0072012D03*
X0173493Y0095752D03*
D404*
X0170481Y0093272D03*
X0168828Y0091264D03*
X0168828Y0091146D03*
X0168828Y0091028D03*
X0168473Y0097287D03*
X0167410Y0097996D03*
X0167292Y0098114D03*
X0165402Y0097996D03*
X0168946Y0100831D03*
X0163985Y0102720D03*
X0162331Y0103665D03*
X0161977Y0101539D03*
X0161032Y0099650D03*
X0156898Y0098587D03*
X0155009Y0098232D03*
X0151820Y0097642D03*
X0150402Y0094807D03*
X0151938Y0092563D03*
X0150993Y0091264D03*
X0150993Y0091146D03*
X0150993Y0091028D03*
X0146150Y0094925D03*
X0150993Y0083469D03*
X0150993Y0083350D03*
X0150993Y0083232D03*
X0151465Y0082287D03*
X0151583Y0082169D03*
X0148276Y0080516D03*
X0148158Y0080398D03*
X0148040Y0080280D03*
X0147213Y0079453D03*
X0147095Y0079335D03*
X0146505Y0078626D03*
X0149457Y0074965D03*
X0152410Y0073429D03*
X0152292Y0073193D03*
X0152174Y0072957D03*
X0152528Y0073665D03*
X0152646Y0073783D03*
X0152765Y0074020D03*
X0152883Y0074256D03*
X0153001Y0074492D03*
X0153119Y0074728D03*
X0153237Y0074965D03*
X0153355Y0075201D03*
X0153473Y0075319D03*
X0153591Y0075555D03*
X0153709Y0075791D03*
X0153828Y0076028D03*
X0153946Y0076264D03*
X0154064Y0076500D03*
X0154182Y0076736D03*
X0154300Y0076854D03*
X0158552Y0072130D03*
X0158434Y0072012D03*
X0157253Y0070949D03*
X0161269Y0072366D03*
X0161387Y0074965D03*
X0163040Y0076146D03*
X0164576Y0074846D03*
X0164694Y0074728D03*
X0164812Y0074492D03*
X0164694Y0072366D03*
X0164576Y0072248D03*
X0164457Y0072130D03*
X0167528Y0074256D03*
X0168709Y0075083D03*
X0168828Y0075201D03*
X0167056Y0077799D03*
X0168946Y0079453D03*
X0169064Y0079335D03*
X0169182Y0079217D03*
X0169300Y0079098D03*
X0169418Y0078980D03*
X0168237Y0082169D03*
X0168355Y0082287D03*
X0168828Y0083350D03*
X0168828Y0083469D03*
X0174024Y0079807D03*
D405*
X0173847Y0080043D03*
X0169831Y0075791D03*
X0169477Y0076028D03*
X0167706Y0074610D03*
X0162745Y0071067D03*
X0157194Y0071067D03*
X0152115Y0081697D03*
X0150698Y0085122D03*
X0150698Y0085240D03*
X0150698Y0085358D03*
X0150698Y0085476D03*
X0150698Y0085594D03*
X0150698Y0088783D03*
X0150698Y0088902D03*
X0150698Y0089020D03*
X0150698Y0089138D03*
X0150698Y0089256D03*
X0150698Y0089374D03*
X0152233Y0092917D03*
X0150225Y0095161D03*
X0152115Y0097996D03*
X0151524Y0100949D03*
X0160028Y0089846D03*
X0167587Y0092917D03*
X0169123Y0089256D03*
X0169123Y0089138D03*
X0169123Y0089020D03*
X0169123Y0088902D03*
X0169123Y0088783D03*
X0169123Y0085831D03*
X0169123Y0085713D03*
X0169123Y0085594D03*
X0169123Y0085476D03*
X0169123Y0085358D03*
X0169123Y0085240D03*
X0167706Y0081697D03*
X0168887Y0100594D03*
X0147391Y0079925D03*
D406*
X0147450Y0080161D03*
X0148276Y0082524D03*
X0152528Y0081343D03*
X0149457Y0075437D03*
X0158434Y0077209D03*
X0161387Y0077209D03*
X0162922Y0071185D03*
X0167883Y0074846D03*
X0154891Y0088075D03*
X0152646Y0093272D03*
X0148631Y0093035D03*
X0146977Y0094217D03*
X0147450Y0096933D03*
X0151702Y0100713D03*
X0151820Y0100594D03*
X0157961Y0099413D03*
X0162804Y0098705D03*
X0166111Y0098587D03*
X0168119Y0097878D03*
X0168709Y0100358D03*
X0172371Y0094807D03*
X0167174Y0093272D03*
X0167056Y0093390D03*
X0150757Y0088547D03*
D407*
X0148690Y0093154D03*
X0146918Y0094335D03*
X0152824Y0093390D03*
X0152233Y0098232D03*
X0154123Y0098823D03*
X0160028Y0094571D03*
X0162509Y0103547D03*
X0168650Y0100240D03*
X0171131Y0081697D03*
X0171485Y0081461D03*
X0171721Y0081343D03*
X0171957Y0081224D03*
X0173493Y0080398D03*
X0173729Y0080280D03*
X0167233Y0081343D03*
X0167115Y0081224D03*
X0167233Y0077327D03*
X0167351Y0077209D03*
X0157194Y0071185D03*
X0152706Y0081224D03*
D408*
X0153119Y0080870D03*
X0158198Y0077327D03*
X0157253Y0071303D03*
X0162922Y0071303D03*
X0167528Y0076972D03*
X0169891Y0075437D03*
X0164812Y0087839D03*
X0157489Y0098823D03*
X0154182Y0098705D03*
X0153237Y0093744D03*
X0149339Y0095516D03*
X0148749Y0093508D03*
X0148749Y0093390D03*
X0147568Y0096697D03*
X0150993Y0088311D03*
X0149457Y0075673D03*
D409*
X0156485Y0082169D03*
X0151170Y0088075D03*
X0153650Y0094098D03*
X0154123Y0098587D03*
X0157666Y0098941D03*
X0157666Y0099059D03*
X0157666Y0099177D03*
X0162391Y0099059D03*
X0162863Y0101421D03*
X0162745Y0103429D03*
X0164753Y0087720D03*
X0163926Y0081697D03*
X0163926Y0081579D03*
X0163926Y0081461D03*
X0163926Y0081343D03*
X0163926Y0081224D03*
X0169950Y0075319D03*
X0162863Y0071421D03*
X0157194Y0071421D03*
X0147627Y0096579D03*
D410*
X0154300Y0094571D03*
X0162331Y0099295D03*
X0164694Y0087484D03*
X0163749Y0081933D03*
X0154182Y0080043D03*
X0146032Y0081579D03*
X0157135Y0071657D03*
X0162922Y0071539D03*
D411*
X0162981Y0075673D03*
X0161918Y0077563D03*
X0157902Y0077563D03*
X0154005Y0080161D03*
X0153887Y0080280D03*
X0156367Y0082287D03*
X0151288Y0087957D03*
X0154005Y0094335D03*
X0154123Y0094453D03*
X0159910Y0097524D03*
X0162391Y0099177D03*
X0163808Y0081815D03*
X0157194Y0071539D03*
D412*
X0162922Y0071657D03*
X0162095Y0077681D03*
X0157725Y0077681D03*
X0154654Y0079689D03*
X0154536Y0079807D03*
X0147686Y0082406D03*
X0154772Y0094925D03*
X0162568Y0101185D03*
X0162922Y0103311D03*
X0164694Y0087366D03*
X0163631Y0082169D03*
X0163631Y0082051D03*
D413*
X0163513Y0082406D03*
X0163513Y0082524D03*
X0164576Y0087130D03*
X0164339Y0095398D03*
X0162331Y0100831D03*
X0162450Y0101067D03*
X0162804Y0102957D03*
X0155481Y0095398D03*
X0155127Y0095161D03*
X0156308Y0082642D03*
X0155009Y0079453D03*
X0155363Y0079217D03*
X0157607Y0077799D03*
X0162213Y0077799D03*
X0162922Y0071776D03*
D414*
X0162981Y0075555D03*
X0157194Y0071776D03*
X0154359Y0079925D03*
X0156367Y0082406D03*
X0151406Y0087839D03*
X0154477Y0094689D03*
X0154595Y0094807D03*
X0160028Y0090083D03*
X0162627Y0101303D03*
D415*
X0162568Y0096461D03*
X0162804Y0096343D03*
X0163040Y0096224D03*
X0163276Y0096106D03*
X0163394Y0095988D03*
X0163631Y0095870D03*
X0164576Y0095161D03*
X0160087Y0090201D03*
X0164576Y0087012D03*
X0163394Y0082878D03*
X0164457Y0079335D03*
X0164103Y0078980D03*
X0163749Y0078744D03*
X0163513Y0078626D03*
X0163394Y0078508D03*
X0163158Y0078390D03*
X0162568Y0078035D03*
X0157489Y0077917D03*
X0157253Y0078035D03*
X0157017Y0078154D03*
X0156662Y0078390D03*
X0156426Y0078508D03*
X0156072Y0078744D03*
X0162922Y0071894D03*
X0156190Y0095870D03*
X0156426Y0095988D03*
X0156544Y0096106D03*
X0156780Y0096224D03*
X0157017Y0096343D03*
X0157253Y0096461D03*
X0157371Y0096579D03*
D416*
X0154950Y0098469D03*
X0154005Y0099177D03*
X0153887Y0099295D03*
X0153769Y0099413D03*
X0153414Y0099650D03*
X0153296Y0099768D03*
X0151997Y0097878D03*
X0151997Y0092681D03*
X0150816Y0090319D03*
X0150816Y0090201D03*
X0150816Y0090083D03*
X0150816Y0089965D03*
X0154831Y0088193D03*
X0150816Y0084531D03*
X0150816Y0084413D03*
X0150816Y0084295D03*
X0151879Y0081933D03*
X0151997Y0081815D03*
X0156603Y0081697D03*
X0164162Y0075201D03*
X0164280Y0072012D03*
X0167706Y0074492D03*
X0169123Y0076264D03*
X0168769Y0076500D03*
X0168414Y0076736D03*
X0168296Y0076854D03*
X0166997Y0077681D03*
X0167942Y0081933D03*
X0169005Y0084295D03*
X0169005Y0084413D03*
X0169005Y0084531D03*
X0169005Y0089965D03*
X0169005Y0090083D03*
X0169005Y0090201D03*
X0170540Y0093390D03*
X0173493Y0095634D03*
X0168296Y0097524D03*
X0166879Y0099295D03*
X0167233Y0099531D03*
X0167587Y0099768D03*
X0167706Y0099886D03*
X0158257Y0071894D03*
X0156131Y0071894D03*
D417*
X0151229Y0076854D03*
X0151111Y0076736D03*
X0150993Y0076618D03*
X0150875Y0076500D03*
X0150757Y0076382D03*
X0150639Y0076264D03*
X0150520Y0076146D03*
X0150402Y0076028D03*
X0150284Y0075909D03*
X0149457Y0075083D03*
X0151347Y0076972D03*
X0151465Y0077209D03*
X0151583Y0077327D03*
X0151702Y0077445D03*
X0151820Y0077563D03*
X0151938Y0077681D03*
X0152056Y0077799D03*
X0152174Y0077917D03*
X0151702Y0082051D03*
X0150875Y0083941D03*
X0150875Y0084059D03*
X0150875Y0084177D03*
X0147331Y0079689D03*
X0150875Y0090437D03*
X0150875Y0090555D03*
X0150875Y0090673D03*
X0147331Y0097287D03*
X0151938Y0097760D03*
X0153591Y0099531D03*
X0153119Y0099886D03*
X0153001Y0100004D03*
X0152883Y0100122D03*
X0152646Y0100240D03*
X0152528Y0100358D03*
X0151465Y0101185D03*
X0155009Y0098350D03*
X0158316Y0099531D03*
X0163513Y0100713D03*
X0165402Y0098114D03*
X0168355Y0097406D03*
X0167883Y0100004D03*
X0168946Y0100713D03*
X0167765Y0092681D03*
X0168946Y0090555D03*
X0168946Y0090437D03*
X0168946Y0090319D03*
X0168946Y0084177D03*
X0168946Y0084059D03*
X0168946Y0083941D03*
X0168119Y0082051D03*
X0170835Y0082051D03*
X0173906Y0079925D03*
X0170599Y0075083D03*
X0161623Y0072012D03*
D418*
X0167469Y0072366D03*
X0166997Y0078154D03*
X0168887Y0079925D03*
X0170540Y0082524D03*
X0168887Y0092091D03*
X0168532Y0095398D03*
X0165343Y0097642D03*
X0169005Y0101185D03*
X0158139Y0103902D03*
X0154950Y0097878D03*
X0147036Y0097878D03*
X0152233Y0078626D03*
X0155776Y0076382D03*
X0149517Y0074374D03*
X0146328Y0077799D03*
D419*
X0147922Y0076854D03*
X0152410Y0072602D03*
X0154064Y0077327D03*
X0167528Y0072484D03*
X0170599Y0074728D03*
X0169772Y0078508D03*
X0167765Y0092327D03*
X0170245Y0092799D03*
X0168473Y0095516D03*
X0163631Y0098350D03*
X0151702Y0095870D03*
X0151938Y0092327D03*
X0146623Y0093862D03*
D420*
X0150875Y0092091D03*
X0151583Y0095752D03*
X0146269Y0077681D03*
X0147922Y0076972D03*
X0152528Y0072484D03*
X0158906Y0075791D03*
X0168828Y0080043D03*
X0170481Y0082642D03*
X0173434Y0077681D03*
X0170245Y0092681D03*
X0170954Y0096579D03*
X0172607Y0098114D03*
D421*
X0172548Y0097996D03*
X0170894Y0096461D03*
X0168887Y0091972D03*
X0173375Y0077799D03*
X0167587Y0072602D03*
X0154123Y0077209D03*
X0152233Y0078508D03*
X0149517Y0074492D03*
X0146328Y0077917D03*
X0146328Y0078035D03*
X0150934Y0091972D03*
X0151761Y0095988D03*
X0154950Y0097996D03*
X0151524Y0101539D03*
X0147154Y0097760D03*
D422*
X0147154Y0097642D03*
X0151879Y0096106D03*
X0151052Y0091854D03*
X0156603Y0098469D03*
X0167824Y0092445D03*
X0168769Y0091854D03*
X0169713Y0078626D03*
X0173257Y0077917D03*
X0167706Y0072720D03*
X0152351Y0072720D03*
X0149517Y0074610D03*
X0152233Y0078390D03*
X0146328Y0078154D03*
X0146564Y0080398D03*
X0146446Y0080634D03*
X0146328Y0080870D03*
X0146209Y0081106D03*
D423*
X0148926Y0082642D03*
X0151170Y0082642D03*
X0151170Y0082524D03*
X0152233Y0078272D03*
X0149517Y0074728D03*
X0147981Y0076500D03*
X0152233Y0072839D03*
X0156603Y0081579D03*
X0151052Y0091736D03*
X0149871Y0093862D03*
X0149989Y0093980D03*
X0150107Y0094098D03*
X0150107Y0094217D03*
X0150225Y0094335D03*
X0150343Y0094571D03*
X0148099Y0095043D03*
X0147981Y0094925D03*
X0147863Y0093744D03*
X0146682Y0093980D03*
X0145973Y0095280D03*
X0145973Y0095398D03*
X0146091Y0095752D03*
X0146209Y0095988D03*
X0146328Y0096106D03*
X0146328Y0096224D03*
X0146446Y0096343D03*
X0146564Y0096461D03*
X0148572Y0092563D03*
X0151997Y0096343D03*
X0151879Y0096815D03*
X0151879Y0096933D03*
X0151761Y0097406D03*
X0151524Y0098469D03*
X0151524Y0098587D03*
X0151524Y0098705D03*
X0151406Y0098823D03*
X0151406Y0098941D03*
X0151406Y0099059D03*
X0151406Y0099177D03*
X0151288Y0099413D03*
X0151288Y0099531D03*
X0151288Y0099650D03*
X0151170Y0100004D03*
X0151170Y0100122D03*
X0154950Y0098114D03*
X0157902Y0103783D03*
X0161328Y0102248D03*
X0161328Y0102130D03*
X0161328Y0102012D03*
X0161446Y0101894D03*
X0161564Y0101776D03*
X0161682Y0101657D03*
X0165343Y0097878D03*
X0168414Y0096579D03*
X0168532Y0097051D03*
X0168296Y0096106D03*
X0168296Y0095988D03*
X0168296Y0095870D03*
X0168769Y0097996D03*
X0168887Y0098232D03*
X0168887Y0098350D03*
X0168887Y0098469D03*
X0168887Y0098587D03*
X0169005Y0098705D03*
X0169005Y0098823D03*
X0169005Y0098941D03*
X0169123Y0099177D03*
X0169123Y0099295D03*
X0169241Y0099650D03*
X0169241Y0099768D03*
X0172430Y0097760D03*
X0172548Y0097524D03*
X0172666Y0097406D03*
X0172784Y0097169D03*
X0172902Y0097051D03*
X0173020Y0096815D03*
X0173139Y0096697D03*
X0173257Y0096461D03*
X0173375Y0096343D03*
X0173493Y0096106D03*
X0173611Y0095988D03*
X0171367Y0095280D03*
X0171249Y0095516D03*
X0171131Y0095634D03*
X0171013Y0095870D03*
X0170894Y0095988D03*
X0170776Y0096224D03*
X0168769Y0091736D03*
X0168650Y0082642D03*
X0168650Y0082524D03*
X0169595Y0078744D03*
X0166997Y0077917D03*
X0166761Y0076618D03*
X0166761Y0076500D03*
X0166879Y0076264D03*
X0166879Y0076146D03*
X0166879Y0076028D03*
X0166997Y0075791D03*
X0166997Y0075673D03*
X0166997Y0075555D03*
X0167115Y0075437D03*
X0167115Y0075319D03*
X0167115Y0075201D03*
X0167233Y0074965D03*
X0167469Y0074020D03*
X0167587Y0073665D03*
X0167706Y0072957D03*
X0167706Y0072839D03*
X0173257Y0078035D03*
X0173257Y0078154D03*
X0173375Y0078272D03*
X0173375Y0078390D03*
X0173493Y0078508D03*
X0173611Y0078744D03*
X0173729Y0078980D03*
X0173847Y0079217D03*
X0173965Y0079335D03*
X0173965Y0079453D03*
X0174083Y0079571D03*
X0174083Y0079689D03*
D424*
X0171013Y0081815D03*
X0167351Y0081461D03*
X0167115Y0077445D03*
X0167824Y0074728D03*
X0156485Y0081815D03*
X0152469Y0081461D03*
X0147391Y0080043D03*
X0152351Y0093035D03*
X0152469Y0093154D03*
X0150107Y0095280D03*
X0149280Y0095752D03*
X0149162Y0095870D03*
X0148808Y0096106D03*
X0148454Y0096343D03*
X0147036Y0094098D03*
X0152233Y0098114D03*
X0151643Y0100831D03*
X0161564Y0099413D03*
X0168178Y0097760D03*
X0171013Y0093862D03*
X0171367Y0094098D03*
X0171721Y0094335D03*
X0172076Y0094571D03*
X0173139Y0095280D03*
X0170658Y0093626D03*
X0167351Y0093154D03*
D425*
X0167765Y0092799D03*
X0169064Y0089846D03*
X0169064Y0089728D03*
X0169064Y0089610D03*
X0169064Y0089492D03*
X0169064Y0089374D03*
X0170599Y0093508D03*
X0166583Y0099059D03*
X0166702Y0099177D03*
X0167056Y0099413D03*
X0167410Y0099650D03*
X0166347Y0098941D03*
X0166229Y0098823D03*
X0163040Y0098587D03*
X0154182Y0099059D03*
X0151465Y0101067D03*
X0147331Y0097169D03*
X0150284Y0095043D03*
X0148631Y0092799D03*
X0150757Y0089846D03*
X0150757Y0089728D03*
X0150757Y0089610D03*
X0150757Y0089492D03*
X0152056Y0092799D03*
X0150757Y0085004D03*
X0150757Y0084886D03*
X0150757Y0084768D03*
X0150757Y0084650D03*
X0147331Y0079807D03*
X0149457Y0075201D03*
X0158670Y0077091D03*
X0161150Y0077091D03*
X0161741Y0075201D03*
X0167765Y0081815D03*
X0169064Y0084650D03*
X0169064Y0084768D03*
X0169064Y0084886D03*
X0169064Y0085004D03*
X0169064Y0085122D03*
X0170954Y0081933D03*
X0168591Y0076618D03*
X0168946Y0076382D03*
X0169300Y0076146D03*
X0169654Y0075909D03*
X0170599Y0075201D03*
D426*
X0164398Y0079217D03*
X0164280Y0079098D03*
X0163926Y0078862D03*
X0162391Y0077917D03*
X0162981Y0075319D03*
X0163454Y0082642D03*
X0163454Y0082760D03*
X0156249Y0082760D03*
X0155540Y0079098D03*
X0155658Y0078980D03*
X0155894Y0078862D03*
X0155658Y0095516D03*
X0155776Y0095634D03*
X0156013Y0095752D03*
X0157666Y0096697D03*
X0162154Y0096697D03*
X0162391Y0096579D03*
X0163808Y0095752D03*
X0164044Y0095634D03*
X0164162Y0095516D03*
D427*
X0166111Y0098705D03*
X0168237Y0097642D03*
X0168828Y0100476D03*
X0173434Y0095516D03*
X0173316Y0095398D03*
X0172253Y0094689D03*
X0171898Y0094453D03*
X0171544Y0094217D03*
X0171190Y0093980D03*
X0170835Y0093744D03*
X0167528Y0093035D03*
X0169182Y0088665D03*
X0169182Y0088547D03*
X0169182Y0088429D03*
X0169182Y0088311D03*
X0169182Y0088193D03*
X0169182Y0088075D03*
X0169182Y0087957D03*
X0169182Y0087839D03*
X0169182Y0087720D03*
X0169182Y0087602D03*
X0169182Y0087484D03*
X0169182Y0087366D03*
X0169182Y0087248D03*
X0169182Y0087130D03*
X0169182Y0087012D03*
X0169182Y0086894D03*
X0169182Y0086776D03*
X0169182Y0086657D03*
X0169182Y0086539D03*
X0169182Y0086421D03*
X0169182Y0086303D03*
X0169182Y0086185D03*
X0169182Y0086067D03*
X0169182Y0085949D03*
X0167528Y0081579D03*
X0167056Y0077563D03*
X0169891Y0075673D03*
X0173788Y0080161D03*
X0164812Y0088075D03*
X0157253Y0098705D03*
X0154182Y0098941D03*
X0148985Y0095988D03*
X0148631Y0096224D03*
X0148276Y0096461D03*
X0147450Y0097051D03*
X0148631Y0092917D03*
X0150639Y0088665D03*
X0152292Y0081579D03*
X0145442Y0081343D03*
X0149457Y0075319D03*
X0163040Y0076028D03*
D428*
X0162981Y0075437D03*
X0163572Y0082287D03*
X0164635Y0087248D03*
X0164517Y0095280D03*
X0162391Y0100949D03*
X0162745Y0102839D03*
X0162863Y0103075D03*
X0162863Y0103193D03*
X0155304Y0095280D03*
X0154950Y0095043D03*
X0156367Y0082524D03*
X0154831Y0079571D03*
X0155186Y0079335D03*
D429*
X0156544Y0081933D03*
X0152883Y0081106D03*
X0149457Y0075555D03*
X0150875Y0088429D03*
X0154891Y0087957D03*
X0149339Y0095634D03*
X0147568Y0096815D03*
X0151938Y0100476D03*
X0164812Y0087957D03*
X0166938Y0093508D03*
X0172371Y0094925D03*
X0171308Y0081579D03*
X0172135Y0081106D03*
X0172371Y0080988D03*
X0172607Y0080870D03*
X0172843Y0080752D03*
X0173080Y0080634D03*
X0173316Y0080516D03*
X0169891Y0075555D03*
D430*
X0162981Y0075791D03*
X0156485Y0082051D03*
X0153296Y0080752D03*
X0154950Y0087839D03*
X0160028Y0089965D03*
X0153414Y0093862D03*
X0157666Y0099295D03*
X0162509Y0098941D03*
X0172430Y0095043D03*
X0146918Y0094807D03*
X0146918Y0094689D03*
D431*
X0149457Y0095398D03*
X0153473Y0093980D03*
X0151111Y0088193D03*
X0153473Y0080634D03*
X0153591Y0080516D03*
X0158080Y0077445D03*
X0161741Y0077445D03*
X0149457Y0075791D03*
X0166111Y0098350D03*
X0172489Y0095161D03*
D432*
X0166761Y0093626D03*
X0166052Y0098469D03*
X0162627Y0098823D03*
X0168532Y0100122D03*
X0153060Y0093626D03*
X0152942Y0093508D03*
X0148690Y0093272D03*
X0146918Y0094453D03*
X0146918Y0094571D03*
X0152351Y0098350D03*
X0145619Y0081461D03*
X0152942Y0080988D03*
X0161564Y0077327D03*
X0162981Y0075909D03*
X0167469Y0077091D03*
D433*
X0164517Y0079453D03*
X0162981Y0078272D03*
X0162745Y0078154D03*
X0163454Y0082996D03*
X0164517Y0086894D03*
X0156249Y0082996D03*
X0156249Y0082878D03*
X0156249Y0078626D03*
X0156839Y0078272D03*
D434*
X0156131Y0083232D03*
X0163572Y0083232D03*
X0164635Y0079571D03*
X0164517Y0095043D03*
X0159910Y0097406D03*
D435*
X0160087Y0090319D03*
X0164457Y0086657D03*
X0164457Y0086539D03*
X0163513Y0083350D03*
X0164694Y0079689D03*
X0156072Y0083350D03*
D436*
X0156131Y0083469D03*
X0163572Y0083469D03*
X0164398Y0086421D03*
X0164753Y0079807D03*
X0164517Y0094925D03*
D437*
X0164339Y0086303D03*
X0164339Y0086185D03*
X0163631Y0083705D03*
X0163631Y0083587D03*
X0164812Y0079925D03*
X0156072Y0083587D03*
X0156072Y0083705D03*
D438*
X0156013Y0083823D03*
X0156013Y0083941D03*
X0155894Y0084295D03*
X0160146Y0090437D03*
X0164280Y0086067D03*
X0164280Y0085949D03*
X0163690Y0083941D03*
X0163690Y0083823D03*
X0164871Y0080043D03*
X0147036Y0082287D03*
D439*
X0155835Y0084413D03*
X0155835Y0084531D03*
X0155835Y0084650D03*
X0155717Y0084886D03*
X0155954Y0084177D03*
X0155954Y0084059D03*
X0163749Y0084059D03*
X0163749Y0084177D03*
X0164103Y0085358D03*
X0164221Y0085713D03*
X0164221Y0085831D03*
X0164930Y0080161D03*
X0164457Y0094807D03*
D440*
X0164162Y0085594D03*
X0164162Y0085476D03*
X0164044Y0085240D03*
X0164044Y0085122D03*
X0164044Y0085004D03*
X0163926Y0084768D03*
X0163926Y0084650D03*
X0163926Y0084531D03*
X0163808Y0084413D03*
X0163808Y0084295D03*
X0164989Y0080398D03*
X0164989Y0080280D03*
X0155776Y0084768D03*
D441*
X0153709Y0080398D03*
X0164694Y0087602D03*
X0166111Y0098232D03*
X0153828Y0094217D03*
D442*
X0160087Y0090555D03*
X0164457Y0094689D03*
X0163985Y0084886D03*
X0165048Y0080516D03*
X0155599Y0085004D03*
D443*
X0165107Y0080634D03*
X0159910Y0097287D03*
D444*
X0155481Y0085122D03*
X0146977Y0081815D03*
X0146859Y0082051D03*
X0165166Y0080752D03*
D445*
X0165225Y0080870D03*
X0155422Y0085240D03*
X0160146Y0090673D03*
X0164398Y0094571D03*
X0146800Y0082169D03*
X0146918Y0081933D03*
X0147036Y0081697D03*
D446*
X0155245Y0085358D03*
X0165284Y0081106D03*
X0165284Y0080988D03*
D447*
X0163513Y0083114D03*
X0164457Y0086776D03*
X0156190Y0083114D03*
D448*
X0155127Y0085476D03*
D449*
X0154950Y0085594D03*
X0160146Y0090909D03*
X0159910Y0097169D03*
D450*
X0153769Y0086067D03*
X0153769Y0085949D03*
X0153887Y0085713D03*
D451*
X0153828Y0085831D03*
D452*
X0153709Y0086185D03*
D453*
X0153650Y0086303D03*
X0153650Y0086421D03*
X0160973Y0093508D03*
X0161091Y0093626D03*
X0159910Y0096815D03*
D454*
X0153591Y0086657D03*
X0153591Y0086539D03*
D455*
X0153532Y0086776D03*
X0160855Y0093390D03*
D456*
X0160678Y0093272D03*
X0160560Y0093154D03*
X0153473Y0086894D03*
D457*
X0153414Y0087012D03*
X0159910Y0096933D03*
D458*
X0160442Y0093035D03*
X0153355Y0087248D03*
X0153355Y0087130D03*
D459*
X0153296Y0087366D03*
X0160146Y0092091D03*
X0160146Y0092209D03*
X0160146Y0092327D03*
D460*
X0160146Y0092563D03*
X0160146Y0092681D03*
X0160146Y0091972D03*
X0160146Y0091854D03*
X0160146Y0091736D03*
X0160146Y0091618D03*
X0153178Y0087484D03*
D461*
X0153119Y0087602D03*
D462*
X0153060Y0087720D03*
X0160146Y0091382D03*
X0160146Y0091500D03*
X0159910Y0097051D03*
D463*
X0160146Y0090791D03*
D464*
X0160146Y0091028D03*
D465*
X0160146Y0091146D03*
X0160146Y0091264D03*
D466*
X0160206Y0092445D03*
X0160206Y0092799D03*
X0160324Y0092917D03*
D467*
X0162568Y0093744D03*
D468*
X0162568Y0093862D03*
D469*
X0162686Y0093980D03*
D470*
X0162686Y0094098D03*
D471*
X0162745Y0094217D03*
D472*
X0162804Y0094335D03*
D473*
X0162863Y0094453D03*
D474*
X0099300Y0141500D02*
X0094300Y0141500D01*
X0096800Y0139000D01*
X0094300Y0141500D02*
X0096800Y0144000D01*
D475*
X0053800Y0075000D02*
X0053813Y0076055D01*
X0053852Y0077110D01*
X0053917Y0078163D01*
X0054007Y0079215D01*
X0054123Y0080264D01*
X0054265Y0081309D01*
X0054433Y0082351D01*
X0054626Y0083389D01*
X0054845Y0084421D01*
X0055089Y0085448D01*
X0055358Y0086469D01*
X0055652Y0087482D01*
X0055970Y0088488D01*
X0056314Y0089486D01*
X0056681Y0090475D01*
X0057073Y0091455D01*
X0057489Y0092425D01*
X0057928Y0093385D01*
X0058391Y0094333D01*
X0058877Y0095270D01*
X0059386Y0096195D01*
X0059918Y0097106D01*
X0060471Y0098005D01*
X0061047Y0098890D01*
X0061644Y0099760D01*
X0062262Y0100615D01*
X0062901Y0101455D01*
X0063561Y0102279D01*
X0064240Y0103086D01*
X0064939Y0103877D01*
X0065657Y0104650D01*
X0066394Y0105406D01*
X0067150Y0106143D01*
X0067923Y0106861D01*
X0068714Y0107560D01*
X0069521Y0108239D01*
X0070345Y0108899D01*
X0071185Y0109538D01*
X0072040Y0110156D01*
X0072910Y0110753D01*
X0073795Y0111329D01*
X0074694Y0111882D01*
X0075605Y0112414D01*
X0076530Y0112923D01*
X0077467Y0113409D01*
X0078415Y0113872D01*
X0079375Y0114311D01*
X0080345Y0114727D01*
X0081325Y0115119D01*
X0082314Y0115486D01*
X0083312Y0115830D01*
X0084318Y0116148D01*
X0085331Y0116442D01*
X0086352Y0116711D01*
X0087379Y0116955D01*
X0088411Y0117174D01*
X0089449Y0117367D01*
X0090491Y0117535D01*
X0091536Y0117677D01*
X0092585Y0117793D01*
X0093637Y0117883D01*
X0094690Y0117948D01*
X0095745Y0117987D01*
X0096800Y0118000D01*
X0097855Y0117987D01*
X0098910Y0117948D01*
X0099963Y0117883D01*
X0101015Y0117793D01*
X0102064Y0117677D01*
X0103109Y0117535D01*
X0104151Y0117367D01*
X0105189Y0117174D01*
X0106221Y0116955D01*
X0107248Y0116711D01*
X0108269Y0116442D01*
X0109282Y0116148D01*
X0110288Y0115830D01*
X0111286Y0115486D01*
X0112275Y0115119D01*
X0113255Y0114727D01*
X0114225Y0114311D01*
X0115185Y0113872D01*
X0116133Y0113409D01*
X0117070Y0112923D01*
X0117995Y0112414D01*
X0118906Y0111882D01*
X0119805Y0111329D01*
X0120690Y0110753D01*
X0121560Y0110156D01*
X0122415Y0109538D01*
X0123255Y0108899D01*
X0124079Y0108239D01*
X0124886Y0107560D01*
X0125677Y0106861D01*
X0126450Y0106143D01*
X0127206Y0105406D01*
X0127943Y0104650D01*
X0128661Y0103877D01*
X0129360Y0103086D01*
X0130039Y0102279D01*
X0130699Y0101455D01*
X0131338Y0100615D01*
X0131956Y0099760D01*
X0132553Y0098890D01*
X0133129Y0098005D01*
X0133682Y0097106D01*
X0134214Y0096195D01*
X0134723Y0095270D01*
X0135209Y0094333D01*
X0135672Y0093385D01*
X0136111Y0092425D01*
X0136527Y0091455D01*
X0136919Y0090475D01*
X0137286Y0089486D01*
X0137630Y0088488D01*
X0137948Y0087482D01*
X0138242Y0086469D01*
X0138511Y0085448D01*
X0138755Y0084421D01*
X0138974Y0083389D01*
X0139167Y0082351D01*
X0139335Y0081309D01*
X0139477Y0080264D01*
X0139593Y0079215D01*
X0139683Y0078163D01*
X0139748Y0077110D01*
X0139787Y0076055D01*
X0139800Y0075000D01*
X0139787Y0073945D01*
X0139748Y0072890D01*
X0139683Y0071837D01*
X0139593Y0070785D01*
X0139477Y0069736D01*
X0139335Y0068691D01*
X0139167Y0067649D01*
X0138974Y0066611D01*
X0138755Y0065579D01*
X0138511Y0064552D01*
X0138242Y0063531D01*
X0137948Y0062518D01*
X0137630Y0061512D01*
X0137286Y0060514D01*
X0136919Y0059525D01*
X0136527Y0058545D01*
X0136111Y0057575D01*
X0135672Y0056615D01*
X0135209Y0055667D01*
X0134723Y0054730D01*
X0134214Y0053805D01*
X0133682Y0052894D01*
X0133129Y0051995D01*
X0132553Y0051110D01*
X0131956Y0050240D01*
X0131338Y0049385D01*
X0130699Y0048545D01*
X0130039Y0047721D01*
X0129360Y0046914D01*
X0128661Y0046123D01*
X0127943Y0045350D01*
X0127206Y0044594D01*
X0126450Y0043857D01*
X0125677Y0043139D01*
X0124886Y0042440D01*
X0124079Y0041761D01*
X0123255Y0041101D01*
X0122415Y0040462D01*
X0121560Y0039844D01*
X0120690Y0039247D01*
X0119805Y0038671D01*
X0118906Y0038118D01*
X0117995Y0037586D01*
X0117070Y0037077D01*
X0116133Y0036591D01*
X0115185Y0036128D01*
X0114225Y0035689D01*
X0113255Y0035273D01*
X0112275Y0034881D01*
X0111286Y0034514D01*
X0110288Y0034170D01*
X0109282Y0033852D01*
X0108269Y0033558D01*
X0107248Y0033289D01*
X0106221Y0033045D01*
X0105189Y0032826D01*
X0104151Y0032633D01*
X0103109Y0032465D01*
X0102064Y0032323D01*
X0101015Y0032207D01*
X0099963Y0032117D01*
X0098910Y0032052D01*
X0097855Y0032013D01*
X0096800Y0032000D01*
X0095745Y0032013D01*
X0094690Y0032052D01*
X0093637Y0032117D01*
X0092585Y0032207D01*
X0091536Y0032323D01*
X0090491Y0032465D01*
X0089449Y0032633D01*
X0088411Y0032826D01*
X0087379Y0033045D01*
X0086352Y0033289D01*
X0085331Y0033558D01*
X0084318Y0033852D01*
X0083312Y0034170D01*
X0082314Y0034514D01*
X0081325Y0034881D01*
X0080345Y0035273D01*
X0079375Y0035689D01*
X0078415Y0036128D01*
X0077467Y0036591D01*
X0076530Y0037077D01*
X0075605Y0037586D01*
X0074694Y0038118D01*
X0073795Y0038671D01*
X0072910Y0039247D01*
X0072040Y0039844D01*
X0071185Y0040462D01*
X0070345Y0041101D01*
X0069521Y0041761D01*
X0068714Y0042440D01*
X0067923Y0043139D01*
X0067150Y0043857D01*
X0066394Y0044594D01*
X0065657Y0045350D01*
X0064939Y0046123D01*
X0064240Y0046914D01*
X0063561Y0047721D01*
X0062901Y0048545D01*
X0062262Y0049385D01*
X0061644Y0050240D01*
X0061047Y0051110D01*
X0060471Y0051995D01*
X0059918Y0052894D01*
X0059386Y0053805D01*
X0058877Y0054730D01*
X0058391Y0055667D01*
X0057928Y0056615D01*
X0057489Y0057575D01*
X0057073Y0058545D01*
X0056681Y0059525D01*
X0056314Y0060514D01*
X0055970Y0061512D01*
X0055652Y0062518D01*
X0055358Y0063531D01*
X0055089Y0064552D01*
X0054845Y0065579D01*
X0054626Y0066611D01*
X0054433Y0067649D01*
X0054265Y0068691D01*
X0054123Y0069736D01*
X0054007Y0070785D01*
X0053917Y0071837D01*
X0053852Y0072890D01*
X0053813Y0073945D01*
X0053800Y0075000D01*
X0084300Y0034000D02*
X0084300Y0019000D01*
X0109300Y0019000D01*
X0109300Y0034000D01*
D476*
X0036497Y0033268D02*
X0032961Y0033268D01*
X0029426Y0036803D01*
X0029426Y0040339D01*
X0032961Y0043874D01*
X0036497Y0043874D01*
X0040032Y0040339D01*
X0040032Y0036803D01*
X0043568Y0036803D01*
X0047103Y0033268D01*
X0047103Y0029732D01*
X0043568Y0026197D01*
X0040032Y0026197D01*
X0036497Y0029732D01*
X0036497Y0033268D01*
X0081800Y0014000D02*
X0081800Y0009000D01*
X0084300Y0006500D01*
X0089300Y0006500D01*
X0091800Y0009000D01*
X0094300Y0006500D01*
X0099300Y0006500D01*
X0101800Y0009000D01*
X0104300Y0006500D01*
X0109300Y0006500D01*
X0111800Y0009000D01*
X0111800Y0014000D01*
X0109300Y0016500D01*
X0104300Y0016500D01*
X0101800Y0014000D01*
X0099300Y0016500D01*
X0094300Y0016500D01*
X0091800Y0014000D01*
X0089300Y0016500D01*
X0084300Y0016500D01*
X0081800Y0014000D01*
X0146497Y0029732D02*
X0146497Y0033268D01*
X0150032Y0036803D01*
X0153568Y0036803D01*
X0153568Y0040339D01*
X0157103Y0043874D01*
X0160639Y0043874D01*
X0164174Y0040339D01*
X0164174Y0036803D01*
X0160639Y0033268D01*
X0157103Y0033268D01*
X0157103Y0029732D01*
X0153568Y0026197D01*
X0150032Y0026197D01*
X0146497Y0029732D01*
X0089300Y0121500D02*
X0084300Y0121500D01*
X0081800Y0124000D01*
X0081800Y0129000D01*
X0084300Y0131500D01*
X0081800Y0134000D01*
X0081800Y0139000D01*
X0084300Y0141500D01*
X0081800Y0144000D01*
X0081800Y0149000D01*
X0084300Y0151500D01*
X0081800Y0154000D01*
X0081800Y0159000D01*
X0084300Y0161500D01*
X0089300Y0161500D01*
X0091800Y0159000D01*
X0091800Y0154000D01*
X0089300Y0151500D01*
X0091800Y0149000D01*
X0091800Y0144000D01*
X0089300Y0141500D01*
X0091800Y0139000D01*
X0091800Y0134000D01*
X0089300Y0131500D01*
X0091800Y0129000D01*
X0091800Y0124000D01*
X0089300Y0121500D01*
X0047103Y0134732D02*
X0043568Y0131197D01*
X0040032Y0131197D01*
X0040032Y0127661D01*
X0036497Y0124126D01*
X0032961Y0124126D01*
X0029426Y0127661D01*
X0029426Y0131197D01*
X0032961Y0134732D01*
X0036497Y0134732D01*
X0036497Y0138268D01*
X0040032Y0141803D01*
X0043568Y0141803D01*
X0047103Y0138268D01*
X0047103Y0134732D01*
X0146497Y0134732D02*
X0146497Y0138268D01*
X0150032Y0141803D01*
X0153568Y0141803D01*
X0157103Y0138268D01*
X0157103Y0134732D01*
X0160639Y0134732D01*
X0164174Y0131197D01*
X0164174Y0127661D01*
X0160639Y0124126D01*
X0157103Y0124126D01*
X0153568Y0127661D01*
X0153568Y0131197D01*
X0150032Y0131197D01*
X0146497Y0134732D01*
M02*
