G75*
%MOIN*%
%OFA0B0*%
%FSLAX25Y25*%
%IPPOS*%
%LPD*%
%AMOC8*
5,1,8,0,0,1.08239X$1,22.5*
%
%ADD10C,0.01000*%
%ADD11R,0.07087X0.10630*%
D10*
X0035046Y0151499D02*
X0033429Y0150255D01*
X0031842Y0148971D01*
X0030287Y0147649D01*
X0028765Y0146289D01*
X0027277Y0144893D01*
X0025824Y0143460D01*
X0024406Y0141992D01*
X0023024Y0140490D01*
X0021680Y0138955D01*
X0020374Y0137387D01*
X0019106Y0135787D01*
X0017878Y0134157D01*
X0016690Y0132497D01*
X0015544Y0130809D01*
X0014439Y0129093D01*
X0013376Y0127351D01*
X0012356Y0125583D01*
X0011380Y0123791D01*
X0010448Y0121975D01*
X0009561Y0120137D01*
X0008719Y0118278D01*
X0007923Y0116399D01*
X0007173Y0114501D01*
X0006470Y0112585D01*
X0005814Y0110652D01*
X0005205Y0108704D01*
X0004645Y0106742D01*
X0004132Y0104766D01*
X0003668Y0102779D01*
X0003253Y0100781D01*
X0002887Y0098773D01*
X0002570Y0096757D01*
X0002303Y0094734D01*
X0002086Y0092704D01*
X0001918Y0090670D01*
X0001800Y0088633D01*
X0001732Y0086593D01*
X0001713Y0084552D01*
X0001745Y0082512D01*
X0001827Y0080473D01*
X0001959Y0078436D01*
X0002140Y0076403D01*
X0002372Y0074376D01*
X0002653Y0072354D01*
X0002983Y0070340D01*
X0003362Y0068335D01*
X0003791Y0066339D01*
X0004268Y0064355D01*
X0004794Y0062383D01*
X0005368Y0060425D01*
X0005989Y0058481D01*
X0006658Y0056553D01*
X0007374Y0054642D01*
X0008137Y0052749D01*
X0008946Y0050875D01*
X0009800Y0049021D01*
X0010700Y0047189D01*
X0011644Y0045380D01*
X0012632Y0043594D01*
X0013664Y0041833D01*
X0014738Y0040098D01*
X0015855Y0038390D01*
X0017013Y0036710D01*
X0018212Y0035058D01*
X0019451Y0033436D01*
X0020729Y0031845D01*
X0022046Y0030286D01*
X0023401Y0028760D01*
X0024792Y0027267D01*
X0026220Y0025809D01*
X0027683Y0024386D01*
X0029180Y0022999D01*
X0030711Y0021650D01*
X0032275Y0020338D01*
X0033870Y0019065D01*
X0035496Y0017831D01*
X0037152Y0016638D01*
X0038836Y0015486D01*
X0040548Y0014375D01*
X0042287Y0013306D01*
X0044051Y0012281D01*
X0045840Y0011299D01*
X0047653Y0010361D01*
X0049488Y0009467D01*
X0051344Y0008619D01*
X0053221Y0007817D01*
X0055116Y0007060D01*
X0057030Y0006351D01*
X0058960Y0005688D01*
X0060906Y0005073D01*
X0062866Y0004506D01*
X0064840Y0003987D01*
X0066826Y0003516D01*
X0068823Y0003094D01*
X0070829Y0002722D01*
X0072845Y0002398D01*
X0074867Y0002124D01*
X0076895Y0001900D01*
X0078929Y0001725D01*
X0080966Y0001600D01*
X0083005Y0001525D01*
X0085046Y0001500D01*
X0087087Y0001525D01*
X0089126Y0001600D01*
X0091163Y0001725D01*
X0093197Y0001900D01*
X0095225Y0002124D01*
X0097247Y0002398D01*
X0099263Y0002722D01*
X0101269Y0003094D01*
X0103266Y0003516D01*
X0105252Y0003987D01*
X0107226Y0004506D01*
X0109186Y0005073D01*
X0111132Y0005688D01*
X0113062Y0006351D01*
X0114976Y0007060D01*
X0116871Y0007817D01*
X0118748Y0008619D01*
X0120604Y0009467D01*
X0122439Y0010361D01*
X0124252Y0011299D01*
X0126041Y0012281D01*
X0127805Y0013306D01*
X0129544Y0014375D01*
X0131256Y0015486D01*
X0132940Y0016638D01*
X0134596Y0017831D01*
X0136222Y0019065D01*
X0137817Y0020338D01*
X0139381Y0021650D01*
X0140912Y0022999D01*
X0142409Y0024386D01*
X0143872Y0025809D01*
X0145300Y0027267D01*
X0146691Y0028760D01*
X0148046Y0030286D01*
X0149363Y0031845D01*
X0150641Y0033436D01*
X0151880Y0035058D01*
X0153079Y0036710D01*
X0154237Y0038390D01*
X0155354Y0040098D01*
X0156428Y0041833D01*
X0157460Y0043594D01*
X0158448Y0045380D01*
X0159392Y0047189D01*
X0160292Y0049021D01*
X0161146Y0050875D01*
X0161955Y0052749D01*
X0162718Y0054642D01*
X0163434Y0056553D01*
X0164103Y0058481D01*
X0164724Y0060425D01*
X0165298Y0062383D01*
X0165824Y0064355D01*
X0166301Y0066339D01*
X0166730Y0068335D01*
X0167109Y0070340D01*
X0167439Y0072354D01*
X0167720Y0074376D01*
X0167952Y0076403D01*
X0168133Y0078436D01*
X0168265Y0080473D01*
X0168347Y0082512D01*
X0168379Y0084552D01*
X0168360Y0086593D01*
X0168292Y0088633D01*
X0168174Y0090670D01*
X0168006Y0092704D01*
X0167789Y0094734D01*
X0167522Y0096757D01*
X0167205Y0098773D01*
X0166839Y0100781D01*
X0166424Y0102779D01*
X0165960Y0104766D01*
X0165447Y0106742D01*
X0164887Y0108704D01*
X0164278Y0110652D01*
X0163622Y0112585D01*
X0162919Y0114501D01*
X0162169Y0116399D01*
X0161373Y0118278D01*
X0160531Y0120137D01*
X0159644Y0121975D01*
X0158712Y0123791D01*
X0157736Y0125583D01*
X0156716Y0127351D01*
X0155653Y0129093D01*
X0154548Y0130809D01*
X0153402Y0132497D01*
X0152214Y0134157D01*
X0150986Y0135787D01*
X0149718Y0137387D01*
X0148412Y0138955D01*
X0147068Y0140490D01*
X0145686Y0141992D01*
X0144268Y0143460D01*
X0142815Y0144893D01*
X0141327Y0146289D01*
X0139805Y0147649D01*
X0138250Y0148971D01*
X0136663Y0150255D01*
X0135046Y0151499D01*
X0135046Y0151500D02*
X0135031Y0152718D01*
X0134987Y0153934D01*
X0134913Y0155150D01*
X0134809Y0156363D01*
X0134676Y0157573D01*
X0134513Y0158780D01*
X0134321Y0159982D01*
X0134100Y0161180D01*
X0133850Y0162372D01*
X0133571Y0163557D01*
X0133263Y0164735D01*
X0132926Y0165905D01*
X0132561Y0167067D01*
X0132168Y0168219D01*
X0131747Y0169362D01*
X0131298Y0170493D01*
X0130822Y0171614D01*
X0130318Y0172723D01*
X0129788Y0173819D01*
X0129231Y0174902D01*
X0128648Y0175971D01*
X0128040Y0177025D01*
X0127405Y0178065D01*
X0126746Y0179088D01*
X0126062Y0180096D01*
X0125353Y0181086D01*
X0124621Y0182059D01*
X0123865Y0183013D01*
X0123086Y0183949D01*
X0122285Y0184866D01*
X0121461Y0185763D01*
X0120616Y0186639D01*
X0119750Y0187495D01*
X0118863Y0188330D01*
X0117956Y0189142D01*
X0117030Y0189932D01*
X0116084Y0190700D01*
X0115121Y0191444D01*
X0114139Y0192164D01*
X0113140Y0192861D01*
X0112125Y0193533D01*
X0111093Y0194180D01*
X0110046Y0194801D01*
X0108984Y0195397D01*
X0107908Y0195967D01*
X0106819Y0196511D01*
X0105716Y0197027D01*
X0104601Y0197517D01*
X0103475Y0197980D01*
X0102338Y0198415D01*
X0101190Y0198822D01*
X0100033Y0199201D01*
X0098867Y0199552D01*
X0097693Y0199874D01*
X0096511Y0200168D01*
X0095322Y0200433D01*
X0094128Y0200668D01*
X0092928Y0200875D01*
X0091723Y0201052D01*
X0090515Y0201200D01*
X0089303Y0201318D01*
X0088088Y0201407D01*
X0086872Y0201467D01*
X0085655Y0201496D01*
X0084437Y0201496D01*
X0083220Y0201467D01*
X0082004Y0201407D01*
X0080789Y0201318D01*
X0079577Y0201200D01*
X0078369Y0201052D01*
X0077164Y0200875D01*
X0075964Y0200668D01*
X0074770Y0200433D01*
X0073581Y0200168D01*
X0072399Y0199874D01*
X0071225Y0199552D01*
X0070059Y0199201D01*
X0068902Y0198822D01*
X0067754Y0198415D01*
X0066617Y0197980D01*
X0065491Y0197517D01*
X0064376Y0197027D01*
X0063273Y0196511D01*
X0062184Y0195967D01*
X0061108Y0195397D01*
X0060046Y0194801D01*
X0058999Y0194180D01*
X0057967Y0193533D01*
X0056952Y0192861D01*
X0055953Y0192164D01*
X0054971Y0191444D01*
X0054008Y0190700D01*
X0053062Y0189932D01*
X0052136Y0189142D01*
X0051229Y0188330D01*
X0050342Y0187495D01*
X0049476Y0186639D01*
X0048631Y0185763D01*
X0047807Y0184866D01*
X0047006Y0183949D01*
X0046227Y0183013D01*
X0045471Y0182059D01*
X0044739Y0181086D01*
X0044030Y0180096D01*
X0043346Y0179088D01*
X0042687Y0178065D01*
X0042052Y0177025D01*
X0041444Y0175971D01*
X0040861Y0174902D01*
X0040304Y0173819D01*
X0039774Y0172723D01*
X0039270Y0171614D01*
X0038794Y0170493D01*
X0038345Y0169362D01*
X0037924Y0168219D01*
X0037531Y0167067D01*
X0037166Y0165905D01*
X0036829Y0164735D01*
X0036521Y0163557D01*
X0036242Y0162372D01*
X0035992Y0161180D01*
X0035771Y0159982D01*
X0035579Y0158780D01*
X0035416Y0157573D01*
X0035283Y0156363D01*
X0035179Y0155150D01*
X0035105Y0153934D01*
X0035061Y0152718D01*
X0035046Y0151500D01*
D11*
X0076218Y0189583D03*
X0093541Y0189583D03*
M02*
